<?xml version="1.0" encoding="UTF-8" standalone="no"?>
<!-- Created with Inkscape (http://www.inkscape.org/) -->

<svg
   version="1.1"
   id="svg1"
   width="680.3147"
   height="243.70399"
   viewBox="0 0 680.3147 243.70399"
   sodipodi:docname="02_vector_plus_scalar.pdf"
   xmlns:inkscape="http://www.inkscape.org/namespaces/inkscape"
   xmlns:sodipodi="http://sodipodi.sourceforge.net/DTD/sodipodi-0.dtd"
   xmlns="http://www.w3.org/2000/svg"
   xmlns:svg="http://www.w3.org/2000/svg">
  <defs
     id="defs1" />
  <sodipodi:namedview
     id="namedview1"
     pagecolor="#ffffff"
     bordercolor="#000000"
     borderopacity="0.25"
     inkscape:showpageshadow="2"
     inkscape:pageopacity="0.0"
     inkscape:pagecheckerboard="0"
     inkscape:deskcolor="#d1d1d1">
    <inkscape:page
       x="0"
       y="0"
       inkscape:label="1"
       id="page1"
       width="680.3147"
       height="243.70399"
       margin="0"
       bleed="0" />
  </sodipodi:namedview>
  <g
     id="g1"
     inkscape:groupmode="layer"
     inkscape:label="1">
    <path
       id="path1"
       d="m -124.72595,51.02417 h 22.67743 V 73.7016 h -22.67743 z"
       style="fill:none;stroke:#000000;stroke-width:0.3985;stroke-linecap:butt;stroke-linejoin:miter;stroke-miterlimit:10;stroke-dasharray:none;stroke-opacity:1"
       transform="matrix(1.3333333,0,0,-1.3333333,306.14133,150.724)" />
    <path
       id="path2"
       d="m 5.3554141,-3.8211094 c 0,-0.9960937 -0.058594,-1.96875 -0.4921875,-2.8710937 -0.4921875,-0.9960938 -1.3476563,-1.2539063 -1.9335938,-1.2539063 -0.6914062,0 -1.546875,0.3398438 -1.98046874,1.3359375 -0.33984375,0.75 -0.45703125,1.4882813 -0.45703125,2.7890625 0,1.1601563 0.0820313,2.0273438 0.51562499,2.87109378 0.4570313,0.9140625 1.2890625,1.1953125 1.9101563,1.1953125 1.0429687,0 1.640625,-0.62109375 1.9804687,-1.31249998 0.4335938,-0.890625 0.4570313,-2.0625 0.4570313,-2.7539063 z m -2.4375,3.83203128 c -0.3867188,0 -1.1601563,-0.2109375 -1.3828125,-1.52343748 -0.140625,-0.7148438 -0.140625,-1.6171875 -0.140625,-2.4609375 0,-0.9726563 0,-1.8632813 0.1992187,-2.5664063 0.1992188,-0.796875 0.8085938,-1.171875 1.3242188,-1.171875 0.4570312,0 1.1484375,0.28125 1.3710937,1.3007813 0.1523438,0.6796875 0.1523438,1.6289062 0.1523438,2.4375 0,0.8085937 0,1.7109375 -0.1289063,2.4375 -0.2226562,1.32421873 -0.9726562,1.54687498 -1.3945312,1.54687498 z m 0,0"
       style="fill:#000000;fill-opacity:1;fill-rule:nonzero;stroke:none"
       aria-label="0"
       transform="matrix(1.3333333,0,0,1.3333333,151.05867,72.712)" />
    <path
       id="path3"
       d="m -102.04842,51.02417 h 22.67743 V 73.7016 h -22.67743 z"
       style="fill:none;stroke:#000000;stroke-width:0.3985;stroke-linecap:butt;stroke-linejoin:miter;stroke-miterlimit:10;stroke-dasharray:none;stroke-opacity:1"
       transform="matrix(1.3333333,0,0,-1.3333333,306.14133,150.724)" />
    <path
       id="path4"
       d="m 3.4440391,-7.6648594 c 0,-0.2695312 0,-0.28125 -0.2460938,-0.28125 -0.28125,0.3164063 -0.8789062,0.7617188 -2.109375,0.7617188 v 0.3515625 c 0.2695313,0 0.8671875,0 1.5234375,-0.3164063 v 6.22265628 c 0,0.43359375 -0.035156,0.57421875 -1.078125,0.57421875 h -0.375 v 0.351562495 c 0.3164063,-0.023437495 1.4765625,-0.023437495 1.875,-0.023437495 0.3984375,0 1.546875,0 1.8632813,0.023437495 V -0.35235937 H 4.5338828 c -1.0546875,0 -1.0898437,-0.140625 -1.0898437,-0.57421875 z m 0,0"
       style="fill:#000000;fill-opacity:1;fill-rule:nonzero;stroke:none"
       aria-label="1"
       transform="matrix(1.3333333,0,0,1.3333333,181.29467,72.712)" />
    <path
       id="path5"
       d="m -79.37088,51.02417 h 22.67743 V 73.7016 h -22.67743 z"
       style="fill:none;stroke:#000000;stroke-width:0.3985;stroke-linecap:butt;stroke-linejoin:miter;stroke-miterlimit:10;stroke-dasharray:none;stroke-opacity:1"
       transform="matrix(1.3333333,0,0,-1.3333333,306.14133,150.724)" />
    <path
       id="path6"
       d="M 5.2621563,-2.0047031 H 4.992625 c -0.035156,0.1992187 -0.1289062,0.8554687 -0.2460937,1.04296873 -0.082031,0.1171875 -0.7617188,0.1171875 -1.125,0.1171875 H 1.4066875 C 1.7348125,-1.1257969 2.461375,-1.8875156 2.7777813,-2.1804844 c 1.8164062,-1.6640625 2.484375,-2.2851562 2.484375,-3.46875 0,-1.3828125 -1.0898438,-2.296875 -2.4726563,-2.296875 -1.3945312,0 -2.203125,1.1835938 -2.203125,2.203125 0,0.609375 0.5273438,0.609375 0.5625,0.609375 0.2460938,0 0.5625,-0.1757812 0.5625,-0.5625 0,-0.328125 -0.234375,-0.5507812 -0.5625,-0.5507812 -0.1054687,0 -0.1289062,0 -0.1640625,0.011719 0.2226563,-0.8203125 0.8671875,-1.3710937 1.640625,-1.3710937 1.0195313,0 1.640625,0.8554687 1.640625,1.9570312 0,1.0078125 -0.5859375,1.8984375 -1.265625,2.6601563 L 0.586375,-0.28204687 V -7.96875e-4 H 4.94575 Z m 0,0"
       style="fill:#000000;fill-opacity:1;fill-rule:nonzero;stroke:none"
       aria-label="2"
       transform="matrix(1.3333333,0,0,1.3333333,211.53067,72.712)" />
    <path
       id="path7"
       d="m 4.9465547,-3.3988281 c 0,-0.9023438 -0.6796875,-1.8632813 -2.296875,-1.8632813 -0.4921875,0 -1.65234376,0 -1.65234376,0.8320313 0,0.3164062 0.22265626,0.4921875 0.48046876,0.4921875 0.082031,0 0.46875,-0.023437 0.4804687,-0.515625 0,-0.070312 0.011719,-0.082031 0.2695313,-0.1054688 0.140625,-0.011719 0.2929687,-0.011719 0.4335937,-0.011719 0.28125,0 0.6914063,0 1.078125,0.3046875 0.4335938,0.328125 0.4335938,0.6679687 0.4335938,1.0195312 -0.703125,0.023437 -1.3945313,0.070312 -2.1445313,0.3046875 -0.5976562,0.1992188 -1.35937496,0.6328125 -1.35937496,1.4414063 0,0.85546872 0.74999996,1.57031247 1.86328126,1.57031247 0.3867187,0 1.125,-0.05859375 1.7460937,-0.4921875 0.2460938,0.3984375 0.84375,0.421875005 1.2890625,0.421875005 0.2929688,0 0.5742188,0 0.5742188,-0.351562505 0,-0.33984375 -0.3046875,-0.33984375 -0.4804688,-0.33984375 -0.3046875,0 -0.5390625,-0.0234375 -0.7148437,-0.09375 z m -0.7734375,1.8164062 c 0,0.28125 0,0.5273438 -0.4921875,0.76171877 -0.421875,0.19921875 -0.9726563,0.19921875 -1.0195313,0.19921875 -0.703125,0 -1.21875,-0.38671872 -1.21875,-0.87890622 0,-0.703125 1.2890625,-1.1015625 2.7304688,-1.1015625 z M -22.66868,9.5416016 c 0,-0.1875 0,-0.4570313 -0.328125,-0.4570313 -0.292968,0 -0.363281,0.28125 -0.363281,0.2929688 -0.480469,-0.2929688 -1.019531,-0.2929688 -1.265625,-0.2929688 -1.945312,0 -2.214844,0.9960937 -2.214844,1.4062497 0,0.480469 0.292969,0.820313 0.703125,1.042969 0.375,0.222656 0.726563,0.28125 1.699219,0.433594 0.46875,0.08203 1.429688,0.234375 1.429688,0.902344 0,0.433593 -0.410157,0.855468 -1.523438,0.855468 -0.761719,0 -1.265625,-0.304687 -1.511719,-1.160156 -0.05859,-0.164062 -0.09375,-0.292969 -0.398437,-0.292969 -0.398438,0 -0.398438,0.222657 -0.398438,0.457032 v 1.230468 c 0,0.199219 0,0.457032 0.339844,0.457032 0.140625,0 0.246094,0 0.433594,-0.492188 0.550781,0.457031 1.171875,0.492188 1.535156,0.492188 2.214844,0 2.214844,-1.429688 2.214844,-1.546875 0,-1.253907 -1.476563,-1.5 -2.050781,-1.582032 -1.054688,-0.175781 -1.769532,-0.304687 -1.769532,-0.796875 0,-0.328125 0.363282,-0.7148434 1.488282,-0.7148434 1.136718,0 1.183593,0.5390624 1.207031,0.8554684 0.02344,0.234375 0.246094,0.269532 0.386719,0.269532 0.386718,0 0.386718,-0.210938 0.386718,-0.457032 z m 6.128907,1.3007814 c 0,-1.1718752 -0.550782,-1.7226564 -1.523438,-1.7226564 -0.820312,0 -1.335937,0.4570312 -1.546875,0.6796875 V 7.5376953 c 0,-0.375 -0.07031,-0.4921875 -0.480469,-0.4921875 h -0.785156 c -0.164062,0 -0.480469,0 -0.480469,0.3398438 0,0.3515625 0.316407,0.3515625 0.480469,0.3515625 h 0.492188 v 5.9179689 h -0.492188 c -0.164062,0 -0.480469,0 -0.480469,0.339844 0,0.351562 0.316407,0.351562 0.480469,0.351562 h 1.757813 c 0.164062,0 0.480468,0 0.480468,-0.351562 0,-0.339844 -0.316406,-0.339844 -0.480468,-0.339844 h -0.492188 v -2.167969 c 0,-1.160156 0.820313,-1.6757812 1.464844,-1.6757812 0.691406,0 0.832031,0.3984372 0.832031,1.0781252 v 2.765625 h -0.492187 c -0.164063,0 -0.480469,0 -0.480469,0.339844 0,0.351562 0.316406,0.351562 0.480469,0.351562 h 1.757812 c 0.164063,0 0.480469,0 0.480469,-0.351562 0,-0.339844 -0.316406,-0.339844 -0.480469,-0.339844 h -0.492187 z m 6.105468,0.105469 c 0,-0.902344 -0.679687,-1.8632817 -2.296875,-1.8632817 -0.492187,0 -1.652343,0 -1.652343,0.8320313 0,0.3164064 0.222656,0.4921874 0.480468,0.4921874 0.08203,0 0.46875,-0.02344 0.480469,-0.5156249 0,-0.070312 0.01172,-0.082031 0.269531,-0.1054688 0.140625,-0.011719 0.292969,-0.011719 0.433594,-0.011719 0.28125,0 0.691406,0 1.078125,0.3046877 0.433594,0.328125 0.433594,0.667969 0.433594,1.019531 -0.703125,0.02344 -1.394531,0.07031 -2.144531,0.304688 -0.597657,0.199219 -1.359375,0.632812 -1.359375,1.441406 0,0.855469 0.75,1.570313 1.863281,1.570313 0.386719,0 1.125,-0.05859 1.746094,-0.492188 0.246093,0.398438 0.84375,0.421875 1.2890621,0.421875 0.2929687,0 0.5742187,0 0.5742187,-0.351562 0,-0.339844 -0.3046875,-0.339844 -0.4804687,-0.339844 -0.3046871,0 -0.5390621,-0.02344 -0.7148441,-0.09375 z m -0.773437,1.816406 c 0,0.28125 0,0.527344 -0.492188,0.761719 -0.421875,0.199218 -0.972656,0.199218 -1.019531,0.199218 -0.703125,0 -1.21875,-0.386718 -1.21875,-0.878906 0,-0.703125 1.289063,-1.101562 2.730469,-1.101562 z m 4.3945311,4.230469 c 0.1640625,0 0.4804687,0 0.4804687,-0.339844 0,-0.351563 -0.3164062,-0.351563 -0.4804687,-0.351563 h -0.4921875 v -2.554687 c 0.2929687,0.328125 0.7265625,0.667969 1.40625,0.667969 1.265625,0 2.3789062,-1.136719 2.3789062,-2.648438 0,-1.476562 -1.0078125,-2.6484374 -2.25,-2.6484374 -0.8789062,0 -1.4296875,0.5273437 -1.5351562,0.6445312 0,-0.3867187 0,-0.5742187 -0.4804688,-0.5742187 h -0.7851562 c -0.1640625,0 -0.4804688,0 -0.4804688,0.3515625 0,0.3515625 0.3164063,0.3515625 0.4804688,0.3515625 h 0.4921875 V 16.30332 h -0.4921875 c -0.1640625,0 -0.4804688,0 -0.4804688,0.351563 0,0.339844 0.3164063,0.339844 0.4804688,0.339844 z m -0.4921875,-5.824219 c 0,-0.679688 0.6679687,-1.3593752 1.453125,-1.3593752 0.8554687,0 1.546875,0.8789062 1.546875,1.9570312 0,1.148438 -0.8085938,1.957031 -1.6640625,1.957031 -0.890625,0 -1.3359375,-1.019531 -1.3359375,-1.617187 z m 9.1992187,0.878906 c 0.2578125,0 0.4804688,0 0.4804688,-0.445312 0,-1.394532 -0.7851563,-2.5195317 -2.28515629,-2.5195317 -1.38281251,0 -2.49609371,1.1953127 -2.49609371,2.6601567 0,1.5 1.2070312,2.671875 2.68359371,2.671875 1.53515629,0 2.09765629,-1.066407 2.09765629,-1.371094 0,-0.07031 -0.023437,-0.339844 -0.3984375,-0.339844 -0.2226563,0 -0.2929688,0.08203 -0.3632813,0.269531 -0.3046875,0.691407 -1.07812499,0.75 -1.30078124,0.75 -0.99609375,0 -1.78124996,-0.75 -1.92187496,-1.675781 z m -3.4921875,-0.65625 c 0.1640625,-1.019531 0.93750001,-1.6171874 1.68750001,-1.6171874 1.19531249,0 1.45312499,1.0195314 1.49999999,1.6171874 z m 9.8671875,-1.21875 c 0.1523438,0 0.515625,0 0.515625,-0.3867187 0,-0.3867187 -0.3984375,-0.3867187 -0.5742187,-0.3867187 H 4.0969453 c -0.1875,0 -0.5742187,0 -0.5742187,0.3867187 0,0.3867187 0.3632812,0.3867187 0.515625,0.3867187 z m -0.058594,1.816406 c 0.1757812,0 0.5742187,0 0.5742187,-0.398437 0,-0.375 -0.375,-0.375 -0.515625,-0.375 H 4.0383516 c -0.1640625,0 -0.515625,0 -0.515625,0.375 0,0.398437 0.3867187,0.398437 0.5742187,0.398437 z m 6.1406257,3.035157 c 0,-0.152344 -0.09375,-0.199219 -0.257813,-0.316407 -1.652344,-1.136718 -2.050781,-2.847656 -2.050781,-4.007812 0,-1.1367189 0.375,-2.8593752 2.050781,-4.0195314 0.164063,-0.1171875 0.257813,-0.1640625 0.257813,-0.3164063 0,-0.1289062 -0.07031,-0.3164062 -0.351563,-0.3164062 -0.304687,0 -1.183594,0.6914062 -1.734375,1.4765625 -0.667969,0.9257812 -1.007812,2.0390625 -1.007812,3.1757814 0,1.324219 0.480468,2.4375 0.984375,3.140625 0.550781,0.761719 1.417968,1.5 1.757812,1.5 0.28125,0 0.351563,-0.210938 0.351563,-0.316406 z m 4.089843,-4.277344 c 1.242188,0 1.792969,0.867187 1.792969,1.523437 0,0.785157 -0.691406,1.523438 -1.746094,1.523438 -1.195312,0 -1.734375,-0.644531 -1.734375,-0.808594 0,-0.02344 0.01172,-0.04687 0.02344,-0.05859 0.04687,-0.09375 0.08203,-0.1875 0.08203,-0.292968 0,-0.246094 -0.1875,-0.480469 -0.46875,-0.480469 -0.257812,0 -0.492187,0.164062 -0.492187,0.527344 0,1.042968 1.136718,1.804687 2.589843,1.804687 1.511719,0 2.519532,-1.078125 2.519532,-2.203125 0,-0.609375 -0.328125,-1.464844 -1.382813,-1.921875 0.726563,-0.4453124 1.054688,-1.1718749 1.054688,-1.7929687 0,-0.890625 -0.902344,-1.6640625 -2.191407,-1.6640625 -1.324218,0 -2.261718,0.5625 -2.261718,1.453125 0,0.3984375 0.304687,0.515625 0.492187,0.515625 0.222656,0 0.480469,-0.1640625 0.480469,-0.4921875 0,-0.1875 -0.09375,-0.2929687 -0.09375,-0.3164062 0.351562,-0.4453125 1.183594,-0.46875 1.382812,-0.46875 0.820313,0 1.417969,0.421875 1.417969,0.984375 0,0.3515625 -0.234375,1.3476562 -1.488281,1.4296879 -0.445313,0.02344 -0.632813,0.04687 -0.679688,0.04687 -0.234375,0.02344 -0.304687,0.175781 -0.304687,0.339843 0,0.351563 0.257812,0.351563 0.457031,0.351563 z m 6.398438,3.5625 c -0.07031,0.375 -0.304688,0.820312 -0.890625,1.03125 -0.105469,0.02344 -0.28125,0.08203 -0.28125,0.304687 0,0.152344 0.175781,0.363282 0.363281,0.363282 0.328125,0 1.511719,-0.585938 1.511719,-1.875 0,-0.632813 -0.398438,-1.136719 -0.925781,-1.136719 -0.445313,0 -0.679688,0.339844 -0.679688,0.667969 0,0.398437 0.304688,0.679687 0.667969,0.679687 0.07031,0 0.152344,-0.01172 0.234375,-0.03516 z m 6.958008,-3.609375 c 0,-0.9375002 -0.222657,-2.1445314 -1.089844,-3.3046877 -0.410156,-0.5507812 -1.289063,-1.3476562 -1.652344,-1.3476562 -0.269531,0 -0.339844,0.1992187 -0.339844,0.3164062 0,0.140625 0.08203,0.1992188 0.292969,0.3398438 1.464844,1.03125 2.015625,2.6367187 2.015625,3.9843749 0,1.078125 -0.351562,2.835938 -2.0625,4.019531 -0.152344,0.105469 -0.246094,0.164063 -0.246094,0.316407 0,0.105468 0.07031,0.316406 0.339844,0.316406 0.304688,0 1.183594,-0.691406 1.734375,-1.476563 0.691406,-0.972656 1.007813,-2.097656 1.007813,-3.164062 z m 0,0"
       style="fill:#000000;fill-opacity:1;fill-rule:nonzero;stroke:none"
       aria-label="a&#10;shape=(3,)"
       transform="matrix(1.3333333,0,0,1.3333333,181.096,20.633333)" />
    <path
       id="path8"
       d="m 4.7705078,-2.7666797 h 3.3046875 c 0.1640625,0 0.375,0 0.375,-0.2109375 0,-0.2226562 -0.1992187,-0.2226562 -0.375,-0.2226562 H 4.7705078 v -3.3046875 c 0,-0.1640625 0,-0.3867188 -0.2109375,-0.3867188 -0.234375,0 -0.234375,0.2109375 -0.234375,0.3867188 v 3.3046875 H 1.0322266 c -0.17578129,0 -0.38671879,0 -0.38671879,0.2109375 0,0.2226562 0.19921875,0.2226562 0.38671879,0.2226562 h 3.2929687 v 3.30468751 c 0,0.1640625 0,0.38671875 0.2226563,0.38671875 0.2226562,0 0.2226562,-0.2109375 0.2226562,-0.38671875 z m 0,0"
       style="fill:#000000;fill-opacity:1;fill-rule:nonzero;stroke:none"
       aria-label="+"
       transform="matrix(1.3333333,0,0,1.3333333,264.16667,71.56)" />
    <path
       id="path9"
       d="M 14.17322,51.02417 H 36.85065 V 73.7016 H 14.17322 Z"
       style="fill:none;stroke:#000000;stroke-width:0.3985;stroke-linecap:butt;stroke-linejoin:miter;stroke-miterlimit:10;stroke-dasharray:none;stroke-opacity:1"
       transform="matrix(1.3333333,0,0,-1.3333333,306.14133,150.724)" />
    <path
       id="path10"
       d="M 5.2611484,-2.0037031 H 4.9916172 c -0.035156,0.1992187 -0.1289063,0.8554687 -0.2460938,1.04296872 -0.082031,0.1171875 -0.7617187,0.1171875 -1.125,0.1171875 H 1.4056797 c 0.328125,-0.28125002 1.0546875,-1.04296872 1.3710937,-1.33593752 1.8164063,-1.6640625 2.484375,-2.2851562 2.484375,-3.46875 0,-1.3828125 -1.0898437,-2.296875 -2.4726562,-2.296875 -1.3945313,0 -2.20312501,1.1835938 -2.20312501,2.203125 0,0.609375 0.52734371,0.609375 0.56250001,0.609375 0.2460937,0 0.5625,-0.1757812 0.5625,-0.5625 0,-0.328125 -0.234375,-0.5507812 -0.5625,-0.5507812 -0.1054688,0 -0.1289063,0 -0.16406251,0.011719 0.22265621,-0.8203125 0.86718751,-1.3710937 1.64062501,-1.3710937 1.0195312,0 1.640625,0.8554687 1.640625,1.9570312 0,1.0078125 -0.5859375,1.8984375 -1.265625,2.6601563 L 0.58536719,-0.28104688 V 2.03125e-4 H 4.9447422 Z m 0,0"
       style="fill:#000000;fill-opacity:1;fill-rule:nonzero;stroke:none"
       aria-label="2"
       transform="matrix(1.3333333,0,0,1.3333333,336.25467,72.710667)" />
    <path
       id="path11"
       d="m 1.9208906,-6.8092031 c 0,-0.375 -0.070312,-0.4921875 -0.4804687,-0.4921875 H 0.65526563 c -0.1640625,0 -0.48046875,0 -0.48046875,0.3398437 0,0.3515625 0.31640625,0.3515625 0.48046875,0.3515625 H 1.1474531 v 6.11718753 c 0,0.22265625 0,0.492187495 0.3984375,0.492187495 0.375,0 0.375,-0.246093745 0.375,-0.597656245 0.2929688,0.328125 0.7265625,0.66796875 1.40625,0.66796875 1.265625,0 2.3789063,-1.13671873 2.3789063,-2.64843753 0,-1.4765625 -1.0078125,-2.6484375 -2.25,-2.6484375 -0.8789063,0 -1.4296875,0.5273438 -1.5351563,0.6445313 z m 0,3.6328125 c 0,-0.6796875 0.6679688,-1.359375 1.453125,-1.359375 0.8554688,0 1.546875,0.8789062 1.546875,1.9570312 0,1.1484375 -0.8085937,1.95703128 -1.6640625,1.95703128 -0.890625,0 -1.3359375,-1.01953128 -1.3359375,-1.61718748 z M -16.515633,9.5413828 c 0,-0.1875 0,-0.4570312 -0.328125,-0.4570312 -0.292969,0 -0.363281,0.28125 -0.363281,0.2929687 -0.480469,-0.2929687 -1.019531,-0.2929687 -1.265625,-0.2929687 -1.945313,0 -2.214844,0.9960934 -2.214844,1.4062504 0,0.480468 0.292969,0.820312 0.703125,1.042968 0.375,0.222657 0.726563,0.28125 1.699219,0.433594 0.46875,0.08203 1.429687,0.234375 1.429687,0.902344 0,0.433594 -0.410156,0.855469 -1.523437,0.855469 -0.761719,0 -1.265625,-0.304688 -1.511719,-1.160157 -0.05859,-0.164062 -0.09375,-0.292968 -0.398437,-0.292968 -0.398438,0 -0.398438,0.222656 -0.398438,0.457031 v 1.230469 c 0,0.199218 0,0.457031 0.339844,0.457031 0.140625,0 0.246094,0 0.433594,-0.492188 0.550781,0.457032 1.171875,0.492188 1.535156,0.492188 2.214844,0 2.214844,-1.429688 2.214844,-1.546875 0,-1.253906 -1.476563,-1.5 -2.050782,-1.582031 -1.054687,-0.175782 -1.769531,-0.304688 -1.769531,-0.796875 0,-0.328125 0.363281,-0.7148442 1.488281,-0.7148442 1.136719,0 1.183594,0.5390622 1.207032,0.8554692 0.02344,0.234375 0.246093,0.269531 0.386718,0.269531 0.386719,0 0.386719,-0.210938 0.386719,-0.457031 z m 6.128906,1.3007812 c 0,-1.1718749 -0.550781,-1.7226562 -1.523437,-1.7226562 -0.820313,0 -1.335938,0.4570313 -1.546875,0.6796875 V 7.5374766 c 0,-0.375 -0.07031,-0.4921875 -0.480469,-0.4921875 h -0.785156 c -0.164063,0 -0.480469,0 -0.480469,0.3398437 0,0.3515625 0.316406,0.3515625 0.480469,0.3515625 h 0.492187 v 5.9179687 h -0.492187 c -0.164063,0 -0.480469,0 -0.480469,0.339844 0,0.351562 0.316406,0.351562 0.480469,0.351562 h 1.757812 c 0.164063,0 0.480469,0 0.480469,-0.351562 0,-0.339844 -0.316406,-0.339844 -0.480469,-0.339844 h -0.492187 v -2.167969 c 0,-1.160156 0.820312,-1.6757809 1.464844,-1.6757809 0.691406,0 0.832031,0.3984379 0.832031,1.0781249 v 2.765625 h -0.492188 c -0.164062,0 -0.480468,0 -0.480468,0.339844 0,0.351562 0.316406,0.351562 0.480468,0.351562 h 1.7578129 c 0.1640625,0 0.4804688,0 0.4804688,-0.351562 0,-0.339844 -0.3164063,-0.339844 -0.4804688,-0.339844 h -0.4921879 z m 6.1054692,0.105469 c 0,-0.902344 -0.6796875,-1.8632814 -2.296875,-1.8632814 -0.4921875,0 -1.6523438,0 -1.6523438,0.8320312 0,0.3164062 0.2226563,0.4921872 0.4804688,0.4921872 0.082031,0 0.46875,-0.02344 0.4804687,-0.5156247 0,-0.070312 0.011719,-0.082031 0.2695313,-0.1054687 0.140625,-0.011719 0.2929687,-0.011719 0.4335937,-0.011719 0.28125,0 0.6914063,0 1.078125,0.3046874 0.4335938,0.328125 0.4335938,0.667969 0.4335938,1.019532 -0.703125,0.02344 -1.3945313,0.07031 -2.1445313,0.304687 -0.5976562,0.199219 -1.359375,0.632813 -1.359375,1.441406 0,0.855469 0.75,1.570313 1.8632813,1.570313 0.3867187,0 1.125,-0.05859 1.7460937,-0.492188 0.2460938,0.398438 0.84375,0.421875 1.2890625,0.421875 0.2929688,0 0.5742188,0 0.5742188,-0.351562 0,-0.339844 -0.3046875,-0.339844 -0.4804688,-0.339844 -0.3046875,0 -0.5390625,-0.02344 -0.7148437,-0.09375 z m -0.7734375,1.816406 c 0,0.28125 0,0.527344 -0.4921875,0.761719 -0.421875,0.199219 -0.9726563,0.199219 -1.0195313,0.199219 -0.703125,0 -1.21875,-0.386719 -1.21875,-0.878907 0,-0.703125 1.2890625,-1.101562 2.7304688,-1.101562 z m 4.39453124,4.230469 c 0.1640625,0 0.48046875,0 0.48046875,-0.339844 0,-0.351562 -0.31640625,-0.351562 -0.48046875,-0.351562 H -1.1523516 v -2.554688 c 0.29296879,0.328125 0.72656254,0.667969 1.40625004,0.667969 1.26562496,0 2.37890626,-1.136719 2.37890626,-2.648438 0,-1.476562 -1.0078125,-2.6484372 -2.25000001,-2.6484372 -0.87890625,0 -1.42968749,0.5273438 -1.53515629,0.6445313 0,-0.3867188 0,-0.5742188 -0.4804687,-0.5742188 h -0.7851563 c -0.1640625,0 -0.4804687,0 -0.4804687,0.3515625 0,0.3515625 0.3164062,0.3515625 0.4804687,0.3515625 h 0.4921875 v 6.4101567 h -0.4921875 c -0.1640625,0 -0.4804687,0 -0.4804687,0.351562 0,0.339844 0.3164062,0.339844 0.4804687,0.339844 z M -1.1523516,11.170289 c 0,-0.679687 0.66796879,-1.3593749 1.45312504,-1.3593749 0.85546876,0 1.54687496,0.8789059 1.54687496,1.9570309 0,1.148438 -0.8085937,1.957032 -1.66406246,1.957032 -0.890625,0 -1.33593754,-1.019532 -1.33593754,-1.617188 z m 9.1962891,0.878906 c 0.2578125,0 0.4804688,0 0.4804688,-0.445312 0,-1.394531 -0.7851563,-2.5195314 -2.2851563,-2.5195314 -1.3828125,0 -2.4960937,1.1953124 -2.4960937,2.6601564 0,1.5 1.2070312,2.671875 2.6835937,2.671875 1.5351563,0 2.0976563,-1.066406 2.0976563,-1.371094 0,-0.07031 -0.023437,-0.339844 -0.3984375,-0.339844 -0.2226563,0 -0.2929688,0.08203 -0.3632813,0.269532 -0.3046875,0.691406 -1.078125,0.75 -1.3007812,0.75 -0.9960938,0 -1.78125,-0.75 -1.921875,-1.675782 z M 4.55175,11.392945 c 0.1640625,-1.019531 0.9375,-1.6171872 1.6875,-1.6171872 1.1953125,0 1.453125,1.0195312 1.5,1.6171872 z m 9.867188,-1.21875 c 0.152343,0 0.515625,0 0.515625,-0.3867184 0,-0.3867188 -0.398438,-0.3867188 -0.574219,-0.3867188 h -4.113281 c -0.1875,0 -0.5742192,0 -0.5742192,0.3867188 0,0.3867184 0.3632812,0.3867184 0.5156252,0.3867184 z m -0.05859,1.816407 c 0.175781,0 0.574219,0 0.574219,-0.398438 0,-0.375 -0.375,-0.375 -0.515625,-0.375 h -4.230469 c -0.164063,0 -0.5156252,0 -0.5156252,0.375 0,0.398438 0.3867192,0.398438 0.5742192,0.398438 z m 6.140625,3.035156 c 0,-0.152344 -0.09375,-0.199219 -0.257813,-0.316406 -1.652343,-1.136719 -2.050781,-2.847657 -2.050781,-4.007813 0,-1.1367187 0.375,-2.8593749 2.050781,-4.0195312 0.164063,-0.1171875 0.257813,-0.1640625 0.257813,-0.3164062 0,-0.1289063 -0.07031,-0.3164063 -0.351563,-0.3164063 -0.304687,0 -1.183593,0.6914063 -1.734375,1.4765625 -0.667968,0.9257813 -1.007812,2.0390625 -1.007812,3.1757812 0,1.324219 0.480469,2.4375 0.984375,3.140625 0.550781,0.761719 1.417969,1.5 1.757812,1.5 0.28125,0 0.351563,-0.210937 0.351563,-0.316406 z M 25.6455,10.701539 c 0,-0.9374999 -0.222656,-2.1445312 -1.089844,-3.3046874 C 24.1455,6.8460703 23.266594,6.0491953 22.903313,6.0491953 c -0.269532,0 -0.339844,0.1992188 -0.339844,0.3164063 0,0.140625 0.08203,0.1992187 0.292969,0.3398437 1.464843,1.03125 2.015625,2.6367188 2.015625,3.9843747 0,1.078125 -0.351563,2.835938 -2.0625,4.019532 -0.152344,0.105468 -0.246094,0.164062 -0.246094,0.316406 0,0.105469 0.07031,0.316406 0.339844,0.316406 0.304687,0 1.183593,-0.691406 1.734375,-1.476562 0.691406,-0.972657 1.007812,-2.097657 1.007812,-3.164063 z m 0,0"
       style="fill:#000000;fill-opacity:1;fill-rule:nonzero;stroke:none"
       aria-label="b&#10;shape=()"
       transform="matrix(1.3333333,0,0,1.3333333,336.056,20.368)" />
    <path
       id="path12"
       d="m 8.0729687,-3.8663437 c 0.1640625,0 0.375,0 0.375,-0.2226563 0,-0.2226562 -0.1992187,-0.2226562 -0.375,-0.2226562 H 1.03 c -0.17578125,0 -0.38671875,0 -0.38671875,0.2109375 0,0.234375 0.19921875,0.234375 0.38671875,0.234375 z m 0,2.2148437 c 0.1640625,0 0.375,0 0.375,-0.2109375 0,-0.234375 -0.1992187,-0.234375 -0.375,-0.234375 H 1.03 c -0.17578125,0 -0.38671875,0 -0.38671875,0.2226563 C 0.64328125,-1.6515 0.8425,-1.6515 1.03,-1.6515 Z m 0,0"
       style="fill:#000000;fill-opacity:1;fill-rule:nonzero;stroke:none"
       aria-label="="
       transform="matrix(1.3333333,0,0,1.3333333,419.12667,70.452)" />
    <path
       id="path13"
       d="m 107.71779,51.02417 h 22.67743 V 73.7016 h -22.67743 z"
       style="fill:none;stroke:#000000;stroke-width:0.3985;stroke-linecap:butt;stroke-linejoin:miter;stroke-miterlimit:10;stroke-dasharray:none;stroke-opacity:1"
       transform="matrix(1.3333333,0,0,-1.3333333,306.14133,150.724)" />
    <path
       id="path14"
       d="M 5.2620703,-2.0037031 H 4.9925391 c -0.035156,0.1992187 -0.1289063,0.8554687 -0.2460938,1.04296872 -0.082031,0.1171875 -0.7617187,0.1171875 -1.125,0.1171875 H 1.4066016 c 0.328125,-0.28125002 1.0546875,-1.04296872 1.3710937,-1.33593752 1.8164063,-1.6640625 2.484375,-2.2851562 2.484375,-3.46875 0,-1.3828125 -1.0898437,-2.296875 -2.4726562,-2.296875 -1.3945313,0 -2.20312504,1.1835938 -2.20312504,2.203125 0,0.609375 0.52734374,0.609375 0.56250004,0.609375 0.2460937,0 0.5625,-0.1757812 0.5625,-0.5625 0,-0.328125 -0.234375,-0.5507812 -0.5625,-0.5507812 -0.1054688,0 -0.1289063,0 -0.16406254,0.011719 0.22265624,-0.8203125 0.86718754,-1.3710937 1.64062504,-1.3710937 1.0195312,0 1.640625,0.8554687 1.640625,1.9570312 0,1.0078125 -0.5859375,1.8984375 -1.265625,2.6601563 L 0.58628906,-0.28104688 V 2.03125e-4 H 4.9456641 Z m 0,0"
       style="fill:#000000;fill-opacity:1;fill-rule:nonzero;stroke:none"
       aria-label="2"
       transform="matrix(1.3333333,0,0,1.3333333,460.98,72.710667)" />
    <path
       id="path15"
       d="m 130.39532,51.02417 h 22.67743 V 73.7016 h -22.67743 z"
       style="fill:none;stroke:#000000;stroke-width:0.3985;stroke-linecap:butt;stroke-linejoin:miter;stroke-miterlimit:10;stroke-dasharray:none;stroke-opacity:1"
       transform="matrix(1.3333333,0,0,-1.3333333,306.14133,150.724)" />
    <path
       id="path16"
       d="m 2.2022578,-4.2888594 c -0.2109375,0.011719 -0.2578125,0.023437 -0.2578125,0.1289063 0,0.1171875 0.058594,0.1171875 0.28125,0.1171875 h 0.5507813 c 1.0078125,0 1.4648437,0.84375 1.4648437,1.9921875 0,1.55859372 -0.8085937,1.98046872 -1.3945312,1.98046872 -0.5742188,0 -1.5585938,-0.28125 -1.89843754,-1.06640622 0.37500004,0.058594 0.72656254,-0.1523438 0.72656254,-0.5859375 0,-0.3398438 -0.2578125,-0.5859375 -0.5859375,-0.5859375 -0.29296879,0 -0.59765629,0.1640625 -0.59765629,0.6210937 0,1.06640627 1.06640629,1.93359377 2.39062499,1.93359377 1.4179688,0 2.4726563,-1.078125 2.4726563,-2.28515627 0,-1.1015625 -0.890625,-1.96875 -2.0273438,-2.1679687 1.03125,-0.3046875 1.6992188,-1.171875 1.6992188,-2.109375 0,-0.9375 -0.9726563,-1.6289063 -2.1328125,-1.6289063 -1.1953125,0 -2.08593754,0.7265625 -2.08593754,1.59375 0,0.4804688 0.37500004,0.5742188 0.55078124,0.5742188 0.2578125,0 0.5390625,-0.1757813 0.5390625,-0.5390625 0,-0.375 -0.28125,-0.5390625 -0.5507812,-0.5390625 -0.070312,0 -0.09375,0 -0.1289063,0.011719 0.4570313,-0.8203125 1.5820313,-0.8203125 1.640625,-0.8203125 0.3867188,0 1.171875,0.1757813 1.171875,1.3476563 0,0.234375 -0.035156,0.9023437 -0.3867187,1.4179687 -0.3515625,0.5273438 -0.7617188,0.5625 -1.0898438,0.5742188 z m 0,0"
       style="fill:#000000;fill-opacity:1;fill-rule:nonzero;stroke:none"
       aria-label="3"
       transform="matrix(1.3333333,0,0,1.3333333,491.216,72.710667)" />
    <path
       id="path17"
       d="m 153.07285,51.02417 h 22.67743 V 73.7016 h -22.67743 z"
       style="fill:none;stroke:#000000;stroke-width:0.3985;stroke-linecap:butt;stroke-linejoin:miter;stroke-miterlimit:10;stroke-dasharray:none;stroke-opacity:1"
       transform="matrix(1.3333333,0,0,-1.3333333,306.14133,150.724)" />
    <path
       id="path18"
       d="m 4.3133438,-7.7810469 c 0,-0.2226562 0,-0.2929687 -0.1640625,-0.2929687 -0.09375,0 -0.1289063,0 -0.2226563,0.1523437 l -3.59765625,5.578125 v 0.3515625 H 3.4695938 v 1.07812502 c 0,0.4453125 -0.023437,0.5625 -0.9023438,0.5625 H 2.332875 V 2.03125e-4 c 0.2695313,-0.023437505 1.21875,-0.023437505 1.5585938,-0.023437505 0.328125,0 1.2890625,0 1.5585937,0.023437505 V -0.35135938 h -0.234375 c -0.8671875,0 -0.9023437,-0.1171875 -0.9023437,-0.5625 V -1.9919844 H 5.520375 V -2.3435469 H 4.3133438 Z m -0.7851563,0.9375 v 4.5 h -2.90625 z m 0,0"
       style="fill:#000000;fill-opacity:1;fill-rule:nonzero;stroke:none"
       aria-label="4"
       transform="matrix(1.3333333,0,0,1.3333333,521.452,72.710667)" />
    <path
       id="path19"
       d="m 5.4489375,-1.3011719 c 0,-0.3164062 -0.2929687,-0.3164062 -0.3984375,-0.3164062 -0.2695312,0 -0.3164062,0.09375 -0.375,0.2695312 -0.2695312,0.65625002 -0.8554687,0.72656252 -1.1367187,0.72656252 -1.0195313,0 -1.875,-0.84375002 -1.875,-1.95703122 0,-0.609375 0.3398437,-1.9921875 1.9101562,-1.9921875 0.328125,0 0.5742188,0.023437 0.6796875,0.035156 0.082031,0.023437 0.09375,0.035156 0.09375,0.1054688 0.035156,0.4804687 0.4101563,0.4921875 0.4804688,0.4921875 0.2695312,0 0.4921875,-0.1757813 0.4921875,-0.4921875 0,-0.8320313 -1.2070313,-0.8320313 -1.734375,-0.8320313 -2.0390625,0 -2.7070313,1.6757813 -2.7070313,2.6835938 0,1.453125 1.1132813,2.64843747 2.5546875,2.64843747 1.59375,0 2.015625,-1.18359377 2.015625,-1.37109357 z M -22.667273,9.5416016 c 0,-0.1875 0,-0.4570313 -0.328125,-0.4570313 -0.292969,0 -0.363282,0.28125 -0.363282,0.2929688 -0.480468,-0.2929688 -1.019531,-0.2929688 -1.265625,-0.2929688 -1.945312,0 -2.214843,0.9960937 -2.214843,1.4062497 0,0.480469 0.292968,0.820313 0.703125,1.042969 0.375,0.222656 0.726562,0.28125 1.699218,0.433594 0.46875,0.08203 1.429688,0.234375 1.429688,0.902344 0,0.433593 -0.410156,0.855468 -1.523438,0.855468 -0.761718,0 -1.265625,-0.304687 -1.511718,-1.160156 -0.05859,-0.164062 -0.09375,-0.292969 -0.398438,-0.292969 -0.398437,0 -0.398437,0.222657 -0.398437,0.457032 v 1.230468 c 0,0.199219 0,0.457032 0.339843,0.457032 0.140625,0 0.246094,0 0.433594,-0.492188 0.550781,0.457031 1.171875,0.492188 1.535156,0.492188 2.214844,0 2.214844,-1.429688 2.214844,-1.546875 0,-1.253907 -1.476562,-1.5 -2.050781,-1.582032 -1.054688,-0.175781 -1.769531,-0.304687 -1.769531,-0.796875 0,-0.328125 0.363281,-0.7148434 1.488281,-0.7148434 1.136719,0 1.183594,0.5390624 1.207031,0.8554684 0.02344,0.234375 0.246094,0.269532 0.386719,0.269532 0.386719,0 0.386719,-0.210938 0.386719,-0.457032 z m 6.128906,1.3007814 c 0,-1.1718752 -0.550781,-1.7226564 -1.523438,-1.7226564 -0.820312,0 -1.335937,0.4570312 -1.546875,0.6796875 V 7.5376953 c 0,-0.375 -0.07031,-0.4921875 -0.480468,-0.4921875 h -0.785157 c -0.164062,0 -0.480468,0 -0.480468,0.3398438 0,0.3515625 0.316406,0.3515625 0.480468,0.3515625 h 0.492188 v 5.9179689 h -0.492188 c -0.164062,0 -0.480468,0 -0.480468,0.339844 0,0.351562 0.316406,0.351562 0.480468,0.351562 h 1.757813 c 0.164062,0 0.480469,0 0.480469,-0.351562 0,-0.339844 -0.316407,-0.339844 -0.480469,-0.339844 h -0.492188 v -2.167969 c 0,-1.160156 0.820313,-1.6757812 1.464844,-1.6757812 0.691406,0 0.832031,0.3984372 0.832031,1.0781252 v 2.765625 h -0.492187 c -0.164063,0 -0.480469,0 -0.480469,0.339844 0,0.351562 0.316406,0.351562 0.480469,0.351562 h 1.757812 c 0.164063,0 0.480469,0 0.480469,-0.351562 0,-0.339844 -0.316406,-0.339844 -0.480469,-0.339844 h -0.492187 z m 6.105469,0.105469 c 0,-0.902344 -0.679688,-1.8632817 -2.296875,-1.8632817 -0.492188,0 -1.652344,0 -1.652344,0.8320313 0,0.3164064 0.222656,0.4921874 0.480469,0.4921874 0.08203,0 0.46875,-0.02344 0.480468,-0.5156249 0,-0.070312 0.01172,-0.082031 0.269532,-0.1054688 0.140625,-0.011719 0.292968,-0.011719 0.433593,-0.011719 0.28125,0 0.691407,0 1.078125,0.3046877 0.433594,0.328125 0.433594,0.667969 0.433594,1.019531 -0.703125,0.02344 -1.394531,0.07031 -2.144531,0.304688 -0.597656,0.199219 -1.359375,0.632812 -1.359375,1.441406 0,0.855469 0.75,1.570313 1.863281,1.570313 0.386719,0 1.125,-0.05859 1.746094,-0.492188 0.246094,0.398438 0.84375,0.421875 1.2890623,0.421875 0.2929688,0 0.5742188,0 0.5742188,-0.351562 0,-0.339844 -0.3046875,-0.339844 -0.4804688,-0.339844 -0.3046873,0 -0.5390623,-0.02344 -0.7148433,-0.09375 z m -0.773438,1.816406 c 0,0.28125 0,0.527344 -0.492187,0.761719 -0.421875,0.199218 -0.972657,0.199218 -1.019532,0.199218 -0.703125,0 -1.21875,-0.386718 -1.21875,-0.878906 0,-0.703125 1.289063,-1.101562 2.730469,-1.101562 z m 4.3945313,4.230469 c 0.1640625,0 0.4804688,0 0.4804688,-0.339844 0,-0.351563 -0.3164063,-0.351563 -0.4804688,-0.351563 h -0.4921875 v -2.554687 c 0.2929688,0.328125 0.7265625,0.667969 1.40625,0.667969 1.265625,0 2.3789063,-1.136719 2.3789063,-2.648438 0,-1.476562 -1.0078125,-2.6484374 -2.25,-2.6484374 -0.8789063,0 -1.4296875,0.5273437 -1.5351563,0.6445312 0,-0.3867187 0,-0.5742187 -0.4804687,-0.5742187 h -0.7851563 c -0.1640625,0 -0.4804687,0 -0.4804687,0.3515625 0,0.3515625 0.3164062,0.3515625 0.4804687,0.3515625 h 0.4921875 V 16.30332 h -0.4921875 c -0.1640625,0 -0.4804687,0 -0.4804687,0.351563 0,0.339844 0.3164062,0.339844 0.4804687,0.339844 z m -0.4921875,-5.824219 c 0,-0.679688 0.6679688,-1.3593752 1.453125,-1.3593752 0.8554688,0 1.546875,0.8789062 1.546875,1.9570312 0,1.148438 -0.8085937,1.957031 -1.6640625,1.957031 -0.890625,0 -1.3359375,-1.019531 -1.3359375,-1.617187 z m 9.1992188,0.878906 c 0.2578125,0 0.4804687,0 0.4804687,-0.445312 0,-1.394532 -0.7851562,-2.5195317 -2.28515624,-2.5195317 -1.38281246,0 -2.49609376,1.1953127 -2.49609376,2.6601567 0,1.5 1.2070313,2.671875 2.68359376,2.671875 1.53515624,0 2.09765624,-1.066407 2.09765624,-1.371094 0,-0.07031 -0.023437,-0.339844 -0.3984375,-0.339844 -0.2226562,0 -0.2929687,0.08203 -0.3632812,0.269531 -0.3046875,0.691407 -1.07812504,0.75 -1.30078129,0.75 -0.99609375,0 -1.78125001,-0.75 -1.92187501,-1.675781 z m -3.4921875,-0.65625 c 0.1640625,-1.019531 0.93749996,-1.6171874 1.68749996,-1.6171874 1.19531254,0 1.45312504,1.0195314 1.50000004,1.6171874 z m 9.8671875,-1.21875 c 0.1523437,0 0.515625,0 0.515625,-0.3867187 0,-0.3867187 -0.3984375,-0.3867187 -0.5742188,-0.3867187 H 4.0983516 c -0.1875,0 -0.5742188,0 -0.5742188,0.3867187 0,0.3867187 0.3632813,0.3867187 0.515625,0.3867187 z m -0.058594,1.816406 c 0.1757813,0 0.5742188,0 0.5742188,-0.398437 0,-0.375 -0.375,-0.375 -0.515625,-0.375 H 4.0397578 c -0.1640625,0 -0.515625,0 -0.515625,0.375 0,0.398437 0.3867188,0.398437 0.5742188,0.398437 z m 6.1406254,3.035157 c 0,-0.152344 -0.09375,-0.199219 -0.257813,-0.316407 -1.652343,-1.136718 -2.050781,-2.847656 -2.050781,-4.007812 0,-1.1367189 0.375,-2.8593752 2.050781,-4.0195314 0.164063,-0.1171875 0.257813,-0.1640625 0.257813,-0.3164063 0,-0.1289062 -0.07031,-0.3164062 -0.351563,-0.3164062 -0.304687,0 -1.183593,0.6914062 -1.734375,1.4765625 -0.667968,0.9257812 -1.007812,2.0390625 -1.007812,3.1757814 0,1.324219 0.480469,2.4375 0.984375,3.140625 0.550781,0.761719 1.417969,1.5 1.757812,1.5 0.28125,0 0.351563,-0.210938 0.351563,-0.316406 z m 4.086914,-4.277344 c 1.242187,0 1.792969,0.867187 1.792969,1.523437 0,0.785157 -0.691407,1.523438 -1.746094,1.523438 -1.195313,0 -1.734375,-0.644531 -1.734375,-0.808594 0,-0.02344 0.01172,-0.04687 0.02344,-0.05859 0.04687,-0.09375 0.08203,-0.1875 0.08203,-0.292968 0,-0.246094 -0.1875,-0.480469 -0.46875,-0.480469 -0.257813,0 -0.492188,0.164062 -0.492188,0.527344 0,1.042968 1.136719,1.804687 2.589844,1.804687 1.511719,0 2.519531,-1.078125 2.519531,-2.203125 0,-0.609375 -0.328125,-1.464844 -1.382812,-1.921875 0.726562,-0.4453124 1.054687,-1.1718749 1.054687,-1.7929687 0,-0.890625 -0.902344,-1.6640625 -2.191406,-1.6640625 -1.324219,0 -2.261719,0.5625 -2.261719,1.453125 0,0.3984375 0.304688,0.515625 0.492188,0.515625 0.222656,0 0.480468,-0.1640625 0.480468,-0.4921875 0,-0.1875 -0.09375,-0.2929687 -0.09375,-0.3164062 0.351563,-0.4453125 1.183594,-0.46875 1.382813,-0.46875 0.820312,0 1.417969,0.421875 1.417969,0.984375 0,0.3515625 -0.234375,1.3476562 -1.488282,1.4296879 -0.445312,0.02344 -0.632812,0.04687 -0.679687,0.04687 -0.234375,0.02344 -0.304688,0.175781 -0.304688,0.339843 0,0.351563 0.257813,0.351563 0.457032,0.351563 z m 6.398437,3.5625 c -0.07031,0.375 -0.304687,0.820312 -0.890625,1.03125 -0.105468,0.02344 -0.28125,0.08203 -0.28125,0.304687 0,0.152344 0.175782,0.363282 0.363282,0.363282 0.328125,0 1.511718,-0.585938 1.511718,-1.875 0,-0.632813 -0.398437,-1.136719 -0.925781,-1.136719 -0.445312,0 -0.679687,0.339844 -0.679687,0.667969 0,0.398437 0.304687,0.679687 0.667968,0.679687 0.07031,0 0.152344,-0.01172 0.234375,-0.03516 z m 6.960938,-3.609375 c 0,-0.9375002 -0.222656,-2.1445314 -1.089844,-3.3046877 -0.410156,-0.5507812 -1.289062,-1.3476562 -1.652344,-1.3476562 -0.269531,0 -0.339843,0.1992187 -0.339843,0.3164062 0,0.140625 0.08203,0.1992188 0.292968,0.3398438 1.464844,1.03125 2.015625,2.6367187 2.015625,3.9843749 0,1.078125 -0.351562,2.835938 -2.0625,4.019531 -0.152343,0.105469 -0.246093,0.164063 -0.246093,0.316407 0,0.105468 0.07031,0.316406 0.339843,0.316406 0.304688,0 1.183594,-0.691406 1.734375,-1.476563 0.691407,-0.972656 1.007813,-2.097656 1.007813,-3.164062 z m 0,0"
       style="fill:#000000;fill-opacity:1;fill-rule:nonzero;stroke:none"
       aria-label="c&#10;shape=(3,)"
       transform="matrix(1.3333333,0,0,1.3333333,491.016,20.633333)" />
    <path
       id="path20"
       d="m -124.72595,-62.36304 h 22.67743 v 22.67743 h -22.67743 z"
       style="fill:none;stroke:#000000;stroke-width:0.3985;stroke-linecap:butt;stroke-linejoin:miter;stroke-miterlimit:10;stroke-dasharray:none;stroke-opacity:1"
       transform="matrix(1.3333333,0,0,-1.3333333,306.14133,150.724)" />
    <path
       id="path21"
       d="m 5.3554141,-3.8213437 c 0,-0.9960938 -0.058594,-1.96875 -0.4921875,-2.8710938 -0.4921875,-0.9960937 -1.3476563,-1.2539062 -1.9335938,-1.2539062 -0.6914062,0 -1.546875,0.3398437 -1.98046874,1.3359375 -0.33984375,0.75 -0.45703125,1.4882812 -0.45703125,2.7890625 0,1.1601562 0.0820313,2.0273437 0.51562499,2.8710937 0.4570313,0.9140625 1.2890625,1.1953125 1.9101563,1.1953125 1.0429687,0 1.640625,-0.62109375 1.9804687,-1.3125 0.4335938,-0.890625 0.4570313,-2.0625 0.4570313,-2.7539062 z m -2.4375,3.8320312 c -0.3867188,0 -1.1601563,-0.2109375 -1.3828125,-1.5234375 -0.140625,-0.7148437 -0.140625,-1.6171875 -0.140625,-2.4609375 0,-0.9726562 0,-1.8632812 0.1992187,-2.5664062 0.1992188,-0.796875 0.8085938,-1.171875 1.3242188,-1.171875 0.4570312,0 1.1484375,0.28125 1.3710937,1.3007812 0.1523438,0.6796875 0.1523438,1.6289063 0.1523438,2.4375 0,0.8085938 0,1.7109375 -0.1289063,2.4375 -0.2226562,1.32421875 -0.9726562,1.546875 -1.3945312,1.546875 z m 0,0"
       style="fill:#000000;fill-opacity:1;fill-rule:nonzero;stroke:none"
       aria-label="0"
       transform="matrix(1.3333333,0,0,1.3333333,151.05867,223.892)" />
    <path
       id="path22"
       d="m -102.04842,-62.36304 h 22.67743 v 22.67743 h -22.67743 z"
       style="fill:none;stroke:#000000;stroke-width:0.3985;stroke-linecap:butt;stroke-linejoin:miter;stroke-miterlimit:10;stroke-dasharray:none;stroke-opacity:1"
       transform="matrix(1.3333333,0,0,-1.3333333,306.14133,150.724)" />
    <path
       id="path23"
       d="m 3.4440391,-7.6650937 c 0,-0.2695313 0,-0.28125 -0.2460938,-0.28125 -0.28125,0.3164062 -0.8789062,0.7617187 -2.109375,0.7617187 v 0.3515625 c 0.2695313,0 0.8671875,0 1.5234375,-0.3164062 v 6.2226562 c 0,0.43359375 -0.035156,0.57421875 -1.078125,0.57421875 h -0.375 v 0.3515625 c 0.3164063,-0.0234375 1.4765625,-0.0234375 1.875,-0.0234375 0.3984375,0 1.546875,0 1.8632813,0.0234375 v -0.3515625 H 4.5338828 c -1.0546875,0 -1.0898437,-0.140625 -1.0898437,-0.57421875 z m 0,0"
       style="fill:#000000;fill-opacity:1;fill-rule:nonzero;stroke:none"
       aria-label="1"
       transform="matrix(1.3333333,0,0,1.3333333,181.29467,223.892)" />
    <path
       id="path24"
       d="m -79.37088,-62.36304 h 22.67743 v 22.67743 h -22.67743 z"
       style="fill:none;stroke:#000000;stroke-width:0.3985;stroke-linecap:butt;stroke-linejoin:miter;stroke-miterlimit:10;stroke-dasharray:none;stroke-opacity:1"
       transform="matrix(1.3333333,0,0,-1.3333333,306.14133,150.724)" />
    <path
       id="path25"
       d="M 5.2621563,-2.0049375 H 4.992625 c -0.035156,0.1992188 -0.1289062,0.8554688 -0.2460937,1.04296875 -0.082031,0.1171875 -0.7617188,0.1171875 -1.125,0.1171875 H 1.4066875 C 1.7348125,-1.1260312 2.461375,-1.88775 2.7777813,-2.1807187 c 1.8164062,-1.6640625 2.484375,-2.2851563 2.484375,-3.46875 0,-1.3828125 -1.0898438,-2.296875 -2.4726563,-2.296875 -1.3945312,0 -2.203125,1.1835937 -2.203125,2.203125 0,0.609375 0.5273438,0.609375 0.5625,0.609375 0.2460938,0 0.5625,-0.1757813 0.5625,-0.5625 0,-0.328125 -0.234375,-0.5507813 -0.5625,-0.5507813 -0.1054687,0 -0.1289062,0 -0.1640625,0.011719 C 1.2074688,-7.0557187 1.852,-7.6065 2.6254375,-7.6065 c 1.0195313,0 1.640625,0.8554688 1.640625,1.9570313 0,1.0078125 -0.5859375,1.8984375 -1.265625,2.6601562 L 0.586375,-0.28228125 v 0.28125 H 4.94575 Z m 0,0"
       style="fill:#000000;fill-opacity:1;fill-rule:nonzero;stroke:none"
       aria-label="2"
       transform="matrix(1.3333333,0,0,1.3333333,211.53067,223.892)" />
    <path
       id="path26"
       d="m 4.9465547,-3.3971328 c 0,-0.9023438 -0.6796875,-1.8632813 -2.296875,-1.8632813 -0.4921875,0 -1.65234376,0 -1.65234376,0.8320313 0,0.3164062 0.22265626,0.4921875 0.48046876,0.4921875 0.082031,0 0.46875,-0.023437 0.4804687,-0.515625 0,-0.070312 0.011719,-0.082031 0.2695313,-0.1054688 0.140625,-0.011719 0.2929687,-0.011719 0.4335937,-0.011719 0.28125,0 0.6914063,0 1.078125,0.3046875 0.4335938,0.328125 0.4335938,0.6679687 0.4335938,1.0195312 -0.703125,0.023437 -1.3945313,0.070312 -2.1445313,0.3046875 -0.5976562,0.1992188 -1.35937496,0.6328125 -1.35937496,1.4414063 0,0.85546874 0.74999996,1.57031249 1.86328126,1.57031249 0.3867187,0 1.125,-0.05859375 1.7460937,-0.4921875 0.2460938,0.3984375 0.84375,0.421875 1.2890625,0.421875 0.2929688,0 0.5742188,0 0.5742188,-0.3515625 0,-0.33984375 -0.3046875,-0.33984375 -0.4804688,-0.33984375 -0.3046875,0 -0.5390625,-0.0234375 -0.7148437,-0.09375 z m -0.7734375,1.8164062 c 0,0.28125 0,0.5273438 -0.4921875,0.76171879 -0.421875,0.19921875 -0.9726563,0.19921875 -1.0195313,0.19921875 -0.703125,0 -1.21875,-0.38671874 -1.21875,-0.87890624 0,-0.703125 1.2890625,-1.1015625 2.7304688,-1.1015625 z M -22.66868,9.5403672 c 0,-0.1875 0,-0.4570313 -0.328125,-0.4570313 -0.292968,0 -0.363281,0.28125 -0.363281,0.2929688 -0.480469,-0.2929688 -1.019531,-0.2929688 -1.265625,-0.2929688 -1.945312,0 -2.214844,0.9960941 -2.214844,1.4062501 0,0.480469 0.292969,0.820312 0.703125,1.042969 0.375,0.222656 0.726563,0.28125 1.699219,0.433593 0.46875,0.08203 1.429688,0.234375 1.429688,0.902344 0,0.433594 -0.410157,0.855469 -1.523438,0.855469 -0.761719,0 -1.265625,-0.304688 -1.511719,-1.160156 -0.05859,-0.164063 -0.09375,-0.292969 -0.398437,-0.292969 -0.398438,0 -0.398438,0.222656 -0.398438,0.457031 v 1.230469 c 0,0.199219 0,0.457031 0.339844,0.457031 0.140625,0 0.246094,0 0.433594,-0.492187 0.550781,0.457031 1.171875,0.492187 1.535156,0.492187 2.214844,0 2.214844,-1.429687 2.214844,-1.546875 0,-1.253906 -1.476563,-1.5 -2.050781,-1.582031 -1.054688,-0.175781 -1.769532,-0.304688 -1.769532,-0.796875 0,-0.328125 0.363282,-0.7148438 1.488282,-0.7148438 1.136718,0 1.183593,0.5390628 1.207031,0.8554688 0.02344,0.234375 0.246094,0.269531 0.386719,0.269531 0.386718,0 0.386718,-0.210937 0.386718,-0.457031 z m 6.128907,1.3007808 c 0,-1.1718746 -0.550782,-1.7226558 -1.523438,-1.7226558 -0.820312,0 -1.335937,0.4570312 -1.546875,0.6796875 V 7.5364609 c 0,-0.375 -0.07031,-0.4921875 -0.480469,-0.4921875 h -0.785156 c -0.164062,0 -0.480469,0 -0.480469,0.3398438 0,0.3515625 0.316407,0.3515625 0.480469,0.3515625 h 0.492188 v 5.9179683 h -0.492188 c -0.164062,0 -0.480469,0 -0.480469,0.339844 0,0.351563 0.316407,0.351563 0.480469,0.351563 h 1.757813 c 0.164062,0 0.480468,0 0.480468,-0.351563 0,-0.339844 -0.316406,-0.339844 -0.480468,-0.339844 h -0.492188 V 11.48568 c 0,-1.160157 0.820313,-1.6757816 1.464844,-1.6757816 0.691406,0 0.832031,0.3984376 0.832031,1.0781246 v 2.765625 h -0.492187 c -0.164063,0 -0.480469,0 -0.480469,0.339844 0,0.351563 0.316406,0.351563 0.480469,0.351563 h 1.757812 c 0.164063,0 0.480469,0 0.480469,-0.351563 0,-0.339844 -0.316406,-0.339844 -0.480469,-0.339844 h -0.492187 z m 6.105468,0.105469 c 0,-0.902344 -0.679687,-1.8632811 -2.296875,-1.8632811 -0.492187,0 -1.652343,0 -1.652343,0.8320313 0,0.3164058 0.222656,0.4921878 0.480468,0.4921878 0.08203,0 0.46875,-0.02344 0.480469,-0.5156253 0,-0.070312 0.01172,-0.082031 0.269531,-0.1054688 0.140625,-0.011719 0.292969,-0.011719 0.433594,-0.011719 0.28125,0 0.691406,0 1.078125,0.3046881 0.433594,0.328125 0.433594,0.667968 0.433594,1.019531 -0.703125,0.02344 -1.394531,0.07031 -2.144531,0.304687 -0.597657,0.199219 -1.359375,0.632813 -1.359375,1.441407 0,0.855468 0.75,1.570312 1.863281,1.570312 0.386719,0 1.125,-0.05859 1.746094,-0.492187 0.246093,0.398437 0.84375,0.421875 1.2890621,0.421875 0.2929687,0 0.5742187,0 0.5742187,-0.351563 0,-0.339844 -0.3046875,-0.339844 -0.4804687,-0.339844 -0.3046871,0 -0.5390621,-0.02344 -0.7148441,-0.09375 z m -0.773437,1.816406 c 0,0.28125 0,0.527344 -0.492188,0.761719 -0.421875,0.199219 -0.972656,0.199219 -1.019531,0.199219 -0.703125,0 -1.21875,-0.386719 -1.21875,-0.878906 0,-0.703125 1.289063,-1.101563 2.730469,-1.101563 z m 4.3945311,4.230469 c 0.1640625,0 0.4804687,0 0.4804687,-0.339844 0,-0.351562 -0.3164062,-0.351562 -0.4804687,-0.351562 h -0.4921875 v -2.554688 c 0.2929687,0.328125 0.7265625,0.667969 1.40625,0.667969 1.265625,0 2.3789062,-1.136719 2.3789062,-2.648437 0,-1.476563 -1.0078125,-2.6484378 -2.25,-2.6484378 -0.8789062,0 -1.4296875,0.5273437 -1.5351562,0.6445312 0,-0.3867187 0,-0.5742187 -0.4804688,-0.5742187 h -0.7851562 c -0.1640625,0 -0.4804688,0 -0.4804688,0.3515625 0,0.3515625 0.3164063,0.3515625 0.4804688,0.3515625 h 0.4921875 v 6.4101563 h -0.4921875 c -0.1640625,0 -0.4804688,0 -0.4804688,0.351562 0,0.339844 0.3164063,0.339844 0.4804688,0.339844 z m -0.4921875,-5.824219 c 0,-0.679687 0.6679687,-1.3593746 1.453125,-1.3593746 0.8554687,0 1.546875,0.8789066 1.546875,1.9570316 0,1.148437 -0.8085938,1.957031 -1.6640625,1.957031 -0.890625,0 -1.3359375,-1.019531 -1.3359375,-1.617188 z m 9.1992187,0.878907 c 0.2578125,0 0.4804688,0 0.4804688,-0.445313 0,-1.394531 -0.7851563,-2.5195311 -2.28515629,-2.5195311 -1.38281251,0 -2.49609371,1.1953121 -2.49609371,2.6601561 0,1.5 1.2070312,2.671875 2.68359371,2.671875 1.53515629,0 2.09765629,-1.066406 2.09765629,-1.371094 0,-0.07031 -0.023437,-0.339843 -0.3984375,-0.339843 -0.2226563,0 -0.2929688,0.08203 -0.3632813,0.269531 -0.3046875,0.691406 -1.07812499,0.75 -1.30078124,0.75 -0.99609375,0 -1.78124996,-0.75 -1.92187496,-1.675781 z m -3.4921875,-0.65625 c 0.1640625,-1.019532 0.93750001,-1.6171878 1.68750001,-1.6171878 1.19531249,0 1.45312499,1.0195308 1.49999999,1.6171878 z m 9.8671875,-1.21875 c 0.1523438,0 0.515625,0 0.515625,-0.3867191 0,-0.3867187 -0.3984375,-0.3867187 -0.5742187,-0.3867187 H 4.0969453 c -0.1875,0 -0.5742187,0 -0.5742187,0.3867187 0,0.3867191 0.3632812,0.3867191 0.515625,0.3867191 z m -0.058594,1.816406 c 0.1757812,0 0.5742187,0 0.5742187,-0.398438 0,-0.375 -0.375,-0.375 -0.515625,-0.375 H 4.0383516 c -0.1640625,0 -0.515625,0 -0.515625,0.375 0,0.398438 0.3867187,0.398438 0.5742187,0.398438 z m 6.1406257,3.035156 c 0,-0.152344 -0.09375,-0.199219 -0.257813,-0.316406 -1.652344,-1.136719 -2.050781,-2.847656 -2.050781,-4.007813 0,-1.1367183 0.375,-2.8593746 2.050781,-4.0195308 0.164063,-0.1171875 0.257813,-0.1640625 0.257813,-0.3164063 0,-0.1289062 -0.07031,-0.3164062 -0.351563,-0.3164062 -0.304687,0 -1.183594,0.6914062 -1.734375,1.4765625 -0.667969,0.9257812 -1.007812,2.0390625 -1.007812,3.1757808 0,1.324219 0.480468,2.4375 0.984375,3.140625 0.550781,0.761719 1.417968,1.5 1.757812,1.5 0.28125,0 0.351563,-0.210937 0.351563,-0.316406 z m 4.089843,-4.277344 c 1.242188,0 1.792969,0.867188 1.792969,1.523438 0,0.785156 -0.691406,1.523437 -1.746094,1.523437 -1.195312,0 -1.734375,-0.644531 -1.734375,-0.808593 0,-0.02344 0.01172,-0.04687 0.02344,-0.05859 0.04687,-0.09375 0.08203,-0.1875 0.08203,-0.292969 0,-0.246094 -0.1875,-0.480469 -0.46875,-0.480469 -0.257812,0 -0.492187,0.164063 -0.492187,0.527344 0,1.042969 1.136718,1.804688 2.589843,1.804688 1.511719,0 2.519532,-1.078125 2.519532,-2.203125 0,-0.609375 -0.328125,-1.464844 -1.382813,-1.921875 0.726563,-0.4453128 1.054688,-1.1718753 1.054688,-1.7929691 0,-0.890625 -0.902344,-1.6640625 -2.191407,-1.6640625 -1.324218,0 -2.261718,0.5625 -2.261718,1.453125 0,0.3984375 0.304687,0.515625 0.492187,0.515625 0.222656,0 0.480469,-0.1640625 0.480469,-0.4921875 0,-0.1875 -0.09375,-0.2929687 -0.09375,-0.3164062 0.351562,-0.4453125 1.183594,-0.46875 1.382812,-0.46875 0.820313,0 1.417969,0.421875 1.417969,0.984375 0,0.3515625 -0.234375,1.3476562 -1.488281,1.4296873 -0.445313,0.02344 -0.632813,0.04687 -0.679688,0.04687 -0.234375,0.02344 -0.304687,0.175781 -0.304687,0.339844 0,0.351562 0.257812,0.351562 0.457031,0.351562 z m 6.398438,3.5625 c -0.07031,0.375 -0.304688,0.820313 -0.890625,1.03125 -0.105469,0.02344 -0.28125,0.08203 -0.28125,0.304688 0,0.152344 0.175781,0.363281 0.363281,0.363281 0.328125,0 1.511719,-0.585937 1.511719,-1.875 0,-0.632812 -0.398438,-1.136719 -0.925781,-1.136719 -0.445313,0 -0.679688,0.339844 -0.679688,0.667969 0,0.398438 0.304688,0.679688 0.667969,0.679688 0.07031,0 0.152344,-0.01172 0.234375,-0.03516 z m 6.958008,-3.609375 c 0,-0.9374996 -0.222657,-2.1445308 -1.089844,-3.3046871 -0.410156,-0.5507812 -1.289063,-1.3476562 -1.652344,-1.3476562 -0.269531,0 -0.339844,0.1992187 -0.339844,0.3164062 0,0.140625 0.08203,0.1992188 0.292969,0.3398438 1.464844,1.03125 2.015625,2.6367187 2.015625,3.9843753 0,1.078125 -0.351562,2.835937 -2.0625,4.019531 -0.152344,0.105469 -0.246094,0.164062 -0.246094,0.316406 0,0.105469 0.07031,0.316406 0.339844,0.316406 0.304688,0 1.183594,-0.691406 1.734375,-1.476562 0.691406,-0.972656 1.007813,-2.097656 1.007813,-3.164063 z m 0,0"
       style="fill:#000000;fill-opacity:1;fill-rule:nonzero;stroke:none"
       aria-label="a&#10;shape=(3,)"
       transform="matrix(1.3333333,0,0,1.3333333,181.096,171.81467)" />
    <path
       id="path27"
       d="m 4.7705078,-2.7649844 h 3.3046875 c 0.1640625,0 0.375,0 0.375,-0.2109375 0,-0.2226562 -0.1992187,-0.2226562 -0.375,-0.2226562 H 4.7705078 v -3.3046875 c 0,-0.1640625 0,-0.3867188 -0.2109375,-0.3867188 -0.234375,0 -0.234375,0.2109375 -0.234375,0.3867188 v 3.3046875 H 1.0322266 c -0.17578129,0 -0.38671879,0 -0.38671879,0.2109375 0,0.2226562 0.19921875,0.2226562 0.38671879,0.2226562 h 3.2929687 v 3.30468753 c 0,0.1640625 0,0.38671875 0.2226563,0.38671875 0.2226562,0 0.2226562,-0.2109375 0.2226562,-0.38671875 z m 0,0"
       style="fill:#000000;fill-opacity:1;fill-rule:nonzero;stroke:none"
       aria-label="+"
       transform="matrix(1.3333333,0,0,1.3333333,264.16667,222.74133)" />
    <path
       id="path28"
       d="M 5.2613672,-2.0049375 H 4.9918359 c -0.035156,0.1992188 -0.1289062,0.8554688 -0.2460937,1.04296875 -0.082031,0.1171875 -0.7617188,0.1171875 -1.125,0.1171875 H 1.4058984 C 1.7340234,-1.1260312 2.4605859,-1.88775 2.7769922,-2.1807187 c 1.8164062,-1.6640625 2.484375,-2.2851563 2.484375,-3.46875 0,-1.3828125 -1.0898438,-2.296875 -2.4726563,-2.296875 -1.3945312,0 -2.20312496,1.1835937 -2.20312496,2.203125 0,0.609375 0.52734376,0.609375 0.56249996,0.609375 0.2460938,0 0.5625,-0.1757813 0.5625,-0.5625 0,-0.328125 -0.234375,-0.5507813 -0.5625,-0.5507813 -0.1054687,0 -0.1289062,0 -0.16406246,0.011719 C 1.2066797,-7.0557187 1.8512109,-7.6065 2.6246484,-7.6065 c 1.0195313,0 1.640625,0.8554688 1.640625,1.9570313 0,1.0078125 -0.5859375,1.8984375 -1.265625,2.6601562 l -2.41406246,2.70703125 v 0.28125 H 4.9449609 Z m 0,0"
       style="fill:#9f9f9f;fill-opacity:1;fill-rule:nonzero;stroke:none"
       aria-label="2"
       transform="matrix(1.3333333,0,0,1.3333333,306.02,223.892)" />
    <path
       id="path29"
       d="M 5.2630781,-2.0049375 H 4.9935469 c -0.035156,0.1992188 -0.1289063,0.8554688 -0.2460938,1.04296875 -0.082031,0.1171875 -0.7617187,0.1171875 -1.125,0.1171875 H 1.4076094 C 1.7357344,-1.1260312 2.4622969,-1.88775 2.7787031,-2.1807187 c 1.8164063,-1.6640625 2.484375,-2.2851563 2.484375,-3.46875 0,-1.3828125 -1.0898437,-2.296875 -2.4726562,-2.296875 -1.3945313,0 -2.20312502,1.1835937 -2.20312502,2.203125 0,0.609375 0.52734372,0.609375 0.56250002,0.609375 0.2460937,0 0.5625,-0.1757813 0.5625,-0.5625 0,-0.328125 -0.234375,-0.5507813 -0.5625,-0.5507813 -0.1054688,0 -0.1289063,0 -0.16406252,0.011719 C 1.2083906,-7.0557187 1.8529219,-7.6065 2.6263594,-7.6065 c 1.0195312,0 1.640625,0.8554688 1.640625,1.9570313 0,1.0078125 -0.5859375,1.8984375 -1.265625,2.6601562 l -2.41406252,2.70703125 v 0.28125 H 4.9466719 Z m 0,0"
       style="fill:#9f9f9f;fill-opacity:1;fill-rule:nonzero;stroke:none"
       aria-label="2"
       transform="matrix(1.3333333,0,0,1.3333333,336.256,223.892)" />
    <path
       id="path30"
       d="M 5.2618594,-2.0049375 H 4.9923281 c -0.035156,0.1992188 -0.1289062,0.8554688 -0.2460937,1.04296875 -0.082031,0.1171875 -0.7617188,0.1171875 -1.125,0.1171875 H 1.4063906 C 1.7345156,-1.1260312 2.4610781,-1.88775 2.7774844,-2.1807187 c 1.8164062,-1.6640625 2.484375,-2.2851563 2.484375,-3.46875 0,-1.3828125 -1.0898438,-2.296875 -2.4726563,-2.296875 -1.3945312,0 -2.20312497,1.1835937 -2.20312497,2.203125 0,0.609375 0.52734377,0.609375 0.56249997,0.609375 0.2460938,0 0.5625,-0.1757813 0.5625,-0.5625 0,-0.328125 -0.234375,-0.5507813 -0.5625,-0.5507813 -0.1054687,0 -0.1289062,0 -0.16406247,0.011719 C 1.2071719,-7.0557187 1.8517031,-7.6065 2.6251406,-7.6065 c 1.0195313,0 1.640625,0.8554688 1.640625,1.9570313 0,1.0078125 -0.5859375,1.8984375 -1.265625,2.6601562 l -2.41406247,2.70703125 v 0.28125 H 4.9454531 Z m 0,0"
       style="fill:#9f9f9f;fill-opacity:1;fill-rule:nonzero;stroke:none"
       aria-label="2"
       transform="matrix(1.3333333,0,0,1.3333333,366.492,223.892)" />
    <path
       id="path31"
       d="m -8.70311,-39.48636 v -23.07593 h 68.43098 v 23.07593 z"
       style="fill:none;stroke:#000000;stroke-width:0.3985;stroke-linecap:butt;stroke-linejoin:miter;stroke-miterlimit:10;stroke-dasharray:2.83466, 2.83466;stroke-dashoffset:0;stroke-opacity:1"
       transform="matrix(1.3333333,0,0,-1.3333333,306.14133,150.724)" />
    <path
       id="path32"
       d="M 14.3728,-39.48636 V -62.56229"
       style="fill:none;stroke:#000000;stroke-width:0.3985;stroke-linecap:butt;stroke-linejoin:miter;stroke-miterlimit:10;stroke-dasharray:2.83466, 2.83466;stroke-dashoffset:0;stroke-opacity:1"
       transform="matrix(1.3333333,0,0,-1.3333333,306.14133,150.724)" />
    <path
       id="path33"
       d="M 37.05034,-39.48636 V -62.56229"
       style="fill:none;stroke:#000000;stroke-width:0.3985;stroke-linecap:butt;stroke-linejoin:miter;stroke-miterlimit:10;stroke-dasharray:2.83466, 2.83466;stroke-dashoffset:0;stroke-opacity:1"
       transform="matrix(1.3333333,0,0,-1.3333333,306.14133,150.724)" />
    <path
       id="path34"
       d="m 14.17366,-62.36304 h 22.67743 v 22.67743 H 14.17366 Z"
       style="fill:#ffffff;fill-opacity:1;fill-rule:nonzero;stroke:#000000;stroke-width:0.3985;stroke-linecap:butt;stroke-linejoin:miter;stroke-miterlimit:10;stroke-dasharray:none;stroke-opacity:1"
       transform="matrix(1.3333333,0,0,-1.3333333,306.14133,150.724)" />
    <path
       id="path35"
       d="M 5.2630781,-2.0049375 H 4.9935469 c -0.035156,0.1992188 -0.1289063,0.8554688 -0.2460938,1.04296875 -0.082031,0.1171875 -0.7617187,0.1171875 -1.125,0.1171875 H 1.4076094 C 1.7357344,-1.1260312 2.4622969,-1.88775 2.7787031,-2.1807187 c 1.8164063,-1.6640625 2.484375,-2.2851563 2.484375,-3.46875 0,-1.3828125 -1.0898437,-2.296875 -2.4726562,-2.296875 -1.3945313,0 -2.20312502,1.1835937 -2.20312502,2.203125 0,0.609375 0.52734372,0.609375 0.56250002,0.609375 0.2460937,0 0.5625,-0.1757813 0.5625,-0.5625 0,-0.328125 -0.234375,-0.5507813 -0.5625,-0.5507813 -0.1054688,0 -0.1289063,0 -0.16406252,0.011719 C 1.2083906,-7.0557187 1.8529219,-7.6065 2.6263594,-7.6065 c 1.0195312,0 1.640625,0.8554688 1.640625,1.9570313 0,1.0078125 -0.5859375,1.8984375 -1.265625,2.6601562 l -2.41406252,2.70703125 v 0.28125 H 4.9466719 Z m 0,0"
       style="fill:#000000;fill-opacity:1;fill-rule:nonzero;stroke:none"
       aria-label="2"
       transform="matrix(1.3333333,0,0,1.3333333,336.256,223.892)" />
    <path
       id="path36"
       d="m 1.9208906,-6.8072891 c 0,-0.375 -0.070312,-0.4921875 -0.4804687,-0.4921875 H 0.65526563 c -0.1640625,0 -0.48046875,0 -0.48046875,0.3398438 0,0.3515625 0.31640625,0.3515625 0.48046875,0.3515625 H 1.1474531 v 6.11718749 c 0,0.22265625 0,0.4921875 0.3984375,0.4921875 0.375,0 0.375,-0.24609375 0.375,-0.59765625 0.2929688,0.328125 0.7265625,0.66796875 1.40625,0.66796875 1.265625,0 2.3789063,-1.13671879 2.3789063,-2.64843749 0,-1.4765625 -1.0078125,-2.6484375 -2.25,-2.6484375 -0.8789063,0 -1.4296875,0.5273437 -1.5351563,0.6445312 z m 0,3.6328125 c 0,-0.6796875 0.6679688,-1.359375 1.453125,-1.359375 0.8554688,0 1.546875,0.8789063 1.546875,1.9570313 0,1.1484375 -0.8085937,1.95703124 -1.6640625,1.95703124 -0.890625,0 -1.3359375,-1.01953124 -1.3359375,-1.61718754 z M -22.667977,9.5403672 c 0,-0.1875 0,-0.4570313 -0.328125,-0.4570313 -0.292968,0 -0.363281,0.28125 -0.363281,0.2929688 -0.480469,-0.2929688 -1.019531,-0.2929688 -1.265625,-0.2929688 -1.945312,0 -2.214844,0.9960941 -2.214844,1.4062501 0,0.480469 0.292969,0.820312 0.703125,1.042969 0.375,0.222656 0.726563,0.28125 1.699219,0.433593 0.46875,0.08203 1.429688,0.234375 1.429688,0.902344 0,0.433594 -0.410157,0.855469 -1.523438,0.855469 -0.761719,0 -1.265625,-0.304688 -1.511719,-1.160156 -0.05859,-0.164063 -0.09375,-0.292969 -0.398437,-0.292969 -0.398438,0 -0.398438,0.222656 -0.398438,0.457031 v 1.230469 c 0,0.199219 0,0.457031 0.339844,0.457031 0.140625,0 0.246094,0 0.433594,-0.492187 0.550781,0.457031 1.171875,0.492187 1.535156,0.492187 2.214844,0 2.214844,-1.429687 2.214844,-1.546875 0,-1.253906 -1.476563,-1.5 -2.050781,-1.582031 -1.054688,-0.175781 -1.769532,-0.304688 -1.769532,-0.796875 0,-0.328125 0.363282,-0.7148438 1.488282,-0.7148438 1.136718,0 1.183593,0.5390628 1.207031,0.8554688 0.02344,0.234375 0.246094,0.269531 0.386719,0.269531 0.386718,0 0.386718,-0.210937 0.386718,-0.457031 z m 6.128907,1.3007808 c 0,-1.1718746 -0.550782,-1.7226558 -1.523438,-1.7226558 -0.820312,0 -1.335937,0.4570312 -1.546875,0.6796875 V 7.5364609 c 0,-0.375 -0.07031,-0.4921875 -0.480469,-0.4921875 h -0.785156 c -0.164062,0 -0.480469,0 -0.480469,0.3398438 0,0.3515625 0.316407,0.3515625 0.480469,0.3515625 h 0.492188 v 5.9179683 h -0.492188 c -0.164062,0 -0.480469,0 -0.480469,0.339844 0,0.351563 0.316407,0.351563 0.480469,0.351563 h 1.757813 c 0.164062,0 0.480468,0 0.480468,-0.351563 0,-0.339844 -0.316406,-0.339844 -0.480468,-0.339844 h -0.492188 V 11.48568 c 0,-1.160157 0.820313,-1.6757816 1.464844,-1.6757816 0.691406,0 0.832031,0.3984376 0.832031,1.0781246 v 2.765625 h -0.492187 c -0.164063,0 -0.480469,0 -0.480469,0.339844 0,0.351563 0.316406,0.351563 0.480469,0.351563 h 1.757812 c 0.164063,0 0.480469,0 0.480469,-0.351563 0,-0.339844 -0.316406,-0.339844 -0.480469,-0.339844 h -0.492187 z m 6.105468,0.105469 c 0,-0.902344 -0.679687,-1.8632811 -2.296875,-1.8632811 -0.492187,0 -1.652343,0 -1.652343,0.8320313 0,0.3164058 0.222656,0.4921878 0.480468,0.4921878 0.08203,0 0.46875,-0.02344 0.480469,-0.5156253 0,-0.070312 0.01172,-0.082031 0.269531,-0.1054688 0.140625,-0.011719 0.292969,-0.011719 0.433594,-0.011719 0.28125,0 0.691406,0 1.078125,0.3046881 0.433594,0.328125 0.433594,0.667968 0.433594,1.019531 -0.703125,0.02344 -1.394531,0.07031 -2.144531,0.304687 -0.597657,0.199219 -1.359375,0.632813 -1.359375,1.441407 0,0.855468 0.75,1.570312 1.863281,1.570312 0.386719,0 1.125,-0.05859 1.746094,-0.492187 0.246093,0.398437 0.84375,0.421875 1.2890622,0.421875 0.2929687,0 0.5742187,0 0.5742187,-0.351563 0,-0.339844 -0.3046875,-0.339844 -0.4804687,-0.339844 -0.3046872,0 -0.5390622,-0.02344 -0.7148442,-0.09375 z m -0.773437,1.816406 c 0,0.28125 0,0.527344 -0.492188,0.761719 -0.421875,0.199219 -0.972656,0.199219 -1.019531,0.199219 -0.703125,0 -1.21875,-0.386719 -1.21875,-0.878906 0,-0.703125 1.289063,-1.101563 2.730469,-1.101563 z m 4.3945312,4.230469 c 0.1640625,0 0.4804687,0 0.4804687,-0.339844 0,-0.351562 -0.3164062,-0.351562 -0.4804687,-0.351562 h -0.4921875 v -2.554688 c 0.2929687,0.328125 0.7265625,0.667969 1.40625,0.667969 1.265625,0 2.3789062,-1.136719 2.3789062,-2.648437 0,-1.476563 -1.0078125,-2.6484378 -2.25,-2.6484378 -0.8789062,0 -1.4296875,0.5273437 -1.5351562,0.6445312 0,-0.3867187 0,-0.5742187 -0.4804688,-0.5742187 h -0.7851562 c -0.1640625,0 -0.4804688,0 -0.4804688,0.3515625 0,0.3515625 0.3164063,0.3515625 0.4804688,0.3515625 h 0.4921875 v 6.4101563 h -0.4921875 c -0.1640625,0 -0.4804688,0 -0.4804688,0.351562 0,0.339844 0.3164063,0.339844 0.4804688,0.339844 z m -0.4921875,-5.824219 c 0,-0.679687 0.6679687,-1.3593746 1.453125,-1.3593746 0.8554687,0 1.546875,0.8789066 1.546875,1.9570316 0,1.148437 -0.8085938,1.957031 -1.6640625,1.957031 -0.890625,0 -1.3359375,-1.019531 -1.3359375,-1.617188 z m 9.1992187,0.878907 c 0.2578125,0 0.4804688,0 0.4804688,-0.445313 0,-1.394531 -0.7851563,-2.5195311 -2.28515626,-2.5195311 -1.38281254,0 -2.49609374,1.1953121 -2.49609374,2.6601561 0,1.5 1.2070312,2.671875 2.68359374,2.671875 1.53515626,0 2.09765626,-1.066406 2.09765626,-1.371094 0,-0.07031 -0.023437,-0.339843 -0.3984375,-0.339843 -0.2226563,0 -0.2929688,0.08203 -0.3632813,0.269531 -0.3046875,0.691406 -1.07812496,0.75 -1.30078121,0.75 -0.99609375,0 -1.78124999,-0.75 -1.92187499,-1.675781 z m -3.4921875,-0.65625 c 0.1640625,-1.019532 0.93750004,-1.6171878 1.68750004,-1.6171878 1.19531246,0 1.45312496,1.0195308 1.49999996,1.6171878 z m 9.8671875,-1.21875 c 0.1523438,0 0.515625,0 0.515625,-0.3867191 0,-0.3867187 -0.3984375,-0.3867187 -0.5742187,-0.3867187 H 4.0976484 c -0.1875,0 -0.5742187,0 -0.5742187,0.3867187 0,0.3867191 0.3632812,0.3867191 0.515625,0.3867191 z m -0.058594,1.816406 c 0.1757812,0 0.5742187,0 0.5742187,-0.398438 0,-0.375 -0.375,-0.375 -0.515625,-0.375 H 4.0390547 c -0.1640625,0 -0.515625,0 -0.515625,0.375 0,0.398438 0.3867187,0.398438 0.5742187,0.398438 z m 6.1406256,3.035156 c 0,-0.152344 -0.09375,-0.199219 -0.257813,-0.316406 -1.652344,-1.136719 -2.050781,-2.847656 -2.050781,-4.007813 0,-1.1367183 0.375,-2.8593746 2.050781,-4.0195308 0.164063,-0.1171875 0.257813,-0.1640625 0.257813,-0.3164063 0,-0.1289062 -0.07031,-0.3164062 -0.351563,-0.3164062 -0.304687,0 -1.183594,0.6914062 -1.734375,1.4765625 -0.667969,0.9257812 -1.007812,2.0390625 -1.007812,3.1757808 0,1.324219 0.480468,2.4375 0.984375,3.140625 0.550781,0.761719 1.417968,1.5 1.757812,1.5 0.28125,0 0.351563,-0.210937 0.351563,-0.316406 z m 4.089843,-4.277344 c 1.242188,0 1.792969,0.867188 1.792969,1.523438 0,0.785156 -0.691406,1.523437 -1.746094,1.523437 -1.195312,0 -1.734375,-0.644531 -1.734375,-0.808593 0,-0.02344 0.01172,-0.04687 0.02344,-0.05859 0.04687,-0.09375 0.08203,-0.1875 0.08203,-0.292969 0,-0.246094 -0.1875,-0.480469 -0.46875,-0.480469 -0.257812,0 -0.492187,0.164063 -0.492187,0.527344 0,1.042969 1.136718,1.804688 2.589843,1.804688 1.511719,0 2.519532,-1.078125 2.519532,-2.203125 0,-0.609375 -0.328125,-1.464844 -1.382813,-1.921875 0.726563,-0.4453128 1.054688,-1.1718753 1.054688,-1.7929691 0,-0.890625 -0.902344,-1.6640625 -2.191407,-1.6640625 -1.324218,0 -2.261718,0.5625 -2.261718,1.453125 0,0.3984375 0.304687,0.515625 0.492187,0.515625 0.222656,0 0.480469,-0.1640625 0.480469,-0.4921875 0,-0.1875 -0.09375,-0.2929687 -0.09375,-0.3164062 0.351562,-0.4453125 1.183594,-0.46875 1.382812,-0.46875 0.820313,0 1.417969,0.421875 1.417969,0.984375 0,0.3515625 -0.234375,1.3476562 -1.488281,1.4296873 -0.445313,0.02344 -0.632813,0.04687 -0.679688,0.04687 -0.234375,0.02344 -0.304687,0.175781 -0.304687,0.339844 0,0.351562 0.257812,0.351562 0.457031,0.351562 z m 6.398438,3.5625 c -0.07031,0.375 -0.304688,0.820313 -0.890625,1.03125 -0.105469,0.02344 -0.28125,0.08203 -0.28125,0.304688 0,0.152344 0.175781,0.363281 0.363281,0.363281 0.328125,0 1.511719,-0.585937 1.511719,-1.875 0,-0.632812 -0.398438,-1.136719 -0.925781,-1.136719 -0.445313,0 -0.679688,0.339844 -0.679688,0.667969 0,0.398438 0.304688,0.679688 0.667969,0.679688 0.07031,0 0.152344,-0.01172 0.234375,-0.03516 z m 6.960937,-3.609375 c 0,-0.9374996 -0.222656,-2.1445308 -1.089843,-3.3046871 -0.410157,-0.5507812 -1.289063,-1.3476562 -1.652344,-1.3476562 -0.269531,0 -0.339844,0.1992187 -0.339844,0.3164062 0,0.140625 0.08203,0.1992188 0.292969,0.3398438 1.464844,1.03125 2.015625,2.6367187 2.015625,3.9843753 0,1.078125 -0.351563,2.835937 -2.0625,4.019531 -0.152344,0.105469 -0.246094,0.164062 -0.246094,0.316406 0,0.105469 0.07031,0.316406 0.339844,0.316406 0.304687,0 1.183594,-0.691406 1.734375,-1.476562 0.691406,-0.972656 1.007812,-2.097656 1.007812,-3.164063 z m 0,0"
       style="fill:#000000;fill-opacity:1;fill-rule:nonzero;stroke:none"
       aria-label="b&#10;shape=(3,)"
       transform="matrix(1.3333333,0,0,1.3333333,336.056,171.81467)" />
    <path
       id="path37"
       d="m 8.0729687,-3.8665781 c 0.1640625,0 0.375,0 0.375,-0.2226563 0,-0.2226562 -0.1992187,-0.2226562 -0.375,-0.2226562 H 1.03 c -0.17578125,0 -0.38671875,0 -0.38671875,0.2109375 0,0.234375 0.19921875,0.234375 0.38671875,0.234375 z m 0,2.2148437 c 0.1640625,0 0.375,0 0.375,-0.2109375 0,-0.234375 -0.1992187,-0.234375 -0.375,-0.234375 H 1.03 c -0.17578125,0 -0.38671875,0 -0.38671875,0.2226563 0,0.2226562 0.19921875,0.2226562 0.38671875,0.2226562 z m 0,0"
       style="fill:#000000;fill-opacity:1;fill-rule:nonzero;stroke:none"
       aria-label="="
       transform="matrix(1.3333333,0,0,1.3333333,419.12667,221.632)" />
    <path
       id="path38"
       d="m 107.71779,-62.36304 h 22.67743 v 22.67743 h -22.67743 z"
       style="fill:none;stroke:#000000;stroke-width:0.3985;stroke-linecap:butt;stroke-linejoin:miter;stroke-miterlimit:10;stroke-dasharray:none;stroke-opacity:1"
       transform="matrix(1.3333333,0,0,-1.3333333,306.14133,150.724)" />
    <path
       id="path39"
       d="M 5.2620703,-2.0049375 H 4.9925391 c -0.035156,0.1992188 -0.1289063,0.8554688 -0.2460938,1.04296875 -0.082031,0.1171875 -0.7617187,0.1171875 -1.125,0.1171875 H 1.4066016 C 1.7347266,-1.1260312 2.4612891,-1.88775 2.7776953,-2.1807187 c 1.8164063,-1.6640625 2.484375,-2.2851563 2.484375,-3.46875 0,-1.3828125 -1.0898437,-2.296875 -2.4726562,-2.296875 -1.3945313,0 -2.20312504,1.1835937 -2.20312504,2.203125 0,0.609375 0.52734374,0.609375 0.56250004,0.609375 0.2460937,0 0.5625,-0.1757813 0.5625,-0.5625 0,-0.328125 -0.234375,-0.5507813 -0.5625,-0.5507813 -0.1054688,0 -0.1289063,0 -0.16406254,0.011719 C 1.2073828,-7.0557187 1.8519141,-7.6065 2.6253516,-7.6065 c 1.0195312,0 1.640625,0.8554688 1.640625,1.9570313 0,1.0078125 -0.5859375,1.8984375 -1.265625,2.6601562 l -2.41406254,2.70703125 v 0.28125 H 4.9456641 Z m 0,0"
       style="fill:#000000;fill-opacity:1;fill-rule:nonzero;stroke:none"
       aria-label="2"
       transform="matrix(1.3333333,0,0,1.3333333,460.98,223.892)" />
    <path
       id="path40"
       d="m 130.39532,-62.36304 h 22.67743 v 22.67743 h -22.67743 z"
       style="fill:none;stroke:#000000;stroke-width:0.3985;stroke-linecap:butt;stroke-linejoin:miter;stroke-miterlimit:10;stroke-dasharray:none;stroke-opacity:1"
       transform="matrix(1.3333333,0,0,-1.3333333,306.14133,150.724)" />
    <path
       id="path41"
       d="m 2.2022578,-4.2900937 c -0.2109375,0.011719 -0.2578125,0.023437 -0.2578125,0.1289062 0,0.1171875 0.058594,0.1171875 0.28125,0.1171875 h 0.5507813 c 1.0078125,0 1.4648437,0.84375 1.4648437,1.9921875 0,1.55859375 -0.8085937,1.98046875 -1.3945312,1.98046875 -0.5742188,0 -1.5585938,-0.28125 -1.89843754,-1.06640625 0.37500004,0.058594 0.72656254,-0.1523437 0.72656254,-0.5859375 0,-0.3398437 -0.2578125,-0.5859375 -0.5859375,-0.5859375 -0.29296879,0 -0.59765629,0.1640625 -0.59765629,0.6210938 0,1.0664062 1.06640629,1.9335937 2.39062499,1.9335937 1.4179688,0 2.4726563,-1.078125 2.4726563,-2.2851562 0,-1.1015625 -0.890625,-1.96875 -2.0273438,-2.1679688 1.03125,-0.3046875 1.6992188,-1.171875 1.6992188,-2.109375 0,-0.9375 -0.9726563,-1.6289062 -2.1328125,-1.6289062 -1.1953125,0 -2.08593754,0.7265625 -2.08593754,1.59375 0,0.4804687 0.37500004,0.5742187 0.55078124,0.5742187 0.2578125,0 0.5390625,-0.1757812 0.5390625,-0.5390625 0,-0.375 -0.28125,-0.5390625 -0.5507812,-0.5390625 -0.070312,0 -0.09375,0 -0.1289063,0.011719 0.4570313,-0.8203125 1.5820313,-0.8203125 1.640625,-0.8203125 0.3867188,0 1.171875,0.1757812 1.171875,1.3476562 0,0.234375 -0.035156,0.9023438 -0.3867187,1.4179688 -0.3515625,0.5273437 -0.7617188,0.5625 -1.0898438,0.5742187 z m 0,0"
       style="fill:#000000;fill-opacity:1;fill-rule:nonzero;stroke:none"
       aria-label="3"
       transform="matrix(1.3333333,0,0,1.3333333,491.216,223.892)" />
    <path
       id="path42"
       d="m 153.07285,-62.36304 h 22.67743 v 22.67743 h -22.67743 z"
       style="fill:none;stroke:#000000;stroke-width:0.3985;stroke-linecap:butt;stroke-linejoin:miter;stroke-miterlimit:10;stroke-dasharray:none;stroke-opacity:1"
       transform="matrix(1.3333333,0,0,-1.3333333,306.14133,150.724)" />
    <path
       id="path43"
       d="m 4.3133438,-7.7822812 c 0,-0.2226563 0,-0.2929688 -0.1640625,-0.2929688 -0.09375,0 -0.1289063,0 -0.2226563,0.1523438 l -3.59765625,5.578125 v 0.3515625 H 3.4695938 v 1.07812495 c 0,0.4453125 -0.023437,0.5625 -0.9023438,0.5625 H 2.332875 v 0.3515625 c 0.2695313,-0.0234375 1.21875,-0.0234375 1.5585938,-0.0234375 0.328125,0 1.2890625,0 1.5585937,0.0234375 v -0.3515625 h -0.234375 c -0.8671875,0 -0.9023437,-0.1171875 -0.9023437,-0.5625 V -1.9932187 H 5.520375 V -2.3447812 H 4.3133438 Z m -0.7851563,0.9375 v 4.5 h -2.90625 z m 0,0"
       style="fill:#000000;fill-opacity:1;fill-rule:nonzero;stroke:none"
       aria-label="4"
       transform="matrix(1.3333333,0,0,1.3333333,521.452,223.892)" />
    <path
       id="path44"
       d="m 5.4479375,-1.2994766 c 0,-0.3164062 -0.2929687,-0.3164062 -0.3984375,-0.3164062 -0.2695312,0 -0.3164062,0.09375 -0.375,0.2695312 -0.2695312,0.65625004 -0.8554687,0.72656254 -1.1367187,0.72656254 -1.0195313,0 -1.875,-0.84375004 -1.875,-1.95703124 0,-0.609375 0.3398437,-1.9921875 1.9101562,-1.9921875 0.328125,0 0.5742188,0.023437 0.6796875,0.035156 0.082031,0.023437 0.09375,0.035156 0.09375,0.1054688 0.035156,0.4804687 0.4101563,0.4921875 0.4804688,0.4921875 0.2695312,0 0.4921875,-0.1757813 0.4921875,-0.4921875 0,-0.8320313 -1.2070313,-0.8320313 -1.734375,-0.8320313 -2.0390625,0 -2.7070313,1.6757813 -2.7070313,2.6835938 0,1.453125 1.1132813,2.64843749 2.5546875,2.64843749 1.59375,0 2.015625,-1.18359379 2.015625,-1.37109359 z M -22.668273,9.5403672 c 0,-0.1875 0,-0.4570313 -0.328125,-0.4570313 -0.292969,0 -0.363282,0.28125 -0.363282,0.2929688 -0.480468,-0.2929688 -1.019531,-0.2929688 -1.265625,-0.2929688 -1.945312,0 -2.214843,0.9960941 -2.214843,1.4062501 0,0.480469 0.292968,0.820312 0.703125,1.042969 0.375,0.222656 0.726562,0.28125 1.699218,0.433593 0.46875,0.08203 1.429688,0.234375 1.429688,0.902344 0,0.433594 -0.410156,0.855469 -1.523438,0.855469 -0.761718,0 -1.265625,-0.304688 -1.511718,-1.160156 -0.05859,-0.164063 -0.09375,-0.292969 -0.398438,-0.292969 -0.398437,0 -0.398437,0.222656 -0.398437,0.457031 v 1.230469 c 0,0.199219 0,0.457031 0.339843,0.457031 0.140625,0 0.246094,0 0.433594,-0.492187 0.550781,0.457031 1.171875,0.492187 1.535156,0.492187 2.214844,0 2.214844,-1.429687 2.214844,-1.546875 0,-1.253906 -1.476562,-1.5 -2.050781,-1.582031 -1.054688,-0.175781 -1.769531,-0.304688 -1.769531,-0.796875 0,-0.328125 0.363281,-0.7148438 1.488281,-0.7148438 1.136719,0 1.183594,0.5390628 1.207031,0.8554688 0.02344,0.234375 0.246094,0.269531 0.386719,0.269531 0.386719,0 0.386719,-0.210937 0.386719,-0.457031 z m 6.128906,1.3007808 c 0,-1.1718746 -0.550781,-1.7226558 -1.523438,-1.7226558 -0.820312,0 -1.335937,0.4570312 -1.546875,0.6796875 V 7.5364609 c 0,-0.375 -0.07031,-0.4921875 -0.480468,-0.4921875 h -0.785157 c -0.164062,0 -0.480468,0 -0.480468,0.3398438 0,0.3515625 0.316406,0.3515625 0.480468,0.3515625 h 0.492188 v 5.9179683 h -0.492188 c -0.164062,0 -0.480468,0 -0.480468,0.339844 0,0.351563 0.316406,0.351563 0.480468,0.351563 h 1.757813 c 0.164062,0 0.480469,0 0.480469,-0.351563 0,-0.339844 -0.316407,-0.339844 -0.480469,-0.339844 H -19.60968 V 11.48568 c 0,-1.160157 0.820313,-1.6757816 1.464844,-1.6757816 0.691406,0 0.832031,0.3984376 0.832031,1.0781246 v 2.765625 h -0.492187 c -0.164063,0 -0.480469,0 -0.480469,0.339844 0,0.351563 0.316406,0.351563 0.480469,0.351563 h 1.757812 c 0.164063,0 0.480469,0 0.480469,-0.351563 0,-0.339844 -0.316406,-0.339844 -0.480469,-0.339844 h -0.492187 z m 6.105469,0.105469 c 0,-0.902344 -0.679688,-1.8632811 -2.296875,-1.8632811 -0.492188,0 -1.652344,0 -1.652344,0.8320313 0,0.3164058 0.222656,0.4921878 0.480469,0.4921878 0.08203,0 0.46875,-0.02344 0.480468,-0.5156253 0,-0.070312 0.01172,-0.082031 0.269532,-0.1054688 0.140625,-0.011719 0.292968,-0.011719 0.433593,-0.011719 0.28125,0 0.691407,0 1.078125,0.3046881 0.433594,0.328125 0.433594,0.667968 0.433594,1.019531 -0.703125,0.02344 -1.394531,0.07031 -2.144531,0.304687 -0.597656,0.199219 -1.359375,0.632813 -1.359375,1.441407 0,0.855468 0.75,1.570312 1.863281,1.570312 0.386719,0 1.125,-0.05859 1.746094,-0.492187 0.246094,0.398437 0.84375,0.421875 1.2890623,0.421875 0.2929688,0 0.5742188,0 0.5742188,-0.351563 0,-0.339844 -0.3046875,-0.339844 -0.4804688,-0.339844 -0.3046873,0 -0.5390623,-0.02344 -0.7148433,-0.09375 z m -0.773438,1.816406 c 0,0.28125 0,0.527344 -0.492187,0.761719 -0.421875,0.199219 -0.972657,0.199219 -1.019532,0.199219 -0.703125,0 -1.21875,-0.386719 -1.21875,-0.878906 0,-0.703125 1.289063,-1.101563 2.730469,-1.101563 z m 4.3945313,4.230469 c 0.1640625,0 0.4804688,0 0.4804688,-0.339844 0,-0.351562 -0.3164063,-0.351562 -0.4804688,-0.351562 h -0.4921875 v -2.554688 c 0.2929688,0.328125 0.7265625,0.667969 1.40625,0.667969 1.265625,0 2.3789063,-1.136719 2.3789063,-2.648437 0,-1.476563 -1.0078125,-2.6484378 -2.25,-2.6484378 -0.8789063,0 -1.4296875,0.5273437 -1.5351563,0.6445312 0,-0.3867187 0,-0.5742187 -0.4804687,-0.5742187 h -0.7851563 c -0.1640625,0 -0.4804687,0 -0.4804687,0.3515625 0,0.3515625 0.3164062,0.3515625 0.4804687,0.3515625 h 0.4921875 v 6.4101563 h -0.4921875 c -0.1640625,0 -0.4804687,0 -0.4804687,0.351562 0,0.339844 0.3164062,0.339844 0.4804687,0.339844 z m -0.4921875,-5.824219 c 0,-0.679687 0.6679688,-1.3593746 1.453125,-1.3593746 0.8554688,0 1.546875,0.8789066 1.546875,1.9570316 0,1.148437 -0.8085937,1.957031 -1.6640625,1.957031 -0.890625,0 -1.3359375,-1.019531 -1.3359375,-1.617188 z m 9.1992188,0.878907 c 0.2578125,0 0.4804687,0 0.4804687,-0.445313 0,-1.394531 -0.7851562,-2.5195311 -2.28515624,-2.5195311 -1.38281246,0 -2.49609376,1.1953121 -2.49609376,2.6601561 0,1.5 1.2070313,2.671875 2.68359376,2.671875 1.53515624,0 2.09765624,-1.066406 2.09765624,-1.371094 0,-0.07031 -0.023437,-0.339843 -0.3984375,-0.339843 -0.2226562,0 -0.2929687,0.08203 -0.3632812,0.269531 -0.3046875,0.691406 -1.07812504,0.75 -1.30078129,0.75 -0.99609375,0 -1.78125001,-0.75 -1.92187501,-1.675781 z m -3.4921875,-0.65625 c 0.1640625,-1.019532 0.93749996,-1.6171878 1.68749996,-1.6171878 1.19531254,0 1.45312504,1.0195308 1.50000004,1.6171878 z m 9.8671875,-1.21875 c 0.1523437,0 0.515625,0 0.515625,-0.3867191 0,-0.3867187 -0.3984375,-0.3867187 -0.5742188,-0.3867187 H 4.0973516 c -0.1875,0 -0.5742188,0 -0.5742188,0.3867187 0,0.3867191 0.3632813,0.3867191 0.515625,0.3867191 z m -0.058594,1.816406 c 0.1757813,0 0.5742188,0 0.5742188,-0.398438 0,-0.375 -0.375,-0.375 -0.515625,-0.375 H 4.0387578 c -0.1640625,0 -0.515625,0 -0.515625,0.375 0,0.398438 0.3867188,0.398438 0.5742188,0.398438 z m 6.1406254,3.035156 c 0,-0.152344 -0.09375,-0.199219 -0.257813,-0.316406 -1.652343,-1.136719 -2.050781,-2.847656 -2.050781,-4.007813 0,-1.1367183 0.375,-2.8593746 2.050781,-4.0195308 0.164063,-0.1171875 0.257813,-0.1640625 0.257813,-0.3164063 0,-0.1289062 -0.07031,-0.3164062 -0.351563,-0.3164062 -0.304687,0 -1.183593,0.6914062 -1.734375,1.4765625 -0.667968,0.9257812 -1.007812,2.0390625 -1.007812,3.1757808 0,1.324219 0.480469,2.4375 0.984375,3.140625 0.550781,0.761719 1.417969,1.5 1.757812,1.5 0.28125,0 0.351563,-0.210937 0.351563,-0.316406 z m 4.086914,-4.277344 c 1.242187,0 1.792969,0.867188 1.792969,1.523438 0,0.785156 -0.691407,1.523437 -1.746094,1.523437 -1.195313,0 -1.734375,-0.644531 -1.734375,-0.808593 0,-0.02344 0.01172,-0.04687 0.02344,-0.05859 0.04687,-0.09375 0.08203,-0.1875 0.08203,-0.292969 0,-0.246094 -0.1875,-0.480469 -0.46875,-0.480469 -0.257813,0 -0.492188,0.164063 -0.492188,0.527344 0,1.042969 1.136719,1.804688 2.589844,1.804688 1.511719,0 2.519531,-1.078125 2.519531,-2.203125 0,-0.609375 -0.328125,-1.464844 -1.382812,-1.921875 0.726562,-0.4453128 1.054687,-1.1718753 1.054687,-1.7929691 0,-0.890625 -0.902344,-1.6640625 -2.191406,-1.6640625 -1.324219,0 -2.261719,0.5625 -2.261719,1.453125 0,0.3984375 0.304688,0.515625 0.492188,0.515625 0.222656,0 0.480468,-0.1640625 0.480468,-0.4921875 0,-0.1875 -0.09375,-0.2929687 -0.09375,-0.3164062 0.351563,-0.4453125 1.183594,-0.46875 1.382813,-0.46875 0.820312,0 1.417969,0.421875 1.417969,0.984375 0,0.3515625 -0.234375,1.3476562 -1.488282,1.4296873 -0.445312,0.02344 -0.632812,0.04687 -0.679687,0.04687 -0.234375,0.02344 -0.304688,0.175781 -0.304688,0.339844 0,0.351562 0.257813,0.351562 0.457032,0.351562 z m 6.398437,3.5625 c -0.07031,0.375 -0.304687,0.820313 -0.890625,1.03125 -0.105468,0.02344 -0.28125,0.08203 -0.28125,0.304688 0,0.152344 0.175782,0.363281 0.363282,0.363281 0.328125,0 1.511718,-0.585937 1.511718,-1.875 0,-0.632812 -0.398437,-1.136719 -0.925781,-1.136719 -0.445312,0 -0.679687,0.339844 -0.679687,0.667969 0,0.398438 0.304687,0.679688 0.667968,0.679688 0.07031,0 0.152344,-0.01172 0.234375,-0.03516 z m 6.960938,-3.609375 c 0,-0.9374996 -0.222656,-2.1445308 -1.089844,-3.3046871 -0.410156,-0.5507812 -1.289062,-1.3476562 -1.652344,-1.3476562 -0.269531,0 -0.339843,0.1992187 -0.339843,0.3164062 0,0.140625 0.08203,0.1992188 0.292968,0.3398438 1.464844,1.03125 2.015625,2.6367187 2.015625,3.9843753 0,1.078125 -0.351562,2.835937 -2.0625,4.019531 -0.152343,0.105469 -0.246093,0.164062 -0.246093,0.316406 0,0.105469 0.07031,0.316406 0.339843,0.316406 0.304688,0 1.183594,-0.691406 1.734375,-1.476562 0.691407,-0.972656 1.007813,-2.097656 1.007813,-3.164063 z m 0,0"
       style="fill:#000000;fill-opacity:1;fill-rule:nonzero;stroke:none"
       aria-label="c&#10;shape=(3,)"
       transform="matrix(1.3333333,0,0,1.3333333,491.01733,171.81467)" />
    <path
       id="path45"
       d="m 25.51193,50.82492 4.3e-4,-52.30319"
       style="fill:none;stroke:#000000;stroke-width:0.79701;stroke-linecap:butt;stroke-linejoin:miter;stroke-miterlimit:10;stroke-dasharray:none;stroke-opacity:1"
       transform="matrix(1.3333333,0,0,-1.3333333,306.14133,150.724)" />
    <path
       id="path46"
       d="M 4.19469,0 C 3.67955,0.12816 1.41522,0.85442 0,1.64478 V -1.64478 C 1.41522,-0.85442 3.67955,-0.12816 4.19469,0 Z"
       style="fill:#000000;fill-opacity:1;fill-rule:nonzero;stroke:#000000;stroke-width:0.79701;stroke-linecap:butt;stroke-linejoin:miter;stroke-miterlimit:10;stroke-dasharray:none;stroke-opacity:1"
       transform="matrix(0,1.3333333,1.3333333,0,340.15781,152.69503)" />
    <path
       id="path47"
       d="M 25.91066,15.27866 H 90.4196 V 28.23023 H 25.91066 Z"
       style="fill:#ffffff;fill-opacity:1;fill-rule:nonzero;stroke:none"
       transform="matrix(1.3333333,0,0,-1.3333333,306.14133,150.724)" />
    <path
       id="path48"
       d="m 5.1198594,0.68101563 c 0,-0.15234375 -0.09375,-0.19921875 -0.2578125,-0.31640625 C 3.2097031,-0.77210937 2.8112656,-2.4830469 2.8112656,-3.6432031 c 0,-1.1367188 0.375,-2.859375 2.0507813,-4.0195313 0.1640625,-0.1171875 0.2578125,-0.1640625 0.2578125,-0.3164062 0,-0.1289063 -0.070312,-0.3164063 -0.3515625,-0.3164063 -0.3046875,0 -1.1835938,0.6914063 -1.734375,1.4765625 -0.6679688,0.9257813 -1.0078125,2.0390625 -1.0078125,3.1757813 0,1.3242187 0.4804687,2.4375 0.984375,3.14062498 0.5507812,0.76171875 1.4179687,1.5 1.7578125,1.5 0.28125,0 0.3515625,-0.2109375 0.3515625,-0.31640625 z M 10.264391,-3.6432031 c 0,-0.9375 -0.222657,-2.1445313 -1.0898441,-3.3046875 -0.4101563,-0.5507813 -1.2890625,-1.3476563 -1.6523438,-1.3476563 -0.2695312,0 -0.3398437,0.1992188 -0.3398437,0.3164063 0,0.140625 0.082031,0.1992187 0.2929687,0.3398437 1.4648438,1.03125 2.015625,2.6367188 2.015625,3.984375 0,1.078125 -0.3515625,2.83593753 -2.0625,4.01953128 -0.1523437,0.10546875 -0.2460937,0.1640625 -0.2460937,0.31640625 0,0.10546875 0.070312,0.31640625 0.3398437,0.31640625 0.3046875,0 1.1835938,-0.69140625 1.734375,-1.4765625 C 9.9479844,-1.4517969 10.264391,-2.5767969 10.264391,-3.6432031 Z m 13.142578,0.3867187 c 0.164062,0 0.539062,0 0.539062,-0.3867187 0,-0.3984375 -0.363281,-0.3984375 -0.539062,-0.3984375 h -3.75 c -0.152344,0 -0.539063,0 -0.539063,0.3867187 0,0.3984375 0.375,0.3984375 0.539063,0.3984375 z m 6.46875,-0.035156 c 0.140625,-0.082031 0.222656,-0.2109375 0.222656,-0.3515625 0,-0.2109375 -0.128906,-0.3046875 -0.222656,-0.3632813 l -3.925781,-2.4960937 c -0.08203,-0.046875 -0.175782,-0.1171875 -0.28125,-0.1171875 -0.1875,0 -0.398438,0.140625 -0.398438,0.3984375 0,0.2109375 0.128906,0.28125 0.257813,0.3632812 l 3.457031,2.203125 -3.457031,2.2148438 c -0.128907,0.082031 -0.257813,0.1523437 -0.257813,0.3632812 0,0.25781253 0.210938,0.39843753 0.398438,0.39843753 l 0.02344,-0.0117188 c 0.09375,-0.0117188 0.117188,-0.0117188 0.246094,-0.10546875 z m 12.155273,3.97265623 c 0,-0.15234375 -0.09375,-0.19921875 -0.257812,-0.31640625 -1.652344,-1.13671875 -2.050782,-2.84765628 -2.050782,-4.00781248 0,-1.1367188 0.375,-2.859375 2.050782,-4.0195313 0.164062,-0.1171875 0.257812,-0.1640625 0.257812,-0.3164062 0,-0.1289063 -0.07031,-0.3164063 -0.351562,-0.3164063 -0.304688,0 -1.183594,0.6914063 -1.734375,1.4765625 -0.667969,0.9257813 -1.007813,2.0390625 -1.007813,3.1757813 0,1.3242187 0.480469,2.4375 0.984375,3.14062498 0.550781,0.76171875 1.417969,1.5 1.757813,1.5 0.28125,0 0.351562,-0.2109375 0.351562,-0.31640625 z m 4.089844,-4.27734373 c 1.242187,0 1.792969,0.8671875 1.792969,1.5234375 0,0.7851562 -0.691407,1.52343748 -1.746094,1.52343748 -1.195313,0 -1.734375,-0.64453128 -1.734375,-0.80859378 0,-0.023437 0.01172,-0.046875 0.02344,-0.058594 0.04687,-0.09375 0.08203,-0.1875 0.08203,-0.2929688 0,-0.2460937 -0.1875,-0.4804687 -0.46875,-0.4804687 -0.257813,0 -0.492188,0.1640625 -0.492188,0.5273437 0,1.04296878 1.136719,1.80468753 2.589844,1.80468753 1.511719,0 2.519531,-1.078125 2.519531,-2.20312503 0,-0.609375 -0.328125,-1.4648437 -1.382812,-1.921875 0.726562,-0.4453125 1.054687,-1.171875 1.054687,-1.7929687 0,-0.890625 -0.902344,-1.6640625 -2.191406,-1.6640625 -1.324219,0 -2.261719,0.5625 -2.261719,1.453125 0,0.3984375 0.304688,0.515625 0.492188,0.515625 0.222656,0 0.480468,-0.1640625 0.480468,-0.4921875 0,-0.1875 -0.09375,-0.2929688 -0.09375,-0.3164063 0.351563,-0.4453125 1.183594,-0.46875 1.382813,-0.46875 0.820312,0 1.417969,0.421875 1.417969,0.984375 0,0.3515625 -0.234375,1.3476563 -1.488282,1.4296875 -0.445312,0.023437 -0.632812,0.046875 -0.679687,0.046875 -0.234375,0.023437 -0.304688,0.1757813 -0.304688,0.3398438 0,0.3515625 0.257813,0.3515625 0.457032,0.3515625 z m 6.398437,3.56249998 c -0.07031,0.375 -0.304687,0.8203125 -0.890625,1.03125 -0.105468,0.0234375 -0.28125,0.0820312 -0.28125,0.30468752 0,0.1523437 0.175782,0.3632812 0.363282,0.3632812 0.328125,0 1.511718,-0.5859375 1.511718,-1.87499997 0,-0.6328125 -0.398437,-1.13671873 -0.925781,-1.13671873 -0.445312,0 -0.679687,0.3398437 -0.679687,0.66796873 0,0.3984375 0.304687,0.6796875 0.667968,0.6796875 0.07031,0 0.152344,-0.01171875 0.234375,-0.03515625 z m 6.960938,-3.60937498 c 0,-0.9375 -0.222656,-2.1445313 -1.089844,-3.3046875 -0.410156,-0.5507813 -1.289062,-1.3476563 -1.652344,-1.3476563 -0.269531,0 -0.339843,0.1992188 -0.339843,0.3164063 0,0.140625 0.08203,0.1992187 0.292968,0.3398437 1.464844,1.03125 2.015625,2.6367188 2.015625,3.984375 0,1.078125 -0.351562,2.83593753 -2.0625,4.01953128 -0.152343,0.10546875 -0.246093,0.1640625 -0.246093,0.31640625 0,0.10546875 0.07031,0.31640625 0.339843,0.31640625 0.304688,0 1.183594,-0.69140625 1.734375,-1.4765625 0.691407,-0.97265628 1.007813,-2.09765628 1.007813,-3.16406248 z m 0,0"
       style="fill:#000000;fill-opacity:1;fill-rule:nonzero;stroke:none"
       aria-label="()-&gt;(3,)"
       transform="matrix(1.3333333,0,0,1.3333333,342.68133,126.14667)" />
  </g>
</svg>
