<?xml version="1.0" encoding="UTF-8" standalone="no"?>
<!-- Created with Inkscape (http://www.inkscape.org/) -->

<svg
   version="1.1"
   id="svg1"
   width="680.3147"
   height="243.43867"
   viewBox="0 0 680.3147 243.43867"
   sodipodi:docname="01_scalar_plus_vector.pdf"
   xmlns:inkscape="http://www.inkscape.org/namespaces/inkscape"
   xmlns:sodipodi="http://sodipodi.sourceforge.net/DTD/sodipodi-0.dtd"
   xmlns="http://www.w3.org/2000/svg"
   xmlns:svg="http://www.w3.org/2000/svg">
  <defs
     id="defs1" />
  <sodipodi:namedview
     id="namedview1"
     pagecolor="#ffffff"
     bordercolor="#000000"
     borderopacity="0.25"
     inkscape:showpageshadow="2"
     inkscape:pageopacity="0.0"
     inkscape:pagecheckerboard="0"
     inkscape:deskcolor="#d1d1d1">
    <inkscape:page
       x="0"
       y="0"
       inkscape:label="1"
       id="page1"
       width="680.3147"
       height="243.43867"
       margin="0"
       bleed="0" />
  </sodipodi:namedview>
  <g
     id="g1"
     inkscape:groupmode="layer"
     inkscape:label="1">
    <path
       id="path1"
       d="m -102.04842,51.02417 h 22.67743 V 73.7016 h -22.67743 z"
       style="fill:none;stroke:#000000;stroke-width:0.3985;stroke-linecap:butt;stroke-linejoin:miter;stroke-miterlimit:10;stroke-dasharray:none;stroke-opacity:1"
       transform="matrix(1.3333333,0,0,-1.3333333,306.27467,150.45867)" />
    <path
       id="path2"
       d="M 5.2629844,-2.0049219 H 4.9934531 c -0.035156,0.1992188 -0.1289062,0.8554688 -0.2460937,1.04296878 -0.082031,0.1171875 -0.7617188,0.1171875 -1.125,0.1171875 H 1.4075156 c 0.328125,-0.28124998 1.0546875,-1.04296878 1.3710938,-1.33593748 1.8164062,-1.6640625 2.484375,-2.2851563 2.484375,-3.46875 0,-1.3828125 -1.0898438,-2.296875 -2.4726563,-2.296875 -1.3945312,0 -2.20312497,1.1835937 -2.20312497,2.203125 0,0.609375 0.52734377,0.609375 0.56249997,0.609375 0.2460938,0 0.5625,-0.1757813 0.5625,-0.5625 0,-0.328125 -0.234375,-0.5507813 -0.5625,-0.5507813 -0.1054687,0 -0.1289062,0 -0.16406247,0.011719 0.22265627,-0.8203125 0.86718747,-1.3710938 1.64062497,-1.3710938 1.0195313,0 1.640625,0.8554688 1.640625,1.9570313 0,1.0078125 -0.5859375,1.8984375 -1.265625,2.6601562 l -2.41406247,2.70703128 v 0.28125 H 4.9465781 Z m 0,0"
       style="fill:#000000;fill-opacity:1;fill-rule:nonzero;stroke:none"
       aria-label="2"
       transform="matrix(1.3333333,0,0,1.3333333,181.428,72.446667)" />
    <path
       id="path3"
       d="m 4.9442344,-3.3992656 c 0,-0.9023438 -0.6796875,-1.8632813 -2.296875,-1.8632813 -0.4921875,0 -1.65234377,0 -1.65234377,0.8320313 0,0.3164062 0.22265627,0.4921875 0.48046877,0.4921875 0.082031,0 0.46875,-0.023437 0.4804687,-0.515625 0,-0.070312 0.011719,-0.082031 0.2695313,-0.1054688 0.140625,-0.011719 0.2929687,-0.011719 0.4335937,-0.011719 0.28125,0 0.6914063,0 1.078125,0.3046875 0.4335938,0.328125 0.4335938,0.6679687 0.4335938,1.0195312 -0.703125,0.023437 -1.3945313,0.070312 -2.1445313,0.3046875 -0.5976562,0.1992188 -1.35937497,0.6328125 -1.35937497,1.4414063 0,0.85546873 0.74999997,1.57031248 1.86328127,1.57031248 0.3867187,0 1.125,-0.05859375 1.7460937,-0.4921875 0.2460938,0.3984375 0.84375,0.421874995 1.2890625,0.421874995 0.2929688,0 0.5742188,0 0.5742188,-0.351562495 0,-0.33984375 -0.3046875,-0.33984375 -0.4804688,-0.33984375 -0.3046875,0 -0.5390625,-0.0234375 -0.7148437,-0.09375 z m -0.7734375,1.8164062 c 0,0.28125 0,0.5273438 -0.4921875,0.76171878 -0.421875,0.19921875 -0.9726563,0.19921875 -1.0195313,0.19921875 -0.703125,0 -1.21875,-0.38671873 -1.21875,-0.87890623 0,-0.703125 1.2890625,-1.1015625 2.7304688,-1.1015625 z M -16.515727,9.5411641 c 0,-0.1875 0,-0.4570313 -0.328125,-0.4570313 -0.292968,0 -0.363281,0.28125 -0.363281,0.2929688 -0.480469,-0.2929688 -1.019531,-0.2929688 -1.265625,-0.2929688 -1.945312,0 -2.214844,0.9960942 -2.214844,1.4062502 0,0.480469 0.292969,0.820312 0.703125,1.042969 0.375,0.222656 0.726563,0.28125 1.699219,0.433593 0.46875,0.08203 1.429688,0.234375 1.429688,0.902344 0,0.433594 -0.410157,0.855469 -1.523438,0.855469 -0.761719,0 -1.265625,-0.304688 -1.511719,-1.160156 -0.05859,-0.164063 -0.09375,-0.292969 -0.398437,-0.292969 -0.398438,0 -0.398438,0.222656 -0.398438,0.457031 v 1.230469 c 0,0.199219 0,0.457031 0.339844,0.457031 0.140625,0 0.246094,0 0.433594,-0.492187 0.550781,0.457031 1.171875,0.492187 1.535156,0.492187 2.214844,0 2.214844,-1.429687 2.214844,-1.546875 0,-1.253906 -1.476563,-1.5 -2.050781,-1.582031 -1.054688,-0.175781 -1.769532,-0.304688 -1.769532,-0.796875 0,-0.328125 0.363282,-0.7148439 1.488282,-0.7148439 1.136718,0 1.183593,0.5390629 1.207031,0.8554689 0.02344,0.234375 0.246094,0.269531 0.386719,0.269531 0.386718,0 0.386718,-0.210937 0.386718,-0.457031 z m 6.128907,1.3007809 c 0,-1.1718747 -0.550782,-1.7226559 -1.523438,-1.7226559 -0.820312,0 -1.335937,0.4570312 -1.546875,0.6796875 V 7.5372578 c 0,-0.375 -0.07031,-0.4921875 -0.480469,-0.4921875 h -0.785156 c -0.164062,0 -0.480469,0 -0.480469,0.3398438 0,0.3515625 0.316407,0.3515625 0.480469,0.3515625 h 0.492188 v 5.9179684 h -0.492188 c -0.164062,0 -0.480469,0 -0.480469,0.339844 0,0.351563 0.316407,0.351563 0.480469,0.351563 h 1.757813 c 0.164062,0 0.480468,0 0.480468,-0.351563 0,-0.339844 -0.316406,-0.339844 -0.480468,-0.339844 h -0.492188 v -2.167968 c 0,-1.160157 0.820313,-1.6757817 1.464844,-1.6757817 0.691406,0 0.832031,0.3984377 0.832031,1.0781247 v 2.765625 h -0.492187 c -0.164063,0 -0.480469,0 -0.480469,0.339844 0,0.351563 0.316406,0.351563 0.480469,0.351563 h 1.7578122 c 0.1640625,0 0.4804687,0 0.4804687,-0.351563 0,-0.339844 -0.3164062,-0.339844 -0.4804687,-0.339844 H -10.38682 Z m 6.1054684,0.105469 c 0,-0.902344 -0.6796875,-1.8632812 -2.296875,-1.8632812 -0.4921875,0 -1.6523437,0 -1.6523437,0.8320313 0,0.3164059 0.2226562,0.4921879 0.4804687,0.4921879 0.082031,0 0.46875,-0.02344 0.4804688,-0.5156254 0,-0.070312 0.011719,-0.082031 0.2695312,-0.1054688 0.140625,-0.011719 0.2929688,-0.011719 0.4335938,-0.011719 0.28125,0 0.6914062,0 1.078125,0.3046882 0.4335937,0.328125 0.4335937,0.667968 0.4335937,1.019531 -0.703125,0.02344 -1.3945312,0.07031 -2.1445312,0.304687 -0.5976563,0.199219 -1.359375,0.632813 -1.359375,1.441407 0,0.855468 0.75,1.570312 1.8632812,1.570312 0.3867188,0 1.125,-0.05859 1.7460938,-0.492187 0.2460937,0.398437 0.84375,0.421875 1.2890625,0.421875 0.2929687,0 0.5742187,0 0.5742187,-0.351563 0,-0.339844 -0.3046875,-0.339844 -0.4804687,-0.339844 -0.3046875,0 -0.5390625,-0.02344 -0.7148438,-0.09375 z m -0.7734375,1.816406 c 0,0.28125 0,0.527344 -0.4921875,0.761719 -0.421875,0.199219 -0.9726562,0.199219 -1.0195312,0.199219 -0.703125,0 -1.21875,-0.386719 -1.21875,-0.878906 0,-0.703125 1.2890625,-1.101563 2.7304687,-1.101563 z m 4.39453129,4.230469 c 0.1640625,0 0.48046875,0 0.48046875,-0.339844 0,-0.351562 -0.31640625,-0.351562 -0.48046875,-0.351562 H -1.1524453 v -2.554688 c 0.29296874,0.328125 0.72656249,0.667969 1.40624999,0.667969 1.26562501,0 2.37890621,-1.136719 2.37890621,-2.648437 0,-1.476563 -1.0078125,-2.6484379 -2.24999996,-2.6484379 -0.87890625,0 -1.42968754,0.5273437 -1.53515624,0.6445312 0,-0.3867187 0,-0.5742187 -0.4804688,-0.5742187 h -0.7851562 c -0.1640625,0 -0.4804688,0 -0.4804688,0.3515625 0,0.3515625 0.3164063,0.3515625 0.4804688,0.3515625 h 0.4921875 v 6.4101564 h -0.4921875 c -0.1640625,0 -0.4804688,0 -0.4804688,0.351562 0,0.339844 0.3164063,0.339844 0.4804688,0.339844 z M -1.1524453,11.17007 c 0,-0.679687 0.66796874,-1.3593747 1.45312499,-1.3593747 0.85546871,0 1.54687501,0.8789067 1.54687501,1.9570317 0,1.148437 -0.8085938,1.957031 -1.66406251,1.957031 -0.890625,0 -1.33593749,-1.019531 -1.33593749,-1.617188 z m 9.1992187,0.878907 c 0.2578125,0 0.4804688,0 0.4804688,-0.445313 0,-1.394531 -0.7851563,-2.5195312 -2.2851563,-2.5195312 -1.3828125,0 -2.4960937,1.1953122 -2.4960937,2.6601562 0,1.5 1.2070312,2.671875 2.6835937,2.671875 1.5351563,0 2.0976563,-1.066406 2.0976563,-1.371094 0,-0.07031 -0.023437,-0.339843 -0.3984375,-0.339843 -0.2226563,0 -0.2929688,0.08203 -0.3632813,0.269531 -0.3046875,0.691406 -1.078125,0.75 -1.3007812,0.75 -0.9960938,0 -1.78125,-0.75 -1.921875,-1.675781 z m -3.4921875,-0.65625 c 0.1640625,-1.019532 0.9375,-1.6171879 1.6875,-1.6171879 1.1953125,0 1.453125,1.0195309 1.5,1.6171879 z m 9.8671871,-1.21875 c 0.152344,0 0.515625,0 0.515625,-0.3867192 0,-0.3867187 -0.398437,-0.3867187 -0.574218,-0.3867187 h -4.113282 c -0.1875,0 -0.5742183,0 -0.5742183,0.3867187 0,0.3867192 0.3632813,0.3867192 0.5156253,0.3867192 z m -0.05859,1.816406 c 0.175781,0 0.574218,0 0.574218,-0.398438 0,-0.375 -0.375,-0.375 -0.515625,-0.375 h -4.230468 c -0.164063,0 -0.5156253,0 -0.5156253,0.375 0,0.398438 0.3867183,0.398438 0.5742183,0.398438 z m 6.140625,3.035156 c 0,-0.152344 -0.09375,-0.199219 -0.257813,-0.316406 -1.652344,-1.136719 -2.050781,-2.847656 -2.050781,-4.007813 0,-1.1367184 0.375,-2.8593747 2.050781,-4.0195309 0.164063,-0.1171875 0.257813,-0.1640625 0.257813,-0.3164063 0,-0.1289062 -0.07031,-0.3164062 -0.351563,-0.3164062 -0.304687,0 -1.183594,0.6914062 -1.734375,1.4765625 -0.667969,0.9257812 -1.007812,2.0390625 -1.007812,3.1757809 0,1.324219 0.480468,2.4375 0.984375,3.140625 0.550781,0.761719 1.417968,1.5 1.757812,1.5 0.28125,0 0.351563,-0.210937 0.351563,-0.316406 z m 5.144531,-4.324219 c 0,-0.9374997 -0.222656,-2.1445309 -1.089844,-3.3046872 -0.410156,-0.5507812 -1.289062,-1.3476562 -1.652344,-1.3476562 -0.269531,0 -0.339843,0.1992187 -0.339843,0.3164062 0,0.140625 0.08203,0.1992188 0.292968,0.3398438 1.464844,1.03125 2.015625,2.6367187 2.015625,3.9843754 0,1.078125 -0.351562,2.835937 -2.0625,4.019531 -0.152343,0.105469 -0.246093,0.164062 -0.246093,0.316406 0,0.105469 0.07031,0.316406 0.339843,0.316406 0.304688,0 1.183594,-0.691406 1.734375,-1.476562 0.691407,-0.972656 1.007813,-2.097656 1.007813,-3.164063 z m 0,0"
       style="fill:#000000;fill-opacity:1;fill-rule:nonzero;stroke:none"
       aria-label="a&#10;shape=()"
       transform="matrix(1.3333333,0,0,1.3333333,181.228,20.102667)" />
    <path
       id="path4"
       d="m 4.7701172,-2.7668984 h 3.3046875 c 0.1640625,0 0.375,0 0.375,-0.2109375 0,-0.2226563 -0.1992188,-0.2226563 -0.375,-0.2226563 H 4.7701172 v -3.3046875 c 0,-0.1640625 0,-0.3867187 -0.2109375,-0.3867187 -0.234375,0 -0.234375,0.2109375 -0.234375,0.3867187 v 3.3046875 H 1.0318359 c -0.17578121,0 -0.38671871,0 -0.38671871,0.2109375 0,0.2226563 0.19921875,0.2226563 0.38671871,0.2226563 h 3.2929688 v 3.30468746 c 0,0.1640625 0,0.38671875 0.2226562,0.38671875 0.2226563,0 0.2226563,-0.2109375 0.2226563,-0.38671875 z m 0,0"
       style="fill:#000000;fill-opacity:1;fill-rule:nonzero;stroke:none"
       aria-label="+"
       transform="matrix(1.3333333,0,0,1.3333333,264.3,71.294667)" />
    <path
       id="path5"
       d="M -8.50386,51.02417 H 14.17357 V 73.7016 H -8.50386 Z"
       style="fill:none;stroke:#000000;stroke-width:0.3985;stroke-linecap:butt;stroke-linejoin:miter;stroke-miterlimit:10;stroke-dasharray:none;stroke-opacity:1"
       transform="matrix(1.3333333,0,0,-1.3333333,306.27467,150.45867)" />
    <path
       id="path6"
       d="m 5.3557266,-3.8203281 c 0,-0.9960938 -0.058594,-1.96875 -0.4921875,-2.8710938 -0.4921875,-0.9960937 -1.3476563,-1.2539062 -1.9335938,-1.2539062 -0.6914062,0 -1.546875,0.3398437 -1.98046874,1.3359375 -0.33984375,0.75 -0.45703125,1.4882812 -0.45703125,2.7890625 0,1.1601562 0.0820313,2.0273437 0.51562499,2.87109373 0.4570313,0.9140625 1.2890625,1.1953125 1.9101563,1.1953125 1.0429687,0 1.640625,-0.62109375 1.9804687,-1.31250003 0.4335938,-0.890625 0.4570313,-2.0625 0.4570313,-2.7539062 z m -2.4375,3.83203123 c -0.3867188,0 -1.1601563,-0.2109375 -1.3828125,-1.52343753 -0.140625,-0.7148437 -0.140625,-1.6171875 -0.140625,-2.4609375 0,-0.9726562 0,-1.8632812 0.1992187,-2.5664062 0.1992188,-0.796875 0.8085938,-1.171875 1.3242188,-1.171875 0.4570312,0 1.1484375,0.28125 1.3710937,1.3007812 0.1523438,0.6796875 0.1523438,1.6289063 0.1523438,2.4375 0,0.8085938 0,1.7109375 -0.1289063,2.4375 -0.2226562,1.32421878 -0.9726562,1.54687503 -1.3945312,1.54687503 z m 0,0"
       style="fill:#000000;fill-opacity:1;fill-rule:nonzero;stroke:none"
       aria-label="0"
       transform="matrix(1.3333333,0,0,1.3333333,306.152,72.445333)" />
    <path
       id="path7"
       d="M 14.17366,51.02417 H 36.85109 V 73.7016 H 14.17366 Z"
       style="fill:none;stroke:#000000;stroke-width:0.3985;stroke-linecap:butt;stroke-linejoin:miter;stroke-miterlimit:10;stroke-dasharray:none;stroke-opacity:1"
       transform="matrix(1.3333333,0,0,-1.3333333,306.27467,150.45867)" />
    <path
       id="path8"
       d="m 3.4443516,-7.6640781 c 0,-0.2695313 0,-0.28125 -0.2460938,-0.28125 -0.28125,0.3164062 -0.8789062,0.7617187 -2.109375,0.7617187 v 0.3515625 c 0.2695313,0 0.8671875,0 1.5234375,-0.3164062 v 6.22265623 c 0,0.43359375 -0.035156,0.57421875 -1.078125,0.57421875 h -0.375 V -1.5625e-5 c 0.3164063,-0.023437495 1.4765625,-0.023437495 1.875,-0.023437495 0.3984375,0 1.546875,0 1.8632813,0.023437495 V -0.35157812 H 4.5341953 c -1.0546875,0 -1.0898437,-0.140625 -1.0898437,-0.57421875 z m 0,0"
       style="fill:#000000;fill-opacity:1;fill-rule:nonzero;stroke:none"
       aria-label="1"
       transform="matrix(1.3333333,0,0,1.3333333,336.388,72.445333)" />
    <path
       id="path9"
       d="M 36.8512,51.02417 H 59.52863 V 73.7016 H 36.8512 Z"
       style="fill:none;stroke:#000000;stroke-width:0.3985;stroke-linecap:butt;stroke-linejoin:miter;stroke-miterlimit:10;stroke-dasharray:none;stroke-opacity:1"
       transform="matrix(1.3333333,0,0,-1.3333333,306.27467,150.45867)" />
    <path
       id="path10"
       d="M 5.2614688,-2.0039219 H 4.9919375 c -0.035156,0.1992188 -0.1289062,0.8554688 -0.2460937,1.04296878 -0.082031,0.1171875 -0.7617188,0.1171875 -1.125,0.1171875 H 1.406 C 1.734125,-1.1250156 2.4606875,-1.8867344 2.7770938,-2.1797031 c 1.8164062,-1.6640625 2.484375,-2.2851563 2.484375,-3.46875 0,-1.3828125 -1.0898438,-2.296875 -2.4726563,-2.296875 -1.3945312,0 -2.203125,1.1835937 -2.203125,2.203125 0,0.609375 0.5273438,0.609375 0.5625,0.609375 0.2460938,0 0.5625,-0.1757813 0.5625,-0.5625 0,-0.328125 -0.234375,-0.5507813 -0.5625,-0.5507813 -0.1054687,0 -0.1289062,0 -0.1640625,0.011719 0.2226563,-0.8203125 0.8671875,-1.3710938 1.640625,-1.3710938 1.0195313,0 1.640625,0.8554688 1.640625,1.9570313 0,1.0078125 -0.5859375,1.8984375 -1.265625,2.6601562 L 0.5856875,-0.28126562 V -1.5625e-5 h 4.359375 z m 0,0"
       style="fill:#000000;fill-opacity:1;fill-rule:nonzero;stroke:none"
       aria-label="2"
       transform="matrix(1.3333333,0,0,1.3333333,366.62533,72.445333)" />
    <path
       id="path11"
       d="m 1.9205,-6.8092031 c 0,-0.375 -0.070312,-0.4921875 -0.4804687,-0.4921875 H 0.654875 c -0.1640625,0 -0.48046875,0 -0.48046875,0.3398437 0,0.3515625 0.31640625,0.3515625 0.48046875,0.3515625 h 0.4921875 v 6.11718752 c 0,0.22265625 0,0.492187505 0.3984375,0.492187505 0.375,0 0.375,-0.246093755 0.375,-0.597656255 0.2929688,0.328125 0.7265625,0.66796875 1.40625,0.66796875 1.265625,0 2.3789063,-1.13671872 2.3789063,-2.64843752 0,-1.4765625 -1.0078125,-2.6484375 -2.25,-2.6484375 -0.8789063,0 -1.4296875,0.5273438 -1.5351563,0.6445313 z m 0,3.6328125 c 0,-0.6796875 0.6679688,-1.359375 1.453125,-1.359375 0.8554688,0 1.546875,0.8789062 1.546875,1.9570312 0,1.1484375 -0.8085937,1.95703127 -1.6640625,1.95703127 -0.890625,0 -1.3359375,-1.01953127 -1.3359375,-1.61718747 z M -22.668367,9.5413828 c 0,-0.1875 0,-0.4570312 -0.328125,-0.4570312 -0.292969,0 -0.363281,0.28125 -0.363281,0.2929687 -0.480469,-0.2929687 -1.019532,-0.2929687 -1.265625,-0.2929687 -1.945313,0 -2.214844,0.9960934 -2.214844,1.4062504 0,0.480468 0.292969,0.820312 0.703125,1.042968 0.375,0.222657 0.726562,0.28125 1.699219,0.433594 0.46875,0.08203 1.429687,0.234375 1.429687,0.902344 0,0.433594 -0.410156,0.855469 -1.523437,0.855469 -0.761719,0 -1.265625,-0.304688 -1.511719,-1.160157 -0.05859,-0.164062 -0.09375,-0.292968 -0.398438,-0.292968 -0.398437,0 -0.398437,0.222656 -0.398437,0.457031 v 1.230469 c 0,0.199218 0,0.457031 0.339844,0.457031 0.140625,0 0.246093,0 0.433593,-0.492188 0.550782,0.457032 1.171875,0.492188 1.535157,0.492188 2.214843,0 2.214843,-1.429688 2.214843,-1.546875 0,-1.253906 -1.476562,-1.5 -2.050781,-1.582031 -1.054687,-0.175782 -1.769531,-0.304688 -1.769531,-0.796875 0,-0.328125 0.363281,-0.7148442 1.488281,-0.7148442 1.136719,0 1.183594,0.5390622 1.207031,0.8554692 0.02344,0.234375 0.246094,0.269531 0.386719,0.269531 0.386719,0 0.386719,-0.210938 0.386719,-0.457031 z m 6.128906,1.3007812 c 0,-1.1718749 -0.550781,-1.7226562 -1.523437,-1.7226562 -0.820313,0 -1.335938,0.4570313 -1.546875,0.6796875 V 7.5374766 c 0,-0.375 -0.07031,-0.4921875 -0.480469,-0.4921875 h -0.785156 c -0.164063,0 -0.480469,0 -0.480469,0.3398437 0,0.3515625 0.316406,0.3515625 0.480469,0.3515625 h 0.492187 v 5.9179687 h -0.492187 c -0.164063,0 -0.480469,0 -0.480469,0.339844 0,0.351562 0.316406,0.351562 0.480469,0.351562 h 1.757812 c 0.164063,0 0.480469,0 0.480469,-0.351562 0,-0.339844 -0.316406,-0.339844 -0.480469,-0.339844 h -0.492187 v -2.167969 c 0,-1.160156 0.820312,-1.6757809 1.464843,-1.6757809 0.691407,0 0.832032,0.3984379 0.832032,1.0781249 v 2.765625 h -0.492188 c -0.164062,0 -0.480469,0 -0.480469,0.339844 0,0.351562 0.316407,0.351562 0.480469,0.351562 h 1.757813 c 0.164062,0 0.480468,0 0.480468,-0.351562 0,-0.339844 -0.316406,-0.339844 -0.480468,-0.339844 h -0.492188 z m 6.105469,0.105469 c 0,-0.902344 -0.679688,-1.8632814 -2.296875,-1.8632814 -0.492188,0 -1.652344,0 -1.652344,0.8320312 0,0.3164062 0.222656,0.4921872 0.480469,0.4921872 0.08203,0 0.46875,-0.02344 0.480469,-0.5156247 0,-0.070312 0.01172,-0.082031 0.269531,-0.1054687 0.140625,-0.011719 0.292969,-0.011719 0.433594,-0.011719 0.28125,0 0.691406,0 1.078125,0.3046874 0.433593,0.328125 0.433593,0.667969 0.433593,1.019532 -0.703125,0.02344 -1.394531,0.07031 -2.144531,0.304687 -0.597656,0.199219 -1.359375,0.632813 -1.359375,1.441406 0,0.855469 0.75,1.570313 1.863281,1.570313 0.386719,0 1.125,-0.05859 1.746094,-0.492188 0.246094,0.398438 0.84375,0.421875 1.2890626,0.421875 0.2929687,0 0.5742187,0 0.5742187,-0.351562 0,-0.339844 -0.3046875,-0.339844 -0.4804687,-0.339844 -0.3046876,0 -0.5390626,-0.02344 -0.7148436,-0.09375 z m -0.773438,1.816406 c 0,0.28125 0,0.527344 -0.492187,0.761719 -0.421875,0.199219 -0.972656,0.199219 -1.019531,0.199219 -0.703125,0 -1.21875,-0.386719 -1.21875,-0.878907 0,-0.703125 1.289062,-1.101562 2.730468,-1.101562 z m 4.3945316,4.230469 c 0.1640625,0 0.4804687,0 0.4804687,-0.339844 0,-0.351562 -0.3164062,-0.351562 -0.4804687,-0.351562 h -0.4921875 v -2.554688 c 0.2929687,0.328125 0.7265625,0.667969 1.40625,0.667969 1.265625,0 2.3789062,-1.136719 2.3789062,-2.648438 0,-1.476562 -1.0078125,-2.6484372 -2.25,-2.6484372 -0.8789062,0 -1.4296875,0.5273438 -1.5351562,0.6445313 0,-0.3867188 0,-0.5742188 -0.4804688,-0.5742188 h -0.7851562 c -0.1640625,0 -0.4804688,0 -0.4804688,0.3515625 0,0.3515625 0.3164063,0.3515625 0.4804688,0.3515625 h 0.4921875 v 6.4101567 h -0.4921875 c -0.1640625,0 -0.4804688,0 -0.4804688,0.351562 0,0.339844 0.3164063,0.339844 0.4804688,0.339844 z m -0.4921875,-5.824219 c 0,-0.679687 0.6679687,-1.3593749 1.453125,-1.3593749 0.8554687,0 1.546875,0.8789059 1.546875,1.9570309 0,1.148438 -0.8085938,1.957032 -1.6640625,1.957032 -0.890625,0 -1.3359375,-1.019532 -1.3359375,-1.617188 z m 9.1992187,0.878906 c 0.2578125,0 0.4804688,0 0.4804688,-0.445312 0,-1.394531 -0.7851563,-2.5195314 -2.28515629,-2.5195314 -1.38281251,0 -2.49609371,1.1953124 -2.49609371,2.6601564 0,1.5 1.2070312,2.671875 2.68359371,2.671875 1.53515629,0 2.09765629,-1.066406 2.09765629,-1.371094 0,-0.07031 -0.023437,-0.339844 -0.3984375,-0.339844 -0.2226563,0 -0.2929688,0.08203 -0.3632813,0.269532 -0.3046875,0.691406 -1.07812499,0.75 -1.30078124,0.75 -0.99609375,0 -1.78124996,-0.75 -1.92187496,-1.675782 z m -3.4921875,-0.65625 c 0.1640625,-1.019531 0.93750001,-1.6171872 1.68750001,-1.6171872 1.19531249,0 1.45312499,1.0195312 1.49999999,1.6171872 z m 9.8671875,-1.21875 c 0.1523438,0 0.515625,0 0.515625,-0.3867184 0,-0.3867188 -0.3984375,-0.3867188 -0.5742187,-0.3867188 H 4.0972578 c -0.1875,0 -0.5742187,0 -0.5742187,0.3867188 0,0.3867184 0.3632812,0.3867184 0.515625,0.3867184 z m -0.058594,1.816407 c 0.1757812,0 0.5742187,0 0.5742187,-0.398438 0,-0.375 -0.375,-0.375 -0.515625,-0.375 H 4.0386641 c -0.1640625,0 -0.515625,0 -0.515625,0.375 0,0.398438 0.3867187,0.398438 0.5742187,0.398438 z m 6.1406252,3.035156 c 0,-0.152344 -0.09375,-0.199219 -0.257812,-0.316406 -1.652344,-1.136719 -2.050782,-2.847657 -2.050782,-4.007813 0,-1.1367187 0.375,-2.8593749 2.050782,-4.0195312 0.164062,-0.1171875 0.257812,-0.1640625 0.257812,-0.3164062 0,-0.1289063 -0.07031,-0.3164063 -0.351562,-0.3164063 -0.304688,0 -1.183594,0.6914063 -1.734375,1.4765625 -0.667969,0.9257813 -1.007813,2.0390625 -1.007813,3.1757812 0,1.324219 0.480469,2.4375 0.984375,3.140625 0.550781,0.761719 1.417969,1.5 1.757813,1.5 0.28125,0 0.351562,-0.210937 0.351562,-0.316406 z m 4.089844,-4.277344 c 1.242187,0 1.792969,0.867188 1.792969,1.523438 0,0.785156 -0.691407,1.523437 -1.746094,1.523437 -1.195313,0 -1.734375,-0.644531 -1.734375,-0.808594 0,-0.02344 0.01172,-0.04687 0.02344,-0.05859 0.04687,-0.09375 0.08203,-0.1875 0.08203,-0.292969 0,-0.246094 -0.1875,-0.480469 -0.46875,-0.480469 -0.257813,0 -0.492188,0.164063 -0.492188,0.527344 0,1.042969 1.136719,1.804687 2.589844,1.804687 1.511719,0 2.519531,-1.078125 2.519531,-2.203125 0,-0.609375 -0.328125,-1.464843 -1.382812,-1.921875 0.726562,-0.4453122 1.054687,-1.1718747 1.054687,-1.7929684 0,-0.890625 -0.902344,-1.6640625 -2.191406,-1.6640625 -1.324219,0 -2.261719,0.5625 -2.261719,1.453125 0,0.3984375 0.304688,0.515625 0.492188,0.515625 0.222656,0 0.480468,-0.1640625 0.480468,-0.4921875 0,-0.1875 -0.09375,-0.2929688 -0.09375,-0.3164063 0.351563,-0.4453125 1.183594,-0.46875 1.382813,-0.46875 0.820312,0 1.417969,0.421875 1.417969,0.984375 0,0.3515625 -0.234375,1.3476563 -1.488282,1.4296877 -0.445312,0.02344 -0.632812,0.04687 -0.679687,0.04687 -0.234375,0.02344 -0.304688,0.175781 -0.304688,0.339844 0,0.351562 0.257813,0.351562 0.457032,0.351562 z m 6.395508,3.5625 c -0.07031,0.375 -0.304688,0.820313 -0.890625,1.03125 -0.105469,0.02344 -0.28125,0.08203 -0.28125,0.304688 0,0.152343 0.175781,0.363281 0.363281,0.363281 0.328125,0 1.511719,-0.585938 1.511719,-1.875 0,-0.632813 -0.398438,-1.136719 -0.925782,-1.136719 -0.445312,0 -0.679687,0.339844 -0.679687,0.667969 0,0.398437 0.304687,0.679687 0.667969,0.679687 0.07031,0 0.152343,-0.01172 0.234375,-0.03516 z m 6.960937,-3.609375 c 0,-0.9374999 -0.222656,-2.1445312 -1.089844,-3.3046874 -0.410156,-0.5507813 -1.289062,-1.3476563 -1.652343,-1.3476563 -0.269532,0 -0.339844,0.1992188 -0.339844,0.3164063 0,0.140625 0.08203,0.1992187 0.292969,0.3398437 1.464843,1.03125 2.015625,2.6367188 2.015625,3.9843747 0,1.078125 -0.351563,2.835938 -2.0625,4.019532 -0.152344,0.105468 -0.246094,0.164062 -0.246094,0.316406 0,0.105469 0.07031,0.316406 0.339844,0.316406 0.304687,0 1.183593,-0.691406 1.734375,-1.476562 0.691406,-0.972657 1.007812,-2.097657 1.007812,-3.164063 z m 0,0"
       style="fill:#000000;fill-opacity:1;fill-rule:nonzero;stroke:none"
       aria-label="b&#10;shape=(3,)"
       transform="matrix(1.3333333,0,0,1.3333333,336.18933,20.368)" />
    <path
       id="path12"
       d="m 8.0755078,-3.8665625 c 0.1640625,0 0.375,0 0.375,-0.2226562 0,-0.2226563 -0.1992187,-0.2226563 -0.375,-0.2226563 H 1.0325391 c -0.17578129,0 -0.38671879,0 -0.38671879,0.2109375 0,0.234375 0.19921875,0.234375 0.38671879,0.234375 z m 0,2.2148438 c 0.1640625,0 0.375,0 0.375,-0.2109375 0,-0.234375 -0.1992187,-0.234375 -0.375,-0.234375 H 1.0325391 c -0.17578129,0 -0.38671879,0 -0.38671879,0.2226562 0,0.2226563 0.19921875,0.2226563 0.38671879,0.2226563 z m 0,0"
       style="fill:#000000;fill-opacity:1;fill-rule:nonzero;stroke:none"
       aria-label="="
       transform="matrix(1.3333333,0,0,1.3333333,419.26,70.186667)" />
    <path
       id="path13"
       d="m 107.71779,51.02417 h 22.67743 V 73.7016 h -22.67743 z"
       style="fill:none;stroke:#000000;stroke-width:0.3985;stroke-linecap:butt;stroke-linejoin:miter;stroke-miterlimit:10;stroke-dasharray:none;stroke-opacity:1"
       transform="matrix(1.3333333,0,0,-1.3333333,306.27467,150.45867)" />
    <path
       id="path14"
       d="M 5.2626797,-2.0039219 H 4.9931484 c -0.035156,0.1992188 -0.1289062,0.8554688 -0.2460937,1.04296878 -0.082031,0.1171875 -0.7617188,0.1171875 -1.125,0.1171875 H 1.4072109 c 0.328125,-0.28124998 1.0546875,-1.04296878 1.3710938,-1.33593748 1.8164062,-1.6640625 2.484375,-2.2851563 2.484375,-3.46875 0,-1.3828125 -1.0898438,-2.296875 -2.4726563,-2.296875 -1.3945312,0 -2.20312496,1.1835937 -2.20312496,2.203125 0,0.609375 0.52734376,0.609375 0.56249996,0.609375 0.2460938,0 0.5625,-0.1757813 0.5625,-0.5625 0,-0.328125 -0.234375,-0.5507813 -0.5625,-0.5507813 -0.1054687,0 -0.1289062,0 -0.16406246,0.011719 0.22265626,-0.8203125 0.86718746,-1.3710938 1.64062496,-1.3710938 1.0195313,0 1.640625,0.8554688 1.640625,1.9570313 0,1.0078125 -0.5859375,1.8984375 -1.265625,2.6601562 L 0.58689844,-0.28126562 V -1.5625e-5 H 4.9462734 Z m 0,0"
       style="fill:#000000;fill-opacity:1;fill-rule:nonzero;stroke:none"
       aria-label="2"
       transform="matrix(1.3333333,0,0,1.3333333,461.112,72.445333)" />
    <path
       id="path15"
       d="m 130.39532,51.02417 h 22.67743 V 73.7016 h -22.67743 z"
       style="fill:none;stroke:#000000;stroke-width:0.3985;stroke-linecap:butt;stroke-linejoin:miter;stroke-miterlimit:10;stroke-dasharray:none;stroke-opacity:1"
       transform="matrix(1.3333333,0,0,-1.3333333,306.27467,150.45867)" />
    <path
       id="path16"
       d="m 2.2018672,-4.2890781 c -0.2109375,0.011719 -0.2578125,0.023437 -0.2578125,0.1289062 0,0.1171875 0.058594,0.1171875 0.28125,0.1171875 h 0.5507812 c 1.0078125,0 1.4648438,0.84375 1.4648438,1.9921875 0,1.55859378 -0.8085938,1.98046878 -1.3945313,1.98046878 -0.5742187,0 -1.5585937,-0.28125 -1.89843746,-1.06640628 0.37499996,0.058594 0.72656246,-0.1523437 0.72656246,-0.5859375 0,-0.3398437 -0.2578125,-0.5859375 -0.5859375,-0.5859375 -0.29296871,0 -0.59765621,0.1640625 -0.59765621,0.6210938 0,1.06640623 1.06640621,1.93359373 2.39062501,1.93359373 1.4179687,0 2.4726562,-1.078125 2.4726562,-2.28515623 0,-1.1015625 -0.890625,-1.96875 -2.0273437,-2.1679688 1.03125,-0.3046875 1.6992187,-1.171875 1.6992187,-2.109375 0,-0.9375 -0.9726562,-1.6289062 -2.1328125,-1.6289062 -1.1953125,0 -2.08593746,0.7265625 -2.08593746,1.59375 0,0.4804687 0.37499996,0.5742187 0.55078126,0.5742187 0.2578125,0 0.5390625,-0.1757812 0.5390625,-0.5390625 0,-0.375 -0.28125,-0.5390625 -0.5507813,-0.5390625 -0.070312,0 -0.09375,0 -0.1289062,0.011719 0.4570312,-0.8203125 1.5820312,-0.8203125 1.640625,-0.8203125 0.3867187,0 1.171875,0.1757812 1.171875,1.3476562 0,0.234375 -0.035156,0.9023438 -0.3867188,1.4179688 -0.3515625,0.5273437 -0.7617187,0.5625 -1.0898437,0.5742187 z m 0,0"
       style="fill:#000000;fill-opacity:1;fill-rule:nonzero;stroke:none"
       aria-label="3"
       transform="matrix(1.3333333,0,0,1.3333333,491.34933,72.445333)" />
    <path
       id="path17"
       d="m 153.07285,51.02417 h 22.67743 V 73.7016 h -22.67743 z"
       style="fill:none;stroke:#000000;stroke-width:0.3985;stroke-linecap:butt;stroke-linejoin:miter;stroke-miterlimit:10;stroke-dasharray:none;stroke-opacity:1"
       transform="matrix(1.3333333,0,0,-1.3333333,306.27467,150.45867)" />
    <path
       id="path18"
       d="m 4.3129531,-7.7812656 c 0,-0.2226563 0,-0.2929688 -0.1640625,-0.2929688 -0.09375,0 -0.1289062,0 -0.2226562,0.1523438 l -3.59765627,5.578125 v 0.3515625 H 3.4692031 v 1.07812498 c 0,0.4453125 -0.023437,0.5625 -0.9023437,0.5625 H 2.3324844 V -1.5625e-5 c 0.2695312,-0.023437495 1.21875,-0.023437495 1.5585937,-0.023437495 0.328125,0 1.2890625,0 1.5585938,0.023437495 V -0.35157812 h -0.234375 c -0.8671875,0 -0.9023438,-0.1171875 -0.9023438,-0.5625 V -1.9922031 H 5.5199844 V -2.3437656 H 4.3129531 Z m -0.7851562,0.9375 v 4.5 H 0.62154688 Z m 0,0"
       style="fill:#000000;fill-opacity:1;fill-rule:nonzero;stroke:none"
       aria-label="4"
       transform="matrix(1.3333333,0,0,1.3333333,521.58533,72.445333)" />
    <path
       id="path19"
       d="m 5.4485469,-1.3013906 c 0,-0.3164063 -0.2929688,-0.3164063 -0.3984375,-0.3164063 -0.2695313,0 -0.3164063,0.09375 -0.375,0.2695313 -0.2695313,0.65624997 -0.8554688,0.72656247 -1.1367188,0.72656247 -1.0195312,0 -1.875,-0.84374997 -1.875,-1.95703127 0,-0.609375 0.3398438,-1.9921875 1.9101563,-1.9921875 0.328125,0 0.5742187,0.023437 0.6796875,0.035156 0.082031,0.023437 0.09375,0.035156 0.09375,0.1054687 0.035156,0.4804688 0.4101562,0.4921875 0.4804687,0.4921875 0.2695313,0 0.4921875,-0.1757812 0.4921875,-0.4921875 0,-0.8320312 -1.2070312,-0.8320312 -1.734375,-0.8320312 -2.0390625,0 -2.70703122,1.6757812 -2.70703122,2.6835937 0,1.453125 1.11328122,2.64843752 2.55468752,2.64843752 1.59375,0 2.015625,-1.18359372 2.015625,-1.37109342 z M -22.667664,9.5413828 c 0,-0.1875 0,-0.4570312 -0.328125,-0.4570312 -0.292969,0 -0.363281,0.28125 -0.363281,0.2929687 -0.480469,-0.2929687 -1.019532,-0.2929687 -1.265625,-0.2929687 -1.945313,0 -2.214844,0.9960934 -2.214844,1.4062504 0,0.480468 0.292969,0.820312 0.703125,1.042968 0.375,0.222657 0.726562,0.28125 1.699219,0.433594 0.46875,0.08203 1.429687,0.234375 1.429687,0.902344 0,0.433594 -0.410156,0.855469 -1.523437,0.855469 -0.761719,0 -1.265625,-0.304688 -1.511719,-1.160157 -0.05859,-0.164062 -0.09375,-0.292968 -0.398438,-0.292968 -0.398437,0 -0.398437,0.222656 -0.398437,0.457031 v 1.230469 c 0,0.199218 0,0.457031 0.339844,0.457031 0.140625,0 0.246093,0 0.433593,-0.492188 0.550782,0.457032 1.171875,0.492188 1.535157,0.492188 2.214843,0 2.214843,-1.429688 2.214843,-1.546875 0,-1.253906 -1.476562,-1.5 -2.050781,-1.582031 -1.054687,-0.175782 -1.769531,-0.304688 -1.769531,-0.796875 0,-0.328125 0.363281,-0.7148442 1.488281,-0.7148442 1.136719,0 1.183594,0.5390622 1.207031,0.8554692 0.02344,0.234375 0.246094,0.269531 0.386719,0.269531 0.386719,0 0.386719,-0.210938 0.386719,-0.457031 z m 6.128906,1.3007812 c 0,-1.1718749 -0.550781,-1.7226562 -1.523437,-1.7226562 -0.820313,0 -1.335938,0.4570313 -1.546875,0.6796875 V 7.5374766 c 0,-0.375 -0.07031,-0.4921875 -0.480469,-0.4921875 h -0.785156 c -0.164063,0 -0.480469,0 -0.480469,0.3398437 0,0.3515625 0.316406,0.3515625 0.480469,0.3515625 h 0.492187 v 5.9179687 h -0.492187 c -0.164063,0 -0.480469,0 -0.480469,0.339844 0,0.351562 0.316406,0.351562 0.480469,0.351562 h 1.757812 c 0.164063,0 0.480469,0 0.480469,-0.351562 0,-0.339844 -0.316406,-0.339844 -0.480469,-0.339844 h -0.492187 v -2.167969 c 0,-1.160156 0.820312,-1.6757809 1.464843,-1.6757809 0.691407,0 0.832032,0.3984379 0.832032,1.0781249 v 2.765625 h -0.492188 c -0.164062,0 -0.480469,0 -0.480469,0.339844 0,0.351562 0.316407,0.351562 0.480469,0.351562 h 1.757813 c 0.164062,0 0.480468,0 0.480468,-0.351562 0,-0.339844 -0.316406,-0.339844 -0.480468,-0.339844 h -0.492188 z m 6.105469,0.105469 c 0,-0.902344 -0.679688,-1.8632814 -2.296875,-1.8632814 -0.492188,0 -1.652344,0 -1.652344,0.8320312 0,0.3164062 0.222656,0.4921872 0.480469,0.4921872 0.08203,0 0.46875,-0.02344 0.480469,-0.5156247 0,-0.070312 0.01172,-0.082031 0.269531,-0.1054687 0.140625,-0.011719 0.292969,-0.011719 0.433594,-0.011719 0.28125,0 0.691406,0 1.078125,0.3046874 0.433593,0.328125 0.433593,0.667969 0.433593,1.019532 -0.703125,0.02344 -1.394531,0.07031 -2.144531,0.304687 -0.597656,0.199219 -1.359375,0.632813 -1.359375,1.441406 0,0.855469 0.75,1.570313 1.863281,1.570313 0.386719,0 1.125,-0.05859 1.746094,-0.492188 0.246094,0.398438 0.84375,0.421875 1.2890627,0.421875 0.2929687,0 0.5742187,0 0.5742187,-0.351562 0,-0.339844 -0.3046875,-0.339844 -0.4804687,-0.339844 -0.3046877,0 -0.5390627,-0.02344 -0.7148437,-0.09375 z m -0.773438,1.816406 c 0,0.28125 0,0.527344 -0.492187,0.761719 -0.421875,0.199219 -0.972656,0.199219 -1.019531,0.199219 -0.703125,0 -1.21875,-0.386719 -1.21875,-0.878907 0,-0.703125 1.289062,-1.101562 2.730468,-1.101562 z m 4.3945317,4.230469 c 0.1640625,0 0.4804687,0 0.4804687,-0.339844 0,-0.351562 -0.3164062,-0.351562 -0.4804687,-0.351562 h -0.4921875 v -2.554688 c 0.2929687,0.328125 0.7265625,0.667969 1.40625,0.667969 1.265625,0 2.3789062,-1.136719 2.3789062,-2.648438 0,-1.476562 -1.0078125,-2.6484372 -2.25,-2.6484372 -0.8789062,0 -1.4296875,0.5273438 -1.5351562,0.6445313 0,-0.3867188 0,-0.5742188 -0.4804688,-0.5742188 h -0.7851562 c -0.1640625,0 -0.4804688,0 -0.4804688,0.3515625 0,0.3515625 0.3164063,0.3515625 0.4804688,0.3515625 h 0.4921875 v 6.4101567 h -0.4921875 c -0.1640625,0 -0.4804688,0 -0.4804688,0.351562 0,0.339844 0.3164063,0.339844 0.4804688,0.339844 z m -0.4921875,-5.824219 c 0,-0.679687 0.6679687,-1.3593749 1.453125,-1.3593749 0.8554687,0 1.546875,0.8789059 1.546875,1.9570309 0,1.148438 -0.8085938,1.957032 -1.6640625,1.957032 -0.890625,0 -1.3359375,-1.019532 -1.3359375,-1.617188 z m 9.1962891,0.878906 c 0.2578125,0 0.4804687,0 0.4804687,-0.445312 0,-1.394531 -0.7851562,-2.5195314 -2.28515625,-2.5195314 -1.38281245,0 -2.49609375,1.1953124 -2.49609375,2.6601564 0,1.5 1.2070313,2.671875 2.68359375,2.671875 1.53515625,0 2.09765625,-1.066406 2.09765625,-1.371094 0,-0.07031 -0.023437,-0.339844 -0.3984375,-0.339844 -0.2226562,0 -0.2929687,0.08203 -0.3632812,0.269532 -0.3046875,0.691406 -1.07812505,0.75 -1.3007813,0.75 -0.99609375,0 -1.78125,-0.75 -1.921875,-1.675782 z m -3.4921875,-0.65625 c 0.1640625,-1.019531 0.93749995,-1.6171872 1.68749995,-1.6171872 1.19531255,0 1.45312505,1.0195312 1.50000005,1.6171872 z m 9.8671875,-1.21875 c 0.1523437,0 0.515625,0 0.515625,-0.3867184 0,-0.3867188 -0.3984375,-0.3867188 -0.5742188,-0.3867188 H 4.0950313 c -0.1875,0 -0.5742188,0 -0.5742188,0.3867188 0,0.3867184 0.3632813,0.3867184 0.515625,0.3867184 z m -0.058594,1.816407 c 0.1757813,0 0.5742188,0 0.5742188,-0.398438 0,-0.375 -0.375,-0.375 -0.515625,-0.375 H 4.0364375 c -0.1640625,0 -0.515625,0 -0.515625,0.375 0,0.398438 0.3867188,0.398438 0.5742188,0.398438 z m 6.1406257,3.035156 c 0,-0.152344 -0.09375,-0.199219 -0.257813,-0.316406 -1.652344,-1.136719 -2.050781,-2.847657 -2.050781,-4.007813 0,-1.1367187 0.375,-2.8593749 2.050781,-4.0195312 0.164063,-0.1171875 0.257813,-0.1640625 0.257813,-0.3164062 0,-0.1289063 -0.07031,-0.3164063 -0.351563,-0.3164063 -0.304687,0 -1.183594,0.6914063 -1.734375,1.4765625 -0.667969,0.9257813 -1.007812,2.0390625 -1.007812,3.1757812 0,1.324219 0.480468,2.4375 0.984375,3.140625 0.550781,0.761719 1.417968,1.5 1.757812,1.5 0.28125,0 0.351563,-0.210937 0.351563,-0.316406 z m 4.089843,-4.277344 c 1.242188,0 1.792969,0.867188 1.792969,1.523438 0,0.785156 -0.691406,1.523437 -1.746094,1.523437 -1.195312,0 -1.734375,-0.644531 -1.734375,-0.808594 0,-0.02344 0.01172,-0.04687 0.02344,-0.05859 0.04687,-0.09375 0.08203,-0.1875 0.08203,-0.292969 0,-0.246094 -0.1875,-0.480469 -0.46875,-0.480469 -0.257812,0 -0.492187,0.164063 -0.492187,0.527344 0,1.042969 1.136718,1.804687 2.589843,1.804687 1.511719,0 2.519532,-1.078125 2.519532,-2.203125 0,-0.609375 -0.328125,-1.464843 -1.382813,-1.921875 0.726563,-0.4453122 1.054688,-1.1718747 1.054688,-1.7929684 0,-0.890625 -0.902344,-1.6640625 -2.191407,-1.6640625 -1.324218,0 -2.261718,0.5625 -2.261718,1.453125 0,0.3984375 0.304687,0.515625 0.492187,0.515625 0.222656,0 0.480469,-0.1640625 0.480469,-0.4921875 0,-0.1875 -0.09375,-0.2929688 -0.09375,-0.3164063 0.351562,-0.4453125 1.183594,-0.46875 1.382812,-0.46875 0.820313,0 1.417969,0.421875 1.417969,0.984375 0,0.3515625 -0.234375,1.3476563 -1.488281,1.4296877 -0.445313,0.02344 -0.632813,0.04687 -0.679688,0.04687 -0.234375,0.02344 -0.304687,0.175781 -0.304687,0.339844 0,0.351562 0.257812,0.351562 0.457031,0.351562 z m 6.398438,3.5625 c -0.07031,0.375 -0.304688,0.820313 -0.890625,1.03125 -0.105469,0.02344 -0.28125,0.08203 -0.28125,0.304688 0,0.152343 0.175781,0.363281 0.363281,0.363281 0.328125,0 1.511719,-0.585938 1.511719,-1.875 0,-0.632813 -0.398438,-1.136719 -0.925781,-1.136719 -0.445313,0 -0.679688,0.339844 -0.679688,0.667969 0,0.398437 0.304688,0.679687 0.667969,0.679687 0.07031,0 0.152344,-0.01172 0.234375,-0.03516 z m 6.960937,-3.609375 c 0,-0.9374999 -0.222656,-2.1445312 -1.089843,-3.3046874 -0.410157,-0.5507813 -1.289063,-1.3476563 -1.652344,-1.3476563 -0.269531,0 -0.339844,0.1992188 -0.339844,0.3164063 0,0.140625 0.08203,0.1992187 0.292969,0.3398437 1.464844,1.03125 2.015625,2.6367188 2.015625,3.9843747 0,1.078125 -0.351563,2.835938 -2.0625,4.019532 -0.152344,0.105468 -0.246094,0.164062 -0.246094,0.316406 0,0.105469 0.07031,0.316406 0.339844,0.316406 0.304687,0 1.183594,-0.691406 1.734375,-1.476562 0.691406,-0.972657 1.007812,-2.097657 1.007812,-3.164063 z m 0,0"
       style="fill:#000000;fill-opacity:1;fill-rule:nonzero;stroke:none"
       aria-label="c&#10;shape=(3,)"
       transform="matrix(1.3333333,0,0,1.3333333,491.14933,20.368)" />
    <path
       id="path20"
       d="M 5.2612734,-2.0051562 H 4.9917422 C 4.9565859,-1.8059375 4.8628359,-1.1496875 4.7456484,-0.9621875 4.6636172,-0.845 3.9839297,-0.845 3.6206484,-0.845 H 1.4058047 c 0.328125,-0.28125 1.0546875,-1.0429687 1.3710937,-1.3359375 1.8164063,-1.6640625 2.484375,-2.2851562 2.484375,-3.46875 0,-1.3828125 -1.0898437,-2.296875 -2.4726562,-2.296875 -1.3945313,0 -2.20312501,1.1835938 -2.20312501,2.203125 0,0.609375 0.52734371,0.609375 0.56250001,0.609375 0.2460937,0 0.5625,-0.1757812 0.5625,-0.5625 0,-0.328125 -0.234375,-0.5507812 -0.5625,-0.5507812 -0.1054688,0 -0.1289063,0 -0.16406251,0.011719 0.22265621,-0.8203125 0.86718751,-1.3710937 1.64062501,-1.3710937 1.0195312,0 1.640625,0.8554687 1.640625,1.9570312 0,1.0078125 -0.5859375,1.8984375 -1.265625,2.6601563 L 0.58549219,-0.2825 v 0.28125 H 4.9448672 Z m 0,0"
       style="fill:#9f9f9f;fill-opacity:1;fill-rule:nonzero;stroke:none"
       aria-label="2"
       transform="matrix(1.3333333,0,0,1.3333333,151.192,223.62667)" />
    <path
       id="path21"
       d="M 5.2629844,-2.0051562 H 4.9934531 C 4.9582969,-1.8059375 4.8645469,-1.1496875 4.7473594,-0.9621875 4.6653281,-0.845 3.9856406,-0.845 3.6223594,-0.845 H 1.4075156 c 0.328125,-0.28125 1.0546875,-1.0429687 1.3710938,-1.3359375 1.8164062,-1.6640625 2.484375,-2.2851562 2.484375,-3.46875 0,-1.3828125 -1.0898438,-2.296875 -2.4726563,-2.296875 -1.3945312,0 -2.20312497,1.1835938 -2.20312497,2.203125 0,0.609375 0.52734377,0.609375 0.56249997,0.609375 0.2460938,0 0.5625,-0.1757812 0.5625,-0.5625 0,-0.328125 -0.234375,-0.5507812 -0.5625,-0.5507812 -0.1054687,0 -0.1289062,0 -0.16406247,0.011719 0.22265627,-0.8203125 0.86718747,-1.3710937 1.64062497,-1.3710937 1.0195313,0 1.640625,0.8554687 1.640625,1.9570312 0,1.0078125 -0.5859375,1.8984375 -1.265625,2.6601563 L 0.58720313,-0.2825 v 0.28125 H 4.9465781 Z m 0,0"
       style="fill:#9f9f9f;fill-opacity:1;fill-rule:nonzero;stroke:none"
       aria-label="2"
       transform="matrix(1.3333333,0,0,1.3333333,181.428,223.62667)" />
    <path
       id="path22"
       d="M 5.2617656,-2.0051562 H 4.9922344 C 4.9570781,-1.8059375 4.8633281,-1.1496875 4.7461406,-0.9621875 4.6641094,-0.845 3.9844219,-0.845 3.6211406,-0.845 H 1.4062969 c 0.328125,-0.28125 1.0546875,-1.0429687 1.3710937,-1.3359375 1.8164063,-1.6640625 2.484375,-2.2851562 2.484375,-3.46875 0,-1.3828125 -1.0898437,-2.296875 -2.4726562,-2.296875 -1.3945313,0 -2.20312502,1.1835938 -2.20312502,2.203125 0,0.609375 0.52734372,0.609375 0.56250002,0.609375 0.2460937,0 0.5625,-0.1757812 0.5625,-0.5625 0,-0.328125 -0.234375,-0.5507812 -0.5625,-0.5507812 -0.1054688,0 -0.1289063,0 -0.16406252,0.011719 0.22265622,-0.8203125 0.86718752,-1.3710937 1.64062502,-1.3710937 1.0195312,0 1.640625,0.8554687 1.640625,1.9570312 0,1.0078125 -0.5859375,1.8984375 -1.265625,2.6601563 L 0.58598438,-0.2825 v 0.28125 H 4.9453594 Z m 0,0"
       style="fill:#9f9f9f;fill-opacity:1;fill-rule:nonzero;stroke:none"
       aria-label="2"
       transform="matrix(1.3333333,0,0,1.3333333,211.664,223.62667)" />
    <path
       id="path23"
       d="m -124.9252,-39.48636 v -23.07593 h 68.43101 v 23.07593 z"
       style="fill:none;stroke:#000000;stroke-width:0.3985;stroke-linecap:butt;stroke-linejoin:miter;stroke-miterlimit:10;stroke-dasharray:2.83466, 2.83466;stroke-dashoffset:0;stroke-opacity:1"
       transform="matrix(1.3333333,0,0,-1.3333333,306.27467,150.45867)" />
    <path
       id="path24"
       d="M -101.84926,-39.48636 V -62.56229"
       style="fill:none;stroke:#000000;stroke-width:0.3985;stroke-linecap:butt;stroke-linejoin:miter;stroke-miterlimit:10;stroke-dasharray:2.83466, 2.83466;stroke-dashoffset:0;stroke-opacity:1"
       transform="matrix(1.3333333,0,0,-1.3333333,306.27467,150.45867)" />
    <path
       id="path25"
       d="M -79.17172,-39.48636 V -62.56229"
       style="fill:none;stroke:#000000;stroke-width:0.3985;stroke-linecap:butt;stroke-linejoin:miter;stroke-miterlimit:10;stroke-dasharray:2.83466, 2.83466;stroke-dashoffset:0;stroke-opacity:1"
       transform="matrix(1.3333333,0,0,-1.3333333,306.27467,150.45867)" />
    <path
       id="path26"
       d="m -102.04842,-62.36304 h 22.67743 v 22.67743 h -22.67743 z"
       style="fill:#ffffff;fill-opacity:1;fill-rule:nonzero;stroke:#000000;stroke-width:0.3985;stroke-linecap:butt;stroke-linejoin:miter;stroke-miterlimit:10;stroke-dasharray:none;stroke-opacity:1"
       transform="matrix(1.3333333,0,0,-1.3333333,306.27467,150.45867)" />
    <path
       id="path27"
       d="M 5.2629844,-2.0051562 H 4.9934531 C 4.9582969,-1.8059375 4.8645469,-1.1496875 4.7473594,-0.9621875 4.6653281,-0.845 3.9856406,-0.845 3.6223594,-0.845 H 1.4075156 c 0.328125,-0.28125 1.0546875,-1.0429687 1.3710938,-1.3359375 1.8164062,-1.6640625 2.484375,-2.2851562 2.484375,-3.46875 0,-1.3828125 -1.0898438,-2.296875 -2.4726563,-2.296875 -1.3945312,0 -2.20312497,1.1835938 -2.20312497,2.203125 0,0.609375 0.52734377,0.609375 0.56249997,0.609375 0.2460938,0 0.5625,-0.1757812 0.5625,-0.5625 0,-0.328125 -0.234375,-0.5507812 -0.5625,-0.5507812 -0.1054687,0 -0.1289062,0 -0.16406247,0.011719 0.22265627,-0.8203125 0.86718747,-1.3710937 1.64062497,-1.3710937 1.0195313,0 1.640625,0.8554687 1.640625,1.9570312 0,1.0078125 -0.5859375,1.8984375 -1.265625,2.6601563 L 0.58720313,-0.2825 v 0.28125 H 4.9465781 Z m 0,0"
       style="fill:#000000;fill-opacity:1;fill-rule:nonzero;stroke:none"
       aria-label="2"
       transform="matrix(1.3333333,0,0,1.3333333,181.428,223.62667)" />
    <path
       id="path28"
       d="m 4.9442344,-3.3973516 c 0,-0.9023437 -0.6796875,-1.8632812 -2.296875,-1.8632812 -0.4921875,0 -1.65234377,0 -1.65234377,0.8320312 0,0.3164063 0.22265627,0.4921875 0.48046877,0.4921875 0.082031,0 0.46875,-0.023437 0.4804687,-0.515625 0,-0.070312 0.011719,-0.082031 0.2695313,-0.1054687 0.140625,-0.011719 0.2929687,-0.011719 0.4335937,-0.011719 0.28125,0 0.6914063,0 1.078125,0.3046875 0.4335938,0.328125 0.4335938,0.6679688 0.4335938,1.0195313 -0.703125,0.023437 -1.3945313,0.070312 -2.1445313,0.3046875 -0.5976562,0.1992187 -1.35937497,0.6328125 -1.35937497,1.4414062 0,0.85546879 0.74999997,1.57031254 1.86328127,1.57031254 0.3867187,0 1.125,-0.05859375 1.7460937,-0.4921875 0.2460938,0.3984375 0.84375,0.421875 1.2890625,0.421875 0.2929688,0 0.5742188,0 0.5742188,-0.3515625 0,-0.33984375 -0.3046875,-0.33984375 -0.4804688,-0.33984375 -0.3046875,0 -0.5390625,-0.0234375 -0.7148437,-0.09375 z m -0.7734375,1.8164063 c 0,0.28125 0,0.5273437 -0.4921875,0.76171874 -0.421875,0.19921875 -0.9726563,0.19921875 -1.0195313,0.19921875 -0.703125,0 -1.21875,-0.38671879 -1.21875,-0.87890629 0,-0.703125 1.2890625,-1.1015625 2.7304688,-1.1015625 z M -22.66807,9.5401484 c 0,-0.1875 0,-0.4570312 -0.328125,-0.4570312 -0.292969,0 -0.363282,0.28125 -0.363282,0.2929687 -0.480468,-0.2929687 -1.019531,-0.2929687 -1.265625,-0.2929687 -1.945312,0 -2.214843,0.9960938 -2.214843,1.4062498 0,0.480469 0.292968,0.820313 0.703125,1.042969 0.375,0.222656 0.726562,0.28125 1.699218,0.433594 0.46875,0.08203 1.429688,0.234375 1.429688,0.902343 0,0.433594 -0.410156,0.855469 -1.523438,0.855469 -0.761718,0 -1.265625,-0.304687 -1.511718,-1.160156 -0.05859,-0.164063 -0.09375,-0.292969 -0.398438,-0.292969 -0.398437,0 -0.398437,0.222656 -0.398437,0.457031 v 1.230469 c 0,0.199219 0,0.457031 0.339843,0.457031 0.140625,0 0.246094,0 0.433594,-0.492187 0.550781,0.457031 1.171875,0.492187 1.535156,0.492187 2.214844,0 2.214844,-1.429687 2.214844,-1.546875 0,-1.253906 -1.476562,-1.5 -2.050781,-1.582031 -1.054688,-0.175781 -1.769531,-0.304687 -1.769531,-0.796875 0,-0.328125 0.363281,-0.7148436 1.488281,-0.7148436 1.136719,0 1.183594,0.5390626 1.207031,0.8554686 0.02344,0.234375 0.246094,0.269531 0.386719,0.269531 0.386719,0 0.386719,-0.210937 0.386719,-0.457031 z m 6.128906,1.3007816 c 0,-1.1718753 -0.550781,-1.7226566 -1.523438,-1.7226566 -0.820312,0 -1.335937,0.4570313 -1.546875,0.6796875 V 7.5362422 c 0,-0.375 -0.07031,-0.4921875 -0.480468,-0.4921875 h -0.785157 c -0.164062,0 -0.480468,0 -0.480468,0.3398437 0,0.3515625 0.316406,0.3515625 0.480468,0.3515625 h 0.492188 V 13.65343 h -0.492188 c -0.164062,0 -0.480468,0 -0.480468,0.339843 0,0.351563 0.316406,0.351563 0.480468,0.351563 h 1.757813 c 0.164062,0 0.480469,0 0.480469,-0.351563 0,-0.339843 -0.316407,-0.339843 -0.480469,-0.339843 h -0.492188 v -2.167969 c 0,-1.160156 0.820313,-1.6757813 1.464844,-1.6757813 0.691406,0 0.832031,0.3984373 0.832031,1.0781253 v 2.765625 h -0.492187 c -0.164063,0 -0.480469,0 -0.480469,0.339843 0,0.351563 0.316406,0.351563 0.480469,0.351563 h 1.757812 c 0.164063,0 0.480469,0 0.480469,-0.351563 0,-0.339843 -0.316406,-0.339843 -0.480469,-0.339843 h -0.492187 z m 6.105469,0.105468 c 0,-0.902343 -0.679688,-1.8632808 -2.296875,-1.8632808 -0.492188,0 -1.652344,0 -1.652344,0.8320312 0,0.3164066 0.222656,0.4921876 0.480469,0.4921876 0.08203,0 0.46875,-0.02344 0.480468,-0.5156251 0,-0.070312 0.01172,-0.082031 0.269532,-0.1054687 0.140625,-0.011719 0.292968,-0.011719 0.433593,-0.011719 0.28125,0 0.691407,0 1.078125,0.3046878 0.433594,0.328125 0.433594,0.667969 0.433594,1.019531 -0.703125,0.02344 -1.394531,0.07031 -2.144531,0.304688 -0.597656,0.199218 -1.359375,0.632812 -1.359375,1.441406 0,0.855469 0.75,1.570312 1.863281,1.570312 0.386719,0 1.125,-0.05859 1.746094,-0.492187 0.246094,0.398437 0.84375,0.421875 1.2890624,0.421875 0.2929688,0 0.5742188,0 0.5742188,-0.351563 0,-0.339843 -0.3046875,-0.339843 -0.4804688,-0.339843 -0.3046874,0 -0.5390624,-0.02344 -0.7148434,-0.09375 z m -0.773438,1.816407 c 0,0.28125 0,0.527343 -0.492187,0.761718 -0.421875,0.199219 -0.972657,0.199219 -1.019532,0.199219 -0.703125,0 -1.21875,-0.386719 -1.21875,-0.878906 0,-0.703125 1.289063,-1.101563 2.730469,-1.101563 z m 4.3945314,4.230468 c 0.1640625,0 0.4804688,0 0.4804688,-0.339843 0,-0.351563 -0.3164063,-0.351563 -0.4804688,-0.351563 H -7.3047891 V 13.74718 c 0.2929688,0.328125 0.7265625,0.667968 1.40625,0.667968 1.265625,0 2.3789063,-1.136718 2.3789063,-2.648437 0,-1.476563 -1.0078125,-2.6484376 -2.25,-2.6484376 -0.8789063,0 -1.4296875,0.5273438 -1.5351563,0.6445313 0,-0.3867188 0,-0.5742188 -0.4804687,-0.5742188 h -0.7851563 c -0.1640625,0 -0.4804687,0 -0.4804687,0.3515625 0,0.3515625 0.3164062,0.3515625 0.4804687,0.3515625 h 0.4921875 v 6.4101561 h -0.4921875 c -0.1640625,0 -0.4804687,0 -0.4804687,0.351563 0,0.339843 0.3164062,0.339843 0.4804687,0.339843 z m -0.4921875,-5.824218 c 0,-0.679688 0.6679688,-1.3593753 1.453125,-1.3593753 0.8554688,0 1.546875,0.8789063 1.546875,1.9570313 0,1.148437 -0.8085937,1.957031 -1.6640625,1.957031 -0.890625,0 -1.3359375,-1.019531 -1.3359375,-1.617187 z m 9.1992188,0.878906 c 0.2578125,0 0.4804687,0 0.4804687,-0.445313 0,-1.394531 -0.7851562,-2.5195308 -2.28515621,-2.5195308 -1.38281249,0 -2.49609379,1.1953128 -2.49609379,2.6601558 0,1.5 1.2070313,2.671875 2.68359379,2.671875 1.53515621,0 2.09765621,-1.066406 2.09765621,-1.371093 0,-0.07031 -0.023437,-0.339844 -0.3984375,-0.339844 -0.2226562,0 -0.2929687,0.08203 -0.3632812,0.269531 -0.3046875,0.691406 -1.07812501,0.75 -1.30078126,0.75 -0.99609375,0 -1.78125004,-0.75 -1.92187504,-1.675781 z m -3.4921875,-0.65625 c 0.1640625,-1.019531 0.93749999,-1.6171876 1.68749999,-1.6171876 1.19531251,0 1.45312501,1.0195316 1.50000001,1.6171876 z m 9.8671875,-1.21875 c 0.1523437,0 0.515625,0 0.515625,-0.3867188 0,-0.3867188 -0.3984375,-0.3867188 -0.5742188,-0.3867188 H 4.0975547 c -0.1875,0 -0.5742188,0 -0.5742188,0.3867188 0,0.3867188 0.3632813,0.3867188 0.515625,0.3867188 z m -0.058594,1.816406 c 0.1757813,0 0.5742188,0 0.5742188,-0.398437 0,-0.375 -0.375,-0.375 -0.515625,-0.375 H 4.0389609 c -0.1640625,0 -0.515625,0 -0.515625,0.375 0,0.398437 0.3867188,0.398437 0.5742188,0.398437 z m 6.1406253,3.035156 c 0,-0.152343 -0.09375,-0.199218 -0.257813,-0.316406 -1.652343,-1.136719 -2.050781,-2.847656 -2.050781,-4.007812 0,-1.1367191 0.375,-2.8593753 2.050781,-4.0195316 0.164063,-0.1171875 0.257813,-0.1640625 0.257813,-0.3164062 0,-0.1289063 -0.07031,-0.3164063 -0.351563,-0.3164063 -0.304687,0 -1.183593,0.6914063 -1.734375,1.4765625 -0.667968,0.9257813 -1.007812,2.0390625 -1.007812,3.1757816 0,1.324218 0.480469,2.4375 0.984375,3.140625 0.550781,0.761718 1.417969,1.5 1.757812,1.5 0.28125,0 0.351563,-0.210938 0.351563,-0.316407 z m 4.089844,-4.277343 c 1.242187,0 1.792968,0.867187 1.792968,1.523437 0,0.785156 -0.691406,1.523438 -1.746093,1.523438 -1.195313,0 -1.734375,-0.644532 -1.734375,-0.808594 0,-0.02344 0.01172,-0.04687 0.02344,-0.05859 0.04687,-0.09375 0.08203,-0.1875 0.08203,-0.292969 0,-0.246093 -0.1875,-0.480468 -0.46875,-0.480468 -0.257812,0 -0.492187,0.164062 -0.492187,0.527343 0,1.042969 1.136719,1.804688 2.589844,1.804688 1.511718,0 2.519531,-1.078125 2.519531,-2.203125 0,-0.609375 -0.328125,-1.464844 -1.382813,-1.921875 0.726563,-0.4453126 1.054688,-1.1718751 1.054688,-1.7929688 0,-0.890625 -0.902344,-1.6640625 -2.191406,-1.6640625 -1.324219,0 -2.261719,0.5625 -2.261719,1.453125 0,0.3984375 0.304687,0.515625 0.492187,0.515625 0.222657,0 0.480469,-0.1640625 0.480469,-0.4921875 0,-0.1875 -0.09375,-0.2929688 -0.09375,-0.3164063 0.351563,-0.4453125 1.183594,-0.46875 1.382813,-0.46875 0.820312,0 1.417968,0.421875 1.417968,0.984375 0,0.3515625 -0.234375,1.3476563 -1.488281,1.4296871 -0.445312,0.02344 -0.632812,0.04687 -0.679687,0.04687 -0.234375,0.02344 -0.304688,0.175782 -0.304688,0.339844 0,0.351563 0.257813,0.351563 0.457031,0.351563 z m 6.398437,3.5625 c -0.07031,0.375 -0.304687,0.820312 -0.890625,1.03125 -0.105469,0.02344 -0.28125,0.08203 -0.28125,0.304687 0,0.152344 0.175781,0.363281 0.363281,0.363281 0.328125,0 1.511719,-0.585937 1.511719,-1.875 0,-0.632812 -0.398437,-1.136718 -0.925781,-1.136718 -0.445313,0 -0.679688,0.339843 -0.679688,0.667968 0,0.398438 0.304688,0.679688 0.667969,0.679688 0.07031,0 0.152344,-0.01172 0.234375,-0.03516 z m 6.960938,-3.609375 c 0,-0.9375003 -0.222657,-2.1445316 -1.089844,-3.3046878 -0.410156,-0.5507813 -1.289063,-1.3476563 -1.652344,-1.3476563 -0.269531,0 -0.339844,0.1992188 -0.339844,0.3164063 0,0.140625 0.08203,0.1992187 0.292969,0.3398437 1.464844,1.03125 2.015625,2.6367188 2.015625,3.9843751 0,1.078125 -0.351562,2.835937 -2.0625,4.019531 -0.152344,0.105469 -0.246094,0.164063 -0.246094,0.316406 0,0.105469 0.07031,0.316407 0.339844,0.316407 0.304688,0 1.183594,-0.691407 1.734375,-1.476563 0.691406,-0.972656 1.007813,-2.097656 1.007813,-3.164062 z m 0,0"
       style="fill:#000000;fill-opacity:1;fill-rule:nonzero;stroke:none"
       aria-label="a&#10;shape=(3,)"
       transform="matrix(1.3333333,0,0,1.3333333,181.228,171.54933)" />
    <path
       id="path29"
       d="m 4.7701172,-2.7652031 h 3.3046875 c 0.1640625,0 0.375,0 0.375,-0.2109375 0,-0.2226563 -0.1992188,-0.2226563 -0.375,-0.2226563 H 4.7701172 v -3.3046875 c 0,-0.1640625 0,-0.3867187 -0.2109375,-0.3867187 -0.234375,0 -0.234375,0.2109375 -0.234375,0.3867187 v 3.3046875 H 1.0318359 c -0.17578121,0 -0.38671871,0 -0.38671871,0.2109375 0,0.2226563 0.19921875,0.2226563 0.38671871,0.2226563 h 3.2929688 v 3.30468748 c 0,0.1640625 0,0.38671875 0.2226562,0.38671875 0.2226563,0 0.2226563,-0.2109375 0.2226563,-0.38671875 z m 0,0"
       style="fill:#000000;fill-opacity:1;fill-rule:nonzero;stroke:none"
       aria-label="+"
       transform="matrix(1.3333333,0,0,1.3333333,264.3,222.476)" />
    <path
       id="path30"
       d="m -8.50386,-62.36304 h 22.67743 v 22.67743 H -8.50386 Z"
       style="fill:none;stroke:#000000;stroke-width:0.3985;stroke-linecap:butt;stroke-linejoin:miter;stroke-miterlimit:10;stroke-dasharray:none;stroke-opacity:1"
       transform="matrix(1.3333333,0,0,-1.3333333,306.27467,150.45867)" />
    <path
       id="path31"
       d="m 5.3557266,-3.8215625 c 0,-0.9960937 -0.058594,-1.96875 -0.4921875,-2.8710937 C 4.3713516,-7.68875 3.5158828,-7.9465625 2.9299453,-7.9465625 c -0.6914062,0 -1.546875,0.3398438 -1.98046874,1.3359375 -0.33984375,0.75 -0.45703125,1.4882813 -0.45703125,2.7890625 0,1.1601563 0.0820313,2.0273438 0.51562499,2.87109375 0.4570313,0.9140625 1.2890625,1.1953125 1.9101563,1.1953125 1.0429687,0 1.640625,-0.62109375 1.9804687,-1.31249995 0.4335938,-0.890625 0.4570313,-2.0625 0.4570313,-2.7539063 z m -2.4375,3.83203125 c -0.3867188,0 -1.1601563,-0.2109375 -1.3828125,-1.52343745 -0.140625,-0.7148438 -0.140625,-1.6171875 -0.140625,-2.4609375 0,-0.9726563 0,-1.8632813 0.1992187,-2.5664063 0.1992188,-0.796875 0.8085938,-1.171875 1.3242188,-1.171875 0.4570312,0 1.1484375,0.28125 1.3710937,1.3007813 0.1523438,0.6796875 0.1523438,1.6289062 0.1523438,2.4375 0,0.8085937 0,1.7109375 -0.1289063,2.4375 -0.2226562,1.3242187 -0.9726562,1.54687495 -1.3945312,1.54687495 z m 0,0"
       style="fill:#000000;fill-opacity:1;fill-rule:nonzero;stroke:none"
       aria-label="0"
       transform="matrix(1.3333333,0,0,1.3333333,306.152,223.62667)" />
    <path
       id="path32"
       d="m 14.17366,-62.36304 h 22.67743 v 22.67743 H 14.17366 Z"
       style="fill:none;stroke:#000000;stroke-width:0.3985;stroke-linecap:butt;stroke-linejoin:miter;stroke-miterlimit:10;stroke-dasharray:none;stroke-opacity:1"
       transform="matrix(1.3333333,0,0,-1.3333333,306.27467,150.45867)" />
    <path
       id="path33"
       d="m 3.4462813,-7.6653125 c 0,-0.2695312 0,-0.28125 -0.2460938,-0.28125 -0.28125,0.3164063 -0.8789062,0.7617188 -2.109375,0.7617188 v 0.3515625 c 0.2695313,0 0.8671875,0 1.5234375,-0.3164063 v 6.22265625 c 0,0.43359375 -0.035156,0.57421875 -1.078125,0.57421875 h -0.375 V -0.00125 c 0.3164063,-0.0234375 1.4765625,-0.0234375 1.875,-0.0234375 0.3984375,0 1.546875,0 1.8632813,0.0234375 V -0.3528125 H 4.536125 c -1.0546875,0 -1.0898437,-0.140625 -1.0898437,-0.57421875 z m 0,0"
       style="fill:#000000;fill-opacity:1;fill-rule:nonzero;stroke:none"
       aria-label="1"
       transform="matrix(1.3333333,0,0,1.3333333,336.38933,223.62667)" />
    <path
       id="path34"
       d="m 36.8512,-62.36304 h 22.67743 v 22.67743 H 36.8512 Z"
       style="fill:none;stroke:#000000;stroke-width:0.3985;stroke-linecap:butt;stroke-linejoin:miter;stroke-miterlimit:10;stroke-dasharray:none;stroke-opacity:1"
       transform="matrix(1.3333333,0,0,-1.3333333,306.27467,150.45867)" />
    <path
       id="path35"
       d="M 5.2614688,-2.0051562 H 4.9919375 C 4.9567813,-1.8059375 4.8630313,-1.1496875 4.7458438,-0.9621875 4.6638125,-0.845 3.984125,-0.845 3.6208438,-0.845 H 1.406 C 1.734125,-1.12625 2.4606875,-1.8879687 2.7770938,-2.1809375 4.5935,-3.845 5.2614688,-4.4660937 5.2614688,-5.6496875 c 0,-1.3828125 -1.0898438,-2.296875 -2.4726563,-2.296875 -1.3945312,0 -2.203125,1.1835938 -2.203125,2.203125 0,0.609375 0.5273438,0.609375 0.5625,0.609375 0.2460938,0 0.5625,-0.1757812 0.5625,-0.5625 0,-0.328125 -0.234375,-0.5507812 -0.5625,-0.5507812 -0.1054687,0 -0.1289062,0 -0.1640625,0.011719 0.2226563,-0.8203125 0.8671875,-1.3710937 1.640625,-1.3710937 1.0195313,0 1.640625,0.8554687 1.640625,1.9570312 0,1.0078125 -0.5859375,1.8984375 -1.265625,2.6601563 L 0.5856875,-0.2825 v 0.28125 h 4.359375 z m 0,0"
       style="fill:#000000;fill-opacity:1;fill-rule:nonzero;stroke:none"
       aria-label="2"
       transform="matrix(1.3333333,0,0,1.3333333,366.62533,223.62667)" />
    <path
       id="path36"
       d="m 1.9205,-6.8075078 c 0,-0.375 -0.070312,-0.4921875 -0.4804687,-0.4921875 H 0.654875 c -0.1640625,0 -0.48046875,0 -0.48046875,0.3398437 0,0.3515625 0.31640625,0.3515625 0.48046875,0.3515625 h 0.4921875 v 6.11718754 c 0,0.22265625 0,0.4921875 0.3984375,0.4921875 0.375,0 0.375,-0.24609375 0.375,-0.59765625 0.2929688,0.328125 0.7265625,0.66796875 1.40625,0.66796875 1.265625,0 2.3789063,-1.13671874 2.3789063,-2.64843754 0,-1.4765625 -1.0078125,-2.6484375 -2.25,-2.6484375 -0.8789063,0 -1.4296875,0.5273438 -1.5351563,0.6445313 z m 0,3.6328125 c 0,-0.6796875 0.6679688,-1.359375 1.453125,-1.359375 0.8554688,0 1.546875,0.8789062 1.546875,1.9570312 0,1.1484375 -0.8085937,1.95703129 -1.6640625,1.95703129 -0.890625,0 -1.3359375,-1.01953129 -1.3359375,-1.61718749 z M -22.668367,9.5401484 c 0,-0.1875 0,-0.4570312 -0.328125,-0.4570312 -0.292969,0 -0.363281,0.28125 -0.363281,0.2929687 -0.480469,-0.2929687 -1.019532,-0.2929687 -1.265625,-0.2929687 -1.945313,0 -2.214844,0.9960938 -2.214844,1.4062498 0,0.480469 0.292969,0.820313 0.703125,1.042969 0.375,0.222656 0.726562,0.28125 1.699219,0.433594 0.46875,0.08203 1.429687,0.234375 1.429687,0.902343 0,0.433594 -0.410156,0.855469 -1.523437,0.855469 -0.761719,0 -1.265625,-0.304687 -1.511719,-1.160156 -0.05859,-0.164063 -0.09375,-0.292969 -0.398438,-0.292969 -0.398437,0 -0.398437,0.222656 -0.398437,0.457031 v 1.230469 c 0,0.199219 0,0.457031 0.339844,0.457031 0.140625,0 0.246093,0 0.433593,-0.492187 0.550782,0.457031 1.171875,0.492187 1.535157,0.492187 2.214843,0 2.214843,-1.429687 2.214843,-1.546875 0,-1.253906 -1.476562,-1.5 -2.050781,-1.582031 -1.054687,-0.175781 -1.769531,-0.304687 -1.769531,-0.796875 0,-0.328125 0.363281,-0.7148436 1.488281,-0.7148436 1.136719,0 1.183594,0.5390626 1.207031,0.8554686 0.02344,0.234375 0.246094,0.269531 0.386719,0.269531 0.386719,0 0.386719,-0.210937 0.386719,-0.457031 z m 6.128906,1.3007816 c 0,-1.1718753 -0.550781,-1.7226566 -1.523437,-1.7226566 -0.820313,0 -1.335938,0.4570313 -1.546875,0.6796875 V 7.5362422 c 0,-0.375 -0.07031,-0.4921875 -0.480469,-0.4921875 h -0.785156 c -0.164063,0 -0.480469,0 -0.480469,0.3398437 0,0.3515625 0.316406,0.3515625 0.480469,0.3515625 h 0.492187 V 13.65343 h -0.492187 c -0.164063,0 -0.480469,0 -0.480469,0.339843 0,0.351563 0.316406,0.351563 0.480469,0.351563 h 1.757812 c 0.164063,0 0.480469,0 0.480469,-0.351563 0,-0.339843 -0.316406,-0.339843 -0.480469,-0.339843 h -0.492187 v -2.167969 c 0,-1.160156 0.820312,-1.6757813 1.464843,-1.6757813 0.691407,0 0.832032,0.3984373 0.832032,1.0781253 v 2.765625 h -0.492188 c -0.164062,0 -0.480469,0 -0.480469,0.339843 0,0.351563 0.316407,0.351563 0.480469,0.351563 h 1.757813 c 0.164062,0 0.480468,0 0.480468,-0.351563 0,-0.339843 -0.316406,-0.339843 -0.480468,-0.339843 h -0.492188 z m 6.105469,0.105468 c 0,-0.902343 -0.679688,-1.8632808 -2.296875,-1.8632808 -0.492188,0 -1.652344,0 -1.652344,0.8320312 0,0.3164066 0.222656,0.4921876 0.480469,0.4921876 0.08203,0 0.46875,-0.02344 0.480469,-0.5156251 0,-0.070312 0.01172,-0.082031 0.269531,-0.1054687 0.140625,-0.011719 0.292969,-0.011719 0.433594,-0.011719 0.28125,0 0.691406,0 1.078125,0.3046878 0.433593,0.328125 0.433593,0.667969 0.433593,1.019531 -0.703125,0.02344 -1.394531,0.07031 -2.144531,0.304688 -0.597656,0.199218 -1.359375,0.632812 -1.359375,1.441406 0,0.855469 0.75,1.570312 1.863281,1.570312 0.386719,0 1.125,-0.05859 1.746094,-0.492187 0.246094,0.398437 0.84375,0.421875 1.2890626,0.421875 0.2929687,0 0.5742187,0 0.5742187,-0.351563 0,-0.339843 -0.3046875,-0.339843 -0.4804687,-0.339843 -0.3046876,0 -0.5390626,-0.02344 -0.7148436,-0.09375 z m -0.773438,1.816407 c 0,0.28125 0,0.527343 -0.492187,0.761718 -0.421875,0.199219 -0.972656,0.199219 -1.019531,0.199219 -0.703125,0 -1.21875,-0.386719 -1.21875,-0.878906 0,-0.703125 1.289062,-1.101563 2.730468,-1.101563 z m 4.3945316,4.230468 c 0.1640625,0 0.4804687,0 0.4804687,-0.339843 0,-0.351563 -0.3164062,-0.351563 -0.4804687,-0.351563 H -7.3050859 V 13.74718 c 0.2929687,0.328125 0.7265625,0.667968 1.40625,0.667968 1.265625,0 2.3789062,-1.136718 2.3789062,-2.648437 0,-1.476563 -1.0078125,-2.6484376 -2.25,-2.6484376 -0.8789062,0 -1.4296875,0.5273438 -1.5351562,0.6445313 0,-0.3867188 0,-0.5742188 -0.4804688,-0.5742188 h -0.7851562 c -0.1640625,0 -0.4804688,0 -0.4804688,0.3515625 0,0.3515625 0.3164063,0.3515625 0.4804688,0.3515625 h 0.4921875 v 6.4101561 h -0.4921875 c -0.1640625,0 -0.4804688,0 -0.4804688,0.351563 0,0.339843 0.3164063,0.339843 0.4804688,0.339843 z m -0.4921875,-5.824218 c 0,-0.679688 0.6679687,-1.3593753 1.453125,-1.3593753 0.8554687,0 1.546875,0.8789063 1.546875,1.9570313 0,1.148437 -0.8085938,1.957031 -1.6640625,1.957031 -0.890625,0 -1.3359375,-1.019531 -1.3359375,-1.617187 z m 9.1992187,0.878906 c 0.2578125,0 0.4804688,0 0.4804688,-0.445313 0,-1.394531 -0.7851563,-2.5195308 -2.28515629,-2.5195308 -1.38281251,0 -2.49609371,1.1953128 -2.49609371,2.6601558 0,1.5 1.2070312,2.671875 2.68359371,2.671875 1.53515629,0 2.09765629,-1.066406 2.09765629,-1.371093 0,-0.07031 -0.023437,-0.339844 -0.3984375,-0.339844 -0.2226563,0 -0.2929688,0.08203 -0.3632813,0.269531 -0.3046875,0.691406 -1.07812499,0.75 -1.30078124,0.75 -0.99609375,0 -1.78124996,-0.75 -1.92187496,-1.675781 z m -3.4921875,-0.65625 c 0.1640625,-1.019531 0.93750001,-1.6171876 1.68750001,-1.6171876 1.19531249,0 1.45312499,1.0195316 1.49999999,1.6171876 z m 9.8671875,-1.21875 c 0.1523438,0 0.515625,0 0.515625,-0.3867188 0,-0.3867188 -0.3984375,-0.3867188 -0.5742187,-0.3867188 H 4.0972578 c -0.1875,0 -0.5742187,0 -0.5742187,0.3867188 0,0.3867188 0.3632812,0.3867188 0.515625,0.3867188 z m -0.058594,1.816406 c 0.1757812,0 0.5742187,0 0.5742187,-0.398437 0,-0.375 -0.375,-0.375 -0.515625,-0.375 H 4.0386641 c -0.1640625,0 -0.515625,0 -0.515625,0.375 0,0.398437 0.3867187,0.398437 0.5742187,0.398437 z m 6.1406252,3.035156 c 0,-0.152343 -0.09375,-0.199218 -0.257812,-0.316406 -1.652344,-1.136719 -2.050782,-2.847656 -2.050782,-4.007812 0,-1.1367191 0.375,-2.8593753 2.050782,-4.0195316 0.164062,-0.1171875 0.257812,-0.1640625 0.257812,-0.3164062 0,-0.1289063 -0.07031,-0.3164063 -0.351562,-0.3164063 -0.304688,0 -1.183594,0.6914063 -1.734375,1.4765625 -0.667969,0.9257813 -1.007813,2.0390625 -1.007813,3.1757816 0,1.324218 0.480469,2.4375 0.984375,3.140625 0.550781,0.761718 1.417969,1.5 1.757813,1.5 0.28125,0 0.351562,-0.210938 0.351562,-0.316407 z m 4.089844,-4.277343 c 1.242187,0 1.792969,0.867187 1.792969,1.523437 0,0.785156 -0.691407,1.523438 -1.746094,1.523438 -1.195313,0 -1.734375,-0.644532 -1.734375,-0.808594 0,-0.02344 0.01172,-0.04687 0.02344,-0.05859 0.04687,-0.09375 0.08203,-0.1875 0.08203,-0.292969 0,-0.246093 -0.1875,-0.480468 -0.46875,-0.480468 -0.257813,0 -0.492188,0.164062 -0.492188,0.527343 0,1.042969 1.136719,1.804688 2.589844,1.804688 1.511719,0 2.519531,-1.078125 2.519531,-2.203125 0,-0.609375 -0.328125,-1.464844 -1.382812,-1.921875 0.726562,-0.4453126 1.054687,-1.1718751 1.054687,-1.7929688 0,-0.890625 -0.902344,-1.6640625 -2.191406,-1.6640625 -1.324219,0 -2.261719,0.5625 -2.261719,1.453125 0,0.3984375 0.304688,0.515625 0.492188,0.515625 0.222656,0 0.480468,-0.1640625 0.480468,-0.4921875 0,-0.1875 -0.09375,-0.2929688 -0.09375,-0.3164063 0.351563,-0.4453125 1.183594,-0.46875 1.382813,-0.46875 0.820312,0 1.417969,0.421875 1.417969,0.984375 0,0.3515625 -0.234375,1.3476563 -1.488282,1.4296871 -0.445312,0.02344 -0.632812,0.04687 -0.679687,0.04687 -0.234375,0.02344 -0.304688,0.175782 -0.304688,0.339844 0,0.351563 0.257813,0.351563 0.457032,0.351563 z m 6.395508,3.5625 c -0.07031,0.375 -0.304688,0.820312 -0.890625,1.03125 -0.105469,0.02344 -0.28125,0.08203 -0.28125,0.304687 0,0.152344 0.175781,0.363281 0.363281,0.363281 0.328125,0 1.511719,-0.585937 1.511719,-1.875 0,-0.632812 -0.398438,-1.136718 -0.925782,-1.136718 -0.445312,0 -0.679687,0.339843 -0.679687,0.667968 0,0.398438 0.304687,0.679688 0.667969,0.679688 0.07031,0 0.152343,-0.01172 0.234375,-0.03516 z m 6.960937,-3.609375 c 0,-0.9375003 -0.222656,-2.1445316 -1.089844,-3.3046878 -0.410156,-0.5507813 -1.289062,-1.3476563 -1.652343,-1.3476563 -0.269532,0 -0.339844,0.1992188 -0.339844,0.3164063 0,0.140625 0.08203,0.1992187 0.292969,0.3398437 1.464843,1.03125 2.015625,2.6367188 2.015625,3.9843751 0,1.078125 -0.351563,2.835937 -2.0625,4.019531 -0.152344,0.105469 -0.246094,0.164063 -0.246094,0.316406 0,0.105469 0.07031,0.316407 0.339844,0.316407 0.304687,0 1.183593,-0.691407 1.734375,-1.476563 0.691406,-0.972656 1.007812,-2.097656 1.007812,-3.164062 z m 0,0"
       style="fill:#000000;fill-opacity:1;fill-rule:nonzero;stroke:none"
       aria-label="b&#10;shape=(3,)"
       transform="matrix(1.3333333,0,0,1.3333333,336.18933,171.54933)" />
    <path
       id="path37"
       d="m 8.0755078,-3.8667969 c 0.1640625,0 0.375,0 0.375,-0.2226562 0,-0.2226563 -0.1992187,-0.2226563 -0.375,-0.2226563 H 1.0325391 c -0.17578129,0 -0.38671879,0 -0.38671879,0.2109375 0,0.234375 0.19921875,0.234375 0.38671879,0.234375 z m 0,2.2148438 c 0.1640625,0 0.375,0 0.375,-0.2109375 0,-0.234375 -0.1992187,-0.234375 -0.375,-0.234375 H 1.0325391 c -0.17578129,0 -0.38671879,0 -0.38671879,0.2226562 0,0.2226563 0.19921875,0.2226563 0.38671879,0.2226563 z m 0,0"
       style="fill:#000000;fill-opacity:1;fill-rule:nonzero;stroke:none"
       aria-label="="
       transform="matrix(1.3333333,0,0,1.3333333,419.26,221.36667)" />
    <path
       id="path38"
       d="m 107.71779,-62.36304 h 22.67743 v 22.67743 h -22.67743 z"
       style="fill:none;stroke:#000000;stroke-width:0.3985;stroke-linecap:butt;stroke-linejoin:miter;stroke-miterlimit:10;stroke-dasharray:none;stroke-opacity:1"
       transform="matrix(1.3333333,0,0,-1.3333333,306.27467,150.45867)" />
    <path
       id="path39"
       d="M 5.2626797,-2.0051562 H 4.9931484 C 4.9579922,-1.8059375 4.8642422,-1.1496875 4.7470547,-0.9621875 4.6650234,-0.845 3.9853359,-0.845 3.6220547,-0.845 H 1.4072109 c 0.328125,-0.28125 1.0546875,-1.0429687 1.3710938,-1.3359375 1.8164062,-1.6640625 2.484375,-2.2851562 2.484375,-3.46875 0,-1.3828125 -1.0898438,-2.296875 -2.4726563,-2.296875 -1.3945312,0 -2.20312496,1.1835938 -2.20312496,2.203125 0,0.609375 0.52734376,0.609375 0.56249996,0.609375 0.2460938,0 0.5625,-0.1757812 0.5625,-0.5625 0,-0.328125 -0.234375,-0.5507812 -0.5625,-0.5507812 -0.1054687,0 -0.1289062,0 -0.16406246,0.011719 0.22265626,-0.8203125 0.86718746,-1.3710937 1.64062496,-1.3710937 1.0195313,0 1.640625,0.8554687 1.640625,1.9570312 0,1.0078125 -0.5859375,1.8984375 -1.265625,2.6601563 L 0.58689844,-0.2825 v 0.28125 H 4.9462734 Z m 0,0"
       style="fill:#000000;fill-opacity:1;fill-rule:nonzero;stroke:none"
       aria-label="2"
       transform="matrix(1.3333333,0,0,1.3333333,461.112,223.62667)" />
    <path
       id="path40"
       d="m 130.39532,-62.36304 h 22.67743 v 22.67743 h -22.67743 z"
       style="fill:none;stroke:#000000;stroke-width:0.3985;stroke-linecap:butt;stroke-linejoin:miter;stroke-miterlimit:10;stroke-dasharray:none;stroke-opacity:1"
       transform="matrix(1.3333333,0,0,-1.3333333,306.27467,150.45867)" />
    <path
       id="path41"
       d="m 2.2018672,-4.2903125 c -0.2109375,0.011719 -0.2578125,0.023437 -0.2578125,0.1289063 0,0.1171875 0.058594,0.1171875 0.28125,0.1171875 h 0.5507812 c 1.0078125,0 1.4648438,0.84375 1.4648438,1.9921875 0,1.5585937 -0.8085938,1.9804687 -1.3945313,1.9804687 -0.5742187,0 -1.5585937,-0.28125 -1.89843746,-1.0664062 0.37499996,0.058594 0.72656246,-0.1523438 0.72656246,-0.5859375 0,-0.3398438 -0.2578125,-0.5859375 -0.5859375,-0.5859375 -0.29296871,0 -0.59765621,0.1640625 -0.59765621,0.6210937 0,1.06640625 1.06640621,1.93359375 2.39062501,1.93359375 1.4179687,0 2.4726562,-1.078125 2.4726562,-2.28515625 0,-1.1015625 -0.890625,-1.96875 -2.0273437,-2.1679687 1.03125,-0.3046875 1.6992187,-1.171875 1.6992187,-2.109375 0,-0.9375 -0.9726562,-1.6289063 -2.1328125,-1.6289063 -1.1953125,0 -2.08593746,0.7265625 -2.08593746,1.59375 0,0.4804688 0.37499996,0.5742188 0.55078126,0.5742188 0.2578125,0 0.5390625,-0.1757813 0.5390625,-0.5390625 0,-0.375 -0.28125,-0.5390625 -0.5507813,-0.5390625 -0.070312,0 -0.09375,0 -0.1289062,0.011719 0.4570312,-0.8203125 1.5820312,-0.8203125 1.640625,-0.8203125 0.3867187,0 1.171875,0.1757813 1.171875,1.3476563 0,0.234375 -0.035156,0.9023437 -0.3867188,1.4179687 -0.3515625,0.5273438 -0.7617187,0.5625 -1.0898437,0.5742188 z m 0,0"
       style="fill:#000000;fill-opacity:1;fill-rule:nonzero;stroke:none"
       aria-label="3"
       transform="matrix(1.3333333,0,0,1.3333333,491.34933,223.62667)" />
    <path
       id="path42"
       d="m 153.07285,-62.36304 h 22.67743 v 22.67743 h -22.67743 z"
       style="fill:none;stroke:#000000;stroke-width:0.3985;stroke-linecap:butt;stroke-linejoin:miter;stroke-miterlimit:10;stroke-dasharray:none;stroke-opacity:1"
       transform="matrix(1.3333333,0,0,-1.3333333,306.27467,150.45867)" />
    <path
       id="path43"
       d="m 4.3129531,-7.7825 c 0,-0.2226562 0,-0.2929687 -0.1640625,-0.2929687 -0.09375,0 -0.1289062,0 -0.2226562,0.1523437 L 0.32857813,-2.345 v 0.3515625 H 3.4692031 v 1.078125 c 0,0.4453125 -0.023437,0.5625 -0.9023437,0.5625 H 2.3324844 V -0.00125 c 0.2695312,-0.0234375 1.21875,-0.0234375 1.5585937,-0.0234375 0.328125,0 1.2890625,0 1.5585938,0.0234375 v -0.3515625 h -0.234375 c -0.8671875,0 -0.9023438,-0.1171875 -0.9023438,-0.5625 v -1.078125 H 5.5199844 V -2.345 H 4.3129531 Z M 3.5277969,-6.845 v 4.5 H 0.62154688 Z m 0,0"
       style="fill:#000000;fill-opacity:1;fill-rule:nonzero;stroke:none"
       aria-label="4"
       transform="matrix(1.3333333,0,0,1.3333333,521.58533,223.62667)" />
    <path
       id="path44"
       d="m 5.4485469,-1.2996953 c 0,-0.3164063 -0.2929688,-0.3164063 -0.3984375,-0.3164063 -0.2695313,0 -0.3164063,0.09375 -0.375,0.2695313 -0.2695313,0.65624999 -0.8554688,0.72656249 -1.1367188,0.72656249 -1.0195312,0 -1.875,-0.84374999 -1.875,-1.95703129 0,-0.609375 0.3398438,-1.9921875 1.9101563,-1.9921875 0.328125,0 0.5742187,0.023437 0.6796875,0.035156 0.082031,0.023437 0.09375,0.035156 0.09375,0.1054687 0.035156,0.4804688 0.4101562,0.4921875 0.4804687,0.4921875 0.2695313,0 0.4921875,-0.1757812 0.4921875,-0.4921875 0,-0.8320312 -1.2070312,-0.8320312 -1.734375,-0.8320312 -2.0390625,0 -2.70703122,1.6757812 -2.70703122,2.6835937 0,1.453125 1.11328122,2.64843754 2.55468752,2.64843754 1.59375,0 2.015625,-1.18359374 2.015625,-1.37109344 z M -22.667664,9.5401484 c 0,-0.1875 0,-0.4570312 -0.328125,-0.4570312 -0.292969,0 -0.363281,0.28125 -0.363281,0.2929687 -0.480469,-0.2929687 -1.019532,-0.2929687 -1.265625,-0.2929687 -1.945313,0 -2.214844,0.9960938 -2.214844,1.4062498 0,0.480469 0.292969,0.820313 0.703125,1.042969 0.375,0.222656 0.726562,0.28125 1.699219,0.433594 0.46875,0.08203 1.429687,0.234375 1.429687,0.902343 0,0.433594 -0.410156,0.855469 -1.523437,0.855469 -0.761719,0 -1.265625,-0.304687 -1.511719,-1.160156 -0.05859,-0.164063 -0.09375,-0.292969 -0.398438,-0.292969 -0.398437,0 -0.398437,0.222656 -0.398437,0.457031 v 1.230469 c 0,0.199219 0,0.457031 0.339844,0.457031 0.140625,0 0.246093,0 0.433593,-0.492187 0.550782,0.457031 1.171875,0.492187 1.535157,0.492187 2.214843,0 2.214843,-1.429687 2.214843,-1.546875 0,-1.253906 -1.476562,-1.5 -2.050781,-1.582031 -1.054687,-0.175781 -1.769531,-0.304687 -1.769531,-0.796875 0,-0.328125 0.363281,-0.7148436 1.488281,-0.7148436 1.136719,0 1.183594,0.5390626 1.207031,0.8554686 0.02344,0.234375 0.246094,0.269531 0.386719,0.269531 0.386719,0 0.386719,-0.210937 0.386719,-0.457031 z m 6.128906,1.3007816 c 0,-1.1718753 -0.550781,-1.7226566 -1.523437,-1.7226566 -0.820313,0 -1.335938,0.4570313 -1.546875,0.6796875 V 7.5362422 c 0,-0.375 -0.07031,-0.4921875 -0.480469,-0.4921875 h -0.785156 c -0.164063,0 -0.480469,0 -0.480469,0.3398437 0,0.3515625 0.316406,0.3515625 0.480469,0.3515625 h 0.492187 V 13.65343 h -0.492187 c -0.164063,0 -0.480469,0 -0.480469,0.339843 0,0.351563 0.316406,0.351563 0.480469,0.351563 h 1.757812 c 0.164063,0 0.480469,0 0.480469,-0.351563 0,-0.339843 -0.316406,-0.339843 -0.480469,-0.339843 h -0.492187 v -2.167969 c 0,-1.160156 0.820312,-1.6757813 1.464843,-1.6757813 0.691407,0 0.832032,0.3984373 0.832032,1.0781253 v 2.765625 h -0.492188 c -0.164062,0 -0.480469,0 -0.480469,0.339843 0,0.351563 0.316407,0.351563 0.480469,0.351563 h 1.757813 c 0.164062,0 0.480468,0 0.480468,-0.351563 0,-0.339843 -0.316406,-0.339843 -0.480468,-0.339843 h -0.492188 z m 6.105469,0.105468 c 0,-0.902343 -0.679688,-1.8632808 -2.296875,-1.8632808 -0.492188,0 -1.652344,0 -1.652344,0.8320312 0,0.3164066 0.222656,0.4921876 0.480469,0.4921876 0.08203,0 0.46875,-0.02344 0.480469,-0.5156251 0,-0.070312 0.01172,-0.082031 0.269531,-0.1054687 0.140625,-0.011719 0.292969,-0.011719 0.433594,-0.011719 0.28125,0 0.691406,0 1.078125,0.3046878 0.433593,0.328125 0.433593,0.667969 0.433593,1.019531 -0.703125,0.02344 -1.394531,0.07031 -2.144531,0.304688 -0.597656,0.199218 -1.359375,0.632812 -1.359375,1.441406 0,0.855469 0.75,1.570312 1.863281,1.570312 0.386719,0 1.125,-0.05859 1.746094,-0.492187 0.246094,0.398437 0.84375,0.421875 1.2890627,0.421875 0.2929687,0 0.5742187,0 0.5742187,-0.351563 0,-0.339843 -0.3046875,-0.339843 -0.4804687,-0.339843 -0.3046877,0 -0.5390627,-0.02344 -0.7148437,-0.09375 z m -0.773438,1.816407 c 0,0.28125 0,0.527343 -0.492187,0.761718 -0.421875,0.199219 -0.972656,0.199219 -1.019531,0.199219 -0.703125,0 -1.21875,-0.386719 -1.21875,-0.878906 0,-0.703125 1.289062,-1.101563 2.730468,-1.101563 z m 4.3945317,4.230468 c 0.1640625,0 0.4804687,0 0.4804687,-0.339843 0,-0.351563 -0.3164062,-0.351563 -0.4804687,-0.351563 H -7.3043828 V 13.74718 c 0.2929687,0.328125 0.7265625,0.667968 1.40625,0.667968 1.265625,0 2.3789062,-1.136718 2.3789062,-2.648437 0,-1.476563 -1.0078125,-2.6484376 -2.25,-2.6484376 -0.8789062,0 -1.4296875,0.5273438 -1.5351562,0.6445313 0,-0.3867188 0,-0.5742188 -0.4804688,-0.5742188 h -0.7851562 c -0.1640625,0 -0.4804688,0 -0.4804688,0.3515625 0,0.3515625 0.3164063,0.3515625 0.4804688,0.3515625 h 0.4921875 v 6.4101561 h -0.4921875 c -0.1640625,0 -0.4804688,0 -0.4804688,0.351563 0,0.339843 0.3164063,0.339843 0.4804688,0.339843 z m -0.4921875,-5.824218 c 0,-0.679688 0.6679687,-1.3593753 1.453125,-1.3593753 0.8554687,0 1.546875,0.8789063 1.546875,1.9570313 0,1.148437 -0.8085938,1.957031 -1.6640625,1.957031 -0.890625,0 -1.3359375,-1.019531 -1.3359375,-1.617187 z m 9.1992187,0.878906 c 0.2578125,0 0.4804688,0 0.4804688,-0.445313 0,-1.394531 -0.7851563,-2.5195308 -2.28515626,-2.5195308 -1.38281254,0 -2.49609374,1.1953128 -2.49609374,2.6601558 0,1.5 1.2070312,2.671875 2.68359374,2.671875 1.53515626,0 2.09765626,-1.066406 2.09765626,-1.371093 0,-0.07031 -0.023437,-0.339844 -0.3984375,-0.339844 -0.2226563,0 -0.2929688,0.08203 -0.3632813,0.269531 -0.3046875,0.691406 -1.07812496,0.75 -1.30078121,0.75 -0.99609375,0 -1.78124999,-0.75 -1.92187499,-1.675781 z m -3.4921875,-0.65625 c 0.1640625,-1.019531 0.93750004,-1.6171876 1.68750004,-1.6171876 1.19531246,0 1.45312496,1.0195316 1.49999996,1.6171876 z m 9.8671875,-1.21875 c 0.1523438,0 0.515625,0 0.515625,-0.3867188 0,-0.3867188 -0.3984375,-0.3867188 -0.5742187,-0.3867188 H 4.0979609 c -0.1875,0 -0.5742187,0 -0.5742187,0.3867188 0,0.3867188 0.3632812,0.3867188 0.515625,0.3867188 z m -0.058594,1.816406 c 0.1757812,0 0.5742187,0 0.5742187,-0.398437 0,-0.375 -0.375,-0.375 -0.515625,-0.375 H 4.0393672 c -0.1640625,0 -0.515625,0 -0.515625,0.375 0,0.398437 0.3867187,0.398437 0.5742187,0.398437 z m 6.1406251,3.035156 c 0,-0.152343 -0.09375,-0.199218 -0.257812,-0.316406 -1.652344,-1.136719 -2.050782,-2.847656 -2.050782,-4.007812 0,-1.1367191 0.375,-2.8593753 2.050782,-4.0195316 0.164062,-0.1171875 0.257812,-0.1640625 0.257812,-0.3164062 0,-0.1289063 -0.07031,-0.3164063 -0.351562,-0.3164063 -0.304688,0 -1.183594,0.6914063 -1.734375,1.4765625 -0.667969,0.9257813 -1.007813,2.0390625 -1.007813,3.1757816 0,1.324218 0.480469,2.4375 0.984375,3.140625 0.550781,0.761718 1.417969,1.5 1.757813,1.5 0.28125,0 0.351562,-0.210938 0.351562,-0.316407 z m 4.089844,-4.277343 c 1.242187,0 1.792969,0.867187 1.792969,1.523437 0,0.785156 -0.691407,1.523438 -1.746094,1.523438 -1.195313,0 -1.734375,-0.644532 -1.734375,-0.808594 0,-0.02344 0.01172,-0.04687 0.02344,-0.05859 0.04687,-0.09375 0.08203,-0.1875 0.08203,-0.292969 0,-0.246093 -0.1875,-0.480468 -0.46875,-0.480468 -0.257813,0 -0.492188,0.164062 -0.492188,0.527343 0,1.042969 1.136719,1.804688 2.589844,1.804688 1.511719,0 2.519531,-1.078125 2.519531,-2.203125 0,-0.609375 -0.328125,-1.464844 -1.382812,-1.921875 0.726562,-0.4453126 1.054687,-1.1718751 1.054687,-1.7929688 0,-0.890625 -0.902344,-1.6640625 -2.191406,-1.6640625 -1.324219,0 -2.261719,0.5625 -2.261719,1.453125 0,0.3984375 0.304688,0.515625 0.492188,0.515625 0.222656,0 0.480468,-0.1640625 0.480468,-0.4921875 0,-0.1875 -0.09375,-0.2929688 -0.09375,-0.3164063 0.351563,-0.4453125 1.183594,-0.46875 1.382813,-0.46875 0.820312,0 1.417969,0.421875 1.417969,0.984375 0,0.3515625 -0.234375,1.3476563 -1.488282,1.4296871 -0.445312,0.02344 -0.632812,0.04687 -0.679687,0.04687 -0.234375,0.02344 -0.304688,0.175782 -0.304688,0.339844 0,0.351563 0.257813,0.351563 0.457032,0.351563 z m 6.398437,3.5625 c -0.07031,0.375 -0.304687,0.820312 -0.890625,1.03125 -0.105468,0.02344 -0.28125,0.08203 -0.28125,0.304687 0,0.152344 0.175782,0.363281 0.363282,0.363281 0.328125,0 1.511718,-0.585937 1.511718,-1.875 0,-0.632812 -0.398437,-1.136718 -0.925781,-1.136718 -0.445312,0 -0.679687,0.339843 -0.679687,0.667968 0,0.398438 0.304687,0.679688 0.667968,0.679688 0.07031,0 0.152344,-0.01172 0.234375,-0.03516 z m 6.958008,-3.609375 c 0,-0.9375003 -0.222656,-2.1445316 -1.089843,-3.3046878 -0.410157,-0.5507813 -1.289063,-1.3476563 -1.652344,-1.3476563 -0.269531,0 -0.339844,0.1992188 -0.339844,0.3164063 0,0.140625 0.08203,0.1992187 0.292969,0.3398437 1.464844,1.03125 2.015625,2.6367188 2.015625,3.9843751 0,1.078125 -0.351563,2.835937 -2.0625,4.019531 -0.152344,0.105469 -0.246094,0.164063 -0.246094,0.316406 0,0.105469 0.07031,0.316407 0.339844,0.316407 0.304687,0 1.183594,-0.691407 1.734375,-1.476563 0.691406,-0.972656 1.007812,-2.097656 1.007812,-3.164062 z m 0,0"
       style="fill:#000000;fill-opacity:1;fill-rule:nonzero;stroke:none"
       aria-label="c&#10;shape=(3,)"
       transform="matrix(1.3333333,0,0,1.3333333,491.14933,171.54933)" />
    <path
       id="path45"
       d="M -90.7097,50.82492 V -3.63687"
       style="fill:none;stroke:#000000;stroke-width:0.79701;stroke-linecap:butt;stroke-linejoin:miter;stroke-miterlimit:10;stroke-dasharray:none;stroke-opacity:1"
       transform="matrix(1.3333333,0,0,-1.3333333,306.27467,150.45867)" />
    <path
       id="path46"
       d="M 4.19469,0 C 3.67955,0.12816 1.41522,0.85442 0,1.64478 V -1.64478 C 1.41522,-0.85442 3.67955,-0.12816 4.19469,0 Z"
       style="fill:#000000;fill-opacity:1;fill-rule:nonzero;stroke:#000000;stroke-width:0.79701;stroke-linecap:butt;stroke-linejoin:miter;stroke-miterlimit:10;stroke-dasharray:none;stroke-opacity:1"
       transform="matrix(0,1.3333333,1.3333333,0,185.3284,155.30783)" />
    <path
       id="path47"
       d="m -90.31119,14.19936 h 64.50894 v 12.95157 h -64.50894 z"
       style="fill:#ffffff;fill-opacity:1;fill-rule:nonzero;stroke:none"
       transform="matrix(1.3333333,0,0,-1.3333333,306.27467,150.45867)" />
    <path
       id="path48"
       d="m 5.1197656,0.67992188 c 0,-0.15234375 -0.09375,-0.19921875 -0.2578125,-0.31640625 C 3.2096094,-0.77320312 2.8111719,-2.4841406 2.8111719,-3.6442969 c 0,-1.1367187 0.375,-2.859375 2.0507812,-4.0195312 0.1640625,-0.1171875 0.2578125,-0.1640625 0.2578125,-0.3164063 0,-0.1289062 -0.070312,-0.3164062 -0.3515625,-0.3164062 -0.3046875,0 -1.1835937,0.6914062 -1.734375,1.4765625 -0.6679687,0.9257812 -1.0078125,2.0390625 -1.0078125,3.1757812 0,1.3242188 0.4804688,2.4375 0.984375,3.14062503 0.5507813,0.76171875 1.4179688,1.5 1.7578125,1.5 0.28125,0 0.3515625,-0.2109375 0.3515625,-0.31640625 z M 10.264297,-3.6442969 c 0,-0.9375 -0.222656,-2.1445312 -1.0898439,-3.3046875 -0.4101562,-0.5507812 -1.2890625,-1.3476562 -1.6523437,-1.3476562 -0.2695313,0 -0.3398438,0.1992187 -0.3398438,0.3164062 0,0.140625 0.082031,0.1992188 0.2929688,0.3398438 1.4648437,1.03125 2.015625,2.6367187 2.015625,3.984375 0,1.078125 -0.3515625,2.83593748 -2.0625,4.01953123 -0.1523438,0.10546875 -0.2460938,0.1640625 -0.2460938,0.31640625 0,0.10546875 0.070312,0.31640625 0.3398438,0.31640625 0.3046875,0 1.1835937,-0.69140625 1.734375,-1.4765625 C 9.9478906,-1.4528906 10.264297,-2.5778906 10.264297,-3.6442969 Z m 13.142578,0.3867188 c 0.164063,0 0.539063,0 0.539063,-0.3867188 0,-0.3984375 -0.363282,-0.3984375 -0.539063,-0.3984375 h -3.75 c -0.152344,0 -0.539062,0 -0.539062,0.3867188 0,0.3984375 0.375,0.3984375 0.539062,0.3984375 z m 6.46875,-0.035156 c 0.140625,-0.082031 0.222656,-0.2109375 0.222656,-0.3515625 0,-0.2109375 -0.128906,-0.3046875 -0.222656,-0.3632812 l -3.925781,-2.4960938 c -0.08203,-0.046875 -0.175781,-0.1171875 -0.28125,-0.1171875 -0.1875,0 -0.398438,0.140625 -0.398438,0.3984375 0,0.2109375 0.128907,0.28125 0.257813,0.3632813 l 3.457031,2.203125 -3.457031,2.2148437 c -0.128906,0.082031 -0.257813,0.1523438 -0.257813,0.3632813 0,0.25781248 0.210938,0.39843748 0.398438,0.39843748 l 0.02344,-0.0117188 c 0.09375,-0.0117188 0.117188,-0.0117188 0.246094,-0.10546875 z m 12.155273,3.97265628 c 0,-0.15234375 -0.09375,-0.19921875 -0.257812,-0.31640625 -1.652344,-1.13671875 -2.050781,-2.84765623 -2.050781,-4.00781253 0,-1.1367187 0.375,-2.859375 2.050781,-4.0195312 0.164062,-0.1171875 0.257812,-0.1640625 0.257812,-0.3164063 0,-0.1289062 -0.07031,-0.3164062 -0.351562,-0.3164062 -0.304688,0 -1.183594,0.6914062 -1.734375,1.4765625 -0.667969,0.9257812 -1.007813,2.0390625 -1.007813,3.1757812 0,1.3242188 0.480469,2.4375 0.984375,3.14062503 0.550782,0.76171875 1.417969,1.5 1.757813,1.5 0.28125,0 0.351562,-0.2109375 0.351562,-0.31640625 z m 4.089844,-4.27734378 c 1.242188,0 1.792969,0.8671875 1.792969,1.5234375 0,0.7851563 -0.691406,1.52343753 -1.746094,1.52343753 -1.195312,0 -1.734375,-0.64453123 -1.734375,-0.80859373 0,-0.023437 0.01172,-0.046875 0.02344,-0.058594 0.04687,-0.09375 0.08203,-0.1875 0.08203,-0.2929687 0,-0.2460938 -0.1875,-0.4804688 -0.46875,-0.4804688 -0.257813,0 -0.492188,0.1640625 -0.492188,0.5273438 0,1.04296873 1.136719,1.80468748 2.589844,1.80468748 1.511719,0 2.519531,-1.078125 2.519531,-2.20312498 0,-0.609375 -0.328125,-1.4648438 -1.382812,-1.921875 0.726562,-0.4453125 1.054687,-1.171875 1.054687,-1.7929688 0,-0.890625 -0.902343,-1.6640625 -2.191406,-1.6640625 -1.324219,0 -2.261719,0.5625 -2.261719,1.453125 0,0.3984375 0.304688,0.515625 0.492188,0.515625 0.222656,0 0.480469,-0.1640625 0.480469,-0.4921875 0,-0.1875 -0.09375,-0.2929687 -0.09375,-0.3164062 0.351562,-0.4453125 1.183593,-0.46875 1.382812,-0.46875 0.820313,0 1.417969,0.421875 1.417969,0.984375 0,0.3515625 -0.234375,1.3476562 -1.488281,1.4296875 -0.445313,0.023437 -0.632813,0.046875 -0.679688,0.046875 -0.234375,0.023437 -0.304687,0.1757812 -0.304687,0.3398437 0,0.3515625 0.257812,0.3515625 0.457031,0.3515625 z m 6.398438,3.56250003 c -0.07031,0.375 -0.304688,0.8203125 -0.890625,1.03125 -0.105469,0.0234375 -0.28125,0.0820313 -0.28125,0.30468747 0,0.1523438 0.175781,0.3632813 0.363281,0.3632813 0.328125,0 1.511719,-0.5859375 1.511719,-1.87500002 0,-0.6328125 -0.398438,-1.13671878 -0.925782,-1.13671878 -0.445312,0 -0.679687,0.3398438 -0.679687,0.66796878 0,0.3984375 0.304687,0.679687495 0.667969,0.679687495 0.07031,0 0.152343,-0.011718745 0.234375,-0.035156245 z m 6.960937,-3.60937503 c 0,-0.9375 -0.222656,-2.1445312 -1.089844,-3.3046875 -0.410156,-0.5507812 -1.289062,-1.3476562 -1.652343,-1.3476562 -0.269532,0 -0.339844,0.1992187 -0.339844,0.3164062 0,0.140625 0.08203,0.1992188 0.292969,0.3398438 1.464843,1.03125 2.015625,2.6367187 2.015625,3.984375 0,1.078125 -0.351563,2.83593748 -2.0625,4.01953123 -0.152344,0.10546875 -0.246094,0.1640625 -0.246094,0.31640625 0,0.10546875 0.07031,0.31640625 0.339844,0.31640625 0.304687,0 1.183593,-0.69140625 1.734375,-1.4765625 0.691406,-0.97265623 1.007812,-2.09765623 1.007812,-3.16406253 z m 0,0"
       style="fill:#000000;fill-opacity:1;fill-rule:nonzero;stroke:none"
       aria-label="()-&gt;(3,)"
       transform="matrix(1.3333333,0,0,1.3333333,187.85333,127.32)" />
  </g>
</svg>
