<?xml version="1.0" encoding="UTF-8" standalone="no"?>
<!-- Created with Inkscape (http://www.inkscape.org/) -->

<svg
   version="1.1"
   id="svg1"
   width="680.3147"
   height="191.75467"
   viewBox="0 0 680.3147 191.75467"
   sodipodi:docname="19_matmul_batch_broadcast.pdf"
   xmlns:inkscape="http://www.inkscape.org/namespaces/inkscape"
   xmlns:sodipodi="http://sodipodi.sourceforge.net/DTD/sodipodi-0.dtd"
   xmlns="http://www.w3.org/2000/svg"
   xmlns:svg="http://www.w3.org/2000/svg">
  <defs
     id="defs1" />
  <sodipodi:namedview
     id="namedview1"
     pagecolor="#ffffff"
     bordercolor="#000000"
     borderopacity="0.25"
     inkscape:showpageshadow="2"
     inkscape:pageopacity="0.0"
     inkscape:pagecheckerboard="0"
     inkscape:deskcolor="#d1d1d1">
    <inkscape:page
       x="0"
       y="0"
       inkscape:label="1"
       id="page1"
       width="680.3147"
       height="191.75467"
       margin="0"
       bleed="0" />
  </sodipodi:namedview>
  <g
     id="g1"
     inkscape:groupmode="layer"
     inkscape:label="1">
    <path
       id="path1"
       d="m -155.34055,12.7558 h 22.67743 v 22.67743 h -22.67743 z"
       style="fill:#ffffff;fill-opacity:1;fill-rule:nonzero;stroke:#000000;stroke-width:0.3985;stroke-linecap:butt;stroke-linejoin:miter;stroke-miterlimit:10;stroke-dasharray:none;stroke-opacity:1"
       transform="matrix(1.3333333,0,0,-1.3333333,400.252,108.884)" />
    <path
       id="path2"
       d="M 5.2604609,-2.0040078 H 4.9909297 c -0.035156,0.1992187 -0.1289063,0.8554687 -0.2460938,1.04296874 -0.082031,0.1171875 -0.7617187,0.1171875 -1.125,0.1171875 H 1.4049922 c 0.328125,-0.28125004 1.0546875,-1.04296874 1.3710937,-1.33593754 1.8164063,-1.6640625 2.484375,-2.2851562 2.484375,-3.46875 0,-1.3828125 -1.0898437,-2.296875 -2.4726562,-2.296875 -1.3945313,0 -2.20312501,1.1835938 -2.20312501,2.203125 0,0.609375 0.52734371,0.609375 0.56250001,0.609375 0.2460937,0 0.5625,-0.1757812 0.5625,-0.5625 0,-0.328125 -0.234375,-0.5507812 -0.5625,-0.5507812 -0.1054688,0 -0.1289063,0 -0.16406251,0.011719 C 1.2057734,-7.0547888 1.8503047,-7.60557 2.6237422,-7.60557 c 1.0195312,0 1.640625,0.8554687 1.640625,1.9570312 0,1.0078125 -0.5859375,1.8984375 -1.265625,2.6601563 L 0.58467969,-0.28135156 V -1.015625e-4 H 4.9440547 Z m 0,0"
       style="fill:#000000;fill-opacity:1;fill-rule:nonzero;stroke:none"
       aria-label="2"
       transform="matrix(1.3333333,0,0,1.3333333,204.34933,81.894667)" />
    <path
       id="path3"
       d="m -132.66301,12.7558 h 22.67743 v 22.67743 h -22.67743 z"
       style="fill:#ffffff;fill-opacity:1;fill-rule:nonzero;stroke:#000000;stroke-width:0.3985;stroke-linecap:butt;stroke-linejoin:miter;stroke-miterlimit:10;stroke-dasharray:none;stroke-opacity:1"
       transform="matrix(1.3333333,0,0,-1.3333333,400.252,108.884)" />
    <path
       id="path4"
       d="m 5.3549219,-3.8204141 c 0,-0.9960937 -0.058594,-1.96875 -0.4921875,-2.8710937 -0.4921875,-0.9960938 -1.3476563,-1.2539063 -1.9335938,-1.2539063 -0.6914062,0 -1.546875,0.3398438 -1.98046872,1.3359375 -0.33984375,0.75 -0.45703125,1.4882813 -0.45703125,2.7890625 0,1.1601563 0.0820313,2.0273438 0.51562497,2.87109379 0.4570313,0.9140625 1.2890625,1.1953125 1.9101563,1.1953125 1.0429687,0 1.640625,-0.62109375 1.9804687,-1.31249999 0.4335938,-0.890625 0.4570313,-2.0625 0.4570313,-2.7539063 z m -2.4375,3.83203129 c -0.3867188,0 -1.1601563,-0.2109375 -1.3828125,-1.52343749 -0.140625,-0.7148438 -0.140625,-1.6171875 -0.140625,-2.4609375 0,-0.9726563 0,-1.8632813 0.1992187,-2.5664063 0.1992188,-0.796875 0.8085938,-1.171875 1.3242188,-1.171875 0.4570312,0 1.1484375,0.28125 1.3710937,1.3007813 0.1523438,0.6796875 0.1523438,1.6289062 0.1523438,2.4375 0,0.8085937 0,1.7109375 -0.1289063,2.4375 -0.2226562,1.32421874 -0.9726562,1.54687499 -1.3945312,1.54687499 z m 0,0"
       style="fill:#000000;fill-opacity:1;fill-rule:nonzero;stroke:none"
       aria-label="0"
       transform="matrix(1.3333333,0,0,1.3333333,234.58667,81.894667)" />
    <path
       id="path5"
       d="m -155.34055,-9.92172 h 22.67743 v 22.67743 h -22.67743 z"
       style="fill:#ffffff;fill-opacity:1;fill-rule:nonzero;stroke:#000000;stroke-width:0.3985;stroke-linecap:butt;stroke-linejoin:miter;stroke-miterlimit:10;stroke-dasharray:none;stroke-opacity:1"
       transform="matrix(1.3333333,0,0,-1.3333333,400.252,108.884)" />
    <path
       id="path6"
       d="m 5.3542109,-3.8216328 c 0,-0.9960938 -0.058594,-1.96875 -0.4921875,-2.8710938 -0.4921875,-0.9960937 -1.3476562,-1.2539062 -1.9335937,-1.2539062 -0.6914063,0 -1.546875,0.3398437 -1.98046876,1.3359375 -0.33984375,0.75 -0.45703125,1.4882812 -0.45703125,2.7890625 0,1.1601562 0.0820313,2.0273437 0.51562501,2.87109374 0.4570312,0.9140625 1.2890625,1.1953125 1.9101562,1.1953125 1.0429688,0 1.640625,-0.62109375 1.9804688,-1.31250004 0.4335937,-0.890625 0.4570312,-2.0625 0.4570312,-2.7539062 z m -2.4375,3.83203124 c -0.3867187,0 -1.1601562,-0.2109375 -1.3828125,-1.52343754 -0.140625,-0.7148437 -0.140625,-1.6171875 -0.140625,-2.4609375 0,-0.9726562 0,-1.8632812 0.1992188,-2.5664062 0.1992187,-0.796875 0.8085937,-1.171875 1.3242187,-1.171875 0.4570313,0 1.1484375,0.28125 1.3710938,1.3007812 0.1523437,0.6796875 0.1523437,1.6289063 0.1523437,2.4375 0,0.8085938 0,1.7109375 -0.1289062,2.4375 -0.2226563,1.32421879 -0.9726563,1.54687504 -1.3945313,1.54687504 z m 0,0"
       style="fill:#000000;fill-opacity:1;fill-rule:nonzero;stroke:none"
       aria-label="0"
       transform="matrix(1.3333333,0,0,1.3333333,204.34933,112.13067)" />
    <path
       id="path7"
       d="m -132.66301,-9.92172 h 22.67743 v 22.67743 h -22.67743 z"
       style="fill:#ffffff;fill-opacity:1;fill-rule:nonzero;stroke:#000000;stroke-width:0.3985;stroke-linecap:butt;stroke-linejoin:miter;stroke-miterlimit:10;stroke-dasharray:none;stroke-opacity:1"
       transform="matrix(1.3333333,0,0,-1.3333333,400.252,108.884)" />
    <path
       id="path8"
       d="M 5.2611719,-2.0052266 H 4.9916406 c -0.035156,0.1992188 -0.1289062,0.8554688 -0.2460937,1.04296879 -0.082031,0.1171875 -0.7617188,0.1171875 -1.125,0.1171875 H 1.4057031 c 0.328125,-0.28124999 1.0546875,-1.04296879 1.3710938,-1.33593749 1.8164062,-1.6640625 2.484375,-2.2851563 2.484375,-3.46875 0,-1.3828125 -1.0898438,-2.296875 -2.4726563,-2.296875 -1.3945312,0 -2.20312497,1.1835937 -2.20312497,2.203125 0,0.609375 0.52734377,0.609375 0.56249997,0.609375 0.2460938,0 0.5625,-0.1757813 0.5625,-0.5625 0,-0.328125 -0.234375,-0.5507813 -0.5625,-0.5507813 -0.1054687,0 -0.1289062,0 -0.16406247,0.011719 0.22265627,-0.8203125 0.86718747,-1.3710938 1.64062497,-1.3710938 1.0195313,0 1.640625,0.8554688 1.640625,1.9570313 0,1.0078125 -0.5859375,1.8984375 -1.265625,2.6601562 l -2.41406247,2.70703129 v 0.28125 H 4.9447656 Z m 0,0"
       style="fill:#000000;fill-opacity:1;fill-rule:nonzero;stroke:none"
       aria-label="2"
       transform="matrix(1.3333333,0,0,1.3333333,234.58667,112.13067)" />
    <path
       id="path9"
       d="m -167.24615,-1.5e-4 h 22.67743 v 22.67743 h -22.67743 z"
       style="fill:#ffffff;fill-opacity:1;fill-rule:nonzero;stroke:#000000;stroke-width:0.3985;stroke-linecap:butt;stroke-linejoin:miter;stroke-miterlimit:10;stroke-dasharray:none;stroke-opacity:1"
       transform="matrix(1.3333333,0,0,-1.3333333,400.252,108.884)" />
    <path
       id="path10"
       d="m 3.4457344,-7.6643047 c 0,-0.2695312 0,-0.28125 -0.2460938,-0.28125 -0.28125,0.3164063 -0.8789062,0.7617188 -2.109375,0.7617188 v 0.3515625 c 0.2695313,0 0.8671875,0 1.5234375,-0.3164063 v 6.22265626 c 0,0.43359375 -0.035156,0.57421875 -1.078125,0.57421875 h -0.375 v 0.3515625025 c 0.3164063,-0.0234375025 1.4765625,-0.0234375025 1.875,-0.0234375025 0.3984375,0 1.546875,0 1.8632813,0.0234375025 V -0.35180469 H 4.5355781 c -1.0546875,0 -1.0898437,-0.140625 -1.0898437,-0.57421875 z m 0,0"
       style="fill:#000000;fill-opacity:1;fill-rule:nonzero;stroke:none"
       aria-label="1"
       transform="matrix(1.3333333,0,0,1.3333333,188.476,98.902667)" />
    <path
       id="path11"
       d="m -144.56862,-1.5e-4 h 22.67743 v 22.67743 h -22.67743 z"
       style="fill:#ffffff;fill-opacity:1;fill-rule:nonzero;stroke:#000000;stroke-width:0.3985;stroke-linecap:butt;stroke-linejoin:miter;stroke-miterlimit:10;stroke-dasharray:none;stroke-opacity:1"
       transform="matrix(1.3333333,0,0,-1.3333333,400.252,108.884)" />
    <path
       id="path12"
       d="m 5.3546719,-3.8205547 c 0,-0.9960937 -0.058594,-1.96875 -0.4921875,-2.8710937 -0.4921875,-0.9960938 -1.3476563,-1.2539063 -1.9335938,-1.2539063 -0.6914062,0 -1.546875,0.3398438 -1.98046873,1.3359375 -0.33984375,0.75 -0.45703125,1.4882813 -0.45703125,2.7890625 0,1.1601563 0.0820313,2.0273438 0.51562498,2.87109376 0.4570313,0.9140625 1.2890625,1.1953125 1.9101563,1.1953125 1.0429687,0 1.640625,-0.62109375 1.9804687,-1.31249996 0.4335938,-0.890625 0.4570313,-2.0625 0.4570313,-2.7539063 z m -2.4375,3.83203126 c -0.3867188,0 -1.1601563,-0.2109375 -1.3828125,-1.52343746 -0.140625,-0.7148438 -0.140625,-1.6171875 -0.140625,-2.4609375 0,-0.9726563 0,-1.8632813 0.1992187,-2.5664063 0.1992188,-0.796875 0.8085938,-1.171875 1.3242188,-1.171875 0.4570312,0 1.1484375,0.28125 1.3710937,1.3007813 0.1523438,0.6796875 0.1523438,1.6289062 0.1523438,2.4375 0,0.8085937 0,1.7109375 -0.1289063,2.4375 -0.2226562,1.32421871 -0.9726562,1.54687496 -1.3945312,1.54687496 z m 0,0"
       style="fill:#000000;fill-opacity:1;fill-rule:nonzero;stroke:none"
       aria-label="0"
       transform="matrix(1.3333333,0,0,1.3333333,218.712,98.902667)" />
    <path
       id="path13"
       d="m -167.24615,-22.67767 h 22.67743 V -2.4e-4 h -22.67743 z"
       style="fill:#ffffff;fill-opacity:1;fill-rule:nonzero;stroke:#000000;stroke-width:0.3985;stroke-linecap:butt;stroke-linejoin:miter;stroke-miterlimit:10;stroke-dasharray:none;stroke-opacity:1"
       transform="matrix(1.3333333,0,0,-1.3333333,400.252,108.884)" />
    <path
       id="path14"
       d="m 5.3558906,-3.8217734 c 0,-0.9960938 -0.058594,-1.96875 -0.4921875,-2.8710938 -0.4921875,-0.9960937 -1.3476562,-1.2539062 -1.9335937,-1.2539062 -0.6914063,0 -1.546875,0.3398437 -1.98046877,1.3359375 -0.33984375,0.75 -0.45703125,1.4882812 -0.45703125,2.7890625 0,1.1601562 0.0820313,2.0273437 0.51562502,2.87109371 0.4570312,0.9140625 1.2890625,1.1953125 1.9101562,1.1953125 1.0429688,0 1.640625,-0.62109375 1.9804688,-1.31250001 0.4335937,-0.890625 0.4570312,-2.0625 0.4570312,-2.7539062 z m -2.4375,3.83203121 c -0.3867187,0 -1.1601562,-0.2109375 -1.3828125,-1.52343751 -0.140625,-0.7148437 -0.140625,-1.6171875 -0.140625,-2.4609375 0,-0.9726562 0,-1.8632812 0.1992188,-2.5664062 0.1992187,-0.796875 0.8085937,-1.171875 1.3242187,-1.171875 0.4570313,0 1.1484375,0.28125 1.3710938,1.3007812 0.1523437,0.6796875 0.1523437,1.6289063 0.1523437,2.4375 0,0.8085938 0,1.7109375 -0.1289062,2.4375 -0.2226563,1.32421876 -0.9726563,1.54687501 -1.3945313,1.54687501 z m 0,0"
       style="fill:#000000;fill-opacity:1;fill-rule:nonzero;stroke:none"
       aria-label="0"
       transform="matrix(1.3333333,0,0,1.3333333,188.476,129.13867)" />
    <path
       id="path15"
       d="m -144.56862,-22.67767 h 22.67743 V -2.4e-4 h -22.67743 z"
       style="fill:#ffffff;fill-opacity:1;fill-rule:nonzero;stroke:#000000;stroke-width:0.3985;stroke-linecap:butt;stroke-linejoin:miter;stroke-miterlimit:10;stroke-dasharray:none;stroke-opacity:1"
       transform="matrix(1.3333333,0,0,-1.3333333,400.252,108.884)" />
    <path
       id="path16"
       d="m 3.4445156,-7.6655234 c 0,-0.2695313 0,-0.28125 -0.2460937,-0.28125 -0.28125,0.3164062 -0.8789063,0.7617187 -2.109375,0.7617187 v 0.3515625 c 0.2695312,0 0.8671875,0 1.5234375,-0.3164062 v 6.22265621 c 0,0.43359375 -0.035156,0.57421875 -1.078125,0.57421875 h -0.375 v 0.3515625 c 0.3164062,-0.0234375 1.4765625,-0.0234375 1.875,-0.0234375 0.3984375,0 1.546875,0 1.8632812,0.0234375 v -0.3515625 H 4.5343594 c -1.0546875,0 -1.0898438,-0.140625 -1.0898438,-0.57421875 z m 0,0"
       style="fill:#000000;fill-opacity:1;fill-rule:nonzero;stroke:none"
       aria-label="1"
       transform="matrix(1.3333333,0,0,1.3333333,218.712,129.13867)" />
    <path
       id="path17"
       d="m 3.6797109,-7.0435781 c -0.09375,-0.4335938 -0.328125,-0.4335938 -0.609375,-0.4335938 -0.3632812,0 -0.515625,0.058594 -0.5976562,0.4335938 l -1.47656251,6.35156248 c -0.3984375,0 -0.66796875,0 -0.66796875,0.33984375 0,0.351562495 0.31640625,0.351562495 0.48046875,0.351562495 H 1.9570547 c 0.1757812,0 0.4921875,0 0.4921875,-0.351562495 0,-0.33984375 -0.28125,-0.33984375 -0.65625,-0.33984375 L 2.1093984,-2.0279531 h 1.9335938 l 0.3046875,1.33593748 c -0.3632813,0 -0.65625,0 -0.65625,0.33984375 0,0.351562495 0.328125,0.351562495 0.4921875,0.351562495 h 1.1484375 c 0.1640625,0 0.4921875,0 0.4921875,-0.351562495 0,-0.33984375 -0.28125,-0.33984375 -0.6679688,-0.33984375 z m -1.4179687,4.3125 c 0.082031,-0.3515625 0.7382812,-3.1757813 0.796875,-3.75 h 0.011719 c 0.035156,0.28125 0.1992188,1.0078125 0.1992188,1.0195312 l 0.6210937,2.7304688 z M -31.895484,9.5413828 c 0,-0.1875 0,-0.4570312 -0.328125,-0.4570312 -0.292969,0 -0.363282,0.28125 -0.363282,0.2929687 -0.480468,-0.2929687 -1.019531,-0.2929687 -1.265625,-0.2929687 -1.945312,0 -2.214843,0.9960934 -2.214843,1.4062504 0,0.480468 0.292968,0.820312 0.703125,1.042968 0.375,0.222657 0.726562,0.28125 1.699218,0.433594 0.46875,0.08203 1.429688,0.234375 1.429688,0.902344 0,0.433594 -0.410156,0.855469 -1.523438,0.855469 -0.761718,0 -1.265625,-0.304688 -1.511718,-1.160157 -0.05859,-0.164062 -0.09375,-0.292968 -0.398438,-0.292968 -0.398437,0 -0.398437,0.222656 -0.398437,0.457031 v 1.230469 c 0,0.199218 0,0.457031 0.339843,0.457031 0.140625,0 0.246094,0 0.433594,-0.492188 0.550781,0.457032 1.171875,0.492188 1.535156,0.492188 2.214844,0 2.214844,-1.429688 2.214844,-1.546875 0,-1.253906 -1.476562,-1.5 -2.050781,-1.582031 -1.054688,-0.175782 -1.769531,-0.304688 -1.769531,-0.796875 0,-0.328125 0.363281,-0.7148442 1.488281,-0.7148442 1.136719,0 1.183594,0.5390622 1.207031,0.8554692 0.02344,0.234375 0.246094,0.269531 0.386719,0.269531 0.386719,0 0.386719,-0.210938 0.386719,-0.457031 z m 6.128906,1.3007812 c 0,-1.1718749 -0.550781,-1.7226562 -1.523438,-1.7226562 -0.820312,0 -1.335937,0.4570313 -1.546875,0.6796875 V 7.5374766 c 0,-0.375 -0.07031,-0.4921875 -0.480468,-0.4921875 h -0.785157 c -0.164062,0 -0.480468,0 -0.480468,0.3398437 0,0.3515625 0.316406,0.3515625 0.480468,0.3515625 h 0.492188 v 5.9179687 h -0.492188 c -0.164062,0 -0.480468,0 -0.480468,0.339844 0,0.351562 0.316406,0.351562 0.480468,0.351562 h 1.757813 c 0.164062,0 0.480469,0 0.480469,-0.351562 0,-0.339844 -0.316407,-0.339844 -0.480469,-0.339844 h -0.492188 v -2.167969 c 0,-1.160156 0.820313,-1.6757809 1.464844,-1.6757809 0.691406,0 0.832031,0.3984379 0.832031,1.0781249 v 2.765625 h -0.492187 c -0.164063,0 -0.480469,0 -0.480469,0.339844 0,0.351562 0.316406,0.351562 0.480469,0.351562 h 1.757812 c 0.164063,0 0.480469,0 0.480469,-0.351562 0,-0.339844 -0.316406,-0.339844 -0.480469,-0.339844 h -0.492187 z m 6.105469,0.105469 c 0,-0.902344 -0.679688,-1.8632814 -2.296875,-1.8632814 -0.492188,0 -1.652344,0 -1.652344,0.8320312 0,0.3164062 0.222656,0.4921872 0.480469,0.4921872 0.08203,0 0.46875,-0.02344 0.480468,-0.5156247 0,-0.070312 0.01172,-0.082031 0.269532,-0.1054687 0.140625,-0.011719 0.292968,-0.011719 0.433593,-0.011719 0.28125,0 0.691407,0 1.078125,0.3046874 0.433594,0.328125 0.433594,0.667969 0.433594,1.019532 -0.703125,0.02344 -1.394531,0.07031 -2.144531,0.304687 -0.597656,0.199219 -1.359375,0.632813 -1.359375,1.441406 0,0.855469 0.75,1.570313 1.863281,1.570313 0.386719,0 1.125,-0.05859 1.746094,-0.492188 0.246094,0.398438 0.84375,0.421875 1.289062,0.421875 0.292969,0 0.574219,0 0.574219,-0.351562 0,-0.339844 -0.304687,-0.339844 -0.480469,-0.339844 -0.304687,0 -0.539062,-0.02344 -0.714843,-0.09375 z m -0.773438,1.816406 c 0,0.28125 0,0.527344 -0.492187,0.761719 -0.421875,0.199219 -0.972657,0.199219 -1.019532,0.199219 -0.703125,0 -1.21875,-0.386719 -1.21875,-0.878907 0,-0.703125 1.289063,-1.101562 2.730469,-1.101562 z m 4.391602,4.230469 c 0.164062,0 0.480468,0 0.480468,-0.339844 0,-0.351562 -0.316406,-0.351562 -0.480468,-0.351562 h -0.492188 v -2.554688 c 0.292969,0.328125 0.726563,0.667969 1.40625,0.667969 1.265625,0 2.378906,-1.136719 2.378906,-2.648438 0,-1.476562 -1.007812,-2.6484372 -2.25,-2.6484372 -0.878906,0 -1.429687,0.5273438 -1.535156,0.6445313 0,-0.3867188 0,-0.5742188 -0.480469,-0.5742188 h -0.785156 c -0.164062,0 -0.480469,0 -0.480469,0.3515625 0,0.3515625 0.316407,0.3515625 0.480469,0.3515625 h 0.492188 v 6.4101567 h -0.492188 c -0.164062,0 -0.480469,0 -0.480469,0.351562 0,0.339844 0.316407,0.339844 0.480469,0.339844 z m -0.492188,-5.824219 c 0,-0.679687 0.667969,-1.3593749 1.453125,-1.3593749 0.855469,0 1.546875,0.8789059 1.546875,1.9570309 0,1.148438 -0.808594,1.957032 -1.664062,1.957032 -0.890625,0 -1.335938,-1.019532 -1.335938,-1.617188 z m 9.1992189,0.878906 c 0.2578125,0 0.4804688,0 0.4804688,-0.445312 0,-1.394531 -0.7851563,-2.5195314 -2.2851563,-2.5195314 -1.3828124,0 -2.4960934,1.1953124 -2.4960934,2.6601564 0,1.5 1.207031,2.671875 2.6835934,2.671875 1.5351563,0 2.0976563,-1.066406 2.0976563,-1.371094 0,-0.07031 -0.023437,-0.339844 -0.3984375,-0.339844 -0.2226563,0 -0.2929688,0.08203 -0.3632813,0.269532 -0.3046875,0.691406 -1.078125,0.75 -1.3007812,0.75 -0.9960938,0 -1.7812497,-0.75 -1.9218747,-1.675782 z m -3.4921879,-0.65625 c 0.164063,-1.019531 0.9375004,-1.6171872 1.6875004,-1.6171872 1.1953125,0 1.453125,1.0195312 1.5,1.6171872 z m 9.86718794,-1.21875 c 0.15234375,0 0.515625,0 0.515625,-0.3867184 0,-0.3867188 -0.3984375,-0.3867188 -0.57421874,-0.3867188 h -4.1132813 c -0.1875,0 -0.5742187,0 -0.5742187,0.3867188 0,0.3867184 0.3632812,0.3867184 0.515625,0.3867184 z m -0.0585937,1.816407 c 0.17578128,0 0.57421878,0 0.57421878,-0.398438 0,-0.375 -0.375,-0.375 -0.515625,-0.375 H -5.1913828 c -0.1640625,0 -0.515625,0 -0.515625,0.375 0,0.398438 0.3867187,0.398438 0.5742187,0.398438 z m 6.140625,3.035156 c 0,-0.152344 -0.09375,-0.199219 -0.2578125,-0.316406 -1.6523438,-1.136719 -2.0507813,-2.847657 -2.0507813,-4.007813 0,-1.1367187 0.375,-2.8593749 2.0507813,-4.0195312 0.1640625,-0.1171875 0.2578125,-0.1640625 0.2578125,-0.3164062 0,-0.1289063 -0.070312,-0.3164063 -0.3515625,-0.3164063 -0.3046875,0 -1.1835938,0.6914063 -1.734375,1.4765625 -0.6679688,0.9257813 -1.0078125,2.0390625 -1.0078125,3.1757812 0,1.324219 0.4804687,2.4375 0.984375,3.140625 0.5507812,0.761719 1.4179687,1.5 1.7578125,1.5 0.28125,0 0.3515625,-0.210937 0.3515625,-0.316406 z M 10.312523,11.72107 c 0.164063,-0.152343 1.371094,-1.171875 1.371094,-2.5078122 0,-1.359375 -1.125,-2.3085937 -2.6132811,-2.3085937 -1.3828125,0 -2.3085937,1.03125 -2.3085937,2.0390625 0,0.5039062 0.421875,0.5390625 0.4921875,0.5390625 0.2109375,0 0.4804687,-0.1640625 0.4804687,-0.4921875 0,-0.2226563 -0.082031,-0.2929688 -0.1523437,-0.3515625 0.1757812,-0.6328125 0.7265625,-1.0429688 1.4179687,-1.0429688 1.0078126,0 1.9101566,0.5859375 1.9101566,1.6171875 0,0.9375002 -0.703125,1.6523442 -1.3476566,2.2148442 l -2.6367187,2.285156 c -0.1289063,0.105469 -0.1640625,0.140625 -0.1640625,0.28125 0,0.351562 0.328125,0.351562 0.4921875,0.351562 h 4.1718753 c 0.257812,-0.07031 0.257812,-0.316406 0.257812,-0.492187 v -0.246094 c 0,-0.222656 0,-0.492187 -0.375,-0.492187 -0.398437,0 -0.398437,0.246093 -0.398437,0.539062 H 8.0273672 Z m 5.296875,2.589844 c -0.07031,0.375 -0.304687,0.820313 -0.890625,1.03125 -0.105468,0.02344 -0.28125,0.08203 -0.28125,0.304688 0,0.152343 0.175782,0.363281 0.363282,0.363281 0.328125,0 1.511718,-0.585938 1.511718,-1.875 0,-0.632813 -0.398437,-1.136719 -0.925781,-1.136719 -0.445312,0 -0.679687,0.339844 -0.679687,0.667969 0,0.398437 0.304687,0.679687 0.667968,0.679687 0.07031,0 0.152344,-0.01172 0.234375,-0.03516 z m 7.007813,-2.589844 c 0.164062,-0.152343 1.371094,-1.171875 1.371094,-2.5078122 0,-1.359375 -1.125,-2.3085937 -2.613282,-2.3085937 -1.382812,0 -2.308593,1.03125 -2.308593,2.0390625 0,0.5039062 0.421875,0.5390625 0.492187,0.5390625 0.210938,0 0.480469,-0.1640625 0.480469,-0.4921875 0,-0.2226563 -0.08203,-0.2929688 -0.152344,-0.3515625 0.175781,-0.6328125 0.726563,-1.0429688 1.417969,-1.0429688 1.007812,0 1.910156,0.5859375 1.910156,1.6171875 0,0.9375002 -0.703125,1.6523442 -1.347656,2.2148442 l -2.636719,2.285156 c -0.128906,0.105469 -0.164062,0.140625 -0.164062,0.28125 0,0.351562 0.328125,0.351562 0.492187,0.351562 h 4.171875 c 0.257813,-0.07031 0.257813,-0.316406 0.257813,-0.492187 v -0.246094 c 0,-0.222656 0,-0.492187 -0.375,-0.492187 -0.398438,0 -0.398438,0.246093 -0.398438,0.539062 h -2.882812 z m 5.296875,2.589844 c -0.07031,0.375 -0.304688,0.820313 -0.890625,1.03125 -0.105469,0.02344 -0.28125,0.08203 -0.28125,0.304688 0,0.152343 0.175781,0.363281 0.363281,0.363281 0.328125,0 1.511719,-0.585938 1.511719,-1.875 0,-0.632813 -0.398438,-1.136719 -0.925781,-1.136719 -0.445313,0 -0.679688,0.339844 -0.679688,0.667969 0,0.398437 0.304688,0.679687 0.667969,0.679687 0.07031,0 0.152344,-0.01172 0.234375,-0.03516 z m 7.007812,-2.589844 c 0.164063,-0.152343 1.371094,-1.171875 1.371094,-2.5078122 0,-1.359375 -1.125,-2.3085937 -2.613281,-2.3085937 -1.382813,0 -2.308594,1.03125 -2.308594,2.0390625 0,0.5039062 0.421875,0.5390625 0.492188,0.5390625 0.210937,0 0.480468,-0.1640625 0.480468,-0.4921875 0,-0.2226563 -0.08203,-0.2929688 -0.152343,-0.3515625 0.175781,-0.6328125 0.726562,-1.0429688 1.417968,-1.0429688 1.007813,0 1.910157,0.5859375 1.910157,1.6171875 0,0.9375002 -0.703125,1.6523442 -1.347657,2.2148442 l -2.636718,2.285156 c -0.128907,0.105469 -0.164063,0.140625 -0.164063,0.28125 0,0.351562 0.328125,0.351562 0.492188,0.351562 h 4.171875 c 0.257812,-0.07031 0.257812,-0.316406 0.257812,-0.492187 v -0.246094 c 0,-0.222656 0,-0.492187 -0.375,-0.492187 -0.398437,0 -0.398437,0.246093 -0.398437,0.539062 h -2.882813 z m 6.105469,-1.019531 c 0,-0.9374999 -0.222656,-2.1445312 -1.089844,-3.3046874 -0.410156,-0.5507813 -1.289062,-1.3476563 -1.652343,-1.3476563 -0.269532,0 -0.339844,0.1992188 -0.339844,0.3164063 0,0.140625 0.08203,0.1992187 0.292969,0.3398437 1.464843,1.03125 2.015625,2.6367188 2.015625,3.9843747 0,1.078125 -0.351563,2.835938 -2.0625,4.019532 -0.152344,0.105468 -0.246094,0.164062 -0.246094,0.316406 0,0.105469 0.07031,0.316406 0.339844,0.316406 0.304687,0 1.183593,-0.691406 1.734375,-1.476562 0.691406,-0.972657 1.007812,-2.097657 1.007812,-3.164063 z m 0,0"
       style="fill:#000000;fill-opacity:1;fill-rule:nonzero;stroke:none"
       aria-label="A&#10;shape=(2,2,2)"
       transform="matrix(1.3333333,0,0,1.3333333,211.332,20.368)" />
    <path
       id="path18"
       d="M 4.6993828,-5.7779141 C 4.5470391,-5.8833828 4.2540703,-6.0240078 3.9376641,-6.0240078 c -0.9492188,0 -1.7109375,1.03125 -1.7109375,2.3671875 0,1.40625 0.8085937,2.3789062 1.6992187,2.3789062 0.5859375,0 1.6992188,-0.515625 1.6992188,-2.5546875 0,-0.8085937 0,-3.5390625 -2.0625,-3.5390625 -1.5820313,0 -3.04687504,1.546875 -3.04687504,3.7148438 0,2.1445312 1.42968754,3.72656249 3.07031254,3.72656249 1.125,0 2.0390625,-0.7265625 2.0390625,-1.01953125 0,-0.30468754 -0.2929688,-0.30468754 -0.4101563,-0.30468754 -0.1875,0 -0.234375,0 -0.3515625,0.1054688 -0.4101562,0.39843749 -0.8554687,0.52734374 -1.2773437,0.52734374 -1.2773438,0 -2.4023438,-1.30078124 -2.4023438,-3.02343754 0,-1.7929687 1.171875,-3.0351562 2.390625,-3.0351562 0.3515625,0 0.84375,0.1289062 1.125,0.9023437 z m -0.7617187,3.8085938 c -0.5507813,0 -1.0429688,-0.75 -1.0429688,-1.6757813 0,-1.0078125 0.5390625,-1.6875 1.03125,-1.6875 0.5390625,0 1.03125,0.7382813 1.03125,1.6757813 0,1.0078125 -0.5390625,1.6875 -1.0195312,1.6875 z m 0,0"
       style="fill:#000000;fill-opacity:1;fill-rule:nonzero;stroke:none"
       aria-label="@"
       transform="matrix(1.3333333,0,0,1.3333333,290.324,113.75467)" />
    <path
       id="path19"
       d="m -65.19746,-1.5e-4 h 22.67743 v 22.67743 h -22.67743 z"
       style="fill:none;stroke:#000000;stroke-width:0.3985;stroke-linecap:butt;stroke-linejoin:miter;stroke-miterlimit:10;stroke-dasharray:none;stroke-opacity:1"
       transform="matrix(1.3333333,0,0,-1.3333333,400.252,108.884)" />
    <path
       id="path20"
       d="m 3.4456094,-7.6643047 c 0,-0.2695312 0,-0.28125 -0.2460938,-0.28125 -0.28125,0.3164063 -0.8789062,0.7617188 -2.109375,0.7617188 v 0.3515625 c 0.2695313,0 0.8671875,0 1.5234375,-0.3164063 v 6.22265626 c 0,0.43359375 -0.035156,0.57421875 -1.078125,0.57421875 h -0.375 v 0.3515625025 c 0.3164063,-0.0234375025 1.4765625,-0.0234375025 1.875,-0.0234375025 0.3984375,0 1.546875,0 1.8632813,0.0234375025 V -0.35180469 H 4.5354531 c -1.0546875,0 -1.0898437,-0.140625 -1.0898437,-0.57421875 z m 0,0"
       style="fill:#000000;fill-opacity:1;fill-rule:nonzero;stroke:none"
       aria-label="1"
       transform="matrix(1.3333333,0,0,1.3333333,324.53867,98.902667)" />
    <path
       id="path21"
       d="M -42.51993,-1.5e-4 H -19.8425 V 22.67728 H -42.51993 Z"
       style="fill:none;stroke:#000000;stroke-width:0.3985;stroke-linecap:butt;stroke-linejoin:miter;stroke-miterlimit:10;stroke-dasharray:none;stroke-opacity:1"
       transform="matrix(1.3333333,0,0,-1.3333333,400.252,108.884)" />
    <path
       id="path22"
       d="M 5.2627266,-2.0041484 H 4.9931953 c -0.035156,0.1992187 -0.1289062,0.8554687 -0.2460937,1.04296871 -0.082031,0.1171875 -0.7617188,0.1171875 -1.125,0.1171875 H 1.4072578 c 0.328125,-0.28125001 1.0546875,-1.04296871 1.3710938,-1.33593751 1.8164062,-1.6640625 2.484375,-2.2851562 2.484375,-3.46875 0,-1.3828125 -1.0898438,-2.296875 -2.4726563,-2.296875 -1.3945312,0 -2.20312499,1.1835938 -2.20312499,2.203125 0,0.609375 0.52734379,0.609375 0.56249999,0.609375 0.2460938,0 0.5625,-0.1757812 0.5625,-0.5625 0,-0.328125 -0.234375,-0.5507812 -0.5625,-0.5507812 -0.1054687,0 -0.1289062,0 -0.16406249,0.011719 0.22265629,-0.8203125 0.86718749,-1.3710937 1.64062499,-1.3710937 1.0195313,0 1.640625,0.8554687 1.640625,1.9570312 0,1.0078125 -0.5859375,1.8984375 -1.265625,2.6601563 L 0.58694531,-0.28149219 V -2.421875e-4 H 4.9463203 Z m 0,0"
       style="fill:#000000;fill-opacity:1;fill-rule:nonzero;stroke:none"
       aria-label="2"
       transform="matrix(1.3333333,0,0,1.3333333,354.776,98.902667)" />
    <path
       id="path23"
       d="m -65.19746,-22.67767 h 22.67743 V -2.4e-4 h -22.67743 z"
       style="fill:none;stroke:#000000;stroke-width:0.3985;stroke-linecap:butt;stroke-linejoin:miter;stroke-miterlimit:10;stroke-dasharray:none;stroke-opacity:1"
       transform="matrix(1.3333333,0,0,-1.3333333,400.252,108.884)" />
    <path
       id="path24"
       d="m 2.2034219,-4.2905234 c -0.2109375,0.011719 -0.2578125,0.023437 -0.2578125,0.1289062 0,0.1171875 0.058594,0.1171875 0.28125,0.1171875 h 0.5507812 c 1.0078125,0 1.4648438,0.84375 1.4648438,1.9921875 0,1.55859376 -0.8085938,1.98046876 -1.3945313,1.98046876 -0.5742187,0 -1.5585937,-0.28125 -1.89843748,-1.06640626 0.37499998,0.058594 0.72656248,-0.1523437 0.72656248,-0.5859375 0,-0.3398437 -0.2578125,-0.5859375 -0.5859375,-0.5859375 -0.29296873,0 -0.59765623,0.1640625 -0.59765623,0.6210938 0,1.06640621 1.06640623,1.93359371 2.39062503,1.93359371 1.4179687,0 2.4726562,-1.078125 2.4726562,-2.28515621 0,-1.1015625 -0.890625,-1.96875 -2.0273437,-2.1679688 1.03125,-0.3046875 1.6992187,-1.171875 1.6992187,-2.109375 0,-0.9375 -0.9726562,-1.6289062 -2.1328125,-1.6289062 -1.1953125,0 -2.08593748,0.7265625 -2.08593748,1.59375 0,0.4804687 0.37499998,0.5742187 0.55078128,0.5742187 0.2578125,0 0.5390625,-0.1757812 0.5390625,-0.5390625 0,-0.375 -0.28125,-0.5390625 -0.5507813,-0.5390625 -0.070312,0 -0.09375,0 -0.1289062,0.011719 0.4570312,-0.8203125 1.5820312,-0.8203125 1.640625,-0.8203125 0.3867187,0 1.171875,0.1757812 1.171875,1.3476562 0,0.234375 -0.035156,0.9023438 -0.3867188,1.4179688 -0.3515625,0.5273437 -0.7617187,0.5625 -1.0898437,0.5742187 z m 0,0"
       style="fill:#000000;fill-opacity:1;fill-rule:nonzero;stroke:none"
       aria-label="3"
       transform="matrix(1.3333333,0,0,1.3333333,324.53867,129.13867)" />
    <path
       id="path25"
       d="M -42.51993,-22.67767 H -19.8425 V -2.4e-4 h -22.67743 z"
       style="fill:none;stroke:#000000;stroke-width:0.3985;stroke-linecap:butt;stroke-linejoin:miter;stroke-miterlimit:10;stroke-dasharray:none;stroke-opacity:1"
       transform="matrix(1.3333333,0,0,-1.3333333,400.252,108.884)" />
    <path
       id="path26"
       d="m 4.3135078,-7.7827109 c 0,-0.2226563 0,-0.2929688 -0.1640625,-0.2929688 -0.09375,0 -0.1289062,0 -0.2226562,0.1523438 l -3.59765629,5.578125 v 0.3515625 H 3.4697578 v 1.07812496 c 0,0.4453125 -0.023437,0.5625 -0.9023437,0.5625 h -0.234375 v 0.3515625 c 0.2695312,-0.0234375 1.21875,-0.0234375 1.5585937,-0.0234375 0.328125,0 1.2890625,0 1.5585938,0.0234375 v -0.3515625 h -0.234375 c -0.8671875,0 -0.9023438,-0.1171875 -0.9023438,-0.5625 V -1.9936484 H 5.5205391 V -2.3452109 H 4.3135078 Z m -0.7851562,0.9375 v 4.5 H 0.62210156 Z m 0,0"
       style="fill:#000000;fill-opacity:1;fill-rule:nonzero;stroke:none"
       aria-label="4"
       transform="matrix(1.3333333,0,0,1.3333333,354.776,129.13867)" />
    <path
       id="path27"
       d="m 0.78492969,-7.3013906 c -0.1640625,0 -0.46875,0 -0.46875,0.3398437 0,0.3515625 0.31640625,0.3515625 0.48046875,0.3515625 H 1.0896172 v 5.91796878 H 0.79664844 c -0.1640625,0 -0.48046875,0 -0.48046875,0.33984375 0,0.351562495 0.31640625,0.351562495 0.46875,0.351562495 H 3.6208672 c 1.3242187,0 2.0273437,-1.054687525 2.0273437,-1.992187525 0,-0.8554687 -0.5859375,-1.6289062 -1.5234375,-1.828125 0.5976563,-0.1992187 1.2773438,-0.7734375 1.2773438,-1.6289062 0,-0.8789063 -0.703125,-1.8515625 -2.015625,-1.8515625 z m 1.07812501,3.1523437 v -2.4609375 h 1.4882812 c 0.984375,0 1.2773438,0.7382813 1.2773438,1.171875 0,0.5625 -0.46875,1.2890625 -1.4765625,1.2890625 z m 0,3.45703128 V -3.4576406 h 1.5703125 c 1.2070312,0 1.4414062,1.03125 1.4414062,1.4414062 0,0.5859375 -0.4570312,1.32421878 -1.5117187,1.32421878 z M -31.895734,9.5413828 c 0,-0.1875 0,-0.4570312 -0.328125,-0.4570312 -0.292969,0 -0.363282,0.28125 -0.363282,0.2929687 -0.480468,-0.2929687 -1.019531,-0.2929687 -1.265625,-0.2929687 -1.945312,0 -2.214843,0.9960934 -2.214843,1.4062504 0,0.480468 0.292968,0.820312 0.703125,1.042968 0.375,0.222657 0.726562,0.28125 1.699218,0.433594 0.46875,0.08203 1.429688,0.234375 1.429688,0.902344 0,0.433594 -0.410156,0.855469 -1.523438,0.855469 -0.761718,0 -1.265625,-0.304688 -1.511718,-1.160157 -0.05859,-0.164062 -0.09375,-0.292968 -0.398438,-0.292968 -0.398437,0 -0.398437,0.222656 -0.398437,0.457031 v 1.230469 c 0,0.199218 0,0.457031 0.339843,0.457031 0.140625,0 0.246094,0 0.433594,-0.492188 0.550781,0.457032 1.171875,0.492188 1.535156,0.492188 2.214844,0 2.214844,-1.429688 2.214844,-1.546875 0,-1.253906 -1.476562,-1.5 -2.050781,-1.582031 -1.054688,-0.175782 -1.769531,-0.304688 -1.769531,-0.796875 0,-0.328125 0.363281,-0.7148442 1.488281,-0.7148442 1.136719,0 1.183594,0.5390622 1.207031,0.8554692 0.02344,0.234375 0.246094,0.269531 0.386719,0.269531 0.386719,0 0.386719,-0.210938 0.386719,-0.457031 z m 6.128906,1.3007812 c 0,-1.1718749 -0.550781,-1.7226562 -1.523438,-1.7226562 -0.820312,0 -1.335937,0.4570313 -1.546875,0.6796875 V 7.5374766 c 0,-0.375 -0.07031,-0.4921875 -0.480468,-0.4921875 h -0.785157 c -0.164062,0 -0.480468,0 -0.480468,0.3398437 0,0.3515625 0.316406,0.3515625 0.480468,0.3515625 h 0.492188 v 5.9179687 h -0.492188 c -0.164062,0 -0.480468,0 -0.480468,0.339844 0,0.351562 0.316406,0.351562 0.480468,0.351562 h 1.757813 c 0.164062,0 0.480469,0 0.480469,-0.351562 0,-0.339844 -0.316407,-0.339844 -0.480469,-0.339844 h -0.492188 v -2.167969 c 0,-1.160156 0.820313,-1.6757809 1.464844,-1.6757809 0.691406,0 0.832031,0.3984379 0.832031,1.0781249 v 2.765625 h -0.492187 c -0.164063,0 -0.480469,0 -0.480469,0.339844 0,0.351562 0.316406,0.351562 0.480469,0.351562 h 1.757812 c 0.164063,0 0.480469,0 0.480469,-0.351562 0,-0.339844 -0.316406,-0.339844 -0.480469,-0.339844 h -0.492187 z m 6.105469,0.105469 c 0,-0.902344 -0.679688,-1.8632814 -2.296875,-1.8632814 -0.492188,0 -1.652344,0 -1.652344,0.8320312 0,0.3164062 0.222656,0.4921872 0.480469,0.4921872 0.08203,0 0.46875,-0.02344 0.480468,-0.5156247 0,-0.070312 0.01172,-0.082031 0.269532,-0.1054687 0.140625,-0.011719 0.292968,-0.011719 0.433593,-0.011719 0.28125,0 0.691407,0 1.078125,0.3046874 0.433594,0.328125 0.433594,0.667969 0.433594,1.019532 -0.703125,0.02344 -1.394531,0.07031 -2.144531,0.304687 -0.597656,0.199219 -1.359375,0.632813 -1.359375,1.441406 0,0.855469 0.75,1.570313 1.863281,1.570313 0.386719,0 1.125,-0.05859 1.746094,-0.492188 0.246094,0.398438 0.84375,0.421875 1.289062,0.421875 0.292969,0 0.574219,0 0.574219,-0.351562 0,-0.339844 -0.304687,-0.339844 -0.480469,-0.339844 -0.304687,0 -0.539062,-0.02344 -0.714843,-0.09375 z m -0.773438,1.816406 c 0,0.28125 0,0.527344 -0.492187,0.761719 -0.421875,0.199219 -0.972657,0.199219 -1.019532,0.199219 -0.703125,0 -1.21875,-0.386719 -1.21875,-0.878907 0,-0.703125 1.289063,-1.101562 2.730469,-1.101562 z m 4.394531,4.230469 c 0.164063,0 0.480469,0 0.480469,-0.339844 0,-0.351562 -0.316406,-0.351562 -0.480469,-0.351562 h -0.492187 v -2.554688 c 0.292969,0.328125 0.726562,0.667969 1.40625,0.667969 1.265625,0 2.378906,-1.136719 2.378906,-2.648438 0,-1.476562 -1.007812,-2.6484372 -2.25,-2.6484372 -0.878906,0 -1.429687,0.5273438 -1.535156,0.6445313 0,-0.3867188 0,-0.5742188 -0.480469,-0.5742188 h -0.785156 c -0.164063,0 -0.480469,0 -0.480469,0.3515625 0,0.3515625 0.316406,0.3515625 0.480469,0.3515625 h 0.492187 v 6.4101567 h -0.492187 c -0.164063,0 -0.480469,0 -0.480469,0.351562 0,0.339844 0.316406,0.339844 0.480469,0.339844 z m -0.492187,-5.824219 c 0,-0.679687 0.667969,-1.3593749 1.453125,-1.3593749 0.855469,0 1.546875,0.8789059 1.546875,1.9570309 0,1.148438 -0.808594,1.957032 -1.664063,1.957032 -0.890625,0 -1.335937,-1.019532 -1.335937,-1.617188 z m 9.1992186,0.878906 c 0.2578125,0 0.4804688,0 0.4804688,-0.445312 0,-1.394531 -0.7851563,-2.5195314 -2.2851563,-2.5195314 -1.3828121,0 -2.4960941,1.1953124 -2.4960941,2.6601564 0,1.5 1.207032,2.671875 2.6835941,2.671875 1.5351563,0 2.0976563,-1.066406 2.0976563,-1.371094 0,-0.07031 -0.023437,-0.339844 -0.3984375,-0.339844 -0.2226563,0 -0.2929688,0.08203 -0.3632813,0.269532 -0.3046875,0.691406 -1.078125,0.75 -1.3007812,0.75 -0.9960938,0 -1.7812504,-0.75 -1.9218754,-1.675782 z m -3.4921876,-0.65625 c 0.164063,-1.019531 0.9375001,-1.6171872 1.6875001,-1.6171872 1.1953125,0 1.453125,1.0195312 1.5,1.6171872 z m 9.86718763,-1.21875 c 0.15234375,0 0.515625,0 0.515625,-0.3867184 0,-0.3867188 -0.3984375,-0.3867188 -0.57421873,-0.3867188 h -4.1132813 c -0.1875,0 -0.5742187,0 -0.5742187,0.3867188 0,0.3867184 0.3632812,0.3867184 0.515625,0.3867184 z m -0.0585937,1.816407 c 0.17578126,0 0.57421876,0 0.57421876,-0.398438 0,-0.375 -0.375,-0.375 -0.515625,-0.375 H -5.1887031 c -0.1640625,0 -0.515625,0 -0.515625,0.375 0,0.398438 0.3867187,0.398438 0.5742187,0.398438 z m 6.140625,3.035156 c 0,-0.152344 -0.09375,-0.199219 -0.2578125,-0.316406 -1.6523438,-1.136719 -2.0507813,-2.847657 -2.0507813,-4.007813 0,-1.1367187 0.375,-2.8593749 2.0507813,-4.0195312 0.1640625,-0.1171875 0.2578125,-0.1640625 0.2578125,-0.3164062 0,-0.1289063 -0.070312,-0.3164063 -0.3515625,-0.3164063 -0.3046875,0 -1.1835938,0.6914063 -1.734375,1.4765625 -0.6679688,0.9257813 -1.0078125,2.0390625 -1.0078125,3.1757812 0,1.324219 0.4804687,2.4375 0.984375,3.140625 0.5507812,0.761719 1.4179687,1.5 1.7578125,1.5 0.28125,0 0.3515625,-0.210937 0.3515625,-0.316406 z M 9.7878594,7.3851328 c 0,-0.1757812 0,-0.4804687 -0.3398438,-0.4804687 -0.2109375,0 -0.28125,0.1054687 -0.3515625,0.2578125 -0.2226562,0.515625 -0.6210937,1.1484375 -1.2539062,1.1953125 -0.1757813,0.011719 -0.4335938,0.035156 -0.4335938,0.3515625 0,0.1992187 0.1171875,0.3398437 0.3867188,0.3398437 0.6679687,0 1.1835937,-0.5039062 1.21875,-0.5273437 V 13.654664 H 7.9597344 c -0.1640625,0 -0.4921875,0 -0.4921875,0.339844 0,0.351562 0.328125,0.351562 0.4921875,0.351562 h 2.8828126 c 0.164062,0 0.492187,0 0.492187,-0.351562 0,-0.339844 -0.328125,-0.339844 -0.492187,-0.339844 H 9.7878594 Z m 5.8242186,6.9257812 c -0.07031,0.375 -0.304687,0.820313 -0.890625,1.03125 -0.105469,0.02344 -0.28125,0.08203 -0.28125,0.304688 0,0.152343 0.175781,0.363281 0.363281,0.363281 0.328125,0 1.511719,-0.585938 1.511719,-1.875 0,-0.632813 -0.398437,-1.136719 -0.925781,-1.136719 -0.445313,0 -0.679688,0.339844 -0.679688,0.667969 0,0.398437 0.304688,0.679687 0.667969,0.679687 0.07031,0 0.152344,-0.01172 0.234375,-0.03516 z m 7.007813,-2.589844 c 0.164062,-0.152343 1.371093,-1.171875 1.371093,-2.5078122 0,-1.359375 -1.125,-2.3085937 -2.613281,-2.3085937 -1.382812,0 -2.308594,1.03125 -2.308594,2.0390625 0,0.5039062 0.421875,0.5390625 0.492188,0.5390625 0.210937,0 0.480469,-0.1640625 0.480469,-0.4921875 0,-0.2226563 -0.08203,-0.2929688 -0.152344,-0.3515625 0.175781,-0.6328125 0.726562,-1.0429688 1.417969,-1.0429688 1.007812,0 1.910156,0.5859375 1.910156,1.6171875 0,0.9375002 -0.703125,1.6523442 -1.347656,2.2148442 l -2.636719,2.285156 c -0.128906,0.105469 -0.164063,0.140625 -0.164063,0.28125 0,0.351562 0.328125,0.351562 0.492188,0.351562 h 4.171875 c 0.257812,-0.07031 0.257812,-0.316406 0.257812,-0.492187 v -0.246094 c 0,-0.222656 0,-0.492187 -0.375,-0.492187 -0.398437,0 -0.398437,0.246093 -0.398437,0.539062 h -2.882813 z m 5.293945,2.589844 c -0.07031,0.375 -0.304688,0.820313 -0.890625,1.03125 -0.105469,0.02344 -0.28125,0.08203 -0.28125,0.304688 0,0.152343 0.175781,0.363281 0.363281,0.363281 0.328125,0 1.511719,-0.585938 1.511719,-1.875 0,-0.632813 -0.398438,-1.136719 -0.925781,-1.136719 -0.445313,0 -0.679688,0.339844 -0.679688,0.667969 0,0.398437 0.304688,0.679687 0.667969,0.679687 0.07031,0 0.152344,-0.01172 0.234375,-0.03516 z m 7.007812,-2.589844 c 0.164063,-0.152343 1.371094,-1.171875 1.371094,-2.5078122 0,-1.359375 -1.125,-2.3085937 -2.613281,-2.3085937 -1.382813,0 -2.308594,1.03125 -2.308594,2.0390625 0,0.5039062 0.421875,0.5390625 0.492188,0.5390625 0.210937,0 0.480468,-0.1640625 0.480468,-0.4921875 0,-0.2226563 -0.08203,-0.2929688 -0.152343,-0.3515625 0.175781,-0.6328125 0.726562,-1.0429688 1.417968,-1.0429688 1.007813,0 1.910157,0.5859375 1.910157,1.6171875 0,0.9375002 -0.703125,1.6523442 -1.347657,2.2148442 l -2.636718,2.285156 c -0.128907,0.105469 -0.164063,0.140625 -0.164063,0.28125 0,0.351562 0.328125,0.351562 0.492188,0.351562 h 4.171875 c 0.257812,-0.07031 0.257812,-0.316406 0.257812,-0.492187 v -0.246094 c 0,-0.222656 0,-0.492187 -0.375,-0.492187 -0.398437,0 -0.398437,0.246093 -0.398437,0.539062 h -2.882813 z m 6.105469,-1.019531 c 0,-0.9374999 -0.222656,-2.1445312 -1.089844,-3.3046874 -0.410156,-0.5507813 -1.289062,-1.3476563 -1.652343,-1.3476563 -0.269532,0 -0.339844,0.1992188 -0.339844,0.3164063 0,0.140625 0.08203,0.1992187 0.292969,0.3398437 1.464843,1.03125 2.015625,2.6367188 2.015625,3.9843747 0,1.078125 -0.351563,2.835938 -2.0625,4.019532 -0.152344,0.105468 -0.246094,0.164062 -0.246094,0.316406 0,0.105469 0.07031,0.316406 0.339844,0.316406 0.304687,0 1.183593,-0.691406 1.734375,-1.476562 0.691406,-0.972657 1.007812,-2.097657 1.007812,-3.164063 z m 0,0"
       style="fill:#000000;fill-opacity:1;fill-rule:nonzero;stroke:none"
       aria-label="B&#10;shape=(1,2,2)"
       transform="matrix(1.3333333,0,0,1.3333333,339.45733,20.368)" />
    <path
       id="path28"
       d="m 8.0728672,-3.8658984 c 0.1640625,0 0.375,0 0.375,-0.2226563 0,-0.2226562 -0.1992188,-0.2226562 -0.375,-0.2226562 H 1.0298984 c -0.17578121,0 -0.38671871,0 -0.38671871,0.2109375 0,0.234375 0.19921875,0.234375 0.38671871,0.234375 z m 0,2.2148437 c 0.1640625,0 0.375,0 0.375,-0.2109375 0,-0.234375 -0.1992188,-0.234375 -0.375,-0.234375 H 1.0298984 c -0.17578121,0 -0.38671871,0 -0.38671871,0.2226563 0,0.2226562 0.19921875,0.2226562 0.38671871,0.2226562 z m 0,0"
       style="fill:#000000;fill-opacity:1;fill-rule:nonzero;stroke:none"
       aria-label="="
       transform="matrix(1.3333333,0,0,1.3333333,405.52133,111.76)" />
    <path
       id="path29"
       d="M 31.74855,12.7558 H 54.42598 V 35.43323 H 31.74855 Z"
       style="fill:#ffffff;fill-opacity:1;fill-rule:nonzero;stroke:#000000;stroke-width:0.3985;stroke-linecap:butt;stroke-linejoin:miter;stroke-miterlimit:10;stroke-dasharray:none;stroke-opacity:1"
       transform="matrix(1.3333333,0,0,-1.3333333,400.252,108.884)" />
    <path
       id="path30"
       d="M 5.260375,-2.0040078 H 4.9908437 c -0.035156,0.1992187 -0.1289062,0.8554687 -0.2460937,1.04296874 -0.082031,0.1171875 -0.7617188,0.1171875 -1.125,0.1171875 H 1.4049062 C 1.7330312,-1.1251016 2.4595937,-1.8868203 2.776,-2.1797891 c 1.8164062,-1.6640625 2.484375,-2.2851562 2.484375,-3.46875 0,-1.3828125 -1.0898438,-2.296875 -2.4726563,-2.296875 -1.3945312,0 -2.20312495,1.1835938 -2.20312495,2.203125 0,0.609375 0.52734375,0.609375 0.56249995,0.609375 0.2460938,0 0.5625,-0.1757812 0.5625,-0.5625 0,-0.328125 -0.234375,-0.5507812 -0.5625,-0.5507812 -0.1054687,0 -0.1289062,0 -0.16406245,0.011719 C 1.2056875,-7.0547888 1.8502187,-7.60557 2.6236562,-7.60557 c 1.0195313,0 1.640625,0.8554687 1.640625,1.9570312 0,1.0078125 -0.5859375,1.8984375 -1.265625,2.6601563 L 0.58459375,-0.28135156 V -1.015625e-4 H 4.9439687 Z m 0,0"
       style="fill:#000000;fill-opacity:1;fill-rule:nonzero;stroke:none"
       aria-label="2"
       transform="matrix(1.3333333,0,0,1.3333333,453.79867,81.894667)" />
    <path
       id="path31"
       d="M 54.42607,12.7558 H 77.1035 V 35.43323 H 54.42607 Z"
       style="fill:#ffffff;fill-opacity:1;fill-rule:nonzero;stroke:#000000;stroke-width:0.3985;stroke-linecap:butt;stroke-linejoin:miter;stroke-miterlimit:10;stroke-dasharray:none;stroke-opacity:1"
       transform="matrix(1.3333333,0,0,-1.3333333,400.252,108.884)" />
    <path
       id="path32"
       d="m 4.3128672,-7.7813516 c 0,-0.2226562 0,-0.2929687 -0.1640625,-0.2929687 -0.09375,0 -0.1289063,0 -0.2226563,0.1523437 l -3.59765621,5.578125 v 0.3515625 H 3.4691172 v 1.07812504 c 0,0.4453125 -0.023437,0.5625 -0.9023438,0.5625 H 2.3323984 V -1.015625e-4 C 2.6019297,-0.02353906 3.5511484,-0.02353906 3.8909922,-0.02353906 c 0.328125,0 1.2890625,0 1.5585937,0.0234374975 V -0.35166406 h -0.234375 c -0.8671875,0 -0.9023437,-0.1171875 -0.9023437,-0.5625 V -1.9922891 H 5.5198984 V -2.3438516 H 4.3128672 Z m -0.7851563,0.9375 v 4.5 H 0.62146094 Z m 0,0"
       style="fill:#000000;fill-opacity:1;fill-rule:nonzero;stroke:none"
       aria-label="4"
       transform="matrix(1.3333333,0,0,1.3333333,484.03467,81.894667)" />
    <path
       id="path33"
       d="M 31.74855,-9.92172 H 54.42598 V 12.75571 H 31.74855 Z"
       style="fill:#ffffff;fill-opacity:1;fill-rule:nonzero;stroke:#000000;stroke-width:0.3985;stroke-linecap:butt;stroke-linejoin:miter;stroke-miterlimit:10;stroke-dasharray:none;stroke-opacity:1"
       transform="matrix(1.3333333,0,0,-1.3333333,400.252,108.884)" />
    <path
       id="path34"
       d="m 1.4635,-4.1614766 c 0,-3.0234375 1.4765625,-3.5039062 2.1210937,-3.5039062 0.4335938,0 0.8554688,0.1289062 1.0898438,0.4921875 -0.140625,0 -0.5976563,0 -0.5976563,0.4921875 0,0.2578125 0.1757813,0.4921875 0.4921875,0.4921875 0.2929688,0 0.4921875,-0.1875 0.4921875,-0.5273438 0,-0.6210937 -0.4453125,-1.2304687 -1.4882812,-1.2304687 -1.5117188,0 -3.08203125,1.5351562 -3.08203125,4.171875 0,3.28124999 1.42968745,4.01953124 2.44921875,4.01953124 1.3007812,0 2.4140625,-1.125 2.4140625,-2.68359374 0,-1.59375 -1.1132813,-2.6601563 -2.3085938,-2.6601563 -1.0664062,0 -1.453125,0.9257813 -1.5820312,1.265625 z m 1.4765625,4.08984379 c -0.75,0 -1.1132813,-0.66796875 -1.21875,-0.92578125 C 1.6158437,-1.3021016 1.4986562,-1.8880391 1.4986562,-2.7317891 c 0,-0.9375 0.421875,-2.1210937 1.5,-2.1210937 0.65625,0 1.0078125,0.4453125 1.1835938,0.84375 0.1875,0.4453125 0.1875,1.0429687 0.1875,1.5585937 0,0.609375 0,1.1484375 -0.2226563,1.60546879 -0.3046875,0.57421875 -0.7265625,0.7734375 -1.2070312,0.7734375 z m 0,0"
       style="fill:#000000;fill-opacity:1;fill-rule:nonzero;stroke:none"
       aria-label="6"
       transform="matrix(1.3333333,0,0,1.3333333,453.79867,112.13067)" />
    <path
       id="path35"
       d="M 54.42607,-9.92172 H 77.1035 V 12.75571 H 54.42607 Z"
       style="fill:#ffffff;fill-opacity:1;fill-rule:nonzero;stroke:#000000;stroke-width:0.3985;stroke-linecap:butt;stroke-linejoin:miter;stroke-miterlimit:10;stroke-dasharray:none;stroke-opacity:1"
       transform="matrix(1.3333333,0,0,-1.3333333,400.252,108.884)" />
    <path
       id="path36"
       d="m 3.5628672,-4.3138203 c 0.5976562,-0.328125 1.4648437,-0.8789063 1.4648437,-1.875 0,-1.0429688 -0.9960937,-1.7578125 -2.0976562,-1.7578125 -1.1835938,0 -2.12109376,0.8671875 -2.12109376,1.9570312 0,0.4101563 0.12890625,0.8085938 0.45703126,1.21875 0.1289062,0.1523438 0.140625,0.1640625 0.984375,0.75 -1.1601563,0.5390625 -1.75781251,1.3476563 -1.75781251,2.2148438 0,1.26562499 1.20703121,2.05078124 2.42578121,2.05078124 1.3242188,0 2.4375,-0.97265625 2.4375,-2.22656254 0,-1.21875 -0.8554687,-1.7578125 -1.7929687,-2.3320312 z m -1.6289063,-1.078125 c -0.1523437,-0.1054688 -0.6328125,-0.421875 -0.6328125,-1.0078125 0,-0.7734375 0.8203125,-1.265625 1.6171875,-1.265625 0.8554688,0 1.6289063,0.6210937 1.6289063,1.4882812 0,0.7265625 -0.5273438,1.3125 -1.21875,1.6875 z m 0.5625,1.546875 1.453125,0.9375 c 0.3046875,0.1992187 0.8554688,0.5742187 0.8554688,1.3007812 0,0.91406254 -0.9140625,1.53515629 -1.875,1.53515629 -1.0195313,0 -1.8867188,-0.73828125 -1.8867188,-1.73437499 0,-0.9375 0.6796875,-1.6875 1.453125,-2.0390625 z m 0,0"
       style="fill:#000000;fill-opacity:1;fill-rule:nonzero;stroke:none"
       aria-label="8"
       transform="matrix(1.3333333,0,0,1.3333333,484.03467,112.13067)" />
    <path
       id="path37"
       d="M 19.84294,-1.5e-4 H 42.52037 V 22.67728 H 19.84294 Z"
       style="fill:#ffffff;fill-opacity:1;fill-rule:nonzero;stroke:#000000;stroke-width:0.3985;stroke-linecap:butt;stroke-linejoin:miter;stroke-miterlimit:10;stroke-dasharray:none;stroke-opacity:1"
       transform="matrix(1.3333333,0,0,-1.3333333,400.252,108.884)" />
    <path
       id="path38"
       d="m 3.4456484,-7.6643047 c 0,-0.2695312 0,-0.28125 -0.2460937,-0.28125 -0.28125,0.3164063 -0.8789063,0.7617188 -2.109375,0.7617188 v 0.3515625 c 0.2695312,0 0.8671875,0 1.5234375,-0.3164063 v 6.22265626 c 0,0.43359375 -0.035156,0.57421875 -1.078125,0.57421875 h -0.375 v 0.3515625025 c 0.3164062,-0.0234375025 1.4765625,-0.0234375025 1.875,-0.0234375025 0.3984375,0 1.546875,0 1.8632812,0.0234375025 V -0.35180469 H 4.5354922 c -1.0546875,0 -1.0898438,-0.140625 -1.0898438,-0.57421875 z m 0,0"
       style="fill:#000000;fill-opacity:1;fill-rule:nonzero;stroke:none"
       aria-label="1"
       transform="matrix(1.3333333,0,0,1.3333333,437.92533,98.902667)" />
    <path
       id="path39"
       d="M 42.52048,-1.5e-4 H 65.19791 V 22.67728 H 42.52048 Z"
       style="fill:#ffffff;fill-opacity:1;fill-rule:nonzero;stroke:#000000;stroke-width:0.3985;stroke-linecap:butt;stroke-linejoin:miter;stroke-miterlimit:10;stroke-dasharray:none;stroke-opacity:1"
       transform="matrix(1.3333333,0,0,-1.3333333,400.252,108.884)" />
    <path
       id="path40"
       d="M 5.2608359,-2.0041484 H 4.9913047 c -0.035156,0.1992187 -0.1289063,0.8554687 -0.2460938,1.04296871 -0.082031,0.1171875 -0.7617187,0.1171875 -1.125,0.1171875 H 1.4053672 c 0.328125,-0.28125001 1.0546875,-1.04296871 1.3710937,-1.33593751 1.8164063,-1.6640625 2.484375,-2.2851562 2.484375,-3.46875 0,-1.3828125 -1.0898437,-2.296875 -2.4726562,-2.296875 -1.3945313,0 -2.20312501,1.1835938 -2.20312501,2.203125 0,0.609375 0.52734371,0.609375 0.56250001,0.609375 0.2460937,0 0.5625,-0.1757812 0.5625,-0.5625 0,-0.328125 -0.234375,-0.5507812 -0.5625,-0.5507812 -0.1054688,0 -0.1289063,0 -0.16406251,0.011719 0.22265621,-0.8203125 0.86718751,-1.3710937 1.64062501,-1.3710937 1.0195312,0 1.640625,0.8554687 1.640625,1.9570312 0,1.0078125 -0.5859375,1.8984375 -1.265625,2.6601563 L 0.58505469,-0.28149219 V -2.421875e-4 H 4.9444297 Z m 0,0"
       style="fill:#000000;fill-opacity:1;fill-rule:nonzero;stroke:none"
       aria-label="2"
       transform="matrix(1.3333333,0,0,1.3333333,468.16133,98.902667)" />
    <path
       id="path41"
       d="M 19.84294,-22.67767 H 42.52037 V -2.4e-4 H 19.84294 Z"
       style="fill:#ffffff;fill-opacity:1;fill-rule:nonzero;stroke:#000000;stroke-width:0.3985;stroke-linecap:butt;stroke-linejoin:miter;stroke-miterlimit:10;stroke-dasharray:none;stroke-opacity:1"
       transform="matrix(1.3333333,0,0,-1.3333333,400.252,108.884)" />
    <path
       id="path42"
       d="m 2.2034609,-4.2905234 c -0.2109375,0.011719 -0.2578125,0.023437 -0.2578125,0.1289062 0,0.1171875 0.058594,0.1171875 0.28125,0.1171875 h 0.5507813 c 1.0078125,0 1.4648437,0.84375 1.4648437,1.9921875 0,1.55859376 -0.8085937,1.98046876 -1.3945312,1.98046876 -0.5742188,0 -1.5585938,-0.28125 -1.89843751,-1.06640626 0.37500001,0.058594 0.72656251,-0.1523437 0.72656251,-0.5859375 0,-0.3398437 -0.2578125,-0.5859375 -0.5859375,-0.5859375 -0.29296876,0 -0.59765626,0.1640625 -0.59765626,0.6210938 0,1.06640621 1.06640626,1.93359371 2.39062496,1.93359371 1.4179688,0 2.4726563,-1.078125 2.4726563,-2.28515621 0,-1.1015625 -0.890625,-1.96875 -2.0273438,-2.1679688 1.03125,-0.3046875 1.6992188,-1.171875 1.6992188,-2.109375 0,-0.9375 -0.9726563,-1.6289062 -2.1328125,-1.6289062 -1.1953125,0 -2.08593751,0.7265625 -2.08593751,1.59375 0,0.4804687 0.37500001,0.5742187 0.55078121,0.5742187 0.2578125,0 0.5390625,-0.1757812 0.5390625,-0.5390625 0,-0.375 -0.28125,-0.5390625 -0.5507812,-0.5390625 -0.070312,0 -0.09375,0 -0.1289063,0.011719 0.4570313,-0.8203125 1.5820313,-0.8203125 1.640625,-0.8203125 0.3867188,0 1.171875,0.1757812 1.171875,1.3476562 0,0.234375 -0.035156,0.9023438 -0.3867187,1.4179688 -0.3515625,0.5273437 -0.7617188,0.5625 -1.0898438,0.5742187 z m 0,0"
       style="fill:#000000;fill-opacity:1;fill-rule:nonzero;stroke:none"
       aria-label="3"
       transform="matrix(1.3333333,0,0,1.3333333,437.92533,129.13867)" />
    <path
       id="path43"
       d="M 42.52048,-22.67767 H 65.19791 V -2.4e-4 H 42.52048 Z"
       style="fill:#ffffff;fill-opacity:1;fill-rule:nonzero;stroke:#000000;stroke-width:0.3985;stroke-linecap:butt;stroke-linejoin:miter;stroke-miterlimit:10;stroke-dasharray:none;stroke-opacity:1"
       transform="matrix(1.3333333,0,0,-1.3333333,400.252,108.884)" />
    <path
       id="path44"
       d="m 4.3116172,-7.7827109 c 0,-0.2226563 0,-0.2929688 -0.1640625,-0.2929688 -0.09375,0 -0.1289063,0 -0.2226563,0.1523438 l -3.59765621,5.578125 v 0.3515625 H 3.4678672 v 1.07812496 c 0,0.4453125 -0.023437,0.5625 -0.9023438,0.5625 h -0.234375 v 0.3515625 c 0.2695313,-0.0234375 1.21875,-0.0234375 1.5585938,-0.0234375 0.328125,0 1.2890625,0 1.5585937,0.0234375 v -0.3515625 h -0.234375 c -0.8671875,0 -0.9023437,-0.1171875 -0.9023437,-0.5625 V -1.9936484 H 5.5186484 V -2.3452109 H 4.3116172 Z m -0.7851563,0.9375 v 4.5 H 0.62021094 Z m 0,0"
       style="fill:#000000;fill-opacity:1;fill-rule:nonzero;stroke:none"
       aria-label="4"
       transform="matrix(1.3333333,0,0,1.3333333,468.16133,129.13867)" />
    <path
       id="path45"
       d="m 5.6600938,-6.9967031 c 0,-0.1875 0,-0.4453125 -0.328125,-0.4453125 -0.2109375,0 -0.28125,0.1289062 -0.328125,0.2109375 -0.035156,0.09375 -0.1289063,0.3046875 -0.1640625,0.3984375 -0.4921875,-0.4335938 -1.0429688,-0.609375 -1.5351563,-0.609375 -1.546875,0 -2.82421875,1.640625 -2.82421875,3.7851562 0,2.1914063 1.31250005,3.79687503 2.82421875,3.79687503 1.3945313,0 2.3554688,-1.11328125 2.3554688,-2.15625003 0,-0.375 -0.2460938,-0.375 -0.3867188,-0.375 -0.1640625,0 -0.3632812,0.058594 -0.3867187,0.2578125 -0.09375,1.50000003 -1.3007813,1.58203128 -1.5,1.58203128 -1.1132813,0 -2.1328125,-1.30078128 -2.1328125,-3.10546878 0,-1.8046875 1.03125,-3.09375 2.1210937,-3.09375 0.6445313,0 1.3476563,0.515625 1.5117188,1.6054688 0.035156,0.2695312 0.140625,0.3398437 0.3867187,0.3398437 0.3867188,0 0.3867188,-0.2109375 0.3867188,-0.4570312 z M -31.89557,9.5413828 c 0,-0.1875 0,-0.4570312 -0.328125,-0.4570312 -0.292969,0 -0.363282,0.28125 -0.363282,0.2929687 -0.480468,-0.2929687 -1.019531,-0.2929687 -1.265625,-0.2929687 -1.945312,0 -2.214843,0.9960934 -2.214843,1.4062504 0,0.480468 0.292968,0.820312 0.703125,1.042968 0.375,0.222657 0.726562,0.28125 1.699218,0.433594 0.46875,0.08203 1.429688,0.234375 1.429688,0.902344 0,0.433594 -0.410156,0.855469 -1.523438,0.855469 -0.761718,0 -1.265625,-0.304688 -1.511718,-1.160157 -0.05859,-0.164062 -0.09375,-0.292968 -0.398438,-0.292968 -0.398437,0 -0.398437,0.222656 -0.398437,0.457031 v 1.230469 c 0,0.199218 0,0.457031 0.339843,0.457031 0.140625,0 0.246094,0 0.433594,-0.492188 0.550781,0.457032 1.171875,0.492188 1.535156,0.492188 2.214844,0 2.214844,-1.429688 2.214844,-1.546875 0,-1.253906 -1.476562,-1.5 -2.050781,-1.582031 -1.054688,-0.175782 -1.769531,-0.304688 -1.769531,-0.796875 0,-0.328125 0.363281,-0.7148442 1.488281,-0.7148442 1.136719,0 1.183594,0.5390622 1.207031,0.8554692 0.02344,0.234375 0.246094,0.269531 0.386719,0.269531 0.386719,0 0.386719,-0.210938 0.386719,-0.457031 z m 6.128906,1.3007812 c 0,-1.1718749 -0.550781,-1.7226562 -1.523438,-1.7226562 -0.820312,0 -1.335937,0.4570313 -1.546875,0.6796875 V 7.5374766 c 0,-0.375 -0.07031,-0.4921875 -0.480468,-0.4921875 h -0.785157 c -0.164062,0 -0.480468,0 -0.480468,0.3398437 0,0.3515625 0.316406,0.3515625 0.480468,0.3515625 h 0.492188 v 5.9179687 h -0.492188 c -0.164062,0 -0.480468,0 -0.480468,0.339844 0,0.351562 0.316406,0.351562 0.480468,0.351562 h 1.757813 c 0.164062,0 0.480469,0 0.480469,-0.351562 0,-0.339844 -0.316407,-0.339844 -0.480469,-0.339844 h -0.492188 v -2.167969 c 0,-1.160156 0.820313,-1.6757809 1.464844,-1.6757809 0.691406,0 0.832031,0.3984379 0.832031,1.0781249 v 2.765625 h -0.492187 c -0.164063,0 -0.480469,0 -0.480469,0.339844 0,0.351562 0.316406,0.351562 0.480469,0.351562 h 1.757812 c 0.164063,0 0.480469,0 0.480469,-0.351562 0,-0.339844 -0.316406,-0.339844 -0.480469,-0.339844 h -0.492187 z m 6.105469,0.105469 c 0,-0.902344 -0.679688,-1.8632814 -2.296875,-1.8632814 -0.492188,0 -1.652344,0 -1.652344,0.8320312 0,0.3164062 0.222656,0.4921872 0.480469,0.4921872 0.08203,0 0.46875,-0.02344 0.480468,-0.5156247 0,-0.070312 0.01172,-0.082031 0.269532,-0.1054687 0.140625,-0.011719 0.292968,-0.011719 0.433593,-0.011719 0.28125,0 0.691407,0 1.078125,0.3046874 0.433594,0.328125 0.433594,0.667969 0.433594,1.019532 -0.703125,0.02344 -1.394531,0.07031 -2.144531,0.304687 -0.597656,0.199219 -1.359375,0.632813 -1.359375,1.441406 0,0.855469 0.75,1.570313 1.863281,1.570313 0.386719,0 1.125,-0.05859 1.746094,-0.492188 0.246094,0.398438 0.84375,0.421875 1.289062,0.421875 0.292969,0 0.574219,0 0.574219,-0.351562 0,-0.339844 -0.304687,-0.339844 -0.480469,-0.339844 -0.304687,0 -0.539062,-0.02344 -0.714843,-0.09375 z m -0.773438,1.816406 c 0,0.28125 0,0.527344 -0.492187,0.761719 -0.421875,0.199219 -0.972657,0.199219 -1.019532,0.199219 -0.703125,0 -1.21875,-0.386719 -1.21875,-0.878907 0,-0.703125 1.289063,-1.101562 2.730469,-1.101562 z m 4.394531,4.230469 c 0.164063,0 0.480469,0 0.480469,-0.339844 0,-0.351562 -0.316406,-0.351562 -0.480469,-0.351562 h -0.492187 v -2.554688 c 0.292969,0.328125 0.726562,0.667969 1.40625,0.667969 1.265625,0 2.378906,-1.136719 2.378906,-2.648438 0,-1.476562 -1.007812,-2.6484372 -2.25,-2.6484372 -0.878906,0 -1.429687,0.5273438 -1.535156,0.6445313 0,-0.3867188 0,-0.5742188 -0.480469,-0.5742188 h -0.785156 c -0.164063,0 -0.480469,0 -0.480469,0.3515625 0,0.3515625 0.316406,0.3515625 0.480469,0.3515625 h 0.492187 v 6.4101567 h -0.492187 c -0.164063,0 -0.480469,0 -0.480469,0.351562 0,0.339844 0.316406,0.339844 0.480469,0.339844 z m -0.492187,-5.824219 c 0,-0.679687 0.667969,-1.3593749 1.453125,-1.3593749 0.855469,0 1.546875,0.8789059 1.546875,1.9570309 0,1.148438 -0.808594,1.957032 -1.664063,1.957032 -0.890625,0 -1.335937,-1.019532 -1.335937,-1.617188 z M -7.336,12.049195 c 0.2578125,0 0.4804688,0 0.4804688,-0.445312 0,-1.394531 -0.7851563,-2.5195314 -2.2851563,-2.5195314 -1.3828125,0 -2.4960935,1.1953124 -2.4960935,2.6601564 0,1.5 1.207031,2.671875 2.6835935,2.671875 1.5351563,0 2.0976563,-1.066406 2.0976563,-1.371094 0,-0.07031 -0.023437,-0.339844 -0.3984375,-0.339844 -0.2226563,0 -0.2929688,0.08203 -0.3632813,0.269532 -0.3046875,0.691406 -1.078125,0.75 -1.3007812,0.75 -0.9960938,0 -1.7812498,-0.75 -1.9218748,-1.675782 z m -3.492187,-0.65625 c 0.164062,-1.019531 0.9374995,-1.6171872 1.6874995,-1.6171872 1.1953125,0 1.453125,1.0195312 1.5,1.6171872 z M -0.961,10.174195 c 0.15234375,0 0.515625,0 0.515625,-0.3867184 0,-0.3867188 -0.3984375,-0.3867188 -0.5742187,-0.3867188 H -5.132875 c -0.1875,0 -0.5742187,0 -0.5742187,0.3867188 0,0.3867184 0.3632812,0.3867184 0.515625,0.3867184 z m -0.0585937,1.816407 c 0.1757812,0 0.5742187,0 0.5742187,-0.398438 0,-0.375 -0.375,-0.375 -0.515625,-0.375 h -4.2304687 c -0.1640625,0 -0.515625,0 -0.515625,0.375 0,0.398438 0.3867187,0.398438 0.5742187,0.398438 z m 6.140625,3.035156 c 0,-0.152344 -0.09375,-0.199219 -0.2578125,-0.316406 -1.6523438,-1.136719 -2.0507813,-2.847657 -2.0507813,-4.007813 0,-1.1367187 0.375,-2.8593749 2.0507813,-4.0195312 0.1640625,-0.1171875 0.2578125,-0.1640625 0.2578125,-0.3164062 0,-0.1289063 -0.070312,-0.3164063 -0.3515625,-0.3164063 -0.3046875,0 -1.1835938,0.6914063 -1.734375,1.4765625 -0.6679688,0.9257813 -1.0078125,2.0390625 -1.0078125,3.1757812 0,1.324219 0.4804687,2.4375 0.984375,3.140625 0.5507812,0.761719 1.4179687,1.5 1.7578125,1.5 0.28125,0 0.3515625,-0.210937 0.3515625,-0.316406 z M 10.312438,11.72107 c 0.164062,-0.152343 1.371093,-1.171875 1.371093,-2.5078122 0,-1.359375 -1.125,-2.3085937 -2.613281,-2.3085937 -1.3828125,0 -2.3085937,1.03125 -2.3085937,2.0390625 0,0.5039062 0.421875,0.5390625 0.4921875,0.5390625 0.2109375,0 0.4804687,-0.1640625 0.4804687,-0.4921875 0,-0.2226563 -0.082031,-0.2929688 -0.1523437,-0.3515625 C 7.75775,8.0062266 8.3085313,7.5960703 8.9999375,7.5960703 c 1.0078125,0 1.9101565,0.5859375 1.9101565,1.6171875 0,0.9375002 -0.703125,1.6523442 -1.3476565,2.2148442 l -2.6367187,2.285156 c -0.1289063,0.105469 -0.1640625,0.140625 -0.1640625,0.28125 0,0.351562 0.328125,0.351562 0.4921875,0.351562 h 4.1718752 c 0.257812,-0.07031 0.257812,-0.316406 0.257812,-0.492187 v -0.246094 c 0,-0.222656 0,-0.492187 -0.375,-0.492187 -0.398437,0 -0.398437,0.246093 -0.398437,0.539062 H 8.0272813 Z m 5.296875,2.589844 c -0.07031,0.375 -0.304688,0.820313 -0.890625,1.03125 -0.105469,0.02344 -0.28125,0.08203 -0.28125,0.304688 0,0.152343 0.175781,0.363281 0.363281,0.363281 0.328125,0 1.511719,-0.585938 1.511719,-1.875 0,-0.632813 -0.398438,-1.136719 -0.925782,-1.136719 -0.445312,0 -0.679687,0.339844 -0.679687,0.667969 0,0.398437 0.304687,0.679687 0.667969,0.679687 0.07031,0 0.152343,-0.01172 0.234375,-0.03516 z m 7.007812,-2.589844 c 0.164063,-0.152343 1.371094,-1.171875 1.371094,-2.5078122 0,-1.359375 -1.125,-2.3085937 -2.613281,-2.3085937 -1.382813,0 -2.308594,1.03125 -2.308594,2.0390625 0,0.5039062 0.421875,0.5390625 0.492187,0.5390625 0.210938,0 0.480469,-0.1640625 0.480469,-0.4921875 0,-0.2226563 -0.08203,-0.2929688 -0.152344,-0.3515625 0.175782,-0.6328125 0.726563,-1.0429688 1.417969,-1.0429688 1.007813,0 1.910156,0.5859375 1.910156,1.6171875 0,0.9375002 -0.703125,1.6523442 -1.347656,2.2148442 l -2.636719,2.285156 c -0.128906,0.105469 -0.164062,0.140625 -0.164062,0.28125 0,0.351562 0.328125,0.351562 0.492187,0.351562 h 4.171875 c 0.257813,-0.07031 0.257813,-0.316406 0.257813,-0.492187 v -0.246094 c 0,-0.222656 0,-0.492187 -0.375,-0.492187 -0.398438,0 -0.398438,0.246093 -0.398438,0.539062 H 20.331969 Z M 27.914,14.310914 c -0.07031,0.375 -0.304687,0.820313 -0.890625,1.03125 -0.105469,0.02344 -0.28125,0.08203 -0.28125,0.304688 0,0.152343 0.175781,0.363281 0.363281,0.363281 0.328125,0 1.511719,-0.585938 1.511719,-1.875 0,-0.632813 -0.398437,-1.136719 -0.925781,-1.136719 -0.445313,0 -0.679688,0.339844 -0.679688,0.667969 0,0.398437 0.304688,0.679687 0.667969,0.679687 0.07031,0 0.152344,-0.01172 0.234375,-0.03516 z m 7.007813,-2.589844 c 0.164062,-0.152343 1.371093,-1.171875 1.371093,-2.5078122 0,-1.359375 -1.125,-2.3085937 -2.613281,-2.3085937 -1.382812,0 -2.308594,1.03125 -2.308594,2.0390625 0,0.5039062 0.421875,0.5390625 0.492188,0.5390625 0.210937,0 0.480469,-0.1640625 0.480469,-0.4921875 0,-0.2226563 -0.08203,-0.2929688 -0.152344,-0.3515625 0.175781,-0.6328125 0.726562,-1.0429688 1.417969,-1.0429688 1.007812,0 1.910156,0.5859375 1.910156,1.6171875 0,0.9375002 -0.703125,1.6523442 -1.347656,2.2148442 l -2.636719,2.285156 c -0.128906,0.105469 -0.164063,0.140625 -0.164063,0.28125 0,0.351562 0.328125,0.351562 0.492188,0.351562 h 4.171875 c 0.257812,-0.07031 0.257812,-0.316406 0.257812,-0.492187 v -0.246094 c 0,-0.222656 0,-0.492187 -0.375,-0.492187 -0.398437,0 -0.398437,0.246093 -0.398437,0.539062 h -2.882813 z m 6.105468,-1.019531 c 0,-0.9374999 -0.222656,-2.1445312 -1.089843,-3.3046874 -0.410157,-0.5507813 -1.289063,-1.3476563 -1.652344,-1.3476563 -0.269531,0 -0.339844,0.1992188 -0.339844,0.3164063 0,0.140625 0.08203,0.1992187 0.292969,0.3398437 1.464844,1.03125 2.015625,2.6367188 2.015625,3.9843747 0,1.078125 -0.351563,2.835938 -2.0625,4.019532 -0.152344,0.105468 -0.246094,0.164062 -0.246094,0.316406 0,0.105469 0.07031,0.316406 0.339844,0.316406 0.304687,0 1.183594,-0.691406 1.734375,-1.476562 0.691406,-0.972657 1.007812,-2.097657 1.007812,-3.164063 z m 0,0"
       style="fill:#000000;fill-opacity:1;fill-rule:nonzero;stroke:none"
       aria-label="C&#10;shape=(2,2,2)"
       transform="matrix(1.3333333,0,0,1.3333333,460.78133,20.368)" />
    <path
       id="path46"
       d="m -137.95337,-55.1798 h 193.7012 v 26.63374 h -193.7012 z"
       style="fill:#ffffff;fill-opacity:1;fill-rule:nonzero;stroke:none"
       transform="matrix(1.3333333,0,0,-1.3333333,400.252,108.884)" />
    <path
       id="path47"
       d="m 1.9213203,-6.8077344 c 0,-0.375 -0.070312,-0.4921875 -0.4804687,-0.4921875 H 0.65569531 c -0.1640625,0 -0.48046875,0 -0.48046875,0.3398438 0,0.3515625 0.31640625,0.3515625 0.48046875,0.3515625 H 1.1478828 v 6.11718748 c 0,0.22265625 0,0.492187495 0.3984375,0.492187495 0.375,0 0.375,-0.246093745 0.375,-0.597656245 0.2929688,0.328125 0.7265625,0.66796875 1.40625,0.66796875 1.265625,0 2.3789063,-1.13671878 2.3789063,-2.64843748 0,-1.4765625 -1.0078125,-2.6484375 -2.25,-2.6484375 -0.8789063,0 -1.4296875,0.5273437 -1.5351563,0.6445312 z m 0,3.6328125 c 0,-0.6796875 0.6679688,-1.359375 1.453125,-1.359375 0.8554688,0 1.546875,0.8789063 1.546875,1.9570313 0,1.1484375 -0.8085937,1.95703123 -1.6640625,1.95703123 -0.890625,0 -1.3359375,-1.01953123 -1.3359375,-1.61718753 z m 9.1757817,-0.2226562 c 0,-0.9023438 -0.679688,-1.8632813 -2.2968754,-1.8632813 -0.4921875,0 -1.6523438,0 -1.6523438,0.8320313 0,0.3164062 0.2226563,0.4921875 0.4804688,0.4921875 0.082031,0 0.46875,-0.023437 0.4804687,-0.515625 0,-0.070312 0.011719,-0.082031 0.2695313,-0.1054688 0.140625,-0.011719 0.2929687,-0.011719 0.4335937,-0.011719 0.28125,0 0.6914063,0 1.078125,0.3046875 0.4335937,0.328125 0.4335937,0.6679687 0.4335937,1.0195312 -0.7031249,0.023437 -1.3945312,0.070312 -2.1445312,0.3046875 -0.5976562,0.1992188 -1.359375,0.6328125 -1.359375,1.4414063 0,0.85546873 0.75,1.57031248 1.8632813,1.57031248 0.3867187,0 1.125,-0.05859375 1.7460939,-0.4921875 0.246094,0.3984375 0.84375,0.421874995 1.289062,0.421874995 0.292969,0 0.574219,0 0.574219,-0.351562495 0,-0.33984375 -0.304687,-0.33984375 -0.480469,-0.33984375 -0.304687,0 -0.539062,-0.0234375 -0.714843,-0.09375 z m -0.773438,1.8164062 c 0,0.28125 0,0.5273438 -0.4921874,0.76171878 -0.421875,0.19921875 -0.9726563,0.19921875 -1.0195313,0.19921875 -0.703125,0 -1.21875,-0.38671873 -1.21875,-0.87890623 0,-0.703125 1.2890625,-1.1015625 2.7304687,-1.1015625 z m 4.558594,-2.8710937 h 1.945312 c 0.164063,0 0.46875,0 0.46875,-0.3515625 0,-0.3515625 -0.304687,-0.3515625 -0.46875,-0.3515625 h -1.945312 v -0.9726563 c 0,-0.2226562 0,-0.4921875 -0.375,-0.4921875 -0.398438,0 -0.398438,0.2695313 -0.398438,0.4921875 v 0.9726563 h -1.019531 c -0.164062,0 -0.480469,0 -0.480469,0.3515625 0,0.3515625 0.304688,0.3515625 0.46875,0.3515625 h 1.03125 v 3.0117187 c 0,1.10156253 0.761719,1.51171878 1.628907,1.51171878 0.644531,0 1.828125,-0.31640625 1.828125,-1.53515628 0,-0.2460937 0,-0.5039062 -0.398438,-0.5039062 -0.375,0 -0.375,0.2578125 -0.375,0.515625 -0.02344,0.71484373 -0.703125,0.83203123 -0.972656,0.83203123 -0.9375,0 -0.9375,-0.59765623 -0.9375,-0.89062503 z m 9.023437,3.1523437 c 0,-0.3164062 -0.292968,-0.3164062 -0.398437,-0.3164062 -0.269531,0 -0.316406,0.09375 -0.375,0.2695312 -0.269531,0.65625003 -0.855469,0.72656253 -1.136719,0.72656253 -1.019531,0 -1.875,-0.84375003 -1.875,-1.95703123 0,-0.609375 0.339844,-1.9921875 1.910156,-1.9921875 0.328125,0 0.574219,0.023437 0.679688,0.035156 0.08203,0.023437 0.09375,0.035156 0.09375,0.1054688 0.03516,0.4804687 0.410156,0.4921875 0.480469,0.4921875 0.269531,0 0.492187,-0.1757813 0.492187,-0.4921875 0,-0.8320313 -1.207031,-0.8320313 -1.734375,-0.8320313 -2.039062,0 -2.707031,1.6757813 -2.707031,2.6835938 0,1.453125 1.113281,2.64843748 2.554687,2.64843748 1.59375,0 2.015625,-1.18359378 2.015625,-1.37109358 z m 5.695313,-2.203125 c 0,-1.171875 -0.550781,-1.7226562 -1.523438,-1.7226562 -0.820312,0 -1.335937,0.4570312 -1.546875,0.6796875 v -2.2617188 c 0,-0.375 -0.07031,-0.4921875 -0.480468,-0.4921875 H 25.26507 c -0.164062,0 -0.480468,0 -0.480468,0.3398438 0,0.3515625 0.316406,0.3515625 0.480468,0.3515625 h 0.492188 v 5.91796873 H 25.26507 c -0.164062,0 -0.480468,0 -0.480468,0.33984375 0,0.351562495 0.316406,0.351562495 0.480468,0.351562495 h 1.757813 c 0.164062,0 0.480469,0 0.480469,-0.351562495 0,-0.33984375 -0.316407,-0.33984375 -0.480469,-0.33984375 H 26.530695 V -2.8585156 c 0,-1.1601563 0.820313,-1.6757813 1.464844,-1.6757813 0.691406,0 0.832031,0.3984375 0.832031,1.078125 v 2.76562503 h -0.492187 c -0.164063,0 -0.480469,0 -0.480469,0.33984375 0,0.351562495 0.316406,0.351562495 0.480469,0.351562495 h 1.757812 c 0.164063,0 0.480469,0 0.480469,-0.351562495 0,-0.33984375 -0.316406,-0.33984375 -0.480469,-0.33984375 h -0.492187 z m 12.249023,0.1054688 c 0,-0.9023438 -0.679687,-1.8632813 -2.296875,-1.8632813 -0.492187,0 -1.652343,0 -1.652343,0.8320313 0,0.3164062 0.222656,0.4921875 0.480468,0.4921875 0.08203,0 0.46875,-0.023437 0.480469,-0.515625 0,-0.070312 0.01172,-0.082031 0.269531,-0.1054688 0.140625,-0.011719 0.292969,-0.011719 0.433594,-0.011719 0.28125,0 0.691406,0 1.078125,0.3046875 0.433594,0.328125 0.433594,0.6679687 0.433594,1.0195312 -0.703125,0.023437 -1.394531,0.070312 -2.144531,0.3046875 -0.597657,0.1992188 -1.359375,0.6328125 -1.359375,1.4414063 0,0.85546873 0.75,1.57031248 1.863281,1.57031248 0.386719,0 1.125,-0.05859375 1.746094,-0.4921875 0.246093,0.3984375 0.84375,0.421874995 1.289062,0.421874995 0.292969,0 0.574219,0 0.574219,-0.351562495 0,-0.33984375 -0.304688,-0.33984375 -0.480469,-0.33984375 -0.304687,0 -0.539062,-0.0234375 -0.714844,-0.09375 z m -0.773437,1.8164062 c 0,0.28125 0,0.5273438 -0.492188,0.76171878 -0.421875,0.19921875 -0.972656,0.19921875 -1.019531,0.19921875 -0.703125,0 -1.21875,-0.38671873 -1.21875,-0.87890623 0,-0.703125 1.289063,-1.1015625 2.730469,-1.1015625 z m 5.355469,-1.0664062 1.371093,-1.8046875 h 0.421875 c 0.164063,0 0.46875,0 0.46875,-0.3515625 0,-0.3515625 -0.304687,-0.3515625 -0.46875,-0.3515625 h -1.335937 c -0.164063,0 -0.46875,0 -0.46875,0.3515625 0,0.3515625 0.28125,0.3515625 0.574219,0.3515625 l -0.902344,1.2304687 -0.914063,-1.2304687 c 0.269532,0 0.550782,0 0.550782,-0.3515625 0,-0.3515625 -0.304688,-0.3515625 -0.46875,-0.3515625 H 43.92425 c -0.164062,0 -0.46875,0 -0.46875,0.3515625 0,0.3515625 0.304688,0.3515625 0.46875,0.3515625 h 0.421875 l 1.429688,1.8046875 -1.5,1.95703123 h -0.410157 c -0.164062,0 -0.480468,0 -0.480468,0.33984375 0,0.351562495 0.316406,0.351562495 0.480468,0.351562495 h 1.324219 c 0.164063,0 0.46875,0 0.46875,-0.351562495 0,-0.33984375 -0.269531,-0.33984375 -0.597656,-0.33984375 l 1.03125,-1.51171873 1.078125,1.51171873 c -0.304688,0 -0.585938,0 -0.585938,0.33984375 0,0.351562495 0.304688,0.351562495 0.480469,0.351562495 h 1.324219 c 0.164062,0 0.480469,0 0.480469,-0.351562495 0,-0.33984375 -0.316407,-0.33984375 -0.480469,-0.33984375 h -0.421875 z m 7.746093,0.3515625 c 0.257813,0 0.480469,0 0.480469,-0.4453125 0,-1.3945313 -0.785156,-2.5195313 -2.285156,-2.5195313 -1.382813,0 -2.496094,1.1953125 -2.496094,2.6601563 0,1.5 1.207031,2.67187498 2.683594,2.67187498 1.535156,0 2.097656,-1.06640625 2.097656,-1.37109378 0,-0.070312 -0.02344,-0.3398437 -0.398437,-0.3398437 -0.222657,0 -0.292969,0.082031 -0.363282,0.2695312 -0.304687,0.69140628 -1.078125,0.75000003 -1.300781,0.75000003 -0.996094,0 -1.78125,-0.75000003 -1.921875,-1.67578123 z m -3.492187,-0.65625 c 0.164062,-1.0195313 0.9375,-1.6171875 1.6875,-1.6171875 1.195312,0 1.453125,1.0195312 1.5,1.6171875 z m 9.691406,-1.8515625 c 0,-0.1875 0,-0.4570313 -0.328125,-0.4570313 -0.292969,0 -0.363281,0.28125 -0.363281,0.2929688 -0.480469,-0.2929688 -1.019531,-0.2929688 -1.265625,-0.2929688 -1.945313,0 -2.214844,0.9960938 -2.214844,1.40625 0,0.4804688 0.292969,0.8203125 0.703125,1.0429688 0.375,0.2226562 0.726563,0.28125 1.699219,0.4335937 0.46875,0.082031 1.429687,0.234375 1.429687,0.9023438 0,0.4335937 -0.410156,0.85546873 -1.523437,0.85546873 -0.761719,0 -1.265625,-0.3046875 -1.511719,-1.16015623 -0.05859,-0.1640625 -0.09375,-0.2929688 -0.398437,-0.2929688 -0.398438,0 -0.398438,0.2226563 -0.398438,0.4570313 v 1.23046873 c 0,0.19921875 0,0.45703125 0.339844,0.45703125 0.140625,0 0.246094,0 0.433594,-0.4921875 0.550781,0.45703125 1.171875,0.4921875 1.535156,0.4921875 2.214844,0 2.214844,-1.42968748 2.214844,-1.54687498 0,-1.2539063 -1.476563,-1.5 -2.050782,-1.5820313 -1.054687,-0.1757812 -1.769531,-0.3046875 -1.769531,-0.796875 0,-0.328125 0.363281,-0.7148437 1.488281,-0.7148437 1.136719,0 1.183594,0.5390625 1.207032,0.8554687 0.02344,0.234375 0.246093,0.2695313 0.386718,0.2695313 0.386719,0 0.386719,-0.2109375 0.386719,-0.4570313 z m 4.886719,0.3398437 c 0,-0.3984375 -0.316406,-0.6914062 -0.667969,-0.6914062 -0.375,0 -0.679687,0.3046875 -0.679687,0.6914062 0,0.3515625 0.316406,0.6679688 0.667968,0.6679688 0.398438,0 0.679688,-0.328125 0.679688,-0.6679688 z m 0,3.79687503 c 0,-0.39843753 -0.316406,-0.67968753 -0.667969,-0.67968753 -0.375,0 -0.679687,0.2929688 -0.679687,0.67968753 0,0.3515625 0.316406,0.667968745 0.667968,0.667968745 0.398438,0 0.679688,-0.328124995 0.679688,-0.667968745 z m 19.836914,1.34765625 c 0,-0.15234375 -0.09375,-0.19921875 -0.257813,-0.31640625 -1.652343,-1.13671875 -2.050781,-2.84765623 -2.050781,-4.00781253 0,-1.1367187 0.375,-2.859375 2.050781,-4.0195312 0.164063,-0.1171875 0.257813,-0.1640625 0.257813,-0.3164063 0,-0.1289062 -0.07031,-0.3164062 -0.351563,-0.3164062 -0.304687,0 -1.183593,0.6914062 -1.734375,1.4765625 -0.667968,0.9257812 -1.007812,2.0390625 -1.007812,3.1757812 0,1.3242188 0.480469,2.4375 0.984375,3.14062503 0.550781,0.76171875 1.417969,1.5 1.757812,1.5 0.28125,0 0.351563,-0.2109375 0.351563,-0.31640625 z m 5.191406,-3.30468748 c 0.164063,-0.1523438 1.371094,-1.171875 1.371094,-2.5078125 0,-1.359375 -1.125,-2.3085938 -2.613281,-2.3085938 -1.382813,0 -2.308594,1.03125 -2.308594,2.0390625 0,0.5039063 0.421875,0.5390625 0.492187,0.5390625 0.210938,0 0.480469,-0.1640625 0.480469,-0.4921875 0,-0.2226562 -0.08203,-0.2929687 -0.152344,-0.3515625 0.175782,-0.6328125 0.726563,-1.0429687 1.417969,-1.0429687 1.007813,0 1.910156,0.5859375 1.910156,1.6171875 0,0.9375 -0.703125,1.6523437 -1.347656,2.2148437 l -2.636719,2.28515628 c -0.128906,0.10546875 -0.164062,0.140625 -0.164062,0.28125 0,0.351562495 0.328125,0.351562495 0.492187,0.351562495 h 4.171875 c 0.257813,-0.070312495 0.257813,-0.316406245 0.257813,-0.492187495 v -0.24609375 c 0,-0.22265625 0,-0.49218753 -0.375,-0.49218753 -0.398438,0 -0.398438,0.24609378 -0.398438,0.53906253 h -2.882812 z m 6.105469,-1.0195313 c 0,-0.9375 -0.222656,-2.1445312 -1.089844,-3.3046875 -0.410156,-0.5507812 -1.289062,-1.3476562 -1.652344,-1.3476562 -0.269531,0 -0.339843,0.1992187 -0.339843,0.3164062 0,0.140625 0.08203,0.1992188 0.292968,0.3398438 1.464844,1.03125 2.015625,2.6367187 2.015625,3.984375 0,1.078125 -0.351562,2.83593748 -2.0625,4.01953123 -0.152343,0.10546875 -0.246093,0.1640625 -0.246093,0.31640625 0,0.10546875 0.07031,0.31640625 0.339843,0.31640625 0.304688,0 1.183594,-0.69140625 1.734375,-1.4765625 0.691407,-0.97265623 1.007813,-2.09765623 1.007813,-3.16406253 z m 13.127927,0.2460938 c 0,-0.9023438 -0.67968,-1.8632813 -2.29687,-1.8632813 -0.49219,0 -1.65235,0 -1.65235,0.8320313 0,0.3164062 0.22266,0.4921875 0.48047,0.4921875 0.082,0 0.46875,-0.023437 0.48047,-0.515625 0,-0.070312 0.0117,-0.082031 0.26953,-0.1054688 0.14063,-0.011719 0.29297,-0.011719 0.4336,-0.011719 0.28125,0 0.6914,0 1.07812,0.3046875 0.4336,0.328125 0.4336,0.6679687 0.4336,1.0195312 -0.70313,0.023437 -1.39454,0.070312 -2.14454,0.3046875 -0.59765,0.1992188 -1.35937,0.6328125 -1.35937,1.4414063 0,0.85546873 0.75,1.57031248 1.86328,1.57031248 0.38672,0 1.125,-0.05859375 1.74609,-0.4921875 0.2461,0.3984375 0.84375,0.421874995 1.28907,0.421874995 0.29297,0 0.57422,0 0.57422,-0.351562495 0,-0.33984375 -0.30469,-0.33984375 -0.48047,-0.33984375 -0.30469,0 -0.53907,-0.0234375 -0.71485,-0.09375 z m -0.77343,1.8164062 c 0,0.28125 0,0.5273438 -0.49219,0.76171878 -0.42188,0.19921875 -0.97266,0.19921875 -1.01953,0.19921875 -0.70313,0 -1.21875,-0.38671873 -1.21875,-0.87890623 0,-0.703125 1.28906,-1.1015625 2.73047,-1.1015625 z m 6.97265,-1.921875 c 0,-1.171875 -0.55078,-1.7226562 -1.52344,-1.7226562 -0.82031,0 -1.33593,0.4570312 -1.54687,0.6796875 0,-0.4335938 0,-0.609375 -0.48047,-0.609375 h -0.78516 c -0.16406,0 -0.48046,0 -0.48046,0.3515625 0,0.3515625 0.3164,0.3515625 0.48046,0.3515625 h 0.49219 v 3.76171873 h -0.49219 c -0.16406,0 -0.48046,0 -0.48046,0.33984375 0,0.351562495 0.3164,0.351562495 0.48046,0.351562495 h 1.75782 c 0.16406,0 0.48047,0 0.48047,-0.351562495 0,-0.33984375 -0.31641,-0.33984375 -0.48047,-0.33984375 h -0.49219 V -2.8585156 c 0,-1.1601563 0.82031,-1.6757813 1.46484,-1.6757813 0.69141,0 0.83203,0.3984375 0.83203,1.078125 v 2.76562503 h -0.49218 c -0.16407,0 -0.48047,0 -0.48047,0.33984375 0,0.351562495 0.3164,0.351562495 0.48047,0.351562495 h 1.75781 c 0.16406,0 0.48047,0 0.48047,-0.351562495 0,-0.33984375 -0.31641,-0.33984375 -0.48047,-0.33984375 h -0.49219 z m 6.15235,-3.3046875 c 0,-0.375 -0.0703,-0.4921875 -0.46875,-0.4921875 h -0.79688 c -0.16406,0 -0.48047,0 -0.48047,0.3398438 0,0.3515625 0.31641,0.3515625 0.48047,0.3515625 h 0.49219 v 1.9804687 c -0.1875,-0.1875 -0.67969,-0.5976562 -1.40625,-0.5976562 -1.26563,0 -2.36719,1.1484375 -2.36719,2.6601562 0,1.4648438 1.01953,2.63671878 2.26172,2.63671878 0.77344,0 1.28906,-0.46875 1.51172,-0.7265625 0,0.50390625 0,0.656249995 0.48047,0.656249995 h 0.78515 c 0.16407,0 0.48047,0 0.48047,-0.351562495 0,-0.33984375 -0.3164,-0.33984375 -0.48047,-0.33984375 h -0.49218 z m -0.77344,4.5351563 c 0,0.6679687 -0.55078,1.65234373 -1.44141,1.65234373 -0.86719,0 -1.55859,-0.87890623 -1.55859,-1.94531253 0,-1.1484375 0.80859,-1.96875 1.66406,-1.96875 0.77344,0 1.33594,0.7148438 1.33594,1.3359375 z m 13.21289,2.95312498 c 0,-0.15234375 -0.0937,-0.19921875 -0.25781,-0.31640625 -1.65235,-1.13671875 -2.05079,-2.84765623 -2.05079,-4.00781253 0,-1.1367187 0.375,-2.859375 2.05079,-4.0195312 0.16406,-0.1171875 0.25781,-0.1640625 0.25781,-0.3164063 0,-0.1289062 -0.0703,-0.3164062 -0.35156,-0.3164062 -0.30469,0 -1.1836,0.6914062 -1.73438,1.4765625 -0.66797,0.9257812 -1.00781,2.0390625 -1.00781,3.1757812 0,1.3242188 0.48047,2.4375 0.98437,3.14062503 0.55078,0.76171875 1.41797,1.5 1.75782,1.5 0.28125,0 0.35156,-0.2109375 0.35156,-0.31640625 z m 4.66406,-7.64062498 c 0,-0.1757813 0,-0.4804688 -0.33984,-0.4804688 -0.21094,0 -0.28125,0.1054688 -0.35157,0.2578125 -0.22265,0.515625 -0.62109,1.1484375 -1.2539,1.1953125 -0.17578,0.011719 -0.4336,0.035156 -0.4336,0.3515625 0,0.1992188 0.11719,0.3398438 0.38672,0.3398438 0.66797,0 1.1836,-0.5039063 1.21875,-0.5273438 v 5.13281253 h -1.05468 c -0.16407,0 -0.49219,0 -0.49219,0.33984375 0,0.351562495 0.32812,0.351562495 0.49219,0.351562495 h 2.88281 c 0.16406,0 0.49219,0 0.49219,-0.351562495 0,-0.33984375 -0.32813,-0.33984375 -0.49219,-0.33984375 h -1.05469 z m 6.63281,3.3164062 c 0,-0.9375 -0.22265,-2.1445312 -1.08984,-3.3046875 -0.41016,-0.5507812 -1.28906,-1.3476562 -1.65234,-1.3476562 -0.26954,0 -0.33985,0.1992187 -0.33985,0.3164062 0,0.140625 0.082,0.1992188 0.29297,0.3398438 1.46484,1.03125 2.01563,2.6367187 2.01563,3.984375 0,1.078125 -0.35157,2.83593748 -2.0625,4.01953123 -0.15235,0.10546875 -0.2461,0.1640625 -0.2461,0.31640625 0,0.10546875 0.0703,0.31640625 0.33985,0.31640625 0.30468,0 1.18359,-0.69140625 1.73437,-1.4765625 0.69141,-0.97265623 1.00781,-2.09765623 1.00781,-3.16406253 z m 13.12793,0.3867188 c 0.16407,0 0.53907,0 0.53907,-0.3867188 0,-0.3984375 -0.36329,-0.3984375 -0.53907,-0.3984375 h -3.75 c -0.15234,0 -0.53906,0 -0.53906,0.3867188 0,0.3984375 0.375,0.3984375 0.53906,0.3984375 z m 6.46875,-0.035156 c 0.14063,-0.082031 0.22266,-0.2109375 0.22266,-0.3515625 0,-0.2109375 -0.12891,-0.3046875 -0.22266,-0.3632812 l -3.92578,-2.4960938 c -0.082,-0.046875 -0.17578,-0.1171875 -0.28125,-0.1171875 -0.1875,0 -0.39844,0.140625 -0.39844,0.3984375 0,0.2109375 0.12891,0.28125 0.25782,0.3632813 l 3.45703,2.203125 -3.45703,2.2148437 c -0.12891,0.082031 -0.25782,0.1523438 -0.25782,0.3632813 0,0.25781248 0.21094,0.39843748 0.39844,0.39843748 l 0.0234,-0.0117188 c 0.0937,-0.0117188 0.11719,-0.0117188 0.24609,-0.10546875 z m 12.167,3.97265628 c 0,-0.15234375 -0.0937,-0.19921875 -0.25782,-0.31640625 -1.65234,-1.13671875 -2.05078,-2.84765623 -2.05078,-4.00781253 0,-1.1367187 0.375,-2.859375 2.05078,-4.0195312 0.16407,-0.1171875 0.25782,-0.1640625 0.25782,-0.3164063 0,-0.1289062 -0.0703,-0.3164062 -0.35157,-0.3164062 -0.30468,0 -1.18359,0.6914062 -1.73437,1.4765625 -0.66797,0.9257812 -1.00781,2.0390625 -1.00781,3.1757812 0,1.3242188 0.48046,2.4375 0.98437,3.14062503 0.55078,0.76171875 1.41797,1.5 1.75781,1.5 0.28125,0 0.35157,-0.2109375 0.35157,-0.31640625 z m 5.1914,-3.30468748 c 0.16406,-0.1523438 1.3711,-1.171875 1.3711,-2.5078125 0,-1.359375 -1.125,-2.3085938 -2.61329,-2.3085938 -1.38281,0 -2.30859,1.03125 -2.30859,2.0390625 0,0.5039063 0.42188,0.5390625 0.49219,0.5390625 0.21094,0 0.48047,-0.1640625 0.48047,-0.4921875 0,-0.2226562 -0.082,-0.2929687 -0.15235,-0.3515625 0.17578,-0.6328125 0.72657,-1.0429687 1.41797,-1.0429687 1.00781,0 1.91016,0.5859375 1.91016,1.6171875 0,0.9375 -0.70313,1.6523437 -1.34766,2.2148437 l -2.63672,2.28515628 c -0.1289,0.10546875 -0.16406,0.140625 -0.16406,0.28125 0,0.351562495 0.32813,0.351562495 0.49219,0.351562495 h 4.17187 c 0.25782,-0.070312495 0.25782,-0.316406245 0.25782,-0.492187495 v -0.24609375 c 0,-0.22265625 0,-0.49218753 -0.375,-0.49218753 -0.39844,0 -0.39844,0.24609378 -0.39844,0.53906253 h -2.88281 z m 6.10547,-1.0195313 c 0,-0.9375 -0.22266,-2.1445312 -1.08984,-3.3046875 -0.41016,-0.5507812 -1.28907,-1.3476562 -1.65235,-1.3476562 -0.26953,0 -0.33984,0.1992187 -0.33984,0.3164062 0,0.140625 0.082,0.1992188 0.29297,0.3398438 1.46484,1.03125 2.01562,2.6367187 2.01562,3.984375 0,1.078125 -0.35156,2.83593748 -2.0625,4.01953123 -0.15234,0.10546875 -0.24609,0.1640625 -0.24609,0.31640625 0,0.10546875 0.0703,0.31640625 0.33984,0.31640625 0.30469,0 1.1836,-0.69140625 1.73438,-1.4765625 0.6914,-0.97265623 1.00781,-2.09765623 1.00781,-3.16406253 z M 0.78460156,7.0438281 c -0.1640625,0 -0.46875,0 -0.46875,0.3398438 0,0.3515625 0.31640625,0.3515625 0.48046875,0.3515625 H 1.0892891 V 13.653203 H 0.79632031 c -0.1640625,0 -0.48046875,0 -0.48046875,0.339844 0,0.351562 0.31640625,0.351562 0.46875,0.351562 H 3.6205391 c 1.3242187,0 2.0273437,-1.054687 2.0273437,-1.992187 0,-0.855469 -0.5859375,-1.628906 -1.5234375,-1.828125 0.5976563,-0.199219 1.2773438,-0.7734376 1.2773438,-1.6289064 0,-0.8789062 -0.703125,-1.8515625 -2.015625,-1.8515625 z M 1.8627266,10.196172 V 7.7352344 h 1.4882812 c 0.984375,0 1.2773438,0.7382812 1.2773438,1.171875 0,0.5625 -0.46875,1.2890626 -1.4765625,1.2890626 z m 0,3.457031 v -2.765625 h 1.5703125 c 1.2070312,0 1.4414062,1.03125 1.4414062,1.441406 0,0.585938 -0.4570312,1.324219 -1.5117187,1.324219 z M 11.343195,6.7391406 c 0.164063,0 0.46875,0 0.46875,-0.3398437 0,-0.3515625 -0.304687,-0.3515625 -0.46875,-0.3515625 H 9.2572578 c -0.3867187,0 -0.4804687,0.1054687 -0.4804687,0.4921875 v 8.3085941 c 0,0.363281 0.082031,0.492187 0.4804687,0.492187 h 2.0859372 c 0.164063,0 0.46875,0 0.46875,-0.351562 0,-0.339844 -0.304687,-0.339844 -0.46875,-0.339844 H 9.5619453 V 6.7391406 Z m 6.503907,3.9609374 c 0,-2.2265624 -1.183594,-3.7968749 -2.472657,-3.7968749 -1.300781,0 -2.472656,1.59375 -2.472656,3.7851559 0,2.226563 1.183594,3.796875 2.472656,3.796875 1.300782,0 2.472657,-1.59375 2.472657,-3.785156 z m -2.472657,3.09375 c -0.9375,0 -1.699218,-1.441406 -1.699218,-3.222656 0,-1.7812501 0.832031,-2.9765626 1.699218,-2.9765626 0.878907,0 1.699219,1.1953125 1.699219,2.9765626 0,1.769531 -0.75,3.222656 -1.699219,3.222656 z m 6.597657,-7.2539061 c 0,-0.375 -0.07031,-0.4921875 -0.480469,-0.4921875 h -2.074219 c -0.175781,0 -0.480469,0 -0.480469,0.3515625 0,0.3398437 0.304688,0.3398437 0.480469,0.3398437 h 1.78125 v 7.9101564 h -1.78125 c -0.175781,0 -0.480469,0 -0.480469,0.339844 0,0.351562 0.304688,0.351562 0.480469,0.351562 h 2.074219 c 0.398437,0 0.480469,-0.117187 0.480469,-0.492187 z m 12.389648,1.03125 c 0,-0.3046875 -0.234375,-0.5390625 -0.539062,-0.5390625 -0.292969,0 -0.539063,0.234375 -0.539063,0.5390625 0,0.2929687 0.246094,0.5390625 0.539063,0.5390625 0.304687,0 0.539062,-0.2460938 0.539062,-0.5390625 z m -2.050781,1.6171875 c -0.175781,0 -0.480469,0 -0.480469,0.3515625 0,0.3515625 0.304688,0.3515625 0.480469,0.3515625 h 1.277344 v 3.7617186 h -1.371094 c -0.164063,0 -0.480469,0 -0.480469,0.339844 0,0.351562 0.316406,0.351562 0.480469,0.351562 h 3.328125 c 0.164062,0 0.480469,0 0.480469,-0.351562 0,-0.339844 -0.316407,-0.339844 -0.480469,-0.339844 H 34.36175 V 9.6805469 c 0,-0.3632813 -0.07031,-0.4921875 -0.480469,-0.4921875 z m 9.609375,0.3515625 c 0,-0.1875 0,-0.4570313 -0.328125,-0.4570313 -0.292969,0 -0.363281,0.28125 -0.363281,0.2929688 -0.480469,-0.2929688 -1.019532,-0.2929688 -1.265625,-0.2929688 -1.945313,0 -2.214844,0.9960934 -2.214844,1.4062504 0,0.480468 0.292969,0.820312 0.703125,1.042968 0.375,0.222657 0.726562,0.28125 1.699219,0.433594 0.46875,0.08203 1.429687,0.234375 1.429687,0.902344 0,0.433594 -0.410156,0.855469 -1.523437,0.855469 -0.761719,0 -1.265625,-0.304688 -1.511719,-1.160157 -0.05859,-0.164062 -0.09375,-0.292968 -0.398438,-0.292968 -0.398437,0 -0.398437,0.222656 -0.398437,0.457031 v 1.230469 c 0,0.199218 0,0.457031 0.339844,0.457031 0.140625,0 0.246093,0 0.433593,-0.492188 0.550782,0.457032 1.171875,0.492188 1.535157,0.492188 2.214843,0 2.214843,-1.429688 2.214843,-1.546875 0,-1.253906 -1.476562,-1.5 -2.050781,-1.582031 -1.054687,-0.175782 -1.769531,-0.304688 -1.769531,-0.796875 0,-0.328125 0.363281,-0.7148441 1.488281,-0.7148441 1.136719,0 1.183594,0.5390621 1.207031,0.8554691 0.02344,0.234375 0.246094,0.269531 0.386719,0.269531 0.386719,0 0.386719,-0.210938 0.386719,-0.457031 z m 12.287109,0.140625 c 0,-0.3632813 -0.07031,-0.4921875 -0.46875,-0.4921875 h -0.796875 c -0.164062,0 -0.480469,0 -0.480469,0.3515625 0,0.3515625 0.316407,0.3515625 0.480469,0.3515625 h 0.492188 v 2.5898436 c 0,0.984375 -0.808594,1.242188 -1.347657,1.242188 -0.949218,0 -0.949218,-0.433594 -0.949218,-0.796875 V 9.6805469 c 0,-0.3632813 -0.07031,-0.4921875 -0.480469,-0.4921875 h -0.785156 c -0.164063,0 -0.480469,0 -0.480469,0.3515625 0,0.3515625 0.316406,0.3515625 0.480469,0.3515625 h 0.492187 v 3.0937496 c 0,1.101563 0.714844,1.429688 1.640625,1.429688 0.726563,0 1.183594,-0.292969 1.417969,-0.503906 0,0.433593 0.292969,0.433593 0.492187,0.433593 h 0.785157 c 0.164062,0 0.480468,0 0.480468,-0.351562 0,-0.339844 -0.316406,-0.339844 -0.480468,-0.339844 h -0.492188 z m 6.175781,-0.140625 c 0,-0.1875 0,-0.4570313 -0.328125,-0.4570313 -0.292968,0 -0.363281,0.28125 -0.363281,0.2929688 -0.480469,-0.2929688 -1.019531,-0.2929688 -1.265625,-0.2929688 -1.945312,0 -2.214844,0.9960934 -2.214844,1.4062504 0,0.480468 0.292969,0.820312 0.703125,1.042968 0.375,0.222657 0.726563,0.28125 1.699219,0.433594 0.46875,0.08203 1.429688,0.234375 1.429688,0.902344 0,0.433594 -0.410157,0.855469 -1.523438,0.855469 -0.761719,0 -1.265625,-0.304688 -1.511719,-1.160157 -0.05859,-0.164062 -0.09375,-0.292968 -0.398437,-0.292968 -0.398438,0 -0.398438,0.222656 -0.398438,0.457031 v 1.230469 c 0,0.199218 0,0.457031 0.339844,0.457031 0.140625,0 0.246094,0 0.433594,-0.492188 0.550781,0.457032 1.171875,0.492188 1.535156,0.492188 2.214844,0 2.214844,-1.429688 2.214844,-1.546875 0,-1.253906 -1.476563,-1.5 -2.050781,-1.582031 -1.054688,-0.175782 -1.769532,-0.304688 -1.769532,-0.796875 0,-0.328125 0.363282,-0.7148441 1.488282,-0.7148441 1.136718,0 1.183593,0.5390621 1.207031,0.8554691 0.02344,0.234375 0.246094,0.269531 0.386719,0.269531 0.386718,0 0.386718,-0.210938 0.386718,-0.457031 z m 6.105469,2.5078121 c 0.257813,0 0.480469,0 0.480469,-0.445312 0,-1.394531 -0.785156,-2.5195314 -2.285156,-2.5195314 -1.382813,0 -2.496094,1.1953124 -2.496094,2.6601564 0,1.5 1.207031,2.671875 2.683594,2.671875 1.535156,0 2.097656,-1.066406 2.097656,-1.371094 0,-0.07031 -0.02344,-0.339844 -0.398438,-0.339844 -0.222656,0 -0.292968,0.08203 -0.363281,0.269532 -0.304687,0.691406 -1.078125,0.75 -1.300781,0.75 -0.996094,0 -1.78125,-0.75 -1.921875,-1.675782 z m -3.492187,-0.65625 c 0.164062,-1.019531 0.9375,-1.6171871 1.6875,-1.6171871 1.195312,0 1.453125,1.0195311 1.5,1.6171871 z m 9.667968,-3.8554684 c 0,-0.375 -0.07031,-0.4921875 -0.46875,-0.4921875 h -0.796875 c -0.164062,0 -0.480468,0 -0.480468,0.3398438 0,0.3515625 0.316406,0.3515625 0.480468,0.3515625 h 0.492188 v 1.9804687 c -0.1875,-0.1875 -0.679688,-0.5976562 -1.40625,-0.5976562 -1.265625,0 -2.367188,1.1484371 -2.367188,2.6601561 0,1.464844 1.019532,2.636719 2.261719,2.636719 0.773438,0 1.289063,-0.46875 1.511719,-0.726563 0,0.503907 0,0.65625 0.480469,0.65625 h 0.785156 c 0.164062,0 0.480469,0 0.480469,-0.351562 0,-0.339844 -0.316407,-0.339844 -0.480469,-0.339844 h -0.492188 z m -0.773437,4.5351564 c 0,0.667969 -0.550781,1.652344 -1.441406,1.652344 -0.867188,0 -1.558594,-0.878907 -1.558594,-1.945313 0,-1.148437 0.808594,-1.9687499 1.664062,-1.9687499 0.773438,0 1.335938,0.7148439 1.335938,1.3359379 z M 82.933039,9.8914844 h 1.441406 c 0.175782,0 0.480469,0 0.480469,-0.3515625 0,-0.3515625 -0.304687,-0.3515625 -0.480469,-0.3515625 H 82.933039 V 8.5907031 c 0,-0.9257812 0.832031,-0.9257812 1.21875,-0.9257812 0,0.023437 0.09375,0.46875 0.492188,0.46875 0.1875,0 0.46875,-0.1523438 0.46875,-0.4804688 0,-0.6796875 -0.914063,-0.6796875 -1.089844,-0.6796875 -0.914063,0 -1.863281,0.515625 -1.863281,1.5703125 v 0.6445313 h -1.183594 c -0.175781,0 -0.492188,0 -0.492188,0.3515625 0,0.3515625 0.304688,0.3515625 0.480469,0.3515625 h 1.195313 v 3.7617186 h -1.136719 c -0.175781,0 -0.480469,0 -0.480469,0.339844 0,0.351562 0.304688,0.351562 0.480469,0.351562 h 3.046875 c 0.164062,0 0.480469,0 0.480469,-0.351562 0,-0.339844 -0.316407,-0.339844 -0.480469,-0.339844 h -1.136719 z m 8.648438,1.8749996 c 0,-1.5 -1.089844,-2.6835934 -2.378907,-2.6835934 -1.289062,0 -2.378906,1.1835934 -2.378906,2.6835934 0,1.5 1.101563,2.648438 2.378906,2.648438 1.277344,0 2.378907,-1.148438 2.378907,-2.648438 z m -2.378907,1.957032 c -0.855468,0 -1.605468,-0.914063 -1.605468,-2.039063 0,-1.113281 0.773437,-1.9101561 1.605468,-1.9101561 0.84375,0 1.605469,0.7968751 1.605469,1.9101561 0,1.136719 -0.738281,2.039063 -1.605469,2.039063 z m 5.660157,-1.640625 c 0,-1.417969 1.007812,-2.2734379 2.027343,-2.2734379 0.05859,0 0.128907,0 0.1875,0.011719 0.03516,0.4335939 0.375,0.4687499 0.457032,0.4687499 0.269531,0 0.46875,-0.199219 0.46875,-0.4687499 0,-0.5039063 -0.503907,-0.703125 -1.101563,-0.703125 -0.808594,0 -1.488281,0.3632812 -2.039062,1.0312499 V 9.6805469 c 0,-0.3632813 -0.07031,-0.4921875 -0.46875,-0.4921875 h -1.207032 c -0.175781,0 -0.480468,0 -0.480468,0.3515625 0,0.3515625 0.304687,0.3515625 0.480468,0.3515625 h 0.902344 v 3.7617186 h -0.902344 c -0.175781,0 -0.480468,0 -0.480468,0.339844 0,0.351562 0.304687,0.351562 0.480468,0.351562 h 2.929688 c 0.175781,0 0.480469,0 0.480469,-0.351562 0,-0.339844 -0.304688,-0.339844 -0.480469,-0.339844 H 94.862727 Z M 106.50238,7.5360156 c 0,-0.375 -0.0703,-0.4921875 -0.48047,-0.4921875 h -0.78516 c -0.16406,0 -0.48047,0 -0.48047,0.3398438 0,0.3515625 0.31641,0.3515625 0.48047,0.3515625 h 0.49219 v 6.1171876 c 0,0.222656 0,0.492187 0.39844,0.492187 0.375,0 0.375,-0.246093 0.375,-0.597656 0.29296,0.328125 0.72656,0.667969 1.40625,0.667969 1.26562,0 2.3789,-1.136719 2.3789,-2.648438 0,-1.476562 -1.00781,-2.6484371 -2.25,-2.6484371 -0.8789,0 -1.42969,0.5273437 -1.53515,0.6445312 z m 0,3.6328124 c 0,-0.679687 0.66796,-1.3593749 1.45312,-1.3593749 0.85547,0 1.54688,0.8789059 1.54688,1.9570309 0,1.148438 -0.8086,1.957032 -1.66407,1.957032 -0.89062,0 -1.33593,-1.019532 -1.33593,-1.617188 z m 9.67968,0.597656 c 0,-1.5 -1.08984,-2.6835934 -2.3789,-2.6835934 -1.28907,0 -2.37891,1.1835934 -2.37891,2.6835934 0,1.5 1.10156,2.648438 2.37891,2.648438 1.27734,0 2.3789,-1.148438 2.3789,-2.648438 z m -2.3789,1.957032 c -0.85547,0 -1.60547,-0.914063 -1.60547,-2.039063 0,-1.113281 0.77344,-1.9101561 1.60547,-1.9101561 0.84375,0 1.60547,0.7968751 1.60547,1.9101561 0,1.136719 -0.73829,2.039063 -1.60547,2.039063 z m 5.66015,-3.8320316 h 1.94532 c 0.16406,0 0.46875,0 0.46875,-0.3515625 0,-0.3515625 -0.30469,-0.3515625 -0.46875,-0.3515625 h -1.94532 V 8.2157031 c 0,-0.2226562 0,-0.4921875 -0.375,-0.4921875 -0.39843,0 -0.39843,0.2695313 -0.39843,0.4921875 v 0.9726563 h -1.01954 c -0.16406,0 -0.48046,0 -0.48046,0.3515625 0,0.3515625 0.30468,0.3515625 0.46875,0.3515625 h 1.03125 v 3.0117186 c 0,1.101563 0.76171,1.511719 1.6289,1.511719 0.64453,0 1.82813,-0.316406 1.82813,-1.535156 0,-0.246094 0,-0.503907 -0.39844,-0.503907 -0.375,0 -0.375,0.257813 -0.375,0.515625 -0.0234,0.714844 -0.70313,0.832032 -0.97266,0.832032 -0.9375,0 -0.9375,-0.597657 -0.9375,-0.890625 z m 8.56641,0.9492186 c 0,-1.1718749 -0.55078,-1.7226561 -1.52344,-1.7226561 -0.82031,0 -1.33594,0.4570312 -1.54687,0.6796875 V 7.5360156 c 0,-0.375 -0.0703,-0.4921875 -0.48047,-0.4921875 h -0.78516 c -0.16406,0 -0.48047,0 -0.48047,0.3398438 0,0.3515625 0.31641,0.3515625 0.48047,0.3515625 h 0.49219 v 5.9179686 h -0.49219 c -0.16406,0 -0.48047,0 -0.48047,0.339844 0,0.351562 0.31641,0.351562 0.48047,0.351562 h 1.75781 c 0.16407,0 0.48047,0 0.48047,-0.351562 0,-0.339844 -0.3164,-0.339844 -0.48047,-0.339844 h -0.49218 v -2.167969 c 0,-1.160156 0.82031,-1.6757809 1.46484,-1.6757809 0.69141,0 0.83203,0.3984379 0.83203,1.0781249 v 2.765625 h -0.49219 c -0.16406,0 -0.48046,0 -0.48046,0.339844 0,0.351562 0.3164,0.351562 0.48046,0.351562 h 1.75782 c 0.16406,0 0.48047,0 0.48047,-0.351562 0,-0.339844 -0.31641,-0.339844 -0.48047,-0.339844 h -0.49219 z m 10.99805,-3.5390624 c -0.0937,-0.4335937 -0.32813,-0.4335937 -0.60938,-0.4335937 -0.36328,0 -0.51562,0.058594 -0.59766,0.4335937 l -1.47656,6.3515624 c -0.39844,0 -0.66797,0 -0.66797,0.339844 0,0.351562 0.31641,0.351562 0.48047,0.351562 h 1.14844 c 0.17578,0 0.49219,0 0.49219,-0.351562 0,-0.339844 -0.28125,-0.339844 -0.65625,-0.339844 l 0.3164,-1.335937 h 1.9336 l 0.30468,1.335937 c -0.36328,0 -0.65625,0 -0.65625,0.339844 0,0.351562 0.32813,0.351562 0.49219,0.351562 h 1.14844 c 0.16406,0 0.49219,0 0.49219,-0.351562 0,-0.339844 -0.28125,-0.339844 -0.66797,-0.339844 z m -1.41797,4.3125004 c 0.082,-0.351563 0.73828,-3.1757816 0.79687,-3.7500004 h 0.0117 c 0.0352,0.28125 0.19922,1.0078125 0.19922,1.0195313 l 0.62109,2.7304691 z m 11.95605,-4.0781254 c 0,-0.375 -0.0703,-0.4921875 -0.48047,-0.4921875 h -0.78515 c -0.16407,0 -0.48047,0 -0.48047,0.3398438 0,0.3515625 0.3164,0.3515625 0.48047,0.3515625 h 0.49218 v 6.1171876 c 0,0.222656 0,0.492187 0.39844,0.492187 0.375,0 0.375,-0.246093 0.375,-0.597656 0.29297,0.328125 0.72656,0.667969 1.40625,0.667969 1.26563,0 2.37891,-1.136719 2.37891,-2.648438 0,-1.476562 -1.00781,-2.6484371 -2.25,-2.6484371 -0.87891,0 -1.42969,0.5273437 -1.53516,0.6445312 z m 0,3.6328124 c 0,-0.679687 0.66797,-1.3593749 1.45313,-1.3593749 0.85547,0 1.54687,0.8789059 1.54687,1.9570309 0,1.148438 -0.80859,1.957032 -1.66406,1.957032 -0.89063,0 -1.33594,-1.019532 -1.33594,-1.617188 z m 9.17578,-0.222656 c 0,-0.902344 -0.67968,-1.8632814 -2.29687,-1.8632814 -0.49219,0 -1.65235,0 -1.65235,0.8320313 0,0.3164061 0.22266,0.4921871 0.48047,0.4921871 0.082,0 0.46875,-0.02344 0.48047,-0.5156246 0,-0.070312 0.0117,-0.082031 0.26953,-0.1054688 0.14063,-0.011719 0.29297,-0.011719 0.4336,-0.011719 0.28125,0 0.6914,0 1.07812,0.3046874 0.4336,0.328125 0.4336,0.667969 0.4336,1.019532 -0.70313,0.02344 -1.39454,0.07031 -2.14454,0.304687 -0.59765,0.199219 -1.35937,0.632813 -1.35937,1.441406 0,0.855469 0.75,1.570313 1.86328,1.570313 0.38672,0 1.125,-0.05859 1.74609,-0.492188 0.2461,0.398438 0.84375,0.421875 1.28907,0.421875 0.29297,0 0.57422,0 0.57422,-0.351562 0,-0.339844 -0.30469,-0.339844 -0.48047,-0.339844 -0.30469,0 -0.53907,-0.02344 -0.71485,-0.09375 z m -0.77343,1.816406 c 0,0.28125 0,0.527344 -0.49219,0.761719 -0.42188,0.199219 -0.97266,0.199219 -1.01953,0.199219 -0.70313,0 -1.21875,-0.386719 -1.21875,-0.878907 0,-0.703125 1.28906,-1.101562 2.73047,-1.101562 z m 4.55859,-2.8710936 h 1.94531 c 0.16406,0 0.46875,0 0.46875,-0.3515625 0,-0.3515625 -0.30469,-0.3515625 -0.46875,-0.3515625 h -1.94531 V 8.2157031 c 0,-0.2226562 0,-0.4921875 -0.375,-0.4921875 -0.39844,0 -0.39844,0.2695313 -0.39844,0.4921875 v 0.9726563 h -1.01953 c -0.16406,0 -0.48047,0 -0.48047,0.3515625 0,0.3515625 0.30469,0.3515625 0.46875,0.3515625 h 1.03125 v 3.0117186 c 0,1.101563 0.76172,1.511719 1.62891,1.511719 0.64453,0 1.82812,-0.316406 1.82812,-1.535156 0,-0.246094 0,-0.503907 -0.39843,-0.503907 -0.375,0 -0.375,0.257813 -0.375,0.515625 -0.0234,0.714844 -0.70313,0.832032 -0.97266,0.832032 -0.9375,0 -0.9375,-0.597657 -0.9375,-0.890625 z m 9.02344,3.1523436 c 0,-0.316406 -0.29297,-0.316406 -0.39844,-0.316406 -0.26953,0 -0.31641,0.09375 -0.375,0.269531 -0.26953,0.65625 -0.85547,0.726563 -1.13672,0.726563 -1.01953,0 -1.875,-0.84375 -1.875,-1.957032 0,-0.609375 0.33984,-1.9921871 1.91016,-1.9921871 0.32812,0 0.57422,0.023437 0.67968,0.035156 0.082,0.023437 0.0937,0.035156 0.0937,0.1054688 0.0352,0.4804693 0.41016,0.4921873 0.48047,0.4921873 0.26953,0 0.49219,-0.175781 0.49219,-0.4921873 0,-0.8320313 -1.20703,-0.8320313 -1.73437,-0.8320313 -2.03907,0 -2.70704,1.6757816 -2.70704,2.6835936 0,1.453125 1.11329,2.648438 2.55469,2.648438 1.59375,0 2.01563,-1.183594 2.01563,-1.371094 z m 5.69531,-2.203125 c 0,-1.1718749 -0.55078,-1.7226561 -1.52344,-1.7226561 -0.82031,0 -1.33594,0.4570312 -1.54687,0.6796875 V 7.5360156 c 0,-0.375 -0.0703,-0.4921875 -0.48047,-0.4921875 h -0.78516 c -0.16406,0 -0.48047,0 -0.48047,0.3398438 0,0.3515625 0.31641,0.3515625 0.48047,0.3515625 h 0.49219 v 5.9179686 h -0.49219 c -0.16406,0 -0.48047,0 -0.48047,0.339844 0,0.351562 0.31641,0.351562 0.48047,0.351562 h 1.75781 c 0.16407,0 0.48047,0 0.48047,-0.351562 0,-0.339844 -0.3164,-0.339844 -0.48047,-0.339844 h -0.49218 v -2.167969 c 0,-1.160156 0.82031,-1.6757809 1.46484,-1.6757809 0.69141,0 0.83203,0.3984379 0.83203,1.0781249 v 2.765625 h -0.49219 c -0.16406,0 -0.48046,0 -0.48046,0.339844 0,0.351562 0.3164,0.351562 0.48046,0.351562 h 1.75782 c 0.16406,0 0.48047,0 0.48047,-0.351562 0,-0.339844 -0.31641,-0.339844 -0.48047,-0.339844 h -0.49219 z m 6.12891,1.207031 c 0.25781,0 0.48046,0 0.48046,-0.445312 0,-1.394531 -0.78515,-2.5195314 -2.28515,-2.5195314 -1.38281,0 -2.4961,1.1953124 -2.4961,2.6601564 0,1.5 1.20704,2.671875 2.6836,2.671875 1.53515,0 2.09765,-1.066406 2.09765,-1.371094 0,-0.07031 -0.0234,-0.339844 -0.39843,-0.339844 -0.22266,0 -0.29297,0.08203 -0.36328,0.269532 -0.30469,0.691406 -1.07813,0.75 -1.30079,0.75 -0.99609,0 -1.78125,-0.75 -1.92187,-1.675782 z m -3.49219,-0.65625 c 0.16406,-1.019531 0.9375,-1.6171871 1.6875,-1.6171871 1.19531,0 1.45312,1.0195311 1.5,1.6171871 z m 9.6914,-1.8515621 c 0,-0.1875 0,-0.4570313 -0.32812,-0.4570313 -0.29297,0 -0.36328,0.28125 -0.36328,0.2929688 -0.48047,-0.2929688 -1.01953,-0.2929688 -1.26563,-0.2929688 -1.94531,0 -2.21484,0.9960934 -2.21484,1.4062504 0,0.480468 0.29297,0.820312 0.70312,1.042968 0.375,0.222657 0.72657,0.28125 1.69922,0.433594 0.46875,0.08203 1.42969,0.234375 1.42969,0.902344 0,0.433594 -0.41016,0.855469 -1.52344,0.855469 -0.76172,0 -1.26562,-0.304688 -1.51172,-1.160157 -0.0586,-0.164062 -0.0937,-0.292968 -0.39843,-0.292968 -0.39844,0 -0.39844,0.222656 -0.39844,0.457031 v 1.230469 c 0,0.199218 0,0.457031 0.33984,0.457031 0.14063,0 0.2461,0 0.4336,-0.492188 0.55078,0.457032 1.17187,0.492188 1.53515,0.492188 2.21485,0 2.21485,-1.429688 2.21485,-1.546875 0,-1.253906 -1.47657,-1.5 -2.05078,-1.582031 -1.05469,-0.175782 -1.76954,-0.304688 -1.76954,-0.796875 0,-0.328125 0.36329,-0.7148441 1.48829,-0.7148441 1.13671,0 1.18359,0.5390621 1.20703,0.8554691 0.0234,0.234375 0.24609,0.269531 0.38672,0.269531 0.38671,0 0.38671,-0.210938 0.38671,-0.457031 z m 0,0"
       style="fill:#000000;fill-opacity:1;fill-rule:nonzero;stroke:none"
       aria-label="batchaxes:(2)and(1)-&gt;(2)&#10;B[0]isusedforbothAbatches"
       transform="matrix(1.3333333,0,0,1.3333333,218.30933,160.00667)" />
  </g>
</svg>
