<?xml version="1.0" encoding="UTF-8" standalone="no"?>
<!-- Created with Inkscape (http://www.inkscape.org/) -->

<svg
   version="1.1"
   id="svg1"
   width="680.3147"
   height="194.76801"
   viewBox="0 0 680.3147 194.76801"
   sodipodi:docname="14_incompatible_matrix_plus_vector.pdf"
   xmlns:inkscape="http://www.inkscape.org/namespaces/inkscape"
   xmlns:sodipodi="http://sodipodi.sourceforge.net/DTD/sodipodi-0.dtd"
   xmlns="http://www.w3.org/2000/svg"
   xmlns:svg="http://www.w3.org/2000/svg">
  <defs
     id="defs1" />
  <sodipodi:namedview
     id="namedview1"
     pagecolor="#ffffff"
     bordercolor="#000000"
     borderopacity="0.25"
     inkscape:showpageshadow="2"
     inkscape:pageopacity="0.0"
     inkscape:pagecheckerboard="0"
     inkscape:deskcolor="#d1d1d1">
    <inkscape:page
       x="0"
       y="0"
       inkscape:label="1"
       id="page1"
       width="680.3147"
       height="194.76801"
       margin="0"
       bleed="0" />
  </sodipodi:namedview>
  <g
     id="g1"
     inkscape:groupmode="layer"
     inkscape:label="1">
    <path
       id="path1"
       d="m -147.40347,11.33879 h 22.67743 v 22.67743 h -22.67743 z"
       style="fill:none;stroke:#000000;stroke-width:0.3985;stroke-linecap:butt;stroke-linejoin:miter;stroke-miterlimit:10;stroke-dasharray:none;stroke-opacity:1"
       transform="matrix(1.3333333,0,0,-1.3333333,343.544,97.546667)" />
    <path
       id="path2"
       d="m 5.3544609,-3.8213281 c 0,-0.9960938 -0.058594,-1.96875 -0.4921875,-2.8710938 -0.4921875,-0.9960937 -1.3476562,-1.2539062 -1.9335937,-1.2539062 -0.6914063,0 -1.546875,0.3398437 -1.98046876,1.3359375 -0.33984375,0.75 -0.45703125,1.4882812 -0.45703125,2.7890625 0,1.1601562 0.0820312,2.0273437 0.51562501,2.87109373 0.4570312,0.9140625 1.2890625,1.1953125 1.9101562,1.1953125 1.0429688,0 1.640625,-0.62109375 1.9804688,-1.31250003 0.4335937,-0.890625 0.4570312,-2.0625 0.4570312,-2.7539062 z m -2.4375,3.83203123 c -0.3867187,0 -1.1601562,-0.2109375 -1.3828125,-1.52343753 -0.140625,-0.7148437 -0.140625,-1.6171875 -0.140625,-2.4609375 0,-0.9726562 0,-1.8632812 0.1992188,-2.5664062 0.1992187,-0.796875 0.8085937,-1.171875 1.3242187,-1.171875 0.4570313,0 1.1484375,0.28125 1.3710938,1.3007812 0.1523437,0.6796875 0.1523437,1.6289063 0.1523437,2.4375 0,0.8085938 0,1.7109375 -0.1289062,2.4375 -0.2226563,1.32421878 -0.9726563,1.54687503 -1.3945313,1.54687503 z m 0,0"
       style="fill:#000000;fill-opacity:1;fill-rule:nonzero;stroke:none"
       aria-label="0"
       transform="matrix(1.3333333,0,0,1.3333333,158.224,72.446667)" />
    <path
       id="path3"
       d="m -124.72595,11.33879 h 22.67743 v 22.67743 h -22.67743 z"
       style="fill:none;stroke:#000000;stroke-width:0.3985;stroke-linecap:butt;stroke-linejoin:miter;stroke-miterlimit:10;stroke-dasharray:none;stroke-opacity:1"
       transform="matrix(1.3333333,0,0,-1.3333333,343.544,97.546667)" />
    <path
       id="path4"
       d="m 3.4450156,-7.6650781 c 0,-0.2695313 0,-0.28125 -0.2460937,-0.28125 -0.28125,0.3164062 -0.8789063,0.7617187 -2.109375,0.7617187 v 0.3515625 c 0.2695312,0 0.8671875,0 1.5234375,-0.3164062 v 6.22265623 c 0,0.43359375 -0.035156,0.57421875 -1.078125,0.57421875 h -0.375 v 0.3515625 c 0.3164062,-0.0234375 1.4765625,-0.0234375 1.875,-0.0234375 0.3984375,0 1.546875,0 1.8632812,0.0234375 v -0.3515625 H 4.5348594 c -1.0546875,0 -1.0898438,-0.140625 -1.0898438,-0.57421875 z m 0,0"
       style="fill:#000000;fill-opacity:1;fill-rule:nonzero;stroke:none"
       aria-label="1"
       transform="matrix(1.3333333,0,0,1.3333333,188.46133,72.446667)" />
    <path
       id="path5"
       d="m -102.04842,11.33879 h 22.67743 v 22.67743 h -22.67743 z"
       style="fill:none;stroke:#000000;stroke-width:0.3985;stroke-linecap:butt;stroke-linejoin:miter;stroke-miterlimit:10;stroke-dasharray:none;stroke-opacity:1"
       transform="matrix(1.3333333,0,0,-1.3333333,343.544,97.546667)" />
    <path
       id="path6"
       d="M 5.2631328,-2.0049219 H 4.9936016 c -0.035156,0.1992188 -0.1289063,0.8554688 -0.2460938,1.04296878 -0.082031,0.1171875 -0.7617187,0.1171875 -1.125,0.1171875 H 1.4076641 c 0.328125,-0.28124998 1.0546875,-1.04296878 1.3710937,-1.33593748 1.8164063,-1.6640625 2.484375,-2.2851563 2.484375,-3.46875 0,-1.3828125 -1.0898437,-2.296875 -2.4726562,-2.296875 -1.3945313,0 -2.20312504,1.1835937 -2.20312504,2.203125 0,0.609375 0.52734374,0.609375 0.56250004,0.609375 0.2460937,0 0.5625,-0.1757813 0.5625,-0.5625 0,-0.328125 -0.234375,-0.5507813 -0.5625,-0.5507813 -0.1054688,0 -0.1289063,0 -0.16406254,0.011719 0.22265624,-0.8203125 0.86718754,-1.3710938 1.64062504,-1.3710938 1.0195312,0 1.640625,0.8554688 1.640625,1.9570313 0,1.0078125 -0.5859375,1.8984375 -1.265625,2.6601562 l -2.41406254,2.70703128 v 0.28125 H 4.9467266 Z m 0,0"
       style="fill:#000000;fill-opacity:1;fill-rule:nonzero;stroke:none"
       aria-label="2"
       transform="matrix(1.3333333,0,0,1.3333333,218.69733,72.446667)" />
    <path
       id="path7"
       d="m -147.40347,-11.33871 h 22.67743 v 22.67743 h -22.67743 z"
       style="fill:none;stroke:#000000;stroke-width:0.3985;stroke-linecap:butt;stroke-linejoin:miter;stroke-miterlimit:10;stroke-dasharray:none;stroke-opacity:1"
       transform="matrix(1.3333333,0,0,-1.3333333,343.544,97.546667)" />
    <path
       id="path8"
       d="m 2.2021172,-4.2883672 c -0.2109375,0.011719 -0.2578125,0.023437 -0.2578125,0.1289063 0,0.1171875 0.058594,0.1171875 0.28125,0.1171875 h 0.5507812 c 1.0078125,0 1.4648438,0.84375 1.4648438,1.9921875 0,1.55859371 -0.8085938,1.98046871 -1.3945313,1.98046871 -0.5742187,0 -1.5585937,-0.28125 -1.89843746,-1.06640621 0.37499996,0.058594 0.72656246,-0.1523438 0.72656246,-0.5859375 0,-0.3398438 -0.2578125,-0.5859375 -0.5859375,-0.5859375 -0.29296871,0 -0.59765621,0.1640625 -0.59765621,0.6210937 0,1.06640626 1.06640621,1.93359376 2.39062501,1.93359376 1.4179687,0 2.4726562,-1.078125 2.4726562,-2.28515626 0,-1.1015625 -0.890625,-1.96875 -2.0273437,-2.1679687 1.03125,-0.3046875 1.6992187,-1.171875 1.6992187,-2.109375 0,-0.9375 -0.9726562,-1.6289063 -2.1328125,-1.6289063 -1.1953125,0 -2.08593746,0.7265625 -2.08593746,1.59375 0,0.4804688 0.37499996,0.5742188 0.55078126,0.5742188 0.2578125,0 0.5390625,-0.1757813 0.5390625,-0.5390625 0,-0.375 -0.28125,-0.5390625 -0.5507813,-0.5390625 -0.070312,0 -0.09375,0 -0.1289062,0.011719 0.4570312,-0.8203125 1.5820312,-0.8203125 1.640625,-0.8203125 0.3867187,0 1.171875,0.1757813 1.171875,1.3476563 0,0.234375 -0.035156,0.9023437 -0.3867188,1.4179687 -0.3515625,0.5273438 -0.7617187,0.5625 -1.0898437,0.5742188 z m 0,0"
       style="fill:#000000;fill-opacity:1;fill-rule:nonzero;stroke:none"
       aria-label="3"
       transform="matrix(1.3333333,0,0,1.3333333,158.224,102.68267)" />
    <path
       id="path9"
       d="m -124.72595,-11.33871 h 22.67743 v 22.67743 h -22.67743 z"
       style="fill:none;stroke:#000000;stroke-width:0.3985;stroke-linecap:butt;stroke-linejoin:miter;stroke-miterlimit:10;stroke-dasharray:none;stroke-opacity:1"
       transform="matrix(1.3333333,0,0,-1.3333333,343.544,97.546667)" />
    <path
       id="path10"
       d="m 4.3122031,-7.7805547 c 0,-0.2226562 0,-0.2929687 -0.1640625,-0.2929687 -0.09375,0 -0.1289062,0 -0.2226562,0.1523437 l -3.59765628,5.578125 v 0.3515625 H 3.4684531 v 1.07812501 c 0,0.4453125 -0.023437,0.5625 -0.9023437,0.5625 H 2.3317344 V 6.953125e-4 C 2.6012656,-0.02274219 3.5504844,-0.02274219 3.8903281,-0.02274219 c 0.328125,0 1.2890625,0 1.5585938,0.0234375025 V -0.35086719 h -0.234375 c -0.8671875,0 -0.9023438,-0.1171875 -0.9023438,-0.5625 V -1.9914922 H 5.5192344 V -2.3430547 H 4.3122031 Z m -0.7851562,0.9375 v 4.5 H 0.62079687 Z m 0,0"
       style="fill:#000000;fill-opacity:1;fill-rule:nonzero;stroke:none"
       aria-label="4"
       transform="matrix(1.3333333,0,0,1.3333333,188.46133,102.68267)" />
    <path
       id="path11"
       d="m -102.04842,-11.33871 h 22.67743 v 22.67743 h -22.67743 z"
       style="fill:none;stroke:#000000;stroke-width:0.3985;stroke-linecap:butt;stroke-linejoin:miter;stroke-miterlimit:10;stroke-dasharray:none;stroke-opacity:1"
       transform="matrix(1.3333333,0,0,-1.3333333,343.544,97.546667)" />
    <path
       id="path12"
       d="m 1.5365703,-6.8430547 c 0.5039063,0.1640625 0.9257813,0.1757813 1.0546875,0.1757813 1.359375,0 2.2148438,-0.9960938 2.2148438,-1.1601563 0,-0.046875 -0.023437,-0.1054687 -0.09375,-0.1054687 -0.023437,0 -0.046875,0 -0.1523438,0.046875 -0.6679687,0.28125 -1.2421875,0.3164062 -1.5585937,0.3164062 -0.7851563,0 -1.3476563,-0.234375 -1.5820313,-0.328125 -0.082031,-0.035156 -0.1054687,-0.035156 -0.1171875,-0.035156 -0.09375,0 -0.09375,0.070312 -0.09375,0.2578125 v 3.5507812 c 0,0.2109375 0,0.2929688 0.140625,0.2929688 0.058594,0 0.070312,-0.011719 0.1992188,-0.1640625 0.328125,-0.4921875 0.890625,-0.7734375 1.4882812,-0.7734375 0.6328125,0 0.9492188,0.5859375 1.0429688,0.7851562 0.1992187,0.46875 0.2109375,1.0546875 0.2109375,1.5117188 0,0.4570312 0,1.1367187 -0.328125,1.67578121 -0.2695313,0.421875 -0.7382813,0.7265625 -1.2539063,0.7265625 -0.796875,0 -1.5703125,-0.5390625 -1.78124999,-1.40625001 0.0585938,0.023437 0.12890629,0.035156 0.18749999,0.035156 0.1992188,0 0.5273438,-0.1289063 0.5273438,-0.5273438 0,-0.3398437 -0.234375,-0.5273437 -0.5273438,-0.5273437 -0.21093749,0 -0.52734374,0.1054687 -0.52734374,0.5742187 0,1.00781251 0.80859374,2.16796876 2.14453124,2.16796876 1.3476563,0 2.53125,-1.125 2.53125,-2.64843746 0,-1.4179688 -0.9609375,-2.6015625 -2.2148437,-2.6015625 -0.6796875,0 -1.2070313,0.2929687 -1.5117188,0.6328125 z m 0,0"
       style="fill:#000000;fill-opacity:1;fill-rule:nonzero;stroke:none"
       aria-label="5"
       transform="matrix(1.3333333,0,0,1.3333333,218.69733,102.68267)" />
    <path
       id="path13"
       d="m -147.40347,-34.01624 h 22.67743 v 22.67743 h -22.67743 z"
       style="fill:none;stroke:#000000;stroke-width:0.3985;stroke-linecap:butt;stroke-linejoin:miter;stroke-miterlimit:10;stroke-dasharray:none;stroke-opacity:1"
       transform="matrix(1.3333333,0,0,-1.3333333,343.544,97.546667)" />
    <path
       id="path14"
       d="m 1.4638359,-4.1606797 c 0,-3.0234375 1.4765625,-3.5039062 2.1210938,-3.5039062 0.4335937,0 0.8554687,0.1289062 1.0898437,0.4921875 -0.140625,0 -0.5976562,0 -0.5976562,0.4921875 0,0.2578125 0.1757812,0.4921875 0.4921875,0.4921875 0.2929687,0 0.4921875,-0.1875 0.4921875,-0.5273438 0,-0.6210937 -0.4453125,-1.2304687 -1.4882813,-1.2304687 -1.5117187,0 -3.08203121,1.5351562 -3.08203121,4.171875 0,3.28124996 1.42968751,4.01953121 2.44921871,4.01953121 1.3007813,0 2.4140625,-1.125 2.4140625,-2.68359371 0,-1.59375 -1.1132812,-2.6601563 -2.3085937,-2.6601563 -1.0664063,0 -1.453125,0.9257813 -1.5820313,1.265625 z m 1.4765625,4.08984376 c -0.75,0 -1.1132812,-0.66796875 -1.21875,-0.92578125 C 1.6161797,-1.3013047 1.4989922,-1.8872422 1.4989922,-2.7309922 c 0,-0.9375 0.421875,-2.1210937 1.5,-2.1210937 0.65625,0 1.0078125,0.4453125 1.1835937,0.84375 0.1875,0.4453125 0.1875,1.0429687 0.1875,1.5585937 0,0.609375 0,1.1484375 -0.2226562,1.60546876 -0.3046875,0.57421875 -0.7265625,0.7734375 -1.2070313,0.7734375 z m 0,0"
       style="fill:#000000;fill-opacity:1;fill-rule:nonzero;stroke:none"
       aria-label="6"
       transform="matrix(1.3333333,0,0,1.3333333,158.224,132.91867)" />
    <path
       id="path15"
       d="m -124.72595,-34.01624 h 22.67743 v 22.67743 h -22.67743 z"
       style="fill:none;stroke:#000000;stroke-width:0.3985;stroke-linecap:butt;stroke-linejoin:miter;stroke-miterlimit:10;stroke-dasharray:none;stroke-opacity:1"
       transform="matrix(1.3333333,0,0,-1.3333333,343.544,97.546667)" />
    <path
       id="path16"
       d="m 5.6832969,-7.4184922 v -0.28125 H 2.8004844 c -1.453125,0 -1.4765625,-0.1523437 -1.5234375,-0.3867187 H 1.0192344 l -0.37500003,2.390625 h 0.26953125 c 0.0351563,-0.2109375 0.14062498,-0.9492188 0.29296878,-1.078125 0.09375,-0.070312 0.9960937,-0.070312 1.1601562,-0.070312 h 2.53125 l -1.265625,1.8164062 c -0.3164062,0.4570313 -1.5234375,2.4257813 -1.5234375,4.66406251 0,0.140625 0,0.609375 0.4804688,0.609375 0.5039062,0 0.5039062,-0.45703125 0.5039062,-0.62109375 v -0.59765625 c 0,-1.78125001 0.2929688,-3.16406251 0.8554688,-3.96093751 z m 0,0"
       style="fill:#000000;fill-opacity:1;fill-rule:nonzero;stroke:none"
       aria-label="7"
       transform="matrix(1.3333333,0,0,1.3333333,188.46133,132.91867)" />
    <path
       id="path17"
       d="m -102.04842,-34.01624 h 22.67743 v 22.67743 h -22.67743 z"
       style="fill:none;stroke:#000000;stroke-width:0.3985;stroke-linecap:butt;stroke-linejoin:miter;stroke-miterlimit:10;stroke-dasharray:none;stroke-opacity:1"
       transform="matrix(1.3333333,0,0,-1.3333333,343.544,97.546667)" />
    <path
       id="path18"
       d="m 3.5639141,-4.3130234 c 0.5976562,-0.328125 1.4648437,-0.8789063 1.4648437,-1.875 0,-1.0429688 -0.9960937,-1.7578125 -2.0976562,-1.7578125 -1.1835938,0 -2.12109379,0.8671875 -2.12109379,1.9570312 0,0.4101563 0.12890625,0.8085938 0.45703129,1.21875 0.1289062,0.1523438 0.140625,0.1640625 0.984375,0.75 -1.1601563,0.5390625 -1.75781254,1.3476563 -1.75781254,2.2148438 0,1.26562496 1.20703124,2.05078121 2.42578124,2.05078121 1.3242188,0 2.4375,-0.97265625 2.4375,-2.22656251 0,-1.21875 -0.8554687,-1.7578125 -1.7929687,-2.3320312 z m -1.6289063,-1.078125 c -0.1523437,-0.1054688 -0.6328125,-0.421875 -0.6328125,-1.0078125 0,-0.7734375 0.8203125,-1.265625 1.6171875,-1.265625 0.8554688,0 1.6289063,0.6210937 1.6289063,1.4882812 0,0.7265625 -0.5273438,1.3125 -1.21875,1.6875 z m 0.5625,1.546875 1.453125,0.9375 c 0.3046875,0.1992187 0.8554688,0.5742187 0.8554688,1.3007812 0,0.91406251 -0.9140625,1.53515626 -1.875,1.53515626 -1.0195313,0 -1.8867188,-0.73828125 -1.8867188,-1.73437496 0,-0.9375 0.6796875,-1.6875 1.453125,-2.0390625 z m 0,0"
       style="fill:#000000;fill-opacity:1;fill-rule:nonzero;stroke:none"
       aria-label="8"
       transform="matrix(1.3333333,0,0,1.3333333,218.69733,132.91867)" />
    <path
       id="path19"
       d="m 3.6799766,-7.0435781 c -0.09375,-0.4335938 -0.328125,-0.4335938 -0.609375,-0.4335938 -0.3632813,0 -0.515625,0.058594 -0.5976563,0.4335938 l -1.47656249,6.35156248 c -0.3984375,0 -0.66796875,0 -0.66796875,0.33984375 0,0.351562495 0.31640625,0.351562495 0.48046875,0.351562495 H 1.9573203 c 0.1757813,0 0.4921875,0 0.4921875,-0.351562495 0,-0.33984375 -0.28125,-0.33984375 -0.65625,-0.33984375 L 2.1096641,-2.0279531 h 1.9335937 l 0.3046875,1.33593748 c -0.3632812,0 -0.65625,0 -0.65625,0.33984375 0,0.351562495 0.328125,0.351562495 0.4921875,0.351562495 h 1.1484375 c 0.1640625,0 0.4921875,0 0.4921875,-0.351562495 0,-0.33984375 -0.28125,-0.33984375 -0.6679687,-0.33984375 z m -1.4179688,4.3125 c 0.082031,-0.3515625 0.7382813,-3.1757813 0.796875,-3.75 h 0.011719 c 0.035156,0.28125 0.1992187,1.0078125 0.1992187,1.0195312 l 0.6210938,2.7304688 z M -25.742875,9.5413828 c 0,-0.1875 0,-0.4570312 -0.328125,-0.4570312 -0.292969,0 -0.363281,0.28125 -0.363281,0.2929687 -0.480469,-0.2929687 -1.019531,-0.2929687 -1.265625,-0.2929687 -1.945313,0 -2.214844,0.9960934 -2.214844,1.4062504 0,0.480468 0.292969,0.820312 0.703125,1.042968 0.375,0.222657 0.726563,0.28125 1.699219,0.433594 0.46875,0.08203 1.429687,0.234375 1.429687,0.902344 0,0.433594 -0.410156,0.855469 -1.523437,0.855469 -0.761719,0 -1.265625,-0.304688 -1.511719,-1.160157 -0.05859,-0.164062 -0.09375,-0.292968 -0.398437,-0.292968 -0.398438,0 -0.398438,0.222656 -0.398438,0.457031 v 1.230469 c 0,0.199218 0,0.457031 0.339844,0.457031 0.140625,0 0.246094,0 0.433594,-0.492188 0.550781,0.457032 1.171875,0.492188 1.535156,0.492188 2.214844,0 2.214844,-1.429688 2.214844,-1.546875 0,-1.253906 -1.476563,-1.5 -2.050782,-1.582031 -1.054687,-0.175782 -1.769531,-0.304688 -1.769531,-0.796875 0,-0.328125 0.363281,-0.7148442 1.488281,-0.7148442 1.136719,0 1.183594,0.5390622 1.207032,0.8554692 0.02344,0.234375 0.246093,0.269531 0.386718,0.269531 0.386719,0 0.386719,-0.210938 0.386719,-0.457031 z m 6.128906,1.3007812 c 0,-1.1718749 -0.550781,-1.7226562 -1.523437,-1.7226562 -0.820313,0 -1.335938,0.4570313 -1.546875,0.6796875 V 7.5374766 c 0,-0.375 -0.07031,-0.4921875 -0.480469,-0.4921875 h -0.785156 c -0.164063,0 -0.480469,0 -0.480469,0.3398437 0,0.3515625 0.316406,0.3515625 0.480469,0.3515625 h 0.492187 v 5.9179687 h -0.492187 c -0.164063,0 -0.480469,0 -0.480469,0.339844 0,0.351562 0.316406,0.351562 0.480469,0.351562 h 1.757812 c 0.164063,0 0.480469,0 0.480469,-0.351562 0,-0.339844 -0.316406,-0.339844 -0.480469,-0.339844 h -0.492187 v -2.167969 c 0,-1.160156 0.820312,-1.6757809 1.464844,-1.6757809 0.691406,0 0.832031,0.3984379 0.832031,1.0781249 v 2.765625 h -0.492188 c -0.164062,0 -0.480468,0 -0.480468,0.339844 0,0.351562 0.316406,0.351562 0.480468,0.351562 h 1.757813 c 0.164062,0 0.480469,0 0.480469,-0.351562 0,-0.339844 -0.316407,-0.339844 -0.480469,-0.339844 h -0.492188 z m 6.105469,0.105469 c 0,-0.902344 -0.679687,-1.8632814 -2.296875,-1.8632814 -0.492187,0 -1.652344,0 -1.652344,0.8320312 0,0.3164062 0.222657,0.4921872 0.480469,0.4921872 0.08203,0 0.46875,-0.02344 0.480469,-0.5156247 0,-0.070312 0.01172,-0.082031 0.269531,-0.1054687 0.140625,-0.011719 0.292969,-0.011719 0.433594,-0.011719 0.28125,0 0.691406,0 1.078125,0.3046874 0.433594,0.328125 0.433594,0.667969 0.433594,1.019532 -0.703125,0.02344 -1.394532,0.07031 -2.144532,0.304687 -0.597656,0.199219 -1.359375,0.632813 -1.359375,1.441406 0,0.855469 0.75,1.570313 1.863282,1.570313 0.386718,0 1.125,-0.05859 1.746093,-0.492188 0.246094,0.398438 0.84375,0.421875 1.289063,0.421875 0.292969,0 0.574219,0 0.574219,-0.351562 0,-0.339844 -0.304688,-0.339844 -0.480469,-0.339844 -0.304688,0 -0.539063,-0.02344 -0.714844,-0.09375 z m -0.773437,1.816406 c 0,0.28125 0,0.527344 -0.492188,0.761719 -0.421875,0.199219 -0.972656,0.199219 -1.019531,0.199219 -0.703125,0 -1.21875,-0.386719 -1.21875,-0.878907 0,-0.703125 1.289062,-1.101562 2.730469,-1.101562 z m 4.3945308,4.230469 c 0.1640625,0 0.4804687,0 0.4804687,-0.339844 0,-0.351562 -0.3164062,-0.351562 -0.4804687,-0.351562 h -0.4921878 v -2.554688 c 0.292969,0.328125 0.7265628,0.667969 1.4062503,0.667969 1.265625,0 2.3789062,-1.136719 2.3789062,-2.648438 0,-1.476562 -1.0078125,-2.6484372 -2.25,-2.6484372 -0.8789062,0 -1.4296875,0.5273438 -1.5351565,0.6445313 0,-0.3867188 0,-0.5742188 -0.480468,-0.5742188 h -0.785157 c -0.164062,0 -0.480468,0 -0.480468,0.3515625 0,0.3515625 0.316406,0.3515625 0.480468,0.3515625 h 0.492188 v 6.4101567 h -0.492188 c -0.164062,0 -0.480468,0 -0.480468,0.351562 0,0.339844 0.316406,0.339844 0.480468,0.339844 z m -0.4921878,-5.824219 c 0,-0.679687 0.667969,-1.3593749 1.4531253,-1.3593749 0.8554687,0 1.546875,0.8789059 1.546875,1.9570309 0,1.148438 -0.8085938,1.957032 -1.6640625,1.957032 -0.890625,0 -1.3359378,-1.019532 -1.3359378,-1.617188 z m 9.199219,0.878906 c 0.2578125,0 0.48046875,0 0.48046875,-0.445312 0,-1.394531 -0.78515625,-2.5195314 -2.28515625,-2.5195314 -1.3828125,0 -2.4960937,1.1953124 -2.4960937,2.6601564 0,1.5 1.2070312,2.671875 2.6835937,2.671875 1.5351563,0 2.09765625,-1.066406 2.09765625,-1.371094 0,-0.07031 -0.0234375,-0.339844 -0.39843745,-0.339844 -0.2226563,0 -0.2929688,0.08203 -0.3632813,0.269532 -0.3046875,0.691406 -1.078125,0.75 -1.3007812,0.75 -0.9960938,0 -1.78125,-0.75 -1.921875,-1.675782 z m -3.4921875,-0.65625 c 0.1640625,-1.019531 0.9375,-1.6171872 1.6875,-1.6171872 1.1953125,0 1.453125,1.0195312 1.5,1.6171872 z m 9.8642578,-1.21875 c 0.1523438,0 0.515625,0 0.515625,-0.3867184 0,-0.3867188 -0.3984375,-0.3867188 -0.5742187,-0.3867188 H 1.0198203 c -0.18749999,0 -0.57421874,0 -0.57421874,0.3867188 0,0.3867184 0.36328125,0.3867184 0.515625,0.3867184 z m -0.058594,1.816407 c 0.1757812,0 0.5742187,0 0.5742187,-0.398438 0,-0.375 -0.375,-0.375 -0.515625,-0.375 H 0.96122656 c -0.1640625,0 -0.515625,0 -0.515625,0.375 0,0.398438 0.38671875,0.398438 0.57421874,0.398438 z m 6.1406257,3.035156 c 0,-0.152344 -0.09375,-0.199219 -0.257813,-0.316406 -1.652344,-1.136719 -2.0507815,-2.847657 -2.0507815,-4.007813 0,-1.1367187 0.375,-2.8593749 2.0507815,-4.0195312 0.164063,-0.1171875 0.257813,-0.1640625 0.257813,-0.3164062 0,-0.1289063 -0.07031,-0.3164063 -0.351563,-0.3164063 -0.304687,0 -1.183594,0.6914063 -1.7343752,1.4765625 C 8.51982,8.4515391 8.1799763,9.5648203 8.1799763,10.701539 c 0,1.324219 0.4804687,2.4375 0.984375,3.140625 0.5507812,0.761719 1.4179687,1.5 1.7578127,1.5 0.28125,0 0.351563,-0.210937 0.351563,-0.316406 z m 4.089843,-4.277344 c 1.242188,0 1.792969,0.867188 1.792969,1.523438 0,0.785156 -0.691406,1.523437 -1.746094,1.523437 -1.195312,0 -1.734375,-0.644531 -1.734375,-0.808594 0,-0.02344 0.01172,-0.04687 0.02344,-0.05859 0.04687,-0.09375 0.08203,-0.1875 0.08203,-0.292969 0,-0.246094 -0.1875,-0.480469 -0.46875,-0.480469 -0.257812,0 -0.492187,0.164063 -0.492187,0.527344 0,1.042969 1.136718,1.804687 2.589843,1.804687 1.511719,0 2.519532,-1.078125 2.519532,-2.203125 0,-0.609375 -0.328125,-1.464843 -1.382813,-1.921875 0.726563,-0.4453122 1.054688,-1.1718747 1.054688,-1.7929684 0,-0.890625 -0.902344,-1.6640625 -2.191407,-1.6640625 -1.324218,0 -2.261718,0.5625 -2.261718,1.453125 0,0.3984375 0.304687,0.515625 0.492187,0.515625 0.222656,0 0.480469,-0.1640625 0.480469,-0.4921875 0,-0.1875 -0.09375,-0.2929688 -0.09375,-0.3164063 0.351562,-0.4453125 1.183594,-0.46875 1.382812,-0.46875 0.820313,0 1.417969,0.421875 1.417969,0.984375 0,0.3515625 -0.234375,1.3476563 -1.488281,1.4296877 -0.445313,0.02344 -0.632813,0.04687 -0.679688,0.04687 -0.234375,0.02344 -0.304687,0.175781 -0.304687,0.339844 0,0.351562 0.257812,0.351562 0.457031,0.351562 z m 6.398438,3.5625 c -0.07031,0.375 -0.304688,0.820313 -0.890625,1.03125 -0.105469,0.02344 -0.28125,0.08203 -0.28125,0.304688 0,0.152343 0.175781,0.363281 0.363281,0.363281 0.328125,0 1.511719,-0.585938 1.511719,-1.875 0,-0.632813 -0.398438,-1.136719 -0.925781,-1.136719 -0.445313,0 -0.679688,0.339844 -0.679688,0.667969 0,0.398437 0.304688,0.679687 0.667969,0.679687 0.07031,0 0.152344,-0.01172 0.234375,-0.03516 z m 5.90625,-3.5625 c 1.242187,0 1.792969,0.867188 1.792969,1.523438 0,0.785156 -0.691407,1.523437 -1.746094,1.523437 -1.195313,0 -1.734375,-0.644531 -1.734375,-0.808594 0,-0.02344 0.01172,-0.04687 0.02344,-0.05859 0.04687,-0.09375 0.08203,-0.1875 0.08203,-0.292969 0,-0.246094 -0.1875,-0.480469 -0.46875,-0.480469 -0.257813,0 -0.492188,0.164063 -0.492188,0.527344 0,1.042969 1.136719,1.804687 2.589844,1.804687 1.511719,0 2.519531,-1.078125 2.519531,-2.203125 0,-0.609375 -0.328125,-1.464843 -1.382812,-1.921875 0.726562,-0.4453122 1.054687,-1.1718747 1.054687,-1.7929684 0,-0.890625 -0.902344,-1.6640625 -2.191406,-1.6640625 -1.324219,0 -2.261719,0.5625 -2.261719,1.453125 0,0.3984375 0.304688,0.515625 0.492188,0.515625 0.222656,0 0.480468,-0.1640625 0.480468,-0.4921875 0,-0.1875 -0.09375,-0.2929688 -0.09375,-0.3164063 0.351563,-0.4453125 1.183594,-0.46875 1.382813,-0.46875 0.820312,0 1.417969,0.421875 1.417969,0.984375 0,0.3515625 -0.234375,1.3476563 -1.488282,1.4296877 -0.445312,0.02344 -0.632812,0.04687 -0.679687,0.04687 -0.234375,0.02344 -0.304688,0.175781 -0.304688,0.339844 0,0.351562 0.257813,0.351562 0.457032,0.351562 z m 7.207031,-0.04687 c 0,-0.9374999 -0.222656,-2.1445312 -1.089844,-3.3046874 -0.410156,-0.5507813 -1.289062,-1.3476563 -1.652343,-1.3476563 -0.269532,0 -0.339844,0.1992188 -0.339844,0.3164063 0,0.140625 0.08203,0.1992187 0.292969,0.3398437 1.464843,1.03125 2.015625,2.6367188 2.015625,3.9843747 0,1.078125 -0.351563,2.835938 -2.0625,4.019532 -0.152344,0.105468 -0.246094,0.164062 -0.246094,0.316406 0,0.105469 0.07031,0.316406 0.339844,0.316406 0.304687,0 1.183593,-0.691406 1.734375,-1.476562 0.691406,-0.972657 1.007812,-2.097657 1.007812,-3.164063 z m 0,0"
       style="fill:#000000;fill-opacity:1;fill-rule:nonzero;stroke:none"
       aria-label="A&#10;shape=(3,3)"
       transform="matrix(1.3333333,0,0,1.3333333,188.26133,20.368)" />
    <path
       id="path20"
       d="m 4.7704922,-2.7661875 h 3.3046875 c 0.1640625,0 0.375,0 0.375,-0.2109375 0,-0.2226562 -0.1992188,-0.2226562 -0.375,-0.2226562 H 4.7704922 v -3.3046875 c 0,-0.1640625 0,-0.3867188 -0.2109375,-0.3867188 -0.234375,0 -0.234375,0.2109375 -0.234375,0.3867188 v 3.3046875 H 1.0322109 c -0.17578121,0 -0.38671871,0 -0.38671871,0.2109375 0,0.2226562 0.19921875,0.2226562 0.38671871,0.2226562 H 4.3251797 V 0.5385 c 0,0.1640625 0,0.38671875 0.2226562,0.38671875 0.2226563,0 0.2226563,-0.2109375 0.2226563,-0.38671875 z m 0,0"
       style="fill:#000000;fill-opacity:1;fill-rule:nonzero;stroke:none"
       aria-label="+"
       transform="matrix(1.3333333,0,0,1.3333333,275.112,101.532)" />
    <path
       id="path21"
       d="M -22.67726,-11.33871 H 1.7e-4 v 22.67743 h -22.67743 z"
       style="fill:none;stroke:#000000;stroke-width:0.3985;stroke-linecap:butt;stroke-linejoin:miter;stroke-miterlimit:10;stroke-dasharray:none;stroke-opacity:1"
       transform="matrix(1.3333333,0,0,-1.3333333,343.544,97.546667)" />
    <path
       id="path22"
       d="m 3.4441328,-7.6633672 c 0,-0.2695312 0,-0.28125 -0.2460937,-0.28125 -0.28125,0.3164063 -0.8789063,0.7617188 -2.109375,0.7617188 v 0.3515625 c 0.2695312,0 0.8671875,0 1.5234375,-0.3164063 v 6.22265626 c 0,0.43359375 -0.035156,0.57421875 -1.078125,0.57421875 h -0.375 V 6.953125e-4 c 0.3164062,-0.0234375025 1.4765625,-0.0234375025 1.875,-0.0234375025 0.3984375,0 1.546875,0 1.8632812,0.0234375025 V -0.35086719 H 4.5339766 c -1.0546875,0 -1.0898438,-0.140625 -1.0898438,-0.57421875 z m 7.7636722,3.84375 c 0,-0.9960937 -0.05859,-1.96875 -0.492188,-2.8710937 -0.492187,-0.9960938 -1.3476561,-1.2539063 -1.9335936,-1.2539063 -0.6914062,0 -1.546875,0.3398438 -1.9804687,1.3359375 -0.3398438,0.75 -0.4570313,1.4882813 -0.4570313,2.7890625 0,1.1601563 0.082031,2.0273438 0.515625,2.87109376 0.4570313,0.9140625 1.2890625,1.1953125 1.9101563,1.1953125 1.0429687,0 1.6406253,-0.62109375 1.9804683,-1.31249996 0.433594,-0.890625 0.457032,-2.0625 0.457032,-2.7539063 z M 8.7703047,0.01241406 c -0.3867188,0 -1.1601563,-0.2109375 -1.3828125,-1.52343746 -0.140625,-0.7148438 -0.140625,-1.6171875 -0.140625,-2.4609375 0,-0.9726563 0,-1.8632813 0.1992187,-2.5664063 0.1992188,-0.796875 0.8085938,-1.171875 1.3242188,-1.171875 0.4570312,0 1.1484375,0.28125 1.3710933,1.3007813 0.152344,0.6796875 0.152344,1.6289062 0.152344,2.4375 0,0.8085937 0,1.7109375 -0.128906,2.4375 -0.2226563,1.32421871 -0.9726563,1.54687496 -1.3945313,1.54687496 z m 0,0"
       style="fill:#000000;fill-opacity:1;fill-rule:nonzero;stroke:none"
       aria-label="10"
       transform="matrix(1.3333333,0,0,1.3333333,320.62267,102.68267)" />
    <path
       id="path23"
       d="M 2.4e-4,-11.33871 H 22.67767 V 11.33872 H 2.4e-4 Z"
       style="fill:none;stroke:#000000;stroke-width:0.3985;stroke-linecap:butt;stroke-linejoin:miter;stroke-miterlimit:10;stroke-dasharray:none;stroke-opacity:1"
       transform="matrix(1.3333333,0,0,-1.3333333,343.544,97.546667)" />
    <path
       id="path24"
       d="M 5.26225,-2.0032109 H 4.9927187 c -0.035156,0.1992187 -0.1289062,0.8554687 -0.2460937,1.04296871 -0.082031,0.1171875 -0.7617188,0.1171875 -1.125,0.1171875 H 1.4067812 C 1.7349062,-1.1243047 2.4614687,-1.8860234 2.777875,-2.1789922 c 1.8164062,-1.6640625 2.484375,-2.2851562 2.484375,-3.46875 0,-1.3828125 -1.0898438,-2.296875 -2.4726563,-2.296875 -1.3945312,0 -2.20312495,1.1835938 -2.20312495,2.203125 0,0.609375 0.52734375,0.609375 0.56249995,0.609375 0.2460938,0 0.5625,-0.1757812 0.5625,-0.5625 0,-0.328125 -0.234375,-0.5507812 -0.5625,-0.5507812 -0.1054687,0 -0.1289062,0 -0.16406245,0.011719 0.22265625,-0.8203125 0.86718745,-1.3710937 1.64062495,-1.3710937 1.0195313,0 1.640625,0.8554687 1.640625,1.9570312 0,1.0078125 -0.5859375,1.8984375 -1.265625,2.6601563 L 0.58646875,-0.28055469 V 6.953125e-4 H 4.9458437 Z m 5.947266,-1.8164063 c 0,-0.9960937 -0.05859,-1.96875 -0.492188,-2.8710937 -0.492187,-0.9960938 -1.3476561,-1.2539063 -1.9335936,-1.2539063 -0.6914063,0 -1.546875,0.3398438 -1.9804688,1.3359375 -0.3398437,0.75 -0.4570312,1.4882813 -0.4570312,2.7890625 0,1.1601563 0.082031,2.0273438 0.515625,2.87109376 0.4570312,0.9140625 1.2890625,1.1953125 1.9101562,1.1953125 1.0429688,0 1.6406254,-0.62109375 1.9804684,-1.31249996 0.433594,-0.890625 0.457032,-2.0625 0.457032,-2.7539063 z M 8.7720156,0.01241406 c -0.3867187,0 -1.1601562,-0.2109375 -1.3828125,-1.52343746 -0.140625,-0.7148438 -0.140625,-1.6171875 -0.140625,-2.4609375 0,-0.9726563 0,-1.8632813 0.1992188,-2.5664063 0.1992187,-0.796875 0.8085937,-1.171875 1.3242187,-1.171875 0.4570313,0 1.1484375,0.28125 1.3710934,1.3007813 0.152344,0.6796875 0.152344,1.6289062 0.152344,2.4375 0,0.8085937 0,1.7109375 -0.128906,2.4375 -0.2226564,1.32421871 -0.9726564,1.54687496 -1.3945314,1.54687496 z m 0,0"
       style="fill:#000000;fill-opacity:1;fill-rule:nonzero;stroke:none"
       aria-label="20"
       transform="matrix(1.3333333,0,0,1.3333333,350.85867,102.68267)" />
    <path
       id="path25"
       d="m 1.9209297,-6.8092031 c 0,-0.375 -0.070312,-0.4921875 -0.4804688,-0.4921875 H 0.65530469 c -0.1640625,0 -0.48046875,0 -0.48046875,0.3398437 0,0.3515625 0.31640625,0.3515625 0.48046875,0.3515625 H 1.1474922 v 6.11718753 c 0,0.22265625 0,0.492187495 0.3984375,0.492187495 0.375,0 0.375,-0.246093745 0.375,-0.597656245 0.2929687,0.328125 0.7265625,0.66796875 1.40625,0.66796875 1.265625,0 2.3789062,-1.13671873 2.3789062,-2.64843753 0,-1.4765625 -1.0078125,-2.6484375 -2.25,-2.6484375 -0.8789062,0 -1.4296875,0.5273438 -1.5351562,0.6445313 z m 0,3.6328125 c 0,-0.6796875 0.6679687,-1.359375 1.453125,-1.359375 0.8554687,0 1.546875,0.8789062 1.546875,1.9570312 0,1.1484375 -0.8085938,1.95703128 -1.6640625,1.95703128 -0.890625,0 -1.3359375,-1.01953128 -1.3359375,-1.61718748 z M -22.667938,9.5413828 c 0,-0.1875 0,-0.4570312 -0.328125,-0.4570312 -0.292968,0 -0.363281,0.28125 -0.363281,0.2929687 -0.480469,-0.2929687 -1.019531,-0.2929687 -1.265625,-0.2929687 -1.945312,0 -2.214844,0.9960934 -2.214844,1.4062504 0,0.480468 0.292969,0.820312 0.703125,1.042968 0.375,0.222657 0.726563,0.28125 1.699219,0.433594 0.46875,0.08203 1.429688,0.234375 1.429688,0.902344 0,0.433594 -0.410157,0.855469 -1.523438,0.855469 -0.761719,0 -1.265625,-0.304688 -1.511719,-1.160157 -0.05859,-0.164062 -0.09375,-0.292968 -0.398437,-0.292968 -0.398438,0 -0.398438,0.222656 -0.398438,0.457031 v 1.230469 c 0,0.199218 0,0.457031 0.339844,0.457031 0.140625,0 0.246094,0 0.433594,-0.492188 0.550781,0.457032 1.171875,0.492188 1.535156,0.492188 2.214844,0 2.214844,-1.429688 2.214844,-1.546875 0,-1.253906 -1.476563,-1.5 -2.050781,-1.582031 -1.054688,-0.175782 -1.769532,-0.304688 -1.769532,-0.796875 0,-0.328125 0.363282,-0.7148442 1.488282,-0.7148442 1.136718,0 1.183593,0.5390622 1.207031,0.8554692 0.02344,0.234375 0.246094,0.269531 0.386719,0.269531 0.386718,0 0.386718,-0.210938 0.386718,-0.457031 z m 6.128907,1.3007812 c 0,-1.1718749 -0.550782,-1.7226562 -1.523438,-1.7226562 -0.820312,0 -1.335937,0.4570313 -1.546875,0.6796875 V 7.5374766 c 0,-0.375 -0.07031,-0.4921875 -0.480469,-0.4921875 h -0.785156 c -0.164062,0 -0.480469,0 -0.480469,0.3398437 0,0.3515625 0.316407,0.3515625 0.480469,0.3515625 h 0.492188 v 5.9179687 h -0.492188 c -0.164062,0 -0.480469,0 -0.480469,0.339844 0,0.351562 0.316407,0.351562 0.480469,0.351562 h 1.757813 c 0.164062,0 0.480468,0 0.480468,-0.351562 0,-0.339844 -0.316406,-0.339844 -0.480468,-0.339844 h -0.492188 v -2.167969 c 0,-1.160156 0.820313,-1.6757809 1.464844,-1.6757809 0.691406,0 0.832031,0.3984379 0.832031,1.0781249 v 2.765625 h -0.492187 c -0.164063,0 -0.480469,0 -0.480469,0.339844 0,0.351562 0.316406,0.351562 0.480469,0.351562 h 1.757812 c 0.164063,0 0.480469,0 0.480469,-0.351562 0,-0.339844 -0.316406,-0.339844 -0.480469,-0.339844 h -0.492187 z m 6.105468,0.105469 c 0,-0.902344 -0.679687,-1.8632814 -2.296875,-1.8632814 -0.492187,0 -1.652343,0 -1.652343,0.8320312 0,0.3164062 0.222656,0.4921872 0.480468,0.4921872 0.08203,0 0.46875,-0.02344 0.480469,-0.5156247 0,-0.070312 0.01172,-0.082031 0.269531,-0.1054687 0.140625,-0.011719 0.292969,-0.011719 0.433594,-0.011719 0.28125,0 0.691406,0 1.078125,0.3046874 0.433594,0.328125 0.433594,0.667969 0.433594,1.019532 -0.703125,0.02344 -1.394531,0.07031 -2.144531,0.304687 -0.597657,0.199219 -1.359375,0.632813 -1.359375,1.441406 0,0.855469 0.75,1.570313 1.863281,1.570313 0.386719,0 1.125,-0.05859 1.746094,-0.492188 0.246093,0.398438 0.84375,0.421875 1.2890622,0.421875 0.2929688,0 0.5742188,0 0.5742188,-0.351562 0,-0.339844 -0.3046875,-0.339844 -0.4804688,-0.339844 -0.3046872,0 -0.5390622,-0.02344 -0.7148442,-0.09375 z M -11.207,12.764039 c 0,0.28125 0,0.527344 -0.492188,0.761719 -0.421875,0.199219 -0.972656,0.199219 -1.019531,0.199219 -0.703125,0 -1.21875,-0.386719 -1.21875,-0.878907 0,-0.703125 1.289063,-1.101562 2.730469,-1.101562 z m 4.3945312,4.230469 c 0.1640625,0 0.4804688,0 0.4804688,-0.339844 0,-0.351562 -0.3164063,-0.351562 -0.4804688,-0.351562 h -0.4921875 v -2.554688 c 0.2929688,0.328125 0.7265625,0.667969 1.40625,0.667969 1.265625,0 2.3789063,-1.136719 2.3789063,-2.648438 0,-1.476562 -1.0078125,-2.6484372 -2.25,-2.6484372 -0.8789063,0 -1.4296875,0.5273438 -1.5351563,0.6445313 0,-0.3867188 0,-0.5742188 -0.4804687,-0.5742188 h -0.7851563 c -0.1640625,0 -0.4804687,0 -0.4804687,0.3515625 0,0.3515625 0.3164062,0.3515625 0.4804687,0.3515625 h 0.4921875 v 6.4101567 h -0.4921875 c -0.1640625,0 -0.4804687,0 -0.4804687,0.351562 0,0.339844 0.3164062,0.339844 0.4804687,0.339844 z m -0.4921875,-5.824219 c 0,-0.679687 0.6679688,-1.3593749 1.453125,-1.3593749 0.8554688,0 1.546875,0.8789059 1.546875,1.9570309 0,1.148438 -0.8085937,1.957032 -1.6640625,1.957032 -0.890625,0 -1.3359375,-1.019532 -1.3359375,-1.617188 z m 9.1992188,0.878906 c 0.2578125,0 0.4804687,0 0.4804687,-0.445312 0,-1.394531 -0.7851562,-2.5195314 -2.2851562,-2.5195314 -1.3828125,0 -2.4960938,1.1953124 -2.4960938,2.6601564 0,1.5 1.2070313,2.671875 2.6835938,2.671875 1.5351562,0 2.0976562,-1.066406 2.0976562,-1.371094 0,-0.07031 -0.023437,-0.339844 -0.3984375,-0.339844 -0.2226562,0 -0.2929687,0.08203 -0.3632812,0.269532 -0.3046875,0.691406 -1.078125,0.75 -1.30078125,0.75 -0.99609375,0 -1.78125005,-0.75 -1.92187505,-1.675782 z m -3.4921875,-0.65625 c 0.1640625,-1.019531 0.9375,-1.6171872 1.6875,-1.6171872 1.1953125,0 1.453125,1.0195312 1.5,1.6171872 z m 9.8671875,-1.21875 c 0.1523437,0 0.515625,0 0.515625,-0.3867184 0,-0.3867188 -0.3984375,-0.3867188 -0.5742188,-0.3867188 H 4.0976875 c -0.1875,0 -0.5742188,0 -0.5742188,0.3867188 0,0.3867184 0.3632813,0.3867184 0.515625,0.3867184 z m -0.058594,1.816407 c 0.1757813,0 0.5742188,0 0.5742188,-0.398438 0,-0.375 -0.375,-0.375 -0.515625,-0.375 H 4.0390937 c -0.1640625,0 -0.515625,0 -0.515625,0.375 0,0.398438 0.3867188,0.398438 0.5742188,0.398438 z m 6.1406255,3.035156 c 0,-0.152344 -0.09375,-0.199219 -0.257813,-0.316406 C 12.441437,13.572633 12.043,11.861695 12.043,10.701539 c 0,-1.1367187 0.375,-2.8593749 2.050781,-4.0195312 0.164063,-0.1171875 0.257813,-0.1640625 0.257813,-0.3164062 0,-0.1289063 -0.07031,-0.3164063 -0.351563,-0.3164063 -0.304687,0 -1.183594,0.6914063 -1.734375,1.4765625 -0.667969,0.9257813 -1.007812,2.0390625 -1.007812,3.1757812 0,1.324219 0.480468,2.4375 0.984375,3.140625 0.550781,0.761719 1.417968,1.5 1.757812,1.5 0.28125,0 0.351563,-0.210937 0.351563,-0.316406 z M 19.543,11.72107 c 0.164062,-0.152343 1.371094,-1.171875 1.371094,-2.5078122 0,-1.359375 -1.125,-2.3085937 -2.613282,-2.3085937 -1.382812,0 -2.308593,1.03125 -2.308593,2.0390625 0,0.5039062 0.421875,0.5390625 0.492187,0.5390625 0.210938,0 0.480469,-0.1640625 0.480469,-0.4921875 0,-0.2226563 -0.08203,-0.2929688 -0.152344,-0.3515625 0.175781,-0.6328125 0.726563,-1.0429688 1.417969,-1.0429688 1.007812,0 1.910156,0.5859375 1.910156,1.6171875 0,0.9375002 -0.703125,1.6523442 -1.347656,2.2148442 l -2.636719,2.285156 c -0.128906,0.105469 -0.164062,0.140625 -0.164062,0.28125 0,0.351562 0.328125,0.351562 0.492187,0.351562 h 4.171875 c 0.257813,-0.07031 0.257813,-0.316406 0.257813,-0.492187 v -0.246094 c 0,-0.222656 0,-0.492187 -0.375,-0.492187 -0.398438,0 -0.398438,0.246093 -0.398438,0.539062 h -2.882812 z m 5.296875,2.589844 c -0.07031,0.375 -0.304688,0.820313 -0.890625,1.03125 -0.105469,0.02344 -0.28125,0.08203 -0.28125,0.304688 0,0.152343 0.175781,0.363281 0.363281,0.363281 0.328125,0 1.511719,-0.585938 1.511719,-1.875 0,-0.632813 -0.398438,-1.136719 -0.925781,-1.136719 -0.445313,0 -0.679688,0.339844 -0.679688,0.667969 0,0.398437 0.304688,0.679687 0.667969,0.679687 0.07031,0 0.152344,-0.01172 0.234375,-0.03516 z m 6.960937,-3.609375 c 0,-0.9374999 -0.222656,-2.1445312 -1.089843,-3.3046874 -0.410157,-0.5507813 -1.289063,-1.3476563 -1.652344,-1.3476563 -0.269531,0 -0.339844,0.1992188 -0.339844,0.3164063 0,0.140625 0.08203,0.1992187 0.292969,0.3398437 1.464844,1.03125 2.015625,2.6367188 2.015625,3.9843747 0,1.078125 -0.351563,2.835938 -2.0625,4.019532 -0.152344,0.105468 -0.246094,0.164062 -0.246094,0.316406 0,0.105469 0.07031,0.316406 0.339844,0.316406 0.304687,0 1.183594,-0.691406 1.734375,-1.476562 0.691406,-0.972657 1.007812,-2.097657 1.007812,-3.164063 z m 0,0"
       style="fill:#000000;fill-opacity:1;fill-rule:nonzero;stroke:none"
       aria-label="b&#10;shape=(2,)"
       transform="matrix(1.3333333,0,0,1.3333333,339.44267,20.368)" />
    <path
       id="path26"
       d="m 7.8737031,-2.7553437 c 0.2109375,0 0.421875,0 0.421875,-0.234375 0,-0.234375 -0.2109375,-0.234375 -0.421875,-0.234375 h -6.46875 c -0.1992187,0 -0.41015622,0 -0.41015622,0.234375 0,0.234375 0.21093752,0.234375 0.41015622,0.234375 z m 9.4013669,0 c -0.65625,0.5039062 -0.984375,0.9960937 -1.078125,1.1484375 -0.539062,0.8320312 -0.632812,1.5820312 -0.632812,1.59374995 0,0.140625 0.140625,0.140625 0.234375,0.140625 0.210937,0 0.222656,-0.0234375 0.269531,-0.234375 0.269531,-1.17187495 0.972656,-2.17968745 2.332031,-2.73046875 0.140625,-0.046875 0.175782,-0.070312 0.175782,-0.1523437 0,-0.082031 -0.07031,-0.1171875 -0.09375,-0.1289063 -0.527344,-0.2109375 -1.980469,-0.8085937 -2.425782,-2.8125 -0.03516,-0.140625 -0.04687,-0.1757812 -0.257812,-0.1757812 -0.09375,0 -0.234375,0 -0.234375,0.140625 0,0.023437 0.105469,0.7734375 0.609375,1.5820312 0.234375,0.3515625 0.585937,0.7734375 1.101562,1.1601563 H 8.3922578 c -0.2226562,0 -0.4335937,0 -0.4335937,0.234375 0,0.234375 0.2109375,0.234375 0.4335937,0.234375 z m 0,0"
       style="fill:#000000;fill-opacity:1;fill-rule:nonzero;stroke:none"
       aria-label="−→"
       transform="matrix(1.3333333,0,0,1.3333333,411.96267,100.47067)" />
    <path
       id="path27"
       d="m 140.10597,10.73969 h -39.2641 c -1.56555,0 -2.83467,-1.26911 -2.83467,-2.83468 V -7.90501 c 0,-1.56557 1.26912,-2.83468 2.83467,-2.83468 h 39.2641 c 1.56555,0 2.83467,1.26911 2.83467,2.83468 V 7.90501 c 0,1.56557 -1.26912,2.83468 -2.83467,2.83468 z"
       style="fill:none;stroke:#000000;stroke-width:0.3985;stroke-linecap:butt;stroke-linejoin:miter;stroke-miterlimit:10;stroke-dasharray:none;stroke-opacity:1"
       transform="matrix(1.3333333,0,0,-1.3333333,343.544,97.546667)" />
    <path
       id="path28"
       d="m 1.9218516,-3.4448359 h 1.5820312 c 0,0.421875 0,0.6445312 0.3984375,0.6445312 0.375,0 0.375,-0.2695312 0.375,-0.4921875 v -0.9960937 c 0,-0.2226563 0,-0.4921875 -0.375,-0.4921875 -0.3984375,0 -0.3984375,0.2226562 -0.3984375,0.6445312 H 1.9218516 v -2.4726562 h 2.9296875 v 0.5859375 c 0,0.2109375 0,0.4921875 0.3867187,0.4921875 0.3867188,0 0.3867188,-0.2695313 0.3867188,-0.4921875 v -0.7851563 c 0,-0.375 -0.070312,-0.4921875 -0.46875,-0.4921875 H 0.82028906 c -0.1640625,0 -0.48046875,0 -0.48046875,0.3398438 0,0.3515625 0.31640625,0.3515625 0.48046875,0.3515625 H 1.1484141 v 5.91796871 H 0.82028906 c -0.1640625,0 -0.48046875,0 -0.48046875,0.33984375 0,0.3515625025 0.31640625,0.3515625025 0.48046875,0.3515625025 H 5.4140391 c 0.3984375,0 0.4804687,-0.1054687525 0.4804687,-0.4921875025 V -1.4526484 c 0,-0.2226563 0,-0.4921875 -0.3867187,-0.4921875 -0.3867188,0 -0.3867188,0.2578125 -0.3867188,0.4921875 v 0.76171871 H 1.9218516 Z m 6.8085937,1.1835937 c 0,-1.4179687 1.0078125,-2.2734375 2.0273437,-2.2734375 0.05859,0 0.128906,0 0.1875,0.011719 0.03516,0.4335937 0.375,0.46875 0.457031,0.46875 0.269532,0 0.46875,-0.1992188 0.46875,-0.46875 0,-0.5039063 -0.503906,-0.703125 -1.101562,-0.703125 -0.8085939,0 -1.4882814,0.3632812 -2.0390627,1.03125 v -0.46875 c 0,-0.3632813 -0.070312,-0.4921875 -0.46875,-0.4921875 H 7.0546641 c -0.1757813,0 -0.4804688,0 -0.4804688,0.3515625 0,0.3515625 0.3046875,0.3515625 0.4804688,0.3515625 h 0.9023437 v 3.76171871 H 7.0546641 c -0.1757813,0 -0.4804688,0 -0.4804688,0.33984375 0,0.3515625025 0.3046875,0.3515625025 0.4804688,0.3515625025 h 2.9296875 c 0.1757814,0 0.4804684,0 0.4804684,-0.3515625025 0,-0.33984375 -0.304687,-0.33984375 -0.4804684,-0.33984375 H 8.7304453 Z m 6.1523437,0 c 0,-1.4179687 1.007813,-2.2734375 2.027344,-2.2734375 0.05859,0 0.128906,0 0.1875,0.011719 0.03516,0.4335937 0.375,0.46875 0.457031,0.46875 0.269531,0 0.46875,-0.1992188 0.46875,-0.46875 0,-0.5039063 -0.503906,-0.703125 -1.101562,-0.703125 -0.808594,0 -1.488282,0.3632812 -2.039063,1.03125 v -0.46875 c 0,-0.3632813 -0.07031,-0.4921875 -0.46875,-0.4921875 h -1.207031 c -0.175781,0 -0.480469,0 -0.480469,0.3515625 0,0.3515625 0.304688,0.3515625 0.480469,0.3515625 h 0.902344 v 3.76171871 h -0.902344 c -0.175781,0 -0.480469,0 -0.480469,0.33984375 0,0.3515625025 0.304688,0.3515625025 0.480469,0.3515625025 h 2.929687 c 0.175782,0 0.480469,0 0.480469,-0.3515625025 0,-0.33984375 -0.304687,-0.33984375 -0.480469,-0.33984375 h -1.253906 z m 9.023438,-0.3164062 c 0,-1.5 -1.089844,-2.6835938 -2.378907,-2.6835938 -1.289062,0 -2.378906,1.1835938 -2.378906,2.6835938 0,1.5 1.101563,2.64843746 2.378906,2.64843746 1.277344,0 2.378907,-1.14843746 2.378907,-2.64843746 z m -2.378907,1.95703121 c -0.855468,0 -1.605468,-0.91406251 -1.605468,-2.03906251 0,-1.1132812 0.773437,-1.9101562 1.605468,-1.9101562 0.84375,0 1.605469,0.796875 1.605469,1.9101562 0,1.1367188 -0.738281,2.03906251 -1.605469,2.03906251 z m 5.660157,-1.64062501 c 0,-1.4179687 1.007812,-2.2734375 2.027343,-2.2734375 0.05859,0 0.128907,0 0.1875,0.011719 0.03516,0.4335937 0.375,0.46875 0.457032,0.46875 0.269531,0 0.46875,-0.1992188 0.46875,-0.46875 0,-0.5039063 -0.503907,-0.703125 -1.101563,-0.703125 -0.808594,0 -1.488281,0.3632812 -2.039062,1.03125 v -0.46875 c 0,-0.3632813 -0.07031,-0.4921875 -0.46875,-0.4921875 h -1.207032 c -0.175781,0 -0.480468,0 -0.480468,0.3515625 0,0.3515625 0.304687,0.3515625 0.480468,0.3515625 h 0.902344 v 3.76171871 h -0.902344 c -0.175781,0 -0.480468,0 -0.480468,0.33984375 0,0.3515625025 0.304687,0.3515625025 0.480468,0.3515625025 h 2.929688 c 0.175781,0 0.480469,0 0.480469,-0.3515625025 0,-0.33984375 -0.304688,-0.33984375 -0.480469,-0.33984375 h -1.253906 z m 0,0"
       style="fill:#000000;fill-opacity:1;fill-rule:nonzero;stroke:none"
       aria-label="Error"
       transform="matrix(1.3333333,0,0,1.3333333,483.668,102.41733)" />
    <path
       id="path29"
       d="M -52.1583,-65.94324 H 86.1748 v 24.64122 H -52.1583 Z"
       style="fill:#ffffff;fill-opacity:1;fill-rule:nonzero;stroke:none"
       transform="matrix(1.3333333,0,0,-1.3333333,343.544,97.546667)" />
    <path
       id="path30"
       d="m 2.5772656,-4.4543828 h 1.9453125 c 0.1640625,0 0.46875,0 0.46875,-0.3515625 0,-0.3515625 -0.3046875,-0.3515625 -0.46875,-0.3515625 H 2.5772656 v -0.9726563 c 0,-0.2226562 0,-0.4921875 -0.375,-0.4921875 -0.3984375,0 -0.3984375,0.2695313 -0.3984375,0.4921875 v 0.9726563 H 0.78429687 c -0.1640625,0 -0.48046875,0 -0.48046875,0.3515625 0,0.3515625 0.3046875,0.3515625 0.46875,0.3515625 H 1.8038281 v 3.0117187 c 0,1.10156254 0.7617188,1.51171879 1.6289063,1.51171879 0.6445312,0 1.828125,-0.31640625 1.828125,-1.53515629 0,-0.2460937 0,-0.5039062 -0.3984375,-0.5039062 -0.375,0 -0.375,0.2578125 -0.375,0.515625 -0.023437,0.71484374 -0.703125,0.83203124 -0.9726563,0.83203124 -0.9375,0 -0.9375,-0.59765624 -0.9375,-0.89062504 z m 6.1523438,2.1914062 c 0,-1.4179687 1.0078125,-2.2734375 2.0273436,-2.2734375 0.05859,0 0.128906,0 0.1875,0.011719 0.03516,0.4335937 0.375,0.46875 0.457031,0.46875 0.269532,0 0.46875,-0.1992188 0.46875,-0.46875 0,-0.5039063 -0.503906,-0.703125 -1.101562,-0.703125 -0.8085939,0 -1.4882814,0.3632812 -2.0390626,1.03125 v -0.46875 c 0,-0.3632813 -0.070312,-0.4921875 -0.46875,-0.4921875 H 7.0538281 c -0.1757812,0 -0.4804687,0 -0.4804687,0.3515625 0,0.3515625 0.3046875,0.3515625 0.4804687,0.3515625 h 0.9023438 v 3.76171874 H 7.0538281 c -0.1757812,0 -0.4804687,0 -0.4804687,0.33984375 0,0.3515625 0.3046875,0.3515625 0.4804687,0.3515625 h 2.9296875 c 0.1757814,0 0.4804684,0 0.4804684,-0.3515625 0,-0.33984375 -0.304687,-0.33984375 -0.4804684,-0.33984375 H 8.7296094 Z m 8.5195316,-1.1367187 c 0,-0.9023438 -0.679688,-1.8632813 -2.296875,-1.8632813 -0.492188,0 -1.652344,0 -1.652344,0.8320313 0,0.3164062 0.222656,0.4921875 0.480469,0.4921875 0.08203,0 0.46875,-0.023437 0.480468,-0.515625 0,-0.070312 0.01172,-0.082031 0.269532,-0.1054688 0.140625,-0.011719 0.292968,-0.011719 0.433593,-0.011719 0.28125,0 0.691407,0 1.078125,0.3046875 0.433594,0.328125 0.433594,0.6679687 0.433594,1.0195312 -0.703125,0.023437 -1.394531,0.070312 -2.144531,0.3046875 -0.597656,0.1992188 -1.359375,0.6328125 -1.359375,1.4414063 0,0.85546874 0.75,1.57031249 1.863281,1.57031249 0.386719,0 1.125,-0.05859375 1.746094,-0.4921875 0.246094,0.3984375 0.84375,0.421875 1.289062,0.421875 0.292969,0 0.574219,0 0.574219,-0.3515625 0,-0.33984375 -0.304687,-0.33984375 -0.480469,-0.33984375 -0.304687,0 -0.539062,-0.0234375 -0.714843,-0.09375 z m -0.773438,1.8164062 c 0,0.28125 0,0.5273438 -0.492187,0.76171879 -0.421875,0.19921875 -0.972657,0.19921875 -1.019532,0.19921875 -0.703125,0 -1.21875,-0.38671874 -1.21875,-0.87890624 0,-0.703125 1.289063,-1.1015625 2.730469,-1.1015625 z m 5.589844,-5.1914062 c 0,-0.3046875 -0.234375,-0.5390625 -0.539063,-0.5390625 -0.292968,0 -0.539062,0.234375 -0.539062,0.5390625 0,0.2929687 0.246094,0.5390625 0.539062,0.5390625 0.304688,0 0.539063,-0.2460938 0.539063,-0.5390625 z m -2.050781,1.6171875 c -0.175782,0 -0.480469,0 -0.480469,0.3515625 0,0.3515625 0.304687,0.3515625 0.480469,0.3515625 h 1.277343 v 3.76171874 h -1.371093 c -0.164063,0 -0.480469,0 -0.480469,0.33984375 0,0.3515625 0.316406,0.3515625 0.480469,0.3515625 h 3.328125 c 0.164062,0 0.480468,0 0.480468,-0.3515625 0,-0.33984375 -0.316406,-0.33984375 -0.480468,-0.33984375 H 22.065547 V -4.6653203 c 0,-0.3632813 -0.07031,-0.4921875 -0.480469,-0.4921875 z m 8.0625,-1.6523438 c 0,-0.375 -0.07031,-0.4921875 -0.480469,-0.4921875 h -1.757813 c -0.164062,0 -0.480468,0 -0.480468,0.3398438 0,0.3515625 0.316406,0.3515625 0.480468,0.3515625 h 1.464844 v 5.91796874 h -1.464844 c -0.164062,0 -0.480468,0 -0.480468,0.33984375 0,0.3515625 0.316406,0.3515625 0.480468,0.3515625 h 3.691407 c 0.175781,0 0.480468,0 0.480468,-0.3515625 0,-0.33984375 -0.304687,-0.33984375 -0.480468,-0.33984375 h -1.453125 z m 6.292968,0.035156 c 0,-0.3046875 -0.234375,-0.5390625 -0.539062,-0.5390625 -0.292969,0 -0.539063,0.234375 -0.539063,0.5390625 0,0.2929687 0.246094,0.5390625 0.539063,0.5390625 0.304687,0 0.539062,-0.2460938 0.539062,-0.5390625 z m -2.050781,1.6171875 c -0.175781,0 -0.480469,0 -0.480469,0.3515625 0,0.3515625 0.304688,0.3515625 0.480469,0.3515625 h 1.277344 v 3.76171874 h -1.371094 c -0.164062,0 -0.480469,0 -0.480469,0.33984375 0,0.3515625 0.316407,0.3515625 0.480469,0.3515625 h 3.328125 c 0.164063,0 0.480469,0 0.480469,-0.3515625 0,-0.33984375 -0.316406,-0.33984375 -0.480469,-0.33984375 H 34.370234 V -4.6653203 c 0,-0.3632813 -0.07031,-0.4921875 -0.480468,-0.4921875 z m 9.585938,1.6523437 c 0,-1.171875 -0.550782,-1.7226562 -1.523438,-1.7226562 -0.820312,0 -1.335937,0.4570312 -1.546875,0.6796875 0,-0.4335938 0,-0.609375 -0.480469,-0.609375 h -0.785156 c -0.164062,0 -0.480469,0 -0.480469,0.3515625 0,0.3515625 0.316407,0.3515625 0.480469,0.3515625 h 0.492188 v 3.76171874 h -0.492188 c -0.164062,0 -0.480469,0 -0.480469,0.33984375 0,0.3515625 0.316407,0.3515625 0.480469,0.3515625 h 1.757813 c 0.164062,0 0.480468,0 0.480468,-0.3515625 0,-0.33984375 -0.316406,-0.33984375 -0.480468,-0.33984375 H 38.835078 V -2.8606328 c 0,-1.1601563 0.820313,-1.6757813 1.464844,-1.6757813 0.691406,0 0.832031,0.3984375 0.832031,1.078125 v 2.76562504 h -0.492187 c -0.164063,0 -0.480469,0 -0.480469,0.33984375 0,0.3515625 0.316406,0.3515625 0.480469,0.3515625 h 1.757812 c 0.164063,0 0.480469,0 0.480469,-0.3515625 0,-0.33984375 -0.316406,-0.33984375 -0.480469,-0.33984375 h -0.492187 z m 3.433593,2.77734379 c -0.140625,0 -0.691406,0 -0.691406,-0.64453129 0,-0.234375 0.03516,-0.28125 0.08203,-0.375 0.234375,0.1640625 0.632813,0.328125 1.066407,0.328125 1.078125,0 1.921875,-0.8789062 1.921875,-1.9101562 0,-0.2929688 -0.07031,-0.6679688 -0.328125,-1.0546875 0.316406,-0.1757813 0.597656,-0.2109375 0.785156,-0.2226563 0.07031,0.375 0.410156,0.3867188 0.421875,0.3867188 0.152344,0 0.445312,-0.09375 0.445312,-0.4570313 0,-0.2226562 -0.175781,-0.6210937 -0.84375,-0.6210937 -0.222656,0 -0.761718,0.046875 -1.265625,0.4453125 -0.386718,-0.28125 -0.796875,-0.375 -1.125,-0.375 -1.089843,0 -1.933593,0.8789062 -1.933593,1.8984375 0,0.2695312 0.05859,0.7265625 0.398437,1.1484375 -0.222656,0.3398437 -0.257812,0.703125 -0.257812,0.84375 0,0.41015624 0.199218,0.74999999 0.292968,0.85546874 -0.65625,0.36328125 -0.890625,1.0078125 -0.890625,1.4765625 0,0.98437496 1.207032,1.74609376 2.71875,1.74609376 1.523438,0 2.730469,-0.75 2.730469,-1.74609376 0,-1.72265625 -2.121094,-1.72265625 -2.507812,-1.72265625 z m 0.457032,-1.37109379 c -0.597657,0 -1.136719,-0.515625 -1.136719,-1.2304687 0,-0.703125 0.550781,-1.2304688 1.136719,-1.2304688 0.632812,0 1.136718,0.5507813 1.136718,1.2304688 0,0.6914062 -0.503906,1.2304687 -1.136718,1.2304687 z m 0.339843,4.1601563 c -1.171875,0 -2.039062,-0.515625 -2.039062,-1.06640626 0,-0.1875 0.05859,-0.59765625 0.503906,-0.87890625 0.269531,-0.17578125 0.386719,-0.17578125 1.21875,-0.17578125 1.042969,0 2.367188,0 2.367188,1.0546875 0,0.55078126 -0.878907,1.06640626 -2.050782,1.06640626 z m 14.170899,-5.4609375 c 0,-0.9023438 -0.679688,-1.8632813 -2.296875,-1.8632813 -0.492188,0 -1.652344,0 -1.652344,0.8320313 0,0.3164062 0.222656,0.4921875 0.480469,0.4921875 0.08203,0 0.46875,-0.023437 0.480469,-0.515625 0,-0.070312 0.01172,-0.082031 0.269531,-0.1054688 0.140625,-0.011719 0.292969,-0.011719 0.433594,-0.011719 0.28125,0 0.691406,0 1.078125,0.3046875 0.433593,0.328125 0.433593,0.6679687 0.433593,1.0195312 -0.703125,0.023437 -1.394531,0.070312 -2.144531,0.3046875 -0.597656,0.1992188 -1.359375,0.6328125 -1.359375,1.4414063 0,0.85546874 0.75,1.57031249 1.863281,1.57031249 0.386719,0 1.125,-0.05859375 1.746094,-0.4921875 0.246094,0.3984375 0.84375,0.421875 1.289063,0.421875 0.292968,0 0.574218,0 0.574218,-0.3515625 0,-0.33984375 -0.304687,-0.33984375 -0.480468,-0.33984375 -0.304688,0 -0.539063,-0.0234375 -0.714844,-0.09375 z m -0.773438,1.8164062 c 0,0.28125 0,0.5273438 -0.492187,0.76171879 -0.421875,0.19921875 -0.972656,0.19921875 -1.019531,0.19921875 -0.703125,0 -1.21875,-0.38671874 -1.21875,-0.87890624 0,-0.703125 1.289062,-1.1015625 2.730468,-1.1015625 z m 5.355469,-1.0664062 1.371094,-1.8046875 h 0.421875 c 0.164062,0 0.46875,0 0.46875,-0.3515625 0,-0.3515625 -0.304688,-0.3515625 -0.46875,-0.3515625 H 65.34582 c -0.164062,0 -0.46875,0 -0.46875,0.3515625 0,0.3515625 0.28125,0.3515625 0.574219,0.3515625 l -0.902344,1.2304687 -0.914062,-1.2304687 c 0.269531,0 0.550781,0 0.550781,-0.3515625 0,-0.3515625 -0.304687,-0.3515625 -0.46875,-0.3515625 h -1.335937 c -0.164063,0 -0.46875,0 -0.46875,0.3515625 0,0.3515625 0.304687,0.3515625 0.46875,0.3515625 h 0.421875 l 1.429687,1.8046875 -1.5,1.95703124 h -0.410156 c -0.164063,0 -0.480469,0 -0.480469,0.33984375 0,0.3515625 0.316406,0.3515625 0.480469,0.3515625 h 1.324219 c 0.164062,0 0.46875,0 0.46875,-0.3515625 0,-0.33984375 -0.269532,-0.33984375 -0.597657,-0.33984375 l 1.03125,-1.51171874 1.078125,1.51171874 c -0.304687,0 -0.585937,0 -0.585937,0.33984375 0,0.3515625 0.304687,0.3515625 0.480469,0.3515625 h 1.324218 c 0.164063,0 0.480469,0 0.480469,-0.3515625 0,-0.33984375 -0.316406,-0.33984375 -0.480469,-0.33984375 h -0.421875 z m 6.386719,-4.125 c 0,-0.3046875 -0.234375,-0.5390625 -0.539063,-0.5390625 -0.292968,0 -0.539062,0.234375 -0.539062,0.5390625 0,0.2929687 0.246094,0.5390625 0.539062,0.5390625 0.304688,0 0.539063,-0.2460938 0.539063,-0.5390625 z m -2.050781,1.6171875 c -0.175782,0 -0.480469,0 -0.480469,0.3515625 0,0.3515625 0.304687,0.3515625 0.480469,0.3515625 h 1.277343 v 3.76171874 h -1.371093 c -0.164063,0 -0.480469,0 -0.480469,0.33984375 0,0.3515625 0.316406,0.3515625 0.480469,0.3515625 h 3.328125 c 0.164062,0 0.480468,0 0.480468,-0.3515625 0,-0.33984375 -0.316406,-0.33984375 -0.480468,-0.33984375 H 71.275508 V -4.6653203 c 0,-0.3632813 -0.07031,-0.4921875 -0.480469,-0.4921875 z m 9.609375,0.3515625 c 0,-0.1875 0,-0.4570313 -0.328125,-0.4570313 -0.292969,0 -0.363282,0.28125 -0.363282,0.2929688 -0.480468,-0.2929688 -1.019531,-0.2929688 -1.265625,-0.2929688 -1.945312,0 -2.214843,0.9960938 -2.214843,1.40625 0,0.4804688 0.292968,0.8203125 0.703125,1.0429688 0.375,0.2226562 0.726562,0.28125 1.699218,0.4335937 0.46875,0.082031 1.429688,0.234375 1.429688,0.9023438 0,0.4335937 -0.410156,0.85546874 -1.523438,0.85546874 -0.761718,0 -1.265625,-0.3046875 -1.511718,-1.16015624 -0.05859,-0.1640625 -0.09375,-0.2929688 -0.398438,-0.2929688 -0.398437,0 -0.398437,0.2226563 -0.398437,0.4570313 v 1.23046874 c 0,0.19921875 0,0.45703125 0.339843,0.45703125 0.140625,0 0.246094,0 0.433594,-0.4921875 0.550781,0.45703125 1.171875,0.4921875 1.535156,0.4921875 2.214844,0 2.214844,-1.42968749 2.214844,-1.54687499 0,-1.2539063 -1.476562,-1.5 -2.050781,-1.5820313 -1.054688,-0.1757812 -1.769531,-0.3046875 -1.769531,-0.796875 0,-0.328125 0.363281,-0.7148437 1.488281,-0.7148437 1.136719,0 1.183594,0.5390625 1.207031,0.8554687 0.02344,0.234375 0.246094,0.2695313 0.386719,0.2695313 0.386719,0 0.386719,-0.2109375 0.386719,-0.4570313 z m 4.886718,0.3398437 c 0,-0.3984375 -0.316406,-0.6914062 -0.667968,-0.6914062 -0.375,0 -0.679688,0.3046875 -0.679688,0.6914062 0,0.3515625 0.316406,0.6679688 0.667969,0.6679688 0.398437,0 0.679687,-0.328125 0.679687,-0.6679688 z m 0,3.79687504 c 0,-0.39843754 -0.316406,-0.67968754 -0.667968,-0.67968754 -0.375,0 -0.679688,0.2929688 -0.679688,0.67968754 0,0.3515625 0.316406,0.66796875 0.667969,0.66796875 0.398437,0 0.679687,-0.328125 0.679687,-0.66796875 z m 17.77441,-2.92968754 c 1.24219,0 1.79297,0.8671875 1.79297,1.5234375 0,0.7851563 -0.6914,1.52343754 -1.74609,1.52343754 -1.19531,0 -1.734376,-0.64453124 -1.734376,-0.80859374 0,-0.023437 0.01172,-0.046875 0.02344,-0.058594 0.04687,-0.09375 0.08203,-0.1875 0.08203,-0.2929687 0,-0.2460938 -0.1875,-0.4804688 -0.46875,-0.4804688 -0.257812,0 -0.492187,0.1640625 -0.492187,0.5273438 0,1.04296874 1.136713,1.80468749 2.589843,1.80468749 1.51172,0 2.51953,-1.078125 2.51953,-2.20312499 0,-0.609375 -0.32812,-1.4648438 -1.38281,-1.921875 0.72656,-0.4453125 1.05469,-1.171875 1.05469,-1.7929688 0,-0.890625 -0.90235,-1.6640625 -2.19141,-1.6640625 -1.32422,0 -2.261718,0.5625 -2.261718,1.453125 0,0.3984375 0.304687,0.515625 0.492187,0.515625 0.222656,0 0.480471,-0.1640625 0.480471,-0.4921875 0,-0.1875 -0.0937,-0.2929687 -0.0937,-0.3164062 0.35156,-0.4453125 1.18359,-0.46875 1.38281,-0.46875 0.82031,0 1.41797,0.421875 1.41797,0.984375 0,0.3515625 -0.23438,1.3476562 -1.48828,1.4296875 -0.44532,0.023437 -0.63282,0.046875 -0.67969,0.046875 -0.23438,0.023437 -0.30469,0.1757812 -0.30469,0.3398437 0,0.3515625 0.25781,0.3515625 0.45703,0.3515625 z m 12.84668,-3.2109375 c 0,-0.5976562 -0.43359,-0.6328125 -0.53906,-0.6328125 -0.11719,0 -0.53906,0.046875 -0.53906,0.6328125 0,0.1757813 0.082,3.4804688 0.0937,3.9492188 0.0117,0.6679687 0.0234,0.7851562 0.44531,0.7851562 0.39844,0 0.42188,-0.1640625 0.4336,-0.3984375 0.0352,-0.6914062 0.0352,-1.4179687 0.0469,-2.1210937 0.0234,-0.7265625 0.0586,-1.4882813 0.0586,-2.2148438 z m 0,6.26953129 c 0,-0.29296875 -0.23437,-0.53906249 -0.53906,-0.53906249 -0.29297,0 -0.53906,0.24609374 -0.53906,0.53906249 0,0.3046875 0.24609,0.5390625 0.53906,0.5390625 0.30469,0 0.53906,-0.234375 0.53906,-0.5390625 z m 7.73438,-3.63281249 c 0.15234,0 0.51562,0 0.51562,-0.3867188 0,-0.3867187 -0.39843,-0.3867187 -0.57421,-0.3867187 h -4.11329 c -0.1875,0 -0.57421,0 -0.57421,0.3867187 0,0.3867188 0.36328,0.3867188 0.51562,0.3867188 z m -0.0586,1.8164062 c 0.17578,0 0.57421,0 0.57421,-0.3984375 0,-0.375 -0.375,-0.375 -0.51562,-0.375 h -4.23047 c -0.16406,0 -0.51562,0 -0.51562,0.375 0,0.3984375 0.38671,0.3984375 0.57421,0.3984375 z m 11.33789,-0.2695312 c 0.16406,-0.1523438 1.37109,-1.171875 1.37109,-2.5078125 0,-1.359375 -1.125,-2.3085938 -2.61328,-2.3085938 -1.38281,0 -2.3086,1.03125 -2.3086,2.0390625 0,0.5039063 0.42188,0.5390625 0.49219,0.5390625 0.21094,0 0.48047,-0.1640625 0.48047,-0.4921875 0,-0.2226562 -0.082,-0.2929687 -0.15234,-0.3515625 0.17578,-0.6328125 0.72656,-1.0429687 1.41797,-1.0429687 1.00781,0 1.91015,0.5859375 1.91015,1.6171875 0,0.9375 -0.70312,1.6523437 -1.34765,2.2148437 l -2.63672,2.28515629 c -0.12891,0.10546875 -0.16407,0.140625 -0.16407,0.28125 0,0.3515625 0.32813,0.3515625 0.49219,0.3515625 h 4.17188 c 0.25781,-0.0703125 0.25781,-0.31640625 0.25781,-0.4921875 v -0.24609375 c 0,-0.22265625 0,-0.49218754 -0.375,-0.49218754 -0.39844,0 -0.39844,0.24609379 -0.39844,0.53906254 h -2.88281 z M 4.9913281,10.841516 c 0,-1.1718754 -0.5507812,-1.7226566 -1.5234375,-1.7226566 -0.8203125,0 -1.3359375,0.4570312 -1.546875,0.6796875 0,-0.4335938 0,-0.609375 -0.4804687,-0.609375 H 0.65539062 c -0.1640625,0 -0.48046875,0 -0.48046875,0.3515625 0,0.3515625 0.31640625,0.3515625 0.48046875,0.3515625 H 1.1475781 V 13.654016 H 0.65539062 c -0.1640625,0 -0.48046875,0 -0.48046875,0.339843 0,0.351563 0.31640625,0.351563 0.48046875,0.351563 H 2.4132031 c 0.1640625,0 0.4804688,0 0.4804688,-0.351563 0,-0.339843 -0.3164063,-0.339843 -0.4804688,-0.339843 H 1.9210156 v -2.167969 c 0,-1.160156 0.8203125,-1.6757814 1.4648438,-1.6757814 0.6914062,0 0.8320312,0.3984374 0.8320312,1.0781254 v 2.765625 H 3.7257031 c -0.1640625,0 -0.4804687,0 -0.4804687,0.339843 0,0.351563 0.3164062,0.351563 0.4804687,0.351563 h 1.7578125 c 0.1640625,0 0.4804688,0 0.4804688,-0.351563 0,-0.339843 -0.3164063,-0.339843 -0.4804688,-0.339843 H 4.9913281 Z m 6.1289059,1.207031 c 0.257813,0 0.480469,0 0.480469,-0.445313 0,-1.394531 -0.785156,-2.5195309 -2.2851561,-2.5195309 -1.3828125,0 -2.4960938,1.1953129 -2.4960938,2.6601559 0,1.5 1.2070313,2.671875 2.6835938,2.671875 1.5351561,0 2.0976561,-1.066406 2.0976561,-1.371093 0,-0.07031 -0.02344,-0.339844 -0.398437,-0.339844 -0.222657,0 -0.292969,0.08203 -0.363282,0.269531 -0.304687,0.691406 -1.0781246,0.75 -1.3007809,0.75 -0.9960937,0 -1.78125,-0.75 -1.921875,-1.675781 z m -3.4921871,-0.65625 c 0.1640625,-1.019531 0.9375,-1.6171876 1.6875,-1.6171876 1.1953121,0 1.4531251,1.0195316 1.5000001,1.6171876 z M 15.913203,7.5719844 c 0,-0.3046875 -0.234375,-0.5390625 -0.539062,-0.5390625 -0.292969,0 -0.539063,0.234375 -0.539063,0.5390625 0,0.2929687 0.246094,0.5390625 0.539063,0.5390625 0.304687,0 0.539062,-0.2460938 0.539062,-0.5390625 z m -2.050781,1.6171875 c -0.175781,0 -0.480469,0 -0.480469,0.3515625 0,0.3515625 0.304688,0.3515625 0.480469,0.3515625 h 1.277344 v 3.7617191 h -1.371094 c -0.164063,0 -0.480469,0 -0.480469,0.339843 0,0.351563 0.316406,0.351563 0.480469,0.351563 h 3.328125 c 0.164062,0 0.480469,0 0.480469,-0.351563 0,-0.339843 -0.316407,-0.339843 -0.480469,-0.339843 H 15.913203 V 9.6813594 c 0,-0.3632813 -0.07031,-0.4921875 -0.480469,-0.4921875 z m 7.171875,0.703125 h 1.945312 c 0.164063,0 0.46875,0 0.46875,-0.3515625 0,-0.3515625 -0.304687,-0.3515625 -0.46875,-0.3515625 H 21.034297 V 8.2165156 c 0,-0.2226562 0,-0.4921875 -0.375,-0.4921875 -0.398438,0 -0.398438,0.2695313 -0.398438,0.4921875 v 0.9726563 h -1.019531 c -0.164062,0 -0.480469,0 -0.480469,0.3515625 0,0.3515625 0.304688,0.3515625 0.46875,0.3515625 h 1.03125 v 3.0117191 c 0,1.101562 0.761719,1.511718 1.628907,1.511718 0.644531,0 1.828125,-0.316406 1.828125,-1.535156 0,-0.246094 0,-0.503906 -0.398438,-0.503906 -0.375,0 -0.375,0.257812 -0.375,0.515625 -0.02344,0.714844 -0.703125,0.832031 -0.972656,0.832031 -0.9375,0 -0.9375,-0.597656 -0.9375,-0.890625 z m 8.566406,0.9492191 c 0,-1.1718754 -0.550781,-1.7226566 -1.523437,-1.7226566 -0.820313,0 -1.335938,0.4570312 -1.546875,0.6796875 V 7.5368281 c 0,-0.375 -0.07031,-0.4921875 -0.480469,-0.4921875 h -0.785156 c -0.164063,0 -0.480469,0 -0.480469,0.3398438 0,0.3515625 0.316406,0.3515625 0.480469,0.3515625 h 0.492187 v 5.9179691 h -0.492187 c -0.164063,0 -0.480469,0 -0.480469,0.339843 0,0.351563 0.316406,0.351563 0.480469,0.351563 h 1.757812 c 0.164063,0 0.480469,0 0.480469,-0.351563 0,-0.339843 -0.316406,-0.339843 -0.480469,-0.339843 h -0.492187 v -2.167969 c 0,-1.160156 0.820312,-1.6757814 1.464843,-1.6757814 0.691407,0 0.832032,0.3984374 0.832032,1.0781254 v 2.765625 h -0.492188 c -0.164062,0 -0.480469,0 -0.480469,0.339843 0,0.351563 0.316407,0.351563 0.480469,0.351563 h 1.757813 c 0.164062,0 0.480468,0 0.480468,-0.351563 0,-0.339843 -0.316406,-0.339843 -0.480468,-0.339843 h -0.492188 z m 6.128906,1.207031 c 0.257813,0 0.480469,0 0.480469,-0.445313 0,-1.394531 -0.785156,-2.5195309 -2.285156,-2.5195309 -1.382813,0 -2.496094,1.1953129 -2.496094,2.6601559 0,1.5 1.207031,2.671875 2.683594,2.671875 1.535156,0 2.097656,-1.066406 2.097656,-1.371093 0,-0.07031 -0.02344,-0.339844 -0.398437,-0.339844 -0.222657,0 -0.292969,0.08203 -0.363282,0.269531 -0.304687,0.691406 -1.078125,0.75 -1.300781,0.75 -0.996094,0 -1.78125,-0.75 -1.921875,-1.675781 z m -3.492187,-0.65625 c 0.164062,-1.019531 0.9375,-1.6171876 1.6875,-1.6171876 1.195312,0 1.453125,1.0195316 1.5,1.6171876 z m 7.253906,0.691406 c 0,-1.417969 1.007813,-2.2734374 2.027344,-2.2734374 0.05859,0 0.128906,0 0.1875,0.011719 0.03516,0.4335934 0.375,0.4687494 0.457031,0.4687494 0.269531,0 0.46875,-0.199218 0.46875,-0.4687494 0,-0.5039063 -0.503906,-0.703125 -1.101562,-0.703125 -0.808594,0 -1.488282,0.3632812 -2.039063,1.0312494 V 9.6813594 c 0,-0.3632813 -0.07031,-0.4921875 -0.46875,-0.4921875 h -1.207031 c -0.175781,0 -0.480469,0 -0.480469,0.3515625 0,0.3515625 0.304688,0.3515625 0.480469,0.3515625 h 0.902344 v 3.7617191 h -0.902344 c -0.175781,0 -0.480469,0 -0.480469,0.339843 0,0.351563 0.304688,0.351563 0.480469,0.351563 h 2.929687 c 0.175782,0 0.480469,0 0.480469,-0.351563 0,-0.339843 -0.304687,-0.339843 -0.480469,-0.339843 H 39.491328 Z M 54.201289,7.5368281 c 0,-0.375 -0.07031,-0.4921875 -0.46875,-0.4921875 h -0.796875 c -0.164062,0 -0.480469,0 -0.480469,0.3398438 0,0.3515625 0.316407,0.3515625 0.480469,0.3515625 h 0.492188 v 1.9804687 c -0.1875,-0.1875 -0.679688,-0.5976562 -1.40625,-0.5976562 -1.265625,0 -2.367188,1.1484376 -2.367188,2.6601566 0,1.464843 1.019531,2.636718 2.261719,2.636718 0.773437,0 1.289062,-0.46875 1.511719,-0.726562 0,0.503906 0,0.65625 0.480468,0.65625 h 0.785157 c 0.164062,0 0.480468,0 0.480468,-0.351563 0,-0.339843 -0.316406,-0.339843 -0.480468,-0.339843 h -0.492188 z m -0.773437,4.5351559 c 0,0.667969 -0.550782,1.652344 -1.441407,1.652344 -0.867187,0 -1.558593,-0.878906 -1.558593,-1.945312 0,-1.148438 0.808593,-1.9687504 1.664062,-1.9687504 0.773438,0 1.335938,0.7148434 1.335938,1.3359374 z M 58.97082,7.5719844 c 0,-0.3046875 -0.234375,-0.5390625 -0.539062,-0.5390625 -0.292969,0 -0.539063,0.234375 -0.539063,0.5390625 0,0.2929687 0.246094,0.5390625 0.539063,0.5390625 0.304687,0 0.539062,-0.2460938 0.539062,-0.5390625 z m -2.050781,1.6171875 c -0.175781,0 -0.480469,0 -0.480469,0.3515625 0,0.3515625 0.304688,0.3515625 0.480469,0.3515625 h 1.277344 v 3.7617191 h -1.371094 c -0.164062,0 -0.480469,0 -0.480469,0.339843 0,0.351563 0.316407,0.351563 0.480469,0.351563 h 3.328125 c 0.164063,0 0.480469,0 0.480469,-0.351563 0,-0.339843 -0.316406,-0.339843 -0.480469,-0.339843 H 58.97082 V 9.6813594 c 0,-0.3632813 -0.07031,-0.4921875 -0.480468,-0.4921875 z m 10.007813,1.5351561 c 0,-0.269531 0,-1.6054686 -1.054688,-1.6054686 -0.410156,0 -0.820312,0.1992187 -1.148437,0.6328125 -0.07031,-0.1757813 -0.328125,-0.6328125 -0.902344,-0.6328125 -0.539063,0 -0.914063,0.3515625 -1.007813,0.4570312 C 62.80285,9.1891719 62.556758,9.1891719 62.334102,9.1891719 h -0.351563 c -0.164062,0 -0.480469,0 -0.480469,0.3515625 0,0.3515625 0.269532,0.3515625 0.644532,0.3515625 v 3.7617191 c -0.386719,0 -0.644532,0 -0.644532,0.339843 0,0.351563 0.316407,0.351563 0.480469,0.351563 h 0.996094 c 0.175781,0 0.480469,0 0.480469,-0.351563 0,-0.339843 -0.269532,-0.339843 -0.644532,-0.339843 v -2.203125 c 0,-1.007813 0.433594,-1.6406254 0.960938,-1.6406254 0.328125,0 0.433594,0.4218754 0.433594,0.9843754 v 2.859375 c -0.210938,0 -0.527344,0 -0.527344,0.339843 0,0.351563 0.316406,0.351563 0.480469,0.351563 h 0.878906 c 0.164062,0 0.480469,0 0.480469,-0.351563 0,-0.339843 -0.28125,-0.339843 -0.644532,-0.339843 v -2.203125 c 0,-1.007813 0.421875,-1.6406254 0.949219,-1.6406254 0.339844,0 0.433594,0.4218754 0.433594,0.9843754 v 2.859375 c -0.199219,0 -0.527344,0 -0.527344,0.339843 0,0.351563 0.328125,0.351563 0.492188,0.351563 h 0.867187 c 0.175781,0 0.480469,0 0.480469,-0.351563 0,-0.339843 -0.269531,-0.339843 -0.644531,-0.339843 z m 5.707031,1.324219 c 0.257812,0 0.480469,0 0.480469,-0.445313 0,-1.394531 -0.785157,-2.5195309 -2.285157,-2.5195309 -1.382812,0 -2.496093,1.1953129 -2.496093,2.6601559 0,1.5 1.207031,2.671875 2.683593,2.671875 1.535157,0 2.097657,-1.066406 2.097657,-1.371093 0,-0.07031 -0.02344,-0.339844 -0.398438,-0.339844 -0.222656,0 -0.292969,0.08203 -0.363281,0.269531 -0.304688,0.691406 -1.078125,0.75 -1.300781,0.75 -0.996094,0 -1.78125,-0.75 -1.921875,-1.675781 z m -3.492188,-0.65625 c 0.164063,-1.019531 0.9375,-1.6171876 1.6875,-1.6171876 1.195313,0 1.453125,1.0195316 1.5,1.6171876 z m 9.667969,-0.550781 c 0,-1.1718754 -0.550781,-1.7226566 -1.523437,-1.7226566 -0.820313,0 -1.335938,0.4570312 -1.546875,0.6796875 0,-0.4335938 0,-0.609375 -0.480469,-0.609375 h -0.785156 c -0.164063,0 -0.480469,0 -0.480469,0.3515625 0,0.3515625 0.316406,0.3515625 0.480469,0.3515625 h 0.492187 v 3.7617191 h -0.492187 c -0.164063,0 -0.480469,0 -0.480469,0.339843 0,0.351563 0.316406,0.351563 0.480469,0.351563 h 1.757812 c 0.164063,0 0.480469,0 0.480469,-0.351563 0,-0.339843 -0.316406,-0.339843 -0.480469,-0.339843 h -0.492187 v -2.167969 c 0,-1.160156 0.820312,-1.6757814 1.464843,-1.6757814 0.691407,0 0.832032,0.3984374 0.832032,1.0781254 v 2.765625 h -0.492188 c -0.164062,0 -0.480469,0 -0.480469,0.339843 0,0.351563 0.316407,0.351563 0.480469,0.351563 h 1.757813 c 0.164062,0 0.480468,0 0.480468,-0.351563 0,-0.339843 -0.316406,-0.339843 -0.480468,-0.339843 h -0.492188 z m 6.175781,-1.3007816 c 0,-0.1875 0,-0.4570313 -0.328125,-0.4570313 -0.292968,0 -0.363281,0.28125 -0.363281,0.2929688 -0.480469,-0.2929688 -1.019531,-0.2929688 -1.265625,-0.2929688 -1.945312,0 -2.214844,0.9960939 -2.214844,1.4062499 0,0.480469 0.292969,0.820313 0.703125,1.042969 0.375,0.222656 0.726563,0.28125 1.699219,0.433594 0.46875,0.08203 1.429688,0.234375 1.429688,0.902343 0,0.433594 -0.410157,0.855469 -1.523438,0.855469 -0.761719,0 -1.265625,-0.304687 -1.511719,-1.160156 -0.05859,-0.164063 -0.09375,-0.292969 -0.398437,-0.292969 -0.398438,0 -0.398438,0.222656 -0.398438,0.457031 v 1.230469 c 0,0.199219 0,0.457031 0.339844,0.457031 0.140625,0 0.246094,0 0.433594,-0.492187 0.550781,0.457031 1.171875,0.492187 1.535156,0.492187 2.214844,0 2.214844,-1.429687 2.214844,-1.546875 0,-1.253906 -1.476563,-1.5 -2.050781,-1.582031 -1.054688,-0.175781 -1.769532,-0.304687 -1.769532,-0.796875 0,-0.328125 0.363282,-0.7148436 1.488282,-0.7148436 1.136718,0 1.183593,0.5390626 1.207031,0.8554686 0.02344,0.234375 0.246094,0.269531 0.386719,0.269531 0.386718,0 0.386718,-0.210937 0.386718,-0.457031 z m 4.746094,-1.96875 c 0,-0.3046875 -0.234375,-0.5390625 -0.539062,-0.5390625 -0.292969,0 -0.539063,0.234375 -0.539063,0.5390625 0,0.2929687 0.246094,0.5390625 0.539063,0.5390625 0.304687,0 0.539062,-0.2460938 0.539062,-0.5390625 z m -2.050781,1.6171875 c -0.175781,0 -0.480469,0 -0.480469,0.3515625 0,0.3515625 0.304688,0.3515625 0.480469,0.3515625 h 1.277344 v 3.7617191 h -1.371094 c -0.164063,0 -0.480469,0 -0.480469,0.339843 0,0.351563 0.316406,0.351563 0.480469,0.351563 h 3.328125 c 0.164062,0 0.480469,0 0.480469,-0.351563 0,-0.339843 -0.316407,-0.339843 -0.480469,-0.339843 H 89.732539 V 9.6813594 c 0,-0.3632813 -0.07031,-0.4921875 -0.480469,-0.4921875 z m 10.042969,2.5781251 c 0,-1.5 -1.089844,-2.6835939 -2.378907,-2.6835939 -1.289062,0 -2.378906,1.1835939 -2.378906,2.6835939 0,1.5 1.101563,2.648437 2.378906,2.648437 1.277344,0 2.378907,-1.148437 2.378907,-2.648437 z m -2.378907,1.957031 c -0.855468,0 -1.605468,-0.914062 -1.605468,-2.039062 0,-1.113282 0.773437,-1.9101566 1.605468,-1.9101566 0.84375,0 1.605469,0.7968746 1.605469,1.9101566 0,1.136718 -0.738281,2.039062 -1.605469,2.039062 z m 8.07422,-2.882812 c 0,-1.1718754 -0.55078,-1.7226566 -1.52344,-1.7226566 -0.82031,0 -1.33594,0.4570312 -1.54687,0.6796875 0,-0.4335938 0,-0.609375 -0.480472,-0.609375 h -0.785156 c -0.164063,0 -0.480469,0 -0.480469,0.3515625 0,0.3515625 0.316406,0.3515625 0.480469,0.3515625 h 0.492187 v 3.7617191 h -0.492187 c -0.164063,0 -0.480469,0 -0.480469,0.339843 0,0.351563 0.316406,0.351563 0.480469,0.351563 h 1.757808 c 0.16407,0 0.48047,0 0.48047,-0.351563 0,-0.339843 -0.3164,-0.339843 -0.48047,-0.339843 h -0.49218 v -2.167969 c 0,-1.160156 0.82031,-1.6757814 1.46484,-1.6757814 0.69141,0 0.83203,0.3984374 0.83203,1.0781254 v 2.765625 h -0.49219 c -0.16406,0 -0.48046,0 -0.48046,0.339843 0,0.351563 0.3164,0.351563 0.48046,0.351563 h 1.75782 c 0.16406,0 0.48047,0 0.48047,-0.351563 0,-0.339843 -0.31641,-0.339843 -0.48047,-0.339843 h -0.49219 z m 10.9248,-3.2695316 c 0,-0.3046875 -0.23437,-0.5390625 -0.53906,-0.5390625 -0.29297,0 -0.53906,0.234375 -0.53906,0.5390625 0,0.2929687 0.24609,0.5390625 0.53906,0.5390625 0.30469,0 0.53906,-0.2460938 0.53906,-0.5390625 z m -2.05078,1.6171875 c -0.17578,0 -0.48047,0 -0.48047,0.3515625 0,0.3515625 0.30469,0.3515625 0.48047,0.3515625 h 1.27735 v 3.7617191 h -1.3711 c -0.16406,0 -0.48047,0 -0.48047,0.339843 0,0.351563 0.31641,0.351563 0.48047,0.351563 h 3.32813 c 0.16406,0 0.48047,0 0.48047,-0.351563 0,-0.339843 -0.31641,-0.339843 -0.48047,-0.339843 h -1.1836 V 9.6813594 c 0,-0.3632813 -0.0703,-0.4921875 -0.48047,-0.4921875 z m 9.60938,0.3515625 c 0,-0.1875 0,-0.4570313 -0.32813,-0.4570313 -0.29297,0 -0.36328,0.28125 -0.36328,0.2929688 -0.48047,-0.2929688 -1.01953,-0.2929688 -1.26562,-0.2929688 -1.94532,0 -2.21485,0.9960939 -2.21485,1.4062499 0,0.480469 0.29297,0.820313 0.70313,1.042969 0.375,0.222656 0.72656,0.28125 1.69922,0.433594 0.46875,0.08203 1.42968,0.234375 1.42968,0.902343 0,0.433594 -0.41015,0.855469 -1.52343,0.855469 -0.76172,0 -1.26563,-0.304687 -1.51172,-1.160156 -0.0586,-0.164063 -0.0937,-0.292969 -0.39844,-0.292969 -0.39844,0 -0.39844,0.222656 -0.39844,0.457031 v 1.230469 c 0,0.199219 0,0.457031 0.33985,0.457031 0.14062,0 0.24609,0 0.43359,-0.492187 0.55078,0.457031 1.17187,0.492187 1.53516,0.492187 2.21484,0 2.21484,-1.429687 2.21484,-1.546875 0,-1.253906 -1.47656,-1.5 -2.05078,-1.582031 -1.05469,-0.175781 -1.76953,-0.304687 -1.76953,-0.796875 0,-0.328125 0.36328,-0.7148436 1.48828,-0.7148436 1.13672,0 1.18359,0.5390626 1.20703,0.8554686 0.0234,0.234375 0.24609,0.269531 0.38672,0.269531 0.38672,0 0.38672,-0.210937 0.38672,-0.457031 z m 10.91601,-2.15625 c 0,-0.1757813 0,-0.4804688 -0.33984,-0.4804688 -0.21094,0 -0.28125,0.1054688 -0.35156,0.2578125 -0.22266,0.515625 -0.6211,1.1484375 -1.25391,1.1953125 -0.17578,0.011719 -0.43359,0.035156 -0.43359,0.3515625 0,0.1992188 0.11718,0.3398438 0.38672,0.3398438 0.66796,0 1.18359,-0.5039063 1.21875,-0.5273438 v 5.1328129 h -1.05469 c -0.16406,0 -0.49219,0 -0.49219,0.339843 0,0.351563 0.32813,0.351563 0.49219,0.351563 h 2.88281 c 0.16406,0 0.49219,0 0.49219,-0.351563 0,-0.339843 -0.32813,-0.339843 -0.49219,-0.339843 h -1.05469 z m 0,0"
       style="fill:#000000;fill-opacity:1;fill-rule:nonzero;stroke:none"
       aria-label="trailingaxis:3!=2&#10;neitherdimensionis1"
       transform="matrix(1.3333333,0,0,1.3333333,275.99333,164.34933)" />
  </g>
</svg>
