<?xml version="1.0" encoding="UTF-8" standalone="no"?>
<!-- Created with Inkscape (http://www.inkscape.org/) -->

<svg
   version="1.1"
   id="svg1"
   width="680.3147"
   height="199.63867"
   viewBox="0 0 680.3147 199.63867"
   sodipodi:docname="21_newaxis_outer_matmul.pdf"
   xmlns:inkscape="http://www.inkscape.org/namespaces/inkscape"
   xmlns:sodipodi="http://sodipodi.sourceforge.net/DTD/sodipodi-0.dtd"
   xmlns="http://www.w3.org/2000/svg"
   xmlns:svg="http://www.w3.org/2000/svg">
  <defs
     id="defs1" />
  <sodipodi:namedview
     id="namedview1"
     pagecolor="#ffffff"
     bordercolor="#000000"
     borderopacity="0.25"
     inkscape:showpageshadow="2"
     inkscape:pageopacity="0.0"
     inkscape:pagecheckerboard="0"
     inkscape:deskcolor="#d1d1d1">
    <inkscape:page
       x="0"
       y="0"
       inkscape:label="1"
       id="page1"
       width="680.3147"
       height="199.63867"
       margin="0"
       bleed="0" />
  </sodipodi:namedview>
  <g
     id="g1"
     inkscape:groupmode="layer"
     inkscape:label="1">
    <path
       id="path1"
       d="m -167.24615,11.33879 h 22.67743 v 22.67743 h -22.67743 z"
       style="fill:none;stroke:#000000;stroke-width:0.3985;stroke-linecap:butt;stroke-linejoin:miter;stroke-miterlimit:10;stroke-dasharray:none;stroke-opacity:1"
       transform="matrix(1.3333333,0,0,-1.3333333,406.29867,98.874667)" />
    <path
       id="path2"
       d="m 3.4458906,-7.6649844 c 0,-0.2695312 0,-0.28125 -0.2460937,-0.28125 -0.28125,0.3164063 -0.8789063,0.7617188 -2.109375,0.7617188 v 0.3515625 c 0.2695312,0 0.8671875,0 1.5234375,-0.3164063 v 6.22265627 c 0,0.43359375 -0.035156,0.57421875 -1.078125,0.57421875 h -0.375 v 0.351562505 c 0.3164062,-0.023437505 1.4765625,-0.023437505 1.875,-0.023437505 0.3984375,0 1.546875,0 1.8632812,0.023437505 V -0.35248438 H 4.5357344 c -1.0546875,0 -1.0898438,-0.140625 -1.0898438,-0.57421875 z m 0,0"
       style="fill:#000000;fill-opacity:1;fill-rule:nonzero;stroke:none"
       aria-label="1"
       transform="matrix(1.3333333,0,0,1.3333333,194.52267,73.774667)" />
    <path
       id="path3"
       d="m -167.24615,-11.33871 h 22.67743 v 22.67743 h -22.67743 z"
       style="fill:none;stroke:#000000;stroke-width:0.3985;stroke-linecap:butt;stroke-linejoin:miter;stroke-miterlimit:10;stroke-dasharray:none;stroke-opacity:1"
       transform="matrix(1.3333333,0,0,-1.3333333,406.29867,98.874667)" />
    <path
       id="path4"
       d="M 5.2622969,-2.0031172 H 4.9927656 c -0.035156,0.1992188 -0.1289062,0.8554688 -0.2460937,1.04296876 -0.082031,0.1171875 -0.7617188,0.1171875 -1.125,0.1171875 H 1.4068281 c 0.328125,-0.28124996 1.0546875,-1.04296876 1.3710938,-1.33593746 1.8164062,-1.6640625 2.484375,-2.2851563 2.484375,-3.46875 0,-1.3828125 -1.0898438,-2.296875 -2.4726563,-2.296875 -1.3945312,0 -2.20312497,1.1835937 -2.20312497,2.203125 0,0.609375 0.52734377,0.609375 0.56249997,0.609375 0.2460938,0 0.5625,-0.1757813 0.5625,-0.5625 0,-0.328125 -0.234375,-0.5507813 -0.5625,-0.5507813 -0.1054687,0 -0.1289062,0 -0.16406247,0.011719 0.22265627,-0.8203125 0.86718747,-1.3710938 1.64062497,-1.3710938 1.0195313,0 1.640625,0.8554688 1.640625,1.9570313 0,1.0078125 -0.5859375,1.8984375 -1.265625,2.6601562 L 0.58651563,-0.28046094 V 7.890625e-4 H 4.9458906 Z m 0,0"
       style="fill:#000000;fill-opacity:1;fill-rule:nonzero;stroke:none"
       aria-label="2"
       transform="matrix(1.3333333,0,0,1.3333333,194.52267,104.01067)" />
    <path
       id="path5"
       d="m -167.24615,-34.01624 h 22.67743 v 22.67743 h -22.67743 z"
       style="fill:none;stroke:#000000;stroke-width:0.3985;stroke-linecap:butt;stroke-linejoin:miter;stroke-miterlimit:10;stroke-dasharray:none;stroke-opacity:1"
       transform="matrix(1.3333333,0,0,-1.3333333,406.29867,98.874667)" />
    <path
       id="path6"
       d="m 2.2037031,-4.2894922 c -0.2109375,0.011719 -0.2578125,0.023437 -0.2578125,0.1289063 0,0.1171875 0.058594,0.1171875 0.28125,0.1171875 h 0.5507813 c 1.0078125,0 1.4648437,0.84375 1.4648437,1.9921875 0,1.55859371 -0.8085937,1.98046871 -1.3945312,1.98046871 -0.5742188,0 -1.5585938,-0.28125 -1.89843752,-1.06640621 0.37500002,0.058594 0.72656252,-0.1523438 0.72656252,-0.5859375 0,-0.3398438 -0.2578125,-0.5859375 -0.5859375,-0.5859375 -0.29296877,0 -0.59765627,0.1640625 -0.59765627,0.6210937 0,1.06640626 1.06640627,1.93359376 2.39062497,1.93359376 1.4179688,0 2.4726563,-1.078125 2.4726563,-2.28515626 0,-1.1015625 -0.890625,-1.96875 -2.0273438,-2.1679687 1.03125,-0.3046875 1.6992188,-1.171875 1.6992188,-2.109375 0,-0.9375 -0.9726563,-1.6289063 -2.1328125,-1.6289063 -1.1953125,0 -2.08593752,0.7265625 -2.08593752,1.59375 0,0.4804688 0.37500002,0.5742188 0.55078122,0.5742188 0.2578125,0 0.5390625,-0.1757813 0.5390625,-0.5390625 0,-0.375 -0.28125,-0.5390625 -0.5507812,-0.5390625 -0.070312,0 -0.09375,0 -0.1289063,0.011719 0.4570313,-0.8203125 1.5820313,-0.8203125 1.640625,-0.8203125 0.3867188,0 1.171875,0.1757813 1.171875,1.3476563 0,0.234375 -0.035156,0.9023437 -0.3867187,1.4179687 -0.3515625,0.5273438 -0.7617188,0.5625 -1.0898438,0.5742188 z m 0,0"
       style="fill:#000000;fill-opacity:1;fill-rule:nonzero;stroke:none"
       aria-label="3"
       transform="matrix(1.3333333,0,0,1.3333333,194.52267,134.24667)" />
    <path
       id="path7"
       d="m 4.9439297,-3.3989531 c 0,-0.9023438 -0.6796875,-1.8632813 -2.296875,-1.8632813 -0.4921875,0 -1.65234376,0 -1.65234376,0.8320313 0,0.3164062 0.22265626,0.4921875 0.48046876,0.4921875 0.082031,0 0.46875,-0.023437 0.4804687,-0.515625 0,-0.070312 0.011719,-0.082031 0.2695313,-0.1054688 0.140625,-0.011719 0.2929687,-0.011719 0.4335937,-0.011719 0.28125,0 0.6914063,0 1.078125,0.3046875 0.4335938,0.328125 0.4335938,0.6679687 0.4335938,1.0195312 -0.703125,0.023437 -1.3945313,0.070312 -2.1445313,0.3046875 -0.5976562,0.1992188 -1.35937496,0.6328125 -1.35937496,1.4414063 0,0.85546873 0.74999996,1.57031248 1.86328126,1.57031248 0.3867187,0 1.125,-0.05859375 1.7460937,-0.4921875 0.2460938,0.3984375 0.84375,0.421874995 1.2890625,0.421874995 0.2929688,0 0.5742188,0 0.5742188,-0.351562495 0,-0.33984375 -0.3046875,-0.33984375 -0.4804688,-0.33984375 -0.3046875,0 -0.5390625,-0.0234375 -0.7148437,-0.09375 z m -0.7734375,1.8164062 c 0,0.28125 0,0.5273438 -0.4921875,0.76171878 -0.421875,0.19921875 -0.9726563,0.19921875 -1.0195313,0.19921875 -0.703125,0 -1.21875,-0.38671873 -1.21875,-0.87890623 0,-0.703125 1.2890625,-1.1015625 2.7304688,-1.1015625 z m 7.1718748,-6.0234375 c 0.164063,0 0.46875,0 0.46875,-0.3398437 0,-0.3515625 -0.304687,-0.3515625 -0.46875,-0.3515625 H 9.2564297 c -0.3867188,0 -0.4804688,0.1054687 -0.4804688,0.4921875 v 8.30859373 c 0,0.36328125 0.082031,0.4921875 0.4804688,0.4921875 h 2.0859373 c 0.164063,0 0.46875,0 0.46875,-0.3515625 0,-0.33984375 -0.304687,-0.33984375 -0.46875,-0.33984375 H 9.5611172 V -7.6059844 Z m 4.710938,3.140625 c 0,-0.3984375 -0.316407,-0.6914062 -0.667969,-0.6914062 -0.375,0 -0.679688,0.3046875 -0.679688,0.6914062 0,0.3515625 0.316407,0.6679688 0.667969,0.6679688 0.398438,0 0.679688,-0.328125 0.679688,-0.6679688 z m 0,3.79687503 c 0,-0.39843753 -0.316407,-0.67968753 -0.667969,-0.67968753 -0.375,0 -0.679688,0.2929688 -0.679688,0.67968753 0,0.3515625 0.316407,0.667968745 0.667969,0.667968745 0.398438,0 0.679688,-0.328124995 0.679688,-0.667968745 z m 5.707031,0.6328125 c -0.07031,0.375 -0.304688,0.8203125 -0.890625,1.03125 -0.105469,0.0234375 -0.28125,0.0820313 -0.28125,0.30468747 0,0.1523438 0.175781,0.3632813 0.363281,0.3632813 0.328125,0 1.511719,-0.5859375 1.511719,-1.87500002 0,-0.6328125 -0.398438,-1.13671878 -0.925781,-1.13671878 -0.445313,0 -0.679688,0.3398438 -0.679688,0.66796878 0,0.3984375 0.304688,0.679687495 0.667969,0.679687495 0.07031,0 0.152344,-0.011718745 0.234375,-0.035156245 z M 33.004477,-6.9028594 c -0.140625,-0.3984375 -0.386719,-0.3984375 -0.632813,-0.3984375 h -0.785156 c -0.175781,0 -0.46875,0 -0.46875,0.3398438 0,0.3515625 0.304687,0.3515625 0.46875,0.3515625 h 0.269531 v 5.91796873 h -0.269531 c -0.164063,0 -0.46875,0 -0.46875,0.33984375 0,0.351562495 0.292969,0.351562495 0.46875,0.351562495 h 1.195312 c 0.175782,0 0.492188,0 0.492188,-0.351562495 0,-0.33984375 -0.316406,-0.33984375 -0.492188,-0.33984375 H 32.524008 V -6.4809844 h 0.01172 c 0.03516,0.1289063 0.140625,0.4453125 0.363281,1.0546875 l 1.78125,5.01562503 c 0.140625,0.410156245 0.375,0.410156245 0.644531,0.410156245 0.351563,0 0.492188,-0.035156245 0.492188,-0.492187495 V -6.6098906 h 0.269531 c 0.164062,0 0.480469,0 0.480469,-0.3515625 0,-0.3398438 -0.304688,-0.3398438 -0.480469,-0.3398438 h -1.195313 c -0.164062,0 -0.492187,0 -0.492187,0.3398438 0,0.3515625 0.328125,0.3515625 0.492187,0.3515625 h 0.257813 v 5.78906248 h -0.01172 c -0.03516,-0.140625 -0.140625,-0.44531248 -0.351562,-1.05468748 z m 9.363281,4.3242188 c 0,-1.5 -1.089844,-2.6835938 -2.378906,-2.6835938 -1.289063,0 -2.378907,1.1835938 -2.378907,2.6835938 0,1.5 1.101563,2.64843748 2.378907,2.64843748 1.277343,0 2.378906,-1.14843748 2.378906,-2.64843748 z m -2.378906,1.95703123 c -0.855469,0 -1.605469,-0.91406253 -1.605469,-2.03906253 0,-1.1132812 0.773437,-1.9101562 1.605469,-1.9101562 0.84375,0 1.605468,0.796875 1.605468,1.9101562 0,1.1367188 -0.738281,2.03906253 -1.605468,2.03906253 z M 48.06307,-3.5044219 c 0,-1.171875 -0.550781,-1.7226562 -1.523437,-1.7226562 -0.820313,0 -1.335938,0.4570312 -1.546875,0.6796875 0,-0.4335938 0,-0.609375 -0.480469,-0.609375 h -0.785156 c -0.164063,0 -0.480469,0 -0.480469,0.3515625 0,0.3515625 0.316406,0.3515625 0.480469,0.3515625 h 0.492187 v 3.76171873 h -0.492187 c -0.164063,0 -0.480469,0 -0.480469,0.33984375 0,0.351562495 0.316406,0.351562495 0.480469,0.351562495 h 1.757812 c 0.164063,0 0.480469,0 0.480469,-0.351562495 0,-0.33984375 -0.316406,-0.33984375 -0.480469,-0.33984375 H 44.992758 V -2.8598906 c 0,-1.1601563 0.820312,-1.6757813 1.464844,-1.6757813 0.691406,0 0.832031,0.3984375 0.832031,1.078125 v 2.76562503 h -0.492188 c -0.164062,0 -0.480468,0 -0.480468,0.33984375 0,0.351562495 0.316406,0.351562495 0.480468,0.351562495 h 1.757813 c 0.164062,0 0.480469,0 0.480469,-0.351562495 0,-0.33984375 -0.316407,-0.33984375 -0.480469,-0.33984375 H 48.06307 Z m 6.114258,1.2070313 c 0.257813,0 0.480469,0 0.480469,-0.4453125 0,-1.3945313 -0.785156,-2.5195313 -2.285156,-2.5195313 -1.382813,0 -2.496094,1.1953125 -2.496094,2.6601563 0,1.5 1.207031,2.67187498 2.683594,2.67187498 1.535156,0 2.097656,-1.06640625 2.097656,-1.37109378 0,-0.070312 -0.02344,-0.3398437 -0.398438,-0.3398437 -0.222656,0 -0.292968,0.082031 -0.363281,0.2695312 -0.304687,0.69140628 -1.078125,0.75000003 -1.300781,0.75000003 -0.996094,0 -1.78125,-0.75000003 -1.921875,-1.67578123 z m -3.492187,-0.65625 c 0.164062,-1.0195313 0.9375,-1.6171875 1.6875,-1.6171875 1.195312,0 1.453125,1.0195312 1.5,1.6171875 z m 8.191406,-4.8515625 c 0,-0.375 -0.07031,-0.4921875 -0.480469,-0.4921875 h -2.074219 c -0.175781,0 -0.480468,0 -0.480468,0.3515625 0,0.3398437 0.304687,0.3398437 0.480468,0.3398437 h 1.78125 v 7.91015628 h -1.78125 c -0.175781,0 -0.480468,0 -0.480468,0.33984375 0,0.3515625 0.304687,0.3515625 0.480468,0.3515625 h 2.074219 c 0.398438,0 0.480469,-0.1171875 0.480469,-0.4921875 z M 1.941,9.5414766 c 0,-0.1875 0,-0.4570313 -0.328125,-0.4570313 -0.2929687,0 -0.3632812,0.28125 -0.3632812,0.2929688 C 0.769125,9.0844453 0.2300625,9.0844453 -0.01603125,9.0844453 c -1.94531245,0 -2.21484375,0.9960937 -2.21484375,1.4062497 0,0.480469 0.2929688,0.820313 0.703125,1.042969 0.375,0.222656 0.7265625,0.28125 1.69921875,0.433594 0.46875,0.08203 1.42968755,0.234375 1.42968755,0.902344 0,0.433593 -0.4101563,0.855468 -1.52343755,0.855468 -0.76171875,0 -1.26562495,-0.304687 -1.51171875,-1.160156 -0.058594,-0.164062 -0.09375,-0.292969 -0.3984375,-0.292969 -0.3984375,0 -0.3984375,0.222657 -0.3984375,0.457032 v 1.230468 c 0,0.199219 0,0.457032 0.3398438,0.457032 0.140625,0 0.2460937,0 0.4335937,-0.492188 0.55078125,0.457031 1.171875,0.492188 1.53515625,0.492188 2.21484375,0 2.21484375,-1.429688 2.21484375,-1.546875 0,-1.253907 -1.4765625,-1.5 -2.05078125,-1.582032 C -0.81290625,11.111789 -1.52775,10.982883 -1.52775,10.490695 c 0,-0.328125 0.3632813,-0.7148434 1.48828125,-0.7148434 1.13671875,0 1.18359375,0.5390624 1.20703125,0.8554684 C 1.191,10.865695 1.4136563,10.900852 1.5542813,10.900852 1.941,10.900852 1.941,10.689914 1.941,10.44382 Z m 6.1259766,1.3007814 c 0,-1.1718752 -0.5507813,-1.7226564 -1.5234375,-1.7226564 -0.8203125,0 -1.3359375,0.4570312 -1.546875,0.6796875 V 7.5375703 c 0,-0.375 -0.070312,-0.4921875 -0.4804688,-0.4921875 H 3.7310391 c -0.1640625,0 -0.4804688,0 -0.4804688,0.3398438 0,0.3515625 0.3164063,0.3515625 0.4804688,0.3515625 H 4.2232266 V 13.654758 H 3.7310391 c -0.1640625,0 -0.4804688,0 -0.4804688,0.339844 0,0.351562 0.3164063,0.351562 0.4804688,0.351562 h 1.7578125 c 0.1640625,0 0.4804687,0 0.4804687,-0.351562 0,-0.339844 -0.3164062,-0.339844 -0.4804687,-0.339844 H 4.9966641 v -2.167969 c 0,-1.160156 0.8203125,-1.6757812 1.4648437,-1.6757812 0.6914063,0 0.8320313,0.3984372 0.8320313,1.0781252 v 2.765625 H 6.8013516 c -0.1640625,0 -0.4804688,0 -0.4804688,0.339844 0,0.351562 0.3164063,0.351562 0.4804688,0.351562 h 1.7578125 c 0.1640625,0 0.4804687,0 0.4804687,-0.351562 0,-0.339844 -0.3164062,-0.339844 -0.4804687,-0.339844 H 8.0669766 Z m 6.1054684,0.105469 c 0,-0.902344 -0.679687,-1.8632817 -2.296875,-1.8632817 -0.492187,0 -1.652343,0 -1.652343,0.8320313 0,0.3164064 0.222656,0.4921874 0.480468,0.4921874 0.08203,0 0.46875,-0.02344 0.480469,-0.5156249 0,-0.070312 0.01172,-0.082031 0.269531,-0.1054688 0.140625,-0.011719 0.292969,-0.011719 0.433594,-0.011719 0.28125,0 0.691406,0 1.078125,0.3046877 0.433594,0.328125 0.433594,0.667969 0.433594,1.019531 -0.703125,0.02344 -1.394531,0.07031 -2.144531,0.304688 -0.597657,0.199219 -1.3593754,0.632812 -1.3593754,1.441406 0,0.855469 0.7500004,1.570313 1.8632814,1.570313 0.386719,0 1.125,-0.05859 1.746094,-0.492188 0.246093,0.398438 0.84375,0.421875 1.289062,0.421875 0.292969,0 0.574219,0 0.574219,-0.351562 0,-0.339844 -0.304688,-0.339844 -0.480469,-0.339844 -0.304687,0 -0.539062,-0.02344 -0.714844,-0.09375 z m -0.773437,1.816406 c 0,0.28125 0,0.527344 -0.492188,0.761719 -0.421875,0.199218 -0.972656,0.199218 -1.019531,0.199218 -0.703125,0 -1.21875,-0.386718 -1.21875,-0.878906 0,-0.703125 1.289063,-1.101562 2.730469,-1.101562 z m 4.394531,4.230469 c 0.164063,0 0.480469,0 0.480469,-0.339844 0,-0.351563 -0.316406,-0.351563 -0.480469,-0.351563 h -0.492187 v -2.554687 c 0.292968,0.328125 0.726562,0.667969 1.40625,0.667969 1.265625,0 2.378906,-1.136719 2.378906,-2.648438 0,-1.476562 -1.007813,-2.6484374 -2.25,-2.6484374 -0.878906,0 -1.429688,0.5273437 -1.535156,0.6445312 0,-0.3867187 0,-0.5742187 -0.480469,-0.5742187 h -0.785156 c -0.164063,0 -0.480469,0 -0.480469,0.3515625 0,0.3515625 0.316406,0.3515625 0.480469,0.3515625 h 0.492187 v 6.4101559 h -0.492187 c -0.164063,0 -0.480469,0 -0.480469,0.351563 0,0.339844 0.316406,0.339844 0.480469,0.339844 z m -0.492187,-5.824219 c 0,-0.679688 0.667968,-1.3593752 1.453125,-1.3593752 0.855468,0 1.546875,0.8789062 1.546875,1.9570312 0,1.148438 -0.808594,1.957031 -1.664063,1.957031 -0.890625,0 -1.335937,-1.019531 -1.335937,-1.617187 z m 9.199218,0.878906 c 0.257813,0 0.480469,0 0.480469,-0.445312 0,-1.394532 -0.785156,-2.5195317 -2.285156,-2.5195317 -1.382813,0 -2.496094,1.1953127 -2.496094,2.6601567 0,1.5 1.207031,2.671875 2.683594,2.671875 1.535156,0 2.097656,-1.066407 2.097656,-1.371094 0,-0.07031 -0.02344,-0.339844 -0.398437,-0.339844 -0.222657,0 -0.292969,0.08203 -0.363282,0.269531 -0.304687,0.691407 -1.078125,0.75 -1.300781,0.75 -0.996094,0 -1.78125,-0.75 -1.921875,-1.675781 z m -3.492187,-0.65625 c 0.164062,-1.019531 0.9375,-1.6171874 1.6875,-1.6171874 1.195312,0 1.453125,1.0195314 1.5,1.6171874 z m 9.867187,-1.21875 c 0.152344,0 0.515625,0 0.515625,-0.3867187 0,-0.3867187 -0.398437,-0.3867187 -0.574218,-0.3867187 h -4.113282 c -0.1875,0 -0.574218,0 -0.574218,0.3867187 0,0.3867187 0.363281,0.3867187 0.515625,0.3867187 z m -0.05859,1.816406 c 0.175781,0 0.574218,0 0.574218,-0.398437 0,-0.375 -0.375,-0.375 -0.515625,-0.375 h -4.230468 c -0.164063,0 -0.515625,0 -0.515625,0.375 0,0.398437 0.386718,0.398437 0.574218,0.398437 z m 6.140625,3.035157 c 0,-0.152344 -0.09375,-0.199219 -0.257813,-0.316407 -1.652344,-1.136718 -2.050781,-2.847656 -2.050781,-4.007812 0,-1.1367189 0.375,-2.8593752 2.050781,-4.0195314 0.164063,-0.1171875 0.257813,-0.1640625 0.257813,-0.3164063 0,-0.1289062 -0.07031,-0.3164062 -0.351563,-0.3164062 -0.304687,0 -1.183594,0.6914062 -1.734375,1.4765625 -0.667969,0.9257812 -1.007812,2.0390625 -1.007812,3.1757814 0,1.324219 0.480468,2.4375 0.984375,3.140625 0.550781,0.761719 1.417968,1.5 1.757812,1.5 0.28125,0 0.351563,-0.210938 0.351563,-0.316406 z m 4.089843,-4.277344 c 1.242188,0 1.792969,0.867187 1.792969,1.523437 0,0.785157 -0.691406,1.523438 -1.746094,1.523438 -1.195312,0 -1.734375,-0.644531 -1.734375,-0.808594 0,-0.02344 0.01172,-0.04687 0.02344,-0.05859 0.04687,-0.09375 0.08203,-0.1875 0.08203,-0.292968 0,-0.246094 -0.1875,-0.480469 -0.46875,-0.480469 -0.257812,0 -0.492187,0.164062 -0.492187,0.527344 0,1.042968 1.136718,1.804687 2.589843,1.804687 1.511719,0 2.519532,-1.078125 2.519532,-2.203125 0,-0.609375 -0.328125,-1.464844 -1.382813,-1.921875 0.726563,-0.4453124 1.054688,-1.1718749 1.054688,-1.7929687 0,-0.890625 -0.902344,-1.6640625 -2.191407,-1.6640625 -1.324218,0 -2.261718,0.5625 -2.261718,1.453125 0,0.3984375 0.304687,0.515625 0.492187,0.515625 0.222656,0 0.480469,-0.1640625 0.480469,-0.4921875 0,-0.1875 -0.09375,-0.2929687 -0.09375,-0.3164062 0.351562,-0.4453125 1.183594,-0.46875 1.382812,-0.46875 0.820313,0 1.417969,0.421875 1.417969,0.984375 0,0.3515625 -0.234375,1.3476562 -1.488281,1.4296879 -0.445313,0.02344 -0.632813,0.04687 -0.679688,0.04687 -0.234375,0.02344 -0.304687,0.175781 -0.304687,0.339843 0,0.351563 0.257812,0.351563 0.457031,0.351563 z m 6.398438,3.5625 c -0.07031,0.375 -0.304688,0.820312 -0.890625,1.03125 -0.105469,0.02344 -0.28125,0.08203 -0.28125,0.304687 0,0.152344 0.175781,0.363282 0.363281,0.363282 0.328125,0 1.511719,-0.585938 1.511719,-1.875 0,-0.632813 -0.398438,-1.136719 -0.925781,-1.136719 -0.445313,0 -0.679688,0.339844 -0.679688,0.667969 0,0.398437 0.304688,0.679687 0.667969,0.679687 0.07031,0 0.152344,-0.01172 0.234375,-0.03516 z m 6.480469,-6.9257814 c 0,-0.1757813 0,-0.4804688 -0.339844,-0.4804688 -0.210938,0 -0.28125,0.1054688 -0.351563,0.2578125 -0.222656,0.515625 -0.621093,1.1484375 -1.253906,1.1953125 -0.175781,0.011719 -0.433594,0.035156 -0.433594,0.3515625 0,0.1992188 0.117188,0.3398438 0.386719,0.3398438 0.667969,0 1.183594,-0.5039063 1.21875,-0.5273438 V 13.654758 H 54.09823 c -0.164063,0 -0.492188,0 -0.492188,0.339844 0,0.351562 0.328125,0.351562 0.492188,0.351562 h 2.882812 c 0.164063,0 0.492188,0 0.492188,-0.351562 0,-0.339844 -0.328125,-0.339844 -0.492188,-0.339844 h -1.054687 z m 6.632812,3.3164064 c 0,-0.9375002 -0.222656,-2.1445314 -1.089844,-3.3046877 -0.410156,-0.5507812 -1.289062,-1.3476562 -1.652343,-1.3476562 -0.269532,0 -0.339844,0.1992187 -0.339844,0.3164062 0,0.140625 0.08203,0.1992188 0.292969,0.3398438 1.464843,1.03125 2.015625,2.6367187 2.015625,3.9843749 0,1.078125 -0.351563,2.835938 -2.0625,4.019531 -0.152344,0.105469 -0.246094,0.164063 -0.246094,0.316407 0,0.105468 0.07031,0.316406 0.339844,0.316406 0.304687,0 1.183593,-0.691406 1.734375,-1.476563 0.691406,-0.972656 1.007812,-2.097656 1.007812,-3.164062 z m 0,0"
       style="fill:#000000;fill-opacity:1;fill-rule:nonzero;stroke:none"
       aria-label="a[:,None]&#10;shape=(3,1)"
       transform="matrix(1.3333333,0,0,1.3333333,157.412,21.696)" />
    <path
       id="path8"
       d="M 4.6989922,-5.7767734 C 4.5466484,-5.8822422 4.2536797,-6.0228672 3.9372734,-6.0228672 c -0.9492187,0 -1.7109375,1.03125 -1.7109375,2.3671875 0,1.40625 0.8085938,2.3789063 1.6992188,2.3789063 0.5859375,0 1.6992187,-0.515625 1.6992187,-2.5546875 0,-0.8085938 0,-3.5390625 -2.0625,-3.5390625 -1.5820312,0 -3.04687496,1.546875 -3.04687496,3.7148437 0,2.1445313 1.42968746,3.72656251 3.07031246,3.72656251 1.125,0 2.0390625,-0.7265625 2.0390625,-1.01953125 0,-0.30468746 -0.2929687,-0.30468746 -0.4101562,-0.30468746 -0.1875,0 -0.234375,0 -0.3515625,0.1054687 -0.4101563,0.39843751 -0.8554688,0.52734376 -1.2773438,0.52734376 -1.2773437,0 -2.4023437,-1.30078126 -2.4023437,-3.02343746 0,-1.7929688 1.171875,-3.0351563 2.390625,-3.0351563 0.3515625,0 0.84375,0.1289063 1.125,0.9023438 z m -0.7617188,3.8085937 c -0.5507812,0 -1.0429687,-0.75 -1.0429687,-1.6757812 0,-1.0078125 0.5390625,-1.6875 1.03125,-1.6875 0.5390625,0 1.03125,0.7382812 1.03125,1.6757812 0,1.0078125 -0.5390625,1.6875 -1.0195313,1.6875 z m 0,0"
       style="fill:#000000;fill-opacity:1;fill-rule:nonzero;stroke:none"
       aria-label="@"
       transform="matrix(1.3333333,0,0,1.3333333,243.45733,103.74533)" />
    <path
       id="path9"
       d="m -96.37914,-11.33871 h 22.67743 v 22.67743 h -22.67743 z"
       style="fill:none;stroke:#000000;stroke-width:0.3985;stroke-linecap:butt;stroke-linejoin:miter;stroke-miterlimit:10;stroke-dasharray:none;stroke-opacity:1"
       transform="matrix(1.3333333,0,0,-1.3333333,406.29867,98.874667)" />
    <path
       id="path10"
       d="m 4.3132891,-7.7804609 c 0,-0.2226563 0,-0.2929688 -0.1640625,-0.2929688 -0.09375,0 -0.1289063,0 -0.2226563,0.1523438 l -3.59765624,5.578125 v 0.3515625 H 3.4695391 v 1.07812496 c 0,0.4453125 -0.023437,0.5625 -0.9023438,0.5625 H 2.3328203 V 7.890625e-4 C 2.6023516,-0.02264844 3.5515703,-0.02264844 3.8914141,-0.02264844 c 0.328125,0 1.2890625,0 1.5585937,0.0234375025 V -0.35077344 h -0.234375 c -0.8671875,0 -0.9023437,-0.1171875 -0.9023437,-0.5625 V -1.9913984 H 5.5203203 V -2.3429609 H 4.3132891 Z m -0.7851563,0.9375 v 4.5 H 0.62188281 Z m 0,0"
       style="fill:#000000;fill-opacity:1;fill-rule:nonzero;stroke:none"
       aria-label="4"
       transform="matrix(1.3333333,0,0,1.3333333,289.01067,104.01067)" />
    <path
       id="path11"
       d="m -73.7016,-11.33871 h 22.67743 V 11.33872 H -73.7016 Z"
       style="fill:none;stroke:#000000;stroke-width:0.3985;stroke-linecap:butt;stroke-linejoin:miter;stroke-miterlimit:10;stroke-dasharray:none;stroke-opacity:1"
       transform="matrix(1.3333333,0,0,-1.3333333,406.29867,98.874667)" />
    <path
       id="path12"
       d="m 1.5337266,-6.8429609 c 0.5039062,0.1640625 0.9257812,0.1757812 1.0546875,0.1757812 1.359375,0 2.2148437,-0.9960937 2.2148437,-1.1601562 0,-0.046875 -0.023437,-0.1054688 -0.09375,-0.1054688 -0.023437,0 -0.046875,0 -0.1523437,0.046875 -0.6679688,0.28125 -1.2421875,0.3164063 -1.5585938,0.3164063 -0.7851562,0 -1.3476562,-0.234375 -1.5820312,-0.328125 -0.082031,-0.035156 -0.1054688,-0.035156 -0.1171875,-0.035156 -0.09375,0 -0.09375,0.070312 -0.09375,0.2578125 v 3.5507813 c 0,0.2109375 0,0.2929687 0.140625,0.2929687 0.058594,0 0.070312,-0.011719 0.1992187,-0.1640625 0.328125,-0.4921875 0.890625,-0.7734375 1.4882813,-0.7734375 0.6328125,0 0.9492187,0.5859375 1.0429687,0.7851563 0.1992188,0.46875 0.2109375,1.0546875 0.2109375,1.5117187 0,0.4570313 0,1.1367188 -0.328125,1.67578126 -0.2695312,0.421875 -0.7382812,0.7265625 -1.2539062,0.7265625 -0.796875,0 -1.5703125,-0.5390625 -1.78125004,-1.40624996 0.0585938,0.023437 0.12890624,0.035156 0.18750004,0.035156 0.1992187,0 0.5273437,-0.1289062 0.5273437,-0.5273437 0,-0.3398438 -0.234375,-0.5273438 -0.5273437,-0.5273438 -0.21093754,0 -0.52734379,0.1054688 -0.52734379,0.5742188 0,1.00781246 0.80859379,2.16796871 2.14453129,2.16796871 1.3476562,0 2.53125,-1.125 2.53125,-2.64843751 0,-1.4179687 -0.9609375,-2.6015625 -2.2148438,-2.6015625 -0.6796875,0 -1.2070312,0.2929688 -1.5117187,0.6328125 z m 0,0"
       style="fill:#000000;fill-opacity:1;fill-rule:nonzero;stroke:none"
       aria-label="5"
       transform="matrix(1.3333333,0,0,1.3333333,319.248,104.01067)" />
    <path
       id="path13"
       d="m -51.02406,-11.33871 h 22.67743 v 22.67743 h -22.67743 z"
       style="fill:none;stroke:#000000;stroke-width:0.3985;stroke-linecap:butt;stroke-linejoin:miter;stroke-miterlimit:10;stroke-dasharray:none;stroke-opacity:1"
       transform="matrix(1.3333333,0,0,-1.3333333,406.29867,98.874667)" />
    <path
       id="path14"
       d="m 1.465125,-4.1593672 c 0,-3.0234375 1.4765625,-3.5039062 2.1210938,-3.5039062 0.4335937,0 0.8554687,0.1289062 1.0898437,0.4921875 -0.140625,0 -0.5976562,0 -0.5976562,0.4921875 0,0.2578125 0.1757812,0.4921875 0.4921875,0.4921875 0.2929687,0 0.4921875,-0.1875 0.4921875,-0.5273438 0,-0.6210937 -0.4453125,-1.2304687 -1.4882813,-1.2304687 -1.5117187,0 -3.08203125,1.5351562 -3.08203125,4.171875 0,3.28124996 1.42968755,4.01953121 2.44921875,4.01953121 1.3007813,0 2.4140625,-1.125 2.4140625,-2.68359371 0,-1.59375 -1.1132812,-2.6601563 -2.3085937,-2.6601563 -1.0664063,0 -1.453125,0.9257813 -1.5820313,1.265625 z m 1.4765625,4.08984376 c -0.75,0 -1.1132812,-0.66796875 -1.21875,-0.92578125 C 1.6174688,-1.2999922 1.5002813,-1.8859297 1.5002813,-2.7296797 c 0,-0.9375 0.421875,-2.1210937 1.5,-2.1210937 0.65625,0 1.0078125,0.4453125 1.1835937,0.84375 0.1875,0.4453125 0.1875,1.0429687 0.1875,1.5585937 0,0.609375 0,1.1484375 -0.2226562,1.60546876 -0.3046875,0.57421875 -0.7265625,0.7734375 -1.2070313,0.7734375 z m 0,0"
       style="fill:#000000;fill-opacity:1;fill-rule:nonzero;stroke:none"
       aria-label="6"
       transform="matrix(1.3333333,0,0,1.3333333,349.484,104.01067)" />
    <path
       id="path15"
       d="m 1.9214141,-6.8071797 c 0,-0.375 -0.070312,-0.4921875 -0.4804688,-0.4921875 H 0.65578906 c -0.1640625,0 -0.48046875,0 -0.48046875,0.3398438 0,0.3515625 0.31640625,0.3515625 0.48046875,0.3515625 H 1.1479766 v 6.11718746 c 0,0.22265625 0,0.4921875 0.3984375,0.4921875 0.375,0 0.375,-0.24609375 0.375,-0.59765625 0.2929687,0.328125 0.7265625,0.66796875 1.40625,0.66796875 1.265625,0 2.3789062,-1.13671876 2.3789062,-2.64843746 0,-1.4765625 -1.0078125,-2.6484375 -2.25,-2.6484375 -0.8789062,0 -1.4296875,0.5273437 -1.5351562,0.6445312 z m 0,3.6328125 c 0,-0.6796875 0.6679687,-1.359375 1.453125,-1.359375 0.8554687,0 1.546875,0.8789063 1.546875,1.9570313 0,1.1484375 -0.8085938,1.95703121 -1.6640625,1.95703121 -0.890625,0 -1.3359375,-1.01953121 -1.3359375,-1.61718751 z m 9.4218749,-4.4296875 c 0.164063,0 0.46875,0 0.46875,-0.3398437 0,-0.3515625 -0.304687,-0.3515625 -0.46875,-0.3515625 H 9.2573516 c -0.3867188,0 -0.4804688,0.1054687 -0.4804688,0.4921875 v 8.30859371 c 0,0.36328125 0.082031,0.4921875 0.4804688,0.4921875 h 2.0859374 c 0.164063,0 0.46875,0 0.46875,-0.3515625 0,-0.33984375 -0.304687,-0.33984375 -0.46875,-0.33984375 H 9.5620391 V -7.6040547 Z m 3.199219,0.703125 c -0.140625,-0.3984375 -0.386719,-0.3984375 -0.632813,-0.3984375 h -0.785156 c -0.175781,0 -0.46875,0 -0.46875,0.3398438 0,0.3515625 0.304688,0.3515625 0.46875,0.3515625 h 0.269531 v 5.91796871 h -0.269531 c -0.164062,0 -0.46875,0 -0.46875,0.33984375 0,0.3515625 0.292969,0.3515625 0.46875,0.3515625 h 1.195313 c 0.175781,0 0.492187,0 0.492187,-0.3515625 0,-0.33984375 -0.316406,-0.33984375 -0.492187,-0.33984375 H 14.062039 V -6.4790547 h 0.01172 c 0.03516,0.1289063 0.140625,0.4453125 0.363281,1.0546875 l 1.78125,5.01562501 c 0.140625,0.41015625 0.375,0.41015625 0.644531,0.41015625 0.351563,0 0.492188,-0.03515625 0.492188,-0.4921875 V -6.6079609 h 0.269531 c 0.164063,0 0.480469,0 0.480469,-0.3515625 0,-0.3398438 -0.304688,-0.3398438 -0.480469,-0.3398438 h -1.195312 c -0.164063,0 -0.492188,0 -0.492188,0.3398438 0,0.3515625 0.328125,0.3515625 0.492188,0.3515625 h 0.257812 v 5.78906246 h -0.01172 c -0.03516,-0.140625 -0.140625,-0.44531246 -0.351562,-1.05468746 z m 9.363281,4.3242188 c 0,-1.5 -1.089844,-2.6835938 -2.378906,-2.6835938 -1.289063,0 -2.378906,1.1835938 -2.378906,2.6835938 0,1.5 1.101562,2.64843746 2.378906,2.64843746 1.277344,0 2.378906,-1.14843746 2.378906,-2.64843746 z m -2.378906,1.95703121 c -0.855469,0 -1.605469,-0.91406251 -1.605469,-2.03906251 0,-1.1132812 0.773438,-1.9101562 1.605469,-1.9101562 0.84375,0 1.605469,0.796875 1.605469,1.9101562 0,1.1367188 -0.738282,2.03906251 -1.605469,2.03906251 z m 8.074219,-2.88281251 c 0,-1.171875 -0.550782,-1.7226562 -1.523438,-1.7226562 -0.820312,0 -1.335937,0.4570312 -1.546875,0.6796875 0,-0.4335938 0,-0.609375 -0.480469,-0.609375 h -0.785156 c -0.164062,0 -0.480469,0 -0.480469,0.3515625 0,0.3515625 0.316407,0.3515625 0.480469,0.3515625 h 0.492188 v 3.76171871 h -0.492188 c -0.164062,0 -0.480469,0 -0.480469,0.33984375 0,0.3515625 0.316407,0.3515625 0.480469,0.3515625 h 1.757813 c 0.164062,0 0.480468,0 0.480468,-0.3515625 0,-0.33984375 -0.316406,-0.33984375 -0.480468,-0.33984375 H 26.530789 V -2.8579609 c 0,-1.1601563 0.820313,-1.6757813 1.464844,-1.6757813 0.691406,0 0.832031,0.3984375 0.832031,1.078125 v 2.76562501 h -0.492187 c -0.164063,0 -0.480469,0 -0.480469,0.33984375 0,0.3515625 0.316406,0.3515625 0.480469,0.3515625 h 1.757812 c 0.164063,0 0.480469,0 0.480469,-0.3515625 0,-0.33984375 -0.316406,-0.33984375 -0.480469,-0.33984375 h -0.492187 z m 6.128906,1.2070313 c 0.257812,0 0.480469,0 0.480469,-0.4453125 0,-1.3945313 -0.785157,-2.5195313 -2.285157,-2.5195313 -1.382812,0 -2.496093,1.1953125 -2.496093,2.6601563 0,1.5 1.207031,2.67187496 2.683593,2.67187496 1.535157,0 2.097657,-1.06640625 2.097657,-1.37109376 0,-0.070312 -0.02344,-0.3398437 -0.398438,-0.3398437 -0.222656,0 -0.292969,0.082031 -0.363281,0.2695312 -0.304688,0.69140626 -1.078125,0.75000001 -1.300781,0.75000001 -0.996094,0 -1.78125,-0.75000001 -1.921875,-1.67578121 z m -3.492188,-0.65625 c 0.164063,-1.0195313 0.9375,-1.6171875 1.6875,-1.6171875 1.195313,0 1.453125,1.0195312 1.5,1.6171875 z m 7.980469,2.91796871 c -0.07031,0.375 -0.304687,0.8203125 -0.890625,1.03125 -0.105469,0.0234375 -0.28125,0.0820313 -0.28125,0.30468749 0,0.1523438 0.175781,0.3632813 0.363281,0.3632813 0.328125,0 1.511719,-0.5859375 1.511719,-1.87500004 0,-0.6328125 -0.398437,-1.13671876 -0.925781,-1.13671876 -0.445313,0 -0.679688,0.3398438 -0.679688,0.66796876 0,0.3984375 0.304688,0.6796875 0.667969,0.6796875 0.07031,0 0.152344,-0.01171875 0.234375,-0.03515625 z M 52.9595,-4.4634297 c 0,-0.3984375 -0.316406,-0.6914062 -0.667969,-0.6914062 -0.375,0 -0.679687,0.3046875 -0.679687,0.6914062 0,0.3515625 0.316406,0.6679688 0.667969,0.6679688 0.398437,0 0.679687,-0.328125 0.679687,-0.6679688 z m 0,3.79687501 c 0,-0.39843751 -0.316406,-0.67968751 -0.667969,-0.67968751 -0.375,0 -0.679687,0.2929688 -0.679687,0.67968751 0,0.3515625 0.316406,0.66796875 0.667969,0.66796875 0.398437,0 0.679687,-0.328125 0.679687,-0.66796875 z m 5.917969,-7.13671871 c 0,-0.375 -0.07031,-0.4921875 -0.480469,-0.4921875 h -2.074219 c -0.175781,0 -0.480468,0 -0.480468,0.3515625 0,0.3398437 0.304687,0.3398437 0.480468,0.3398437 h 1.78125 v 7.91015626 h -1.78125 c -0.175781,0 -0.480468,0 -0.480468,0.33984375 0,0.3515625 0.304687,0.3515625 0.480468,0.3515625 H 58.397 c 0.398438,0 0.480469,-0.1171875 0.480469,-0.4921875 z M 1.9389922,9.5404766 c 0,-0.1875 0,-0.4570313 -0.328125,-0.4570313 -0.2929688,0 -0.3632813,0.28125 -0.3632813,0.2929688 C 0.76711719,9.0834453 0.22805469,9.0834453 -0.01803906,9.0834453 c -1.94531254,0 -2.21484374,0.9960937 -2.21484374,1.4062497 0,0.480469 0.2929687,0.820313 0.703125,1.042969 0.375,0.222656 0.72656249,0.28125 1.69921874,0.433594 0.46875,0.08203 1.42968746,0.234375 1.42968746,0.902344 0,0.433593 -0.4101562,0.855468 -1.52343746,0.855468 -0.76171875,0 -1.26562504,-0.304687 -1.51171874,-1.160156 -0.058594,-0.164062 -0.09375,-0.292969 -0.3984375,-0.292969 -0.3984375,0 -0.3984375,0.222657 -0.3984375,0.457032 v 1.230468 c 0,0.199219 0,0.457032 0.3398437,0.457032 0.140625,0 0.2460938,0 0.4335938,-0.492188 0.55078124,0.457031 1.17187499,0.492188 1.53515624,0.492188 2.21484376,0 2.21484376,-1.429688 2.21484376,-1.546875 0,-1.253907 -1.47656251,-1.5 -2.05078126,-1.582032 -1.0546875,-0.175781 -1.76953124,-0.304687 -1.76953124,-0.796875 0,-0.328125 0.3632812,-0.7148434 1.48828124,-0.7148434 1.13671876,0 1.18359376,0.5390624 1.20703126,0.8554684 0.023437,0.234375 0.2460937,0.269532 0.3867187,0.269532 0.3867188,0 0.3867188,-0.210938 0.3867188,-0.457032 z m 6.1289062,1.3007814 c 0,-1.1718752 -0.5507812,-1.7226564 -1.5234375,-1.7226564 -0.8203125,0 -1.3359375,0.4570312 -1.546875,0.6796875 V 7.5365703 c 0,-0.375 -0.070312,-0.4921875 -0.4804687,-0.4921875 H 3.7319609 c -0.1640625,0 -0.4804687,0 -0.4804687,0.3398438 0,0.3515625 0.3164062,0.3515625 0.4804687,0.3515625 H 4.2241484 V 13.653758 H 3.7319609 c -0.1640625,0 -0.4804687,0 -0.4804687,0.339844 0,0.351562 0.3164062,0.351562 0.4804687,0.351562 h 1.7578125 c 0.1640625,0 0.4804688,0 0.4804688,-0.351562 0,-0.339844 -0.3164063,-0.339844 -0.4804688,-0.339844 H 4.9975859 v -2.167969 c 0,-1.160156 0.8203125,-1.6757812 1.4648438,-1.6757812 0.6914062,0 0.8320312,0.3984372 0.8320312,1.0781252 v 2.765625 H 6.8022734 c -0.1640625,0 -0.4804687,0 -0.4804687,0.339844 0,0.351562 0.3164062,0.351562 0.4804687,0.351562 h 1.7578125 c 0.1640625,0 0.4804688,0 0.4804688,-0.351562 0,-0.339844 -0.3164063,-0.339844 -0.4804688,-0.339844 H 8.0678984 Z m 6.1054686,0.105469 c 0,-0.902344 -0.679687,-1.8632817 -2.296875,-1.8632817 -0.492187,0 -1.652344,0 -1.652344,0.8320313 0,0.3164064 0.222657,0.4921874 0.480469,0.4921874 0.08203,0 0.46875,-0.02344 0.480469,-0.5156249 0,-0.070312 0.01172,-0.082031 0.269531,-0.1054688 0.140625,-0.011719 0.292969,-0.011719 0.433594,-0.011719 0.28125,0 0.691406,0 1.078125,0.3046877 0.433594,0.328125 0.433594,0.667969 0.433594,1.019531 -0.703125,0.02344 -1.394532,0.07031 -2.144532,0.304688 -0.597656,0.199219 -1.3593746,0.632812 -1.3593746,1.441406 0,0.855469 0.7499996,1.570313 1.8632816,1.570313 0.386718,0 1.125,-0.05859 1.746093,-0.492188 0.246094,0.398438 0.84375,0.421875 1.289063,0.421875 0.292969,0 0.574219,0 0.574219,-0.351562 0,-0.339844 -0.304688,-0.339844 -0.480469,-0.339844 -0.304688,0 -0.539063,-0.02344 -0.714844,-0.09375 z m -0.773437,1.816406 c 0,0.28125 0,0.527344 -0.492188,0.761719 -0.421875,0.199218 -0.972656,0.199218 -1.019531,0.199218 -0.703125,0 -1.21875,-0.386718 -1.21875,-0.878906 0,-0.703125 1.289062,-1.101562 2.730469,-1.101562 z m 4.394531,4.230469 c 0.164062,0 0.480469,0 0.480469,-0.339844 0,-0.351563 -0.316407,-0.351563 -0.480469,-0.351563 h -0.492188 v -2.554687 c 0.292969,0.328125 0.726563,0.667969 1.40625,0.667969 1.265625,0 2.378907,-1.136719 2.378907,-2.648438 0,-1.476562 -1.007813,-2.6484374 -2.25,-2.6484374 -0.878907,0 -1.429688,0.5273437 -1.535157,0.6445312 0,-0.3867187 0,-0.5742187 -0.480468,-0.5742187 h -0.785157 c -0.164062,0 -0.480468,0 -0.480468,0.3515625 0,0.3515625 0.316406,0.3515625 0.480468,0.3515625 h 0.492188 v 6.4101559 h -0.492188 c -0.164062,0 -0.480468,0 -0.480468,0.351563 0,0.339844 0.316406,0.339844 0.480468,0.339844 z m -0.492188,-5.824219 c 0,-0.679688 0.667969,-1.3593752 1.453125,-1.3593752 0.855469,0 1.546875,0.8789062 1.546875,1.9570312 0,1.148438 -0.808593,1.957031 -1.664062,1.957031 -0.890625,0 -1.335938,-1.019531 -1.335938,-1.617187 z m 9.199219,0.878906 c 0.257813,0 0.480469,0 0.480469,-0.445312 0,-1.394532 -0.785156,-2.5195317 -2.285156,-2.5195317 -1.382813,0 -2.496094,1.1953127 -2.496094,2.6601567 0,1.5 1.207031,2.671875 2.683594,2.671875 1.535156,0 2.097656,-1.066407 2.097656,-1.371094 0,-0.07031 -0.02344,-0.339844 -0.398438,-0.339844 -0.222656,0 -0.292968,0.08203 -0.363281,0.269531 -0.304687,0.691407 -1.078125,0.75 -1.300781,0.75 -0.996094,0 -1.78125,-0.75 -1.921875,-1.675781 z m -3.492187,-0.65625 c 0.164062,-1.019531 0.9375,-1.6171874 1.6875,-1.6171874 1.195312,0 1.453125,1.0195314 1.5,1.6171874 z m 9.867187,-1.21875 c 0.152344,0 0.515625,0 0.515625,-0.3867187 0,-0.3867187 -0.398437,-0.3867187 -0.574219,-0.3867187 h -4.113281 c -0.1875,0 -0.574219,0 -0.574219,0.3867187 0,0.3867187 0.363282,0.3867187 0.515625,0.3867187 z m -0.05859,1.816406 c 0.175782,0 0.574219,0 0.574219,-0.398437 0,-0.375 -0.375,-0.375 -0.515625,-0.375 h -4.230469 c -0.164062,0 -0.515625,0 -0.515625,0.375 0,0.398437 0.386719,0.398437 0.574219,0.398437 z m 6.140625,3.035157 c 0,-0.152344 -0.09375,-0.199219 -0.257812,-0.316407 -1.652344,-1.136718 -2.050781,-2.847656 -2.050781,-4.007812 0,-1.1367189 0.375,-2.8593752 2.050781,-4.0195314 0.164062,-0.1171875 0.257812,-0.1640625 0.257812,-0.3164063 0,-0.1289062 -0.07031,-0.3164062 -0.351562,-0.3164062 -0.304688,0 -1.183594,0.6914062 -1.734375,1.4765625 -0.667969,0.9257812 -1.007813,2.0390625 -1.007813,3.1757814 0,1.324219 0.480469,2.4375 0.984375,3.140625 0.550782,0.761719 1.417969,1.5 1.757813,1.5 0.28125,0 0.351562,-0.210938 0.351562,-0.316406 z M 43.62259,7.3842266 c 0,-0.1757813 0,-0.4804688 -0.339844,-0.4804688 -0.210937,0 -0.28125,0.1054688 -0.351562,0.2578125 -0.222657,0.515625 -0.621094,1.1484375 -1.253907,1.1953125 -0.175781,0.011719 -0.433593,0.035156 -0.433593,0.3515625 0,0.1992188 0.117187,0.3398438 0.386718,0.3398438 0.667969,0 1.183594,-0.5039063 1.21875,-0.5273438 v 5.1328127 h -1.054687 c -0.164063,0 -0.492188,0 -0.492188,0.339844 0,0.351562 0.328125,0.351562 0.492188,0.351562 h 2.882812 c 0.164063,0 0.492188,0 0.492188,-0.351562 0,-0.339844 -0.328125,-0.339844 -0.492188,-0.339844 H 43.62259 Z m 5.824219,6.9257814 c -0.07031,0.375 -0.304688,0.820312 -0.890625,1.03125 -0.105469,0.02344 -0.28125,0.08203 -0.28125,0.304687 0,0.152344 0.175781,0.363282 0.363281,0.363282 0.328125,0 1.511719,-0.585938 1.511719,-1.875 0,-0.632813 -0.398438,-1.136719 -0.925782,-1.136719 -0.445312,0 -0.679687,0.339844 -0.679687,0.667969 0,0.398437 0.304687,0.679687 0.667969,0.679687 0.07031,0 0.152343,-0.01172 0.234375,-0.03516 z m 5.90625,-3.5625 c 1.242187,0 1.792968,0.867187 1.792968,1.523437 0,0.785157 -0.691406,1.523438 -1.746093,1.523438 -1.195313,0 -1.734375,-0.644531 -1.734375,-0.808594 0,-0.02344 0.01172,-0.04687 0.02344,-0.05859 0.04687,-0.09375 0.08203,-0.1875 0.08203,-0.292968 0,-0.246094 -0.1875,-0.480469 -0.46875,-0.480469 -0.257812,0 -0.492187,0.164062 -0.492187,0.527344 0,1.042968 1.136719,1.804687 2.589844,1.804687 1.511718,0 2.519531,-1.078125 2.519531,-2.203125 0,-0.609375 -0.328125,-1.464844 -1.382813,-1.921875 0.726563,-0.4453124 1.054688,-1.1718749 1.054688,-1.7929687 0,-0.890625 -0.902344,-1.6640625 -2.191406,-1.6640625 -1.324219,0 -2.261719,0.5625 -2.261719,1.453125 0,0.3984375 0.304687,0.515625 0.492187,0.515625 0.222657,0 0.480469,-0.1640625 0.480469,-0.4921875 0,-0.1875 -0.09375,-0.2929687 -0.09375,-0.3164062 0.351563,-0.4453125 1.183594,-0.46875 1.382813,-0.46875 0.820312,0 1.417968,0.421875 1.417968,0.984375 0,0.3515625 -0.234375,1.3476562 -1.488281,1.4296879 -0.445312,0.02344 -0.632812,0.04687 -0.679687,0.04687 -0.234375,0.02344 -0.304688,0.175781 -0.304688,0.339843 0,0.351563 0.257813,0.351563 0.457031,0.351563 z m 7.207031,-0.04687 c 0,-0.9375002 -0.222656,-2.1445314 -1.089844,-3.3046877 -0.410156,-0.5507812 -1.289062,-1.3476562 -1.652344,-1.3476562 -0.269531,0 -0.339843,0.1992187 -0.339843,0.3164062 0,0.140625 0.08203,0.1992188 0.292968,0.3398438 1.464844,1.03125 2.015625,2.6367187 2.015625,3.9843749 0,1.078125 -0.351562,2.835938 -2.0625,4.019531 -0.152343,0.105469 -0.246093,0.164063 -0.246093,0.316407 0,0.105468 0.07031,0.316406 0.339843,0.316406 0.304688,0 1.183594,-0.691406 1.734375,-1.476563 0.691407,-0.972656 1.007813,-2.097656 1.007813,-3.164062 z m 0,0"
       style="fill:#000000;fill-opacity:1;fill-rule:nonzero;stroke:none"
       aria-label="b[None,:]&#10;shape=(1,3)"
       transform="matrix(1.3333333,0,0,1.3333333,282.13733,21.697333)" />
    <path
       id="path16"
       d="m 8.0750156,-3.8676875 c 0.1640625,0 0.375,0 0.375,-0.2226562 C 8.4500156,-4.313 8.2507969,-4.313 8.0750156,-4.313 H 1.0320469 c -0.17578127,0 -0.38671877,0 -0.38671877,0.2109375 0,0.234375 0.19921875,0.234375 0.38671877,0.234375 z m 0,2.2148438 c 0.1640625,0 0.375,0 0.375,-0.2109375 0,-0.234375 -0.1992187,-0.234375 -0.375,-0.234375 H 1.0320469 c -0.17578127,0 -0.38671877,0 -0.38671877,0.2226562 0,0.2226563 0.19921875,0.2226563 0.38671877,0.2226563 z m 0,0"
       style="fill:#000000;fill-opacity:1;fill-rule:nonzero;stroke:none"
       aria-label="="
       transform="matrix(1.3333333,0,0,1.3333333,407.788,101.75067)" />
    <path
       id="path17"
       d="M 22.67737,11.33879 H 45.3548 V 34.01622 H 22.67737 Z"
       style="fill:none;stroke:#000000;stroke-width:0.3985;stroke-linecap:butt;stroke-linejoin:miter;stroke-miterlimit:10;stroke-dasharray:none;stroke-opacity:1"
       transform="matrix(1.3333333,0,0,-1.3333333,406.29867,98.874667)" />
    <path
       id="path18"
       d="m 4.312,-7.7821719 c 0,-0.2226562 0,-0.2929687 -0.1640625,-0.2929687 -0.09375,0 -0.1289062,0 -0.2226562,0.1523437 l -3.5976563,5.578125 v 0.3515625 H 3.46825 v 1.07812502 c 0,0.4453125 -0.023437,0.5625 -0.9023437,0.5625 h -0.234375 v 0.351562505 c 0.2695312,-0.023437505 1.21875,-0.023437505 1.5585937,-0.023437505 0.328125,0 1.2890625,0 1.5585938,0.023437505 V -0.35248438 h -0.234375 c -0.8671875,0 -0.9023438,-0.1171875 -0.9023438,-0.5625 V -1.9931094 H 5.5190313 V -2.3446719 H 4.312 Z m -0.7851562,0.9375 v 4.5 H 0.62059375 Z m 0,0"
       style="fill:#000000;fill-opacity:1;fill-rule:nonzero;stroke:none"
       aria-label="4"
       transform="matrix(1.3333333,0,0,1.3333333,447.75067,73.774667)" />
    <path
       id="path19"
       d="M 45.3549,11.33879 H 68.03233 V 34.01622 H 45.3549 Z"
       style="fill:none;stroke:#000000;stroke-width:0.3985;stroke-linecap:butt;stroke-linejoin:miter;stroke-miterlimit:10;stroke-dasharray:none;stroke-opacity:1"
       transform="matrix(1.3333333,0,0,-1.3333333,406.29867,98.874667)" />
    <path
       id="path20"
       d="m 1.5353672,-6.8446719 c 0.5039062,0.1640625 0.9257812,0.1757813 1.0546875,0.1757813 1.359375,0 2.2148437,-0.9960938 2.2148437,-1.1601563 0,-0.046875 -0.023437,-0.1054687 -0.09375,-0.1054687 -0.023437,0 -0.046875,0 -0.1523437,0.046875 -0.6679688,0.28125 -1.2421875,0.3164062 -1.5585938,0.3164062 -0.7851562,0 -1.3476562,-0.234375 -1.5820312,-0.328125 -0.082031,-0.035156 -0.1054688,-0.035156 -0.1171875,-0.035156 -0.09375,0 -0.09375,0.070312 -0.09375,0.2578125 v 3.5507812 c 0,0.2109375 0,0.2929688 0.140625,0.2929688 0.058594,0 0.070312,-0.011719 0.1992187,-0.1640625 0.328125,-0.4921875 0.890625,-0.7734375 1.4882813,-0.7734375 0.6328125,0 0.9492187,0.5859375 1.0429687,0.7851562 0.1992188,0.46875 0.2109375,1.0546875 0.2109375,1.5117188 0,0.4570312 0,1.1367187 -0.328125,1.67578122 -0.2695312,0.421875 -0.7382812,0.7265625 -1.2539062,0.7265625 -0.796875,0 -1.5703125,-0.5390625 -1.78125001,-1.40625002 0.0585938,0.023437 0.12890621,0.035156 0.18750001,0.035156 0.1992187,0 0.5273437,-0.1289063 0.5273437,-0.5273438 0,-0.3398437 -0.234375,-0.5273437 -0.5273437,-0.5273437 -0.21093751,0 -0.52734376,0.1054687 -0.52734376,0.5742187 0,1.00781252 0.80859376,2.16796877 2.14453126,2.16796877 1.3476562,0 2.53125,-1.125 2.53125,-2.64843747 0,-1.4179688 -0.9609375,-2.6015625 -2.2148438,-2.6015625 -0.6796875,0 -1.2070312,0.2929687 -1.5117187,0.6328125 z m 0,0"
       style="fill:#000000;fill-opacity:1;fill-rule:nonzero;stroke:none"
       aria-label="5"
       transform="matrix(1.3333333,0,0,1.3333333,477.988,73.774667)" />
    <path
       id="path21"
       d="M 68.03242,11.33879 H 90.70985 V 34.01622 H 68.03242 Z"
       style="fill:none;stroke:#000000;stroke-width:0.3985;stroke-linecap:butt;stroke-linejoin:miter;stroke-miterlimit:10;stroke-dasharray:none;stroke-opacity:1"
       transform="matrix(1.3333333,0,0,-1.3333333,406.29867,98.874667)" />
    <path
       id="path22"
       d="m 1.4638359,-4.1610781 c 0,-3.0234375 1.4765625,-3.5039063 2.1210938,-3.5039063 0.4335937,0 0.8554687,0.1289063 1.0898437,0.4921875 -0.140625,0 -0.5976562,0 -0.5976562,0.4921875 0,0.2578125 0.1757812,0.4921875 0.4921875,0.4921875 0.2929687,0 0.4921875,-0.1875 0.4921875,-0.5273437 0,-0.6210938 -0.4453125,-1.2304688 -1.4882813,-1.2304688 -1.5117187,0 -3.08203121,1.5351563 -3.08203121,4.171875 0,3.28125002 1.42968751,4.01953127 2.44921871,4.01953127 1.3007813,0 2.4140625,-1.125 2.4140625,-2.68359377 0,-1.59375 -1.1132812,-2.6601562 -2.3085937,-2.6601562 -1.0664063,0 -1.453125,0.9257812 -1.5820313,1.265625 z m 1.4765625,4.08984372 c -0.75,0 -1.1132812,-0.66796875 -1.21875,-0.92578125 C 1.6161797,-1.3017031 1.4989922,-1.8876406 1.4989922,-2.7313906 c 0,-0.9375 0.421875,-2.1210938 1.5,-2.1210938 0.65625,0 1.0078125,0.4453125 1.1835937,0.84375 0.1875,0.4453125 0.1875,1.0429688 0.1875,1.5585938 0,0.609375 0,1.1484375 -0.2226562,1.60546872 -0.3046875,0.57421875 -0.7265625,0.7734375 -1.2070313,0.7734375 z m 0,0"
       style="fill:#000000;fill-opacity:1;fill-rule:nonzero;stroke:none"
       aria-label="6"
       transform="matrix(1.3333333,0,0,1.3333333,508.224,73.774667)" />
    <path
       id="path23"
       d="M 22.67737,-11.33871 H 45.3548 V 11.33872 H 22.67737 Z"
       style="fill:none;stroke:#000000;stroke-width:0.3985;stroke-linecap:butt;stroke-linejoin:miter;stroke-miterlimit:10;stroke-dasharray:none;stroke-opacity:1"
       transform="matrix(1.3333333,0,0,-1.3333333,406.29867,98.874667)" />
    <path
       id="path24"
       d="m 3.562,-4.3117109 c 0.5976563,-0.328125 1.4648438,-0.8789063 1.4648438,-1.875 0,-1.0429688 -0.9960938,-1.7578125 -2.0976563,-1.7578125 -1.1835937,0 -2.12109375,0.8671875 -2.12109375,1.9570312 0,0.4101563 0.12890625,0.8085938 0.45703125,1.21875 0.1289063,0.1523438 0.140625,0.1640625 0.984375,0.75 -1.1601562,0.5390625 -1.7578125,1.3476563 -1.7578125,2.2148438 0,1.26562496 1.2070313,2.05078121 2.4257813,2.05078121 1.3242187,0 2.4375,-0.97265625 2.4375,-2.22656251 0,-1.21875 -0.8554688,-1.7578125 -1.7929688,-2.3320312 z M 1.9330938,-5.3898359 C 1.78075,-5.4953047 1.3002813,-5.8117109 1.3002813,-6.3976484 c 0,-0.7734375 0.8203125,-1.265625 1.6171875,-1.265625 0.8554687,0 1.6289062,0.6210937 1.6289062,1.4882812 0,0.7265625 -0.5273437,1.3125 -1.21875,1.6875 z m 0.5625,1.546875 1.453125,0.9375 c 0.3046875,0.1992187 0.8554687,0.5742187 0.8554687,1.3007812 0,0.91406251 -0.9140625,1.53515626 -1.875,1.53515626 -1.0195312,0 -1.8867187,-0.73828125 -1.8867187,-1.73437496 0,-0.9375 0.6796875,-1.6875 1.453125,-2.0390625 z m 0,0"
       style="fill:#000000;fill-opacity:1;fill-rule:nonzero;stroke:none"
       aria-label="8"
       transform="matrix(1.3333333,0,0,1.3333333,447.75067,104.01067)" />
    <path
       id="path25"
       d="M 45.3549,-11.33871 H 68.03233 V 11.33872 H 45.3549 Z"
       style="fill:none;stroke:#000000;stroke-width:0.3985;stroke-linecap:butt;stroke-linejoin:miter;stroke-miterlimit:10;stroke-dasharray:none;stroke-opacity:1"
       transform="matrix(1.3333333,0,0,-1.3333333,406.29867,98.874667)" />
    <path
       id="path26"
       d="m 3.4457656,-7.6632734 c 0,-0.2695313 0,-0.28125 -0.2460937,-0.28125 -0.28125,0.3164062 -0.8789063,0.7617187 -2.109375,0.7617187 v 0.3515625 c 0.2695312,0 0.8671875,0 1.5234375,-0.3164062 v 6.22265621 c 0,0.43359375 -0.035156,0.57421875 -1.078125,0.57421875 h -0.375 V 7.890625e-4 c 0.3164062,-0.0234375025 1.4765625,-0.0234375025 1.875,-0.0234375025 0.3984375,0 1.546875,0 1.8632812,0.0234375025 V -0.35077344 H 4.5356094 c -1.0546875,0 -1.0898438,-0.140625 -1.0898438,-0.57421875 z m 7.7636724,3.84375 c 0,-0.9960938 -0.05859,-1.96875 -0.492188,-2.8710938 -0.492187,-0.9960937 -1.3476562,-1.2539062 -1.9335937,-1.2539062 -0.6914063,0 -1.546875,0.3398437 -1.9804688,1.3359375 -0.3398437,0.75 -0.4570312,1.4882812 -0.4570312,2.7890625 0,1.1601562 0.082031,2.0273437 0.515625,2.87109371 0.4570312,0.9140625 1.2890625,1.1953125 1.9101562,1.1953125 1.0429688,0 1.6406255,-0.62109375 1.9804685,-1.31250001 0.433594,-0.890625 0.457032,-2.0625 0.457032,-2.7539062 z M 8.7719375,0.01250781 c -0.3867187,0 -1.1601562,-0.2109375 -1.3828125,-1.52343751 C 7.2485,-2.2257734 7.2485,-3.1281172 7.2485,-3.9718672 c 0,-0.9726562 0,-1.8632812 0.1992188,-2.5664062 0.1992187,-0.796875 0.8085937,-1.171875 1.3242187,-1.171875 0.4570313,0 1.1484375,0.28125 1.3710935,1.3007812 0.152344,0.6796875 0.152344,1.6289063 0.152344,2.4375 0,0.8085938 0,1.7109375 -0.128906,2.4375 -0.2226565,1.32421876 -0.9726565,1.54687501 -1.3945315,1.54687501 z m 0,0"
       style="fill:#000000;fill-opacity:1;fill-rule:nonzero;stroke:none"
       aria-label="10"
       transform="matrix(1.3333333,0,0,1.3333333,474.08533,104.01067)" />
    <path
       id="path27"
       d="M 68.03242,-11.33871 H 90.70985 V 11.33872 H 68.03242 Z"
       style="fill:none;stroke:#000000;stroke-width:0.3985;stroke-linecap:butt;stroke-linejoin:miter;stroke-miterlimit:10;stroke-dasharray:none;stroke-opacity:1"
       transform="matrix(1.3333333,0,0,-1.3333333,406.29867,98.874667)" />
    <path
       id="path28"
       d="m 3.4445469,-7.6632734 c 0,-0.2695313 0,-0.28125 -0.2460938,-0.28125 -0.28125,0.3164062 -0.8789062,0.7617187 -2.109375,0.7617187 v 0.3515625 c 0.2695313,0 0.8671875,0 1.5234375,-0.3164062 v 6.22265621 c 0,0.43359375 -0.035156,0.57421875 -1.078125,0.57421875 h -0.375 V 7.890625e-4 c 0.3164063,-0.0234375025 1.4765625,-0.0234375025 1.875,-0.0234375025 0.3984375,0 1.546875,0 1.8632813,0.0234375025 V -0.35077344 H 4.5343906 c -1.0546875,0 -1.0898437,-0.140625 -1.0898437,-0.57421875 z m 7.6699221,5.6601562 h -0.269531 c -0.03516,0.1992188 -0.128907,0.8554688 -0.246094,1.04296876 -0.08203,0.1171875 -0.761719,0.1171875 -1.1250002,0.1171875 H 7.259 C 7.587125,-1.1242109 8.3136875,-1.8859297 8.6300938,-2.1788984 c 1.8164062,-1.6640625 2.4843752,-2.2851563 2.4843752,-3.46875 0,-1.3828125 -1.089844,-2.296875 -2.4726565,-2.296875 -1.3945312,0 -2.203125,1.1835937 -2.203125,2.203125 0,0.609375 0.5273438,0.609375 0.5625,0.609375 0.2460938,0 0.5625,-0.1757813 0.5625,-0.5625 0,-0.328125 -0.234375,-0.5507813 -0.5625,-0.5507813 -0.1054687,0 -0.1289062,0 -0.1640625,0.011719 0.2226563,-0.8203125 0.8671875,-1.3710938 1.640625,-1.3710938 1.0195313,0 1.640625,0.8554688 1.640625,1.9570313 0,1.0078125 -0.5859375,1.8984375 -1.265625,2.6601562 L 6.4386875,-0.28046094 V 7.890625e-4 h 4.3593755 z m 0,0"
       style="fill:#000000;fill-opacity:1;fill-rule:nonzero;stroke:none"
       aria-label="12"
       transform="matrix(1.3333333,0,0,1.3333333,504.32133,104.01067)" />
    <path
       id="path29"
       d="M 22.67737,-34.01624 H 45.3548 v 22.67743 H 22.67737 Z"
       style="fill:none;stroke:#000000;stroke-width:0.3985;stroke-linecap:butt;stroke-linejoin:miter;stroke-miterlimit:10;stroke-dasharray:none;stroke-opacity:1"
       transform="matrix(1.3333333,0,0,-1.3333333,406.29867,98.874667)" />
    <path
       id="path30"
       d="m 3.4440547,-7.6644922 c 0,-0.2695312 0,-0.28125 -0.2460938,-0.28125 -0.28125,0.3164063 -0.8789062,0.7617188 -2.109375,0.7617188 v 0.3515625 c 0.2695313,0 0.8671875,0 1.5234375,-0.3164063 v 6.22265626 c 0,0.43359375 -0.035156,0.57421875 -1.078125,0.57421875 h -0.375 v 0.3515625025 c 0.3164063,-0.0234375025 1.4765625,-0.0234375025 1.875,-0.0234375025 0.3984375,0 1.546875,0 1.8632813,0.0234375025 V -0.35199219 H 4.5338984 c -1.0546875,0 -1.0898437,-0.140625 -1.0898437,-0.57421875 z m 7.6699223,5.6601563 h -0.269532 c -0.03516,0.1992187 -0.128906,0.8554687 -0.246093,1.04296871 -0.08203,0.1171875 -0.7617192,0.1171875 -1.1250004,0.1171875 H 7.2585078 c 0.328125,-0.28125001 1.0546875,-1.04296871 1.3710938,-1.33593751 1.8164064,-1.6640625 2.4843754,-2.2851562 2.4843754,-3.46875 0,-1.3828125 -1.089844,-2.296875 -2.4726567,-2.296875 -1.3945312,0 -2.203125,1.1835938 -2.203125,2.203125 0,0.609375 0.5273438,0.609375 0.5625,0.609375 0.2460938,0 0.5625,-0.1757812 0.5625,-0.5625 0,-0.328125 -0.234375,-0.5507812 -0.5625,-0.5507812 -0.1054687,0 -0.1289062,0 -0.1640625,0.011719 0.2226563,-0.8203125 0.8671875,-1.3710937 1.640625,-1.3710937 1.0195313,0 1.6406252,0.8554687 1.6406252,1.9570312 0,1.0078125 -0.5859377,1.8984375 -1.2656252,2.6601563 L 6.4381953,-0.28167969 V -4.296875e-4 H 10.79757 Z m 0,0"
       style="fill:#000000;fill-opacity:1;fill-rule:nonzero;stroke:none"
       aria-label="12"
       transform="matrix(1.3333333,0,0,1.3333333,443.84933,134.24667)" />
    <path
       id="path31"
       d="m 45.3549,-34.01624 h 22.67743 v 22.67743 H 45.3549 Z"
       style="fill:none;stroke:#000000;stroke-width:0.3985;stroke-linecap:butt;stroke-linejoin:miter;stroke-miterlimit:10;stroke-dasharray:none;stroke-opacity:1"
       transform="matrix(1.3333333,0,0,-1.3333333,406.29867,98.874667)" />
    <path
       id="path32"
       d="m 3.4457656,-7.6644922 c 0,-0.2695312 0,-0.28125 -0.2460937,-0.28125 -0.28125,0.3164063 -0.8789063,0.7617188 -2.109375,0.7617188 v 0.3515625 c 0.2695312,0 0.8671875,0 1.5234375,-0.3164063 v 6.22265626 c 0,0.43359375 -0.035156,0.57421875 -1.078125,0.57421875 h -0.375 v 0.3515625025 c 0.3164062,-0.0234375025 1.4765625,-0.0234375025 1.875,-0.0234375025 0.3984375,0 1.546875,0 1.8632812,0.0234375025 V -0.35199219 H 4.5356094 c -1.0546875,0 -1.0898438,-0.140625 -1.0898438,-0.57421875 z m 3.9433594,0.8203125 c 0.5039063,0.1640625 0.9257813,0.1757813 1.0546875,0.1757813 1.359375,0 2.2148435,-0.9960938 2.2148435,-1.1601563 0,-0.046875 -0.02344,-0.1054687 -0.09375,-0.1054687 -0.02344,0 -0.04687,0 -0.152343,0.046875 -0.6679692,0.28125 -1.242188,0.3164062 -1.5585942,0.3164062 -0.7851563,0 -1.3476563,-0.234375 -1.5820313,-0.328125 -0.082031,-0.035156 -0.1054687,-0.035156 -0.1171875,-0.035156 -0.09375,0 -0.09375,0.070312 -0.09375,0.2578125 v 3.5507812 c 0,0.2109375 0,0.2929688 0.140625,0.2929688 0.058594,0 0.070312,-0.011719 0.1992188,-0.1640625 0.328125,-0.4921875 0.890625,-0.7734375 1.4882812,-0.7734375 0.6328125,0 0.9492188,0.5859375 1.0429688,0.7851562 0.1992192,0.46875 0.2109372,1.0546875 0.2109372,1.5117188 0,0.4570312 0,1.1367187 -0.3281247,1.67578121 -0.2695313,0.421875 -0.7382813,0.7265625 -1.2539063,0.7265625 -0.796875,0 -1.5703125,-0.5390625 -1.78125,-1.40625001 0.058594,0.023437 0.1289063,0.035156 0.1875,0.035156 0.1992188,0 0.5273438,-0.1289063 0.5273438,-0.5273438 0,-0.3398437 -0.234375,-0.5273437 -0.5273438,-0.5273437 -0.2109375,0 -0.5273437,0.1054687 -0.5273437,0.5742187 0,1.00781251 0.8085937,2.16796876 2.1445312,2.16796876 1.3476563,0 2.5312505,-1.125 2.5312505,-2.64843746 0,-1.4179688 -0.960938,-2.6015625 -2.2148442,-2.6015625 -0.6796875,0 -1.2070313,0.2929687 -1.5117188,0.6328125 z m 0,0"
       style="fill:#000000;fill-opacity:1;fill-rule:nonzero;stroke:none"
       aria-label="15"
       transform="matrix(1.3333333,0,0,1.3333333,474.08533,134.24667)" />
    <path
       id="path33"
       d="m 68.03242,-34.01624 h 22.67743 v 22.67743 H 68.03242 Z"
       style="fill:none;stroke:#000000;stroke-width:0.3985;stroke-linecap:butt;stroke-linejoin:miter;stroke-miterlimit:10;stroke-dasharray:none;stroke-opacity:1"
       transform="matrix(1.3333333,0,0,-1.3333333,406.29867,98.874667)" />
    <path
       id="path34"
       d="m 3.4445469,-7.6644922 c 0,-0.2695312 0,-0.28125 -0.2460938,-0.28125 -0.28125,0.3164063 -0.8789062,0.7617188 -2.109375,0.7617188 v 0.3515625 c 0.2695313,0 0.8671875,0 1.5234375,-0.3164063 v 6.22265626 c 0,0.43359375 -0.035156,0.57421875 -1.078125,0.57421875 h -0.375 v 0.3515625025 c 0.3164063,-0.0234375025 1.4765625,-0.0234375025 1.875,-0.0234375025 0.3984375,0 1.546875,0 1.8632813,0.0234375025 V -0.35199219 H 4.5343906 c -1.0546875,0 -1.0898437,-0.140625 -1.0898437,-0.57421875 z M 9.41525,-4.3129297 c 0.597656,-0.328125 1.464844,-0.8789062 1.464844,-1.875 0,-1.0429687 -0.996094,-1.7578125 -2.0976565,-1.7578125 -1.1835937,0 -2.1210937,0.8671875 -2.1210937,1.9570313 0,0.4101562 0.1289062,0.8085937 0.4570312,1.21875 0.1289063,0.1523437 0.140625,0.1640625 0.984375,0.75 -1.1601562,0.5390625 -1.7578125,1.3476562 -1.7578125,2.2148437 0,1.26562501 1.2070313,2.05078126 2.4257813,2.05078126 1.3242192,0 2.4375002,-0.97265625 2.4375002,-2.22656246 0,-1.21875 -0.855469,-1.7578125 -1.792969,-2.3320313 z M 7.7863438,-5.3910547 C 7.634,-5.4965234 7.1535313,-5.8129297 7.1535313,-6.3988672 c 0,-0.7734375 0.8203125,-1.265625 1.6171875,-1.265625 0.8554687,0 1.6289062,0.6210938 1.6289062,1.4882813 0,0.7265625 -0.5273437,1.3125 -1.21875,1.6875 z m 0.5625,1.546875 1.453125,0.9375 c 0.3046872,0.1992188 0.8554692,0.5742188 0.8554692,1.3007813 0,0.91406246 -0.914063,1.53515621 -1.8750005,1.53515621 -1.0195312,0 -1.8867187,-0.73828125 -1.8867187,-1.73437501 0,-0.9375 0.6796875,-1.6875 1.453125,-2.0390625 z m 0,0"
       style="fill:#000000;fill-opacity:1;fill-rule:nonzero;stroke:none"
       aria-label="18"
       transform="matrix(1.3333333,0,0,1.3333333,504.32133,134.24667)" />
    <path
       id="path35"
       d="m 5.6609531,-6.9966094 c 0,-0.1875 0,-0.4453125 -0.328125,-0.4453125 -0.2109375,0 -0.28125,0.1289063 -0.328125,0.2109375 -0.035156,0.09375 -0.1289062,0.3046875 -0.1640625,0.3984375 -0.4921875,-0.4335937 -1.0429687,-0.609375 -1.5351562,-0.609375 -1.546875,0 -2.82421878,1.640625 -2.82421878,3.7851563 0,2.1914062 1.31249998,3.79687498 2.82421878,3.79687498 1.3945312,0 2.3554687,-1.11328125 2.3554687,-2.15624998 0,-0.375 -0.2460937,-0.375 -0.3867187,-0.375 -0.1640625,0 -0.3632813,0.058594 -0.3867188,0.2578125 -0.09375,1.49999998 -1.3007812,1.58203123 -1.5,1.58203123 -1.1132812,0 -2.1328125,-1.30078123 -2.1328125,-3.10546873 0,-1.8046875 1.03125,-3.09375 2.1210938,-3.09375 0.6445312,0 1.3476562,0.515625 1.5117187,1.6054687 0.035156,0.2695313 0.140625,0.3398438 0.3867188,0.3398438 0.3867187,0 0.3867187,-0.2109375 0.3867187,-0.4570313 z M -25.742367,9.5414766 c 0,-0.1875 0,-0.4570313 -0.328125,-0.4570313 -0.292969,0 -0.363281,0.28125 -0.363281,0.2929688 -0.480469,-0.2929688 -1.019532,-0.2929688 -1.265625,-0.2929688 -1.945313,0 -2.214844,0.9960937 -2.214844,1.4062497 0,0.480469 0.292969,0.820313 0.703125,1.042969 0.375,0.222656 0.726562,0.28125 1.699219,0.433594 0.46875,0.08203 1.429687,0.234375 1.429687,0.902344 0,0.433593 -0.410156,0.855468 -1.523437,0.855468 -0.761719,0 -1.265625,-0.304687 -1.511719,-1.160156 -0.05859,-0.164062 -0.09375,-0.292969 -0.398438,-0.292969 -0.398437,0 -0.398437,0.222657 -0.398437,0.457032 v 1.230468 c 0,0.199219 0,0.457032 0.339844,0.457032 0.140625,0 0.246093,0 0.433593,-0.492188 0.550782,0.457031 1.171875,0.492188 1.535157,0.492188 2.214843,0 2.214843,-1.429688 2.214843,-1.546875 0,-1.253907 -1.476562,-1.5 -2.050781,-1.582032 -1.054687,-0.175781 -1.769531,-0.304687 -1.769531,-0.796875 0,-0.328125 0.363281,-0.7148434 1.488281,-0.7148434 1.136719,0 1.183594,0.5390624 1.207031,0.8554684 0.02344,0.234375 0.246094,0.269532 0.386719,0.269532 0.386719,0 0.386719,-0.210938 0.386719,-0.457032 z m 6.128906,1.3007814 c 0,-1.1718752 -0.550781,-1.7226564 -1.523437,-1.7226564 -0.820313,0 -1.335938,0.4570312 -1.546875,0.6796875 V 7.5375703 c 0,-0.375 -0.07031,-0.4921875 -0.480469,-0.4921875 h -0.785156 c -0.164063,0 -0.480469,0 -0.480469,0.3398438 0,0.3515625 0.316406,0.3515625 0.480469,0.3515625 h 0.492187 v 5.9179689 h -0.492187 c -0.164063,0 -0.480469,0 -0.480469,0.339844 0,0.351562 0.316406,0.351562 0.480469,0.351562 h 1.757812 c 0.164063,0 0.480469,0 0.480469,-0.351562 0,-0.339844 -0.316406,-0.339844 -0.480469,-0.339844 h -0.492187 v -2.167969 c 0,-1.160156 0.820312,-1.6757812 1.464843,-1.6757812 0.691407,0 0.832032,0.3984372 0.832032,1.0781252 v 2.765625 h -0.492188 c -0.164062,0 -0.480469,0 -0.480469,0.339844 0,0.351562 0.316407,0.351562 0.480469,0.351562 h 1.757813 c 0.164062,0 0.480468,0 0.480468,-0.351562 0,-0.339844 -0.316406,-0.339844 -0.480468,-0.339844 h -0.492188 z m 6.105469,0.105469 c 0,-0.902344 -0.679688,-1.8632817 -2.296875,-1.8632817 -0.492188,0 -1.652344,0 -1.652344,0.8320313 0,0.3164064 0.222656,0.4921874 0.480469,0.4921874 0.08203,0 0.46875,-0.02344 0.480469,-0.5156249 0,-0.070312 0.01172,-0.082031 0.269531,-0.1054688 0.140625,-0.011719 0.292969,-0.011719 0.433594,-0.011719 0.28125,0 0.691406,0 1.078125,0.3046877 0.433593,0.328125 0.433593,0.667969 0.433593,1.019531 -0.703125,0.02344 -1.394531,0.07031 -2.144531,0.304688 -0.597656,0.199219 -1.359375,0.632812 -1.359375,1.441406 0,0.855469 0.75,1.570313 1.863281,1.570313 0.386719,0 1.125,-0.05859 1.746094,-0.492188 0.246094,0.398438 0.84375,0.421875 1.289063,0.421875 0.292968,0 0.574218,0 0.574218,-0.351562 0,-0.339844 -0.304687,-0.339844 -0.480468,-0.339844 -0.304688,0 -0.539063,-0.02344 -0.714844,-0.09375 z m -0.773438,1.816406 c 0,0.28125 0,0.527344 -0.492187,0.761719 -0.421875,0.199218 -0.972656,0.199218 -1.019531,0.199218 -0.703125,0 -1.21875,-0.386718 -1.21875,-0.878906 0,-0.703125 1.289062,-1.101562 2.730468,-1.101562 z m 4.3916019,4.230469 c 0.1640625,0 0.4804687,0 0.4804687,-0.339844 0,-0.351563 -0.3164062,-0.351563 -0.4804687,-0.351563 h -0.4921879 v -2.554687 c 0.292969,0.328125 0.7265629,0.667969 1.4062504,0.667969 1.265625,0 2.3789062,-1.136719 2.3789062,-2.648438 0,-1.476562 -1.0078125,-2.6484374 -2.25,-2.6484374 -0.8789062,0 -1.4296876,0.5273437 -1.5351566,0.6445312 0,-0.3867187 0,-0.5742187 -0.480468,-0.5742187 h -0.785157 c -0.164062,0 -0.480468,0 -0.480468,0.3515625 0,0.3515625 0.316406,0.3515625 0.480468,0.3515625 h 0.492188 v 6.4101559 h -0.492188 c -0.164062,0 -0.480468,0 -0.480468,0.351563 0,0.339844 0.316406,0.339844 0.480468,0.339844 z m -0.4921879,-5.824219 c 0,-0.679688 0.6679691,-1.3593752 1.4531254,-1.3593752 0.8554687,0 1.546875,0.8789062 1.546875,1.9570312 0,1.148438 -0.8085938,1.957031 -1.6640625,1.957031 -0.890625,0 -1.3359379,-1.019531 -1.3359379,-1.617187 z m 9.1992191,0.878906 c 0.25781252,0 0.48046877,0 0.48046877,-0.445312 0,-1.394532 -0.78515627,-2.5195317 -2.28515627,-2.5195317 -1.3828125,0 -2.4960937,1.1953127 -2.4960937,2.6601567 0,1.5 1.2070312,2.671875 2.6835937,2.671875 1.5351563,0 2.09765627,-1.066407 2.09765627,-1.371094 0,-0.07031 -0.0234375,-0.339844 -0.39843747,-0.339844 -0.2226563,0 -0.2929688,0.08203 -0.3632813,0.269531 -0.3046875,0.691407 -1.078125,0.75 -1.3007812,0.75 -0.9960938,0 -1.78125,-0.75 -1.921875,-1.675781 z m -3.4921875,-0.65625 c 0.1640625,-1.019531 0.9375,-1.6171874 1.6875,-1.6171874 1.1953125,0 1.453125,1.0195314 1.5,1.6171874 z m 9.8671875,-1.21875 c 0.1523438,0 0.515625,0 0.515625,-0.3867187 0,-0.3867187 -0.3984375,-0.3867187 -0.5742187,-0.3867187 H 1.0203281 c -0.18749998,0 -0.57421873,0 -0.57421873,0.3867187 0,0.3867187 0.36328125,0.3867187 0.515625,0.3867187 z m -0.058594,1.816406 c 0.1757812,0 0.5742187,0 0.5742187,-0.398437 0,-0.375 -0.375,-0.375 -0.515625,-0.375 H 0.96173437 c -0.1640625,0 -0.515625,0 -0.515625,0.375 0,0.398437 0.38671875,0.398437 0.57421873,0.398437 z m 6.1406249,3.035157 c 0,-0.152344 -0.09375,-0.199219 -0.257812,-0.316407 -1.6523442,-1.136718 -2.0507817,-2.847656 -2.0507817,-4.007812 0,-1.1367189 0.375,-2.8593752 2.0507817,-4.0195314 0.164062,-0.1171875 0.257812,-0.1640625 0.257812,-0.3164063 0,-0.1289062 -0.07031,-0.3164062 -0.351562,-0.3164062 -0.304688,0 -1.1835942,0.6914062 -1.7343754,1.4765625 -0.6679688,0.9257812 -1.0078125,2.0390625 -1.0078125,3.1757814 0,1.324219 0.4804687,2.4375 0.984375,3.140625 0.5507812,0.761719 1.4179689,1.5 1.7578129,1.5 0.28125,0 0.351562,-0.210938 0.351562,-0.316406 z m 4.089844,-4.277344 c 1.242188,0 1.792969,0.867187 1.792969,1.523437 0,0.785157 -0.691406,1.523438 -1.746094,1.523438 -1.195312,0 -1.734375,-0.644531 -1.734375,-0.808594 0,-0.02344 0.01172,-0.04687 0.02344,-0.05859 0.04687,-0.09375 0.08203,-0.1875 0.08203,-0.292968 0,-0.246094 -0.1875,-0.480469 -0.46875,-0.480469 -0.257813,0 -0.492188,0.164062 -0.492188,0.527344 0,1.042968 1.136719,1.804687 2.589844,1.804687 1.511719,0 2.519531,-1.078125 2.519531,-2.203125 0,-0.609375 -0.328125,-1.464844 -1.382812,-1.921875 0.726562,-0.4453124 1.054687,-1.1718749 1.054687,-1.7929687 0,-0.890625 -0.902343,-1.6640625 -2.191406,-1.6640625 -1.324219,0 -2.261719,0.5625 -2.261719,1.453125 0,0.3984375 0.304688,0.515625 0.492188,0.515625 0.222656,0 0.480469,-0.1640625 0.480469,-0.4921875 0,-0.1875 -0.09375,-0.2929687 -0.09375,-0.3164062 0.351562,-0.4453125 1.183593,-0.46875 1.382812,-0.46875 0.820313,0 1.417969,0.421875 1.417969,0.984375 0,0.3515625 -0.234375,1.3476562 -1.488281,1.4296879 -0.445313,0.02344 -0.632813,0.04687 -0.679688,0.04687 -0.234375,0.02344 -0.304687,0.175781 -0.304687,0.339843 0,0.351563 0.257812,0.351563 0.457031,0.351563 z m 6.398438,3.5625 c -0.07031,0.375 -0.304688,0.820312 -0.890625,1.03125 -0.105469,0.02344 -0.28125,0.08203 -0.28125,0.304687 0,0.152344 0.175781,0.363282 0.363281,0.363282 0.328125,0 1.511719,-0.585938 1.511719,-1.875 0,-0.632813 -0.398438,-1.136719 -0.925782,-1.136719 -0.445312,0 -0.679687,0.339844 -0.679687,0.667969 0,0.398437 0.304687,0.679687 0.667969,0.679687 0.07031,0 0.152343,-0.01172 0.234375,-0.03516 z m 5.90625,-3.5625 c 1.242187,0 1.792968,0.867187 1.792968,1.523437 0,0.785157 -0.691406,1.523438 -1.746093,1.523438 -1.195313,0 -1.734375,-0.644531 -1.734375,-0.808594 0,-0.02344 0.01172,-0.04687 0.02344,-0.05859 0.04687,-0.09375 0.08203,-0.1875 0.08203,-0.292968 0,-0.246094 -0.1875,-0.480469 -0.46875,-0.480469 -0.257812,0 -0.492187,0.164062 -0.492187,0.527344 0,1.042968 1.136719,1.804687 2.589844,1.804687 1.511718,0 2.519531,-1.078125 2.519531,-2.203125 0,-0.609375 -0.328125,-1.464844 -1.382813,-1.921875 0.726563,-0.4453124 1.054688,-1.1718749 1.054688,-1.7929687 0,-0.890625 -0.902344,-1.6640625 -2.191406,-1.6640625 -1.324219,0 -2.261719,0.5625 -2.261719,1.453125 0,0.3984375 0.304687,0.515625 0.492187,0.515625 0.222657,0 0.480469,-0.1640625 0.480469,-0.4921875 0,-0.1875 -0.09375,-0.2929687 -0.09375,-0.3164062 0.351563,-0.4453125 1.183594,-0.46875 1.382813,-0.46875 0.820312,0 1.417968,0.421875 1.417968,0.984375 0,0.3515625 -0.234375,1.3476562 -1.488281,1.4296879 -0.445312,0.02344 -0.632812,0.04687 -0.679687,0.04687 -0.234375,0.02344 -0.304688,0.175781 -0.304688,0.339843 0,0.351563 0.257813,0.351563 0.457031,0.351563 z m 7.207031,-0.04687 c 0,-0.9375002 -0.222656,-2.1445314 -1.089844,-3.3046877 -0.410156,-0.5507812 -1.289062,-1.3476562 -1.652344,-1.3476562 -0.269531,0 -0.339843,0.1992187 -0.339843,0.3164062 0,0.140625 0.08203,0.1992188 0.292968,0.3398438 1.464844,1.03125 2.015625,2.6367187 2.015625,3.9843749 0,1.078125 -0.351562,2.835938 -2.0625,4.019531 -0.152343,0.105469 -0.246093,0.164063 -0.246093,0.316407 0,0.105468 0.07031,0.316406 0.339843,0.316406 0.304688,0 1.183594,-0.691406 1.734375,-1.476563 0.691407,-0.972656 1.007813,-2.097656 1.007813,-3.164062 z m 0,0"
       style="fill:#000000;fill-opacity:1;fill-rule:nonzero;stroke:none"
       aria-label="C&#10;shape=(3,3)"
       transform="matrix(1.3333333,0,0,1.3333333,477.788,21.696)" />
    <path
       id="path36"
       d="M -138.64691,-68.59998 H 36.59827 v 27.29794 h -175.24518 z"
       style="fill:#ffffff;fill-opacity:1;fill-rule:nonzero;stroke:none"
       transform="matrix(1.3333333,0,0,-1.3333333,406.29867,98.874667)" />
    <path
       id="path37"
       d="m 4.9933828,-3.5050703 c 0,-1.171875 -0.5507812,-1.7226563 -1.5234375,-1.7226563 -0.8203125,0 -1.3359375,0.4570313 -1.546875,0.6796875 0,-0.4335937 0,-0.609375 -0.4804687,-0.609375 H 0.65744531 c -0.1640625,0 -0.48046875,0 -0.48046875,0.3515625 0,0.3515625 0.31640625,0.3515625 0.48046875,0.3515625 H 1.1496328 v 3.76171879 H 0.65744531 c -0.1640625,0 -0.48046875,0 -0.48046875,0.33984375 0,0.3515625 0.31640625,0.3515625 0.48046875,0.3515625 H 2.4152578 c 0.1640625,0 0.4804688,0 0.4804688,-0.3515625 0,-0.33984375 -0.3164063,-0.33984375 -0.4804688,-0.33984375 H 1.9230703 V -2.8605391 c 0,-1.1601562 0.8203125,-1.6757812 1.4648438,-1.6757812 0.6914062,0 0.8320312,0.3984375 0.8320312,1.078125 v 2.76562499 H 3.7277578 c -0.1640625,0 -0.4804687,0 -0.4804687,0.33984375 0,0.3515625 0.3164062,0.3515625 0.4804687,0.3515625 h 1.7578125 c 0.1640625,0 0.4804688,0 0.4804688,-0.3515625 0,-0.33984375 -0.3164063,-0.33984375 -0.4804688,-0.33984375 H 4.9933828 Z m 3.5742188,6.1523437 c 0.1640625,0 0.4804687,0 0.4804687,-0.3398437 0,-0.3515625 -0.3164062,-0.3515625 -0.4804687,-0.3515625 H 8.0754141 v -2.55468751 c 0.2929687,0.328125 0.7265625,0.66796875 1.40625,0.66796875 1.2656249,0 2.3789059,-1.13671874 2.3789059,-2.64843754 0,-1.4765625 -1.007812,-2.6484375 -2.2499997,-2.6484375 -0.8789062,0 -1.4296875,0.5273438 -1.5351562,0.6445313 0,-0.3867188 0,-0.5742188 -0.4804688,-0.5742188 H 6.8097891 c -0.1640625,0 -0.4804688,0 -0.4804688,0.3515625 0,0.3515625 0.3164063,0.3515625 0.4804688,0.3515625 H 7.3019766 V 1.9558672 H 6.8097891 c -0.1640625,0 -0.4804688,0 -0.4804688,0.3515625 0,0.3398437 0.3164063,0.3398437 0.4804688,0.3398437 z M 8.0754141,-3.1769453 c 0,-0.6796875 0.6679687,-1.359375 1.453125,-1.359375 0.8554689,0 1.5468749,0.8789062 1.5468749,1.9570312 0,1.1484375 -0.808594,1.95703129 -1.6640624,1.95703129 -0.890625,0 -1.3359375,-1.01953129 -1.3359375,-1.61718749 z m 7.9775389,2.50781249 c 0,-0.39843749 -0.316406,-0.67968749 -0.667969,-0.67968749 -0.375,0 -0.679687,0.2929687 -0.679687,0.67968749 0,0.3515625 0.316406,0.66796875 0.667969,0.66796875 0.398437,0 0.679687,-0.328125 0.679687,-0.66796875 z m 7.394531,-6.14062499 c 0,-0.375 -0.07031,-0.4921875 -0.46875,-0.4921875 h -0.796875 c -0.164062,0 -0.480468,0 -0.480468,0.3398437 0,0.3515625 0.316406,0.3515625 0.480468,0.3515625 h 0.492188 v 1.9804688 c -0.1875,-0.1875 -0.679688,-0.5976563 -1.40625,-0.5976563 -1.265625,0 -2.367188,1.1484375 -2.367188,2.6601563 0,1.4648437 1.019532,2.63671874 2.261719,2.63671874 0.773438,0 1.289063,-0.46875 1.511719,-0.7265625 0,0.50390625 0,0.65625 0.480469,0.65625 h 0.785156 c 0.164062,0 0.480469,0 0.480469,-0.3515625 0,-0.33984375 -0.316407,-0.33984375 -0.480469,-0.33984375 h -0.492188 z m -0.773437,4.5351562 c 0,0.6679688 -0.550781,1.65234379 -1.441406,1.65234379 -0.867188,0 -1.558594,-0.87890629 -1.558594,-1.94531249 0,-1.1484375 0.808594,-1.96875 1.664062,-1.96875 0.773438,0 1.335938,0.7148437 1.335938,1.3359375 z m 7.382812,-0.3046875 c 0,-1.5 -1.089843,-2.6835937 -2.378906,-2.6835937 -1.289062,0 -2.378906,1.1835937 -2.378906,2.6835937 0,1.5 1.101562,2.64843754 2.378906,2.64843754 1.277344,0 2.378906,-1.14843754 2.378906,-2.64843754 z m -2.378906,1.95703129 c -0.855469,0 -1.605469,-0.91406249 -1.605469,-2.03906249 0,-1.1132813 0.773438,-1.9101563 1.605469,-1.9101563 0.84375,0 1.605469,0.796875 1.605469,1.9101563 0,1.1367187 -0.738281,2.03906249 -1.605469,2.03906249 z m 5.660156,-3.83203129 h 1.945313 c 0.164062,0 0.46875,0 0.46875,-0.3515625 0,-0.3515625 -0.304688,-0.3515625 -0.46875,-0.3515625 h -1.945313 v -0.9726562 c 0,-0.2226563 0,-0.4921875 -0.375,-0.4921875 -0.398437,0 -0.398437,0.2695312 -0.398437,0.4921875 v 0.9726562 h -1.019531 c -0.164063,0 -0.480469,0 -0.480469,0.3515625 0,0.3515625 0.304687,0.3515625 0.46875,0.3515625 h 1.03125 v 3.0117188 c 0,1.10156249 0.761719,1.51171874 1.628906,1.51171874 0.644531,0 1.828125,-0.31640625 1.828125,-1.53515624 0,-0.2460938 0,-0.5039063 -0.398437,-0.5039063 -0.375,0 -0.375,0.2578125 -0.375,0.515625 -0.02344,0.71484379 -0.703125,0.83203129 -0.972657,0.83203129 -0.9375,0 -0.9375,-0.59765629 -0.9375,-0.89062499 z m 11.994141,3.72656254 c -0.140625,0 -0.691406,0 -0.691406,-0.64453124 0,-0.234375 0.03516,-0.28125 0.08203,-0.375 0.234375,0.1640625 0.632813,0.328125 1.066406,0.328125 1.078125,0 1.921875,-0.8789063 1.921875,-1.9101563 0,-0.2929687 -0.07031,-0.6679687 -0.328125,-1.0546875 0.316407,-0.1757812 0.597657,-0.2109375 0.785157,-0.2226562 0.07031,0.375 0.410156,0.3867187 0.421875,0.3867187 0.152343,0 0.445312,-0.09375 0.445312,-0.4570312 0,-0.2226563 -0.175781,-0.6210938 -0.84375,-0.6210938 -0.222656,0 -0.761719,0.046875 -1.265625,0.4453125 -0.386719,-0.28125 -0.796875,-0.375 -1.125,-0.375 -1.089844,0 -1.933594,0.8789063 -1.933594,1.8984375 0,0.2695313 0.05859,0.7265625 0.398438,1.1484375 -0.222656,0.3398438 -0.257813,0.703125 -0.257813,0.84375 0,0.41015629 0.199219,0.75000004 0.292969,0.85546879 -0.65625,0.36328125 -0.890625,1.0078125 -0.890625,1.4765625 0,0.98437501 1.207031,1.74609371 2.71875,1.74609371 1.523438,0 2.730469,-0.75 2.730469,-1.74609371 0,-1.72265625 -2.121094,-1.72265625 -2.507813,-1.72265625 z m 0.457031,-1.37109374 c -0.597656,0 -1.136718,-0.515625 -1.136718,-1.2304688 0,-0.703125 0.550781,-1.2304687 1.136718,-1.2304687 0.632813,0 1.136719,0.5507812 1.136719,1.2304687 0,0.6914063 -0.503906,1.2304688 -1.136719,1.2304688 z m 0.339844,4.1601562 c -1.171875,0 -2.039062,-0.515625 -2.039062,-1.06640621 0,-0.1875 0.05859,-0.59765625 0.503906,-0.87890625 0.269531,-0.17578125 0.386719,-0.17578125 1.21875,-0.17578125 1.042969,0 2.367187,0 2.367187,1.0546875 0,0.55078121 -0.878906,1.06640621 -2.050781,1.06640621 z m 6.691406,-8.8359375 c 0,-0.3046875 -0.234375,-0.5390625 -0.539062,-0.5390625 -0.292969,0 -0.539063,0.234375 -0.539063,0.5390625 0,0.2929688 0.246094,0.5390625 0.539063,0.5390625 0.304687,0 0.539062,-0.2460937 0.539062,-0.5390625 z m -2.050781,1.6171875 c -0.175781,0 -0.480469,0 -0.480469,0.3515625 0,0.3515625 0.304688,0.3515625 0.480469,0.3515625 h 1.277344 v 3.76171879 H 50.676 c -0.164062,0 -0.480469,0 -0.480469,0.33984375 0,0.3515625 0.316407,0.3515625 0.480469,0.3515625 h 3.328125 c 0.164063,0 0.480469,0 0.480469,-0.3515625 0,-0.33984375 -0.316406,-0.33984375 -0.480469,-0.33984375 H 52.820531 V -4.6652266 c 0,-0.3632812 -0.07031,-0.4921875 -0.480468,-0.4921875 z m 9.65625,0.703125 h 0.316406 c 0.164063,0 0.492188,0 0.492188,-0.3515625 0,-0.3515625 -0.328125,-0.3515625 -0.492188,-0.3515625 h -1.3125 c -0.164062,0 -0.492187,0 -0.492187,0.3515625 0,0.3515625 0.328125,0.3515625 0.492187,0.3515625 h 0.292969 L 58.433813,-0.61053906 57.14475,-4.4542891 h 0.292969 c 0.175781,0 0.492187,0 0.492187,-0.3515625 0,-0.3515625 -0.316406,-0.3515625 -0.492187,-0.3515625 h -1.3125 c -0.164063,0 -0.492188,0 -0.492188,0.3515625 0,0.3515625 0.328125,0.3515625 0.492188,0.3515625 h 0.316406 l 1.371094,4.10156254 c 0.128906,0.41015625 0.398437,0.41015625 0.621094,0.41015625 0.234375,0 0.492187,0 0.621093,-0.41015625 z m 6.055664,2.15625 c 0.257813,0 0.480469,0 0.480469,-0.4453125 0,-1.3945312 -0.785156,-2.5195312 -2.285156,-2.5195312 -1.382813,0 -2.496094,1.1953125 -2.496094,2.6601562 0,1.5 1.207031,2.67187504 2.683594,2.67187504 1.535156,0 2.097656,-1.06640625 2.097656,-1.37109374 0,-0.070312 -0.02344,-0.3398438 -0.398438,-0.3398438 -0.222656,0 -0.292968,0.082031 -0.363281,0.2695313 -0.304687,0.69140624 -1.078125,0.74999999 -1.300781,0.74999999 -0.996094,0 -1.78125,-0.74999999 -1.921875,-1.67578129 z m -3.492187,-0.65625 c 0.164062,-1.0195312 0.9375,-1.6171875 1.6875,-1.6171875 1.195312,0 1.453125,1.0195313 1.5,1.6171875 z m 9.691406,-1.8515625 c 0,-0.1875 0,-0.4570312 -0.328125,-0.4570312 -0.292969,0 -0.363281,0.28125 -0.363281,0.2929687 -0.480469,-0.2929687 -1.019532,-0.2929687 -1.265625,-0.2929687 -1.945313,0 -2.214844,0.9960937 -2.214844,1.40625 0,0.4804687 0.292969,0.8203125 0.703125,1.0429687 0.375,0.2226563 0.726562,0.28125 1.699219,0.4335938 0.46875,0.082031 1.429687,0.234375 1.429687,0.9023437 0,0.4335938 -0.410156,0.85546879 -1.523437,0.85546879 -0.761719,0 -1.265625,-0.3046875 -1.511719,-1.16015629 -0.05859,-0.1640625 -0.09375,-0.2929687 -0.398438,-0.2929687 -0.398437,0 -0.398437,0.2226562 -0.398437,0.4570312 v 1.23046879 c 0,0.19921875 0,0.45703125 0.339844,0.45703125 0.140625,0 0.246093,0 0.433593,-0.4921875 0.550782,0.45703125 1.171875,0.4921875 1.535157,0.4921875 2.214843,0 2.214843,-1.42968754 2.214843,-1.54687504 0,-1.2539062 -1.476562,-1.5 -2.050781,-1.5820312 -1.054687,-0.1757813 -1.769531,-0.3046875 -1.769531,-0.796875 0,-0.328125 0.363281,-0.7148438 1.488281,-0.7148438 1.136719,0 1.183594,0.5390625 1.207031,0.8554688 0.02344,0.234375 0.246094,0.2695312 0.386719,0.2695312 0.386719,0 0.386719,-0.2109375 0.386719,-0.4570312 z m 9.873047,0.3515625 h 1.945312 c 0.164063,0 0.46875,0 0.46875,-0.3515625 0,-0.3515625 -0.304687,-0.3515625 -0.46875,-0.3515625 H 82.55393 v -0.9726562 c 0,-0.2226563 0,-0.4921875 -0.375,-0.4921875 -0.398438,0 -0.398438,0.2695312 -0.398438,0.4921875 v 0.9726562 h -1.019531 c -0.164063,0 -0.480469,0 -0.480469,0.3515625 0,0.3515625 0.304688,0.3515625 0.46875,0.3515625 h 1.03125 v 3.0117188 c 0,1.10156249 0.761719,1.51171874 1.628906,1.51171874 0.644532,0 1.828125,-0.31640625 1.828125,-1.53515624 0,-0.2460938 0,-0.5039063 -0.398437,-0.5039063 -0.375,0 -0.375,0.2578125 -0.375,0.515625 -0.02344,0.71484379 -0.703125,0.83203129 -0.972656,0.83203129 -0.9375,0 -0.9375,-0.59765629 -0.9375,-0.89062499 z m 8.566406,0.9492188 c 0,-1.171875 -0.550781,-1.7226563 -1.523438,-1.7226563 -0.820312,0 -1.335937,0.4570313 -1.546875,0.6796875 v -2.2617187 c 0,-0.375 -0.07031,-0.4921875 -0.480468,-0.4921875 h -0.785157 c -0.164062,0 -0.480468,0 -0.480468,0.3398437 0,0.3515625 0.316406,0.3515625 0.480468,0.3515625 h 0.492188 v 5.91796879 h -0.492188 c -0.164062,0 -0.480468,0 -0.480468,0.33984375 0,0.3515625 0.316406,0.3515625 0.480468,0.3515625 h 1.757813 c 0.164062,0 0.480469,0 0.480469,-0.3515625 0,-0.33984375 -0.316407,-0.33984375 -0.480469,-0.33984375 H 88.050023 V -2.8605391 c 0,-1.1601562 0.820313,-1.6757812 1.464844,-1.6757812 0.691406,0 0.832031,0.3984375 0.832031,1.078125 v 2.76562499 h -0.492187 c -0.164063,0 -0.480469,0 -0.480469,0.33984375 0,0.3515625 0.316406,0.3515625 0.480469,0.3515625 h 1.757812 c 0.164063,0 0.480469,0 0.480469,-0.3515625 0,-0.33984375 -0.316406,-0.33984375 -0.480469,-0.33984375 h -0.492187 z m 6.128906,1.2070312 c 0.257813,0 0.480469,0 0.480469,-0.4453125 0,-1.3945312 -0.785156,-2.5195312 -2.285156,-2.5195312 -1.382813,0 -2.496094,1.1953125 -2.496094,2.6601562 0,1.5 1.207031,2.67187504 2.683594,2.67187504 1.535156,0 2.097656,-1.06640625 2.097656,-1.37109374 0,-0.070312 -0.02344,-0.3398438 -0.398438,-0.3398438 -0.222656,0 -0.292968,0.082031 -0.363281,0.2695313 -0.304687,0.69140624 -1.078125,0.74999999 -1.300781,0.74999999 -0.996094,0 -1.78125,-0.74999999 -1.921875,-1.67578129 z m -3.492187,-0.65625 c 0.164062,-1.0195312 0.9375,-1.6171875 1.6875,-1.6171875 1.195312,0 1.453125,1.0195313 1.5,1.6171875 z m 15.834965,-1.8515625 c 0,-0.1875 0,-0.4570312 -0.32813,-0.4570312 -0.29297,0 -0.36328,0.28125 -0.36328,0.2929687 -0.48047,-0.2929687 -1.01953,-0.2929687 -1.26563,-0.2929687 -1.94531,0 -2.21484,0.9960937 -2.21484,1.40625 0,0.4804687 0.29297,0.8203125 0.70313,1.0429687 0.375,0.2226563 0.72656,0.28125 1.69921,0.4335938 0.46875,0.082031 1.42969,0.234375 1.42969,0.9023437 0,0.4335938 -0.41015,0.85546879 -1.52344,0.85546879 -0.76171,0 -1.26562,-0.3046875 -1.51171,-1.16015629 -0.0586,-0.1640625 -0.0937,-0.2929687 -0.39844,-0.2929687 -0.39844,0 -0.39844,0.2226562 -0.39844,0.4570312 v 1.23046879 c 0,0.19921875 0,0.45703125 0.33984,0.45703125 0.14063,0 0.2461,0 0.4336,-0.4921875 0.55078,0.45703125 1.17187,0.4921875 1.53515,0.4921875 2.21485,0 2.21485,-1.42968754 2.21485,-1.54687504 0,-1.2539062 -1.47656,-1.5 -2.05078,-1.5820312 -1.05469,-0.1757813 -1.76953,-0.3046875 -1.76953,-0.796875 0,-0.328125 0.36328,-0.7148438 1.48828,-0.7148438 1.13672,0 1.18359,0.5390625 1.20703,0.8554688 0.0234,0.234375 0.24609,0.2695312 0.38672,0.2695312 0.38672,0 0.38672,-0.2109375 0.38672,-0.4570312 z m 6.08203,1.40625 c 0,-0.9023437 -0.67969,-1.8632812 -2.29688,-1.8632812 -0.49219,0 -1.65234,0 -1.65234,0.8320312 0,0.3164063 0.22265,0.4921875 0.48047,0.4921875 0.082,0 0.46875,-0.023437 0.48047,-0.515625 0,-0.070312 0.0117,-0.082031 0.26953,-0.1054687 0.14062,-0.011719 0.29297,-0.011719 0.43359,-0.011719 0.28125,0 0.69141,0 1.07813,0.3046875 0.43359,0.328125 0.43359,0.6679688 0.43359,1.0195313 -0.70313,0.023437 -1.39453,0.070312 -2.14453,0.3046875 -0.59766,0.1992187 -1.35938,0.6328125 -1.35938,1.4414062 0,0.85546879 0.75,1.57031254 1.86328,1.57031254 0.38672,0 1.125,-0.05859375 1.7461,-0.4921875 0.24609,0.3984375 0.84375,0.421875 1.28906,0.421875 0.29297,0 0.57422,0 0.57422,-0.3515625 0,-0.33984375 -0.30469,-0.33984375 -0.48047,-0.33984375 -0.30469,0 -0.53906,-0.0234375 -0.71484,-0.09375 z m -0.77344,1.8164063 c 0,0.28125 0,0.5273437 -0.49219,0.76171874 -0.42187,0.19921875 -0.97265,0.19921875 -1.01953,0.19921875 -0.70312,0 -1.21875,-0.38671879 -1.21875,-0.87890629 0,-0.703125 1.28906,-1.1015625 2.73047,-1.1015625 z m 7.39453,-2.0390625 c 0,-0.2695313 0,-1.6054688 -1.05469,-1.6054688 -0.41015,0 -0.82031,0.1992188 -1.14843,0.6328125 -0.0703,-0.1757812 -0.32813,-0.6328125 -0.90235,-0.6328125 -0.53906,0 -0.91406,0.3515625 -1.00781,0.4570313 -0.0117,-0.3867188 -0.25781,-0.3867188 -0.48047,-0.3867188 h -0.35156 c -0.16406,0 -0.48047,0 -0.48047,0.3515625 0,0.3515625 0.26953,0.3515625 0.64453,0.3515625 v 3.76171879 c -0.38672,0 -0.64453,0 -0.64453,0.33984375 0,0.3515625 0.31641,0.3515625 0.48047,0.3515625 h 0.99609 c 0.17578,0 0.48047,0 0.48047,-0.3515625 0,-0.33984375 -0.26953,-0.33984375 -0.64453,-0.33984375 V -2.8956953 c 0,-1.0078125 0.43359,-1.640625 0.96094,-1.640625 0.32812,0 0.43359,0.421875 0.43359,0.984375 v 2.85937499 c -0.21094,0 -0.52734,0 -0.52734,0.33984375 0,0.3515625 0.3164,0.3515625 0.48047,0.3515625 h 0.8789 c 0.16406,0 0.48047,0 0.48047,-0.3515625 0,-0.33984375 -0.28125,-0.33984375 -0.64453,-0.33984375 V -2.8956953 c 0,-1.0078125 0.42187,-1.640625 0.94922,-1.640625 0.33984,0 0.43359,0.421875 0.43359,0.984375 v 2.85937499 c -0.19922,0 -0.52734,0 -0.52734,0.33984375 0,0.3515625 0.32812,0.3515625 0.49219,0.3515625 h 0.86718 c 0.17578,0 0.48047,0 0.48047,-0.3515625 0,-0.33984375 -0.26953,-0.33984375 -0.64453,-0.33984375 z m 5.70703,1.3242187 c 0.25781,0 0.48047,0 0.48047,-0.4453125 0,-1.3945312 -0.78516,-2.5195312 -2.28516,-2.5195312 -1.38281,0 -2.49609,1.1953125 -2.49609,2.6601562 0,1.5 1.20703,2.67187504 2.68359,2.67187504 1.53516,0 2.09766,-1.06640625 2.09766,-1.37109374 0,-0.070312 -0.0234,-0.3398438 -0.39844,-0.3398438 -0.22265,0 -0.29297,0.082031 -0.36328,0.2695313 -0.30469,0.69140624 -1.07812,0.74999999 -1.30078,0.74999999 -0.99609,0 -1.78125,-0.74999999 -1.92187,-1.67578129 z m -3.49219,-0.65625 c 0.16407,-1.0195312 0.9375,-1.6171875 1.6875,-1.6171875 1.19532,0 1.45313,1.0195313 1.5,1.6171875 z m 13.40918,0.6914063 c 0,-1.4179688 1.00782,-2.2734375 2.02735,-2.2734375 0.0586,0 0.1289,0 0.1875,0.011719 0.0352,0.4335938 0.375,0.46875 0.45703,0.46875 0.26953,0 0.46875,-0.1992187 0.46875,-0.46875 0,-0.5039062 -0.50391,-0.703125 -1.10156,-0.703125 -0.8086,0 -1.48828,0.3632813 -2.03907,1.03125 v -0.46875 c 0,-0.3632812 -0.0703,-0.4921875 -0.46875,-0.4921875 h -1.20703 c -0.17578,0 -0.48047,0 -0.48047,0.3515625 0,0.3515625 0.30469,0.3515625 0.48047,0.3515625 h 0.90235 v 3.76171879 h -0.90235 c -0.17578,0 -0.48047,0 -0.48047,0.33984375 0,0.3515625 0.30469,0.3515625 0.48047,0.3515625 h 2.92969 c 0.17578,0 0.48047,0 0.48047,-0.3515625 0,-0.33984375 -0.30469,-0.33984375 -0.48047,-0.33984375 h -1.25391 z m 8.54297,-0.035156 c 0.25782,0 0.48047,0 0.48047,-0.4453125 0,-1.3945312 -0.78515,-2.5195312 -2.28515,-2.5195312 -1.38282,0 -2.4961,1.1953125 -2.4961,2.6601562 0,1.5 1.20703,2.67187504 2.6836,2.67187504 1.53515,0 2.09765,-1.06640625 2.09765,-1.37109374 0,-0.070312 -0.0234,-0.3398438 -0.39844,-0.3398438 -0.22265,0 -0.29296,0.082031 -0.36328,0.2695313 -0.30468,0.69140624 -1.07812,0.74999999 -1.30078,0.74999999 -0.99609,0 -1.78125,-0.74999999 -1.92187,-1.67578129 z m -3.49218,-0.65625 c 0.16406,-1.0195312 0.9375,-1.6171875 1.6875,-1.6171875 1.19531,0 1.45312,1.0195313 1.5,1.6171875 z m 9.6914,-1.8515625 c 0,-0.1875 0,-0.4570312 -0.32812,-0.4570312 -0.29297,0 -0.36328,0.28125 -0.36328,0.2929687 -0.48047,-0.2929687 -1.01954,-0.2929687 -1.26563,-0.2929687 -1.94531,0 -2.21484,0.9960937 -2.21484,1.40625 0,0.4804687 0.29297,0.8203125 0.70312,1.0429687 0.375,0.2226563 0.72656,0.28125 1.69922,0.4335938 0.46875,0.082031 1.42969,0.234375 1.42969,0.9023437 0,0.4335938 -0.41016,0.85546879 -1.52344,0.85546879 -0.76172,0 -1.26562,-0.3046875 -1.51172,-1.16015629 -0.0586,-0.1640625 -0.0937,-0.2929687 -0.39844,-0.2929687 -0.39843,0 -0.39843,0.2226562 -0.39843,0.4570312 v 1.23046879 c 0,0.19921875 0,0.45703125 0.33984,0.45703125 0.14063,0 0.24609,0 0.43359,-0.4921875 0.55079,0.45703125 1.17188,0.4921875 1.53516,0.4921875 2.21484,0 2.21484,-1.42968754 2.21484,-1.54687504 0,-1.2539062 -1.47656,-1.5 -2.05078,-1.5820312 -1.05468,-0.1757813 -1.76953,-0.3046875 -1.76953,-0.796875 0,-0.328125 0.36328,-0.7148438 1.48828,-0.7148438 1.13672,0 1.1836,0.5390625 1.20703,0.8554688 0.0234,0.234375 0.2461,0.2695312 0.38672,0.2695312 0.38672,0 0.38672,-0.2109375 0.38672,-0.4570312 z m 6.12891,0.140625 c 0,-0.3632812 -0.0703,-0.4921875 -0.46875,-0.4921875 h -0.79688 c -0.16406,0 -0.48047,0 -0.48047,0.3515625 0,0.3515625 0.31641,0.3515625 0.48047,0.3515625 h 0.49219 v 2.5898438 c 0,0.98437499 -0.80859,1.24218749 -1.34766,1.24218749 -0.94921,0 -0.94921,-0.43359379 -0.94921,-0.79687499 v -3.2460938 c 0,-0.3632812 -0.0703,-0.4921875 -0.48047,-0.4921875 h -0.78516 c -0.16406,0 -0.48047,0 -0.48047,0.3515625 0,0.3515625 0.31641,0.3515625 0.48047,0.3515625 h 0.49219 v 3.09375 c 0,1.10156254 0.71484,1.42968754 1.64062,1.42968754 0.72657,0 1.1836,-0.29296875 1.41797,-0.50390625 0,0.43359375 0.29297,0.43359375 0.49219,0.43359375 h 0.78516 c 0.16406,0 0.48046,0 0.48046,-0.3515625 0,-0.33984375 -0.3164,-0.33984375 -0.48046,-0.33984375 h -0.49219 z m 4.6289,-2.1445312 c 0,-0.375 -0.0703,-0.4921875 -0.48046,-0.4921875 h -1.75782 c -0.16406,0 -0.48047,0 -0.48047,0.3398437 0,0.3515625 0.31641,0.3515625 0.48047,0.3515625 h 1.46485 v 5.91796879 h -1.46485 c -0.16406,0 -0.48047,0 -0.48047,0.33984375 0,0.3515625 0.31641,0.3515625 0.48047,0.3515625 h 3.69141 c 0.17578,0 0.48047,0 0.48047,-0.3515625 0,-0.33984375 -0.30469,-0.33984375 -0.48047,-0.33984375 h -1.45313 z m 5.26172,2.3554687 h 1.94532 c 0.16406,0 0.46875,0 0.46875,-0.3515625 0,-0.3515625 -0.30469,-0.3515625 -0.46875,-0.3515625 h -1.94532 V -6.13007 c 0,-0.2226563 0,-0.4921875 -0.375,-0.4921875 -0.39843,0 -0.39843,0.2695312 -0.39843,0.4921875 v 0.9726562 h -1.01954 c -0.16406,0 -0.48046,0 -0.48046,0.3515625 0,0.3515625 0.30468,0.3515625 0.46875,0.3515625 h 1.03125 V -1.44257 c 0,1.10156249 0.76171,1.51171874 1.6289,1.51171874 0.64453,0 1.82813,-0.31640625 1.82813,-1.53515624 0,-0.2460938 0,-0.5039063 -0.39844,-0.5039063 -0.375,0 -0.375,0.2578125 -0.375,0.515625 -0.0234,0.71484379 -0.70313,0.83203129 -0.97266,0.83203129 -0.9375,0 -0.9375,-0.59765629 -0.9375,-0.89062499 z M 5.6613516,7.3494219 c 0,-0.1875 0,-0.4453125 -0.328125,-0.4453125 -0.2109375,0 -0.28125,0.1289062 -0.328125,0.2109375 -0.035156,0.09375 -0.1289063,0.3046875 -0.1640625,0.3984375 -0.4921875,-0.4335938 -1.0429688,-0.609375 -1.5351563,-0.609375 -1.546875,0 -2.82421874,1.640625 -2.82421874,3.7851566 0,2.191406 1.31250004,3.796875 2.82421874,3.796875 1.3945313,0 2.3554688,-1.113282 2.3554688,-2.15625 0,-0.375 -0.2460938,-0.375 -0.3867188,-0.375 -0.1640625,0 -0.3632812,0.05859 -0.3867187,0.257812 -0.09375,1.5 -1.3007813,1.582031 -1.5,1.582031 -1.1132813,0 -2.1328125,-1.300781 -2.1328125,-3.105468 0,-1.8046879 1.03125,-3.0937504 2.1210937,-3.0937504 0.6445313,0 1.3476563,0.515625 1.5117188,1.6054688 0.035156,0.2695312 0.140625,0.3398437 0.3867187,0.3398437 0.3867188,0 0.3867188,-0.2109375 0.3867188,-0.4570312 z m 5.6835934,-0.609375 c 0.164063,0 0.46875,0 0.46875,-0.3398438 0,-0.3515625 -0.304687,-0.3515625 -0.46875,-0.3515625 H 9.2590078 c -0.3867187,0 -0.4804687,0.1054688 -0.4804687,0.4921875 v 8.3085939 c 0,0.363281 0.082031,0.492187 0.4804687,0.492187 h 2.0859372 c 0.164063,0 0.46875,0 0.46875,-0.351562 0,-0.339844 -0.304687,-0.339844 -0.46875,-0.339844 H 9.5636953 V 6.7400469 Z m 4.567383,0.8320312 c 0,-0.3046875 -0.234375,-0.5390625 -0.539062,-0.5390625 -0.292969,0 -0.539063,0.234375 -0.539063,0.5390625 0,0.2929688 0.246094,0.5390625 0.539063,0.5390625 0.304687,0 0.539062,-0.2460937 0.539062,-0.5390625 z m -2.050781,1.6171875 c -0.175781,0 -0.480469,0 -0.480469,0.3515625 0,0.3515625 0.304688,0.3515625 0.480469,0.3515625 h 1.277344 v 3.7617184 h -1.371094 c -0.164063,0 -0.480469,0 -0.480469,0.339844 0,0.351563 0.316406,0.351563 0.480469,0.351563 h 3.328125 c 0.164062,0 0.480469,0 0.480469,-0.351563 0,-0.339844 -0.316407,-0.339844 -0.480469,-0.339844 H 15.912328 V 9.6814531 c 0,-0.3632812 -0.07031,-0.4921875 -0.480469,-0.4921875 z m 7.898437,5.1210934 c -0.07031,0.375 -0.304687,0.820313 -0.890625,1.03125 -0.105468,0.02344 -0.28125,0.08203 -0.28125,0.304688 0,0.152344 0.175782,0.363281 0.363282,0.363281 0.328125,0 1.511718,-0.585937 1.511718,-1.875 0,-0.632812 -0.398437,-1.136719 -0.925781,-1.136719 -0.445312,0 -0.679687,0.339844 -0.679687,0.667969 0,0.398438 0.304687,0.679688 0.667968,0.679688 0.07031,0 0.152344,-0.01172 0.234375,-0.03516 z m 7.148438,-6.7382809 c 0,-0.3046875 -0.234375,-0.5390625 -0.539063,-0.5390625 -0.292968,0 -0.539062,0.234375 -0.539062,0.5390625 0,0.2929688 0.246094,0.5390625 0.539062,0.5390625 0.304688,0 0.539063,-0.2460937 0.539063,-0.5390625 z m -2.238281,1.6171875 c -0.164063,0 -0.46875,0 -0.46875,0.3515625 0,0.3515625 0.28125,0.3515625 0.46875,0.3515625 h 1.464843 v 4.9218754 c 0,0.1875 0,0.703125 -0.339843,1.148437 -0.316407,0.410156 -0.65625,0.410156 -0.9375,0.410156 -0.246094,0 -0.527344,-0.01172 -0.726563,-0.05859 0,-0.164063 0,-0.609375 -0.46875,-0.609375 -0.222656,0 -0.492187,0.164062 -0.492187,0.503906 0,0.867187 1.171875,0.867187 1.652343,0.867187 0.421875,0 0.914063,0 1.511719,-0.609375 0.117188,-0.128906 0.574219,-0.679687 0.574219,-1.59375 V 9.6814531 c 0,-0.3632812 -0.07031,-0.4921875 -0.480469,-0.4921875 z m 7.605468,-2.6484375 c 0,-0.375 -0.07031,-0.4921875 -0.480468,-0.4921875 h -2.074219 c -0.175781,0 -0.480469,0 -0.480469,0.3515625 0,0.3398438 0.304688,0.3398438 0.480469,0.3398438 h 1.78125 v 7.9101561 h -1.78125 c -0.175781,0 -0.480469,0 -0.480469,0.339844 0,0.351562 0.304688,0.351562 0.480469,0.351562 h 2.074219 c 0.398437,0 0.480468,-0.117187 0.480468,-0.492187 z m 13.97461,3.6328129 c 0.152344,0 0.515625,0 0.515625,-0.3867191 0,-0.3867188 -0.398438,-0.3867188 -0.574219,-0.3867188 h -4.113281 c -0.1875,0 -0.574219,0 -0.574219,0.3867188 0,0.3867191 0.363281,0.3867191 0.515625,0.3867191 z m -0.05859,1.816406 c 0.175781,0 0.574219,0 0.574219,-0.398438 0,-0.375 -0.375,-0.375 -0.515625,-0.375 H 44.01975 c -0.164062,0 -0.515625,0 -0.515625,0.375 0,0.398438 0.386719,0.398438 0.574219,0.398438 z m 12.120117,-1.042969 c 0,-0.902344 -0.679687,-1.8632811 -2.296875,-1.8632811 -0.492187,0 -1.652344,0 -1.652344,0.8320312 0,0.3164059 0.222657,0.4921879 0.480469,0.4921879 0.08203,0 0.46875,-0.02344 0.480469,-0.5156254 0,-0.070312 0.01172,-0.082031 0.269531,-0.1054687 0.140625,-0.011719 0.292969,-0.011719 0.433594,-0.011719 0.28125,0 0.691406,0 1.078125,0.3046881 0.433594,0.328125 0.433594,0.667968 0.433594,1.019531 -0.703125,0.02344 -1.394532,0.07031 -2.144532,0.304687 -0.597656,0.199219 -1.359375,0.632813 -1.359375,1.441407 0,0.855468 0.75,1.570312 1.863282,1.570312 0.386718,0 1.125,-0.05859 1.746093,-0.492187 0.246094,0.398437 0.84375,0.421875 1.289063,0.421875 0.292969,0 0.574219,0 0.574219,-0.351563 0,-0.339844 -0.304688,-0.339844 -0.480469,-0.339844 -0.304688,0 -0.539063,-0.02344 -0.714844,-0.09375 z m -0.773437,1.816406 c 0,0.28125 0,0.527344 -0.492188,0.761719 -0.421875,0.199219 -0.972656,0.199219 -1.019531,0.199219 -0.703125,0 -1.21875,-0.386719 -1.21875,-0.878906 0,-0.703125 1.289062,-1.101563 2.730469,-1.101563 z M 66.71018,6.7400469 c 0.164062,0 0.46875,0 0.46875,-0.3398438 0,-0.3515625 -0.304688,-0.3515625 -0.46875,-0.3515625 h -2.085938 c -0.386719,0 -0.480469,0.1054688 -0.480469,0.4921875 v 8.3085939 c 0,0.363281 0.08203,0.492187 0.480469,0.492187 h 2.085938 c 0.164062,0 0.46875,0 0.46875,-0.351562 0,-0.339844 -0.304688,-0.339844 -0.46875,-0.339844 H 64.92893 V 6.7400469 Z m 4.570312,0.8320312 c 0,-0.3046875 -0.234375,-0.5390625 -0.539062,-0.5390625 -0.292969,0 -0.539063,0.234375 -0.539063,0.5390625 0,0.2929688 0.246094,0.5390625 0.539063,0.5390625 0.304687,0 0.539062,-0.2460937 0.539062,-0.5390625 z m -2.050781,1.6171875 c -0.175781,0 -0.480469,0 -0.480469,0.3515625 0,0.3515625 0.304688,0.3515625 0.480469,0.3515625 h 1.277344 v 3.7617184 h -1.371094 c -0.164063,0 -0.480469,0 -0.480469,0.339844 0,0.351563 0.316406,0.351563 0.480469,0.351563 h 3.328125 c 0.164062,0 0.480469,0 0.480469,-0.351563 0,-0.339844 -0.316407,-0.339844 -0.480469,-0.339844 H 71.280492 V 9.6814531 c 0,-0.3632812 -0.07031,-0.4921875 -0.480469,-0.4921875 z m 8.109375,-2.6484375 c 0,-0.375 -0.07031,-0.4921875 -0.480469,-0.4921875 h -2.074219 c -0.175781,0 -0.480468,0 -0.480468,0.3515625 0,0.3398438 0.304687,0.3398438 0.480468,0.3398438 h 1.78125 v 7.9101561 h -1.78125 c -0.175781,0 -0.480468,0 -0.480468,0.339844 0,0.351562 0.304687,0.351562 0.480468,0.351562 h 2.074219 c 0.398438,0 0.480469,-0.117187 0.480469,-0.492187 z m 13.889648,3.4101563 c 0.140625,-0.070312 0.246094,-0.1875 0.246094,-0.3632813 0,-0.2226562 -0.199219,-0.375 -0.375,-0.375 -0.08203,0 -0.175781,0.070312 -0.246094,0.1054688 l -1.324218,0.8203121 c 0,-0.3398434 0.03516,-1.3945309 0.03516,-1.6640621 0,-0.1992188 -0.175781,-0.3515625 -0.363281,-0.3515625 -0.1875,0 -0.351563,0.140625 -0.351563,0.3515625 0,0.3515625 0,0.4453125 0.01172,0.4570312 0.01172,0.234375 0.02344,0.9257813 0.02344,1.2070309 L 87.549047,9.3181719 c -0.07031,-0.035156 -0.164063,-0.1054688 -0.246094,-0.1054688 -0.164062,0 -0.375,0.1523438 -0.375,0.375 0,0.1757813 0.117188,0.2929688 0.257813,0.3632813 l 1.382812,0.7382816 -1.382812,0.75 c -0.140625,0.07031 -0.257813,0.175781 -0.257813,0.363281 0,0.222656 0.210938,0.363281 0.375,0.363281 0.08203,0 0.175781,-0.05859 0.246094,-0.09375 l 1.335937,-0.820312 -0.01172,0.761718 c -0.02344,0.199219 -0.02344,0.667969 -0.02344,0.902344 0,0.210938 0.175781,0.351563 0.351563,0.351563 0.1875,0 0.363281,-0.152344 0.363281,-0.351563 0,-0.28125 -0.03516,-1.335937 -0.03516,-1.664062 l 1.183593,0.726562 c 0.28125,0.1875 0.304688,0.1875 0.386719,0.1875 0.175781,0 0.375,-0.140625 0.375,-0.363281 0,-0.152344 -0.08203,-0.257813 -0.1875,-0.328125 -0.304687,-0.175781 -0.960937,-0.527344 -1.453125,-0.773438 z m 9.123046,-2.4140625 c 0,-0.375 -0.0703,-0.4921875 -0.480467,-0.4921875 h -0.785157 c -0.164062,0 -0.480468,0 -0.480468,0.3398437 0,0.3515625 0.316406,0.3515625 0.480468,0.3515625 h 0.492188 v 6.1171874 c 0,0.222656 0,0.492188 0.398437,0.492188 0.374999,0 0.374999,-0.246094 0.374999,-0.597657 0.29297,0.328125 0.72656,0.667969 1.40625,0.667969 1.26563,0 2.37891,-1.136719 2.37891,-2.648437 0,-1.476563 -1.00781,-2.6484379 -2.25,-2.6484379 -0.87891,0 -1.42969,0.5273438 -1.53516,0.6445313 z m 0,3.6328121 c 0,-0.679687 0.66797,-1.3593746 1.45313,-1.3593746 0.85547,0 1.54687,0.8789066 1.54687,1.9570316 0,1.148437 -0.80859,1.957031 -1.66406,1.957031 -0.89063,0 -1.33594,-1.019531 -1.33594,-1.617188 z m 9.42188,-4.4296871 c 0.16406,0 0.46875,0 0.46875,-0.3398438 0,-0.3515625 -0.30469,-0.3515625 -0.46875,-0.3515625 h -2.08594 c -0.38672,0 -0.48047,0.1054688 -0.48047,0.4921875 v 8.3085939 c 0,0.363281 0.082,0.492187 0.48047,0.492187 h 2.08594 c 0.16406,0 0.46875,0 0.46875,-0.351562 0,-0.339844 -0.30469,-0.339844 -0.46875,-0.339844 h -1.78125 V 6.7400469 Z m 5.26172,0.8320312 c 0,-0.3046875 -0.23438,-0.5390625 -0.53907,-0.5390625 -0.29297,0 -0.53906,0.234375 -0.53906,0.5390625 0,0.2929688 0.24609,0.5390625 0.53906,0.5390625 0.30469,0 0.53907,-0.2460937 0.53907,-0.5390625 z m -2.23829,1.6171875 c -0.16406,0 -0.46875,0 -0.46875,0.3515625 0,0.3515625 0.28125,0.3515625 0.46875,0.3515625 h 1.46485 v 4.9218754 c 0,0.1875 0,0.703125 -0.33985,1.148437 -0.3164,0.410156 -0.65625,0.410156 -0.9375,0.410156 -0.24609,0 -0.52734,-0.01172 -0.72656,-0.05859 0,-0.164063 0,-0.609375 -0.46875,-0.609375 -0.22265,0 -0.49219,0.164062 -0.49219,0.503906 0,0.867187 1.17188,0.867187 1.65235,0.867187 0.42187,0 0.91406,0 1.51172,-0.609375 0.11718,-0.128906 0.57422,-0.679687 0.57422,-1.59375 V 9.6814531 c 0,-0.3632812 -0.0703,-0.4921875 -0.48047,-0.4921875 z m 7.60547,-2.6484375 c 0,-0.375 -0.0703,-0.4921875 -0.48047,-0.4921875 h -2.07421 c -0.17579,0 -0.48047,0 -0.48047,0.3515625 0,0.3398438 0.30468,0.3398438 0.48047,0.3398438 h 1.78125 v 7.9101561 h -1.78125 c -0.17579,0 -0.48047,0 -0.48047,0.339844 0,0.351562 0.30468,0.351562 0.48047,0.351562 h 2.07421 c 0.39844,0 0.48047,-0.117187 0.48047,-0.492187 z m 0,0"
       style="fill:#000000;fill-opacity:1;fill-rule:nonzero;stroke:none"
       aria-label="np.dotgivesthesameresult&#10;C[i,j]=a[i]*b[j]"
       transform="matrix(1.3333333,0,0,1.3333333,223.432,165.67733)" />
  </g>
</svg>
