<?xml version="1.0" encoding="UTF-8" standalone="no"?>
<!-- Created with Inkscape (http://www.inkscape.org/) -->

<svg
   version="1.1"
   id="svg1"
   width="680.3147"
   height="196.09599"
   viewBox="0 0 680.3147 196.09599"
   sodipodi:docname="20_newaxis_inner_matmul.pdf"
   xmlns:inkscape="http://www.inkscape.org/namespaces/inkscape"
   xmlns:sodipodi="http://sodipodi.sourceforge.net/DTD/sodipodi-0.dtd"
   xmlns="http://www.w3.org/2000/svg"
   xmlns:svg="http://www.w3.org/2000/svg">
  <defs
     id="defs1" />
  <sodipodi:namedview
     id="namedview1"
     pagecolor="#ffffff"
     bordercolor="#000000"
     borderopacity="0.25"
     inkscape:showpageshadow="2"
     inkscape:pageopacity="0.0"
     inkscape:pagecheckerboard="0"
     inkscape:deskcolor="#d1d1d1">
    <inkscape:page
       x="0"
       y="0"
       inkscape:label="1"
       id="page1"
       width="680.3147"
       height="196.09599"
       margin="0"
       bleed="0" />
  </sodipodi:namedview>
  <g
     id="g1"
     inkscape:groupmode="layer"
     inkscape:label="1">
    <path
       id="path1"
       d="m -167.24615,-11.33871 h 22.67743 v 22.67743 h -22.67743 z"
       style="fill:none;stroke:#000000;stroke-width:0.3985;stroke-linecap:butt;stroke-linejoin:miter;stroke-miterlimit:10;stroke-dasharray:none;stroke-opacity:1"
       transform="matrix(1.3333333,0,0,-1.3333333,402.52,98.874667)" />
    <path
       id="path2"
       d="m 3.4439531,-7.6632734 c 0,-0.2695313 0,-0.28125 -0.2460937,-0.28125 -0.28125,0.3164062 -0.8789063,0.7617187 -2.109375,0.7617187 v 0.3515625 c 0.2695312,0 0.8671875,0 1.5234375,-0.3164062 v 6.22265621 c 0,0.43359375 -0.035156,0.57421875 -1.078125,0.57421875 h -0.375 V 7.890625e-4 c 0.3164062,-0.0234375025 1.4765625,-0.0234375025 1.875,-0.0234375025 0.3984375,0 1.546875,0 1.8632812,0.0234375025 V -0.35077344 H 4.5337969 c -1.0546875,0 -1.0898438,-0.140625 -1.0898438,-0.57421875 z m 0,0"
       style="fill:#000000;fill-opacity:1;fill-rule:nonzero;stroke:none"
       aria-label="1"
       transform="matrix(1.3333333,0,0,1.3333333,190.744,104.01067)" />
    <path
       id="path3"
       d="m -144.56862,-11.33871 h 22.67743 v 22.67743 h -22.67743 z"
       style="fill:none;stroke:#000000;stroke-width:0.3985;stroke-linecap:butt;stroke-linejoin:miter;stroke-miterlimit:10;stroke-dasharray:none;stroke-opacity:1"
       transform="matrix(1.3333333,0,0,-1.3333333,402.52,98.874667)" />
    <path
       id="path4"
       d="M 5.2620703,-2.0031172 H 4.9925391 c -0.035156,0.1992188 -0.1289063,0.8554688 -0.2460938,1.04296876 -0.082031,0.1171875 -0.7617187,0.1171875 -1.125,0.1171875 H 1.4066016 c 0.328125,-0.28124996 1.0546875,-1.04296876 1.3710937,-1.33593746 1.8164063,-1.6640625 2.484375,-2.2851563 2.484375,-3.46875 0,-1.3828125 -1.0898437,-2.296875 -2.4726562,-2.296875 -1.3945313,0 -2.20312504,1.1835937 -2.20312504,2.203125 0,0.609375 0.52734374,0.609375 0.56250004,0.609375 0.2460937,0 0.5625,-0.1757813 0.5625,-0.5625 0,-0.328125 -0.234375,-0.5507813 -0.5625,-0.5507813 -0.1054688,0 -0.1289063,0 -0.16406254,0.011719 0.22265624,-0.8203125 0.86718754,-1.3710938 1.64062504,-1.3710938 1.0195312,0 1.640625,0.8554688 1.640625,1.9570313 0,1.0078125 -0.5859375,1.8984375 -1.265625,2.6601562 L 0.58628906,-0.28046094 V 7.890625e-4 H 4.9456641 Z m 0,0"
       style="fill:#000000;fill-opacity:1;fill-rule:nonzero;stroke:none"
       aria-label="2"
       transform="matrix(1.3333333,0,0,1.3333333,220.98,104.01067)" />
    <path
       id="path5"
       d="m -121.89108,-11.33871 h 22.67743 v 22.67743 h -22.67743 z"
       style="fill:none;stroke:#000000;stroke-width:0.3985;stroke-linecap:butt;stroke-linejoin:miter;stroke-miterlimit:10;stroke-dasharray:none;stroke-opacity:1"
       transform="matrix(1.3333333,0,0,-1.3333333,402.52,98.874667)" />
    <path
       id="path6"
       d="m 2.2022578,-4.2882734 c -0.2109375,0.011719 -0.2578125,0.023437 -0.2578125,0.1289062 0,0.1171875 0.058594,0.1171875 0.28125,0.1171875 h 0.5507813 c 1.0078125,0 1.4648437,0.84375 1.4648437,1.9921875 0,1.55859376 -0.8085937,1.98046876 -1.3945312,1.98046876 -0.5742188,0 -1.5585938,-0.28125 -1.89843754,-1.06640626 0.37500004,0.058594 0.72656254,-0.1523437 0.72656254,-0.5859375 0,-0.3398437 -0.2578125,-0.5859375 -0.5859375,-0.5859375 -0.29296879,0 -0.59765629,0.1640625 -0.59765629,0.6210938 0,1.06640621 1.06640629,1.93359371 2.39062499,1.93359371 1.4179688,0 2.4726563,-1.078125 2.4726563,-2.28515621 0,-1.1015625 -0.890625,-1.96875 -2.0273438,-2.1679688 1.03125,-0.3046875 1.6992188,-1.171875 1.6992188,-2.109375 0,-0.9375 -0.9726563,-1.6289062 -2.1328125,-1.6289062 -1.1953125,0 -2.08593754,0.7265625 -2.08593754,1.59375 0,0.4804687 0.37500004,0.5742187 0.55078124,0.5742187 0.2578125,0 0.5390625,-0.1757812 0.5390625,-0.5390625 0,-0.375 -0.28125,-0.5390625 -0.5507812,-0.5390625 -0.070312,0 -0.09375,0 -0.1289063,0.011719 0.4570313,-0.8203125 1.5820313,-0.8203125 1.640625,-0.8203125 0.3867188,0 1.171875,0.1757812 1.171875,1.3476562 0,0.234375 -0.035156,0.9023438 -0.3867187,1.4179688 -0.3515625,0.5273437 -0.7617188,0.5625 -1.0898438,0.5742187 z m 0,0"
       style="fill:#000000;fill-opacity:1;fill-rule:nonzero;stroke:none"
       aria-label="3"
       transform="matrix(1.3333333,0,0,1.3333333,251.216,104.01067)" />
    <path
       id="path7"
       d="m 4.9466328,-3.3989531 c 0,-0.9023438 -0.6796875,-1.8632813 -2.296875,-1.8632813 -0.4921875,0 -1.65234374,0 -1.65234374,0.8320313 0,0.3164062 0.22265624,0.4921875 0.48046874,0.4921875 0.082031,0 0.46875,-0.023437 0.4804688,-0.515625 0,-0.070312 0.011719,-0.082031 0.2695312,-0.1054688 0.140625,-0.011719 0.2929688,-0.011719 0.4335938,-0.011719 0.28125,0 0.6914062,0 1.078125,0.3046875 0.4335937,0.328125 0.4335937,0.6679687 0.4335937,1.0195312 -0.703125,0.023437 -1.3945312,0.070312 -2.1445312,0.3046875 -0.5976563,0.1992188 -1.35937504,0.6328125 -1.35937504,1.4414063 0,0.85546873 0.75000004,1.57031248 1.86328124,1.57031248 0.3867188,0 1.125,-0.05859375 1.7460938,-0.4921875 0.2460937,0.3984375 0.84375,0.421874995 1.2890625,0.421874995 0.2929687,0 0.5742187,0 0.5742187,-0.351562495 0,-0.33984375 -0.3046875,-0.33984375 -0.4804687,-0.33984375 -0.3046875,0 -0.5390625,-0.0234375 -0.7148438,-0.09375 z m -0.7734375,1.8164062 c 0,0.28125 0,0.5273438 -0.4921875,0.76171878 -0.421875,0.19921875 -0.9726562,0.19921875 -1.0195312,0.19921875 -0.703125,0 -1.21875,-0.38671873 -1.21875,-0.87890623 0,-0.703125 1.2890625,-1.1015625 2.7304687,-1.1015625 z m 7.1689457,-6.0234375 c 0.164062,0 0.46875,0 0.46875,-0.3398437 0,-0.3515625 -0.304688,-0.3515625 -0.46875,-0.3515625 H 9.2562031 c -0.3867187,0 -0.4804687,0.1054687 -0.4804687,0.4921875 v 8.30859373 c 0,0.36328125 0.082031,0.4921875 0.4804687,0.4921875 h 2.0859379 c 0.164062,0 0.46875,0 0.46875,-0.3515625 0,-0.33984375 -0.304688,-0.33984375 -0.46875,-0.33984375 H 9.5608906 V -7.6059844 Z m 3.199218,0.703125 c -0.140625,-0.3984375 -0.386718,-0.3984375 -0.632812,-0.3984375 h -0.785156 c -0.175782,0 -0.46875,0 -0.46875,0.3398438 0,0.3515625 0.304687,0.3515625 0.46875,0.3515625 h 0.269531 v 5.91796873 h -0.269531 c -0.164063,0 -0.46875,0 -0.46875,0.33984375 0,0.351562495 0.292968,0.351562495 0.46875,0.351562495 h 1.195312 c 0.175781,0 0.492188,0 0.492188,-0.351562495 0,-0.33984375 -0.316407,-0.33984375 -0.492188,-0.33984375 H 14.060891 V -6.4809844 h 0.01172 c 0.03516,0.1289063 0.140625,0.4453125 0.363282,1.0546875 l 1.78125,5.01562503 c 0.140625,0.410156245 0.375,0.410156245 0.644531,0.410156245 0.351562,0 0.492187,-0.035156245 0.492187,-0.492187495 V -6.6098906 h 0.269532 c 0.164062,0 0.480468,0 0.480468,-0.3515625 0,-0.3398438 -0.304687,-0.3398438 -0.480468,-0.3398438 H 16.42808 c -0.164062,0 -0.492187,0 -0.492187,0.3398438 0,0.3515625 0.328125,0.3515625 0.492187,0.3515625 h 0.257813 v 5.78906248 h -0.01172 c -0.03516,-0.140625 -0.140625,-0.44531248 -0.351563,-1.05468748 z m 9.363282,4.3242188 c 0,-1.5 -1.089844,-2.6835938 -2.378907,-2.6835938 -1.289062,0 -2.378906,1.1835938 -2.378906,2.6835938 0,1.5 1.101563,2.64843748 2.378906,2.64843748 1.277344,0 2.378907,-1.14843748 2.378907,-2.64843748 z m -2.378907,1.95703123 c -0.855468,0 -1.605468,-0.91406253 -1.605468,-2.03906253 0,-1.1132812 0.773437,-1.9101562 1.605468,-1.9101562 0.84375,0 1.605469,0.796875 1.605469,1.9101562 0,1.1367188 -0.738281,2.03906253 -1.605469,2.03906253 z m 8.074219,-2.88281253 c 0,-1.171875 -0.550781,-1.7226562 -1.523437,-1.7226562 -0.820313,0 -1.335938,0.4570312 -1.546875,0.6796875 0,-0.4335938 0,-0.609375 -0.480469,-0.609375 h -0.785156 c -0.164063,0 -0.480469,0 -0.480469,0.3515625 0,0.3515625 0.316406,0.3515625 0.480469,0.3515625 h 0.492187 v 3.76171873 h -0.492187 c -0.164063,0 -0.480469,0 -0.480469,0.33984375 0,0.351562495 0.316406,0.351562495 0.480469,0.351562495 h 1.757812 c 0.164063,0 0.480469,0 0.480469,-0.351562495 0,-0.33984375 -0.316406,-0.33984375 -0.480469,-0.33984375 H 26.529641 V -2.8598906 c 0,-1.1601563 0.820312,-1.6757813 1.464843,-1.6757813 0.691407,0 0.832032,0.3984375 0.832032,1.078125 v 2.76562503 h -0.492188 c -0.164062,0 -0.480469,0 -0.480469,0.33984375 0,0.351562495 0.316407,0.351562495 0.480469,0.351562495 h 1.757813 c 0.164062,0 0.480468,0 0.480468,-0.351562495 0,-0.33984375 -0.316406,-0.33984375 -0.480468,-0.33984375 h -0.492188 z m 6.128906,1.2070313 c 0.257813,0 0.480469,0 0.480469,-0.4453125 0,-1.3945313 -0.785156,-2.5195313 -2.285156,-2.5195313 -1.382813,0 -2.496094,1.1953125 -2.496094,2.6601563 0,1.5 1.207031,2.67187498 2.683594,2.67187498 1.535156,0 2.097656,-1.06640625 2.097656,-1.37109378 0,-0.070312 -0.02344,-0.3398437 -0.398437,-0.3398437 -0.222657,0 -0.292969,0.082031 -0.363282,0.2695312 -0.304687,0.69140628 -1.078125,0.75000003 -1.300781,0.75000003 -0.996094,0 -1.78125,-0.75000003 -1.921875,-1.67578123 z m -3.492187,-0.65625 c 0.164062,-1.0195313 0.9375,-1.6171875 1.6875,-1.6171875 1.195312,0 1.453125,1.0195312 1.5,1.6171875 z m 7.980469,2.91796873 c -0.07031,0.375 -0.304688,0.8203125 -0.890625,1.03125 -0.105469,0.0234375 -0.28125,0.0820313 -0.28125,0.30468747 0,0.1523438 0.175781,0.3632813 0.363281,0.3632813 0.328125,0 1.511719,-0.5859375 1.511719,-1.87500002 0,-0.6328125 -0.398438,-1.13671878 -0.925782,-1.13671878 -0.445312,0 -0.679687,0.3398438 -0.679687,0.66796878 0,0.3984375 0.304687,0.679687495 0.667969,0.679687495 0.07031,0 0.152343,-0.011718745 0.234375,-0.035156245 z m 12.74414,-4.42968753 c 0,-0.3984375 -0.316406,-0.6914062 -0.667968,-0.6914062 -0.375,0 -0.679688,0.3046875 -0.679688,0.6914062 0,0.3515625 0.316406,0.6679688 0.667969,0.6679688 0.398437,0 0.679687,-0.328125 0.679687,-0.6679688 z m 0,3.79687503 c 0,-0.39843753 -0.316406,-0.67968753 -0.667968,-0.67968753 -0.375,0 -0.679688,0.2929688 -0.679688,0.67968753 0,0.3515625 0.316406,0.667968745 0.667969,0.667968745 0.398437,0 0.679687,-0.328124995 0.679687,-0.667968745 z M 58.87632,-7.8052031 c 0,-0.375 -0.07031,-0.4921875 -0.480468,-0.4921875 h -2.074219 c -0.175781,0 -0.480469,0 -0.480469,0.3515625 0,0.3398437 0.304688,0.3398437 0.480469,0.3398437 h 1.78125 v 7.91015628 h -1.78125 c -0.175781,0 -0.480469,0 -0.480469,0.33984375 0,0.3515625 0.304688,0.3515625 0.480469,0.3515625 h 2.074219 c 0.398437,0 0.480468,-0.1171875 0.480468,-0.4921875 z M 1.9407734,9.5414766 c 0,-0.1875 0,-0.4570313 -0.328125,-0.4570313 -0.2929687,0 -0.3632812,0.28125 -0.3632812,0.2929688 C 0.76889844,9.0844453 0.22983594,9.0844453 -0.01625781,9.0844453 c -1.94531249,0 -2.21484379,0.9960937 -2.21484379,1.4062497 0,0.480469 0.2929688,0.820313 0.703125,1.042969 0.375,0.222656 0.72656254,0.28125 1.69921879,0.433594 0.46875,0.08203 1.42968751,0.234375 1.42968751,0.902344 0,0.433593 -0.4101563,0.855468 -1.52343751,0.855468 -0.76171875,0 -1.26562499,-0.304687 -1.51171879,-1.160156 -0.058594,-0.164062 -0.09375,-0.292969 -0.3984375,-0.292969 -0.3984375,0 -0.3984375,0.222657 -0.3984375,0.457032 v 1.230468 c 0,0.199219 0,0.457032 0.3398438,0.457032 0.140625,0 0.2460937,0 0.4335937,-0.492188 0.55078129,0.457031 1.17187504,0.492188 1.53515629,0.492188 2.21484371,0 2.21484371,-1.429688 2.21484371,-1.546875 0,-1.253907 -1.47656246,-1.5 -2.05078121,-1.582032 -1.0546875,-0.175781 -1.76953129,-0.304687 -1.76953129,-0.796875 0,-0.328125 0.3632813,-0.7148434 1.48828129,-0.7148434 1.13671871,0 1.18359371,0.5390624 1.20703121,0.8554684 0.023437,0.234375 0.2460938,0.269532 0.3867188,0.269532 0.3867187,0 0.3867187,-0.210938 0.3867187,-0.457032 z m 6.1289063,1.3007814 c 0,-1.1718752 -0.5507813,-1.7226564 -1.5234375,-1.7226564 -0.8203125,0 -1.3359375,0.4570312 -1.546875,0.6796875 V 7.5375703 c 0,-0.375 -0.070312,-0.4921875 -0.4804688,-0.4921875 H 3.7337422 c -0.1640625,0 -0.4804688,0 -0.4804688,0.3398438 0,0.3515625 0.3164063,0.3515625 0.4804688,0.3515625 H 4.2259297 V 13.654758 H 3.7337422 c -0.1640625,0 -0.4804688,0 -0.4804688,0.339844 0,0.351562 0.3164063,0.351562 0.4804688,0.351562 h 1.7578125 c 0.1640625,0 0.4804687,0 0.4804687,-0.351562 0,-0.339844 -0.3164062,-0.339844 -0.4804687,-0.339844 H 4.9993672 v -2.167969 c 0,-1.160156 0.8203125,-1.6757812 1.4648437,-1.6757812 0.6914063,0 0.8320313,0.3984372 0.8320313,1.0781252 v 2.765625 H 6.8040547 c -0.1640625,0 -0.4804688,0 -0.4804688,0.339844 0,0.351562 0.3164063,0.351562 0.4804688,0.351562 h 1.7578125 c 0.1640625,0 0.4804687,0 0.4804687,-0.351562 0,-0.339844 -0.3164062,-0.339844 -0.4804687,-0.339844 H 8.0696797 Z m 6.1025393,0.105469 c 0,-0.902344 -0.679688,-1.8632817 -2.296875,-1.8632817 -0.492188,0 -1.652344,0 -1.652344,0.8320313 0,0.3164064 0.222656,0.4921874 0.480469,0.4921874 0.08203,0 0.46875,-0.02344 0.480469,-0.5156249 0,-0.070312 0.01172,-0.082031 0.269531,-0.1054688 0.140625,-0.011719 0.292969,-0.011719 0.433594,-0.011719 0.28125,0 0.691406,0 1.078125,0.3046877 0.433593,0.328125 0.433593,0.667969 0.433593,1.019531 -0.703125,0.02344 -1.394531,0.07031 -2.144531,0.304688 -0.597656,0.199219 -1.359375,0.632812 -1.359375,1.441406 0,0.855469 0.75,1.570313 1.863281,1.570313 0.386719,0 1.125,-0.05859 1.746094,-0.492188 0.246094,0.398438 0.84375,0.421875 1.289063,0.421875 0.292968,0 0.574218,0 0.574218,-0.351562 0,-0.339844 -0.304687,-0.339844 -0.480468,-0.339844 -0.304688,0 -0.539063,-0.02344 -0.714844,-0.09375 z m -0.773438,1.816406 c 0,0.28125 0,0.527344 -0.492187,0.761719 -0.421875,0.199218 -0.972656,0.199218 -1.019531,0.199218 -0.703125,0 -1.21875,-0.386718 -1.21875,-0.878906 0,-0.703125 1.289062,-1.101562 2.730468,-1.101562 z m 4.394532,4.230469 c 0.164062,0 0.480468,0 0.480468,-0.339844 0,-0.351563 -0.316406,-0.351563 -0.480468,-0.351563 h -0.492188 v -2.554687 c 0.292969,0.328125 0.726563,0.667969 1.40625,0.667969 1.265625,0 2.378906,-1.136719 2.378906,-2.648438 0,-1.476562 -1.007812,-2.6484374 -2.25,-2.6484374 -0.878906,0 -1.429687,0.5273437 -1.535156,0.6445312 0,-0.3867187 0,-0.5742187 -0.480469,-0.5742187 H 16.0355 c -0.164062,0 -0.480469,0 -0.480469,0.3515625 0,0.3515625 0.316407,0.3515625 0.480469,0.3515625 h 0.492188 V 16.303195 H 16.0355 c -0.164062,0 -0.480469,0 -0.480469,0.351563 0,0.339844 0.316407,0.339844 0.480469,0.339844 z m -0.492188,-5.824219 c 0,-0.679688 0.667969,-1.3593752 1.453125,-1.3593752 0.855469,0 1.546875,0.8789062 1.546875,1.9570312 0,1.148438 -0.808594,1.957031 -1.664062,1.957031 -0.890625,0 -1.335938,-1.019531 -1.335938,-1.617187 z m 9.199219,0.878906 c 0.257812,0 0.480469,0 0.480469,-0.445312 0,-1.394532 -0.785157,-2.5195317 -2.285157,-2.5195317 -1.382812,0 -2.496093,1.1953127 -2.496093,2.6601567 0,1.5 1.207031,2.671875 2.683593,2.671875 1.535157,0 2.097657,-1.066407 2.097657,-1.371094 0,-0.07031 -0.02344,-0.339844 -0.398438,-0.339844 -0.222656,0 -0.292969,0.08203 -0.363281,0.269531 -0.304688,0.691407 -1.078125,0.75 -1.300781,0.75 -0.996094,0 -1.78125,-0.75 -1.921875,-1.675781 z m -3.492188,-0.65625 c 0.164063,-1.019531 0.9375,-1.6171874 1.6875,-1.6171874 1.195313,0 1.453125,1.0195314 1.5,1.6171874 z m 9.867188,-1.21875 c 0.152344,0 0.515625,0 0.515625,-0.3867187 0,-0.3867187 -0.398438,-0.3867187 -0.574219,-0.3867187 h -4.113281 c -0.1875,0 -0.574219,0 -0.574219,0.3867187 0,0.3867187 0.363281,0.3867187 0.515625,0.3867187 z m -0.05859,1.816406 c 0.175781,0 0.574219,0 0.574219,-0.398437 0,-0.375 -0.375,-0.375 -0.515625,-0.375 h -4.230469 c -0.164062,0 -0.515625,0 -0.515625,0.375 0,0.398437 0.386719,0.398437 0.574219,0.398437 z m 6.140625,3.035157 c 0,-0.152344 -0.09375,-0.199219 -0.257812,-0.316407 -1.652344,-1.136718 -2.050782,-2.847656 -2.050782,-4.007812 0,-1.1367189 0.375,-2.8593752 2.050782,-4.0195314 0.164062,-0.1171875 0.257812,-0.1640625 0.257812,-0.3164063 0,-0.1289062 -0.07031,-0.3164062 -0.351562,-0.3164062 -0.304688,0 -1.183594,0.6914062 -1.734375,1.4765625 -0.667969,0.9257812 -1.007813,2.0390625 -1.007813,3.1757814 0,1.324219 0.480469,2.4375 0.984375,3.140625 0.550781,0.761719 1.417969,1.5 1.757813,1.5 0.28125,0 0.351562,-0.210938 0.351562,-0.316406 z m 4.664063,-7.6406254 c 0,-0.1757813 0,-0.4804688 -0.339844,-0.4804688 -0.210938,0 -0.28125,0.1054688 -0.351563,0.2578125 -0.222656,0.515625 -0.621093,1.1484375 -1.253906,1.1953125 -0.175781,0.011719 -0.433594,0.035156 -0.433594,0.3515625 0,0.1992188 0.117188,0.3398438 0.386719,0.3398438 0.667969,0 1.183594,-0.5039063 1.21875,-0.5273438 v 5.1328127 h -1.054687 c -0.164063,0 -0.492188,0 -0.492188,0.339844 0,0.351562 0.328125,0.351562 0.492188,0.351562 h 2.882812 c 0.164063,0 0.492188,0 0.492188,-0.351562 0,-0.339844 -0.328125,-0.339844 -0.492188,-0.339844 h -1.054687 z m 5.824218,6.9257814 c -0.07031,0.375 -0.304687,0.820312 -0.890625,1.03125 -0.105468,0.02344 -0.28125,0.08203 -0.28125,0.304687 0,0.152344 0.175782,0.363282 0.363282,0.363282 0.328125,0 1.511718,-0.585938 1.511718,-1.875 0,-0.632813 -0.398437,-1.136719 -0.925781,-1.136719 -0.445312,0 -0.679687,0.339844 -0.679687,0.667969 0,0.398437 0.304687,0.679687 0.667968,0.679687 0.07031,0 0.152344,-0.01172 0.234375,-0.03516 z m 5.90625,-3.5625 c 1.242188,0 1.792969,0.867187 1.792969,1.523437 0,0.785157 -0.691406,1.523438 -1.746094,1.523438 -1.195312,0 -1.734375,-0.644531 -1.734375,-0.808594 0,-0.02344 0.01172,-0.04687 0.02344,-0.05859 0.04687,-0.09375 0.08203,-0.1875 0.08203,-0.292968 0,-0.246094 -0.1875,-0.480469 -0.46875,-0.480469 -0.257812,0 -0.492187,0.164062 -0.492187,0.527344 0,1.042968 1.136718,1.804687 2.589843,1.804687 1.511719,0 2.519532,-1.078125 2.519532,-2.203125 0,-0.609375 -0.328125,-1.464844 -1.382813,-1.921875 0.726563,-0.4453124 1.054688,-1.1718749 1.054688,-1.7929687 0,-0.890625 -0.902344,-1.6640625 -2.191407,-1.6640625 -1.324218,0 -2.261718,0.5625 -2.261718,1.453125 0,0.3984375 0.304687,0.515625 0.492187,0.515625 0.222656,0 0.480469,-0.1640625 0.480469,-0.4921875 0,-0.1875 -0.09375,-0.2929687 -0.09375,-0.3164062 0.351562,-0.4453125 1.183594,-0.46875 1.382812,-0.46875 0.820313,0 1.417969,0.421875 1.417969,0.984375 0,0.3515625 -0.234375,1.3476562 -1.488281,1.4296879 -0.445313,0.02344 -0.632813,0.04687 -0.679688,0.04687 -0.234375,0.02344 -0.304687,0.175781 -0.304687,0.339843 0,0.351563 0.257812,0.351563 0.457031,0.351563 z m 7.207032,-0.04687 c 0,-0.9375002 -0.222657,-2.1445314 -1.089844,-3.3046877 -0.410156,-0.5507812 -1.289063,-1.3476562 -1.652344,-1.3476562 -0.269531,0 -0.339844,0.1992187 -0.339844,0.3164062 0,0.140625 0.08203,0.1992188 0.292969,0.3398438 1.464844,1.03125 2.015625,2.6367187 2.015625,3.9843749 0,1.078125 -0.351562,2.835938 -2.0625,4.019531 -0.152344,0.105469 -0.246094,0.164063 -0.246094,0.316407 0,0.105468 0.07031,0.316406 0.339844,0.316406 0.304688,0 1.183594,-0.691406 1.734375,-1.476563 0.691406,-0.972656 1.007813,-2.097656 1.007813,-3.164062 z m 0,0"
       style="fill:#000000;fill-opacity:1;fill-rule:nonzero;stroke:none"
       aria-label="a[None,:]&#10;shape=(1,3)"
       transform="matrix(1.3333333,0,0,1.3333333,183.86933,21.696)" />
    <path
       id="path8"
       d="M 4.6994219,-5.7767734 C 4.5470781,-5.8822422 4.2541094,-6.0228672 3.9377031,-6.0228672 c -0.9492187,0 -1.7109375,1.03125 -1.7109375,2.3671875 0,1.40625 0.8085938,2.3789063 1.6992188,2.3789063 0.5859375,0 1.6992187,-0.515625 1.6992187,-2.5546875 0,-0.8085938 0,-3.5390625 -2.0625,-3.5390625 -1.5820312,0 -3.04687498,1.546875 -3.04687498,3.7148437 0,2.1445313 1.42968748,3.72656251 3.07031248,3.72656251 1.125,0 2.0390625,-0.7265625 2.0390625,-1.01953125 0,-0.30468746 -0.2929687,-0.30468746 -0.4101562,-0.30468746 -0.1875,0 -0.234375,0 -0.3515625,0.1054687 -0.4101563,0.39843751 -0.8554688,0.52734376 -1.2773438,0.52734376 -1.2773437,0 -2.4023437,-1.30078126 -2.4023437,-3.02343746 0,-1.7929688 1.171875,-3.0351563 2.390625,-3.0351563 0.3515625,0 0.84375,0.1289063 1.125,0.9023438 z m -0.7617188,3.8085937 c -0.5507812,0 -1.0429687,-0.75 -1.0429687,-1.6757812 0,-1.0078125 0.5390625,-1.6875 1.03125,-1.6875 0.5390625,0 1.03125,0.7382812 1.03125,1.6757812 0,1.0078125 -0.5390625,1.6875 -1.0195313,1.6875 z m 0,0"
       style="fill:#000000;fill-opacity:1;fill-rule:nonzero;stroke:none"
       aria-label="@"
       transform="matrix(1.3333333,0,0,1.3333333,307.71067,103.74533)" />
    <path
       id="path9"
       d="m -45.3548,11.33879 h 22.67743 V 34.01622 H -45.3548 Z"
       style="fill:none;stroke:#000000;stroke-width:0.3985;stroke-linecap:butt;stroke-linejoin:miter;stroke-miterlimit:10;stroke-dasharray:none;stroke-opacity:1"
       transform="matrix(1.3333333,0,0,-1.3333333,402.52,98.874667)" />
    <path
       id="path10"
       d="m 4.3137188,-7.7821719 c 0,-0.2226562 0,-0.2929687 -0.1640625,-0.2929687 -0.09375,0 -0.1289063,0 -0.2226563,0.1523437 l -3.59765625,5.578125 v 0.3515625 H 3.4699688 v 1.07812503 c 0,0.4453125 -0.023437,0.5625 -0.9023438,0.5625 H 2.33325 V -9.21875e-4 C 2.6027813,-0.02435937 3.552,-0.02435937 3.8918438,-0.02435937 c 0.328125,0 1.2890625,0 1.5585937,0.023437495 V -0.35248437 h -0.234375 c -0.8671875,0 -0.9023437,-0.1171875 -0.9023437,-0.5625 V -1.9931094 H 5.52075 V -2.3446719 H 4.3137188 Z m -0.7851563,0.9375 v 4.5 h -2.90625 z m 0,0"
       style="fill:#000000;fill-opacity:1;fill-rule:nonzero;stroke:none"
       aria-label="4"
       transform="matrix(1.3333333,0,0,1.3333333,353.264,73.774667)" />
    <path
       id="path11"
       d="m -45.3548,-11.33871 h 22.67743 V 11.33872 H -45.3548 Z"
       style="fill:none;stroke:#000000;stroke-width:0.3985;stroke-linecap:butt;stroke-linejoin:miter;stroke-miterlimit:10;stroke-dasharray:none;stroke-opacity:1"
       transform="matrix(1.3333333,0,0,-1.3333333,402.52,98.874667)" />
    <path
       id="path12"
       d="m 1.536375,-6.8429609 c 0.5039063,0.1640625 0.9257813,0.1757812 1.0546875,0.1757812 1.359375,0 2.2148438,-0.9960937 2.2148438,-1.1601562 0,-0.046875 -0.023437,-0.1054688 -0.09375,-0.1054688 -0.023437,0 -0.046875,0 -0.1523438,0.046875 -0.6679687,0.28125 -1.2421875,0.3164063 -1.5585937,0.3164063 -0.7851563,0 -1.3476563,-0.234375 -1.5820313,-0.328125 -0.082031,-0.035156 -0.1054687,-0.035156 -0.1171875,-0.035156 -0.09375,0 -0.09375,0.070312 -0.09375,0.2578125 v 3.5507813 c 0,0.2109375 0,0.2929687 0.140625,0.2929687 0.058594,0 0.070312,-0.011719 0.1992188,-0.1640625 0.328125,-0.4921875 0.890625,-0.7734375 1.4882812,-0.7734375 0.6328125,0 0.9492188,0.5859375 1.0429688,0.7851563 0.1992187,0.46875 0.2109375,1.0546875 0.2109375,1.5117187 0,0.4570313 0,1.1367188 -0.328125,1.67578126 -0.2695313,0.421875 -0.7382813,0.7265625 -1.2539063,0.7265625 -0.796875,0 -1.5703125,-0.5390625 -1.78125,-1.40624996 0.0585938,0.023437 0.1289063,0.035156 0.1875,0.035156 0.1992188,0 0.5273438,-0.1289062 0.5273438,-0.5273437 0,-0.3398438 -0.234375,-0.5273438 -0.5273438,-0.5273438 -0.2109375,0 -0.52734375,0.1054688 -0.52734375,0.5742188 0,1.00781246 0.80859375,2.16796871 2.14453125,2.16796871 1.3476563,0 2.53125,-1.125 2.53125,-2.64843751 0,-1.4179687 -0.9609375,-2.6015625 -2.2148437,-2.6015625 -0.6796875,0 -1.2070313,0.2929688 -1.5117188,0.6328125 z m 0,0"
       style="fill:#000000;fill-opacity:1;fill-rule:nonzero;stroke:none"
       aria-label="5"
       transform="matrix(1.3333333,0,0,1.3333333,353.264,104.01067)" />
    <path
       id="path13"
       d="m -45.3548,-34.01624 h 22.67743 v 22.67743 H -45.3548 Z"
       style="fill:none;stroke:#000000;stroke-width:0.3985;stroke-linecap:butt;stroke-linejoin:miter;stroke-miterlimit:10;stroke-dasharray:none;stroke-opacity:1"
       transform="matrix(1.3333333,0,0,-1.3333333,402.52,98.874667)" />
    <path
       id="path14"
       d="m 1.4660625,-4.1605859 c 0,-3.0234375 1.4765625,-3.5039063 2.1210938,-3.5039063 0.4335937,0 0.8554687,0.1289063 1.0898437,0.4921875 -0.140625,0 -0.5976562,0 -0.5976562,0.4921875 0,0.2578125 0.1757812,0.4921875 0.4921875,0.4921875 0.2929687,0 0.4921875,-0.1875 0.4921875,-0.5273437 0,-0.6210938 -0.4453125,-1.2304688 -1.4882813,-1.2304688 -1.5117187,0 -3.08203125,1.5351563 -3.08203125,4.171875 0,3.28125001 1.42968755,4.01953126 2.44921875,4.01953126 1.3007813,0 2.4140625,-1.125 2.4140625,-2.68359376 0,-1.59375 -1.1132812,-2.6601562 -2.3085937,-2.6601562 -1.0664063,0 -1.453125,0.9257812 -1.5820313,1.265625 z m 1.4765625,4.08984371 c -0.75,0 -1.1132812,-0.66796875 -1.21875,-0.92578125 C 1.6184063,-1.3012109 1.5012188,-1.8871484 1.5012188,-2.7308984 c 0,-0.9375 0.421875,-2.1210938 1.5,-2.1210938 0.65625,0 1.0078125,0.4453125 1.1835937,0.84375 0.1875,0.4453125 0.1875,1.0429688 0.1875,1.5585938 0,0.609375 0,1.1484375 -0.2226562,1.60546871 -0.3046875,0.57421875 -0.7265625,0.7734375 -1.2070313,0.7734375 z m 0,0"
       style="fill:#000000;fill-opacity:1;fill-rule:nonzero;stroke:none"
       aria-label="6"
       transform="matrix(1.3333333,0,0,1.3333333,353.264,134.24667)" />
    <path
       id="path15"
       d="m 1.9211328,-6.8091094 c 0,-0.375 -0.070312,-0.4921875 -0.4804687,-0.4921875 H 0.65550781 c -0.1640625,0 -0.48046875,0 -0.48046875,0.3398438 0,0.3515625 0.31640625,0.3515625 0.48046875,0.3515625 H 1.1476953 v 6.11718748 c 0,0.22265625 0,0.492187495 0.3984375,0.492187495 0.375,0 0.375,-0.246093745 0.375,-0.597656245 0.2929688,0.328125 0.7265625,0.66796875 1.40625,0.66796875 1.265625,0 2.3789063,-1.13671878 2.3789063,-2.64843748 0,-1.4765625 -1.0078125,-2.6484375 -2.25,-2.6484375 -0.8789063,0 -1.4296875,0.5273437 -1.5351563,0.6445312 z m 0,3.6328125 c 0,-0.6796875 0.6679688,-1.359375 1.453125,-1.359375 0.8554688,0 1.546875,0.8789063 1.546875,1.9570313 0,1.1484375 -0.8085937,1.95703123 -1.6640625,1.95703123 -0.890625,0 -1.3359375,-1.01953123 -1.3359375,-1.61718753 z m 9.4218752,-4.4296875 c 0.164062,0 0.46875,0 0.46875,-0.3398437 0,-0.3515625 -0.304688,-0.3515625 -0.46875,-0.3515625 H 9.2570703 c -0.3867187,0 -0.4804687,0.1054687 -0.4804687,0.4921875 v 8.30859373 c 0,0.36328125 0.082031,0.4921875 0.4804687,0.4921875 h 2.0859377 c 0.164062,0 0.46875,0 0.46875,-0.3515625 0,-0.33984375 -0.304688,-0.33984375 -0.46875,-0.33984375 H 9.5617578 V -7.6059844 Z m 4.710937,3.140625 c 0,-0.3984375 -0.316406,-0.6914062 -0.667968,-0.6914062 -0.375,0 -0.679688,0.3046875 -0.679688,0.6914062 0,0.3515625 0.316406,0.6679688 0.667969,0.6679688 0.398437,0 0.679687,-0.328125 0.679687,-0.6679688 z m 0,3.79687503 c 0,-0.39843753 -0.316406,-0.67968753 -0.667968,-0.67968753 -0.375,0 -0.679688,0.2929688 -0.679688,0.67968753 0,0.3515625 0.316406,0.667968745 0.667969,0.667968745 0.398437,0 0.679687,-0.328124995 0.679687,-0.667968745 z m 5.707032,0.6328125 c -0.07031,0.375 -0.304688,0.8203125 -0.890625,1.03125 -0.105469,0.0234375 -0.28125,0.0820313 -0.28125,0.30468747 0,0.1523438 0.175781,0.3632813 0.363281,0.3632813 0.328125,0 1.511719,-0.5859375 1.511719,-1.87500002 0,-0.6328125 -0.398438,-1.13671878 -0.925782,-1.13671878 -0.445312,0 -0.679687,0.3398438 -0.679687,0.66796878 0,0.3984375 0.304687,0.679687495 0.667969,0.679687495 0.07031,0 0.152343,-0.011718745 0.234375,-0.035156245 z M 32.990469,-6.9028594 C 32.849844,-7.3012969 32.60375,-7.3012969 32.357656,-7.3012969 H 31.5725 c -0.175781,0 -0.46875,0 -0.46875,0.3398438 0,0.3515625 0.304687,0.3515625 0.46875,0.3515625 h 0.269531 v 5.91796873 H 31.5725 c -0.164063,0 -0.46875,0 -0.46875,0.33984375 0,0.351562495 0.292969,0.351562495 0.46875,0.351562495 h 1.195312 c 0.175782,0 0.492188,0 0.492188,-0.351562495 0,-0.33984375 -0.316406,-0.33984375 -0.492188,-0.33984375 H 32.51 V -6.4809844 h 0.01172 c 0.03516,0.1289063 0.140625,0.4453125 0.363281,1.0546875 l 1.78125,5.01562503 c 0.140625,0.410156245 0.375,0.410156245 0.644531,0.410156245 0.351563,0 0.492188,-0.035156245 0.492188,-0.492187495 V -6.6098906 h 0.26953 c 0.164062,0 0.480469,0 0.480469,-0.3515625 0,-0.3398438 -0.304688,-0.3398438 -0.480469,-0.3398438 h -1.195313 c -0.164062,0 -0.492187,0 -0.492187,0.3398438 0,0.3515625 0.328125,0.3515625 0.492187,0.3515625 H 35.135 v 5.78906248 h -0.01172 c -0.03516,-0.140625 -0.140625,-0.44531248 -0.351562,-1.05468748 z m 9.363281,4.3242188 c 0,-1.5 -1.089844,-2.6835938 -2.378906,-2.6835938 -1.289063,0 -2.378907,1.1835938 -2.378907,2.6835938 0,1.5 1.101563,2.64843748 2.378907,2.64843748 1.277343,0 2.378906,-1.14843748 2.378906,-2.64843748 z m -2.378906,1.95703123 c -0.855469,0 -1.605469,-0.91406253 -1.605469,-2.03906253 0,-1.1132812 0.773437,-1.9101562 1.605469,-1.9101562 0.84375,0 1.605468,0.796875 1.605468,1.9101562 0,1.1367188 -0.738281,2.03906253 -1.605468,2.03906253 z m 8.074218,-2.88281253 c 0,-1.171875 -0.550781,-1.7226562 -1.523437,-1.7226562 -0.820313,0 -1.335938,0.4570312 -1.546875,0.6796875 0,-0.4335938 0,-0.609375 -0.480469,-0.609375 h -0.785156 c -0.164063,0 -0.480469,0 -0.480469,0.3515625 0,0.3515625 0.316406,0.3515625 0.480469,0.3515625 h 0.492187 v 3.76171873 h -0.492187 c -0.164063,0 -0.480469,0 -0.480469,0.33984375 0,0.351562495 0.316406,0.351562495 0.480469,0.351562495 h 1.757812 c 0.164063,0 0.480469,0 0.480469,-0.351562495 0,-0.33984375 -0.316406,-0.33984375 -0.480469,-0.33984375 H 44.97875 V -2.8598906 c 0,-1.1601563 0.820312,-1.6757813 1.464844,-1.6757813 0.691406,0 0.832031,0.3984375 0.832031,1.078125 v 2.76562503 h -0.492188 c -0.164062,0 -0.480468,0 -0.480468,0.33984375 0,0.351562495 0.316406,0.351562495 0.480468,0.351562495 h 1.757813 c 0.164062,0 0.480469,0 0.480469,-0.351562495 0,-0.33984375 -0.316407,-0.33984375 -0.480469,-0.33984375 h -0.492188 z m 6.128907,1.2070313 c 0.257812,0 0.480468,0 0.480468,-0.4453125 0,-1.3945313 -0.785156,-2.5195313 -2.285156,-2.5195313 -1.382812,0 -2.496094,1.1953125 -2.496094,2.6601563 0,1.5 1.207032,2.67187498 2.683594,2.67187498 1.535156,0 2.097656,-1.06640625 2.097656,-1.37109378 0,-0.070312 -0.02344,-0.3398437 -0.398437,-0.3398437 -0.222656,0 -0.292969,0.082031 -0.363281,0.2695312 -0.304688,0.69140628 -1.078125,0.75000003 -1.300782,0.75000003 -0.996093,0 -1.78125,-0.75000003 -1.921875,-1.67578123 z m -3.492188,-0.65625 c 0.164063,-1.0195313 0.9375,-1.6171875 1.6875,-1.6171875 1.195313,0 1.453125,1.0195312 1.5,1.6171875 z m 8.191406,-4.8515625 c 0,-0.375 -0.07031,-0.4921875 -0.480468,-0.4921875 H 56.3225 c -0.175781,0 -0.480469,0 -0.480469,0.3515625 0,0.3398437 0.304688,0.3398437 0.480469,0.3398437 h 1.78125 V 0.30417188 H 56.3225 c -0.175781,0 -0.480469,0 -0.480469,0.33984375 0,0.3515625 0.304688,0.3515625 0.480469,0.3515625 h 2.074219 c 0.398437,0 0.480468,-0.1171875 0.480468,-0.4921875 z M 1.9387109,9.5414766 c 0,-0.1875 0,-0.4570313 -0.328125,-0.4570313 -0.2929687,0 -0.3632812,0.28125 -0.3632812,0.2929688 C 0.76683594,9.0844453 0.22777344,9.0844453 -0.01832031,9.0844453 c -1.94531249,0 -2.21484379,0.9960937 -2.21484379,1.4062497 0,0.480469 0.2929688,0.820313 0.703125,1.042969 0.375,0.222656 0.72656254,0.28125 1.69921879,0.433594 0.46875,0.08203 1.42968751,0.234375 1.42968751,0.902344 0,0.433593 -0.4101563,0.855468 -1.52343751,0.855468 -0.76171875,0 -1.26562499,-0.304687 -1.51171879,-1.160156 -0.058594,-0.164062 -0.09375,-0.292969 -0.3984375,-0.292969 -0.3984375,0 -0.3984375,0.222657 -0.3984375,0.457032 v 1.230468 c 0,0.199219 0,0.457032 0.3398438,0.457032 0.140625,0 0.2460937,0 0.4335937,-0.492188 0.55078129,0.457031 1.17187504,0.492188 1.53515629,0.492188 2.21484371,0 2.21484371,-1.429688 2.21484371,-1.546875 0,-1.253907 -1.47656246,-1.5 -2.05078121,-1.582032 -1.0546875,-0.175781 -1.76953129,-0.304687 -1.76953129,-0.796875 0,-0.328125 0.3632813,-0.7148434 1.48828129,-0.7148434 1.13671871,0 1.18359371,0.5390624 1.20703121,0.8554684 0.023437,0.234375 0.2460938,0.269532 0.3867188,0.269532 0.3867187,0 0.3867187,-0.210938 0.3867187,-0.457032 z m 6.1289063,1.3007814 c 0,-1.1718752 -0.5507813,-1.7226564 -1.5234375,-1.7226564 -0.8203125,0 -1.3359375,0.4570312 -1.546875,0.6796875 V 7.5375703 c 0,-0.375 -0.070312,-0.4921875 -0.4804688,-0.4921875 H 3.7316797 c -0.1640625,0 -0.4804688,0 -0.4804688,0.3398438 0,0.3515625 0.3164063,0.3515625 0.4804688,0.3515625 H 4.2238672 V 13.654758 H 3.7316797 c -0.1640625,0 -0.4804688,0 -0.4804688,0.339844 0,0.351562 0.3164063,0.351562 0.4804688,0.351562 h 1.7578125 c 0.1640625,0 0.4804687,0 0.4804687,-0.351562 0,-0.339844 -0.3164062,-0.339844 -0.4804687,-0.339844 H 4.9973047 v -2.167969 c 0,-1.160156 0.8203125,-1.6757812 1.4648437,-1.6757812 0.6914063,0 0.8320313,0.3984372 0.8320313,1.0781252 v 2.765625 H 6.8019922 c -0.1640625,0 -0.4804688,0 -0.4804688,0.339844 0,0.351562 0.3164063,0.351562 0.4804688,0.351562 h 1.7578125 c 0.1640625,0 0.4804687,0 0.4804687,-0.351562 0,-0.339844 -0.3164062,-0.339844 -0.4804687,-0.339844 H 8.0676172 Z m 6.1054688,0.105469 c 0,-0.902344 -0.679688,-1.8632817 -2.296875,-1.8632817 -0.492188,0 -1.652344,0 -1.652344,0.8320313 0,0.3164064 0.222656,0.4921874 0.480469,0.4921874 0.08203,0 0.46875,-0.02344 0.480469,-0.5156249 0,-0.070312 0.01172,-0.082031 0.269531,-0.1054688 0.140625,-0.011719 0.292969,-0.011719 0.433594,-0.011719 0.28125,0 0.691406,0 1.078125,0.3046877 0.433593,0.328125 0.433593,0.667969 0.433593,1.019531 -0.703125,0.02344 -1.394531,0.07031 -2.144531,0.304688 -0.597656,0.199219 -1.3593748,0.632812 -1.3593748,1.441406 0,0.855469 0.7499998,1.570313 1.8632808,1.570313 0.386719,0 1.125,-0.05859 1.746094,-0.492188 0.246094,0.398438 0.84375,0.421875 1.289063,0.421875 0.292968,0 0.574218,0 0.574218,-0.351562 0,-0.339844 -0.304687,-0.339844 -0.480468,-0.339844 -0.304688,0 -0.539063,-0.02344 -0.714844,-0.09375 z m -0.773438,1.816406 c 0,0.28125 0,0.527344 -0.492187,0.761719 -0.421875,0.199218 -0.972656,0.199218 -1.019531,0.199218 -0.703125,0 -1.21875,-0.386718 -1.21875,-0.878906 0,-0.703125 1.289062,-1.101562 2.730468,-1.101562 z m 4.394532,4.230469 c 0.164062,0 0.480468,0 0.480468,-0.339844 0,-0.351563 -0.316406,-0.351563 -0.480468,-0.351563 h -0.492188 v -2.554687 c 0.292969,0.328125 0.726563,0.667969 1.40625,0.667969 1.265625,0 2.378906,-1.136719 2.378906,-2.648438 0,-1.476562 -1.007812,-2.6484374 -2.25,-2.6484374 -0.878906,0 -1.429687,0.5273437 -1.535156,0.6445312 0,-0.3867187 0,-0.5742187 -0.480469,-0.5742187 h -0.785156 c -0.164062,0 -0.480469,0 -0.480469,0.3515625 0,0.3515625 0.316407,0.3515625 0.480469,0.3515625 h 0.492188 v 6.4101559 h -0.492188 c -0.164062,0 -0.480469,0 -0.480469,0.351563 0,0.339844 0.316407,0.339844 0.480469,0.339844 z m -0.492188,-5.824219 c 0,-0.679688 0.667969,-1.3593752 1.453125,-1.3593752 0.855469,0 1.546875,0.8789062 1.546875,1.9570312 0,1.148438 -0.808594,1.957031 -1.664062,1.957031 -0.890625,0 -1.335938,-1.019531 -1.335938,-1.617187 z m 9.199219,0.878906 c 0.257812,0 0.480469,0 0.480469,-0.445312 0,-1.394532 -0.785157,-2.5195317 -2.285157,-2.5195317 -1.382812,0 -2.496093,1.1953127 -2.496093,2.6601567 0,1.5 1.207031,2.671875 2.683593,2.671875 1.535157,0 2.097657,-1.066407 2.097657,-1.371094 0,-0.07031 -0.02344,-0.339844 -0.398438,-0.339844 -0.222656,0 -0.292969,0.08203 -0.363281,0.269531 -0.304688,0.691407 -1.078125,0.75 -1.300781,0.75 -0.996094,0 -1.78125,-0.75 -1.921875,-1.675781 z m -3.492188,-0.65625 c 0.164063,-1.019531 0.9375,-1.6171874 1.6875,-1.6171874 1.195313,0 1.453125,1.0195314 1.5,1.6171874 z m 9.867188,-1.21875 c 0.152344,0 0.515625,0 0.515625,-0.3867187 0,-0.3867187 -0.398438,-0.3867187 -0.574219,-0.3867187 h -4.113281 c -0.1875,0 -0.574219,0 -0.574219,0.3867187 0,0.3867187 0.363281,0.3867187 0.515625,0.3867187 z m -0.05859,1.816406 c 0.175781,0 0.574219,0 0.574219,-0.398437 0,-0.375 -0.375,-0.375 -0.515625,-0.375 h -4.230469 c -0.164062,0 -0.515625,0 -0.515625,0.375 0,0.398437 0.386719,0.398437 0.574219,0.398437 z m 6.140625,3.035157 c 0,-0.152344 -0.09375,-0.199219 -0.257812,-0.316407 -1.652344,-1.136718 -2.050782,-2.847656 -2.050782,-4.007812 0,-1.1367189 0.375,-2.8593752 2.050782,-4.0195314 0.164062,-0.1171875 0.257812,-0.1640625 0.257812,-0.3164063 0,-0.1289062 -0.07031,-0.3164062 -0.351562,-0.3164062 -0.304688,0 -1.183594,0.6914062 -1.734375,1.4765625 -0.667969,0.9257812 -1.007813,2.0390625 -1.007813,3.1757814 0,1.324219 0.480469,2.4375 0.984375,3.140625 0.550781,0.761719 1.417969,1.5 1.757813,1.5 0.28125,0 0.351562,-0.210938 0.351562,-0.316406 z m 4.089844,-4.277344 c 1.242187,0 1.792969,0.867187 1.792969,1.523437 0,0.785157 -0.691407,1.523438 -1.746094,1.523438 -1.195313,0 -1.734375,-0.644531 -1.734375,-0.808594 0,-0.02344 0.01172,-0.04687 0.02344,-0.05859 0.04687,-0.09375 0.08203,-0.1875 0.08203,-0.292968 0,-0.246094 -0.1875,-0.480469 -0.46875,-0.480469 -0.257813,0 -0.492188,0.164062 -0.492188,0.527344 0,1.042968 1.136719,1.804687 2.589844,1.804687 1.511719,0 2.519531,-1.078125 2.519531,-2.203125 0,-0.609375 -0.328125,-1.464844 -1.382812,-1.921875 0.726562,-0.4453124 1.054687,-1.1718749 1.054687,-1.7929687 0,-0.890625 -0.902344,-1.6640625 -2.191406,-1.6640625 -1.324219,0 -2.261719,0.5625 -2.261719,1.453125 0,0.3984375 0.304688,0.515625 0.492188,0.515625 0.222656,0 0.480468,-0.1640625 0.480468,-0.4921875 0,-0.1875 -0.09375,-0.2929687 -0.09375,-0.3164062 0.351563,-0.4453125 1.183594,-0.46875 1.382813,-0.46875 0.820312,0 1.417969,0.421875 1.417969,0.984375 0,0.3515625 -0.234375,1.3476562 -1.488282,1.4296879 -0.445312,0.02344 -0.632812,0.04687 -0.679687,0.04687 -0.234375,0.02344 -0.304688,0.175781 -0.304688,0.339843 0,0.351563 0.257813,0.351563 0.457032,0.351563 z m 6.398437,3.5625 c -0.07031,0.375 -0.304687,0.820312 -0.890625,1.03125 -0.105468,0.02344 -0.28125,0.08203 -0.28125,0.304687 0,0.152344 0.175782,0.363282 0.363282,0.363282 0.328125,0 1.511718,-0.585938 1.511718,-1.875 0,-0.632813 -0.398437,-1.136719 -0.925781,-1.136719 -0.445312,0 -0.679687,0.339844 -0.679687,0.667969 0,0.398437 0.304687,0.679687 0.667968,0.679687 0.07031,0 0.152344,-0.01172 0.234375,-0.03516 z m 6.480469,-6.9257814 c 0,-0.1757813 0,-0.4804688 -0.339844,-0.4804688 -0.210937,0 -0.28125,0.1054688 -0.351562,0.2578125 -0.222656,0.515625 -0.621094,1.1484375 -1.253906,1.1953125 -0.175782,0.011719 -0.433594,0.035156 -0.433594,0.3515625 0,0.1992188 0.117187,0.3398438 0.386719,0.3398438 0.667968,0 1.183593,-0.5039063 1.21875,-0.5273438 v 5.1328127 h -1.054688 c -0.164062,0 -0.492187,0 -0.492187,0.339844 0,0.351562 0.328125,0.351562 0.492187,0.351562 h 2.882813 c 0.164062,0 0.492187,0 0.492187,-0.351562 0,-0.339844 -0.328125,-0.339844 -0.492187,-0.339844 h -1.054688 z m 6.632813,3.3164064 c 0,-0.9375002 -0.222657,-2.1445314 -1.089844,-3.3046877 -0.410156,-0.5507812 -1.289063,-1.3476562 -1.652344,-1.3476562 -0.269531,0 -0.339844,0.1992187 -0.339844,0.3164062 0,0.140625 0.08203,0.1992188 0.292969,0.3398438 1.464844,1.03125 2.015625,2.6367187 2.015625,3.9843749 0,1.078125 -0.351562,2.835938 -2.0625,4.019531 -0.152344,0.105469 -0.246094,0.164063 -0.246094,0.316407 0,0.105468 0.07031,0.316406 0.339844,0.316406 0.304688,0 1.183594,-0.691406 1.734375,-1.476563 0.691406,-0.972656 1.007813,-2.097656 1.007813,-3.164062 z m 0,0"
       style="fill:#000000;fill-opacity:1;fill-rule:nonzero;stroke:none"
       aria-label="b[:,None]&#10;shape=(3,1)"
       transform="matrix(1.3333333,0,0,1.3333333,316.15333,21.696)" />
    <path
       id="path16"
       d="m 8.0750703,-3.8676875 c 0.1640625,0 0.375,0 0.375,-0.2226563 C 8.4500703,-4.313 8.2508516,-4.313 8.0750703,-4.313 H 1.0321016 c -0.17578129,0 -0.38671879,0 -0.38671879,0.2109375 0,0.234375 0.19921875,0.234375 0.38671879,0.234375 z m 0,2.2148437 c 0.1640625,0 0.375,0 0.375,-0.2109375 0,-0.234375 -0.1992187,-0.234375 -0.375,-0.234375 H 1.0321016 c -0.17578129,0 -0.38671879,0 -0.38671879,0.2226563 0,0.2226562 0.19921875,0.2226562 0.38671879,0.2226562 z m 0,0"
       style="fill:#000000;fill-opacity:1;fill-rule:nonzero;stroke:none"
       aria-label="="
       transform="matrix(1.3333333,0,0,1.3333333,400.22933,101.75067)" />
    <path
       id="path17"
       d="M 28.34663,-11.33871 H 51.02406 V 11.33872 H 28.34663 Z"
       style="fill:none;stroke:#000000;stroke-width:0.3985;stroke-linecap:butt;stroke-linejoin:miter;stroke-miterlimit:10;stroke-dasharray:none;stroke-opacity:1"
       transform="matrix(1.3333333,0,0,-1.3333333,402.52,98.874667)" />
    <path
       id="path18"
       d="m 2.2028047,-4.2882734 c -0.2109375,0.011719 -0.2578125,0.023437 -0.2578125,0.1289062 0,0.1171875 0.058594,0.1171875 0.28125,0.1171875 h 0.5507812 c 1.0078125,0 1.4648438,0.84375 1.4648438,1.9921875 0,1.55859376 -0.8085938,1.98046876 -1.3945313,1.98046876 -0.5742187,0 -1.5585937,-0.28125 -1.89843746,-1.06640626 0.37499996,0.058594 0.72656246,-0.1523437 0.72656246,-0.5859375 0,-0.3398437 -0.2578125,-0.5859375 -0.5859375,-0.5859375 -0.29296871,0 -0.59765621,0.1640625 -0.59765621,0.6210938 0,1.06640621 1.06640621,1.93359371 2.39062501,1.93359371 1.4179687,0 2.4726562,-1.078125 2.4726562,-2.28515621 0,-1.1015625 -0.890625,-1.96875 -2.0273437,-2.1679688 1.03125,-0.3046875 1.6992187,-1.171875 1.6992187,-2.109375 0,-0.9375 -0.9726562,-1.6289062 -2.1328125,-1.6289062 -1.1953125,0 -2.08593746,0.7265625 -2.08593746,1.59375 0,0.4804687 0.37499996,0.5742187 0.55078126,0.5742187 0.2578125,0 0.5390625,-0.1757812 0.5390625,-0.5390625 0,-0.375 -0.28125,-0.5390625 -0.5507813,-0.5390625 -0.070312,0 -0.09375,0 -0.1289062,0.011719 0.4570312,-0.8203125 1.5820312,-0.8203125 1.640625,-0.8203125 0.3867187,0 1.171875,0.1757812 1.171875,1.3476562 0,0.234375 -0.035156,0.9023438 -0.3867188,1.4179688 -0.3515625,0.5273437 -0.7617187,0.5625 -1.0898437,0.5742187 z m 8.9121093,2.2851562 h -0.269531 c -0.03516,0.1992188 -0.128906,0.8554688 -0.246094,1.04296876 -0.08203,0.1171875 -0.7617187,0.1171875 -1.1249999,0.1171875 H 7.2594453 c 0.328125,-0.28124996 1.0546875,-1.04296876 1.3710938,-1.33593746 1.8164059,-1.6640625 2.4843749,-2.2851563 2.4843749,-3.46875 0,-1.3828125 -1.089844,-2.296875 -2.4726562,-2.296875 -1.3945312,0 -2.203125,1.1835937 -2.203125,2.203125 0,0.609375 0.5273438,0.609375 0.5625,0.609375 0.2460938,0 0.5625,-0.1757813 0.5625,-0.5625 0,-0.328125 -0.234375,-0.5507813 -0.5625,-0.5507813 -0.1054687,0 -0.1289062,0 -0.1640625,0.011719 0.2226563,-0.8203125 0.8671875,-1.3710938 1.640625,-1.3710938 1.0195313,0 1.6406247,0.8554688 1.6406247,1.9570313 0,1.0078125 -0.5859372,1.8984375 -1.2656247,2.6601562 L 6.4391328,-0.28046094 V 7.890625e-4 h 4.3593752 z m 0,0"
       style="fill:#000000;fill-opacity:1;fill-rule:nonzero;stroke:none"
       aria-label="32"
       transform="matrix(1.3333333,0,0,1.3333333,447.62933,104.01067)" />
    <path
       id="path19"
       d="m 5.6601797,-6.9968281 c 0,-0.1875 0,-0.4453125 -0.328125,-0.4453125 -0.2109375,0 -0.28125,0.1289062 -0.328125,0.2109375 -0.035156,0.09375 -0.1289063,0.3046875 -0.1640625,0.3984375 -0.4921875,-0.4335938 -1.0429688,-0.609375 -1.5351563,-0.609375 -1.546875,0 -2.82421871,1.640625 -2.82421871,3.7851562 0,2.1914063 1.31250001,3.79687502 2.82421871,3.79687502 1.3945313,0 2.3554688,-1.11328125 2.3554688,-2.15625002 0,-0.375 -0.2460938,-0.375 -0.3867188,-0.375 -0.1640625,0 -0.3632812,0.058594 -0.3867187,0.2578125 -0.09375,1.50000002 -1.3007813,1.58203127 -1.5,1.58203127 -1.1132813,0 -2.1328125,-1.30078127 -2.1328125,-3.10546877 0,-1.8046875 1.03125,-3.09375 2.1210937,-3.09375 0.6445313,0 1.3476563,0.515625 1.5117188,1.6054688 0.035156,0.2695312 0.140625,0.3398437 0.3867187,0.3398437 0.3867188,0 0.3867188,-0.2109375 0.3867188,-0.4570312 z M -25.743141,9.5412578 c 0,-0.1875 0,-0.4570312 -0.328125,-0.4570312 -0.292968,0 -0.363281,0.28125 -0.363281,0.2929687 -0.480469,-0.2929687 -1.019531,-0.2929687 -1.265625,-0.2929687 -1.945312,0 -2.214844,0.9960934 -2.214844,1.4062504 0,0.480468 0.292969,0.820312 0.703125,1.042968 0.375,0.222657 0.726563,0.28125 1.699219,0.433594 0.46875,0.08203 1.429688,0.234375 1.429688,0.902344 0,0.433594 -0.410157,0.855469 -1.523438,0.855469 -0.761719,0 -1.265625,-0.304688 -1.511719,-1.160157 -0.05859,-0.164062 -0.09375,-0.292968 -0.398437,-0.292968 -0.398438,0 -0.398438,0.222656 -0.398438,0.457031 v 1.230469 c 0,0.199218 0,0.457031 0.339844,0.457031 0.140625,0 0.246094,0 0.433594,-0.492188 0.550781,0.457032 1.171875,0.492188 1.535156,0.492188 2.214844,0 2.214844,-1.429688 2.214844,-1.546875 0,-1.253906 -1.476563,-1.5 -2.050781,-1.582031 -1.054688,-0.175782 -1.769532,-0.304688 -1.769532,-0.796875 0,-0.328125 0.363282,-0.7148442 1.488282,-0.7148442 1.136718,0 1.183593,0.5390622 1.207031,0.8554692 0.02344,0.234375 0.246094,0.269531 0.386719,0.269531 0.386718,0 0.386718,-0.210938 0.386718,-0.457031 z m 6.128907,1.3007812 c 0,-1.1718749 -0.550782,-1.7226562 -1.523438,-1.7226562 -0.820312,0 -1.335937,0.4570313 -1.546875,0.6796875 V 7.5373516 c 0,-0.375 -0.07031,-0.4921875 -0.480469,-0.4921875 h -0.785156 c -0.164062,0 -0.480469,0 -0.480469,0.3398437 0,0.3515625 0.316407,0.3515625 0.480469,0.3515625 h 0.492188 v 5.9179687 h -0.492188 c -0.164062,0 -0.480469,0 -0.480469,0.339844 0,0.351562 0.316407,0.351562 0.480469,0.351562 h 1.757813 c 0.164062,0 0.480468,0 0.480468,-0.351562 0,-0.339844 -0.316406,-0.339844 -0.480468,-0.339844 h -0.492188 V 11.48657 c 0,-1.160156 0.820313,-1.6757809 1.464844,-1.6757809 0.691406,0 0.832031,0.3984379 0.832031,1.0781249 v 2.765625 h -0.492187 c -0.164063,0 -0.480469,0 -0.480469,0.339844 0,0.351562 0.316406,0.351562 0.480469,0.351562 h 1.757812 c 0.164063,0 0.480469,0 0.480469,-0.351562 0,-0.339844 -0.316406,-0.339844 -0.480469,-0.339844 h -0.492187 z m 6.102539,0.105469 c 0,-0.902344 -0.679688,-1.8632814 -2.296875,-1.8632814 -0.492188,0 -1.652344,0 -1.652344,0.8320312 0,0.3164062 0.222656,0.4921872 0.480469,0.4921872 0.08203,0 0.46875,-0.02344 0.480468,-0.5156247 0,-0.070312 0.01172,-0.082031 0.269532,-0.1054687 0.140625,-0.011719 0.292968,-0.011719 0.433593,-0.011719 0.28125,0 0.691407,0 1.078125,0.3046874 0.433594,0.328125 0.433594,0.667969 0.433594,1.019532 -0.703125,0.02344 -1.394531,0.07031 -2.144531,0.304687 -0.597656,0.199219 -1.359375,0.632813 -1.359375,1.441406 0,0.855469 0.75,1.570313 1.863281,1.570313 0.386719,0 1.125,-0.05859 1.746094,-0.492188 0.246094,0.398438 0.84375,0.421875 1.289062,0.421875 0.292969,0 0.574219,0 0.574219,-0.351562 0,-0.339844 -0.304687,-0.339844 -0.480469,-0.339844 -0.304687,0 -0.539062,-0.02344 -0.714843,-0.09375 z m -0.773438,1.816406 c 0,0.28125 0,0.527344 -0.492187,0.761719 -0.421875,0.199219 -0.972657,0.199219 -1.019532,0.199219 -0.703125,0 -1.21875,-0.386719 -1.21875,-0.878907 0,-0.703125 1.289063,-1.101562 2.730469,-1.101562 z m 4.3945314,4.230469 c 0.1640625,0 0.4804688,0 0.4804688,-0.339844 0,-0.351562 -0.3164063,-0.351562 -0.4804688,-0.351562 h -0.4921874 v -2.554688 c 0.292969,0.328125 0.7265624,0.667969 1.4062499,0.667969 1.265625,0 2.3789063,-1.136719 2.3789063,-2.648438 0,-1.476562 -1.0078125,-2.6484372 -2.25,-2.6484372 -0.8789063,0 -1.4296872,0.5273438 -1.5351562,0.6445313 0,-0.3867188 0,-0.5742188 -0.480469,-0.5742188 h -0.785156 c -0.164063,0 -0.480469,0 -0.480469,0.3515625 0,0.3515625 0.316406,0.3515625 0.480469,0.3515625 h 0.492187 v 6.4101567 h -0.492187 c -0.164063,0 -0.480469,0 -0.480469,0.351562 0,0.339844 0.316406,0.339844 0.480469,0.339844 z m -0.4921874,-5.824219 c 0,-0.679687 0.6679687,-1.3593749 1.4531249,-1.3593749 0.8554688,0 1.546875,0.8789059 1.546875,1.9570309 0,1.148438 -0.8085937,1.957032 -1.6640625,1.957032 -0.890625,0 -1.3359374,-1.019532 -1.3359374,-1.617188 z m 9.1992187,0.878906 c 0.25781249,0 0.48046874,0 0.48046874,-0.445312 0,-1.394531 -0.78515624,-2.5195314 -2.28515624,-2.5195314 -1.3828125,0 -2.4960938,1.1953124 -2.4960938,2.6601564 0,1.5 1.2070313,2.671875 2.6835938,2.671875 1.5351562,0 2.09765624,-1.066406 2.09765624,-1.371094 0,-0.07031 -0.0234375,-0.339844 -0.39843754,-0.339844 -0.2226562,0 -0.2929687,0.08203 -0.3632812,0.269532 -0.3046875,0.691406 -1.078125,0.75 -1.3007813,0.75 -0.9960937,0 -1.78125,-0.75 -1.921875,-1.675782 z m -3.4921875,-0.65625 c 0.1640625,-1.019531 0.9375,-1.6171872 1.6875,-1.6171872 1.1953125,0 1.453125,1.0195312 1.5,1.6171872 z m 9.8671875,-1.21875 c 0.1523437,0 0.515625,0 0.515625,-0.3867184 0,-0.3867188 -0.3984375,-0.3867188 -0.5742188,-0.3867188 H 1.0195547 c -0.18750001,0 -0.57421876,0 -0.57421876,0.3867188 0,0.3867184 0.36328125,0.3867184 0.515625,0.3867184 z m -0.058594,1.816407 c 0.1757813,0 0.5742188,0 0.5742188,-0.398438 0,-0.375 -0.375,-0.375 -0.515625,-0.375 H 0.96096094 c -0.1640625,0 -0.515625,0 -0.515625,0.375 0,0.398438 0.38671875,0.398438 0.57421876,0.398438 z m 6.1406253,3.035156 c 0,-0.152344 -0.09375,-0.199219 -0.257813,-0.316406 -1.6523435,-1.136719 -2.050781,-2.847657 -2.050781,-4.007813 0,-1.1367187 0.375,-2.8593749 2.050781,-4.0195312 0.164063,-0.1171875 0.257813,-0.1640625 0.257813,-0.3164062 0,-0.1289063 -0.07031,-0.3164063 -0.351563,-0.3164063 -0.304687,0 -1.1835935,0.6914063 -1.7343748,1.4765625 -0.6679687,0.9257813 -1.0078125,2.0390625 -1.0078125,3.1757812 0,1.324219 0.4804688,2.4375 0.984375,3.140625 0.5507813,0.761719 1.4179693,1.5 1.7578123,1.5 0.28125,0 0.351563,-0.210937 0.351563,-0.316406 z m 4.664062,-7.6406252 c 0,-0.1757812 0,-0.4804687 -0.339843,-0.4804687 -0.210938,0 -0.28125,0.1054687 -0.351563,0.2578125 -0.222656,0.515625 -0.621094,1.1484375 -1.253906,1.1953125 -0.175781,0.011719 -0.433594,0.035156 -0.433594,0.3515625 0,0.1992187 0.117188,0.3398437 0.386719,0.3398437 0.667969,0 1.183594,-0.5039062 1.21875,-0.5273437 v 5.1328124 h -1.054688 c -0.164062,0 -0.492187,0 -0.492187,0.339844 0,0.351562 0.328125,0.351562 0.492187,0.351562 h 2.882813 c 0.164062,0 0.492187,0 0.492187,-0.351562 0,-0.339844 -0.328125,-0.339844 -0.492187,-0.339844 h -1.054688 z m 5.824219,6.9257812 c -0.07031,0.375 -0.304687,0.820313 -0.890625,1.03125 -0.105469,0.02344 -0.28125,0.08203 -0.28125,0.304688 0,0.152343 0.175781,0.363281 0.363281,0.363281 0.328125,0 1.511719,-0.585938 1.511719,-1.875 0,-0.632813 -0.398437,-1.136719 -0.925781,-1.136719 -0.445313,0 -0.679688,0.339844 -0.679688,0.667969 0,0.398437 0.304688,0.679687 0.667969,0.679687 0.07031,0 0.152344,-0.01172 0.234375,-0.03516 z m 6.480469,-6.9257812 c 0,-0.1757812 0,-0.4804687 -0.339844,-0.4804687 -0.210937,0 -0.28125,0.1054687 -0.351562,0.2578125 -0.222657,0.515625 -0.621094,1.1484375 -1.253907,1.1953125 -0.175781,0.011719 -0.433593,0.035156 -0.433593,0.3515625 0,0.1992187 0.117187,0.3398437 0.386718,0.3398437 0.667969,0 1.183594,-0.5039062 1.21875,-0.5273437 v 5.1328124 h -1.054687 c -0.164063,0 -0.492188,0 -0.492188,0.339844 0,0.351562 0.328125,0.351562 0.492188,0.351562 h 2.882812 c 0.164063,0 0.492188,0 0.492188,-0.351562 0,-0.339844 -0.328125,-0.339844 -0.492188,-0.339844 h -1.054687 z m 6.632812,3.3164062 c 0,-0.9374999 -0.222656,-2.1445312 -1.089843,-3.3046874 -0.410157,-0.5507813 -1.289063,-1.3476563 -1.652344,-1.3476563 -0.269531,0 -0.339844,0.1992188 -0.339844,0.3164063 0,0.140625 0.08203,0.1992187 0.292969,0.3398437 1.464844,1.03125 2.015625,2.6367188 2.015625,3.9843747 0,1.078125 -0.351563,2.835938 -2.0625,4.019532 -0.152344,0.105468 -0.246094,0.164062 -0.246094,0.316406 0,0.105469 0.07031,0.316406 0.339844,0.316406 0.304687,0 1.183594,-0.691406 1.734375,-1.476562 0.691406,-0.972657 1.007812,-2.097657 1.007812,-3.164063 z m 0,0"
       style="fill:#000000;fill-opacity:1;fill-rule:nonzero;stroke:none"
       aria-label="C&#10;shape=(1,1)"
       transform="matrix(1.3333333,0,0,1.3333333,451.332,21.430667)" />
    <path
       id="path20"
       d="M -130.14279,-65.94324 H 45.10239 v 24.64122 h -175.24518 z"
       style="fill:#ffffff;fill-opacity:1;fill-rule:nonzero;stroke:none"
       transform="matrix(1.3333333,0,0,-1.3333333,402.52,98.874667)" />
    <path
       id="path21"
       d="m 4.9933281,-3.5050703 c 0,-1.171875 -0.5507812,-1.7226563 -1.5234375,-1.7226563 -0.8203125,0 -1.3359375,0.4570313 -1.546875,0.6796875 0,-0.4335937 0,-0.609375 -0.4804687,-0.609375 H 0.65739063 c -0.1640625,0 -0.48046875,0 -0.48046875,0.3515625 0,0.3515625 0.31640625,0.3515625 0.48046875,0.3515625 H 1.1495781 v 3.76171879 H 0.65739063 c -0.1640625,0 -0.48046875,0 -0.48046875,0.33984375 0,0.3515625 0.31640625,0.3515625 0.48046875,0.3515625 H 2.4152031 c 0.1640625,0 0.4804688,0 0.4804688,-0.3515625 0,-0.33984375 -0.3164063,-0.33984375 -0.4804688,-0.33984375 H 1.9230156 V -2.8605391 c 0,-1.1601562 0.8203125,-1.6757812 1.4648438,-1.6757812 0.6914062,0 0.8320312,0.3984375 0.8320312,1.078125 v 2.76562499 H 3.7277031 c -0.1640625,0 -0.4804687,0 -0.4804687,0.33984375 0,0.3515625 0.3164062,0.3515625 0.4804687,0.3515625 h 1.7578125 c 0.1640625,0 0.4804688,0 0.4804688,-0.3515625 0,-0.33984375 -0.3164063,-0.33984375 -0.4804688,-0.33984375 H 4.9933281 Z m 3.5742188,6.1523437 c 0.1640625,0 0.4804687,0 0.4804687,-0.3398437 0,-0.3515625 -0.3164062,-0.3515625 -0.4804687,-0.3515625 H 8.0753594 v -2.55468751 c 0.2929687,0.328125 0.7265625,0.66796875 1.40625,0.66796875 1.2656246,0 2.3789066,-1.13671874 2.3789066,-2.64843754 0,-1.4765625 -1.007813,-2.6484375 -2.2500004,-2.6484375 -0.8789062,0 -1.4296875,0.5273438 -1.5351562,0.6445313 0,-0.3867188 0,-0.5742188 -0.4804688,-0.5742188 H 6.8097344 c -0.1640625,0 -0.4804688,0 -0.4804688,0.3515625 0,0.3515625 0.3164063,0.3515625 0.4804688,0.3515625 H 7.3019219 V 1.9558672 H 6.8097344 c -0.1640625,0 -0.4804688,0 -0.4804688,0.3515625 0,0.3398437 0.3164063,0.3398437 0.4804688,0.3398437 z M 8.0753594,-3.1769453 c 0,-0.6796875 0.6679687,-1.359375 1.453125,-1.359375 0.8554686,0 1.5468746,0.8789062 1.5468746,1.9570312 0,1.1484375 -0.808593,1.95703129 -1.6640621,1.95703129 -0.890625,0 -1.3359375,-1.01953129 -1.3359375,-1.61718749 z m 7.9775386,2.50781249 c 0,-0.39843749 -0.316406,-0.67968749 -0.667968,-0.67968749 -0.375,0 -0.679688,0.2929687 -0.679688,0.67968749 0,0.3515625 0.316406,0.66796875 0.667969,0.66796875 0.398437,0 0.679687,-0.328125 0.679687,-0.66796875 z M 23.44743,-6.8097578 c 0,-0.375 -0.07031,-0.4921875 -0.46875,-0.4921875 h -0.796875 c -0.164063,0 -0.480469,0 -0.480469,0.3398437 0,0.3515625 0.316406,0.3515625 0.480469,0.3515625 h 0.492187 v 1.9804688 c -0.1875,-0.1875 -0.679687,-0.5976563 -1.40625,-0.5976563 -1.265625,0 -2.367187,1.1484375 -2.367187,2.6601563 0,1.4648437 1.019531,2.63671874 2.261718,2.63671874 0.773438,0 1.289063,-0.46875 1.511719,-0.7265625 0,0.50390625 0,0.65625 0.480469,0.65625 h 0.785156 c 0.164063,0 0.480469,0 0.480469,-0.3515625 0,-0.33984375 -0.316406,-0.33984375 -0.480469,-0.33984375 H 23.44743 Z m -0.773438,4.5351562 c 0,0.6679688 -0.550781,1.65234379 -1.441406,1.65234379 -0.867188,0 -1.558594,-0.87890629 -1.558594,-1.94531249 0,-1.1484375 0.808594,-1.96875 1.664063,-1.96875 0.773437,0 1.335937,0.7148437 1.335937,1.3359375 z m 7.382813,-0.3046875 c 0,-1.5 -1.089844,-2.6835937 -2.378907,-2.6835937 -1.289062,0 -2.378906,1.1835937 -2.378906,2.6835937 0,1.5 1.101563,2.64843754 2.378906,2.64843754 1.277344,0 2.378907,-1.14843754 2.378907,-2.64843754 z m -2.378907,1.95703129 c -0.855468,0 -1.605468,-0.91406249 -1.605468,-2.03906249 0,-1.1132813 0.773437,-1.9101563 1.605468,-1.9101563 0.84375,0 1.605469,0.796875 1.605469,1.9101563 0,1.1367187 -0.738281,2.03906249 -1.605469,2.03906249 z m 5.660157,-3.83203129 h 1.945312 c 0.164063,0 0.46875,0 0.46875,-0.3515625 0,-0.3515625 -0.304687,-0.3515625 -0.46875,-0.3515625 h -1.945312 v -0.9726562 c 0,-0.2226563 0,-0.4921875 -0.375,-0.4921875 -0.398438,0 -0.398438,0.2695312 -0.398438,0.4921875 v 0.9726562 h -1.019531 c -0.164063,0 -0.480469,0 -0.480469,0.3515625 0,0.3515625 0.304688,0.3515625 0.46875,0.3515625 h 1.03125 v 3.0117188 c 0,1.10156249 0.761719,1.51171874 1.628906,1.51171874 0.644532,0 1.828125,-0.31640625 1.828125,-1.53515624 0,-0.2460938 0,-0.5039063 -0.398437,-0.5039063 -0.375,0 -0.375,0.2578125 -0.375,0.515625 -0.02344,0.71484379 -0.703125,0.83203129 -0.972656,0.83203129 -0.9375,0 -0.9375,-0.59765629 -0.9375,-0.89062499 z m 11.99414,3.72656254 c -0.140625,0 -0.691406,0 -0.691406,-0.64453124 0,-0.234375 0.03516,-0.28125 0.08203,-0.375 0.234375,0.1640625 0.632813,0.328125 1.066407,0.328125 1.078125,0 1.921875,-0.8789063 1.921875,-1.9101563 0,-0.2929687 -0.07031,-0.6679687 -0.328125,-1.0546875 0.316406,-0.1757812 0.597656,-0.2109375 0.785156,-0.2226562 0.07031,0.375 0.410156,0.3867187 0.421875,0.3867187 0.152344,0 0.445312,-0.09375 0.445312,-0.4570312 0,-0.2226563 -0.175781,-0.6210938 -0.84375,-0.6210938 -0.222656,0 -0.761718,0.046875 -1.265625,0.4453125 -0.386718,-0.28125 -0.796875,-0.375 -1.125,-0.375 -1.089843,0 -1.933593,0.8789063 -1.933593,1.8984375 0,0.2695313 0.05859,0.7265625 0.398437,1.1484375 -0.222656,0.3398438 -0.257812,0.703125 -0.257812,0.84375 0,0.41015629 0.199218,0.75000004 0.292968,0.85546879 -0.65625,0.36328125 -0.890625,1.0078125 -0.890625,1.4765625 0,0.98437501 1.207032,1.74609371 2.71875,1.74609371 1.523438,0 2.730469,-0.75 2.730469,-1.74609371 0,-1.72265625 -2.121094,-1.72265625 -2.507812,-1.72265625 z m 0.457032,-1.37109374 c -0.597657,0 -1.136719,-0.515625 -1.136719,-1.2304688 0,-0.703125 0.550781,-1.2304687 1.136719,-1.2304687 0.632812,0 1.136718,0.5507812 1.136718,1.2304687 0,0.6914063 -0.503906,1.2304688 -1.136718,1.2304688 z m 0.339843,4.1601562 c -1.171875,0 -2.039062,-0.515625 -2.039062,-1.06640621 0,-0.1875 0.05859,-0.59765625 0.503906,-0.87890625 0.269531,-0.17578125 0.386719,-0.17578125 1.21875,-0.17578125 1.042969,0 2.367188,0 2.367188,1.0546875 0,0.55078121 -0.878907,1.06640621 -2.050782,1.06640621 z m 6.691407,-8.8359375 c 0,-0.3046875 -0.234375,-0.5390625 -0.539063,-0.5390625 -0.292969,0 -0.539062,0.234375 -0.539062,0.5390625 0,0.2929688 0.246093,0.5390625 0.539062,0.5390625 0.304688,0 0.539063,-0.2460937 0.539063,-0.5390625 z m -2.050782,1.6171875 c -0.175781,0 -0.480468,0 -0.480468,0.3515625 0,0.3515625 0.304687,0.3515625 0.480468,0.3515625 h 1.277344 v 3.76171879 h -1.371094 c -0.164062,0 -0.480468,0 -0.480468,0.33984375 0,0.3515625 0.316406,0.3515625 0.480468,0.3515625 h 3.328125 c 0.164063,0 0.480469,0 0.480469,-0.3515625 0,-0.33984375 -0.316406,-0.33984375 -0.480469,-0.33984375 H 52.820477 V -4.6652266 c 0,-0.3632812 -0.07031,-0.4921875 -0.480469,-0.4921875 z m 9.65625,0.703125 h 0.316407 c 0.164062,0 0.492187,0 0.492187,-0.3515625 0,-0.3515625 -0.328125,-0.3515625 -0.492187,-0.3515625 h -1.3125 c -0.164063,0 -0.492188,0 -0.492188,0.3515625 0,0.3515625 0.328125,0.3515625 0.492188,0.3515625 h 0.292968 l -1.289062,3.84375004 -1.289063,-3.84375004 h 0.292969 c 0.175781,0 0.492188,0 0.492188,-0.3515625 0,-0.3515625 -0.316407,-0.3515625 -0.492188,-0.3515625 h -1.3125 c -0.164062,0 -0.492187,0 -0.492187,0.3515625 0,0.3515625 0.328125,0.3515625 0.492187,0.3515625 h 0.316406 l 1.371094,4.10156254 c 0.128906,0.41015625 0.398438,0.41015625 0.621094,0.41015625 0.234375,0 0.492187,0 0.621094,-0.41015625 z m 6.055664,2.15625 c 0.257813,0 0.480469,0 0.480469,-0.4453125 0,-1.3945312 -0.785156,-2.5195312 -2.285156,-2.5195312 -1.382813,0 -2.496094,1.1953125 -2.496094,2.6601562 0,1.5 1.207031,2.67187504 2.683594,2.67187504 1.535156,0 2.097656,-1.06640625 2.097656,-1.37109374 0,-0.070312 -0.02344,-0.3398438 -0.398437,-0.3398438 -0.222657,0 -0.292969,0.082031 -0.363282,0.2695313 -0.304687,0.69140624 -1.078125,0.74999999 -1.300781,0.74999999 -0.996094,0 -1.78125,-0.74999999 -1.921875,-1.67578129 z m -3.492187,-0.65625 c 0.164062,-1.0195312 0.9375,-1.6171875 1.6875,-1.6171875 1.195312,0 1.453125,1.0195313 1.5,1.6171875 z m 9.691406,-1.8515625 c 0,-0.1875 0,-0.4570312 -0.328125,-0.4570312 -0.292969,0 -0.363281,0.28125 -0.363281,0.2929687 -0.480469,-0.2929687 -1.019531,-0.2929687 -1.265625,-0.2929687 -1.945313,0 -2.214844,0.9960937 -2.214844,1.40625 0,0.4804687 0.292969,0.8203125 0.703125,1.0429687 0.375,0.2226563 0.726563,0.28125 1.699219,0.4335938 0.46875,0.082031 1.429687,0.234375 1.429687,0.9023437 0,0.4335938 -0.410156,0.85546879 -1.523437,0.85546879 -0.761719,0 -1.265625,-0.3046875 -1.511719,-1.16015629 -0.05859,-0.1640625 -0.09375,-0.2929687 -0.398437,-0.2929687 -0.398438,0 -0.398438,0.2226562 -0.398438,0.4570312 v 1.23046879 c 0,0.19921875 0,0.45703125 0.339844,0.45703125 0.140625,0 0.246094,0 0.433594,-0.4921875 0.550781,0.45703125 1.171875,0.4921875 1.535156,0.4921875 2.214844,0 2.214844,-1.42968754 2.214844,-1.54687504 0,-1.2539062 -1.476563,-1.5 -2.050782,-1.5820312 -1.054687,-0.1757813 -1.769531,-0.3046875 -1.769531,-0.796875 0,-0.328125 0.363281,-0.7148438 1.488281,-0.7148438 1.136719,0 1.183594,0.5390625 1.207032,0.8554688 0.02344,0.234375 0.246093,0.2695312 0.386718,0.2695312 0.386719,0 0.386719,-0.2109375 0.386719,-0.4570312 z m 9.873047,0.3515625 h 1.945313 c 0.164062,0 0.46875,0 0.46875,-0.3515625 0,-0.3515625 -0.304688,-0.3515625 -0.46875,-0.3515625 h -1.945313 v -0.9726562 c 0,-0.2226563 0,-0.4921875 -0.375,-0.4921875 -0.398437,0 -0.398437,0.2695312 -0.398437,0.4921875 v 0.9726562 h -1.019532 c -0.164062,0 -0.480468,0 -0.480468,0.3515625 0,0.3515625 0.304687,0.3515625 0.46875,0.3515625 h 1.03125 v 3.0117188 c 0,1.10156249 0.761718,1.51171874 1.628906,1.51171874 0.644531,0 1.828125,-0.31640625 1.828125,-1.53515624 0,-0.2460938 0,-0.5039063 -0.398438,-0.5039063 -0.375,0 -0.375,0.2578125 -0.375,0.515625 -0.02344,0.71484379 -0.703125,0.83203129 -0.972656,0.83203129 -0.9375,0 -0.9375,-0.59765629 -0.9375,-0.89062499 z m 8.566406,0.9492188 c 0,-1.171875 -0.550781,-1.7226563 -1.523437,-1.7226563 -0.820313,0 -1.335938,0.4570313 -1.546875,0.6796875 v -2.2617187 c 0,-0.375 -0.07031,-0.4921875 -0.480469,-0.4921875 h -0.785156 c -0.164063,0 -0.480469,0 -0.480469,0.3398437 0,0.3515625 0.316406,0.3515625 0.480469,0.3515625 h 0.492187 v 5.91796879 h -0.492187 c -0.164063,0 -0.480469,0 -0.480469,0.33984375 0,0.3515625 0.316406,0.3515625 0.480469,0.3515625 h 1.757812 c 0.164063,0 0.480469,0 0.480469,-0.3515625 0,-0.33984375 -0.316406,-0.33984375 -0.480469,-0.33984375 H 88.049969 V -2.8605391 c 0,-1.1601562 0.820312,-1.6757812 1.464844,-1.6757812 0.691406,0 0.832031,0.3984375 0.832031,1.078125 v 2.76562499 h -0.492188 c -0.164062,0 -0.480468,0 -0.480468,0.33984375 0,0.3515625 0.316406,0.3515625 0.480468,0.3515625 h 1.757813 c 0.164062,0 0.480469,0 0.480469,-0.3515625 0,-0.33984375 -0.316407,-0.33984375 -0.480469,-0.33984375 h -0.492188 z m 6.128907,1.2070312 c 0.257812,0 0.480468,0 0.480468,-0.4453125 0,-1.3945312 -0.785156,-2.5195312 -2.285156,-2.5195312 -1.382812,0 -2.496094,1.1953125 -2.496094,2.6601562 0,1.5 1.207032,2.67187504 2.683594,2.67187504 1.535156,0 2.097656,-1.06640625 2.097656,-1.37109374 0,-0.070312 -0.02344,-0.3398438 -0.398437,-0.3398438 -0.222656,0 -0.292969,0.082031 -0.363281,0.2695313 -0.304688,0.69140624 -1.078125,0.74999999 -1.300782,0.74999999 -0.996093,0 -1.78125,-0.74999999 -1.921875,-1.67578129 z M 93.757,-2.9542891 c 0.164063,-1.0195312 0.9375,-1.6171875 1.6875,-1.6171875 1.195313,0 1.453125,1.0195313 1.5,1.6171875 z m 15.84668,-1.8515625 c 0,-0.1875 0,-0.4570312 -0.32813,-0.4570312 -0.29296,0 -0.36328,0.28125 -0.36328,0.2929687 -0.48047,-0.2929687 -1.01953,-0.2929687 -1.26562,-0.2929687 -1.94531,0 -2.21485,0.9960937 -2.21485,1.40625 0,0.4804687 0.29297,0.8203125 0.70313,1.0429687 0.375,0.2226563 0.72656,0.28125 1.69922,0.4335938 0.46875,0.082031 1.42969,0.234375 1.42969,0.9023437 0,0.4335938 -0.41016,0.85546879 -1.52344,0.85546879 -0.76172,0 -1.26563,-0.3046875 -1.51172,-1.16015629 -0.0586,-0.1640625 -0.0937,-0.2929687 -0.39844,-0.2929687 -0.39844,0 -0.39844,0.2226562 -0.39844,0.4570312 v 1.23046879 c 0,0.19921875 0,0.45703125 0.33985,0.45703125 0.14062,0 0.24609,0 0.43359,-0.4921875 0.55078,0.45703125 1.17188,0.4921875 1.53516,0.4921875 2.21484,0 2.21484,-1.42968754 2.21484,-1.54687504 0,-1.2539062 -1.47656,-1.5 -2.05078,-1.5820312 -1.05469,-0.1757813 -1.76953,-0.3046875 -1.76953,-0.796875 0,-0.328125 0.36328,-0.7148438 1.48828,-0.7148438 1.13672,0 1.18359,0.5390625 1.20703,0.8554688 0.0234,0.234375 0.2461,0.2695312 0.38672,0.2695312 0.38672,0 0.38672,-0.2109375 0.38672,-0.4570312 z m 6.08203,1.40625 c 0,-0.9023437 -0.67969,-1.8632812 -2.29687,-1.8632812 -0.49219,0 -1.65235,0 -1.65235,0.8320312 0,0.3164063 0.22266,0.4921875 0.48047,0.4921875 0.082,0 0.46875,-0.023437 0.48047,-0.515625 0,-0.070312 0.0117,-0.082031 0.26953,-0.1054687 0.14063,-0.011719 0.29297,-0.011719 0.43359,-0.011719 0.28125,0 0.69141,0 1.07813,0.3046875 0.43359,0.328125 0.43359,0.6679688 0.43359,1.0195313 -0.70312,0.023437 -1.39453,0.070312 -2.14453,0.3046875 -0.59765,0.1992187 -1.35937,0.6328125 -1.35937,1.4414062 0,0.85546879 0.75,1.57031254 1.86328,1.57031254 0.38672,0 1.125,-0.05859375 1.74609,-0.4921875 0.2461,0.3984375 0.84375,0.421875 1.28906,0.421875 0.29297,0 0.57422,0 0.57422,-0.3515625 0,-0.33984375 -0.30468,-0.33984375 -0.48047,-0.33984375 -0.30468,0 -0.53906,-0.0234375 -0.71484,-0.09375 z m -0.77344,1.8164063 c 0,0.28125 0,0.5273437 -0.49218,0.76171874 -0.42188,0.19921875 -0.97266,0.19921875 -1.01954,0.19921875 -0.70312,0 -1.21875,-0.38671879 -1.21875,-0.87890629 0,-0.703125 1.28907,-1.1015625 2.73047,-1.1015625 z m 7.38282,-2.0390625 c 0,-0.2695313 0,-1.6054688 -1.05469,-1.6054688 -0.41016,0 -0.82031,0.1992188 -1.14844,0.6328125 -0.0703,-0.1757812 -0.32812,-0.6328125 -0.90234,-0.6328125 -0.53907,0 -0.91407,0.3515625 -1.00782,0.4570313 -0.0117,-0.3867188 -0.25781,-0.3867188 -0.48046,-0.3867188 h -0.35157 c -0.16406,0 -0.48047,0 -0.48047,0.3515625 0,0.3515625 0.26954,0.3515625 0.64454,0.3515625 v 3.76171879 c -0.38672,0 -0.64454,0 -0.64454,0.33984375 0,0.3515625 0.31641,0.3515625 0.48047,0.3515625 h 0.9961 c 0.17578,0 0.48047,0 0.48047,-0.3515625 0,-0.33984375 -0.26954,-0.33984375 -0.64454,-0.33984375 V -2.8956953 c 0,-1.0078125 0.4336,-1.640625 0.96094,-1.640625 0.32813,0 0.4336,0.421875 0.4336,0.984375 v 2.85937499 c -0.21094,0 -0.52735,0 -0.52735,0.33984375 0,0.3515625 0.31641,0.3515625 0.48047,0.3515625 h 0.87891 c 0.16406,0 0.48047,0 0.48047,-0.3515625 0,-0.33984375 -0.28125,-0.33984375 -0.64454,-0.33984375 V -2.8956953 c 0,-1.0078125 0.42188,-1.640625 0.94922,-1.640625 0.33985,0 0.4336,0.421875 0.4336,0.984375 v 2.85937499 c -0.19922,0 -0.52735,0 -0.52735,0.33984375 0,0.3515625 0.32813,0.3515625 0.49219,0.3515625 h 0.86719 c 0.17578,0 0.48047,0 0.48047,-0.3515625 0,-0.33984375 -0.26953,-0.33984375 -0.64453,-0.33984375 z m 5.70703,1.3242187 c 0.25781,0 0.48047,0 0.48047,-0.4453125 0,-1.3945312 -0.78516,-2.5195312 -2.28516,-2.5195312 -1.38281,0 -2.49609,1.1953125 -2.49609,2.6601562 0,1.5 1.20703,2.67187504 2.68359,2.67187504 1.53516,0 2.09766,-1.06640625 2.09766,-1.37109374 0,-0.070312 -0.0234,-0.3398438 -0.39844,-0.3398438 -0.22266,0 -0.29297,0.082031 -0.36328,0.2695313 -0.30469,0.69140624 -1.07813,0.74999999 -1.30078,0.74999999 -0.9961,0 -1.78125,-0.74999999 -1.92188,-1.67578129 z m -3.49219,-0.65625 c 0.16406,-1.0195312 0.9375,-1.6171875 1.6875,-1.6171875 1.19531,0 1.45312,1.0195313 1.5,1.6171875 z m 13.40918,0.6914063 c 0,-1.4179688 1.00781,-2.2734375 2.02734,-2.2734375 0.0586,0 0.12891,0 0.1875,0.011719 0.0352,0.4335938 0.375,0.46875 0.45703,0.46875 0.26954,0 0.46875,-0.1992187 0.46875,-0.46875 0,-0.5039062 -0.5039,-0.703125 -1.10156,-0.703125 -0.80859,0 -1.48828,0.3632813 -2.03906,1.03125 v -0.46875 c 0,-0.3632812 -0.0703,-0.4921875 -0.46875,-0.4921875 h -1.20703 c -0.17578,0 -0.48047,0 -0.48047,0.3515625 0,0.3515625 0.30469,0.3515625 0.48047,0.3515625 h 0.90234 v 3.76171879 h -0.90234 c -0.17578,0 -0.48047,0 -0.48047,0.33984375 0,0.3515625 0.30469,0.3515625 0.48047,0.3515625 h 2.92969 c 0.17578,0 0.48046,0 0.48046,-0.3515625 0,-0.33984375 -0.30468,-0.33984375 -0.48046,-0.33984375 h -1.25391 z m 8.54297,-0.035156 c 0.25781,0 0.48047,0 0.48047,-0.4453125 0,-1.3945312 -0.78516,-2.5195312 -2.28516,-2.5195312 -1.38281,0 -2.49609,1.1953125 -2.49609,2.6601562 0,1.5 1.20703,2.67187504 2.68359,2.67187504 1.53516,0 2.09766,-1.06640625 2.09766,-1.37109374 0,-0.070312 -0.0234,-0.3398438 -0.39844,-0.3398438 -0.22266,0 -0.29297,0.082031 -0.36328,0.2695313 -0.30469,0.69140624 -1.07813,0.74999999 -1.30078,0.74999999 -0.9961,0 -1.78125,-0.74999999 -1.92188,-1.67578129 z m -3.49219,-0.65625 c 0.16406,-1.0195312 0.9375,-1.6171875 1.6875,-1.6171875 1.19531,0 1.45313,1.0195313 1.5,1.6171875 z m 9.69141,-1.8515625 c 0,-0.1875 0,-0.4570312 -0.32813,-0.4570312 -0.29297,0 -0.36328,0.28125 -0.36328,0.2929687 -0.48047,-0.2929687 -1.01953,-0.2929687 -1.26562,-0.2929687 -1.94532,0 -2.21485,0.9960937 -2.21485,1.40625 0,0.4804687 0.29297,0.8203125 0.70313,1.0429687 0.375,0.2226563 0.72656,0.28125 1.69922,0.4335938 0.46875,0.082031 1.42968,0.234375 1.42968,0.9023437 0,0.4335938 -0.41015,0.85546879 -1.52343,0.85546879 -0.76172,0 -1.26563,-0.3046875 -1.51172,-1.16015629 -0.0586,-0.1640625 -0.0937,-0.2929687 -0.39844,-0.2929687 -0.39844,0 -0.39844,0.2226562 -0.39844,0.4570312 v 1.23046879 c 0,0.19921875 0,0.45703125 0.33985,0.45703125 0.14062,0 0.24609,0 0.43359,-0.4921875 0.55078,0.45703125 1.17187,0.4921875 1.53516,0.4921875 2.21484,0 2.21484,-1.42968754 2.21484,-1.54687504 0,-1.2539062 -1.47656,-1.5 -2.05078,-1.5820312 -1.05469,-0.1757813 -1.76953,-0.3046875 -1.76953,-0.796875 0,-0.328125 0.36328,-0.7148438 1.48828,-0.7148438 1.13672,0 1.18359,0.5390625 1.20703,0.8554688 0.0234,0.234375 0.24609,0.2695312 0.38672,0.2695312 0.38672,0 0.38672,-0.2109375 0.38672,-0.4570312 z m 6.1289,0.140625 c 0,-0.3632812 -0.0703,-0.4921875 -0.46875,-0.4921875 h -0.79687 c -0.16406,0 -0.48047,0 -0.48047,0.3515625 0,0.3515625 0.31641,0.3515625 0.48047,0.3515625 h 0.49219 v 2.5898438 c 0,0.98437499 -0.8086,1.24218749 -1.34766,1.24218749 -0.94922,0 -0.94922,-0.43359379 -0.94922,-0.79687499 v -3.2460938 c 0,-0.3632812 -0.0703,-0.4921875 -0.48047,-0.4921875 h -0.78515 c -0.16407,0 -0.48047,0 -0.48047,0.3515625 0,0.3515625 0.3164,0.3515625 0.48047,0.3515625 h 0.49218 v 3.09375 c 0,1.10156254 0.71485,1.42968754 1.64063,1.42968754 0.72656,0 1.18359,-0.29296875 1.41797,-0.50390625 0,0.43359375 0.29297,0.43359375 0.49218,0.43359375 h 0.78516 c 0.16406,0 0.48047,0 0.48047,-0.3515625 0,-0.33984375 -0.31641,-0.33984375 -0.48047,-0.33984375 h -0.49219 z m 4.62891,-2.1445312 c 0,-0.375 -0.0703,-0.4921875 -0.48047,-0.4921875 h -1.75781 c -0.16406,0 -0.48047,0 -0.48047,0.3398437 0,0.3515625 0.31641,0.3515625 0.48047,0.3515625 h 1.46484 v 5.91796879 h -1.46484 c -0.16406,0 -0.48047,0 -0.48047,0.33984375 0,0.3515625 0.31641,0.3515625 0.48047,0.3515625 h 3.6914 c 0.17579,0 0.48047,0 0.48047,-0.3515625 0,-0.33984375 -0.30468,-0.33984375 -0.48047,-0.33984375 h -1.45312 z m 5.26172,2.3554687 h 1.94531 c 0.16406,0 0.46875,0 0.46875,-0.3515625 0,-0.3515625 -0.30469,-0.3515625 -0.46875,-0.3515625 h -1.94531 V -6.13007 c 0,-0.2226563 0,-0.4921875 -0.375,-0.4921875 -0.39844,0 -0.39844,0.2695312 -0.39844,0.4921875 v 0.9726562 h -1.01953 c -0.16406,0 -0.48047,0 -0.48047,0.3515625 0,0.3515625 0.30469,0.3515625 0.46875,0.3515625 h 1.03125 V -1.44257 c 0,1.10156249 0.76172,1.51171874 1.62891,1.51171874 0.64453,0 1.82812,-0.31640625 1.82812,-1.53515624 0,-0.2460938 0,-0.5039063 -0.39844,-0.5039063 -0.375,0 -0.375,0.2578125 -0.375,0.515625 -0.0234,0.71484379 -0.70312,0.83203129 -0.97265,0.83203129 -0.9375,0 -0.9375,-0.59765629 -0.9375,-0.89062499 z M 3.6339531,7.3845781 c 0,-0.1757812 0,-0.4804687 -0.3398437,-0.4804687 -0.2109375,0 -0.28125,0.1054687 -0.3515625,0.2578125 -0.2226563,0.515625 -0.6210938,1.1484375 -1.2539063,1.1953125 -0.1757812,0.011719 -0.4335937,0.035156 -0.4335937,0.3515625 0,0.1992187 0.1171875,0.3398437 0.3867187,0.3398437 0.6679688,0 1.1835938,-0.5039062 1.21875,-0.5273437 V 13.654109 H 1.8058281 c -0.1640625,0 -0.4921875,0 -0.4921875,0.339844 0,0.351563 0.328125,0.351563 0.4921875,0.351563 h 2.8828125 c 0.1640625,0 0.4921875,0 0.4921875,-0.351563 0,-0.339844 -0.328125,-0.339844 -0.4921875,-0.339844 H 3.6339531 Z m 7.6171879,2.5664063 c 0.140625,-0.070312 0.246093,-0.1875 0.246093,-0.3632813 0,-0.2226562 -0.199218,-0.375 -0.375,-0.375 -0.08203,0 -0.175781,0.070312 -0.246093,0.1054688 L 9.5519219,10.138484 c 0,-0.3398434 0.035156,-1.3945309 0.035156,-1.6640621 0,-0.1992188 -0.1757812,-0.3515625 -0.3632812,-0.3515625 -0.1875,0 -0.3515625,0.140625 -0.3515625,0.3515625 0,0.3515625 0,0.4453125 0.011719,0.4570312 0.011719,0.234375 0.023437,0.9257813 0.023437,1.2070309 L 7.5714531,9.3181719 C 7.5011406,9.2830156 7.4073906,9.2127031 7.3253594,9.2127031 c -0.1640625,0 -0.375,0.1523438 -0.375,0.375 0,0.1757813 0.1171875,0.2929688 0.2578125,0.3632813 l 1.3828125,0.7382816 -1.3828125,0.75 c -0.140625,0.07031 -0.2578125,0.175781 -0.2578125,0.363281 0,0.222656 0.2109375,0.363281 0.375,0.363281 0.082031,0 0.1757812,-0.05859 0.2460937,-0.09375 l 1.3359375,-0.820312 -0.011719,0.761718 c -0.023437,0.199219 -0.023437,0.667969 -0.023437,0.902344 0,0.210938 0.1757812,0.351563 0.3515625,0.351563 0.1875,0 0.3632812,-0.152344 0.3632812,-0.351563 0,-0.28125 -0.035156,-1.335937 -0.035156,-1.664062 l 1.1835937,0.726562 c 0.28125,0.1875 0.304687,0.1875 0.386718,0.1875 0.175782,0 0.375,-0.140625 0.375,-0.363281 0,-0.152344 -0.08203,-0.257813 -0.1875,-0.328125 -0.304687,-0.175781 -0.960937,-0.527344 -1.4531242,-0.773438 z m 1.508789,1.5234376 c -0.105469,0.152344 -0.105469,0.175781 -0.105469,0.398437 0,0.421875 0.152344,0.46875 0.46875,0.46875 h 2.929687 v 1.3125 h -0.714843 c -0.164063,0 -0.480469,0 -0.480469,0.339844 0,0.351563 0.316406,0.351563 0.480469,0.351563 h 2.109375 c 0.164062,0 0.46875,0 0.46875,-0.351563 0,-0.339844 -0.304688,-0.339844 -0.46875,-0.339844 h -0.726563 v -1.3125 h 0.902344 c 0.164062,0 0.480469,0 0.480469,-0.351562 0,-0.351563 -0.316407,-0.351563 -0.480469,-0.351563 H 16.720867 V 7.3611406 c 0,-0.3867187 -0.08203,-0.4921875 -0.480469,-0.4921875 h -0.28125 c -0.28125,0 -0.339843,0.023437 -0.492187,0.2460938 z m 0.691406,0.164062 2.601562,-4.1835934 v 4.1835934 z m 14.630859,-0.550781 h 1.699219 c 0.152344,0 0.539063,0 0.539063,-0.386719 0,-0.398437 -0.375,-0.398437 -0.539063,-0.398437 H 28.082195 V 8.5916094 c 0,-0.1523438 0,-0.5390625 -0.386718,-0.5390625 -0.386719,0 -0.386719,0.375 -0.386719,0.5390625 V 10.302547 H 25.59782 c -0.164062,0 -0.539062,0 -0.539062,0.386719 0,0.398437 0.363281,0.398437 0.539062,0.398437 h 1.710938 v 1.699219 c 0,0.164062 0,0.539062 0.375,0.539062 0.398437,0 0.398437,-0.363281 0.398437,-0.539062 z M 41.0695,11.720516 c 0.164063,-0.152344 1.371094,-1.171875 1.371094,-2.5078129 0,-1.359375 -1.125,-2.3085937 -2.613281,-2.3085937 -1.382813,0 -2.308594,1.03125 -2.308594,2.0390625 0,0.5039062 0.421875,0.5390625 0.492187,0.5390625 0.210938,0 0.480469,-0.1640625 0.480469,-0.4921875 0,-0.2226563 -0.08203,-0.2929688 -0.152344,-0.3515625 0.175782,-0.6328125 0.726563,-1.0429688 1.417969,-1.0429688 1.007813,0 1.910156,0.5859375 1.910156,1.6171875 0,0.9374999 -0.703125,1.6523439 -1.347656,2.2148439 l -2.636719,2.285156 c -0.128906,0.105469 -0.164062,0.140625 -0.164062,0.28125 0,0.351563 0.328125,0.351563 0.492187,0.351563 h 4.171875 c 0.257813,-0.07031 0.257813,-0.316407 0.257813,-0.492188 v -0.246094 c 0,-0.222656 0,-0.492187 -0.375,-0.492187 -0.398438,0 -0.398438,0.246094 -0.398438,0.539062 h -2.882812 z m 7.089844,-1.7695316 c 0.140625,-0.070312 0.246094,-0.1875 0.246094,-0.3632813 0,-0.2226562 -0.199219,-0.375 -0.375,-0.375 -0.08203,0 -0.175782,0.070312 -0.246094,0.1054688 l -1.324219,0.8203121 c 0,-0.3398434 0.03516,-1.3945309 0.03516,-1.6640621 0,-0.1992188 -0.175781,-0.3515625 -0.363281,-0.3515625 -0.1875,0 -0.351562,0.140625 -0.351562,0.3515625 0,0.3515625 0,0.4453125 0.01172,0.4570312 0.01172,0.234375 0.02344,0.9257813 0.02344,1.2070309 L 44.479656,9.3181719 c -0.07031,-0.035156 -0.164062,-0.1054688 -0.246093,-0.1054688 -0.164063,0 -0.375,0.1523438 -0.375,0.375 0,0.1757813 0.117187,0.2929688 0.257812,0.3632813 l 1.382813,0.7382816 -1.382813,0.75 c -0.140625,0.07031 -0.257812,0.175781 -0.257812,0.363281 0,0.222656 0.210937,0.363281 0.375,0.363281 0.08203,0 0.175781,-0.05859 0.246093,-0.09375 l 1.335938,-0.820312 -0.01172,0.761718 c -0.02344,0.199219 -0.02344,0.667969 -0.02344,0.902344 0,0.210938 0.175781,0.351563 0.351562,0.351563 0.1875,0 0.363281,-0.152344 0.363281,-0.351563 0,-0.28125 -0.03516,-1.335937 -0.03516,-1.664062 l 1.183594,0.726562 c 0.28125,0.1875 0.304687,0.1875 0.386719,0.1875 0.175781,0 0.375,-0.140625 0.375,-0.363281 0,-0.152344 -0.08203,-0.257813 -0.1875,-0.328125 -0.30468,-0.175781 -0.96093,-0.527344 -1.453117,-0.773438 z m 5.695312,-2.2148438 c 0.164063,0 0.480469,0 0.480469,-0.3515625 0,-0.3398437 -0.316406,-0.3398437 -0.480469,-0.3398437 h -3.105468 c -0.386719,0 -0.480469,0.09375 -0.480469,0.46875 v 3.1874996 c 0,0.164063 0,0.46875 0.351562,0.46875 0.199219,0 0.246094,-0.05859 0.339844,-0.1875 0.363281,-0.410156 0.878906,-0.609375 1.5,-0.609375 0.9375,0 1.511719,0.855469 1.511719,1.699219 0,0.972656 -0.832031,1.722656 -1.839844,1.722656 -0.621094,0 -1.253906,-0.292968 -1.476562,-0.855468 0.05859,-0.04687 0.140625,-0.140625 0.140625,-0.351563 0,-0.316406 -0.28125,-0.492187 -0.480469,-0.492187 -0.105469,0 -0.492188,0.05859 -0.492188,0.527343 0,1.007813 0.996094,1.863282 2.308594,1.863282 1.441406,0 2.613281,-1.078125 2.613281,-2.414063 0,-1.207031 -0.890625,-2.3906249 -2.285156,-2.3906249 -0.386719,0 -0.914062,0.070312 -1.417969,0.3515629 V 7.7361406 Z m 11.138672,3.3515624 h 1.699219 c 0.152344,0 0.539062,0 0.539062,-0.386719 0,-0.398437 -0.375,-0.398437 -0.539062,-0.398437 H 64.993328 V 8.5916094 c 0,-0.1523438 0,-0.5390625 -0.386719,-0.5390625 -0.386718,0 -0.386718,0.375 -0.386718,0.5390625 v 1.7109376 h -1.710938 c -0.164062,0 -0.539062,0 -0.539062,0.386719 0,0.398437 0.363281,0.398437 0.539062,0.398437 h 1.710938 v 1.699219 c 0,0.164062 0,0.539062 0.375,0.539062 0.398437,0 0.398437,-0.363281 0.398437,-0.539062 z M 76.87907,10.747859 c 1.242188,0 1.792969,0.867188 1.792969,1.523438 0,0.785156 -0.691406,1.523437 -1.746094,1.523437 -1.195312,0 -1.734375,-0.644531 -1.734375,-0.808593 0,-0.02344 0.01172,-0.04687 0.02344,-0.05859 0.04687,-0.09375 0.08203,-0.1875 0.08203,-0.292969 0,-0.246094 -0.1875,-0.480469 -0.46875,-0.480469 -0.257812,0 -0.492187,0.164063 -0.492187,0.527344 0,1.042969 1.136718,1.804688 2.589843,1.804688 1.511719,0 2.519532,-1.078125 2.519532,-2.203125 0,-0.609375 -0.328125,-1.464844 -1.382813,-1.921875 0.726563,-0.4453129 1.054688,-1.1718754 1.054688,-1.7929691 0,-0.890625 -0.902344,-1.6640625 -2.191407,-1.6640625 -1.324218,0 -2.261718,0.5625 -2.261718,1.453125 0,0.3984375 0.304687,0.515625 0.492187,0.515625 0.222656,0 0.480469,-0.1640625 0.480469,-0.4921875 0,-0.1875 -0.09375,-0.2929688 -0.09375,-0.3164063 0.351562,-0.4453125 1.183594,-0.46875 1.382812,-0.46875 0.820313,0 1.417969,0.421875 1.417969,0.984375 0,0.3515625 -0.234375,1.3476563 -1.488281,1.4296874 -0.445313,0.02344 -0.632813,0.04687 -0.679688,0.04687 -0.234375,0.02344 -0.304687,0.175781 -0.304687,0.339844 0,0.351562 0.257812,0.351562 0.457031,0.351562 z m 8.191407,-0.7968746 c 0.140625,-0.070312 0.246093,-0.1875 0.246093,-0.3632813 0,-0.2226562 -0.199218,-0.375 -0.375,-0.375 -0.08203,0 -0.175781,0.070312 -0.246093,0.1054688 l -1.324219,0.8203121 c 0,-0.3398434 0.03516,-1.3945309 0.03516,-1.6640621 0,-0.1992188 -0.175781,-0.3515625 -0.363281,-0.3515625 -0.1875,0 -0.351563,0.140625 -0.351563,0.3515625 0,0.3515625 0,0.4453125 0.01172,0.4570312 0.01172,0.234375 0.02344,0.9257813 0.02344,1.2070309 L 81.390789,9.3181719 c -0.07031,-0.035156 -0.164062,-0.1054688 -0.246094,-0.1054688 -0.164062,0 -0.375,0.1523438 -0.375,0.375 0,0.1757813 0.117188,0.2929688 0.257813,0.3632813 l 1.382812,0.7382816 -1.382812,0.75 c -0.140625,0.07031 -0.257813,0.175781 -0.257813,0.363281 0,0.222656 0.210938,0.363281 0.375,0.363281 0.08203,0 0.175782,-0.05859 0.246094,-0.09375 l 1.335938,-0.820312 -0.01172,0.761718 c -0.02344,0.199219 -0.02344,0.667969 -0.02344,0.902344 0,0.210938 0.175782,0.351563 0.351563,0.351563 0.1875,0 0.363281,-0.152344 0.363281,-0.351563 0,-0.28125 -0.03516,-1.335937 -0.03516,-1.664062 l 1.183594,0.726562 c 0.28125,0.1875 0.304687,0.1875 0.386718,0.1875 0.175782,0 0.375,-0.140625 0.375,-0.363281 0,-0.152344 -0.08203,-0.257813 -0.1875,-0.328125 -0.304687,-0.175781 -0.960937,-0.527344 -1.453125,-0.773438 z m 2.472656,0.4101566 c 0.128906,-1.5703129 1.160156,-2.7656254 2.332031,-2.7656254 0.246094,0 0.515625,0.035156 0.691406,0.2226563 -0.04687,0.058594 -0.09375,0.1171875 -0.09375,0.3046875 0,0.2226562 0.175782,0.46875 0.480469,0.46875 0.316406,0 0.492188,-0.2226563 0.492188,-0.4921875 0,-0.6445313 -0.492188,-1.1953125 -1.558594,-1.1953125 -1.558594,0 -3.128906,1.453125 -3.128906,3.8671876 0,2.882812 1.324218,3.714844 2.460937,3.714844 1.277344,0 2.414063,-1.007813 2.414063,-2.449219 0,-1.394531 -1.042969,-2.4492189 -2.285157,-2.4492189 -0.609375,0 -1.289062,0.2226563 -1.804687,0.7734379 z m 1.675781,3.433593 c -1.277344,0 -1.535156,-1.628906 -1.535156,-1.640625 0,-0.01172 0.01172,-0.07031 0.01172,-0.105468 0,-0.07031 -0.04687,-0.222657 -0.04687,-0.363282 0,-0.703125 0.644531,-1.394531 1.617187,-1.394531 0.9375,0 1.59375,0.808594 1.59375,1.746094 0,1.042969 -0.773437,1.757812 -1.640625,1.757812 z m 14.408206,-3.621093 c 0.15234,0 0.51562,0 0.51562,-0.3867191 0,-0.3867188 -0.39844,-0.3867188 -0.57422,-0.3867188 h -4.113278 c -0.1875,0 -0.574219,0 -0.574219,0.3867188 0,0.3867191 0.363282,0.3867191 0.515625,0.3867191 z m -0.0586,1.816406 c 0.17578,0 0.57422,0 0.57422,-0.398438 0,-0.375 -0.375,-0.375 -0.51562,-0.375 h -4.230472 c -0.164062,0 -0.515625,0 -0.515625,0.375 0,0.398438 0.386719,0.398438 0.574219,0.398438 z m 10.22168,-1.242188 c 1.24219,0 1.79297,0.867188 1.79297,1.523438 0,0.785156 -0.6914,1.523437 -1.74609,1.523437 -1.19531,0 -1.73438,-0.644531 -1.73438,-0.808593 0,-0.02344 0.0117,-0.04687 0.0234,-0.05859 0.0469,-0.09375 0.082,-0.1875 0.082,-0.292969 0,-0.246094 -0.1875,-0.480469 -0.46875,-0.480469 -0.25781,0 -0.49219,0.164063 -0.49219,0.527344 0,1.042969 1.13672,1.804688 2.58985,1.804688 1.51172,0 2.51953,-1.078125 2.51953,-2.203125 0,-0.609375 -0.32813,-1.464844 -1.38281,-1.921875 0.72656,-0.4453129 1.05468,-1.1718754 1.05468,-1.7929691 0,-0.890625 -0.90234,-1.6640625 -2.1914,-1.6640625 -1.32422,0 -2.26172,0.5625 -2.26172,1.453125 0,0.3984375 0.30469,0.515625 0.49219,0.515625 0.22265,0 0.48047,-0.1640625 0.48047,-0.4921875 0,-0.1875 -0.0937,-0.2929688 -0.0937,-0.3164063 0.35156,-0.4453125 1.18359,-0.46875 1.38281,-0.46875 0.82031,0 1.41797,0.421875 1.41797,0.984375 0,0.3515625 -0.23438,1.3476563 -1.48828,1.4296874 -0.44532,0.02344 -0.63282,0.04687 -0.67969,0.04687 -0.23438,0.02344 -0.30469,0.175781 -0.30469,0.339844 0,0.351562 0.25781,0.351562 0.45703,0.351562 z m 7.25391,0.972657 c 0.16406,-0.152344 1.37109,-1.171875 1.37109,-2.5078129 0,-1.359375 -1.125,-2.3085937 -2.61328,-2.3085937 -1.38281,0 -2.30859,1.03125 -2.30859,2.0390625 0,0.5039062 0.42187,0.5390625 0.49219,0.5390625 0.21093,0 0.48046,-0.1640625 0.48046,-0.4921875 0,-0.2226563 -0.082,-0.2929688 -0.15234,-0.3515625 0.17578,-0.6328125 0.72656,-1.0429688 1.41797,-1.0429688 1.00781,0 1.91016,0.5859375 1.91016,1.6171875 0,0.9374999 -0.70313,1.6523439 -1.34766,2.2148439 l -2.63672,2.285156 c -0.12891,0.105469 -0.16406,0.140625 -0.16406,0.28125 0,0.351563 0.32812,0.351563 0.49219,0.351563 h 4.17187 c 0.25781,-0.07031 0.25781,-0.316407 0.25781,-0.492188 v -0.246094 c 0,-0.222656 0,-0.492187 -0.375,-0.492187 -0.39843,0 -0.39843,0.246094 -0.39843,0.539062 h -2.88282 z m 0,0"
       style="fill:#000000;fill-opacity:1;fill-rule:nonzero;stroke:none"
       aria-label="np.dotgivesthesameresult&#10;1*4+2*5+3*6=32"
       transform="matrix(1.3333333,0,0,1.3333333,230.99067,165.67733)" />
  </g>
</svg>
