<?xml version="1.0" encoding="UTF-8" standalone="no"?>
<!-- Created with Inkscape (http://www.inkscape.org/) -->

<svg
   version="1.1"
   id="svg1"
   width="680.3147"
   height="167.51199"
   viewBox="0 0 680.3147 167.51199"
   sodipodi:docname="18_dot_matrix_product.pdf"
   xmlns:inkscape="http://www.inkscape.org/namespaces/inkscape"
   xmlns:sodipodi="http://sodipodi.sourceforge.net/DTD/sodipodi-0.dtd"
   xmlns="http://www.w3.org/2000/svg"
   xmlns:svg="http://www.w3.org/2000/svg">
  <defs
     id="defs1" />
  <sodipodi:namedview
     id="namedview1"
     pagecolor="#ffffff"
     bordercolor="#000000"
     borderopacity="0.25"
     inkscape:showpageshadow="2"
     inkscape:pageopacity="0.0"
     inkscape:pagecheckerboard="0"
     inkscape:deskcolor="#d1d1d1">
    <inkscape:page
       x="0"
       y="0"
       inkscape:label="1"
       id="page1"
       width="680.3147"
       height="167.51199"
       margin="0"
       bleed="0" />
  </sodipodi:namedview>
  <g
     id="g1"
     inkscape:groupmode="layer"
     inkscape:label="1">
    <path
       id="path1"
       d="m -144.56862,-1.5e-4 h 22.67743 v 22.67743 h -22.67743 z"
       style="fill:none;stroke:#000000;stroke-width:0.3985;stroke-linecap:butt;stroke-linejoin:miter;stroke-miterlimit:10;stroke-dasharray:none;stroke-opacity:1"
       transform="matrix(1.3333333,0,0,-1.3333333,381.732,82.428)" />
    <path
       id="path2"
       d="m 3.4438672,-7.6640781 c 0,-0.2695313 0,-0.28125 -0.2460938,-0.28125 -0.28125,0.3164062 -0.8789062,0.7617187 -2.109375,0.7617187 v 0.3515625 c 0.2695313,0 0.8671875,0 1.5234375,-0.3164062 v 6.22265622 c 0,0.43359375 -0.035156,0.57421875 -1.078125,0.57421875 h -0.375 V -1.5625e-5 c 0.3164063,-0.023437505 1.4765625,-0.023437505 1.875,-0.023437505 0.3984375,0 1.546875,0 1.8632813,0.023437505 V -0.35157813 H 4.5337109 c -1.0546875,0 -1.0898437,-0.140625 -1.0898437,-0.57421875 z m 0,0"
       style="fill:#000000;fill-opacity:1;fill-rule:nonzero;stroke:none"
       aria-label="1"
       transform="matrix(1.3333333,0,0,1.3333333,200.19333,72.445333)" />
    <path
       id="path3"
       d="m -121.89108,-1.5e-4 h 22.67743 v 22.67743 h -22.67743 z"
       style="fill:none;stroke:#000000;stroke-width:0.3985;stroke-linecap:butt;stroke-linejoin:miter;stroke-miterlimit:10;stroke-dasharray:none;stroke-opacity:1"
       transform="matrix(1.3333333,0,0,-1.3333333,381.732,82.428)" />
    <path
       id="path4"
       d="M 5.2619844,-2.0039219 H 4.9924531 c -0.035156,0.1992188 -0.1289062,0.8554688 -0.2460937,1.04296877 -0.082031,0.1171875 -0.7617188,0.1171875 -1.125,0.1171875 H 1.4065156 c 0.328125,-0.28124997 1.0546875,-1.04296877 1.3710938,-1.33593747 1.8164062,-1.6640625 2.484375,-2.2851563 2.484375,-3.46875 0,-1.3828125 -1.0898438,-2.296875 -2.4726563,-2.296875 -1.3945312,0 -2.20312498,1.1835937 -2.20312498,2.203125 0,0.609375 0.52734378,0.609375 0.56249998,0.609375 0.2460938,0 0.5625,-0.1757813 0.5625,-0.5625 0,-0.328125 -0.234375,-0.5507813 -0.5625,-0.5507813 -0.1054687,0 -0.1289062,0 -0.16406248,0.011719 0.22265628,-0.8203125 0.86718748,-1.3710938 1.64062498,-1.3710938 1.0195313,0 1.640625,0.8554688 1.640625,1.9570313 0,1.0078125 -0.5859375,1.8984375 -1.265625,2.6601562 L 0.58620312,-0.28126563 V -1.5625e-5 H 4.9455781 Z m 0,0"
       style="fill:#000000;fill-opacity:1;fill-rule:nonzero;stroke:none"
       aria-label="2"
       transform="matrix(1.3333333,0,0,1.3333333,230.42933,72.445333)" />
    <path
       id="path5"
       d="m -144.56862,-22.67767 h 22.67743 V -2.4e-4 h -22.67743 z"
       style="fill:none;stroke:#000000;stroke-width:0.3985;stroke-linecap:butt;stroke-linejoin:miter;stroke-miterlimit:10;stroke-dasharray:none;stroke-opacity:1"
       transform="matrix(1.3333333,0,0,-1.3333333,381.732,82.428)" />
    <path
       id="path6"
       d="m 2.2016797,-4.2883672 c -0.2109375,0.011719 -0.2578125,0.023437 -0.2578125,0.1289063 0,0.1171875 0.058594,0.1171875 0.28125,0.1171875 h 0.5507812 c 1.0078125,0 1.4648438,0.84375 1.4648438,1.9921875 0,1.55859371 -0.8085938,1.98046871 -1.3945313,1.98046871 -0.5742187,0 -1.5585937,-0.28125 -1.89843746,-1.06640621 0.37499996,0.058594 0.72656246,-0.1523438 0.72656246,-0.5859375 0,-0.3398438 -0.2578125,-0.5859375 -0.5859375,-0.5859375 -0.29296871,0 -0.59765621,0.1640625 -0.59765621,0.6210937 0,1.06640626 1.06640621,1.93359376 2.39062501,1.93359376 1.4179687,0 2.4726562,-1.078125 2.4726562,-2.28515626 0,-1.1015625 -0.890625,-1.96875 -2.0273437,-2.1679687 1.03125,-0.3046875 1.6992187,-1.171875 1.6992187,-2.109375 0,-0.9375 -0.9726562,-1.6289063 -2.1328125,-1.6289063 -1.1953125,0 -2.08593746,0.7265625 -2.08593746,1.59375 0,0.4804688 0.37499996,0.5742188 0.55078126,0.5742188 0.2578125,0 0.5390625,-0.1757813 0.5390625,-0.5390625 0,-0.375 -0.28125,-0.5390625 -0.5507813,-0.5390625 -0.070312,0 -0.09375,0 -0.1289062,0.011719 0.4570312,-0.8203125 1.5820312,-0.8203125 1.640625,-0.8203125 0.3867187,0 1.171875,0.1757813 1.171875,1.3476563 0,0.234375 -0.035156,0.9023437 -0.3867188,1.4179687 -0.3515625,0.5273438 -0.7617187,0.5625 -1.0898437,0.5742188 z m 0,0"
       style="fill:#000000;fill-opacity:1;fill-rule:nonzero;stroke:none"
       aria-label="3"
       transform="matrix(1.3333333,0,0,1.3333333,200.19333,102.68267)" />
    <path
       id="path7"
       d="m -121.89108,-22.67767 h 22.67743 V -2.4e-4 h -22.67743 z"
       style="fill:none;stroke:#000000;stroke-width:0.3985;stroke-linecap:butt;stroke-linejoin:miter;stroke-miterlimit:10;stroke-dasharray:none;stroke-opacity:1"
       transform="matrix(1.3333333,0,0,-1.3333333,381.732,82.428)" />
    <path
       id="path8"
       d="m 4.3127656,-7.7805547 c 0,-0.2226562 0,-0.2929687 -0.1640625,-0.2929687 -0.09375,0 -0.1289062,0 -0.2226562,0.1523437 l -3.59765628,5.578125 v 0.3515625 H 3.4690156 v 1.07812501 c 0,0.4453125 -0.023437,0.5625 -0.9023437,0.5625 H 2.3322969 V 6.953125e-4 C 2.6018281,-0.02274219 3.5510469,-0.02274219 3.8908906,-0.02274219 c 0.328125,0 1.2890625,0 1.5585938,0.0234375025 V -0.35086719 h -0.234375 c -0.8671875,0 -0.9023438,-0.1171875 -0.9023438,-0.5625 V -1.9914922 H 5.5197969 V -2.3430547 H 4.3127656 Z m -0.7851562,0.9375 v 4.5 H 0.62135937 Z m 0,0"
       style="fill:#000000;fill-opacity:1;fill-rule:nonzero;stroke:none"
       aria-label="4"
       transform="matrix(1.3333333,0,0,1.3333333,230.42933,102.68267)" />
    <path
       id="path9"
       d="m 3.6806484,-7.0435781 c -0.09375,-0.4335938 -0.328125,-0.4335938 -0.609375,-0.4335938 -0.3632812,0 -0.515625,0.058594 -0.5976562,0.4335938 l -1.47656251,6.35156247 c -0.3984375,0 -0.66796875,0 -0.66796875,0.33984375 0,0.351562505 0.31640625,0.351562505 0.48046875,0.351562505 H 1.9579922 c 0.1757812,0 0.4921875,0 0.4921875,-0.351562505 0,-0.33984375 -0.28125,-0.33984375 -0.65625,-0.33984375 L 2.1103359,-2.0279531 h 1.9335938 l 0.3046875,1.33593747 c -0.3632813,0 -0.65625,0 -0.65625,0.33984375 0,0.351562505 0.328125,0.351562505 0.4921875,0.351562505 h 1.1484375 c 0.1640625,0 0.4921875,0 0.4921875,-0.351562505 0,-0.33984375 -0.28125,-0.33984375 -0.6679688,-0.33984375 z m -1.4179687,4.3125 c 0.082031,-0.3515625 0.7382812,-3.1757813 0.796875,-3.75 h 0.011719 c 0.035156,0.28125 0.1992188,1.0078125 0.1992188,1.0195312 l 0.6210937,2.7304688 z M -25.745133,9.5413828 c 0,-0.1875 0,-0.4570312 -0.328125,-0.4570312 -0.292969,0 -0.363281,0.28125 -0.363281,0.2929687 -0.480469,-0.2929687 -1.019531,-0.2929687 -1.265625,-0.2929687 -1.945313,0 -2.214844,0.9960934 -2.214844,1.4062504 0,0.480468 0.292969,0.820312 0.703125,1.042968 0.375,0.222657 0.726563,0.28125 1.699219,0.433594 0.46875,0.08203 1.429687,0.234375 1.429687,0.902344 0,0.433594 -0.410156,0.855469 -1.523437,0.855469 -0.761719,0 -1.265625,-0.304688 -1.511719,-1.160157 -0.05859,-0.164062 -0.09375,-0.292968 -0.398437,-0.292968 -0.398438,0 -0.398438,0.222656 -0.398438,0.457031 v 1.230469 c 0,0.199218 0,0.457031 0.339844,0.457031 0.140625,0 0.246094,0 0.433594,-0.492188 0.550781,0.457032 1.171875,0.492188 1.535156,0.492188 2.214844,0 2.214844,-1.429688 2.214844,-1.546875 0,-1.253906 -1.476563,-1.5 -2.050782,-1.582031 -1.054687,-0.175782 -1.769531,-0.304688 -1.769531,-0.796875 0,-0.328125 0.363281,-0.7148442 1.488281,-0.7148442 1.136719,0 1.183594,0.5390622 1.207032,0.8554692 0.02344,0.234375 0.246093,0.269531 0.386718,0.269531 0.386719,0 0.386719,-0.210938 0.386719,-0.457031 z m 6.128906,1.3007812 c 0,-1.1718749 -0.550781,-1.7226562 -1.523437,-1.7226562 -0.820313,0 -1.335938,0.4570313 -1.546875,0.6796875 V 7.5374766 c 0,-0.375 -0.07031,-0.4921875 -0.480469,-0.4921875 h -0.785156 c -0.164063,0 -0.480469,0 -0.480469,0.3398437 0,0.3515625 0.316406,0.3515625 0.480469,0.3515625 h 0.492187 v 5.9179687 h -0.492187 c -0.164063,0 -0.480469,0 -0.480469,0.339844 0,0.351562 0.316406,0.351562 0.480469,0.351562 h 1.757812 c 0.164063,0 0.480469,0 0.480469,-0.351562 0,-0.339844 -0.316406,-0.339844 -0.480469,-0.339844 h -0.492187 v -2.167969 c 0,-1.160156 0.820312,-1.6757809 1.464844,-1.6757809 0.691406,0 0.832031,0.3984379 0.832031,1.0781249 v 2.765625 h -0.492188 c -0.164062,0 -0.480468,0 -0.480468,0.339844 0,0.351562 0.316406,0.351562 0.480468,0.351562 h 1.757813 c 0.164062,0 0.480469,0 0.480469,-0.351562 0,-0.339844 -0.316407,-0.339844 -0.480469,-0.339844 h -0.492188 z m 6.105469,0.105469 c 0,-0.902344 -0.679687,-1.8632814 -2.296875,-1.8632814 -0.492187,0 -1.652344,0 -1.652344,0.8320312 0,0.3164062 0.222657,0.4921872 0.480469,0.4921872 0.08203,0 0.46875,-0.02344 0.480469,-0.5156247 0,-0.070312 0.01172,-0.082031 0.269531,-0.1054687 0.140625,-0.011719 0.292969,-0.011719 0.433594,-0.011719 0.28125,0 0.691406,0 1.078125,0.3046874 0.433594,0.328125 0.433594,0.667969 0.433594,1.019532 -0.703125,0.02344 -1.394532,0.07031 -2.144532,0.304687 -0.597656,0.199219 -1.359375,0.632813 -1.359375,1.441406 0,0.855469 0.75,1.570313 1.863282,1.570313 0.386718,0 1.125,-0.05859 1.746093,-0.492188 0.246094,0.398438 0.84375,0.421875 1.289063,0.421875 0.292969,0 0.574219,0 0.574219,-0.351562 0,-0.339844 -0.304688,-0.339844 -0.480469,-0.339844 -0.304688,0 -0.539063,-0.02344 -0.714844,-0.09375 z m -0.773437,1.816406 c 0,0.28125 0,0.527344 -0.492188,0.761719 -0.421875,0.199219 -0.972656,0.199219 -1.019531,0.199219 -0.703125,0 -1.21875,-0.386719 -1.21875,-0.878907 0,-0.703125 1.289062,-1.101562 2.730469,-1.101562 z m 4.3945309,4.230469 c 0.1640625,0 0.4804688,0 0.4804688,-0.339844 0,-0.351562 -0.3164063,-0.351562 -0.4804688,-0.351562 h -0.4921879 v -2.554688 c 0.292969,0.328125 0.7265629,0.667969 1.4062504,0.667969 1.265625,0 2.3789063,-1.136719 2.3789063,-2.648438 0,-1.476562 -1.0078125,-2.6484372 -2.25,-2.6484372 -0.8789063,0 -1.4296877,0.5273438 -1.5351567,0.6445313 0,-0.3867188 0,-0.5742188 -0.480468,-0.5742188 h -0.785157 c -0.164062,0 -0.480468,0 -0.480468,0.3515625 0,0.3515625 0.316406,0.3515625 0.480468,0.3515625 h 0.492188 v 6.4101567 h -0.492188 c -0.164062,0 -0.480468,0 -0.480468,0.351562 0,0.339844 0.316406,0.339844 0.480468,0.339844 z m -0.4921879,-5.824219 c 0,-0.679687 0.6679692,-1.3593749 1.4531254,-1.3593749 0.8554688,0 1.546875,0.8789059 1.546875,1.9570309 0,1.148438 -0.8085937,1.957032 -1.6640625,1.957032 -0.890625,0 -1.3359379,-1.019532 -1.3359379,-1.617188 z m 9.1992192,0.878906 c 0.25781249,0 0.48046874,0 0.48046874,-0.445312 0,-1.394531 -0.78515624,-2.5195314 -2.28515624,-2.5195314 -1.3828125,0 -2.4960938,1.1953124 -2.4960938,2.6601564 0,1.5 1.2070313,2.671875 2.6835938,2.671875 1.5351562,0 2.09765624,-1.066406 2.09765624,-1.371094 0,-0.07031 -0.0234375,-0.339844 -0.39843754,-0.339844 -0.2226562,0 -0.2929687,0.08203 -0.3632812,0.269532 -0.3046875,0.691406 -1.078125,0.75 -1.3007813,0.75 -0.9960937,0 -1.78125,-0.75 -1.921875,-1.675782 z m -3.4921875,-0.65625 c 0.1640625,-1.019531 0.9375,-1.6171872 1.6875,-1.6171872 1.1953125,0 1.453125,1.0195312 1.5,1.6171872 z m 9.8671875,-1.21875 c 0.1523437,0 0.515625,0 0.515625,-0.3867184 0,-0.3867188 -0.3984375,-0.3867188 -0.5742188,-0.3867188 H 1.0204922 c -0.18750001,0 -0.57421876,0 -0.57421876,0.3867188 0,0.3867184 0.36328125,0.3867184 0.515625,0.3867184 z m -0.058594,1.816407 c 0.1757813,0 0.5742188,0 0.5742188,-0.398438 0,-0.375 -0.375,-0.375 -0.515625,-0.375 H 0.96189844 c -0.1640625,0 -0.515625,0 -0.515625,0.375 0,0.398438 0.38671875,0.398438 0.57421876,0.398438 z m 6.1406248,3.035156 c 0,-0.152344 -0.09375,-0.199219 -0.257812,-0.316406 -1.652344,-1.136719 -2.0507815,-2.847657 -2.0507815,-4.007813 0,-1.1367187 0.375,-2.8593749 2.0507815,-4.0195312 0.164062,-0.1171875 0.257812,-0.1640625 0.257812,-0.3164062 0,-0.1289063 -0.07031,-0.3164063 -0.351562,-0.3164063 -0.304688,0 -1.183594,0.6914063 -1.7343753,1.4765625 -0.6679687,0.9257813 -1.0078125,2.0390625 -1.0078125,3.1757812 0,1.324219 0.4804688,2.4375 0.984375,3.140625 0.5507813,0.761719 1.4179688,1.5 1.7578128,1.5 0.28125,0 0.351562,-0.210937 0.351562,-0.316406 z m 5.191407,-3.304688 c 0.164062,-0.152343 1.371093,-1.171875 1.371093,-2.5078122 0,-1.359375 -1.125,-2.3085937 -2.613281,-2.3085937 -1.382812,0 -2.308594,1.03125 -2.308594,2.0390625 0,0.5039062 0.421875,0.5390625 0.492188,0.5390625 0.210937,0 0.480469,-0.1640625 0.480469,-0.4921875 0,-0.2226563 -0.08203,-0.2929688 -0.152344,-0.3515625 0.175781,-0.6328125 0.726562,-1.0429688 1.417969,-1.0429688 1.007812,0 1.910156,0.5859375 1.910156,1.6171875 0,0.9375002 -0.703125,1.6523442 -1.347656,2.2148442 l -2.636719,2.285156 c -0.128906,0.105469 -0.164063,0.140625 -0.164063,0.28125 0,0.351562 0.328125,0.351562 0.492188,0.351562 h 4.171875 c 0.257812,-0.07031 0.257812,-0.316406 0.257812,-0.492187 v -0.246094 c 0,-0.222656 0,-0.492187 -0.375,-0.492187 -0.398437,0 -0.398437,0.246093 -0.398437,0.539062 h -2.882813 z m 5.296875,2.589844 c -0.07031,0.375 -0.304688,0.820313 -0.890625,1.03125 -0.105469,0.02344 -0.28125,0.08203 -0.28125,0.304688 0,0.152343 0.175781,0.363281 0.363281,0.363281 0.328125,0 1.511719,-0.585938 1.511719,-1.875 0,-0.632813 -0.398438,-1.136719 -0.925782,-1.136719 -0.445312,0 -0.679687,0.339844 -0.679687,0.667969 0,0.398437 0.304687,0.679687 0.667969,0.679687 0.07031,0 0.152343,-0.01172 0.234375,-0.03516 z m 7.007812,-2.589844 c 0.164063,-0.152343 1.371094,-1.171875 1.371094,-2.5078122 0,-1.359375 -1.125,-2.3085937 -2.613281,-2.3085937 -1.382813,0 -2.308594,1.03125 -2.308594,2.0390625 0,0.5039062 0.421875,0.5390625 0.492187,0.5390625 0.210938,0 0.480469,-0.1640625 0.480469,-0.4921875 0,-0.2226563 -0.08203,-0.2929688 -0.152344,-0.3515625 0.175782,-0.6328125 0.726563,-1.0429688 1.417969,-1.0429688 1.007813,0 1.910156,0.5859375 1.910156,1.6171875 0,0.9375002 -0.703125,1.6523442 -1.347656,2.2148442 l -2.636719,2.285156 c -0.128906,0.105469 -0.164062,0.140625 -0.164062,0.28125 0,0.351562 0.328125,0.351562 0.492187,0.351562 h 4.171875 c 0.257813,-0.07031 0.257813,-0.316406 0.257813,-0.492187 v -0.246094 c 0,-0.222656 0,-0.492187 -0.375,-0.492187 -0.398438,0 -0.398438,0.246093 -0.398438,0.539062 h -2.882812 z m 6.105469,-1.019531 c 0,-0.9374999 -0.222656,-2.1445312 -1.089844,-3.3046874 -0.410156,-0.5507813 -1.289062,-1.3476563 -1.652344,-1.3476563 -0.269531,0 -0.339843,0.1992188 -0.339843,0.3164063 0,0.140625 0.08203,0.1992187 0.292968,0.3398437 1.464844,1.03125 2.015625,2.6367188 2.015625,3.9843747 0,1.078125 -0.351562,2.835938 -2.0625,4.019532 -0.152343,0.105468 -0.246093,0.164062 -0.246093,0.316406 0,0.105469 0.07031,0.316406 0.339843,0.316406 0.304688,0 1.183594,-0.691406 1.734375,-1.476562 0.691407,-0.972657 1.007813,-2.097657 1.007813,-3.164063 z m 0,0"
       style="fill:#000000;fill-opacity:1;fill-rule:nonzero;stroke:none"
       aria-label="A&#10;shape=(2,2)"
       transform="matrix(1.3333333,0,0,1.3333333,215.112,20.368)" />
    <path
       id="path10"
       d="M 4.7006172,-5.7786875 C 4.5482734,-5.8841562 4.2553047,-6.0247812 3.9388984,-6.0247812 c -0.9492187,0 -1.7109375,1.03125 -1.7109375,2.3671875 0,1.40625 0.8085938,2.3789062 1.6992188,2.3789062 0.5859375,0 1.6992187,-0.515625 1.6992187,-2.5546875 0,-0.8085937 0,-3.5390625 -2.0625,-3.5390625 -1.5820312,0 -3.04687496,1.546875 -3.04687496,3.7148438 0,2.1445312 1.42968746,3.72656245 3.07031246,3.72656245 1.125,0 2.0390625,-0.7265625 2.0390625,-1.01953125 0,-0.3046875 -0.2929687,-0.3046875 -0.4101562,-0.3046875 -0.1875,0 -0.234375,0 -0.3515625,0.1054688 -0.4101563,0.39843745 -0.8554688,0.5273437 -1.2773438,0.5273437 -1.2773437,0 -2.4023437,-1.3007812 -2.4023437,-3.0234375 0,-1.7929687 1.171875,-3.0351562 2.390625,-3.0351562 0.3515625,0 0.84375,0.1289062 1.125,0.9023437 z m -0.7617188,3.8085938 c -0.5507812,0 -1.0429687,-0.75 -1.0429687,-1.6757813 0,-1.0078125 0.5390625,-1.6875 1.03125,-1.6875 0.5390625,0 1.03125,0.7382813 1.03125,1.6757813 0,1.0078125 -0.5390625,1.6875 -1.0195313,1.6875 z m 0,0"
       style="fill:#000000;fill-opacity:1;fill-rule:nonzero;stroke:none"
       aria-label="@"
       transform="matrix(1.3333333,0,0,1.3333333,283.14267,87.298667)" />
    <path
       id="path11"
       d="m -53.85892,-1.5e-4 h 22.67743 v 22.67743 h -22.67743 z"
       style="fill:none;stroke:#000000;stroke-width:0.3985;stroke-linecap:butt;stroke-linejoin:miter;stroke-miterlimit:10;stroke-dasharray:none;stroke-opacity:1"
       transform="matrix(1.3333333,0,0,-1.3333333,381.732,82.428)" />
    <path
       id="path12"
       d="m 1.5346953,-6.8437656 c 0.5039063,0.1640625 0.9257813,0.1757812 1.0546875,0.1757812 1.359375,0 2.2148438,-0.9960937 2.2148438,-1.1601562 0,-0.046875 -0.023437,-0.1054688 -0.09375,-0.1054688 -0.023437,0 -0.046875,0 -0.1523438,0.046875 -0.6679687,0.28125 -1.2421875,0.3164063 -1.5585937,0.3164063 -0.7851563,0 -1.3476563,-0.234375 -1.5820313,-0.328125 -0.082031,-0.035156 -0.1054687,-0.035156 -0.1171875,-0.035156 -0.09375,0 -0.09375,0.070312 -0.09375,0.2578125 v 3.5507813 c 0,0.2109375 0,0.2929687 0.140625,0.2929687 0.058594,0 0.070312,-0.011719 0.1992188,-0.1640625 0.328125,-0.4921875 0.890625,-0.7734375 1.4882812,-0.7734375 0.6328125,0 0.9492188,0.5859375 1.0429688,0.7851563 0.1992187,0.46875 0.2109375,1.0546875 0.2109375,1.5117187 0,0.4570313 0,1.1367188 -0.328125,1.67578127 -0.2695313,0.421875 -0.7382813,0.7265625 -1.2539063,0.7265625 -0.796875,0 -1.5703125,-0.5390625 -1.78124999,-1.40624997 0.0585938,0.023437 0.12890629,0.035156 0.18749999,0.035156 0.1992188,0 0.5273438,-0.1289062 0.5273438,-0.5273437 0,-0.3398438 -0.234375,-0.5273438 -0.5273438,-0.5273438 -0.21093749,0 -0.52734374,0.1054688 -0.52734374,0.5742188 0,1.00781247 0.80859374,2.16796872 2.14453124,2.16796872 1.3476563,0 2.53125,-1.125 2.53125,-2.64843752 0,-1.4179687 -0.9609375,-2.6015625 -2.2148437,-2.6015625 -0.6796875,0 -1.2070313,0.2929688 -1.5117188,0.6328125 z m 0,0"
       style="fill:#000000;fill-opacity:1;fill-rule:nonzero;stroke:none"
       aria-label="5"
       transform="matrix(1.3333333,0,0,1.3333333,321.13733,72.445333)" />
    <path
       id="path13"
       d="M -31.18138,-1.5e-4 H -8.50395 V 22.67728 H -31.18138 Z"
       style="fill:none;stroke:#000000;stroke-width:0.3985;stroke-linecap:butt;stroke-linejoin:miter;stroke-miterlimit:10;stroke-dasharray:none;stroke-opacity:1"
       transform="matrix(1.3333333,0,0,-1.3333333,381.732,82.428)" />
    <path
       id="path14"
       d="m 1.4660938,-4.1601719 c 0,-3.0234375 1.4765625,-3.5039062 2.1210937,-3.5039062 0.4335938,0 0.8554688,0.1289062 1.0898438,0.4921875 -0.140625,0 -0.5976563,0 -0.5976563,0.4921875 0,0.2578125 0.1757813,0.4921875 0.4921875,0.4921875 0.2929688,0 0.4921875,-0.1875 0.4921875,-0.5273438 0,-0.6210937 -0.4453125,-1.2304687 -1.4882812,-1.2304687 -1.5117188,0 -3.0820313,1.5351562 -3.0820313,4.171875 0,3.28124997 1.4296875,4.01953122 2.4492188,4.01953122 1.3007812,0 2.4140625,-1.125 2.4140625,-2.68359372 0,-1.59375 -1.1132813,-2.6601563 -2.3085938,-2.6601563 -1.0664062,0 -1.453125,0.9257813 -1.5820312,1.265625 z m 1.4765625,4.08984377 c -0.75,0 -1.1132813,-0.66796875 -1.21875,-0.92578125 C 1.6184375,-1.3007969 1.50125,-1.8867344 1.50125,-2.7304844 c 0,-0.9375 0.421875,-2.1210937 1.5,-2.1210937 0.65625,0 1.0078125,0.4453125 1.1835938,0.84375 0.1875,0.4453125 0.1875,1.0429687 0.1875,1.5585937 0,0.609375 0,1.1484375 -0.2226563,1.60546877 C 3.845,-0.26954688 3.423125,-0.07032813 2.9426563,-0.07032813 Z m 0,0"
       style="fill:#000000;fill-opacity:1;fill-rule:nonzero;stroke:none"
       aria-label="6"
       transform="matrix(1.3333333,0,0,1.3333333,351.37333,72.445333)" />
    <path
       id="path15"
       d="m -53.85892,-22.67767 h 22.67743 V -2.4e-4 h -22.67743 z"
       style="fill:none;stroke:#000000;stroke-width:0.3985;stroke-linecap:butt;stroke-linejoin:miter;stroke-miterlimit:10;stroke-dasharray:none;stroke-opacity:1"
       transform="matrix(1.3333333,0,0,-1.3333333,381.732,82.428)" />
    <path
       id="path16"
       d="m 5.6831328,-7.4172734 v -0.28125 H 2.8003203 c -1.453125,0 -1.4765625,-0.1523438 -1.5234375,-0.3867188 H 1.0190703 l -0.37499999,2.390625 h 0.26953125 c 0.0351563,-0.2109375 0.14062504,-0.9492187 0.29296874,-1.078125 0.09375,-0.070312 0.9960938,-0.070312 1.1601563,-0.070312 h 2.53125 l -1.265625,1.8164063 c -0.3164063,0.4570312 -1.5234375,2.4257812 -1.5234375,4.66406246 0,0.140625 0,0.609375 0.4804687,0.609375 0.5039063,0 0.5039063,-0.45703125 0.5039063,-0.62109375 v -0.59765625 c 0,-1.78124996 0.2929687,-3.16406246 0.8554687,-3.96093746 z m 0,0"
       style="fill:#000000;fill-opacity:1;fill-rule:nonzero;stroke:none"
       aria-label="7"
       transform="matrix(1.3333333,0,0,1.3333333,321.13733,102.68267)" />
    <path
       id="path17"
       d="M -31.18138,-22.67767 H -8.50395 V -2.4e-4 h -22.67743 z"
       style="fill:none;stroke:#000000;stroke-width:0.3985;stroke-linecap:butt;stroke-linejoin:miter;stroke-miterlimit:10;stroke-dasharray:none;stroke-opacity:1"
       transform="matrix(1.3333333,0,0,-1.3333333,381.732,82.428)" />
    <path
       id="path18"
       d="m 3.56375,-4.3118047 c 0.5976563,-0.328125 1.4648438,-0.8789062 1.4648438,-1.875 0,-1.0429687 -0.9960938,-1.7578125 -2.0976563,-1.7578125 -1.1835937,0 -2.12109375,0.8671875 -2.12109375,1.9570313 0,0.4101562 0.12890625,0.8085937 0.45703125,1.21875 0.1289063,0.1523437 0.140625,0.1640625 0.984375,0.75 -1.1601562,0.5390625 -1.7578125,1.3476562 -1.7578125,2.2148437 0,1.26562501 1.2070313,2.05078126 2.4257813,2.05078126 1.3242187,0 2.4375,-0.97265625 2.4375,-2.22656246 0,-1.21875 -0.8554688,-1.7578125 -1.7929688,-2.3320313 z M 1.9348438,-5.3899297 C 1.7825,-5.4953984 1.3020313,-5.8118047 1.3020313,-6.3977422 c 0,-0.7734375 0.8203125,-1.265625 1.6171875,-1.265625 0.8554687,0 1.6289062,0.6210938 1.6289062,1.4882813 0,0.7265625 -0.5273437,1.3125 -1.21875,1.6875 z m 0.5625,1.546875 1.453125,0.9375 c 0.3046875,0.1992188 0.8554687,0.5742188 0.8554687,1.3007813 0,0.91406246 -0.9140625,1.53515621 -1.875,1.53515621 -1.0195312,0 -1.8867187,-0.73828125 -1.8867187,-1.73437501 0,-0.9375 0.6796875,-1.6875 1.453125,-2.0390625 z m 0,0"
       style="fill:#000000;fill-opacity:1;fill-rule:nonzero;stroke:none"
       aria-label="8"
       transform="matrix(1.3333333,0,0,1.3333333,351.37333,102.68267)" />
    <path
       id="path19"
       d="m 0.78417188,-7.3013906 c -0.1640625,0 -0.46875,0 -0.46875,0.3398437 0,0.3515625 0.31640625,0.3515625 0.48046875,0.3515625 H 1.0888594 v 5.91796877 H 0.79589063 c -0.1640625,0 -0.48046875,0 -0.48046875,0.33984375 0,0.351562505 0.31640625,0.351562505 0.46875,0.351562505 H 3.6201094 c 1.3242187,0 2.0273437,-1.054687525 2.0273437,-1.992187525 0,-0.8554687 -0.5859375,-1.6289062 -1.5234375,-1.828125 0.5976563,-0.1992187 1.2773438,-0.7734375 1.2773438,-1.6289062 0,-0.8789063 -0.703125,-1.8515625 -2.015625,-1.8515625 z m 1.07812502,3.1523437 v -2.4609375 h 1.4882812 c 0.984375,0 1.2773438,0.7382813 1.2773438,1.171875 0,0.5625 -0.46875,1.2890625 -1.4765625,1.2890625 z m 0,3.45703127 V -3.4576406 h 1.5703125 c 1.2070312,0 1.4414062,1.03125 1.4414062,1.4414062 0,0.5859375 -0.4570312,1.32421877 -1.5117187,1.32421877 z M -25.744148,9.5413828 c 0,-0.1875 0,-0.4570312 -0.328125,-0.4570312 -0.292969,0 -0.363282,0.28125 -0.363282,0.2929687 -0.480468,-0.2929687 -1.019531,-0.2929687 -1.265625,-0.2929687 -1.945312,0 -2.214843,0.9960934 -2.214843,1.4062504 0,0.480468 0.292968,0.820312 0.703125,1.042968 0.375,0.222657 0.726562,0.28125 1.699218,0.433594 0.46875,0.08203 1.429688,0.234375 1.429688,0.902344 0,0.433594 -0.410156,0.855469 -1.523438,0.855469 -0.761718,0 -1.265625,-0.304688 -1.511718,-1.160157 -0.05859,-0.164062 -0.09375,-0.292968 -0.398438,-0.292968 -0.398437,0 -0.398437,0.222656 -0.398437,0.457031 v 1.230469 c 0,0.199218 0,0.457031 0.339843,0.457031 0.140625,0 0.246094,0 0.433594,-0.492188 0.550781,0.457032 1.171875,0.492188 1.535156,0.492188 2.214844,0 2.214844,-1.429688 2.214844,-1.546875 0,-1.253906 -1.476562,-1.5 -2.050781,-1.582031 -1.054688,-0.175782 -1.769531,-0.304688 -1.769531,-0.796875 0,-0.328125 0.363281,-0.7148442 1.488281,-0.7148442 1.136719,0 1.183594,0.5390622 1.207031,0.8554692 0.02344,0.234375 0.246094,0.269531 0.386719,0.269531 0.386719,0 0.386719,-0.210938 0.386719,-0.457031 z m 6.128906,1.3007812 c 0,-1.1718749 -0.550781,-1.7226562 -1.523438,-1.7226562 -0.820312,0 -1.335937,0.4570313 -1.546875,0.6796875 V 7.5374766 c 0,-0.375 -0.07031,-0.4921875 -0.480468,-0.4921875 h -0.785157 c -0.164062,0 -0.480468,0 -0.480468,0.3398437 0,0.3515625 0.316406,0.3515625 0.480468,0.3515625 h 0.492188 v 5.9179687 h -0.492188 c -0.164062,0 -0.480468,0 -0.480468,0.339844 0,0.351562 0.316406,0.351562 0.480468,0.351562 h 1.757813 c 0.164062,0 0.480469,0 0.480469,-0.351562 0,-0.339844 -0.316407,-0.339844 -0.480469,-0.339844 h -0.492188 v -2.167969 c 0,-1.160156 0.820313,-1.6757809 1.464844,-1.6757809 0.691406,0 0.832031,0.3984379 0.832031,1.0781249 v 2.765625 h -0.492187 c -0.164063,0 -0.480469,0 -0.480469,0.339844 0,0.351562 0.316406,0.351562 0.480469,0.351562 h 1.757812 c 0.164063,0 0.480469,0 0.480469,-0.351562 0,-0.339844 -0.316406,-0.339844 -0.480469,-0.339844 h -0.492187 z m 6.105469,0.105469 c 0,-0.902344 -0.679688,-1.8632814 -2.296875,-1.8632814 -0.492188,0 -1.652344,0 -1.652344,0.8320312 0,0.3164062 0.222656,0.4921872 0.480469,0.4921872 0.08203,0 0.46875,-0.02344 0.480468,-0.5156247 0,-0.070312 0.01172,-0.082031 0.269532,-0.1054687 0.140625,-0.011719 0.292968,-0.011719 0.433593,-0.011719 0.28125,0 0.691407,0 1.078125,0.3046874 0.433594,0.328125 0.433594,0.667969 0.433594,1.019532 -0.703125,0.02344 -1.394531,0.07031 -2.144531,0.304687 -0.597656,0.199219 -1.359375,0.632813 -1.359375,1.441406 0,0.855469 0.75,1.570313 1.863281,1.570313 0.386719,0 1.125,-0.05859 1.746094,-0.492188 0.246094,0.398438 0.84375,0.421875 1.289062,0.421875 0.292969,0 0.574219,0 0.574219,-0.351562 0,-0.339844 -0.304687,-0.339844 -0.480469,-0.339844 -0.304687,0 -0.539062,-0.02344 -0.714843,-0.09375 z m -0.773438,1.816406 c 0,0.28125 0,0.527344 -0.492187,0.761719 -0.421875,0.199219 -0.972657,0.199219 -1.019532,0.199219 -0.703125,0 -1.21875,-0.386719 -1.21875,-0.878907 0,-0.703125 1.289063,-1.101562 2.730469,-1.101562 z m 4.3945313,4.230469 c 0.1640625,0 0.4804688,0 0.4804688,-0.339844 0,-0.351562 -0.3164063,-0.351562 -0.4804688,-0.351562 h -0.4921873 v -2.554688 c 0.292969,0.328125 0.7265623,0.667969 1.4062498,0.667969 1.265625,0 2.3789063,-1.136719 2.3789063,-2.648438 0,-1.476562 -1.0078125,-2.6484372 -2.25,-2.6484372 -0.8789063,0 -1.4296871,0.5273438 -1.5351561,0.6445313 0,-0.3867188 0,-0.5742188 -0.480469,-0.5742188 h -0.785156 c -0.164063,0 -0.480469,0 -0.480469,0.3515625 0,0.3515625 0.316406,0.3515625 0.480469,0.3515625 h 0.492187 v 6.4101567 h -0.492187 c -0.164063,0 -0.480469,0 -0.480469,0.351562 0,0.339844 0.316406,0.339844 0.480469,0.339844 z m -0.4921873,-5.824219 c 0,-0.679687 0.6679686,-1.3593749 1.4531248,-1.3593749 0.8554688,0 1.546875,0.8789059 1.546875,1.9570309 0,1.148438 -0.8085937,1.957032 -1.6640625,1.957032 -0.890625,0 -1.3359373,-1.019532 -1.3359373,-1.617188 z m 9.1992186,0.878906 c 0.25781246,0 0.48046871,0 0.48046871,-0.445312 0,-1.394531 -0.78515621,-2.5195314 -2.28515621,-2.5195314 -1.3828125,0 -2.4960938,1.1953124 -2.4960938,2.6601564 0,1.5 1.2070313,2.671875 2.6835938,2.671875 1.5351562,0 2.09765621,-1.066406 2.09765621,-1.371094 0,-0.07031 -0.0234375,-0.339844 -0.39843751,-0.339844 -0.2226562,0 -0.2929687,0.08203 -0.3632812,0.269532 -0.3046875,0.691406 -1.078125,0.75 -1.3007813,0.75 -0.9960937,0 -1.78125,-0.75 -1.921875,-1.675782 z m -3.4921875,-0.65625 c 0.1640625,-1.019531 0.9375,-1.6171872 1.6875,-1.6171872 1.1953125,0 1.453125,1.0195312 1.5,1.6171872 z m 9.8671875,-1.21875 c 0.1523437,0 0.515625,0 0.515625,-0.3867184 0,-0.3867188 -0.3984375,-0.3867188 -0.5742188,-0.3867188 H 1.0214766 c -0.18750004,0 -0.57421879,0 -0.57421879,0.3867188 0,0.3867184 0.36328125,0.3867184 0.515625,0.3867184 z m -0.058594,1.816407 c 0.1757813,0 0.5742188,0 0.5742188,-0.398438 0,-0.375 -0.375,-0.375 -0.515625,-0.375 H 0.96288281 c -0.1640625,0 -0.515625,0 -0.515625,0.375 0,0.398438 0.38671875,0.398438 0.57421879,0.398438 z m 6.1406254,3.035156 c 0,-0.152344 -0.09375,-0.199219 -0.257813,-0.316406 -1.6523436,-1.136719 -2.0507811,-2.847657 -2.0507811,-4.007813 0,-1.1367187 0.375,-2.8593749 2.0507811,-4.0195312 0.164063,-0.1171875 0.257813,-0.1640625 0.257813,-0.3164062 0,-0.1289063 -0.07031,-0.3164063 -0.351563,-0.3164063 -0.304687,0 -1.1835936,0.6914063 -1.7343749,1.4765625 -0.6679687,0.9257813 -1.0078125,2.0390625 -1.0078125,3.1757812 0,1.324219 0.4804688,2.4375 0.984375,3.140625 0.5507813,0.761719 1.4179694,1.5 1.7578124,1.5 0.28125,0 0.351563,-0.210937 0.351563,-0.316406 z m 5.188476,-3.304688 c 0.164063,-0.152343 1.371094,-1.171875 1.371094,-2.5078122 0,-1.359375 -1.125,-2.3085937 -2.613281,-2.3085937 -1.382813,0 -2.308594,1.03125 -2.308594,2.0390625 0,0.5039062 0.421875,0.5390625 0.492188,0.5390625 0.210937,0 0.480468,-0.1640625 0.480468,-0.4921875 0,-0.2226563 -0.08203,-0.2929688 -0.152343,-0.3515625 0.175781,-0.6328125 0.726562,-1.0429688 1.417968,-1.0429688 1.007813,0 1.910157,0.5859375 1.910157,1.6171875 0,0.9375002 -0.703125,1.6523442 -1.347657,2.2148442 l -2.636718,2.285156 c -0.128907,0.105469 -0.164063,0.140625 -0.164063,0.28125 0,0.351562 0.328125,0.351562 0.492188,0.351562 h 4.171875 c 0.257812,-0.07031 0.257812,-0.316406 0.257812,-0.492187 v -0.246094 c 0,-0.222656 0,-0.492187 -0.375,-0.492187 -0.398437,0 -0.398437,0.246093 -0.398437,0.539062 h -2.882813 z m 5.296875,2.589844 c -0.07031,0.375 -0.304687,0.820313 -0.890625,1.03125 -0.105468,0.02344 -0.28125,0.08203 -0.28125,0.304688 0,0.152343 0.175782,0.363281 0.363282,0.363281 0.328125,0 1.511718,-0.585938 1.511718,-1.875 0,-0.632813 -0.398437,-1.136719 -0.925781,-1.136719 -0.445312,0 -0.679687,0.339844 -0.679687,0.667969 0,0.398437 0.304687,0.679687 0.667968,0.679687 0.07031,0 0.152344,-0.01172 0.234375,-0.03516 z m 7.007813,-2.589844 c 0.164062,-0.152343 1.371094,-1.171875 1.371094,-2.5078122 0,-1.359375 -1.125,-2.3085937 -2.613282,-2.3085937 -1.382812,0 -2.308593,1.03125 -2.308593,2.0390625 0,0.5039062 0.421875,0.5390625 0.492187,0.5390625 0.210938,0 0.480469,-0.1640625 0.480469,-0.4921875 0,-0.2226563 -0.08203,-0.2929688 -0.152344,-0.3515625 0.175781,-0.6328125 0.726563,-1.0429688 1.417969,-1.0429688 1.007812,0 1.910156,0.5859375 1.910156,1.6171875 0,0.9375002 -0.703125,1.6523442 -1.347656,2.2148442 l -2.636719,2.285156 c -0.128906,0.105469 -0.164062,0.140625 -0.164062,0.28125 0,0.351562 0.328125,0.351562 0.492187,0.351562 h 4.171875 c 0.257813,-0.07031 0.257813,-0.316406 0.257813,-0.492187 v -0.246094 c 0,-0.222656 0,-0.492187 -0.375,-0.492187 -0.398438,0 -0.398438,0.246093 -0.398438,0.539062 h -2.882812 z m 6.105469,-1.019531 c 0,-0.9374999 -0.222657,-2.1445312 -1.089844,-3.3046874 -0.410156,-0.5507813 -1.289063,-1.3476563 -1.652344,-1.3476563 -0.269531,0 -0.339844,0.1992188 -0.339844,0.3164063 0,0.140625 0.08203,0.1992187 0.292969,0.3398437 1.464844,1.03125 2.015625,2.6367188 2.015625,3.9843747 0,1.078125 -0.351562,2.835938 -2.0625,4.019532 -0.152344,0.105468 -0.246094,0.164062 -0.246094,0.316406 0,0.105469 0.07031,0.316406 0.339844,0.316406 0.304688,0 1.183594,-0.691406 1.734375,-1.476562 0.691406,-0.972657 1.007813,-2.097657 1.007813,-3.164063 z m 0,0"
       style="fill:#000000;fill-opacity:1;fill-rule:nonzero;stroke:none"
       aria-label="B&#10;shape=(2,2)"
       transform="matrix(1.3333333,0,0,1.3333333,336.056,20.368)" />
    <path
       id="path20"
       d="m 8.0731094,-3.8666719 c 0.1640625,0 0.375,0 0.375,-0.2226562 0,-0.2226563 -0.1992188,-0.2226563 -0.375,-0.2226563 H 1.0301406 c -0.17578122,0 -0.38671872,0 -0.38671872,0.2109375 0,0.234375 0.19921875,0.234375 0.38671872,0.234375 z m 0,2.2148438 c 0.1640625,0 0.375,0 0.375,-0.2109375 0,-0.234375 -0.1992188,-0.234375 -0.375,-0.234375 H 1.0301406 c -0.17578122,0 -0.38671872,0 -0.38671872,0.2226562 0,0.2226563 0.19921875,0.2226563 0.38671872,0.2226563 z m 0,0"
       style="fill:#000000;fill-opacity:1;fill-rule:nonzero;stroke:none"
       aria-label="="
       transform="matrix(1.3333333,0,0,1.3333333,402.11867,85.304)" />
    <path
       id="path21"
       d="M 36.85075,-1.5e-4 H 59.52818 V 22.67728 H 36.85075 Z"
       style="fill:none;stroke:#000000;stroke-width:0.3985;stroke-linecap:butt;stroke-linejoin:miter;stroke-miterlimit:10;stroke-dasharray:none;stroke-opacity:1"
       transform="matrix(1.3333333,0,0,-1.3333333,381.732,82.428)" />
    <path
       id="path22"
       d="m 3.4450781,-7.6640781 c 0,-0.2695313 0,-0.28125 -0.2460937,-0.28125 -0.28125,0.3164062 -0.8789063,0.7617187 -2.109375,0.7617187 v 0.3515625 c 0.2695312,0 0.8671875,0 1.5234375,-0.3164062 v 6.22265622 c 0,0.43359375 -0.035156,0.57421875 -1.078125,0.57421875 h -0.375 V -1.5625e-5 c 0.3164062,-0.023437505 1.4765625,-0.023437505 1.875,-0.023437505 0.3984375,0 1.546875,0 1.8632812,0.023437505 V -0.35157813 H 4.5349219 c -1.0546875,0 -1.0898438,-0.140625 -1.0898438,-0.57421875 z m 6.7792969,4.1835937 c 0,2.82421877 -1.2539062,3.41015627 -1.96875,3.41015627 -0.28125,0 -0.9257812,-0.03515625 -1.21875,-0.45703125 h 0.070312 c 0.082031,0.0234375 0.515625,-0.046875 0.515625,-0.49218752 0,-0.2578125 -0.1757812,-0.4921875 -0.4921875,-0.4921875 -0.3046875,0 -0.5039062,0.2109375 -0.5039062,0.51562502 0,0.75 0.5976562,1.2421875 1.640625,1.2421875 1.5,0 2.9414067,-1.58203122 2.9414067,-4.18359372 0,-3.2109375 -1.335938,-4.0078125 -2.3906255,-4.0078125 -1.3125,0 -2.4726562,1.1015625 -2.4726562,2.671875 0,1.5820312 1.1132812,2.6601562 2.3085937,2.6601562 0.8789063,0 1.3359375,-0.6445312 1.570313,-1.2539062 z m -1.5234375,0.6210938 c -0.75,0 -1.078125,-0.609375 -1.1835937,-0.8320313 -0.1992188,-0.4570312 -0.1992188,-1.03125 -0.1992188,-1.5703125 0,-0.6679687 0,-1.2421875 0.3164063,-1.734375 0.2109375,-0.3164062 0.5390625,-0.6679687 1.1835937,-0.6679687 0.6796875,0 1.03125,0.5976562 1.1484375,0.8789062 0.2343755,0.5859375 0.2343755,1.59375 0.2343755,1.78125 0,0.9960938 -0.445313,2.1445313 -1.5000005,2.1445313 z m 0,0"
       style="fill:#000000;fill-opacity:1;fill-rule:nonzero;stroke:none"
       aria-label="19"
       transform="matrix(1.3333333,0,0,1.3333333,438.18,72.445333)" />
    <path
       id="path23"
       d="M 59.52829,-1.5e-4 H 82.20572 V 22.67728 H 59.52829 Z"
       style="fill:none;stroke:#000000;stroke-width:0.3985;stroke-linecap:butt;stroke-linejoin:miter;stroke-miterlimit:10;stroke-dasharray:none;stroke-opacity:1"
       transform="matrix(1.3333333,0,0,-1.3333333,381.732,82.428)" />
    <path
       id="path24"
       d="M 5.2602656,-2.0039219 H 4.9907344 c -0.035156,0.1992188 -0.1289063,0.8554688 -0.2460938,1.04296877 -0.082031,0.1171875 -0.7617187,0.1171875 -1.125,0.1171875 H 1.4047969 c 0.328125,-0.28124997 1.0546875,-1.04296877 1.3710937,-1.33593747 1.8164063,-1.6640625 2.484375,-2.2851563 2.484375,-3.46875 0,-1.3828125 -1.0898437,-2.296875 -2.4726562,-2.296875 -1.3945313,0 -2.20312502,1.1835937 -2.20312502,2.203125 0,0.609375 0.52734372,0.609375 0.56250002,0.609375 0.2460937,0 0.5625,-0.1757813 0.5625,-0.5625 0,-0.328125 -0.234375,-0.5507813 -0.5625,-0.5507813 -0.1054688,0 -0.1289063,0 -0.16406252,0.011719 0.22265622,-0.8203125 0.86718752,-1.3710938 1.64062502,-1.3710938 1.0195312,0 1.640625,0.8554688 1.640625,1.9570313 0,1.0078125 -0.5859375,1.8984375 -1.265625,2.6601562 L 0.58448438,-0.28126563 V -1.5625e-5 H 4.9438594 Z m 5.8535154,0 H 10.84425 c -0.03516,0.1992188 -0.128906,0.8554688 -0.246094,1.04296877 -0.08203,0.1171875 -0.7617185,0.1171875 -1.1249997,0.1171875 H 7.2583125 C 7.5864375,-1.1250156 8.313,-1.8867344 8.6294063,-2.1797031 c 1.8164067,-1.6640625 2.4843747,-2.2851563 2.4843747,-3.46875 0,-1.3828125 -1.089843,-2.296875 -2.472656,-2.296875 -1.3945312,0 -2.203125,1.1835937 -2.203125,2.203125 0,0.609375 0.5273438,0.609375 0.5625,0.609375 0.2460938,0 0.5625,-0.1757813 0.5625,-0.5625 0,-0.328125 -0.234375,-0.5507813 -0.5625,-0.5507813 -0.1054687,0 -0.1289062,0 -0.1640625,0.011719 0.2226563,-0.8203125 0.8671875,-1.3710938 1.640625,-1.3710938 1.0195313,0 1.6406255,0.8554688 1.6406255,1.9570313 0,1.0078125 -0.585938,1.8984375 -1.2656255,2.6601562 L 6.438,-0.28126563 V -1.5625e-5 h 4.359375 z m 0,0"
       style="fill:#000000;fill-opacity:1;fill-rule:nonzero;stroke:none"
       aria-label="22"
       transform="matrix(1.3333333,0,0,1.3333333,468.416,72.445333)" />
    <path
       id="path25"
       d="M 36.85075,-22.67767 H 59.52818 V -2.4e-4 H 36.85075 Z"
       style="fill:none;stroke:#000000;stroke-width:0.3985;stroke-linecap:butt;stroke-linejoin:miter;stroke-miterlimit:10;stroke-dasharray:none;stroke-opacity:1"
       transform="matrix(1.3333333,0,0,-1.3333333,381.732,82.428)" />
    <path
       id="path26"
       d="m 4.3122656,-7.7805547 c 0,-0.2226562 0,-0.2929687 -0.1640625,-0.2929687 -0.09375,0 -0.1289062,0 -0.2226562,0.1523437 l -3.59765627,5.578125 v 0.3515625 H 3.4685156 v 1.07812501 c 0,0.4453125 -0.023437,0.5625 -0.9023437,0.5625 H 2.3317969 V 6.953125e-4 C 2.6013281,-0.02274219 3.5505469,-0.02274219 3.8903906,-0.02274219 c 0.328125,0 1.2890625,0 1.5585938,0.0234375025 V -0.35086719 h -0.234375 c -0.8671875,0 -0.9023438,-0.1171875 -0.9023438,-0.5625 V -1.9914922 H 5.5192969 V -2.3430547 H 4.3122656 Z m -0.7851562,0.9375 v 4.5 H 0.62085938 Z m 4.5292969,2.5546875 c -0.2109375,0.011719 -0.2578125,0.023437 -0.2578125,0.1289063 0,0.1171875 0.058594,0.1171875 0.28125,0.1171875 H 8.630625 c 1.0078125,0 1.464844,0.84375 1.464844,1.9921875 0,1.55859371 -0.808594,1.98046871 -1.3945315,1.98046871 -0.5742187,0 -1.5585937,-0.28125 -1.8984375,-1.06640621 0.375,0.058594 0.7265625,-0.1523438 0.7265625,-0.5859375 0,-0.3398438 -0.2578125,-0.5859375 -0.5859375,-0.5859375 -0.2929687,0 -0.5976562,0.1640625 -0.5976562,0.6210937 0,1.06640626 1.0664062,1.93359376 2.390625,1.93359376 1.4179692,0 2.4726562,-1.078125 2.4726562,-2.28515626 0,-1.1015625 -0.890625,-1.96875 -2.0273437,-2.1679687 1.0312497,-0.3046875 1.6992187,-1.171875 1.6992187,-2.109375 0,-0.9375 -0.9726562,-1.6289063 -2.1328125,-1.6289063 -1.1953125,0 -2.0859375,0.7265625 -2.0859375,1.59375 0,0.4804688 0.375,0.5742188 0.5507813,0.5742188 0.2578125,0 0.5390625,-0.1757813 0.5390625,-0.5390625 0,-0.375 -0.28125,-0.5390625 -0.5507813,-0.5390625 -0.070312,0 -0.09375,0 -0.1289062,0.011719 0.4570312,-0.8203125 1.5820312,-0.8203125 1.640625,-0.8203125 0.3867187,0 1.171875,0.1757813 1.171875,1.3476563 0,0.234375 -0.035156,0.9023437 -0.3867188,1.4179687 -0.3515625,0.5273438 -0.7617187,0.5625 -1.0898437,0.5742188 z m 0,0"
       style="fill:#000000;fill-opacity:1;fill-rule:nonzero;stroke:none"
       aria-label="43"
       transform="matrix(1.3333333,0,0,1.3333333,438.18,102.68267)" />
    <path
       id="path27"
       d="M 59.52829,-22.67767 H 82.20572 V -2.4e-4 H 59.52829 Z"
       style="fill:none;stroke:#000000;stroke-width:0.3985;stroke-linecap:butt;stroke-linejoin:miter;stroke-miterlimit:10;stroke-dasharray:none;stroke-opacity:1"
       transform="matrix(1.3333333,0,0,-1.3333333,381.732,82.428)" />
    <path
       id="path28"
       d="m 1.5337031,-6.8430547 c 0.5039063,0.1640625 0.9257813,0.1757813 1.0546875,0.1757813 1.359375,0 2.2148438,-0.9960938 2.2148438,-1.1601563 0,-0.046875 -0.023437,-0.1054687 -0.09375,-0.1054687 -0.023437,0 -0.046875,0 -0.1523438,0.046875 -0.6679687,0.28125 -1.2421875,0.3164062 -1.5585937,0.3164062 -0.7851563,0 -1.3476563,-0.234375 -1.5820313,-0.328125 -0.082031,-0.035156 -0.1054687,-0.035156 -0.1171875,-0.035156 -0.09375,0 -0.09375,0.070312 -0.09375,0.2578125 v 3.5507812 c 0,0.2109375 0,0.2929688 0.140625,0.2929688 0.058594,0 0.070312,-0.011719 0.1992188,-0.1640625 0.328125,-0.4921875 0.890625,-0.7734375 1.4882812,-0.7734375 0.6328125,0 0.9492188,0.5859375 1.0429688,0.7851562 0.1992187,0.46875 0.2109375,1.0546875 0.2109375,1.5117188 0,0.4570312 0,1.1367187 -0.328125,1.67578121 -0.2695313,0.421875 -0.7382813,0.7265625 -1.2539063,0.7265625 -0.796875,0 -1.5703125,-0.5390625 -1.78124997,-1.40625001 0.0585938,0.023437 0.12890627,0.035156 0.18749997,0.035156 0.1992188,0 0.5273438,-0.1289063 0.5273438,-0.5273438 0,-0.3398437 -0.234375,-0.5273437 -0.5273438,-0.5273437 -0.21093747,0 -0.52734372,0.1054687 -0.52734372,0.5742187 0,1.00781251 0.80859372,2.16796876 2.14453122,2.16796876 1.3476563,0 2.53125,-1.125 2.53125,-2.64843746 0,-1.4179688 -0.9609375,-2.6015625 -2.2148437,-2.6015625 -0.6796875,0 -1.2070313,0.2929687 -1.5117188,0.6328125 z m 9.6738279,3.0234375 c 0,-0.9960937 -0.05859,-1.96875 -0.492187,-2.8710937 -0.492188,-0.9960938 -1.3476565,-1.2539063 -1.933594,-1.2539063 -0.6914062,0 -1.546875,0.3398438 -1.9804687,1.3359375 -0.3398438,0.75 -0.4570313,1.4882813 -0.4570313,2.7890625 0,1.1601563 0.082031,2.0273438 0.515625,2.87109376 0.4570313,0.9140625 1.2890625,1.1953125 1.9101563,1.1953125 1.0429687,0 1.6406247,-0.62109375 1.9804687,-1.31249996 0.433594,-0.890625 0.457031,-2.0625 0.457031,-2.7539063 z M 8.7700313,0.01241406 c -0.3867188,0 -1.1601563,-0.2109375 -1.3828125,-1.52343746 -0.140625,-0.7148438 -0.140625,-1.6171875 -0.140625,-2.4609375 0,-0.9726563 0,-1.8632813 0.1992187,-2.5664063 0.1992188,-0.796875 0.8085938,-1.171875 1.3242188,-1.171875 0.4570312,0 1.1484375,0.28125 1.3710937,1.3007813 0.152344,0.6796875 0.152344,1.6289062 0.152344,2.4375 0,0.8085937 0,1.7109375 -0.128906,2.4375 -0.2226567,1.32421871 -0.9726567,1.54687496 -1.3945317,1.54687496 z m 0,0"
       style="fill:#000000;fill-opacity:1;fill-rule:nonzero;stroke:none"
       aria-label="50"
       transform="matrix(1.3333333,0,0,1.3333333,468.416,102.68267)" />
    <path
       id="path29"
       d="m 5.6591563,-6.9967031 c 0,-0.1875 0,-0.4453125 -0.328125,-0.4453125 -0.2109375,0 -0.28125,0.1289062 -0.328125,0.2109375 C 4.96775,-7.1373281 4.874,-6.9263906 4.8388438,-6.8326406 4.3466563,-7.2662344 3.795875,-7.4420156 3.3036875,-7.4420156 c -1.546875,0 -2.82421875,1.640625 -2.82421875,3.7851562 0,2.1914063 1.31250005,3.79687502 2.82421875,3.79687502 1.3945313,0 2.3554688,-1.11328125 2.3554688,-2.15625002 0,-0.375 -0.2460938,-0.375 -0.3867188,-0.375 -0.1640625,0 -0.3632812,0.058594 -0.3867187,0.2578125 -0.09375,1.50000002 -1.3007813,1.58203127 -1.5,1.58203127 -1.1132813,0 -2.1328125,-1.30078127 -2.1328125,-3.10546877 0,-1.8046875 1.03125,-3.09375 2.1210937,-3.09375 0.6445313,0 1.3476563,0.515625 1.5117188,1.6054688 0.035156,0.2695312 0.140625,0.3398437 0.3867187,0.3398437 0.3867188,0 0.3867188,-0.2109375 0.3867188,-0.4570312 z M -25.744164,9.5413828 c 0,-0.1875 0,-0.4570312 -0.328125,-0.4570312 -0.292969,0 -0.363281,0.28125 -0.363281,0.2929687 -0.480469,-0.2929687 -1.019532,-0.2929687 -1.265625,-0.2929687 -1.945313,0 -2.214844,0.9960934 -2.214844,1.4062504 0,0.480468 0.292969,0.820312 0.703125,1.042968 0.375,0.222657 0.726562,0.28125 1.699219,0.433594 0.46875,0.08203 1.429687,0.234375 1.429687,0.902344 0,0.433594 -0.410156,0.855469 -1.523437,0.855469 -0.761719,0 -1.265625,-0.304688 -1.511719,-1.160157 -0.05859,-0.164062 -0.09375,-0.292968 -0.398438,-0.292968 -0.398437,0 -0.398437,0.222656 -0.398437,0.457031 v 1.230469 c 0,0.199218 0,0.457031 0.339844,0.457031 0.140625,0 0.246093,0 0.433593,-0.492188 0.550782,0.457032 1.171875,0.492188 1.535157,0.492188 2.214843,0 2.214843,-1.429688 2.214843,-1.546875 0,-1.253906 -1.476562,-1.5 -2.050781,-1.582031 -1.054687,-0.175782 -1.769531,-0.304688 -1.769531,-0.796875 0,-0.328125 0.363281,-0.7148442 1.488281,-0.7148442 1.136719,0 1.183594,0.5390622 1.207031,0.8554692 0.02344,0.234375 0.246094,0.269531 0.386719,0.269531 0.386719,0 0.386719,-0.210938 0.386719,-0.457031 z m 6.128906,1.3007812 c 0,-1.1718749 -0.550781,-1.7226562 -1.523437,-1.7226562 -0.820313,0 -1.335938,0.4570313 -1.546875,0.6796875 V 7.5374766 c 0,-0.375 -0.07031,-0.4921875 -0.480469,-0.4921875 h -0.785156 c -0.164063,0 -0.480469,0 -0.480469,0.3398437 0,0.3515625 0.316406,0.3515625 0.480469,0.3515625 h 0.492187 v 5.9179687 h -0.492187 c -0.164063,0 -0.480469,0 -0.480469,0.339844 0,0.351562 0.316406,0.351562 0.480469,0.351562 h 1.757812 c 0.164063,0 0.480469,0 0.480469,-0.351562 0,-0.339844 -0.316406,-0.339844 -0.480469,-0.339844 h -0.492187 v -2.167969 c 0,-1.160156 0.820312,-1.6757809 1.464843,-1.6757809 0.691407,0 0.832032,0.3984379 0.832032,1.0781249 v 2.765625 h -0.492188 c -0.164062,0 -0.480469,0 -0.480469,0.339844 0,0.351562 0.316407,0.351562 0.480469,0.351562 h 1.757813 c 0.164062,0 0.480468,0 0.480468,-0.351562 0,-0.339844 -0.316406,-0.339844 -0.480468,-0.339844 h -0.492188 z m 6.105469,0.105469 c 0,-0.902344 -0.679688,-1.8632814 -2.296875,-1.8632814 -0.492188,0 -1.652344,0 -1.652344,0.8320312 0,0.3164062 0.222656,0.4921872 0.480469,0.4921872 0.08203,0 0.46875,-0.02344 0.480469,-0.5156247 0,-0.070312 0.01172,-0.082031 0.269531,-0.1054687 0.140625,-0.011719 0.292969,-0.011719 0.433594,-0.011719 0.28125,0 0.691406,0 1.078125,0.3046874 0.433593,0.328125 0.433593,0.667969 0.433593,1.019532 -0.703125,0.02344 -1.394531,0.07031 -2.144531,0.304687 -0.597656,0.199219 -1.359375,0.632813 -1.359375,1.441406 0,0.855469 0.75,1.570313 1.863281,1.570313 0.386719,0 1.125,-0.05859 1.746094,-0.492188 0.246094,0.398438 0.84375,0.421875 1.289063,0.421875 0.292968,0 0.574218,0 0.574218,-0.351562 0,-0.339844 -0.304687,-0.339844 -0.480468,-0.339844 -0.304688,0 -0.539063,-0.02344 -0.714844,-0.09375 z m -0.773438,1.816406 c 0,0.28125 0,0.527344 -0.492187,0.761719 -0.421875,0.199219 -0.972656,0.199219 -1.019531,0.199219 -0.703125,0 -1.21875,-0.386719 -1.21875,-0.878907 0,-0.703125 1.289062,-1.101562 2.730468,-1.101562 z m 4.3945317,4.230469 c 0.1640625,0 0.4804687,0 0.4804687,-0.339844 0,-0.351562 -0.3164062,-0.351562 -0.4804687,-0.351562 h -0.4921877 v -2.554688 c 0.292969,0.328125 0.7265627,0.667969 1.4062502,0.667969 1.265625,0 2.3789062,-1.136719 2.3789062,-2.648438 0,-1.476562 -1.0078125,-2.6484372 -2.25,-2.6484372 -0.8789062,0 -1.4296874,0.5273438 -1.5351564,0.6445313 0,-0.3867188 0,-0.5742188 -0.480469,-0.5742188 h -0.785156 c -0.164062,0 -0.480469,0 -0.480469,0.3515625 0,0.3515625 0.316407,0.3515625 0.480469,0.3515625 h 0.492188 v 6.4101567 h -0.492188 c -0.164062,0 -0.480469,0 -0.480469,0.351562 0,0.339844 0.316407,0.339844 0.480469,0.339844 z m -0.4921877,-5.824219 c 0,-0.679687 0.6679689,-1.3593749 1.4531252,-1.3593749 0.8554687,0 1.546875,0.8789059 1.546875,1.9570309 0,1.148438 -0.8085938,1.957032 -1.6640625,1.957032 -0.890625,0 -1.3359377,-1.019532 -1.3359377,-1.617188 z m 9.1992189,0.878906 c 0.25781254,0 0.48046879,0 0.48046879,-0.445312 0,-1.394531 -0.78515629,-2.5195314 -2.28515629,-2.5195314 -1.3828125,0 -2.4960937,1.1953124 -2.4960937,2.6601564 0,1.5 1.2070312,2.671875 2.6835937,2.671875 1.5351563,0 2.09765629,-1.066406 2.09765629,-1.371094 0,-0.07031 -0.0234375,-0.339844 -0.39843749,-0.339844 -0.2226563,0 -0.2929688,0.08203 -0.3632813,0.269532 -0.3046875,0.691406 -1.078125,0.75 -1.3007812,0.75 -0.9960938,0 -1.78125,-0.75 -1.921875,-1.675782 z m -3.4921875,-0.65625 c 0.1640625,-1.019531 0.9375,-1.6171872 1.6875,-1.6171872 1.1953125,0 1.453125,1.0195312 1.5,1.6171872 z m 9.8671875,-1.21875 c 0.1523438,0 0.515625,0 0.515625,-0.3867184 0,-0.3867188 -0.3984375,-0.3867188 -0.5742187,-0.3867188 H 1.0214609 c -0.18749996,0 -0.57421871,0 -0.57421871,0.3867188 0,0.3867184 0.36328125,0.3867184 0.515625,0.3867184 z m -0.058594,1.816407 c 0.1757812,0 0.5742187,0 0.5742187,-0.398438 0,-0.375 -0.375,-0.375 -0.515625,-0.375 H 0.96286719 c -0.1640625,0 -0.515625,0 -0.515625,0.375 0,0.398438 0.38671875,0.398438 0.57421871,0.398438 z m 6.1406251,3.035156 c 0,-0.152344 -0.09375,-0.199219 -0.257812,-0.316406 -1.6523444,-1.136719 -2.0507819,-2.847657 -2.0507819,-4.007813 0,-1.1367187 0.375,-2.8593749 2.0507819,-4.0195312 0.164062,-0.1171875 0.257812,-0.1640625 0.257812,-0.3164062 0,-0.1289063 -0.07031,-0.3164063 -0.351562,-0.3164063 -0.304688,0 -1.1835944,0.6914063 -1.7343756,1.4765625 -0.6679688,0.9257813 -1.0078125,2.0390625 -1.0078125,3.1757812 0,1.324219 0.4804687,2.4375 0.984375,3.140625 0.5507812,0.761719 1.4179691,1.5 1.7578131,1.5 0.28125,0 0.351562,-0.210937 0.351562,-0.316406 z m 5.188477,-3.304688 c 0.164062,-0.152343 1.371094,-1.171875 1.371094,-2.5078122 0,-1.359375 -1.125,-2.3085937 -2.613282,-2.3085937 -1.382812,0 -2.308593,1.03125 -2.308593,2.0390625 0,0.5039062 0.421875,0.5390625 0.492187,0.5390625 0.210938,0 0.480469,-0.1640625 0.480469,-0.4921875 0,-0.2226563 -0.08203,-0.2929688 -0.152344,-0.3515625 0.175781,-0.6328125 0.726563,-1.0429688 1.417969,-1.0429688 1.007812,0 1.910156,0.5859375 1.910156,1.6171875 0,0.9375002 -0.703125,1.6523442 -1.347656,2.2148442 l -2.636719,2.285156 c -0.128906,0.105469 -0.164062,0.140625 -0.164062,0.28125 0,0.351562 0.328125,0.351562 0.492187,0.351562 h 4.171875 c 0.257813,-0.07031 0.257813,-0.316406 0.257813,-0.492187 v -0.246094 c 0,-0.222656 0,-0.492187 -0.375,-0.492187 -0.398438,0 -0.398438,0.246093 -0.398438,0.539062 h -2.882812 z m 5.296875,2.589844 c -0.07031,0.375 -0.304688,0.820313 -0.890625,1.03125 -0.105469,0.02344 -0.28125,0.08203 -0.28125,0.304688 0,0.152343 0.175781,0.363281 0.363281,0.363281 0.328125,0 1.511719,-0.585938 1.511719,-1.875 0,-0.632813 -0.398438,-1.136719 -0.925781,-1.136719 -0.445313,0 -0.679688,0.339844 -0.679688,0.667969 0,0.398437 0.304688,0.679687 0.667969,0.679687 0.07031,0 0.152344,-0.01172 0.234375,-0.03516 z m 7.007812,-2.589844 c 0.164063,-0.152343 1.371094,-1.171875 1.371094,-2.5078122 0,-1.359375 -1.125,-2.3085937 -2.613281,-2.3085937 -1.382813,0 -2.308594,1.03125 -2.308594,2.0390625 0,0.5039062 0.421875,0.5390625 0.492188,0.5390625 0.210937,0 0.480468,-0.1640625 0.480468,-0.4921875 0,-0.2226563 -0.08203,-0.2929688 -0.152343,-0.3515625 0.175781,-0.6328125 0.726562,-1.0429688 1.417968,-1.0429688 1.007813,0 1.910157,0.5859375 1.910157,1.6171875 0,0.9375002 -0.703125,1.6523442 -1.347657,2.2148442 l -2.636718,2.285156 c -0.128907,0.105469 -0.164063,0.140625 -0.164063,0.28125 0,0.351562 0.328125,0.351562 0.492188,0.351562 h 4.171875 c 0.257812,-0.07031 0.257812,-0.316406 0.257812,-0.492187 v -0.246094 c 0,-0.222656 0,-0.492187 -0.375,-0.492187 -0.398437,0 -0.398437,0.246093 -0.398437,0.539062 H 26.483375 Z M 34.874,10.701539 C 34.874,9.7640391 34.651344,8.5570078 33.784156,7.3968516 33.374,6.8460703 32.495094,6.0491953 32.131813,6.0491953 c -0.269532,0 -0.339844,0.1992188 -0.339844,0.3164063 0,0.140625 0.08203,0.1992187 0.292969,0.3398437 1.464843,1.03125 2.015625,2.6367188 2.015625,3.9843747 0,1.078125 -0.351563,2.835938 -2.0625,4.019532 -0.152344,0.105468 -0.246094,0.164062 -0.246094,0.316406 0,0.105469 0.07031,0.316406 0.339844,0.316406 0.304687,0 1.183593,-0.691406 1.734375,-1.476562 C 34.557594,12.892945 34.874,11.767945 34.874,10.701539 Z m 0,0"
       style="fill:#000000;fill-opacity:1;fill-rule:nonzero;stroke:none"
       aria-label="C&#10;shape=(2,2)"
       transform="matrix(1.3333333,0,0,1.3333333,457.00133,20.368)" />
    <path
       id="path30"
       d="M -110.54126,-56.84029 H 70.85591 v 28.29422 h -181.39717 z"
       style="fill:#ffffff;fill-opacity:1;fill-rule:nonzero;stroke:none"
       transform="matrix(1.3333333,0,0,-1.3333333,381.732,82.428)" />
    <path
       id="path31"
       d="m 4.9930703,-3.5038203 c 0,-1.171875 -0.5507812,-1.7226563 -1.5234375,-1.7226563 -0.8203125,0 -1.3359375,0.4570313 -1.546875,0.6796875 0,-0.4335937 0,-0.609375 -0.4804687,-0.609375 H 0.65713281 c -0.1640625,0 -0.48046875,0 -0.48046875,0.3515625 0,0.3515625 0.31640625,0.3515625 0.48046875,0.3515625 H 1.1493203 v 3.76171879 H 0.65713281 c -0.1640625,0 -0.48046875,0 -0.48046875,0.33984375 0,0.3515624975 0.31640625,0.3515624975 0.48046875,0.3515624975 H 2.4149453 c 0.1640625,0 0.4804688,0 0.4804688,-0.3515624975 0,-0.33984375 -0.3164063,-0.33984375 -0.4804688,-0.33984375 H 1.9227578 V -2.8592891 c 0,-1.1601562 0.8203125,-1.6757812 1.4648438,-1.6757812 0.6914062,0 0.8320312,0.3984375 0.8320312,1.078125 v 2.76562499 H 3.7274453 c -0.1640625,0 -0.4804687,0 -0.4804687,0.33984375 0,0.3515624975 0.3164062,0.3515624975 0.4804687,0.3515624975 h 1.7578125 c 0.1640625,0 0.4804688,0 0.4804688,-0.3515624975 0,-0.33984375 -0.3164063,-0.33984375 -0.4804688,-0.33984375 H 4.9930703 Z m 3.5742188,6.1523437 c 0.1640625,0 0.4804687,0 0.4804687,-0.3398437 0,-0.3515625 -0.3164062,-0.3515625 -0.4804687,-0.3515625 H 8.0751016 v -2.55468751 c 0.2929687,0.328125 0.7265625,0.66796875 1.40625,0.66796875 1.2656254,0 2.3789064,-1.13671874 2.3789064,-2.64843754 0,-1.4765625 -1.007813,-2.6484375 -2.2500002,-2.6484375 -0.8789062,0 -1.4296875,0.5273438 -1.5351562,0.6445313 0,-0.3867188 0,-0.5742188 -0.4804688,-0.5742188 H 6.8094766 c -0.1640625,0 -0.4804688,0 -0.4804688,0.3515625 0,0.3515625 0.3164063,0.3515625 0.4804688,0.3515625 H 7.3016641 V 1.9571172 H 6.8094766 c -0.1640625,0 -0.4804688,0 -0.4804688,0.3515625 0,0.3398437 0.3164063,0.3398437 0.4804688,0.3398437 z M 8.0751016,-3.1756953 c 0,-0.6796875 0.6679687,-1.359375 1.453125,-1.359375 0.8554684,0 1.5468754,0.8789062 1.5468754,1.9570312 0,1.1484375 -0.808594,1.95703129 -1.6640629,1.95703129 -0.890625,0 -1.3359375,-1.01953129 -1.3359375,-1.61718749 z m 7.9804684,2.50781249 c 0,-0.39843749 -0.316406,-0.67968749 -0.667968,-0.67968749 -0.375,0 -0.679688,0.2929687 -0.679688,0.67968749 0,0.3515625 0.316406,0.6679687475 0.667969,0.6679687475 0.398437,0 0.679687,-0.3281249975 0.679687,-0.6679687475 z m 7.391602,-6.14062499 c 0,-0.375 -0.07031,-0.4921875 -0.46875,-0.4921875 h -0.796875 c -0.164063,0 -0.480469,0 -0.480469,0.3398437 0,0.3515625 0.316406,0.3515625 0.480469,0.3515625 h 0.492187 v 1.9804688 c -0.1875,-0.1875 -0.679687,-0.5976563 -1.40625,-0.5976563 -1.265625,0 -2.367187,1.1484375 -2.367187,2.6601563 0,1.4648437 1.019531,2.63671874 2.261719,2.63671874 0.773437,0 1.289062,-0.46875 1.511718,-0.7265625 0,0.50390625 0,0.6562499975 0.480469,0.6562499975 h 0.785156 c 0.164063,0 0.480469,0 0.480469,-0.3515624975 0,-0.33984375 -0.316406,-0.33984375 -0.480469,-0.33984375 h -0.492187 z m -0.773438,4.5351562 c 0,0.6679688 -0.550781,1.65234379 -1.441406,1.65234379 -0.867187,0 -1.558594,-0.87890629 -1.558594,-1.94531249 0,-1.1484375 0.808594,-1.96875 1.664063,-1.96875 0.773437,0 1.335937,0.7148437 1.335937,1.3359375 z m 7.382813,-0.3046875 c 0,-1.5 -1.089844,-2.6835937 -2.378906,-2.6835937 -1.289063,0 -2.378907,1.1835937 -2.378907,2.6835937 0,1.5 1.101563,2.64843754 2.378907,2.64843754 1.277343,0 2.378906,-1.14843754 2.378906,-2.64843754 z m -2.378906,1.95703129 c -0.855469,0 -1.605469,-0.91406249 -1.605469,-2.03906249 0,-1.1132813 0.773437,-1.9101563 1.605469,-1.9101563 0.84375,0 1.605468,0.796875 1.605468,1.9101563 0,1.1367187 -0.738281,2.03906249 -1.605468,2.03906249 z m 5.660156,-3.83203129 h 1.945312 c 0.164063,0 0.46875,0 0.46875,-0.3515625 0,-0.3515625 -0.304687,-0.3515625 -0.46875,-0.3515625 h -1.945312 v -0.9726562 c 0,-0.2226563 0,-0.4921875 -0.375,-0.4921875 -0.398438,0 -0.398438,0.2695312 -0.398438,0.4921875 v 0.9726562 h -1.019531 c -0.164062,0 -0.480469,0 -0.480469,0.3515625 0,0.3515625 0.304688,0.3515625 0.46875,0.3515625 h 1.03125 v 3.0117188 c 0,1.10156249 0.761719,1.51171874 1.628907,1.51171874 0.644531,0 1.828125,-0.31640625 1.828125,-1.53515624 0,-0.2460938 0,-0.5039063 -0.398438,-0.5039063 -0.375,0 -0.375,0.2578125 -0.375,0.515625 -0.02344,0.71484379 -0.703125,0.83203129 -0.972656,0.83203129 -0.9375,0 -0.9375,-0.59765629 -0.9375,-0.89062499 z m 8.695312,5.13281254 c 0,-0.15234375 -0.09375,-0.19921875 -0.257812,-0.31640625 -1.652344,-1.13671875 -2.050781,-2.84765629 -2.050781,-4.00781249 0,-1.1367188 0.375,-2.859375 2.050781,-4.0195313 0.164062,-0.1171875 0.257812,-0.1640625 0.257812,-0.3164062 0,-0.1289063 -0.07031,-0.3164063 -0.351562,-0.3164063 -0.304688,0 -1.183594,0.6914063 -1.734375,1.4765625 -0.667969,0.9257813 -1.007813,2.0390625 -1.007813,3.1757813 0,1.3242187 0.480469,2.4375 0.984375,3.14062499 0.550782,0.76171875 1.417969,1.5 1.757813,1.5 0.28125,0 0.351562,-0.2109375 0.351562,-0.31640625 z m 4.710938,-7.72265624 c -0.09375,-0.4335938 -0.328125,-0.4335938 -0.609375,-0.4335938 -0.363281,0 -0.515625,0.058594 -0.597656,0.4335938 l -1.476563,6.35156249 c -0.398437,0 -0.667969,0 -0.667969,0.33984375 0,0.3515624975 0.316407,0.3515624975 0.480469,0.3515624975 h 1.148438 c 0.175781,0 0.492187,0 0.492187,-0.3515624975 0,-0.33984375 -0.28125,-0.33984375 -0.65625,-0.33984375 l 0.316406,-1.33593749 h 1.933594 l 0.304688,1.33593749 c -0.363282,0 -0.65625,0 -0.65625,0.33984375 0,0.3515624975 0.328125,0.3515624975 0.492187,0.3515624975 h 1.148438 c 0.164062,0 0.492187,0 0.492187,-0.3515624975 0,-0.33984375 -0.28125,-0.33984375 -0.667969,-0.33984375 z m -1.417969,4.3125 c 0.08203,-0.3515625 0.738281,-3.1757813 0.796875,-3.75 h 0.01172 c 0.03516,0.28125 0.199219,1.0078125 0.199219,1.0195312 l 0.621093,2.7304688 z m 7.195313,2.69531249 c -0.07031,0.375 -0.304688,0.8203125 -0.890625,1.03125 -0.105469,0.0234375 -0.28125,0.0820312 -0.28125,0.30468751 0,0.1523437 0.175781,0.3632812 0.363281,0.3632812 0.328125,0 1.511719,-0.5859375 1.511719,-1.87499996 0,-0.6328125 -0.398438,-1.13671874 -0.925782,-1.13671874 -0.445312,0 -0.679687,0.3398437 -0.679687,0.66796874 0,0.3984375 0.304687,0.6796874975 0.667969,0.6796874975 0.07031,0 0.152343,-0.0117187475 0.234375,-0.0351562475 z m 3.632812,-7.26562499 c -0.164062,0 -0.46875,0 -0.46875,0.3398437 0,0.3515625 0.316406,0.3515625 0.480469,0.3515625 h 0.292969 v 5.91796879 h -0.292969 c -0.164063,0 -0.480469,0 -0.480469,0.33984375 0,0.3515624975 0.316406,0.3515624975 0.46875,0.3515624975 h 2.835938 c 1.324218,0 2.027343,-1.0546875375 2.027343,-1.9921875375 0,-0.8554687 -0.585937,-1.6289062 -1.523437,-1.828125 0.597656,-0.1992187 1.277344,-0.7734375 1.277344,-1.6289062 0,-0.8789063 -0.703125,-1.8515625 -2.015625,-1.8515625 z m 1.078125,3.1523437 v -2.4609375 h 1.488281 c 0.984375,0 1.277344,0.7382813 1.277344,1.171875 0,0.5625 -0.46875,1.2890625 -1.476562,1.2890625 z m 0,3.45703129 V -3.4569453 h 1.570313 c 1.207031,0 1.441406,1.03125 1.441406,1.4414062 0,0.5859375 -0.457031,1.32421879 -1.511719,1.32421879 z m 8.402344,-2.95312499 c 0,-0.9375 -0.222656,-2.1445313 -1.089844,-3.3046875 -0.410156,-0.5507813 -1.289062,-1.3476563 -1.652344,-1.3476563 -0.269531,0 -0.339843,0.1992188 -0.339843,0.3164063 0,0.140625 0.08203,0.1992187 0.292968,0.3398437 1.464844,1.03125 2.015625,2.6367188 2.015625,3.984375 0,1.078125 -0.351562,2.83593754 -2.0625,4.01953129 -0.152343,0.10546875 -0.246093,0.1640625 -0.246093,0.31640625 0,0.10546875 0.07031,0.31640625 0.339843,0.31640625 0.304688,0 1.183594,-0.69140625 1.734375,-1.4765625 0.691407,-0.97265629 1.007813,-2.09765629 1.007813,-3.16406249 z m 13.374023,-0.5273438 c 0.152344,0 0.515625,0 0.515625,-0.3867187 0,-0.3867188 -0.398437,-0.3867188 -0.574218,-0.3867188 H 74.83682 c -0.1875,0 -0.574218,0 -0.574218,0.3867188 0,0.3867187 0.363281,0.3867187 0.515625,0.3867187 z m -0.05859,1.8164063 c 0.175781,0 0.574218,0 0.574218,-0.3984375 0,-0.375 -0.375,-0.375 -0.515625,-0.375 H 74.77823 c -0.164063,0 -0.515625,0 -0.515625,0.375 0,0.3984375 0.386718,0.3984375 0.574218,0.3984375 z m 10.857421,-4.6875 c -0.09375,-0.4335938 -0.328125,-0.4335938 -0.609375,-0.4335938 -0.363281,0 -0.515625,0.058594 -0.597656,0.4335938 l -1.476562,6.35156249 c -0.398438,0 -0.667969,0 -0.667969,0.33984375 0,0.3515624975 0.316406,0.3515624975 0.480469,0.3515624975 h 1.148437 c 0.175781,0 0.492188,0 0.492188,-0.3515624975 0,-0.33984375 -0.28125,-0.33984375 -0.65625,-0.33984375 l 0.316406,-1.33593749 h 1.933594 l 0.304687,1.33593749 c -0.363281,0 -0.65625,0 -0.65625,0.33984375 0,0.3515624975 0.328125,0.3515624975 0.492188,0.3515624975 h 1.148437 c 0.164063,0 0.492188,0 0.492188,-0.3515624975 0,-0.33984375 -0.28125,-0.33984375 -0.667969,-0.33984375 z m -1.417968,4.3125 c 0.08203,-0.3515625 0.738281,-3.1757813 0.796875,-3.75 h 0.01172 c 0.03516,0.28125 0.199219,1.0078125 0.199219,1.0195312 l 0.621094,2.7304688 z m 14.745112,-3.046875 c -0.15234,-0.1054688 -0.44531,-0.2460938 -0.76172,-0.2460938 -0.94922,0 -1.71093,1.03125 -1.71093,2.3671875 0,1.40625 0.80859,2.3789063 1.69921,2.3789063 0.58594,0 1.69922,-0.515625 1.69922,-2.5546875 0,-0.8085938 0,-3.5390625 -2.0625,-3.5390625 -1.58203,0 -3.046869,1.546875 -3.046869,3.7148437 0,2.1445313 1.429689,3.72656254 3.070309,3.72656254 1.125,0 2.03906,-0.7265625 2.03906,-1.01953125 0,-0.30468749 -0.29297,-0.30468749 -0.41015,-0.30468749 -0.1875,0 -0.23438,0 -0.35157,0.1054687 -0.41015,0.39843754 -0.85546,0.52734379 -1.27734,0.52734379 -1.27734,0 -2.40234,-1.30078129 -2.40234,-3.02343749 0,-1.7929688 1.17187,-3.0351563 2.39062,-3.0351563 0.35156,0 0.84375,0.1289063 1.125,0.9023438 z m -0.76172,3.8085937 c -0.55078,0 -1.04297,-0.75 -1.04297,-1.6757812 0,-1.0078125 0.53907,-1.6875 1.03125,-1.6875 0.53907,0 1.03125,0.7382812 1.03125,1.6757812 0,1.0078125 -0.53906,1.6875 -1.01953,1.6875 z m 9.14649,-5.3320312 c -0.16406,0 -0.46875,0 -0.46875,0.3398437 0,0.3515625 0.3164,0.3515625 0.48047,0.3515625 h 0.29297 v 5.91796879 h -0.29297 c -0.16407,0 -0.48047,0 -0.48047,0.33984375 0,0.3515624975 0.3164,0.3515624975 0.46875,0.3515624975 h 2.83594 c 1.32421,0 2.02734,-1.0546875375 2.02734,-1.9921875375 0,-0.8554687 -0.58594,-1.6289062 -1.52344,-1.828125 0.59766,-0.1992187 1.27735,-0.7734375 1.27735,-1.6289062 0,-0.8789063 -0.70313,-1.8515625 -2.01563,-1.8515625 z m 1.07812,3.1523437 v -2.4609375 h 1.48828 c 0.98438,0 1.27735,0.7382813 1.27735,1.171875 0,0.5625 -0.46875,1.2890625 -1.47656,1.2890625 z m 0,3.45703129 V -3.4569453 h 1.57032 c 1.20703,0 1.4414,1.03125 1.4414,1.4414062 0,0.5859375 -0.45703,1.32421879 -1.51172,1.32421879 z M 5.6610391,7.3506719 c 0,-0.1875 0,-0.4453125 -0.328125,-0.4453125 -0.2109375,0 -0.28125,0.1289062 -0.328125,0.2109375 -0.035156,0.09375 -0.1289063,0.3046875 -0.1640625,0.3984375 -0.4921875,-0.4335938 -1.0429688,-0.609375 -1.5351563,-0.609375 -1.546875,0 -2.82421874,1.640625 -2.82421874,3.7851566 0,2.191406 1.31250004,3.796875 2.82421874,3.796875 1.3945313,0 2.3554688,-1.113282 2.3554688,-2.15625 0,-0.375 -0.2460938,-0.375 -0.3867188,-0.375 -0.1640625,0 -0.3632812,0.05859 -0.3867187,0.257812 -0.09375,1.5 -1.3007813,1.582031 -1.5,1.582031 -1.1132813,0 -2.1328125,-1.300781 -2.1328125,-3.105468 0,-1.8046879 1.03125,-3.0937504 2.1210937,-3.0937504 0.6445313,0 1.3476563,0.515625 1.5117188,1.6054688 0.035156,0.2695312 0.140625,0.3398437 0.3867187,0.3398437 0.3867188,0 0.3867188,-0.2109375 0.3867188,-0.4570312 z m 5.6835939,-0.609375 c 0.164062,0 0.46875,0 0.46875,-0.3398438 0,-0.3515625 -0.304688,-0.3515625 -0.46875,-0.3515625 H 9.2586953 c -0.3867187,0 -0.4804687,0.1054688 -0.4804687,0.4921875 v 8.3085939 c 0,0.363281 0.082031,0.492187 0.4804687,0.492187 h 2.0859377 c 0.164062,0 0.46875,0 0.46875,-0.351562 0,-0.339844 -0.304688,-0.339844 -0.46875,-0.339844 H 9.5633828 V 6.7412969 Z m 4.570312,0.8320312 c 0,-0.3046875 -0.234375,-0.5390625 -0.539062,-0.5390625 -0.292969,0 -0.539063,0.234375 -0.539063,0.5390625 0,0.2929688 0.246094,0.5390625 0.539063,0.5390625 0.304687,0 0.539062,-0.2460937 0.539062,-0.5390625 z m -2.050781,1.6171875 c -0.175781,0 -0.480469,0 -0.480469,0.3515625 0,0.3515625 0.304688,0.3515625 0.480469,0.3515625 h 1.277344 v 3.7617184 h -1.371094 c -0.164062,0 -0.480469,0 -0.480469,0.339844 0,0.351563 0.316407,0.351563 0.480469,0.351563 h 3.328125 c 0.164063,0 0.480469,0 0.480469,-0.351563 0,-0.339844 -0.316406,-0.339844 -0.480469,-0.339844 H 15.914945 V 9.6827031 c 0,-0.3632812 -0.07031,-0.4921875 -0.480468,-0.4921875 z m 7.895508,5.1210934 c -0.07031,0.375 -0.304688,0.820313 -0.890625,1.03125 -0.105469,0.02344 -0.28125,0.08203 -0.28125,0.304688 0,0.152344 0.175781,0.363281 0.363281,0.363281 0.328125,0 1.511719,-0.585937 1.511719,-1.875 0,-0.632812 -0.398438,-1.136719 -0.925781,-1.136719 -0.445313,0 -0.679688,0.339844 -0.679688,0.667969 0,0.398438 0.304688,0.679688 0.667969,0.679688 0.07031,0 0.152344,-0.01172 0.234375,-0.03516 z m 7.148437,-6.7382809 c 0,-0.3046875 -0.234375,-0.5390625 -0.539062,-0.5390625 -0.292969,0 -0.539063,0.234375 -0.539063,0.5390625 0,0.2929688 0.246094,0.5390625 0.539063,0.5390625 0.304687,0 0.539062,-0.2460937 0.539062,-0.5390625 z m -2.238281,1.6171875 c -0.164062,0 -0.46875,0 -0.46875,0.3515625 0,0.3515625 0.28125,0.3515625 0.46875,0.3515625 h 1.464844 v 4.9218754 c 0,0.1875 0,0.703125 -0.339844,1.148437 -0.316406,0.410156 -0.65625,0.410156 -0.9375,0.410156 -0.246094,0 -0.527344,-0.01172 -0.726562,-0.05859 0,-0.164063 0,-0.609375 -0.46875,-0.609375 -0.222657,0 -0.492188,0.164062 -0.492188,0.503906 0,0.867187 1.171875,0.867187 1.652344,0.867187 0.421875,0 0.914062,0 1.511719,-0.609375 0.117187,-0.128906 0.574218,-0.679687 0.574218,-1.59375 V 9.6827031 c 0,-0.3632812 -0.07031,-0.4921875 -0.480468,-0.4921875 z m 7.605469,-2.6484375 c 0,-0.375 -0.07031,-0.4921875 -0.480469,-0.4921875 h -2.074219 c -0.175781,0 -0.480468,0 -0.480468,0.3515625 0,0.3398438 0.304687,0.3398438 0.480468,0.3398438 h 1.78125 v 7.9101561 h -1.78125 c -0.175781,0 -0.480468,0 -0.480468,0.339844 0,0.351562 0.304687,0.351562 0.480468,0.351562 h 2.074219 c 0.398438,0 0.480469,-0.117187 0.480469,-0.492187 z m 13.974609,3.6328129 c 0.152344,0 0.515625,0 0.515625,-0.3867191 0,-0.3867188 -0.398437,-0.3867188 -0.574218,-0.3867188 h -4.113282 c -0.1875,0 -0.574218,0 -0.574218,0.3867188 0,0.3867191 0.363281,0.3867191 0.515625,0.3867191 z m -0.05859,1.816406 c 0.175781,0 0.574218,0 0.574218,-0.398438 0,-0.375 -0.375,-0.375 -0.515625,-0.375 h -4.230468 c -0.164063,0 -0.515625,0 -0.515625,0.375 0,0.398438 0.386718,0.398438 0.574218,0.398438 z M 60.381742,9.5420781 c 0,-0.1875 0,-0.4570312 -0.328125,-0.4570312 -0.292969,0 -0.363281,0.28125 -0.363281,0.2929687 -0.480469,-0.2929687 -1.019531,-0.2929687 -1.265625,-0.2929687 -1.945313,0 -2.214844,0.9960941 -2.214844,1.4062501 0,0.480469 0.292969,0.820312 0.703125,1.042969 0.375,0.222656 0.726563,0.28125 1.699219,0.433593 0.46875,0.08203 1.429687,0.234375 1.429687,0.902344 0,0.433594 -0.410156,0.855469 -1.523437,0.855469 -0.761719,0 -1.265625,-0.304688 -1.511719,-1.160156 -0.05859,-0.164063 -0.09375,-0.292969 -0.398437,-0.292969 -0.398438,0 -0.398438,0.222656 -0.398438,0.457031 v 1.230469 c 0,0.199219 0,0.457031 0.339844,0.457031 0.140625,0 0.246094,0 0.433594,-0.492187 0.550781,0.457031 1.171875,0.492187 1.535156,0.492187 2.214844,0 2.214844,-1.429687 2.214844,-1.546875 0,-1.253906 -1.476563,-1.5 -2.050782,-1.582031 -1.054687,-0.175781 -1.769531,-0.304688 -1.769531,-0.796875 0,-0.328125 0.363281,-0.7148439 1.488281,-0.7148439 1.136719,0 1.183594,0.5390629 1.207032,0.8554689 0.02344,0.234375 0.246093,0.269531 0.386718,0.269531 0.386719,0 0.386719,-0.210937 0.386719,-0.457031 z m 6.128906,0.140625 c 0,-0.3632812 -0.07031,-0.4921875 -0.46875,-0.4921875 h -0.796875 c -0.164062,0 -0.480468,0 -0.480468,0.3515625 0,0.3515625 0.316406,0.3515625 0.480468,0.3515625 h 0.492188 v 2.5898434 c 0,0.984375 -0.808594,1.242188 -1.347656,1.242188 -0.949219,0 -0.949219,-0.433594 -0.949219,-0.796875 V 9.6827031 c 0,-0.3632812 -0.07031,-0.4921875 -0.480469,-0.4921875 h -0.785156 c -0.164063,0 -0.480469,0 -0.480469,0.3515625 0,0.3515625 0.316406,0.3515625 0.480469,0.3515625 h 0.492187 v 3.0937504 c 0,1.101562 0.714844,1.429687 1.640625,1.429687 0.726563,0 1.183594,-0.292969 1.417969,-0.503906 0,0.433594 0.292969,0.433594 0.492188,0.433594 h 0.785156 c 0.164062,0 0.480469,0 0.480469,-0.351563 0,-0.339844 -0.316407,-0.339844 -0.480469,-0.339844 h -0.492188 z m 6.574219,1.0429689 c 0,-0.269531 0,-1.6054689 -1.054687,-1.6054689 -0.410157,0 -0.820313,0.1992188 -1.148438,0.6328125 -0.07031,-0.1757812 -0.328125,-0.6328125 -0.902344,-0.6328125 -0.539062,0 -0.914062,0.3515625 -1.007812,0.4570313 -0.01172,-0.3867188 -0.257813,-0.3867188 -0.480469,-0.3867188 h -0.351562 c -0.164063,0 -0.480469,0 -0.480469,0.3515625 0,0.3515625 0.269531,0.3515625 0.644531,0.3515625 v 3.7617184 c -0.386719,0 -0.644531,0 -0.644531,0.339844 0,0.351563 0.316406,0.351563 0.480469,0.351563 h 0.996093 c 0.175782,0 0.480469,0 0.480469,-0.351563 0,-0.339844 -0.269531,-0.339844 -0.644531,-0.339844 v -2.203125 c 0,-1.007812 0.433594,-1.6406246 0.960937,-1.6406246 0.328125,0 0.433594,0.4218746 0.433594,0.9843746 v 2.859375 c -0.210937,0 -0.527344,0 -0.527344,0.339844 0,0.351563 0.316407,0.351563 0.480469,0.351563 h 0.878906 c 0.164063,0 0.480469,0 0.480469,-0.351563 0,-0.339844 -0.28125,-0.339844 -0.644531,-0.339844 v -2.203125 c 0,-1.007812 0.421875,-1.6406246 0.949219,-1.6406246 0.339843,0 0.433593,0.4218746 0.433593,0.9843746 v 2.859375 c -0.199218,0 -0.527343,0 -0.527343,0.339844 0,0.351563 0.328125,0.351563 0.492187,0.351563 h 0.867188 c 0.175781,0 0.480468,0 0.480468,-0.351563 0,-0.339844 -0.269531,-0.339844 -0.644531,-0.339844 z m 5.859375,4.300781 c 0,-0.152344 -0.09375,-0.199219 -0.257812,-0.316406 -1.652344,-1.136719 -2.050782,-2.847656 -2.050782,-4.007813 0,-1.1367184 0.375,-2.8593746 2.050782,-4.0195309 0.164062,-0.1171875 0.257812,-0.1640625 0.257812,-0.3164062 0,-0.1289063 -0.07031,-0.3164063 -0.351562,-0.3164063 -0.304688,0 -1.183594,0.6914063 -1.734375,1.4765625 -0.667969,0.9257813 -1.007813,2.0390625 -1.007813,3.1757809 0,1.324219 0.480469,2.4375 0.984375,3.140625 0.550781,0.761719 1.417969,1.5 1.757813,1.5 0.28125,0 0.351562,-0.210937 0.351562,-0.316406 z M 83.65518,7.3037969 C 83.56143,6.8702031 83.327055,6.8702031 83.045805,6.8702031 c -0.363282,0 -0.515625,0.058594 -0.597657,0.4335938 l -1.476562,6.3515621 c -0.398438,0 -0.667969,0 -0.667969,0.339844 0,0.351563 0.316406,0.351563 0.480469,0.351563 h 1.148437 c 0.175782,0 0.492188,0 0.492188,-0.351563 0,-0.339844 -0.28125,-0.339844 -0.65625,-0.339844 l 0.316406,-1.335937 h 1.933594 l 0.304687,1.335937 c -0.363281,0 -0.65625,0 -0.65625,0.339844 0,0.351563 0.328125,0.351563 0.492188,0.351563 h 1.148437 c 0.164063,0 0.492188,0 0.492188,-0.351563 0,-0.339844 -0.28125,-0.339844 -0.667969,-0.339844 z m -1.417969,4.3125001 c 0.08203,-0.351563 0.738281,-3.1757814 0.796875,-3.7500001 h 0.01172 c 0.03516,0.28125 0.199218,1.0078125 0.199218,1.0195312 l 0.621094,2.7304689 z m 9.082031,-4.8750001 c 0.164063,0 0.46875,0 0.46875,-0.3398438 0,-0.3515625 -0.304687,-0.3515625 -0.46875,-0.3515625 h -2.085937 c -0.386719,0 -0.480469,0.1054688 -0.480469,0.4921875 v 8.3085939 c 0,0.363281 0.08203,0.492187 0.480469,0.492187 h 2.085937 c 0.164063,0 0.46875,0 0.46875,-0.351562 0,-0.339844 -0.304687,-0.339844 -0.46875,-0.339844 h -1.78125 V 6.7412969 Z m 4.570313,0.8320312 c 0,-0.3046875 -0.234375,-0.5390625 -0.539063,-0.5390625 -0.292969,0 -0.539062,0.234375 -0.539062,0.5390625 0,0.2929688 0.246093,0.5390625 0.539062,0.5390625 0.304688,0 0.539063,-0.2460937 0.539063,-0.5390625 z m -2.050782,1.6171875 c -0.175781,0 -0.480468,0 -0.480468,0.3515625 0,0.3515625 0.304687,0.3515625 0.480468,0.3515625 h 1.277344 v 3.7617184 h -1.371094 c -0.164062,0 -0.480468,0 -0.480468,0.339844 0,0.351563 0.316406,0.351563 0.480468,0.351563 h 3.328125 c 0.164063,0 0.480469,0 0.480469,-0.351563 0,-0.339844 -0.316406,-0.339844 -0.480469,-0.339844 H 95.889555 V 9.6827031 c 0,-0.3632812 -0.07031,-0.4921875 -0.480469,-0.4921875 z m 7.898437,5.1210934 c -0.0703,0.375 -0.30469,0.820313 -0.89062,1.03125 -0.10547,0.02344 -0.28125,0.08203 -0.28125,0.304688 0,0.152344 0.17578,0.363281 0.36328,0.363281 0.32812,0 1.51172,-0.585937 1.51172,-1.875 0,-0.632812 -0.39844,-1.136719 -0.92579,-1.136719 -0.44531,0 -0.67968,0.339844 -0.67968,0.667969 0,0.398438 0.30468,0.679688 0.66797,0.679688 0.0703,0 0.15234,-0.01172 0.23437,-0.03516 z m 6.22266,-3.011718 1.47656,-1.4062504 h 0.36328 c 0.16406,0 0.48047,0 0.48047,-0.3515625 0,-0.3515625 -0.31641,-0.3515625 -0.48047,-0.3515625 h -1.74609 c -0.16407,0 -0.49219,0 -0.49219,0.3515625 0,0.3515625 0.32812,0.3515625 0.49219,0.3515625 h 0.42187 l -1.94531,1.8398434 V 7.5381719 c 0,-0.375 -0.0703,-0.4921875 -0.48047,-0.4921875 h -0.72656 c -0.16406,0 -0.49219,0 -0.49219,0.3398437 0,0.3515625 0.32813,0.3515625 0.49219,0.3515625 h 0.53906 v 5.9179684 h -0.53906 c -0.16406,0 -0.49219,0 -0.49219,0.339844 0,0.351563 0.32813,0.351563 0.49219,0.351563 h 1.74609 c 0.16406,0 0.49219,0 0.49219,-0.351563 0,-0.339844 -0.32813,-0.339844 -0.49219,-0.339844 h -0.53906 v -1.007812 l 0.9375,-0.878906 1.41797,1.886718 c -0.375,0 -0.66797,0 -0.66797,0.339844 0,0.351563 0.32812,0.351563 0.49219,0.351563 h 1.33593 c 0.16407,0 0.48047,0 0.48047,-0.351563 0,-0.339844 -0.3164,-0.339844 -0.48047,-0.339844 h -0.3164 z m 6.29297,-4.7578129 c 0,-0.375 -0.0703,-0.4921875 -0.48047,-0.4921875 h -2.07422 c -0.17578,0 -0.48047,0 -0.48047,0.3515625 0,0.3398438 0.30469,0.3398438 0.48047,0.3398438 h 1.78125 v 7.9101561 h -1.78125 c -0.17578,0 -0.48047,0 -0.48047,0.339844 0,0.351562 0.30469,0.351562 0.48047,0.351562 h 2.07422 c 0.39843,0 0.48047,-0.117187 0.48047,-0.492187 z m 13.87793,3.4101563 c 0.14062,-0.070312 0.24609,-0.1875 0.24609,-0.3632813 0,-0.2226562 -0.19922,-0.375 -0.375,-0.375 -0.082,0 -0.17578,0.070312 -0.24609,0.1054688 l -1.32422,0.8203121 c 0,-0.3398434 0.0352,-1.3945309 0.0352,-1.6640621 0,-0.1992188 -0.17578,-0.3515625 -0.36328,-0.3515625 -0.1875,0 -0.35156,0.140625 -0.35156,0.3515625 0,0.3515625 0,0.4453125 0.0117,0.4570312 0.0117,0.234375 0.0234,0.9257813 0.0234,1.2070309 l -1.33594,-0.8203121 c -0.0703,-0.035156 -0.16406,-0.1054688 -0.2461,-0.1054688 -0.16406,0 -0.375,0.1523438 -0.375,0.375 0,0.1757813 0.11719,0.2929688 0.25782,0.3632813 l 1.38281,0.7382816 -1.38281,0.75 c -0.14063,0.07031 -0.25782,0.175781 -0.25782,0.363281 0,0.222656 0.21094,0.363281 0.375,0.363281 0.082,0 0.17579,-0.05859 0.2461,-0.09375 l 1.33594,-0.820312 -0.0117,0.761718 c -0.0234,0.199219 -0.0234,0.667969 -0.0234,0.902344 0,0.210938 0.17578,0.351563 0.35156,0.351563 0.1875,0 0.36328,-0.152344 0.36328,-0.351563 0,-0.28125 -0.0352,-1.335937 -0.0352,-1.664062 l 1.18359,0.726562 c 0.28125,0.1875 0.30469,0.1875 0.38672,0.1875 0.17578,0 0.375,-0.140625 0.375,-0.363281 0,-0.152344 -0.082,-0.257813 -0.1875,-0.328125 -0.30469,-0.175781 -0.96094,-0.527344 -1.45313,-0.773438 z m 7.99804,-2.90625 c -0.16406,0 -0.46875,0 -0.46875,0.3398437 0,0.3515625 0.31641,0.3515625 0.48047,0.3515625 h 0.29297 v 5.9179684 h -0.29297 c -0.16406,0 -0.48047,0 -0.48047,0.339844 0,0.351563 0.31641,0.351563 0.46875,0.351563 h 2.83594 c 1.32422,0 2.02734,-1.054688 2.02734,-1.992188 0,-0.855469 -0.58593,-1.628906 -1.52343,-1.828125 0.59765,-0.199219 1.27734,-0.7734374 1.27734,-1.6289061 0,-0.8789063 -0.70313,-1.8515625 -2.01563,-1.8515625 z m 1.07813,3.1523436 V 7.7373906 h 1.48828 c 0.98437,0 1.27734,0.7382813 1.27734,1.171875 0,0.5625 -0.46875,1.2890624 -1.47656,1.2890624 z m 0,3.457031 v -2.765625 h 1.57031 c 1.20703,0 1.44141,1.03125 1.44141,1.441407 0,0.585937 -0.45704,1.324218 -1.51172,1.324218 z m 9.48047,-6.9140621 c 0.16406,0 0.46875,0 0.46875,-0.3398438 0,-0.3515625 -0.30469,-0.3515625 -0.46875,-0.3515625 h -2.08594 c -0.38672,0 -0.48047,0.1054688 -0.48047,0.4921875 v 8.3085939 c 0,0.363281 0.082,0.492187 0.48047,0.492187 h 2.08594 c 0.16406,0 0.46875,0 0.46875,-0.351562 0,-0.339844 -0.30469,-0.339844 -0.46875,-0.339844 h -1.78125 V 6.7412969 Z m 4.333,4.5585941 1.47657,-1.4062504 h 0.36328 c 0.16406,0 0.48047,0 0.48047,-0.3515625 0,-0.3515625 -0.31641,-0.3515625 -0.48047,-0.3515625 h -1.7461 c -0.16406,0 -0.49218,0 -0.49218,0.3515625 0,0.3515625 0.32812,0.3515625 0.49218,0.3515625 h 0.42188 l -1.94531,1.8398434 V 7.5381719 c 0,-0.375 -0.0703,-0.4921875 -0.48047,-0.4921875 h -0.72656 c -0.16407,0 -0.49219,0 -0.49219,0.3398437 0,0.3515625 0.32812,0.3515625 0.49219,0.3515625 h 0.53906 v 5.9179684 h -0.53906 c -0.16407,0 -0.49219,0 -0.49219,0.339844 0,0.351563 0.32812,0.351563 0.49219,0.351563 h 1.74609 c 0.16406,0 0.49219,0 0.49219,-0.351563 0,-0.339844 -0.32813,-0.339844 -0.49219,-0.339844 h -0.53906 v -1.007812 l 0.9375,-0.878906 1.41797,1.886718 c -0.375,0 -0.66797,0 -0.66797,0.339844 0,0.351563 0.32812,0.351563 0.49218,0.351563 h 1.33594 c 0.16406,0 0.48047,0 0.48047,-0.351563 0,-0.339844 -0.31641,-0.339844 -0.48047,-0.339844 h -0.3164 z m 6.08204,3.011718 c -0.0703,0.375 -0.30469,0.820313 -0.89063,1.03125 -0.10547,0.02344 -0.28125,0.08203 -0.28125,0.304688 0,0.152344 0.17578,0.363281 0.36328,0.363281 0.32813,0 1.51172,-0.585937 1.51172,-1.875 0,-0.632812 -0.39844,-1.136719 -0.92578,-1.136719 -0.44531,0 -0.67969,0.339844 -0.67969,0.667969 0,0.398438 0.30469,0.679688 0.66797,0.679688 0.0703,0 0.15234,-0.01172 0.23438,-0.03516 z m 7.14843,-6.7382809 c 0,-0.3046875 -0.23437,-0.5390625 -0.53906,-0.5390625 -0.29297,0 -0.53906,0.234375 -0.53906,0.5390625 0,0.2929688 0.24609,0.5390625 0.53906,0.5390625 0.30469,0 0.53906,-0.2460937 0.53906,-0.5390625 z m -2.23828,1.6171875 c -0.16406,0 -0.46875,0 -0.46875,0.3515625 0,0.3515625 0.28125,0.3515625 0.46875,0.3515625 h 1.46485 v 4.9218754 c 0,0.1875 0,0.703125 -0.33985,1.148437 -0.3164,0.410156 -0.65625,0.410156 -0.9375,0.410156 -0.24609,0 -0.52734,-0.01172 -0.72656,-0.05859 0,-0.164063 0,-0.609375 -0.46875,-0.609375 -0.22266,0 -0.49219,0.164062 -0.49219,0.503906 0,0.867187 1.17188,0.867187 1.65235,0.867187 0.42187,0 0.91406,0 1.51171,-0.609375 0.11719,-0.128906 0.57422,-0.679687 0.57422,-1.59375 V 9.6827031 c 0,-0.3632812 -0.0703,-0.4921875 -0.48047,-0.4921875 z m 7.60547,-2.6484375 c 0,-0.375 -0.0703,-0.4921875 -0.48047,-0.4921875 h -2.07422 c -0.17578,0 -0.48047,0 -0.48047,0.3515625 0,0.3398438 0.30469,0.3398438 0.48047,0.3398438 h 1.78125 v 7.9101561 h -1.78125 c -0.17578,0 -0.48047,0 -0.48047,0.339844 0,0.351562 0.30469,0.351562 0.48047,0.351562 h 2.07422 c 0.39844,0 0.48047,-0.117187 0.48047,-0.492187 z m 6.75,4.1601559 c 0,-0.9374996 -0.22266,-2.1445309 -1.08984,-3.3046871 -0.41016,-0.5507813 -1.28907,-1.3476563 -1.65235,-1.3476563 -0.26953,0 -0.33984,0.1992188 -0.33984,0.3164063 0,0.140625 0.082,0.1992187 0.29297,0.3398437 1.46484,1.03125 2.01562,2.6367188 2.01562,3.9843754 0,1.078125 -0.35156,2.835937 -2.0625,4.019531 -0.15234,0.105469 -0.24609,0.164062 -0.24609,0.316406 0,0.105469 0.0703,0.316406 0.33984,0.316406 0.30469,0 1.1836,-0.691406 1.73438,-1.476562 0.6914,-0.972656 1.00781,-2.097656 1.00781,-3.164063 z m 0,0"
       style="fill:#000000;fill-opacity:1;fill-rule:nonzero;stroke:none"
       aria-label="np.dot(A,B)=A@B&#10;C[i,j]=sum(A[i,k]*B[k,j])"
       transform="matrix(1.3333333,0,0,1.3333333,236.33867,133.55067)" />
  </g>
</svg>
