<?xml version="1.0" encoding="UTF-8" standalone="no"?>
<!-- Created with Inkscape (http://www.inkscape.org/) -->

<svg
   version="1.1"
   id="svg1"
   width="680.3147"
   height="263.14801"
   viewBox="0 0 680.3147 263.14801"
   sodipodi:docname="24_row_major_vs_column_major.pdf"
   xmlns:inkscape="http://www.inkscape.org/namespaces/inkscape"
   xmlns:sodipodi="http://sodipodi.sourceforge.net/DTD/sodipodi-0.dtd"
   xmlns="http://www.w3.org/2000/svg"
   xmlns:svg="http://www.w3.org/2000/svg">
  <defs
     id="defs1" />
  <sodipodi:namedview
     id="namedview1"
     pagecolor="#ffffff"
     bordercolor="#000000"
     borderopacity="0.25"
     inkscape:showpageshadow="2"
     inkscape:pageopacity="0.0"
     inkscape:pagecheckerboard="0"
     inkscape:deskcolor="#d1d1d1">
    <inkscape:page
       x="0"
       y="0"
       inkscape:label="1"
       id="page1"
       width="680.3147"
       height="263.14801"
       margin="0"
       bleed="0" />
  </sodipodi:namedview>
  <g
     id="g1"
     inkscape:groupmode="layer"
     inkscape:label="1">
    <path
       id="path1"
       d="m 3.4694844,-6.8089531 c 0,-0.375 -0.070312,-0.4921875 -0.4804688,-0.4921875 H 1.2312031 c -0.1640625,0 -0.48046872,0 -0.48046872,0.3398437 0,0.3515625 0.31640622,0.3515625 0.48046872,0.3515625 h 1.4648438 v 5.91796877 H 1.2312031 c -0.1640625,0 -0.48046872,0 -0.48046872,0.33984375 0,0.351562505 0.31640622,0.351562505 0.48046872,0.351562505 h 3.6914063 c 0.1757812,0 0.4804687,0 0.4804687,-0.351562505 0,-0.33984375 -0.3046875,-0.33984375 -0.4804687,-0.33984375 h -1.453125 z m 8.1328126,4.2304687 c 0,-1.5 -1.089844,-2.6835937 -2.3789064,-2.6835937 -1.2890625,0 -2.3789062,1.1835937 -2.3789062,2.6835937 0,1.5 1.1015625,2.64843752 2.3789062,2.64843752 1.2773434,0 2.3789064,-1.14843752 2.3789064,-2.64843752 z m -2.3789064,1.95703127 c -0.8554687,0 -1.6054687,-0.91406247 -1.6054687,-2.03906247 0,-1.1132813 0.7734375,-1.9101563 1.6054687,-1.9101563 0.8437504,0 1.6054684,0.796875 1.6054684,1.9101563 0,1.1367187 -0.738281,2.03906247 -1.6054684,2.03906247 z m 5.3554684,-0.10546875 c -0.140625,0 -0.691406,0 -0.691406,-0.64453122 0,-0.234375 0.03516,-0.28125 0.08203,-0.375 0.234375,0.1640625 0.632813,0.328125 1.066407,0.328125 1.078125,0 1.921875,-0.8789063 1.921875,-1.9101563 0,-0.2929687 -0.07031,-0.6679687 -0.328125,-1.0546875 0.316406,-0.1757812 0.597656,-0.2109375 0.785156,-0.2226562 0.07031,0.375 0.410156,0.3867187 0.421875,0.3867187 0.152344,0 0.445312,-0.09375 0.445312,-0.4570312 0,-0.2226563 -0.175781,-0.6210938 -0.84375,-0.6210938 -0.222656,0 -0.761718,0.046875 -1.265625,0.4453125 -0.386718,-0.28125 -0.796875,-0.375 -1.125,-0.375 -1.089843,0 -1.933593,0.8789063 -1.933593,1.8984375 0,0.2695313 0.05859,0.7265625 0.398437,1.1484375 -0.222656,0.3398438 -0.257812,0.703125 -0.257812,0.84375 0,0.41015627 0.199218,0.75000002 0.292968,0.85546877 -0.65625,0.36328125 -0.890625,1.0078125 -0.890625,1.4765625 0,0.98437503 1.207032,1.74609373 2.71875,1.74609373 1.523438,0 2.730469,-0.75 2.730469,-1.74609373 0,-1.72265625 -2.121094,-1.72265625 -2.507812,-1.72265625 z m 0.457032,-1.37109372 c -0.597657,0 -1.136719,-0.515625 -1.136719,-1.2304688 0,-0.703125 0.550781,-1.2304687 1.136719,-1.2304687 0.632812,0 1.136718,0.5507812 1.136718,1.2304687 0,0.6914063 -0.503906,1.2304688 -1.136718,1.2304688 z m 0.339843,4.1601562 c -1.171875,0 -2.039062,-0.515625 -2.039062,-1.06640623 0,-0.1875 0.05859,-0.59765625 0.503906,-0.87890625 0.269531,-0.17578125 0.386719,-0.17578125 1.21875,-0.17578125 1.042969,0 2.367188,0 2.367188,1.0546875 0,0.55078123 -0.878907,1.06640623 -2.050782,1.06640623 z m 6.691407,-8.8359375 c 0,-0.3046875 -0.234375,-0.5390625 -0.539063,-0.5390625 -0.292969,0 -0.539062,0.234375 -0.539062,0.5390625 0,0.2929688 0.246093,0.5390625 0.539062,0.5390625 0.304688,0 0.539063,-0.2460937 0.539063,-0.5390625 z m -2.050782,1.6171875 c -0.175781,0 -0.480468,0 -0.480468,0.3515625 0,0.3515625 0.304687,0.3515625 0.480468,0.3515625 h 1.277344 v 3.76171877 h -1.371094 c -0.164062,0 -0.480468,0 -0.480468,0.33984375 0,0.351562505 0.316406,0.351562505 0.480468,0.351562505 h 3.328125 c 0.164063,0 0.480469,0 0.480469,-0.351562505 0,-0.33984375 -0.316406,-0.33984375 -0.480469,-0.33984375 H 22.067141 V -4.6644219 c 0,-0.3632812 -0.07031,-0.4921875 -0.480469,-0.4921875 z m 10.040039,3.8554688 c 0,-0.3164063 -0.292968,-0.3164063 -0.398437,-0.3164063 -0.269531,0 -0.316406,0.09375 -0.375,0.2695313 -0.269531,0.65624997 -0.855469,0.72656247 -1.136719,0.72656247 -1.019531,0 -1.875,-0.84374997 -1.875,-1.95703127 0,-0.609375 0.339844,-1.9921875 1.910156,-1.9921875 0.328125,0 0.574219,0.023437 0.679688,0.035156 0.08203,0.023437 0.09375,0.035156 0.09375,0.1054687 0.03516,0.4804688 0.410156,0.4921875 0.480469,0.4921875 0.269531,0 0.492187,-0.1757812 0.492187,-0.4921875 0,-0.8320312 -1.207031,-0.8320312 -1.734375,-0.8320312 -2.039062,0 -2.707031,1.6757812 -2.707031,2.6835937 0,1.453125 1.113281,2.64843752 2.554687,2.64843752 1.59375,0 2.015625,-1.18359372 2.015625,-1.37109342 z m 5.648438,-2.0976563 c 0,-0.9023437 -0.679688,-1.8632812 -2.296875,-1.8632812 -0.492188,0 -1.652344,0 -1.652344,0.8320312 0,0.3164063 0.222656,0.4921875 0.480469,0.4921875 0.08203,0 0.46875,-0.023437 0.480469,-0.515625 0,-0.070312 0.01172,-0.082031 0.269531,-0.1054687 0.140625,-0.011719 0.292969,-0.011719 0.433594,-0.011719 0.28125,0 0.691406,0 1.078125,0.3046875 0.433593,0.328125 0.433593,0.6679688 0.433593,1.0195313 -0.703125,0.023437 -1.394531,0.070312 -2.144531,0.3046875 -0.597656,0.1992187 -1.359375,0.6328125 -1.359375,1.4414062 0,0.85546877 0.75,1.57031252 1.863281,1.57031252 0.386719,0 1.125,-0.05859375 1.746094,-0.4921875 0.246094,0.3984375 0.84375,0.421875005 1.289063,0.421875005 0.292968,0 0.574218,0 0.574218,-0.351562505 0,-0.33984375 -0.304687,-0.33984375 -0.480468,-0.33984375 -0.304688,0 -0.539063,-0.0234375 -0.714844,-0.09375 z m -0.773438,1.8164063 c 0,0.28125 0,0.5273437 -0.492187,0.76171872 -0.421875,0.19921875 -0.972656,0.19921875 -1.019531,0.19921875 -0.703125,0 -1.21875,-0.38671877 -1.21875,-0.87890627 0,-0.703125 1.289062,-1.1015625 2.730468,-1.1015625 z m 5.449219,-5.2265625 c 0,-0.375 -0.07031,-0.4921875 -0.480469,-0.4921875 h -1.757812 c -0.164063,0 -0.480469,0 -0.480469,0.3398437 0,0.3515625 0.316406,0.3515625 0.480469,0.3515625 h 1.464844 v 5.91796877 h -1.464844 c -0.164063,0 -0.480469,0 -0.480469,0.33984375 0,0.351562505 0.316406,0.351562505 0.480469,0.351562505 h 3.691406 c 0.175781,0 0.480469,0 0.480469,-0.351562505 0,-0.33984375 -0.304688,-0.33984375 -0.480469,-0.33984375 h -1.453125 z m 13.775391,3.4101562 c 0,-0.9023437 -0.679688,-1.8632812 -2.296875,-1.8632812 -0.492188,0 -1.652344,0 -1.652344,0.8320312 0,0.3164063 0.222656,0.4921875 0.480469,0.4921875 0.08203,0 0.46875,-0.023437 0.480469,-0.515625 0,-0.070312 0.01172,-0.082031 0.269531,-0.1054687 0.140625,-0.011719 0.292969,-0.011719 0.433594,-0.011719 0.28125,0 0.691406,0 1.078125,0.3046875 0.433593,0.328125 0.433593,0.6679688 0.433593,1.0195313 -0.703125,0.023437 -1.394531,0.070312 -2.144531,0.3046875 -0.597656,0.1992187 -1.359375,0.6328125 -1.359375,1.4414062 0,0.85546877 0.75,1.57031252 1.863281,1.57031252 0.386719,0 1.125,-0.05859375 1.746094,-0.4921875 0.246094,0.3984375 0.84375,0.421875005 1.289063,0.421875005 0.292968,0 0.574218,0 0.574218,-0.351562505 0,-0.33984375 -0.304687,-0.33984375 -0.480468,-0.33984375 -0.304688,0 -0.539063,-0.0234375 -0.714844,-0.09375 z m -0.773438,1.8164063 c 0,0.28125 0,0.5273437 -0.492187,0.76171872 -0.421875,0.19921875 -0.972656,0.19921875 -1.019531,0.19921875 -0.703125,0 -1.21875,-0.38671877 -1.21875,-0.87890627 0,-0.703125 1.289062,-1.1015625 2.730468,-1.1015625 z m 4.558594,-0.6796875 c 0,-1.4179688 1.007813,-2.2734375 2.027344,-2.2734375 0.05859,0 0.128906,0 0.1875,0.011719 0.03516,0.4335938 0.375,0.46875 0.457031,0.46875 0.269531,0 0.46875,-0.1992187 0.46875,-0.46875 0,-0.5039062 -0.503906,-0.703125 -1.101562,-0.703125 -0.808594,0 -1.488282,0.3632813 -2.039063,1.03125 v -0.46875 c 0,-0.3632812 -0.07031,-0.4921875 -0.46875,-0.4921875 h -1.207031 c -0.175781,0 -0.480469,0 -0.480469,0.3515625 0,0.3515625 0.304688,0.3515625 0.480469,0.3515625 h 0.902344 v 3.76171877 h -0.902344 c -0.175781,0 -0.480469,0 -0.480469,0.33984375 0,0.351562505 0.304688,0.351562505 0.480469,0.351562505 h 2.929687 c 0.175782,0 0.480469,0 0.480469,-0.351562505 0,-0.33984375 -0.304687,-0.33984375 -0.480469,-0.33984375 h -1.253906 z m 6.152344,0 c 0,-1.4179688 1.007812,-2.2734375 2.027344,-2.2734375 0.05859,0 0.128906,0 0.1875,0.011719 0.03516,0.4335938 0.375,0.46875 0.457031,0.46875 0.269531,0 0.46875,-0.1992187 0.46875,-0.46875 0,-0.5039062 -0.503906,-0.703125 -1.101563,-0.703125 -0.808593,0 -1.488281,0.3632813 -2.039062,1.03125 v -0.46875 c 0,-0.3632812 -0.07031,-0.4921875 -0.46875,-0.4921875 h -1.207031 c -0.175782,0 -0.480469,0 -0.480469,0.3515625 0,0.3515625 0.304687,0.3515625 0.480469,0.3515625 h 0.902343 v 3.76171877 h -0.902343 c -0.175782,0 -0.480469,0 -0.480469,0.33984375 0,0.351562505 0.304687,0.351562505 0.480469,0.351562505 h 2.929687 c 0.175781,0 0.480469,0 0.480469,-0.351562505 0,-0.33984375 -0.304688,-0.33984375 -0.480469,-0.33984375 h -1.253906 z m 8.519531,-1.1367188 c 0,-0.9023437 -0.679687,-1.8632812 -2.296875,-1.8632812 -0.492187,0 -1.652344,0 -1.652344,0.8320312 0,0.3164063 0.222657,0.4921875 0.480469,0.4921875 0.08203,0 0.46875,-0.023437 0.480469,-0.515625 0,-0.070312 0.01172,-0.082031 0.269531,-0.1054687 0.140625,-0.011719 0.292969,-0.011719 0.433594,-0.011719 0.28125,0 0.691406,0 1.078125,0.3046875 0.433594,0.328125 0.433594,0.6679688 0.433594,1.0195313 -0.703125,0.023437 -1.394532,0.070312 -2.144532,0.3046875 -0.597656,0.1992187 -1.359375,0.6328125 -1.359375,1.4414062 0,0.85546877 0.75,1.57031252 1.863282,1.57031252 0.386718,0 1.125,-0.05859375 1.746093,-0.4921875 0.246094,0.3984375 0.84375,0.421875005 1.289063,0.421875005 0.292969,0 0.574219,0 0.574219,-0.351562505 0,-0.33984375 -0.304688,-0.33984375 -0.480469,-0.33984375 -0.304688,0 -0.539063,-0.0234375 -0.714844,-0.09375 z m -0.773437,1.8164063 c 0,0.28125 0,0.5273437 -0.492188,0.76171872 -0.421875,0.19921875 -0.972656,0.19921875 -1.019531,0.19921875 -0.703125,0 -1.21875,-0.38671877 -1.21875,-0.87890627 0,-0.703125 1.289062,-1.1015625 2.730469,-1.1015625 z m 7.040039,-2.8710938 h 0.316406 c 0.164062,0 0.492187,0 0.492187,-0.3515625 0,-0.3515625 -0.328125,-0.3515625 -0.492187,-0.3515625 h -1.3125 c -0.164063,0 -0.492188,0 -0.492188,0.3515625 0,0.3515625 0.328125,0.3515625 0.492188,0.3515625 h 0.292969 c -0.328125,0.9726563 -1.007813,2.9765625 -1.183594,3.65625002 h -0.01172 C 76.922609,-1.0667656 76.875734,-1.1956719 76.758547,-1.5237969 l -1.113281,-2.9296875 h 0.28125 c 0.164062,0 0.480468,0 0.480468,-0.3515625 0,-0.3515625 -0.316406,-0.3515625 -0.480468,-0.3515625 h -1.324219 c -0.164063,0 -0.480469,0 -0.480469,0.3515625 0,0.3515625 0.316406,0.3515625 0.480469,0.3515625 h 0.328125 l 1.675781,4.30078127 c 0.04687,0.1171875 0.04687,0.140625 0.04687,0.152343755 0,0.023437495 -0.316406,1.066406275 -0.492187,1.394531275 -0.07031,0.1289062 -0.375,0.6796875 -0.949219,0.6210937 0.01172,-0.035156 0.04687,-0.1054687 0.04687,-0.234375 0,-0.2695312 -0.1875,-0.46875 -0.457031,-0.46875 -0.304688,0 -0.480469,0.2109375 -0.480469,0.4804688 0,0.4570312 0.375,0.9375 0.972656,0.9375 1.160156,0 1.675781,-1.546875 1.710938,-1.640625 z m 0,0"
       style="fill:#000000;fill-opacity:1;fill-rule:nonzero;stroke:none"
       aria-label="logicalarray"
       transform="matrix(1.3333333,0,0,1.3333333,188.56933,24.242667)" />
    <path
       id="path2"
       d="m 2.41525,2.6480781 c 0.1640625,0 0.4804688,0 0.4804688,-0.3398437 0,-0.3515625 -0.3164063,-0.3515625 -0.4804688,-0.3515625 H 1.9230625 v -2.55468753 c 0.2929688,0.328125 0.7265625,0.66796875 1.40625,0.66796875 1.265625,0 2.3789063,-1.13671872 2.3789063,-2.64843752 0,-1.4765625 -1.0078125,-2.6484375 -2.25,-2.6484375 -0.8789063,0 -1.4296875,0.5273438 -1.5351563,0.6445313 0,-0.3867188 0,-0.5742188 -0.4804687,-0.5742188 H 0.6574375 c -0.1640625,0 -0.48046875,0 -0.48046875,0.3515625 0,0.3515625 0.31640625,0.3515625 0.48046875,0.3515625 H 1.149625 V 1.9566719 H 0.6574375 c -0.1640625,0 -0.48046875,0 -0.48046875,0.3515625 0,0.3398437 0.31640625,0.3398437 0.48046875,0.3398437 z M 1.9230625,-3.1761406 c 0,-0.6796875 0.6679688,-1.359375 1.453125,-1.359375 0.8554688,0 1.546875,0.8789062 1.546875,1.9570312 0,1.1484375 -0.8085937,1.95703127 -1.6640625,1.95703127 -0.890625,0 -1.3359375,-1.01953127 -1.3359375,-1.61718747 z m 9.2226565,-0.328125 c 0,-1.171875 -0.550781,-1.7226563 -1.5234377,-1.7226563 -0.8203125,0 -1.3359375,0.4570313 -1.546875,0.6796875 v -2.2617187 c 0,-0.375 -0.070312,-0.4921875 -0.4804688,-0.4921875 H 6.8097813 c -0.1640625,0 -0.4804688,0 -0.4804688,0.3398437 0,0.3515625 0.3164063,0.3515625 0.4804688,0.3515625 h 0.4921875 v 5.91796877 H 6.8097813 c -0.1640625,0 -0.4804688,0 -0.4804688,0.33984375 0,0.351562505 0.3164063,0.351562505 0.4804688,0.351562505 h 1.7578125 c 0.1640625,0 0.4804687,0 0.4804687,-0.351562505 0,-0.33984375 -0.3164062,-0.33984375 -0.4804687,-0.33984375 H 8.0754063 V -2.8597344 c 0,-1.1601562 0.8203125,-1.6757812 1.4648437,-1.6757812 0.691406,0 0.832031,0.3984375 0.832031,1.078125 v 2.76562497 H 9.8800938 c -0.1640625,0 -0.4804688,0 -0.4804688,0.33984375 0,0.351562505 0.3164063,0.351562505 0.4804688,0.351562505 h 1.7578122 c 0.164063,0 0.480469,0 0.480469,-0.351562505 0,-0.33984375 -0.316406,-0.33984375 -0.480469,-0.33984375 h -0.492187 z m 6.219726,-0.9492188 h 0.316407 c 0.164062,0 0.492187,0 0.492187,-0.3515625 0,-0.3515625 -0.328125,-0.3515625 -0.492187,-0.3515625 h -1.3125 c -0.164063,0 -0.492188,0 -0.492188,0.3515625 0,0.3515625 0.328125,0.3515625 0.492188,0.3515625 h 0.292968 c -0.328125,0.9726563 -1.007812,2.9765625 -1.183593,3.65625002 h -0.01172 C 15.408414,-1.0667656 15.361539,-1.1956719 15.244352,-1.5237969 L 14.13107,-4.4534844 h 0.28125 c 0.164063,0 0.480469,0 0.480469,-0.3515625 0,-0.3515625 -0.316406,-0.3515625 -0.480469,-0.3515625 h -1.324218 c -0.164063,0 -0.480469,0 -0.480469,0.3515625 0,0.3515625 0.316406,0.3515625 0.480469,0.3515625 h 0.328125 l 1.675781,4.30078127 c 0.04687,0.1171875 0.04687,0.140625 0.04687,0.152343755 0,0.023437495 -0.316406,1.066406275 -0.492188,1.394531275 -0.07031,0.1289062 -0.375,0.6796875 -0.949218,0.6210937 0.01172,-0.035156 0.04687,-0.1054687 0.04687,-0.234375 0,-0.2695312 -0.1875,-0.46875 -0.457032,-0.46875 -0.304687,0 -0.480468,0.2109375 -0.480468,0.4804688 0,0.4570312 0.375,0.9375 0.972656,0.9375 1.160156,0 1.675781,-1.546875 1.710937,-1.640625 z m 6.105469,-0.3515625 c 0,-0.1875 0,-0.4570312 -0.328125,-0.4570312 -0.292969,0 -0.363281,0.28125 -0.363281,0.2929687 -0.480469,-0.2929687 -1.019531,-0.2929687 -1.265625,-0.2929687 -1.945313,0 -2.214844,0.9960937 -2.214844,1.40625 0,0.4804687 0.292969,0.8203125 0.703125,1.0429687 0.375,0.2226563 0.726563,0.28125 1.699219,0.4335938 0.46875,0.082031 1.429687,0.234375 1.429687,0.9023437 0,0.4335938 -0.410156,0.85546877 -1.523437,0.85546877 -0.761719,0 -1.265625,-0.3046875 -1.511719,-1.16015627 -0.05859,-0.1640625 -0.09375,-0.2929687 -0.398437,-0.2929687 -0.398438,0 -0.398438,0.2226562 -0.398438,0.4570312 v 1.23046877 c 0,0.19921875 0,0.45703125 0.339844,0.45703125 0.140625,0 0.246094,0 0.433594,-0.4921875 0.550781,0.45703125 1.171875,0.4921875 1.535156,0.4921875 2.214844,0 2.214844,-1.42968752 2.214844,-1.54687502 0,-1.2539062 -1.476563,-1.5 -2.050782,-1.5820312 -1.054687,-0.1757813 -1.769531,-0.3046875 -1.769531,-0.796875 0,-0.328125 0.363281,-0.7148438 1.488281,-0.7148438 1.136719,0 1.183594,0.5390625 1.207032,0.8554688 0.02344,0.234375 0.246093,0.2695312 0.386718,0.2695312 0.386719,0 0.386719,-0.2109375 0.386719,-0.4570312 z m 4.746094,-1.96875 c 0,-0.3046875 -0.234375,-0.5390625 -0.539063,-0.5390625 -0.292968,0 -0.539062,0.234375 -0.539062,0.5390625 0,0.2929688 0.246094,0.5390625 0.539062,0.5390625 0.304688,0 0.539063,-0.2460937 0.539063,-0.5390625 z m -2.050781,1.6171875 c -0.175782,0 -0.480469,0 -0.480469,0.3515625 0,0.3515625 0.304687,0.3515625 0.480469,0.3515625 h 1.277343 v 3.76171877 h -1.371093 c -0.164063,0 -0.480469,0 -0.480469,0.33984375 0,0.351562505 0.316406,0.351562505 0.480469,0.351562505 h 3.328125 c 0.164062,0 0.480468,0 0.480468,-0.351562505 0,-0.33984375 -0.316406,-0.33984375 -0.480468,-0.33984375 H 28.217008 V -4.6644219 c 0,-0.3632812 -0.07031,-0.4921875 -0.480469,-0.4921875 z m 10.042968,3.8554688 c 0,-0.3164063 -0.292968,-0.3164063 -0.398437,-0.3164063 -0.269531,0 -0.316406,0.09375 -0.375,0.2695313 -0.269531,0.65624997 -0.855469,0.72656247 -1.136719,0.72656247 -1.019531,0 -1.875,-0.84374997 -1.875,-1.95703127 0,-0.609375 0.339844,-1.9921875 1.910156,-1.9921875 0.328125,0 0.574219,0.023437 0.679688,0.035156 0.08203,0.023437 0.09375,0.035156 0.09375,0.1054687 0.03516,0.4804688 0.410156,0.4921875 0.480469,0.4921875 0.269531,0 0.492187,-0.1757812 0.492187,-0.4921875 0,-0.8320312 -1.207031,-0.8320312 -1.734375,-0.8320312 -2.039062,0 -2.707031,1.6757812 -2.707031,2.6835937 0,1.453125 1.113281,2.64843752 2.554687,2.64843752 1.59375,0 2.015625,-1.18359372 2.015625,-1.37109342 z m 5.648438,-2.0976563 c 0,-0.9023437 -0.679688,-1.8632812 -2.296875,-1.8632812 -0.492188,0 -1.652344,0 -1.652344,0.8320312 0,0.3164063 0.222656,0.4921875 0.480469,0.4921875 0.08203,0 0.46875,-0.023437 0.480469,-0.515625 0,-0.070312 0.01172,-0.082031 0.269531,-0.1054687 0.140625,-0.011719 0.292969,-0.011719 0.433594,-0.011719 0.28125,0 0.691406,0 1.078125,0.3046875 0.433593,0.328125 0.433593,0.6679688 0.433593,1.0195313 -0.703125,0.023437 -1.394531,0.070312 -2.144531,0.3046875 -0.597656,0.1992187 -1.359375,0.6328125 -1.359375,1.4414062 0,0.85546877 0.75,1.57031252 1.863281,1.57031252 0.386719,0 1.125,-0.05859375 1.746094,-0.4921875 0.246094,0.3984375 0.84375,0.421875005 1.289063,0.421875005 0.292968,0 0.574218,0 0.574218,-0.351562505 0,-0.33984375 -0.304687,-0.33984375 -0.480468,-0.33984375 -0.304688,0 -0.539063,-0.0234375 -0.714844,-0.09375 z m -0.773438,1.8164063 c 0,0.28125 0,0.5273437 -0.492187,0.76171872 -0.421875,0.19921875 -0.972656,0.19921875 -1.019531,0.19921875 -0.703125,0 -1.21875,-0.38671877 -1.21875,-0.87890627 0,-0.703125 1.289062,-1.1015625 2.730468,-1.1015625 z m 5.449219,-5.2265625 c 0,-0.375 -0.07031,-0.4921875 -0.480469,-0.4921875 h -1.757812 c -0.164063,0 -0.480469,0 -0.480469,0.3398437 0,0.3515625 0.316406,0.3515625 0.480469,0.3515625 h 1.464844 v 5.91796877 h -1.464844 c -0.164063,0 -0.480469,0 -0.480469,0.33984375 0,0.351562505 0.316406,0.351562505 0.480469,0.351562505 h 3.691406 c 0.175781,0 0.480469,0 0.480469,-0.351562505 0,-0.33984375 -0.304688,-0.33984375 -0.480469,-0.33984375 h -1.453125 z m 14.244141,3.1875 c 0,-0.2695313 0,-1.6054688 -1.054688,-1.6054688 -0.410156,0 -0.820312,0.1992188 -1.148437,0.6328125 -0.07031,-0.1757812 -0.328125,-0.6328125 -0.902344,-0.6328125 -0.539063,0 -0.914063,0.3515625 -1.007813,0.4570313 -0.01172,-0.3867188 -0.257812,-0.3867188 -0.480468,-0.3867188 h -0.351563 c -0.164062,0 -0.480469,0 -0.480469,0.3515625 0,0.3515625 0.269532,0.3515625 0.644532,0.3515625 v 3.76171877 c -0.386719,0 -0.644532,0 -0.644532,0.33984375 0,0.351562505 0.316407,0.351562505 0.480469,0.351562505 h 0.996094 c 0.175781,0 0.480469,0 0.480469,-0.351562505 0,-0.33984375 -0.269532,-0.33984375 -0.644532,-0.33984375 V -2.8948906 c 0,-1.0078125 0.433594,-1.640625 0.960938,-1.640625 0.328125,0 0.433594,0.421875 0.433594,0.984375 v 2.85937497 c -0.210938,0 -0.527344,0 -0.527344,0.33984375 0,0.351562505 0.316406,0.351562505 0.480469,0.351562505 h 0.878906 c 0.164062,0 0.480469,0 0.480469,-0.351562505 0,-0.33984375 -0.28125,-0.33984375 -0.644532,-0.33984375 V -2.8948906 c 0,-1.0078125 0.421875,-1.640625 0.949219,-1.640625 0.339844,0 0.433594,0.421875 0.433594,0.984375 v 2.85937497 c -0.199219,0 -0.527344,0 -0.527344,0.33984375 0,0.351562505 0.328125,0.351562505 0.492188,0.351562505 h 0.867187 c 0.175781,0 0.480469,0 0.480469,-0.351562505 0,-0.33984375 -0.269531,-0.33984375 -0.644531,-0.33984375 z m 5.704101,1.3242187 c 0.257813,0 0.480469,0 0.480469,-0.4453125 0,-1.3945312 -0.785156,-2.5195312 -2.285156,-2.5195312 -1.382813,0 -2.496094,1.1953125 -2.496094,2.6601562 0,1.5 1.207031,2.67187502 2.683594,2.67187502 1.535156,0 2.097656,-1.06640625 2.097656,-1.37109372 0,-0.070312 -0.02344,-0.3398438 -0.398437,-0.3398438 -0.222657,0 -0.292969,0.082031 -0.363282,0.2695313 -0.304687,0.69140622 -1.078125,0.74999997 -1.300781,0.74999997 -0.996094,0 -1.78125,-0.74999997 -1.921875,-1.67578127 z m -3.492187,-0.65625 c 0.164062,-1.0195312 0.9375,-1.6171875 1.6875,-1.6171875 1.195312,0 1.453125,1.0195313 1.5,1.6171875 z m 10.089844,-0.6679687 c 0,-0.2695313 0,-1.6054688 -1.054688,-1.6054688 -0.410156,0 -0.820312,0.1992188 -1.148437,0.6328125 -0.07031,-0.1757812 -0.328125,-0.6328125 -0.902344,-0.6328125 -0.539063,0 -0.914063,0.3515625 -1.007813,0.4570313 -0.01172,-0.3867188 -0.257812,-0.3867188 -0.480468,-0.3867188 H 68.134 c -0.164062,0 -0.480469,0 -0.480469,0.3515625 0,0.3515625 0.269532,0.3515625 0.644532,0.3515625 v 3.76171877 c -0.386719,0 -0.644532,0 -0.644532,0.33984375 0,0.351562505 0.316407,0.351562505 0.480469,0.351562505 h 0.996094 c 0.175781,0 0.480469,0 0.480469,-0.351562505 0,-0.33984375 -0.269532,-0.33984375 -0.644532,-0.33984375 V -2.8948906 c 0,-1.0078125 0.433594,-1.640625 0.960938,-1.640625 0.328125,0 0.433594,0.421875 0.433594,0.984375 v 2.85937497 c -0.210938,0 -0.527344,0 -0.527344,0.33984375 0,0.351562505 0.316406,0.351562505 0.480469,0.351562505 h 0.878906 c 0.164062,0 0.480469,0 0.480469,-0.351562505 0,-0.33984375 -0.28125,-0.33984375 -0.644532,-0.33984375 V -2.8948906 c 0,-1.0078125 0.421875,-1.640625 0.949219,-1.640625 0.339844,0 0.433594,0.421875 0.433594,0.984375 v 2.85937497 c -0.199219,0 -0.527344,0 -0.527344,0.33984375 0,0.351562505 0.328125,0.351562505 0.492188,0.351562505 h 0.867187 c 0.175781,0 0.480469,0 0.480469,-0.351562505 0,-0.33984375 -0.269531,-0.33984375 -0.644531,-0.33984375 z m 6.1875,1.0429687 c 0,-1.5 -1.089844,-2.6835937 -2.378907,-2.6835937 -1.289062,0 -2.378906,1.1835937 -2.378906,2.6835937 0,1.5 1.101563,2.64843752 2.378906,2.64843752 1.277344,0 2.378907,-1.14843752 2.378907,-2.64843752 z m -2.378907,1.95703127 c -0.855468,0 -1.605468,-0.91406247 -1.605468,-2.03906247 0,-1.1132813 0.773437,-1.9101563 1.605468,-1.9101563 0.84375,0 1.605469,0.796875 1.605469,1.9101563 0,1.1367187 -0.738281,2.03906247 -1.605469,2.03906247 z m 5.660157,-1.64062497 c 0,-1.4179688 1.007812,-2.2734375 2.027343,-2.2734375 0.05859,0 0.128907,0 0.1875,0.011719 0.03516,0.4335938 0.375,0.46875 0.457032,0.46875 0.269531,0 0.46875,-0.1992187 0.46875,-0.46875 0,-0.5039062 -0.503907,-0.703125 -1.101563,-0.703125 -0.808594,0 -1.488281,0.3632813 -2.039062,1.03125 v -0.46875 c 0,-0.3632812 -0.07031,-0.4921875 -0.46875,-0.4921875 h -1.207032 c -0.175781,0 -0.480468,0 -0.480468,0.3515625 0,0.3515625 0.304687,0.3515625 0.480468,0.3515625 h 0.902344 v 3.76171877 h -0.902344 c -0.175781,0 -0.480468,0 -0.480468,0.33984375 0,0.351562505 0.304687,0.351562505 0.480468,0.351562505 h 2.929688 c 0.175781,0 0.480469,0 0.480469,-0.351562505 0,-0.33984375 -0.304688,-0.33984375 -0.480469,-0.33984375 h -1.253906 z m 8.636718,-2.1914063 h 0.316407 c 0.164062,0 0.492187,0 0.492187,-0.3515625 0,-0.3515625 -0.328125,-0.3515625 -0.492187,-0.3515625 h -1.3125 c -0.164063,0 -0.492188,0 -0.492188,0.3515625 0,0.3515625 0.328125,0.3515625 0.492188,0.3515625 h 0.292968 c -0.328125,0.9726563 -1.007812,2.9765625 -1.183593,3.65625002 h -0.01172 C 89.22775,-1.0667656 89.180875,-1.1956719 89.063688,-1.5237969 l -1.113282,-2.9296875 h 0.28125 c 0.164063,0 0.480469,0 0.480469,-0.3515625 0,-0.3515625 -0.316406,-0.3515625 -0.480469,-0.3515625 h -1.324218 c -0.164063,0 -0.480469,0 -0.480469,0.3515625 0,0.3515625 0.316406,0.3515625 0.480469,0.3515625 h 0.328125 l 1.675781,4.30078127 c 0.04687,0.1171875 0.04687,0.140625 0.04687,0.152343755 0,0.023437495 -0.316406,1.066406275 -0.492188,1.394531275 -0.07031,0.1289062 -0.375,0.6796875 -0.949218,0.6210937 0.01172,-0.035156 0.04687,-0.1054687 0.04687,-0.234375 0,-0.2695312 -0.1875,-0.46875 -0.457032,-0.46875 -0.304687,0 -0.480468,0.2109375 -0.480468,0.4804688 0,0.4570312 0.375,0.9375 0.972656,0.9375 1.160156,0 1.675781,-1.546875 1.710937,-1.640625 z m 0,0"
       style="fill:#000000;fill-opacity:1;fill-rule:nonzero;stroke:none"
       aria-label="physicalmemory"
       transform="matrix(1.3333333,0,0,1.3333333,441.15467,24.242667)" />
    <path
       id="path3"
       d="m 5.6591484,-6.9969375 c 0,-0.1875 0,-0.4453125 -0.328125,-0.4453125 -0.2109375,0 -0.28125,0.1289062 -0.328125,0.2109375 -0.035156,0.09375 -0.1289062,0.3046875 -0.1640625,0.3984375 C 4.3466484,-7.2664688 3.7958672,-7.44225 3.3036797,-7.44225 c -1.546875,0 -2.82421876,1.640625 -2.82421876,3.7851562 0,2.1914063 1.31249996,3.79687505 2.82421876,3.79687505 1.3945312,0 2.3554687,-1.11328125 2.3554687,-2.15625005 0,-0.375 -0.2460937,-0.375 -0.3867187,-0.375 -0.1640625,0 -0.3632813,0.058594 -0.3867188,0.2578125 -0.09375,1.50000005 -1.3007812,1.5820313 -1.5,1.5820313 -1.1132812,0 -2.1328125,-1.3007813 -2.1328125,-3.1054688 0,-1.8046875 1.03125,-3.09375 2.1210938,-3.09375 0.6445312,0 1.3476562,0.515625 1.5117187,1.6054688 0.035156,0.2695312 0.140625,0.3398437 0.3867188,0.3398437 0.3867187,0 0.3867187,-0.2109375 0.3867187,-0.4570312 z m 5.4374996,3.7382812 c 0.164063,0 0.539063,0 0.539063,-0.3867187 0,-0.3984375 -0.363281,-0.3984375 -0.539063,-0.3984375 H 7.3466484 c -0.1523437,0 -0.5390625,0 -0.5390625,0.3867187 0,0.3984375 0.375,0.3984375 0.5390625,0.3984375 z m 6.65625,0.6796875 c 0,-1.5 -1.089843,-2.6835937 -2.378906,-2.6835937 -1.289062,0 -2.378906,1.1835937 -2.378906,2.6835937 0,1.5 1.101562,2.64843755 2.378906,2.64843755 1.277344,0 2.378906,-1.14843755 2.378906,-2.64843755 z m -2.378906,1.9570313 c -0.855469,0 -1.605469,-0.9140625 -1.605469,-2.0390625 0,-1.1132813 0.773438,-1.9101563 1.605469,-1.9101563 0.84375,0 1.605469,0.796875 1.605469,1.9101563 0,1.1367187 -0.738281,2.0390625 -1.605469,2.0390625 z m 5.660156,-1.640625 c 0,-1.4179688 1.007813,-2.2734375 2.027344,-2.2734375 0.05859,0 0.128906,0 0.1875,0.011719 0.03516,0.4335938 0.375,0.46875 0.457031,0.46875 0.269532,0 0.46875,-0.1992187 0.46875,-0.46875 0,-0.5039062 -0.503906,-0.703125 -1.101562,-0.703125 -0.808594,0 -1.488281,0.3632813 -2.039063,1.03125 v -0.46875 c 0,-0.3632812 -0.07031,-0.4921875 -0.46875,-0.4921875 h -1.207031 c -0.175781,0 -0.480469,0 -0.480469,0.3515625 0,0.3515625 0.304688,0.3515625 0.480469,0.3515625 h 0.902344 V -0.69225 h -0.902344 c -0.175781,0 -0.480469,0 -0.480469,0.33984375 0,0.3515625 0.304688,0.3515625 0.480469,0.3515625 h 2.929688 c 0.175781,0 0.480468,0 0.480468,-0.3515625 0,-0.33984375 -0.304687,-0.33984375 -0.480468,-0.33984375 h -1.253907 z m 8.566407,-4.546875 c 0,-0.375 -0.07031,-0.4921875 -0.46875,-0.4921875 H 28.33493 c -0.164063,0 -0.480469,0 -0.480469,0.3398437 0,0.3515625 0.316406,0.3515625 0.480469,0.3515625 h 0.492187 V -4.62975 c -0.1875,-0.1875 -0.679687,-0.5976563 -1.40625,-0.5976563 -1.265625,0 -2.367187,1.1484375 -2.367187,2.6601563 0,1.4648437 1.019531,2.63671875 2.261718,2.63671875 0.773438,0 1.289063,-0.46875 1.511719,-0.7265625 0,0.50390625 0,0.65625 0.480469,0.65625 h 0.785156 c 0.164063,0 0.480469,0 0.480469,-0.3515625 0,-0.33984375 -0.316406,-0.33984375 -0.480469,-0.33984375 h -0.492187 z m -0.773438,4.5351562 c 0,0.6679688 -0.550781,1.6523438 -1.441406,1.6523438 -0.867188,0 -1.558594,-0.8789063 -1.558594,-1.9453125 0,-1.1484375 0.808594,-1.96875 1.664063,-1.96875 0.773437,0 1.335937,0.7148437 1.335937,1.3359375 z m 6.902344,-0.023437 c 0.257812,0 0.480469,0 0.480469,-0.4453125 0,-1.3945312 -0.785157,-2.5195312 -2.285157,-2.5195312 -1.382812,0 -2.496093,1.1953125 -2.496093,2.6601562 0,1.5 1.207031,2.67187505 2.683593,2.67187505 1.535157,0 2.097657,-1.06640625 2.097657,-1.37109375 0,-0.070312 -0.02344,-0.3398438 -0.398438,-0.3398438 -0.222656,0 -0.292969,0.082031 -0.363281,0.2695313 -0.304688,0.69140625 -1.078125,0.75 -1.300781,0.75 -0.996094,0 -1.78125,-0.75 -1.921875,-1.6757813 z m -3.492188,-0.65625 c 0.164063,-1.0195312 0.9375,-1.6171875 1.6875,-1.6171875 1.195313,0 1.453125,1.0195313 1.5,1.6171875 z m 7.253907,0.6914063 c 0,-1.4179688 1.007812,-2.2734375 2.027343,-2.2734375 0.05859,0 0.128907,0 0.1875,0.011719 0.03516,0.4335938 0.375,0.46875 0.457032,0.46875 0.269531,0 0.46875,-0.1992187 0.46875,-0.46875 0,-0.5039062 -0.503907,-0.703125 -1.101563,-0.703125 -0.808594,0 -1.488281,0.3632813 -2.039062,1.03125 v -0.46875 c 0,-0.3632812 -0.07031,-0.4921875 -0.46875,-0.4921875 h -1.207032 c -0.175781,0 -0.480468,0 -0.480468,0.3515625 0,0.3515625 0.304687,0.3515625 0.480468,0.3515625 h 0.902344 v 3.761718 h -0.902344 c -0.175781,0 -0.480468,0 -0.480468,0.33984375 0,0.3515625 0.304687,0.3515625 0.480468,0.3515625 h 2.929688 c 0.175781,0 0.480469,0 0.480469,-0.3515625 0,-0.33984375 -0.304688,-0.33984375 -0.480469,-0.33984375 H 39.49118 Z M -7.1816719,15.025523 c 0,-0.152343 -0.09375,-0.199218 -0.2578125,-0.316406 -1.6523437,-1.136719 -2.0507812,-2.847656 -2.0507812,-4.007812 0,-1.1367191 0.375,-2.8593753 2.0507812,-4.0195316 0.1640625,-0.1171875 0.2578125,-0.1640625 0.2578125,-0.3164062 0,-0.1289063 -0.070312,-0.3164063 -0.3515625,-0.3164063 -0.3046875,0 -1.1835937,0.6914063 -1.734375,1.4765625 -0.6679687,0.9257813 -1.0078126,2.0390625 -1.0078126,3.1757816 0,1.324218 0.4804689,2.4375 0.9843751,3.140625 0.5507813,0.761718 1.4179688,1.5 1.7578125,1.5 0.28125,0 0.3515625,-0.210938 0.3515625,-0.316407 z m 3.609375,-2.941406 c 0,-1.417969 1.0078125,-2.2734373 2.0273438,-2.2734373 0.058594,0 0.1289062,0 0.1875,0.011719 0.035156,0.4335933 0.37499998,0.4687493 0.45703123,0.4687493 0.26953125,0 0.46875,-0.199218 0.46875,-0.4687493 0,-0.5039062 -0.50390625,-0.703125 -1.10156253,-0.703125 -0.8085937,0 -1.4882812,0.3632813 -2.0390625,1.0312493 V 9.6817734 c 0,-0.3632812 -0.070312,-0.4921875 -0.46875,-0.4921875 h -1.2070312 c -0.1757813,0 -0.4804688,0 -0.4804688,0.3515625 0,0.3515625 0.3046875,0.3515625 0.4804688,0.3515625 h 0.9023437 V 13.65443 h -0.9023437 c -0.1757813,0 -0.4804688,0 -0.4804688,0.339843 0,0.351563 0.3046875,0.351563 0.4804688,0.351563 h 2.9296875 c 0.1757812,0 0.4804687,0 0.4804687,-0.351563 0,-0.339843 -0.3046875,-0.339843 -0.4804687,-0.339843 h -1.2539063 z m 9.0205078,-0.316406 c 0,-1.5 -1.0898437,-2.6835938 -2.3789062,-2.6835938 -1.2890625,0 -2.37890626,1.1835938 -2.37890626,2.6835938 0,1.5 1.10156246,2.648437 2.37890626,2.648437 1.2773437,0 2.3789062,-1.148437 2.3789062,-2.648437 z m -2.3789062,1.957031 c -0.8554688,0 -1.6054688,-0.914062 -1.6054688,-2.039062 0,-1.113282 0.7734375,-1.9101566 1.6054688,-1.9101566 0.84375,0 1.6054687,0.7968746 1.6054687,1.9101566 0,1.136718 -0.7382812,2.039062 -1.6054687,2.039062 z M 11.530242,9.8927109 c 0.28125,0 0.585938,0 0.585938,-0.3515625 0,-0.3515625 -0.328125,-0.3515625 -0.492188,-0.3515625 h -1.335937 c -0.164063,0 -0.4921878,0 -0.4921878,0.3515625 0,0.3515625 0.3281248,0.3515625 0.4921878,0.3515625 h 0.5625 L 10.252898,13.537242 H 10.24118 C 10.194305,13.220836 9.9950859,12.552867 9.8778984,12.166148 9.6669609,11.392711 9.6318047,11.252086 9.2333672,11.252086 c -0.375,0 -0.4335938,0.140625 -0.6445313,0.902344 -0.234375,0.820312 -0.3164062,1.160156 -0.3632812,1.382812 H 8.2138359 L 7.5927422,9.8927109 h 0.5625 c 0.1757812,0 0.4921875,0 0.4921875,-0.3515625 0,-0.3515625 -0.3164063,-0.3515625 -0.4921875,-0.3515625 H 6.8193047 c -0.1640625,0 -0.4921875,0 -0.4921875,0.3515625 0,0.3515625 0.3046875,0.3515625 0.5859375,0.3515625 l 0.7148437,4.0546871 c 0.082031,0.421875 0.2695313,0.457032 0.5390625,0.457032 0.46875,0 0.4921875,-0.09375 0.7382813,-0.914063 0.1054687,-0.421875 0.2929687,-1.078125 0.328125,-1.40625 h 0.011719 c 0.011719,0.152344 0.070312,0.492188 0.328125,1.417969 0.234375,0.796875 0.2578125,0.902344 0.7148438,0.902344 0.199218,0 0.445312,0 0.527343,-0.445313 z m 5.71875,1.1953121 c 0.164063,0 0.539063,0 0.539063,-0.386718 0,-0.398438 -0.363282,-0.398438 -0.539063,-0.398438 h -3.75 c -0.152344,0 -0.539062,0 -0.539062,0.386719 0,0.398437 0.375,0.398437 0.539062,0.398437 z m 6.621094,-0.363281 c 0,-0.269531 0,-1.6054686 -1.054688,-1.6054686 -0.410156,0 -0.820312,0.1992188 -1.148437,0.6328125 -0.07031,-0.1757812 -0.328125,-0.6328125 -0.902344,-0.6328125 -0.539062,0 -0.914062,0.3515625 -1.007812,0.4570313 -0.01172,-0.3867188 -0.257813,-0.3867188 -0.480469,-0.3867188 h -0.351563 c -0.164062,0 -0.480468,0 -0.480468,0.3515625 0,0.3515625 0.269531,0.3515625 0.644531,0.3515625 V 13.65443 c -0.386719,0 -0.644531,0 -0.644531,0.339843 0,0.351563 0.316406,0.351563 0.480468,0.351563 h 0.996094 c 0.175781,0 0.480469,0 0.480469,-0.351563 0,-0.339843 -0.269531,-0.339843 -0.644531,-0.339843 v -2.203125 c 0,-1.007813 0.433593,-1.6406253 0.960937,-1.6406253 0.328125,0 0.433594,0.4218753 0.433594,0.9843753 v 2.859375 c -0.210938,0 -0.527344,0 -0.527344,0.339843 0,0.351563 0.316406,0.351563 0.480469,0.351563 h 0.878906 c 0.164063,0 0.480469,0 0.480469,-0.351563 0,-0.339843 -0.28125,-0.339843 -0.644531,-0.339843 v -2.203125 c 0,-1.007813 0.421875,-1.6406253 0.949218,-1.6406253 0.339844,0 0.433594,0.4218753 0.433594,0.9843753 v 2.859375 c -0.199219,0 -0.527344,0 -0.527344,0.339843 0,0.351563 0.328125,0.351563 0.492188,0.351563 h 0.867187 c 0.175782,0 0.480469,0 0.480469,-0.351563 0,-0.339843 -0.269531,-0.339843 -0.644531,-0.339843 z m 5.683594,0.222656 c 0,-0.902343 -0.679688,-1.8632808 -2.296875,-1.8632808 -0.492188,0 -1.652344,0 -1.652344,0.8320312 0,0.3164066 0.222656,0.4921876 0.480469,0.4921876 0.08203,0 0.46875,-0.02344 0.480468,-0.5156251 0,-0.070312 0.01172,-0.082031 0.269532,-0.1054687 0.140625,-0.011719 0.292968,-0.011719 0.433593,-0.011719 0.28125,0 0.691407,0 1.078125,0.3046878 0.433594,0.328125 0.433594,0.667969 0.433594,1.019531 -0.703125,0.02344 -1.394531,0.07031 -2.144531,0.304688 -0.597656,0.199218 -1.359375,0.632812 -1.359375,1.441406 0,0.855469 0.75,1.570312 1.863281,1.570312 0.386719,0 1.125,-0.05859 1.746094,-0.492187 0.246094,0.398437 0.84375,0.421875 1.289062,0.421875 0.292969,0 0.574219,0 0.574219,-0.351563 0,-0.339843 -0.304687,-0.339843 -0.480469,-0.339843 -0.304687,0 -0.539062,-0.02344 -0.714843,-0.09375 z m -0.773438,1.816407 c 0,0.28125 0,0.527343 -0.492187,0.761718 -0.421875,0.199219 -0.972657,0.199219 -1.019532,0.199219 -0.703125,0 -1.21875,-0.386719 -1.21875,-0.878906 0,-0.703125 1.289063,-1.101563 2.730469,-1.101563 z m 6.28125,-5.1914066 c 0,-0.3046875 -0.234375,-0.5390625 -0.539062,-0.5390625 -0.292969,0 -0.539063,0.234375 -0.539063,0.5390625 0,0.2929688 0.246094,0.5390625 0.539063,0.5390625 0.304687,0 0.539062,-0.2460937 0.539062,-0.5390625 z m -2.238281,1.6171875 c -0.164063,0 -0.46875,0 -0.46875,0.3515625 0,0.3515625 0.28125,0.3515625 0.46875,0.3515625 h 1.464844 v 4.9218751 c 0,0.1875 0,0.703125 -0.339844,1.148437 -0.316406,0.410157 -0.65625,0.410157 -0.9375,0.410157 -0.246094,0 -0.527344,-0.01172 -0.726563,-0.05859 0,-0.164063 0,-0.609375 -0.46875,-0.609375 -0.222656,0 -0.492187,0.164062 -0.492187,0.503906 0,0.867188 1.171875,0.867188 1.652344,0.867188 0.421875,0 0.914062,0 1.511718,-0.609375 0.117188,-0.128907 0.574219,-0.679688 0.574219,-1.59375 V 9.6817734 c 0,-0.3632812 -0.07031,-0.4921875 -0.480469,-0.4921875 z m 9.539062,2.5781251 c 0,-1.5 -1.089843,-2.6835938 -2.378906,-2.6835938 -1.289062,0 -2.378906,1.1835938 -2.378906,2.6835938 0,1.5 1.101562,2.648437 2.378906,2.648437 1.277344,0 2.378906,-1.148437 2.378906,-2.648437 z m -2.378906,1.957031 c -0.855469,0 -1.605469,-0.914062 -1.605469,-2.039062 0,-1.113282 0.773438,-1.9101566 1.605469,-1.9101566 0.84375,0 1.605469,0.7968746 1.605469,1.9101566 0,1.136718 -0.738281,2.039062 -1.605469,2.039062 z m 5.660156,-1.640625 c 0,-1.417969 1.007813,-2.2734373 2.027344,-2.2734373 0.05859,0 0.128906,0 0.1875,0.011719 0.03516,0.4335933 0.375,0.4687493 0.457031,0.4687493 0.269532,0 0.46875,-0.199218 0.46875,-0.4687493 0,-0.5039062 -0.503906,-0.703125 -1.101562,-0.703125 -0.808594,0 -1.488281,0.3632813 -2.039063,1.0312493 V 9.6817734 c 0,-0.3632812 -0.07031,-0.4921875 -0.46875,-0.4921875 h -1.207031 c -0.175781,0 -0.480469,0 -0.480469,0.3515625 0,0.3515625 0.304688,0.3515625 0.480469,0.3515625 h 0.902344 V 13.65443 h -0.902344 c -0.175781,0 -0.480469,0 -0.480469,0.339843 0,0.351563 0.304688,0.351563 0.480469,0.351563 h 2.929688 c 0.175781,0 0.480468,0 0.480468,-0.351563 0,-0.339843 -0.304687,-0.339843 -0.480468,-0.339843 h -1.253907 z m 7.6875,-1.382812 c 0,-0.9375003 -0.222656,-2.1445316 -1.089843,-3.3046878 -0.410157,-0.5507813 -1.289063,-1.3476563 -1.652344,-1.3476563 -0.269531,0 -0.339844,0.1992188 -0.339844,0.3164063 0,0.140625 0.08203,0.1992187 0.292969,0.3398437 1.464844,1.03125 2.015625,2.6367188 2.015625,3.9843751 0,1.078125 -0.351563,2.835937 -2.0625,4.019531 -0.152344,0.105469 -0.246094,0.164063 -0.246094,0.316406 0,0.105469 0.07031,0.316407 0.339844,0.316407 0.304687,0 1.183594,-0.691407 1.734375,-1.476563 0.691406,-0.972656 1.007812,-2.097656 1.007812,-3.164062 z m 0,0"
       style="fill:#000000;fill-opacity:1;fill-rule:nonzero;stroke:none"
       aria-label="C-order&#10;(row-major)"
       transform="matrix(1.3333333,0,0,1.3333333,75.224,94.048)" />
    <path
       id="path4"
       d="m -124.72603,32.59883 h 34.01616 v 34.01616 h -34.01616 z"
       style="fill:#666666;fill-opacity:1;fill-rule:nonzero;stroke:#000000;stroke-width:0.3985;stroke-linecap:butt;stroke-linejoin:miter;stroke-miterlimit:10;stroke-dasharray:none;stroke-opacity:1"
       transform="matrix(1.3333333,0,0,-1.3333333,340.15333,143.97733)" />
    <path
       id="path5"
       d="m -90.70995,32.59883 h 34.01616 v 34.01616 h -34.01616 z"
       style="fill:#666666;fill-opacity:1;fill-rule:nonzero;stroke:#000000;stroke-width:0.3985;stroke-linecap:butt;stroke-linejoin:miter;stroke-miterlimit:10;stroke-dasharray:none;stroke-opacity:1"
       transform="matrix(1.3333333,0,0,-1.3333333,340.15333,143.97733)" />
    <path
       id="path6"
       d="M -56.69386,32.59883 H -22.6777 V 66.61499 H -56.69386 Z"
       style="fill:#666666;fill-opacity:1;fill-rule:nonzero;stroke:#000000;stroke-width:0.3985;stroke-linecap:butt;stroke-linejoin:miter;stroke-miterlimit:10;stroke-dasharray:none;stroke-opacity:1"
       transform="matrix(1.3333333,0,0,-1.3333333,340.15333,143.97733)" />
    <path
       id="path7"
       d="m -124.72603,-1.41724 h 34.01616 v 34.01616 h -34.01616 z"
       style="fill:#d9d9d9;fill-opacity:1;fill-rule:nonzero;stroke:#000000;stroke-width:0.3985;stroke-linecap:butt;stroke-linejoin:miter;stroke-miterlimit:10;stroke-dasharray:none;stroke-opacity:1"
       transform="matrix(1.3333333,0,0,-1.3333333,340.15333,143.97733)" />
    <path
       id="path8"
       d="m -90.70995,-1.41724 h 34.01616 v 34.01616 h -34.01616 z"
       style="fill:#d9d9d9;fill-opacity:1;fill-rule:nonzero;stroke:#000000;stroke-width:0.3985;stroke-linecap:butt;stroke-linejoin:miter;stroke-miterlimit:10;stroke-dasharray:none;stroke-opacity:1"
       transform="matrix(1.3333333,0,0,-1.3333333,340.15333,143.97733)" />
    <path
       id="path9"
       d="M -56.69386,-1.41724 H -22.6777 V 32.59892 H -56.69386 Z"
       style="fill:#d9d9d9;fill-opacity:1;fill-rule:nonzero;stroke:#000000;stroke-width:0.3985;stroke-linecap:butt;stroke-linejoin:miter;stroke-miterlimit:10;stroke-dasharray:none;stroke-opacity:1"
       transform="matrix(1.3333333,0,0,-1.3333333,340.15333,143.97733)" />
    <path
       id="path10"
       d="M -21.2601,32.59865 H 7.48529"
       style="fill:none;stroke:#000000;stroke-width:0.79701;stroke-linecap:butt;stroke-linejoin:miter;stroke-miterlimit:10;stroke-dasharray:none;stroke-opacity:1"
       transform="matrix(1.3333333,0,0,-1.3333333,340.15333,143.97733)" />
    <path
       id="path11"
       d="M 6.46242,0 C 5.66881,0.19443 2.18033,1.2962 0,2.49518 V -2.49518 C 2.18033,-1.2962 5.66881,-0.19443 6.46242,0 Z"
       style="fill:#000000;fill-opacity:1;fill-rule:nonzero;stroke:#000000;stroke-width:0.79701;stroke-linecap:butt;stroke-linejoin:miter;stroke-miterlimit:10;stroke-dasharray:none;stroke-opacity:1"
       transform="matrix(1.3333333,0,0,-1.3333333,350.13372,100.51247)" />
    <path
       id="path12"
       d="M 19.84285,15.59056 H 53.85901 V 49.60672 H 19.84285 Z"
       style="fill:#666666;fill-opacity:1;fill-rule:nonzero;stroke:#000000;stroke-width:0.3985;stroke-linecap:butt;stroke-linejoin:miter;stroke-miterlimit:10;stroke-dasharray:none;stroke-opacity:1"
       transform="matrix(1.3333333,0,0,-1.3333333,340.15333,143.97733)" />
    <path
       id="path13"
       d="M 53.85893,15.59056 H 87.87509 V 49.60672 H 53.85893 Z"
       style="fill:#666666;fill-opacity:1;fill-rule:nonzero;stroke:#000000;stroke-width:0.3985;stroke-linecap:butt;stroke-linejoin:miter;stroke-miterlimit:10;stroke-dasharray:none;stroke-opacity:1"
       transform="matrix(1.3333333,0,0,-1.3333333,340.15333,143.97733)" />
    <path
       id="path14"
       d="m 87.87502,15.59056 h 34.01616 V 49.60672 H 87.87502 Z"
       style="fill:#666666;fill-opacity:1;fill-rule:nonzero;stroke:#000000;stroke-width:0.3985;stroke-linecap:butt;stroke-linejoin:miter;stroke-miterlimit:10;stroke-dasharray:none;stroke-opacity:1"
       transform="matrix(1.3333333,0,0,-1.3333333,340.15333,143.97733)" />
    <path
       id="path15"
       d="m 121.8911,15.59056 h 34.01616 V 49.60672 H 121.8911 Z"
       style="fill:#d9d9d9;fill-opacity:1;fill-rule:nonzero;stroke:#000000;stroke-width:0.3985;stroke-linecap:butt;stroke-linejoin:miter;stroke-miterlimit:10;stroke-dasharray:none;stroke-opacity:1"
       transform="matrix(1.3333333,0,0,-1.3333333,340.15333,143.97733)" />
    <path
       id="path16"
       d="m 155.90718,15.59056 h 34.01616 v 34.01616 h -34.01616 z"
       style="fill:#d9d9d9;fill-opacity:1;fill-rule:nonzero;stroke:#000000;stroke-width:0.3985;stroke-linecap:butt;stroke-linejoin:miter;stroke-miterlimit:10;stroke-dasharray:none;stroke-opacity:1"
       transform="matrix(1.3333333,0,0,-1.3333333,340.15333,143.97733)" />
    <path
       id="path17"
       d="m 189.92326,15.59056 h 34.01616 v 34.01616 h -34.01616 z"
       style="fill:#d9d9d9;fill-opacity:1;fill-rule:nonzero;stroke:#000000;stroke-width:0.3985;stroke-linecap:butt;stroke-linejoin:miter;stroke-miterlimit:10;stroke-dasharray:none;stroke-opacity:1"
       transform="matrix(1.3333333,0,0,-1.3333333,340.15333,143.97733)" />
    <path
       id="path18"
       d="m 1.9930781,-3.3151875 h 1.6289063 c 0,0.421875 0,0.65625 0.3984375,0.65625 0.375,0 0.375,-0.28125 0.375,-0.4921875 v -1.0078125 c 0,-0.2109375 0,-0.4921875 -0.375,-0.4921875 -0.3984375,0 -0.3984375,0.234375 -0.3984375,0.6445312 H 1.9930781 v -2.6015625 h 2.9648438 v 0.5859375 c 0,0.2109375 0,0.4921875 0.3867187,0.4921875 0.3984375,0 0.3984375,-0.2695312 0.3984375,-0.4921875 V -6.807375 c 0,-0.375 -0.082031,-0.4921875 -0.4804687,-0.4921875 H 0.85635937 c -0.1640625,0 -0.48046875,0 -0.48046875,0.3398437 0,0.3515625 0.31640625,0.3515625 0.48046875,0.3515625 H 1.2196406 v 5.9179688 H 0.85635937 c -0.1640625,0 -0.48046875,0 -0.48046875,0.33984375 0,0.3515625 0.31640625,0.3515625 0.48046875,0.3515625 H 2.5672969 c 0.1757812,0 0.4804687,0 0.4804687,-0.3515625 0,-0.33984375 -0.3046875,-0.33984375 -0.4804687,-0.33984375 H 1.9930781 Z m 9.6093749,0.7382812 c 0,-1.5 -1.089844,-2.6835937 -2.3789061,-2.6835937 -1.2890625,0 -2.3789063,1.1835937 -2.3789063,2.6835937 0,1.5 1.1015625,2.64843755 2.3789063,2.64843755 1.2773441,0 2.3789061,-1.14843755 2.3789061,-2.64843755 z M 9.2235469,-0.619875 c -0.8554688,0 -1.6054688,-0.9140625 -1.6054688,-2.0390625 0,-1.1132813 0.7734375,-1.9101563 1.6054688,-1.9101563 0.8437501,0 1.6054691,0.796875 1.6054691,1.9101563 0,1.1367187 -0.738282,2.0390625 -1.6054691,2.0390625 z M 14.883703,-2.2605 c 0,-1.4179688 1.007813,-2.2734375 2.027344,-2.2734375 0.05859,0 0.128906,0 0.1875,0.011719 0.03516,0.4335938 0.375,0.46875 0.457031,0.46875 0.269531,0 0.46875,-0.1992187 0.46875,-0.46875 0,-0.5039062 -0.503906,-0.703125 -1.101562,-0.703125 -0.808594,0 -1.488282,0.3632813 -2.039063,1.03125 v -0.46875 c 0,-0.3632812 -0.07031,-0.4921875 -0.46875,-0.4921875 h -1.207031 c -0.175781,0 -0.480469,0 -0.480469,0.3515625 0,0.3515625 0.304688,0.3515625 0.480469,0.3515625 h 0.902344 v 3.7617188 h -0.902344 c -0.175781,0 -0.480469,0 -0.480469,0.33984375 0,0.3515625 0.304688,0.3515625 0.480469,0.3515625 h 2.929687 c 0.175782,0 0.480469,0 0.480469,-0.3515625 0,-0.33984375 -0.304687,-0.33984375 -0.480469,-0.33984375 h -1.253906 z m 6.149414,-2.1914063 h 1.945313 c 0.164062,0 0.46875,0 0.46875,-0.3515625 0,-0.3515625 -0.304688,-0.3515625 -0.46875,-0.3515625 h -1.945313 v -0.9726562 c 0,-0.2226563 0,-0.4921875 -0.375,-0.4921875 -0.398437,0 -0.398437,0.2695312 -0.398437,0.4921875 v 0.9726562 h -1.019532 c -0.164062,0 -0.480468,0 -0.480468,0.3515625 0,0.3515625 0.304687,0.3515625 0.46875,0.3515625 h 1.03125 v 3.0117188 c 0,1.1015625 0.761718,1.51171875 1.628906,1.51171875 0.644531,0 1.828125,-0.31640625 1.828125,-1.53515625 0,-0.2460938 0,-0.5039063 -0.398438,-0.5039063 -0.375,0 -0.375,0.2578125 -0.375,0.515625 -0.02344,0.7148438 -0.703125,0.8320313 -0.972656,0.8320313 -0.9375,0 -0.9375,-0.5976563 -0.9375,-0.890625 z M 27.185461,-2.2605 c 0,-1.4179688 1.007812,-2.2734375 2.027344,-2.2734375 0.05859,0 0.128906,0 0.1875,0.011719 0.03516,0.4335938 0.375,0.46875 0.457031,0.46875 0.269531,0 0.46875,-0.1992187 0.46875,-0.46875 0,-0.5039062 -0.503906,-0.703125 -1.101563,-0.703125 -0.808593,0 -1.488281,0.3632813 -2.039062,1.03125 v -0.46875 c 0,-0.3632812 -0.07031,-0.4921875 -0.46875,-0.4921875 H 25.50968 c -0.175782,0 -0.480469,0 -0.480469,0.3515625 0,0.3515625 0.304687,0.3515625 0.480469,0.3515625 h 0.902343 v 3.7617188 H 25.50968 c -0.175782,0 -0.480469,0 -0.480469,0.33984375 0,0.3515625 0.304687,0.3515625 0.480469,0.3515625 h 2.929687 c 0.175781,0 0.480469,0 0.480469,-0.3515625 0,-0.33984375 -0.304688,-0.33984375 -0.480469,-0.33984375 h -1.253906 z m 8.519531,-1.1367188 c 0,-0.9023437 -0.679687,-1.8632812 -2.296875,-1.8632812 -0.492187,0 -1.652344,0 -1.652344,0.8320312 0,0.3164063 0.222657,0.4921875 0.480469,0.4921875 0.08203,0 0.46875,-0.023437 0.480469,-0.515625 0,-0.070312 0.01172,-0.082031 0.269531,-0.1054687 0.140625,-0.011719 0.292969,-0.011719 0.433594,-0.011719 0.28125,0 0.691406,0 1.078125,0.3046875 0.433594,0.328125 0.433594,0.6679688 0.433594,1.0195313 -0.703125,0.023437 -1.394532,0.070312 -2.144532,0.3046875 -0.597656,0.1992187 -1.359375,0.6328125 -1.359375,1.4414062 0,0.8554688 0.75,1.57031255 1.863282,1.57031255 0.386718,0 1.125,-0.05859375 1.746093,-0.4921875 0.246094,0.3984375 0.84375,0.421875 1.289063,0.421875 0.292969,0 0.574219,0 0.574219,-0.3515625 0,-0.33984375 -0.304688,-0.33984375 -0.480469,-0.33984375 -0.304688,0 -0.539063,-0.0234375 -0.714844,-0.09375 z m -0.773437,1.8164063 c 0,0.28125 0,0.5273437 -0.492188,0.76171875 -0.421875,0.19921875 -0.972656,0.19921875 -1.019531,0.19921875 -0.703125,0 -1.21875,-0.3867188 -1.21875,-0.8789063 0,-0.703125 1.289062,-1.1015625 2.730469,-1.1015625 z m 6.972656,-1.921875 c 0,-1.171875 -0.550781,-1.7226563 -1.523438,-1.7226563 -0.820312,0 -1.335937,0.4570313 -1.546875,0.6796875 0,-0.4335937 0,-0.609375 -0.480468,-0.609375 h -0.785157 c -0.164062,0 -0.480468,0 -0.480468,0.3515625 0,0.3515625 0.316406,0.3515625 0.480468,0.3515625 h 0.492188 v 3.7617188 h -0.492188 c -0.164062,0 -0.480468,0 -0.480468,0.33984375 0,0.3515625 0.316406,0.3515625 0.480468,0.3515625 h 1.757813 c 0.164062,0 0.480469,0 0.480469,-0.3515625 0,-0.33984375 -0.316407,-0.33984375 -0.480469,-0.33984375 h -0.492188 v -2.1679688 c 0,-1.1601562 0.820313,-1.6757812 1.464844,-1.6757812 0.691406,0 0.832031,0.3984375 0.832031,1.078125 v 2.765625 h -0.492187 c -0.164063,0 -0.480469,0 -0.480469,0.33984375 0,0.3515625 0.316406,0.3515625 0.480469,0.3515625 h 1.757812 c 0.164063,0 0.480469,0 0.480469,-0.3515625 0,-0.33984375 -0.316406,-0.33984375 -0.480469,-0.33984375 h -0.492187 z m 6.105469,0.2460937 c 0.164062,0 0.539062,0 0.539062,-0.3867187 0,-0.3984375 -0.363281,-0.3984375 -0.539062,-0.3984375 h -3.75 c -0.152344,0 -0.539063,0 -0.539063,0.3867187 0,0.3984375 0.375,0.3984375 0.539063,0.3984375 z m 6.65625,0.6796875 c 0,-1.5 -1.089844,-2.6835937 -2.378907,-2.6835937 -1.289062,0 -2.378906,1.1835937 -2.378906,2.6835937 0,1.5 1.101563,2.64843755 2.378906,2.64843755 1.277344,0 2.378907,-1.14843755 2.378907,-2.64843755 z m -2.378907,1.9570313 c -0.855468,0 -1.605468,-0.9140625 -1.605468,-2.0390625 0,-1.1132813 0.773437,-1.9101563 1.605468,-1.9101563 0.84375,0 1.605469,0.796875 1.605469,1.9101563 0,1.1367187 -0.738281,2.0390625 -1.605469,2.0390625 z M 57.94718,-2.2605 c 0,-1.4179688 1.007812,-2.2734375 2.027343,-2.2734375 0.05859,0 0.128907,0 0.1875,0.011719 0.03516,0.4335938 0.375,0.46875 0.457032,0.46875 0.269531,0 0.46875,-0.1992187 0.46875,-0.46875 0,-0.5039062 -0.503907,-0.703125 -1.101563,-0.703125 -0.808594,0 -1.488281,0.3632813 -2.039062,1.03125 v -0.46875 c 0,-0.3632812 -0.07031,-0.4921875 -0.46875,-0.4921875 h -1.207032 c -0.175781,0 -0.480468,0 -0.480468,0.3515625 0,0.3515625 0.304687,0.3515625 0.480468,0.3515625 h 0.902344 v 3.7617188 h -0.902344 c -0.175781,0 -0.480468,0 -0.480468,0.33984375 0,0.3515625 0.304687,0.3515625 0.480468,0.3515625 h 2.929688 c 0.175781,0 0.480469,0 0.480469,-0.3515625 0,-0.33984375 -0.304688,-0.33984375 -0.480469,-0.33984375 H 57.94718 Z m 8.566406,-4.546875 c 0,-0.375 -0.07031,-0.4921875 -0.46875,-0.4921875 h -0.796875 c -0.164063,0 -0.480469,0 -0.480469,0.3398437 0,0.3515625 0.316406,0.3515625 0.480469,0.3515625 h 0.492187 v 1.9804688 c -0.1875,-0.1875 -0.679687,-0.5976563 -1.40625,-0.5976563 -1.265625,0 -2.367187,1.1484375 -2.367187,2.6601563 0,1.4648437 1.019531,2.63671875 2.261719,2.63671875 0.773437,0 1.289062,-0.46875 1.511718,-0.7265625 0,0.50390625 0,0.65625 0.480469,0.65625 h 0.785156 c 0.164063,0 0.480469,0 0.480469,-0.3515625 0,-0.33984375 -0.316406,-0.33984375 -0.480469,-0.33984375 h -0.492187 z m -0.773438,4.5351562 c 0,0.6679688 -0.550781,1.6523438 -1.441406,1.6523438 -0.867187,0 -1.558594,-0.8789063 -1.558594,-1.9453125 0,-1.1484375 0.808594,-1.96875 1.664063,-1.96875 0.773437,0 1.335937,0.7148437 1.335937,1.3359375 z m 6.902344,-0.023437 c 0.257813,0 0.480469,0 0.480469,-0.4453125 0,-1.3945312 -0.785156,-2.5195312 -2.285156,-2.5195312 -1.382813,0 -2.496094,1.1953125 -2.496094,2.6601562 0,1.5 1.207031,2.67187505 2.683594,2.67187505 1.535156,0 2.097656,-1.06640625 2.097656,-1.37109375 0,-0.070312 -0.02344,-0.3398438 -0.398438,-0.3398438 -0.222656,0 -0.292968,0.082031 -0.363281,0.2695313 -0.304687,0.69140625 -1.078125,0.75 -1.300781,0.75 -0.996094,0 -1.78125,-0.75 -1.921875,-1.6757813 z m -3.492187,-0.65625 c 0.164062,-1.0195312 0.9375,-1.6171875 1.6875,-1.6171875 1.195312,0 1.453125,1.0195313 1.5,1.6171875 z M 76.404211,-2.2605 c 0,-1.4179688 1.007812,-2.2734375 2.027344,-2.2734375 0.05859,0 0.128906,0 0.1875,0.011719 0.03516,0.4335938 0.375,0.46875 0.457031,0.46875 0.269531,0 0.46875,-0.1992187 0.46875,-0.46875 0,-0.5039062 -0.503906,-0.703125 -1.101563,-0.703125 -0.808593,0 -1.488281,0.3632813 -2.039062,1.03125 v -0.46875 c 0,-0.3632812 -0.07031,-0.4921875 -0.46875,-0.4921875 H 74.72843 c -0.175782,0 -0.480469,0 -0.480469,0.3515625 0,0.3515625 0.304687,0.3515625 0.480469,0.3515625 h 0.902343 v 3.7617188 H 74.72843 c -0.175782,0 -0.480469,0 -0.480469,0.33984375 0,0.3515625 0.304687,0.3515625 0.480469,0.3515625 h 2.929687 c 0.175781,0 0.480469,0 0.480469,-0.3515625 0,-0.33984375 -0.304688,-0.33984375 -0.480469,-0.33984375 H 76.404211 Z M 2.0458125,15.027586 c 0,-0.152344 -0.09375,-0.199219 -0.2578125,-0.316406 -1.65234375,-1.136719 -2.05078125,-2.847657 -2.05078125,-4.007813 0,-1.1367186 0.375,-2.8593748 2.05078125,-4.0195311 0.1640625,-0.1171875 0.2578125,-0.1640625 0.2578125,-0.3164062 0,-0.1289063 -0.070312,-0.3164063 -0.3515625,-0.3164063 -0.3046875,0 -1.18359375,0.6914063 -1.734375,1.4765625 -0.66796875,0.9257813 -1.0078125,2.0390625 -1.0078125,3.1757811 0,1.324219 0.48046875,2.4375 0.984375,3.140625 0.55078125,0.761719 1.4179687,1.5 1.7578125,1.5 0.28125,0 0.3515625,-0.210937 0.3515625,-0.316406 z m 6.4804687,-1.980469 c 0,-0.316406 -0.2929687,-0.316406 -0.3984375,-0.316406 -0.2695312,0 -0.3164062,0.09375 -0.375,0.269531 -0.2695312,0.65625 -0.8554687,0.726563 -1.1367187,0.726563 -1.0195313,0 -1.875,-0.84375 -1.875,-1.957032 0,-0.609375 0.3398437,-1.9921871 1.9101562,-1.9921871 0.328125,0 0.5742188,0.023437 0.6796875,0.035156 0.082031,0.023437 0.09375,0.035156 0.09375,0.1054687 0.035156,0.4804694 0.4101563,0.4921874 0.4804688,0.4921874 0.2695312,0 0.4921875,-0.175781 0.4921875,-0.4921874 0,-0.8320312 -1.2070313,-0.8320312 -1.734375,-0.8320312 -2.0390625,0 -2.7070313,1.6757816 -2.7070313,2.6835936 0,1.453125 1.1132813,2.648438 2.5546875,2.648438 1.59375,0 2.015625,-1.183594 2.015625,-1.371094 z m 6.1523438,-1.277344 c 0,-1.5 -1.089844,-2.6835933 -2.378906,-2.6835933 -1.289063,0 -2.3789065,1.1835933 -2.3789065,2.6835933 0,1.5 1.1015625,2.648438 2.3789065,2.648438 1.277343,0 2.378906,-1.148438 2.378906,-2.648438 z m -2.378906,1.957032 c -0.855469,0 -1.605469,-0.914063 -1.605469,-2.039063 0,-1.113281 0.773437,-1.9101561 1.605469,-1.9101561 0.84375,0 1.605468,0.7968751 1.605468,1.9101561 0,1.136719 -0.738281,2.039063 -1.605468,2.039063 z M 18.8505,7.5393047 c 0,-0.375 -0.07031,-0.4921875 -0.480469,-0.4921875 h -1.757812 c -0.164063,0 -0.480469,0 -0.480469,0.3398437 0,0.3515625 0.316406,0.3515625 0.480469,0.3515625 h 1.464843 v 5.9179686 h -1.464843 c -0.164063,0 -0.480469,0 -0.480469,0.339844 0,0.351562 0.316406,0.351562 0.480469,0.351562 h 3.691406 c 0.175781,0 0.480469,0 0.480469,-0.351562 0,-0.339844 -0.304688,-0.339844 -0.480469,-0.339844 H 18.8505 Z m 7.672852,2.1445312 c 0,-0.3632812 -0.07031,-0.4921875 -0.46875,-0.4921875 h -0.796875 c -0.164063,0 -0.480469,0 -0.480469,0.3515625 0,0.3515625 0.316406,0.3515625 0.480469,0.3515625 h 0.492187 v 2.5898436 c 0,0.984375 -0.808594,1.242188 -1.347656,1.242188 -0.949219,0 -0.949219,-0.433594 -0.949219,-0.796875 V 9.6838359 c 0,-0.3632812 -0.07031,-0.4921875 -0.480469,-0.4921875 h -0.785156 c -0.164062,0 -0.480469,0 -0.480469,0.3515625 0,0.3515625 0.316407,0.3515625 0.480469,0.3515625 h 0.492188 v 3.0937496 c 0,1.101563 0.714843,1.429688 1.640625,1.429688 0.726562,0 1.183593,-0.292969 1.417968,-0.503906 0,0.433593 0.292969,0.433593 0.492188,0.433593 h 0.785156 c 0.164063,0 0.480469,0 0.480469,-0.351562 0,-0.339844 -0.316406,-0.339844 -0.480469,-0.339844 h -0.492187 z m 6.574218,1.0429691 c 0,-0.269532 0,-1.6054691 -1.054687,-1.6054691 -0.410156,0 -0.820313,0.1992188 -1.148438,0.6328125 -0.07031,-0.1757812 -0.328125,-0.6328125 -0.902343,-0.6328125 -0.539063,0 -0.914063,0.3515625 -1.007813,0.4570313 C 28.97257,9.1916484 28.726477,9.1916484 28.50382,9.1916484 h -0.351562 c -0.164063,0 -0.480469,0 -0.480469,0.3515625 0,0.3515625 0.269531,0.3515625 0.644531,0.3515625 v 3.7617186 c -0.386718,0 -0.644531,0 -0.644531,0.339844 0,0.351562 0.316406,0.351562 0.480469,0.351562 h 0.996094 c 0.175781,0 0.480468,0 0.480468,-0.351562 0,-0.339844 -0.269531,-0.339844 -0.644531,-0.339844 v -2.203125 c 0,-1.007812 0.433594,-1.6406248 0.960938,-1.6406248 0.328125,0 0.433593,0.4218748 0.433593,0.9843748 v 2.859375 c -0.210937,0 -0.527343,0 -0.527343,0.339844 0,0.351562 0.316406,0.351562 0.480468,0.351562 h 0.878907 c 0.164062,0 0.480468,0 0.480468,-0.351562 0,-0.339844 -0.28125,-0.339844 -0.644531,-0.339844 v -2.203125 c 0,-1.007812 0.421875,-1.6406248 0.949219,-1.6406248 0.339844,0 0.433594,0.4218748 0.433594,0.9843748 v 2.859375 c -0.199219,0 -0.527344,0 -0.527344,0.339844 0,0.351562 0.328125,0.351562 0.492187,0.351562 h 0.867188 c 0.175781,0 0.480469,0 0.480469,-0.351562 0,-0.339844 -0.269532,-0.339844 -0.644532,-0.339844 z m 5.730469,0.117187 c 0,-1.1718748 -0.550781,-1.7226561 -1.523437,-1.7226561 -0.820313,0 -1.335938,0.4570313 -1.546875,0.6796875 0,-0.4335937 0,-0.609375 -0.480469,-0.609375 h -0.785156 c -0.164063,0 -0.480469,0 -0.480469,0.3515625 0,0.3515625 0.316406,0.3515625 0.480469,0.3515625 h 0.492187 v 3.7617186 h -0.492187 c -0.164063,0 -0.480469,0 -0.480469,0.339844 0,0.351562 0.316406,0.351562 0.480469,0.351562 h 1.757812 c 0.164063,0 0.480469,0 0.480469,-0.351562 0,-0.339844 -0.316406,-0.339844 -0.480469,-0.339844 h -0.492187 v -2.167969 c 0,-1.160156 0.820312,-1.6757808 1.464843,-1.6757808 0.691407,0 0.832032,0.3984378 0.832032,1.0781248 v 2.765625 h -0.492188 c -0.164062,0 -0.480469,0 -0.480469,0.339844 0,0.351562 0.316407,0.351562 0.480469,0.351562 h 1.757813 c 0.164062,0 0.480468,0 0.480468,-0.351562 0,-0.339844 -0.316406,-0.339844 -0.480468,-0.339844 h -0.492188 z m 6.105469,0.246094 c 0.164062,0 0.539062,0 0.539062,-0.386719 0,-0.398437 -0.363281,-0.398437 -0.539062,-0.398437 h -3.75 c -0.152344,0 -0.539063,0 -0.539063,0.386718 0,0.398438 0.375,0.398438 0.539063,0.398438 z m 6.621094,-0.363281 c 0,-0.269532 0,-1.6054691 -1.054688,-1.6054691 -0.410156,0 -0.820312,0.1992188 -1.148437,0.6328125 -0.07031,-0.1757812 -0.328125,-0.6328125 -0.902344,-0.6328125 -0.539063,0 -0.914063,0.3515625 -1.007813,0.4570313 C 47.4296,9.1916484 47.183508,9.1916484 46.960852,9.1916484 h -0.351563 c -0.164062,0 -0.480469,0 -0.480469,0.3515625 0,0.3515625 0.269532,0.3515625 0.644532,0.3515625 v 3.7617186 c -0.386719,0 -0.644532,0 -0.644532,0.339844 0,0.351562 0.316407,0.351562 0.480469,0.351562 h 0.996094 c 0.175781,0 0.480469,0 0.480469,-0.351562 0,-0.339844 -0.269532,-0.339844 -0.644532,-0.339844 v -2.203125 c 0,-1.007812 0.433594,-1.6406248 0.960938,-1.6406248 0.328125,0 0.433594,0.4218748 0.433594,0.9843748 v 2.859375 c -0.210938,0 -0.527344,0 -0.527344,0.339844 0,0.351562 0.316406,0.351562 0.480469,0.351562 h 0.878906 c 0.164062,0 0.480469,0 0.480469,-0.351562 0,-0.339844 -0.28125,-0.339844 -0.644532,-0.339844 v -2.203125 c 0,-1.007812 0.421875,-1.6406248 0.949219,-1.6406248 0.339844,0 0.433594,0.4218748 0.433594,0.9843748 v 2.859375 c -0.199219,0 -0.527344,0 -0.527344,0.339844 0,0.351562 0.328125,0.351562 0.492188,0.351562 h 0.867187 c 0.175781,0 0.480469,0 0.480469,-0.351562 0,-0.339844 -0.269531,-0.339844 -0.644531,-0.339844 z m 5.683593,0.222656 c 0,-0.902344 -0.679687,-1.8632813 -2.296875,-1.8632813 -0.492187,0 -1.652343,0 -1.652343,0.8320312 0,0.3164061 0.222656,0.4921871 0.480468,0.4921871 0.08203,0 0.46875,-0.02344 0.480469,-0.5156246 0,-0.070312 0.01172,-0.082031 0.269531,-0.1054687 0.140625,-0.011719 0.292969,-0.011719 0.433594,-0.011719 0.28125,0 0.691406,0 1.078125,0.3046873 0.433594,0.328125 0.433594,0.667969 0.433594,1.019532 -0.703125,0.02344 -1.394531,0.07031 -2.144531,0.304687 -0.597657,0.199219 -1.359375,0.632813 -1.359375,1.441406 0,0.855469 0.75,1.570313 1.863281,1.570313 0.386719,0 1.125,-0.05859 1.746094,-0.492188 0.246093,0.398438 0.84375,0.421875 1.289062,0.421875 0.292969,0 0.574219,0 0.574219,-0.351562 0,-0.339844 -0.304688,-0.339844 -0.480469,-0.339844 -0.304687,0 -0.539062,-0.02344 -0.714844,-0.09375 z m -0.773437,1.816406 c 0,0.28125 0,0.527344 -0.492188,0.761719 -0.421875,0.199219 -0.972656,0.199219 -1.019531,0.199219 -0.703125,0 -1.21875,-0.386719 -1.21875,-0.878907 0,-0.703125 1.289063,-1.101562 2.730469,-1.101562 z m 6.28125,-5.1914061 c 0,-0.3046875 -0.234375,-0.5390625 -0.539063,-0.5390625 -0.292968,0 -0.539062,0.234375 -0.539062,0.5390625 0,0.2929688 0.246094,0.5390625 0.539062,0.5390625 0.304688,0 0.539063,-0.2460937 0.539063,-0.5390625 z m -2.238281,1.6171875 c -0.164063,0 -0.46875,0 -0.46875,0.3515625 0,0.3515625 0.28125,0.3515625 0.46875,0.3515625 h 1.464843 v 4.9218746 c 0,0.1875 0,0.703125 -0.339843,1.148438 -0.316407,0.410156 -0.65625,0.410156 -0.9375,0.410156 -0.246094,0 -0.527344,-0.01172 -0.726563,-0.05859 0,-0.164062 0,-0.609375 -0.46875,-0.609375 -0.222656,0 -0.492187,0.164063 -0.492187,0.503907 0,0.867187 1.171875,0.867187 1.652343,0.867187 0.421875,0 0.914063,0 1.511719,-0.609375 0.117188,-0.128906 0.574219,-0.679687 0.574219,-1.59375 V 9.6838359 c 0,-0.3632812 -0.07031,-0.4921875 -0.480469,-0.4921875 z m 9.539062,2.5781246 c 0,-1.5 -1.089844,-2.6835933 -2.378906,-2.6835933 -1.289063,0 -2.378906,1.1835933 -2.378906,2.6835933 0,1.5 1.101562,2.648438 2.378906,2.648438 1.277344,0 2.378906,-1.148438 2.378906,-2.648438 z m -2.378906,1.957032 c -0.855469,0 -1.605469,-0.914063 -1.605469,-2.039063 0,-1.113281 0.773438,-1.9101561 1.605469,-1.9101561 0.84375,0 1.605469,0.7968751 1.605469,1.9101561 0,1.136719 -0.738282,2.039063 -1.605469,2.039063 z m 5.660156,-1.640625 c 0,-1.417969 1.007813,-2.2734378 2.027344,-2.2734378 0.05859,0 0.128906,0 0.1875,0.011719 0.03516,0.4335938 0.375,0.4687498 0.457031,0.4687498 0.269531,0 0.46875,-0.199219 0.46875,-0.4687498 0,-0.5039062 -0.503906,-0.703125 -1.101562,-0.703125 -0.808594,0 -1.488282,0.3632813 -2.039063,1.0312498 V 9.6838359 c 0,-0.3632812 -0.07031,-0.4921875 -0.46875,-0.4921875 h -1.207031 c -0.175781,0 -0.480469,0 -0.480469,0.3515625 0,0.3515625 0.304688,0.3515625 0.480469,0.3515625 h 0.902344 v 3.7617186 h -0.902344 c -0.175781,0 -0.480469,0 -0.480469,0.339844 0,0.351562 0.304688,0.351562 0.480469,0.351562 h 2.929687 c 0.175782,0 0.480469,0 0.480469,-0.351562 0,-0.339844 -0.304687,-0.339844 -0.480469,-0.339844 h -1.253906 z m 7.6875,-1.382813 c 0,-0.9374998 -0.222656,-2.1445311 -1.089844,-3.3046873 -0.410156,-0.5507813 -1.289062,-1.3476563 -1.652343,-1.3476563 -0.269532,0 -0.339844,0.1992188 -0.339844,0.3164063 0,0.140625 0.08203,0.1992187 0.292969,0.3398437 1.464843,1.03125 2.015625,2.6367188 2.015625,3.9843746 0,1.078125 -0.351563,2.835938 -2.0625,4.019532 -0.152344,0.105468 -0.246094,0.164062 -0.246094,0.316406 0,0.105469 0.07031,0.316406 0.339844,0.316406 0.304687,0 1.183593,-0.691406 1.734375,-1.476562 0.691406,-0.972657 1.007812,-2.097657 1.007812,-3.164063 z m 0,0"
       style="fill:#000000;fill-opacity:1;fill-rule:nonzero;stroke:none"
       aria-label="Fortran-order&#10;(column-major)"
       transform="matrix(1.3333333,0,0,1.3333333,50.616,201.764)" />
    <path
       id="path19"
       d="m -124.72603,-48.18973 h 34.01616 v 34.01616 h -34.01616 z"
       style="fill:#666666;fill-opacity:1;fill-rule:nonzero;stroke:#000000;stroke-width:0.3985;stroke-linecap:butt;stroke-linejoin:miter;stroke-miterlimit:10;stroke-dasharray:none;stroke-opacity:1"
       transform="matrix(1.3333333,0,0,-1.3333333,340.15333,143.97733)" />
    <path
       id="path20"
       d="m -90.70995,-48.18973 h 34.01616 v 34.01616 h -34.01616 z"
       style="fill:#a6a6a6;fill-opacity:1;fill-rule:nonzero;stroke:#000000;stroke-width:0.3985;stroke-linecap:butt;stroke-linejoin:miter;stroke-miterlimit:10;stroke-dasharray:none;stroke-opacity:1"
       transform="matrix(1.3333333,0,0,-1.3333333,340.15333,143.97733)" />
    <path
       id="path21"
       d="m -56.69386,-48.18973 h 34.01616 v 34.01616 h -34.01616 z"
       style="fill:#d9d9d9;fill-opacity:1;fill-rule:nonzero;stroke:#000000;stroke-width:0.3985;stroke-linecap:butt;stroke-linejoin:miter;stroke-miterlimit:10;stroke-dasharray:none;stroke-opacity:1"
       transform="matrix(1.3333333,0,0,-1.3333333,340.15333,143.97733)" />
    <path
       id="path22"
       d="m -124.72603,-82.20581 h 34.01616 v 34.01616 h -34.01616 z"
       style="fill:#666666;fill-opacity:1;fill-rule:nonzero;stroke:#000000;stroke-width:0.3985;stroke-linecap:butt;stroke-linejoin:miter;stroke-miterlimit:10;stroke-dasharray:none;stroke-opacity:1"
       transform="matrix(1.3333333,0,0,-1.3333333,340.15333,143.97733)" />
    <path
       id="path23"
       d="m -90.70995,-82.20581 h 34.01616 v 34.01616 h -34.01616 z"
       style="fill:#a6a6a6;fill-opacity:1;fill-rule:nonzero;stroke:#000000;stroke-width:0.3985;stroke-linecap:butt;stroke-linejoin:miter;stroke-miterlimit:10;stroke-dasharray:none;stroke-opacity:1"
       transform="matrix(1.3333333,0,0,-1.3333333,340.15333,143.97733)" />
    <path
       id="path24"
       d="m -56.69386,-82.20581 h 34.01616 v 34.01616 h -34.01616 z"
       style="fill:#d9d9d9;fill-opacity:1;fill-rule:nonzero;stroke:#000000;stroke-width:0.3985;stroke-linecap:butt;stroke-linejoin:miter;stroke-miterlimit:10;stroke-dasharray:none;stroke-opacity:1"
       transform="matrix(1.3333333,0,0,-1.3333333,340.15333,143.97733)" />
    <path
       id="path25"
       d="M -21.2601,-48.18947 H 7.48529"
       style="fill:none;stroke:#000000;stroke-width:0.79701;stroke-linecap:butt;stroke-linejoin:miter;stroke-miterlimit:10;stroke-dasharray:none;stroke-opacity:1"
       transform="matrix(1.3333333,0,0,-1.3333333,340.15333,143.97733)" />
    <path
       id="path26"
       d="M 6.46242,0 C 5.66881,0.19443 2.18033,1.2962 0,2.49518 V -2.49518 C 2.18033,-1.2962 5.66881,-0.19443 6.46242,0 Z"
       style="fill:#000000;fill-opacity:1;fill-rule:nonzero;stroke:#000000;stroke-width:0.79701;stroke-linecap:butt;stroke-linejoin:miter;stroke-miterlimit:10;stroke-dasharray:none;stroke-opacity:1"
       transform="matrix(1.3333333,0,0,-1.3333333,350.13372,208.22996)" />
    <path
       id="path27"
       d="M 19.84285,-65.19756 H 53.85901 V -31.1814 H 19.84285 Z"
       style="fill:#666666;fill-opacity:1;fill-rule:nonzero;stroke:#000000;stroke-width:0.3985;stroke-linecap:butt;stroke-linejoin:miter;stroke-miterlimit:10;stroke-dasharray:none;stroke-opacity:1"
       transform="matrix(1.3333333,0,0,-1.3333333,340.15333,143.97733)" />
    <path
       id="path28"
       d="M 53.85893,-65.19756 H 87.87509 V -31.1814 H 53.85893 Z"
       style="fill:#666666;fill-opacity:1;fill-rule:nonzero;stroke:#000000;stroke-width:0.3985;stroke-linecap:butt;stroke-linejoin:miter;stroke-miterlimit:10;stroke-dasharray:none;stroke-opacity:1"
       transform="matrix(1.3333333,0,0,-1.3333333,340.15333,143.97733)" />
    <path
       id="path29"
       d="m 87.87502,-65.19756 h 34.01616 V -31.1814 H 87.87502 Z"
       style="fill:#a6a6a6;fill-opacity:1;fill-rule:nonzero;stroke:#000000;stroke-width:0.3985;stroke-linecap:butt;stroke-linejoin:miter;stroke-miterlimit:10;stroke-dasharray:none;stroke-opacity:1"
       transform="matrix(1.3333333,0,0,-1.3333333,340.15333,143.97733)" />
    <path
       id="path30"
       d="m 121.8911,-65.19756 h 34.01616 V -31.1814 H 121.8911 Z"
       style="fill:#a6a6a6;fill-opacity:1;fill-rule:nonzero;stroke:#000000;stroke-width:0.3985;stroke-linecap:butt;stroke-linejoin:miter;stroke-miterlimit:10;stroke-dasharray:none;stroke-opacity:1"
       transform="matrix(1.3333333,0,0,-1.3333333,340.15333,143.97733)" />
    <path
       id="path31"
       d="m 155.90718,-65.19756 h 34.01616 v 34.01616 h -34.01616 z"
       style="fill:#d9d9d9;fill-opacity:1;fill-rule:nonzero;stroke:#000000;stroke-width:0.3985;stroke-linecap:butt;stroke-linejoin:miter;stroke-miterlimit:10;stroke-dasharray:none;stroke-opacity:1"
       transform="matrix(1.3333333,0,0,-1.3333333,340.15333,143.97733)" />
    <path
       id="path32"
       d="m 189.92326,-65.19756 h 34.01616 v 34.01616 h -34.01616 z"
       style="fill:#d9d9d9;fill-opacity:1;fill-rule:nonzero;stroke:#000000;stroke-width:0.3985;stroke-linecap:butt;stroke-linejoin:miter;stroke-miterlimit:10;stroke-dasharray:none;stroke-opacity:1"
       transform="matrix(1.3333333,0,0,-1.3333333,340.15333,143.97733)" />
  </g>
</svg>
