<?xml version="1.0" encoding="UTF-8" standalone="no"?>
<!-- Created with Inkscape (http://www.inkscape.org/) -->

<svg
   version="1.1"
   id="svg1"
   width="680.3147"
   height="93.32"
   viewBox="0 0 680.3147 93.32"
   sodipodi:docname="15_newaxis_before_vector.pdf"
   xmlns:inkscape="http://www.inkscape.org/namespaces/inkscape"
   xmlns:sodipodi="http://sodipodi.sourceforge.net/DTD/sodipodi-0.dtd"
   xmlns="http://www.w3.org/2000/svg"
   xmlns:svg="http://www.w3.org/2000/svg">
  <defs
     id="defs1" />
  <sodipodi:namedview
     id="namedview1"
     pagecolor="#ffffff"
     bordercolor="#000000"
     borderopacity="0.25"
     inkscape:showpageshadow="2"
     inkscape:pageopacity="0.0"
     inkscape:pagecheckerboard="0"
     inkscape:deskcolor="#d1d1d1">
    <inkscape:page
       x="0"
       y="0"
       inkscape:label="1"
       id="page1"
       width="680.3147"
       height="93.32"
       margin="0"
       bleed="0" />
  </sodipodi:namedview>
  <g
     id="g1"
     inkscape:groupmode="layer"
     inkscape:label="1">
    <path
       id="path1"
       d="m -138.89934,-11.33871 h 22.67743 v 22.67743 h -22.67743 z"
       style="fill:none;stroke:#000000;stroke-width:0.3985;stroke-linecap:butt;stroke-linejoin:miter;stroke-miterlimit:10;stroke-dasharray:none;stroke-opacity:1"
       transform="matrix(1.3333333,0,0,-1.3333333,325.03867,68.637333)" />
    <path
       id="path2"
       d="m 5.3554141,-3.8212344 c 0,-0.9960937 -0.058594,-1.96875 -0.4921875,-2.8710937 -0.4921875,-0.9960938 -1.3476563,-1.2539063 -1.9335938,-1.2539063 -0.6914062,0 -1.546875,0.3398438 -1.98046874,1.3359375 -0.33984375,0.75 -0.45703125,1.4882813 -0.45703125,2.7890625 0,1.1601563 0.0820313,2.0273438 0.51562499,2.87109377 0.4570313,0.9140625 1.2890625,1.1953125 1.9101563,1.1953125 1.0429687,0 1.640625,-0.62109375 1.9804687,-1.31249997 0.4335938,-0.890625 0.4570313,-2.0625 0.4570313,-2.7539063 z m -2.4375,3.83203127 c -0.3867188,0 -1.1601563,-0.2109375 -1.3828125,-1.52343747 -0.140625,-0.7148438 -0.140625,-1.6171875 -0.140625,-2.4609375 0,-0.9726563 0,-1.8632813 0.1992187,-2.5664063 0.1992188,-0.796875 0.8085938,-1.171875 1.3242188,-1.171875 0.4570312,0 1.1484375,0.28125 1.3710937,1.3007813 0.1523438,0.6796875 0.1523438,1.6289062 0.1523438,2.4375 0,0.8085937 0,1.7109375 -0.1289063,2.4375 -0.2226562,1.32421872 -0.9726562,1.54687497 -1.3945312,1.54687497 z m 0,0"
       style="fill:#000000;fill-opacity:1;fill-rule:nonzero;stroke:none"
       aria-label="0"
       transform="matrix(1.3333333,0,0,1.3333333,151.05867,73.774667)" />
    <path
       id="path3"
       d="m -116.2218,-11.33871 h 22.67743 v 22.67743 h -22.67743 z"
       style="fill:none;stroke:#000000;stroke-width:0.3985;stroke-linecap:butt;stroke-linejoin:miter;stroke-miterlimit:10;stroke-dasharray:none;stroke-opacity:1"
       transform="matrix(1.3333333,0,0,-1.3333333,325.03867,68.637333)" />
    <path
       id="path4"
       d="m 3.4440391,-7.6649844 c 0,-0.2695312 0,-0.28125 -0.2460938,-0.28125 -0.28125,0.3164063 -0.8789062,0.7617188 -2.109375,0.7617188 v 0.3515625 c 0.2695313,0 0.8671875,0 1.5234375,-0.3164063 v 6.22265627 c 0,0.43359375 -0.035156,0.57421875 -1.078125,0.57421875 h -0.375 v 0.351562505 c 0.3164063,-0.023437505 1.4765625,-0.023437505 1.875,-0.023437505 0.3984375,0 1.546875,0 1.8632813,0.023437505 V -0.35248438 H 4.5338828 c -1.0546875,0 -1.0898437,-0.140625 -1.0898437,-0.57421875 z m 0,0"
       style="fill:#000000;fill-opacity:1;fill-rule:nonzero;stroke:none"
       aria-label="1"
       transform="matrix(1.3333333,0,0,1.3333333,181.29467,73.774667)" />
    <path
       id="path5"
       d="m -93.54427,-11.33871 h 22.67743 v 22.67743 h -22.67743 z"
       style="fill:none;stroke:#000000;stroke-width:0.3985;stroke-linecap:butt;stroke-linejoin:miter;stroke-miterlimit:10;stroke-dasharray:none;stroke-opacity:1"
       transform="matrix(1.3333333,0,0,-1.3333333,325.03867,68.637333)" />
    <path
       id="path6"
       d="M 5.2621563,-2.0048281 H 4.992625 c -0.035156,0.1992187 -0.1289062,0.8554687 -0.2460937,1.04296872 -0.082031,0.1171875 -0.7617188,0.1171875 -1.125,0.1171875 H 1.4066875 C 1.7348125,-1.1259219 2.461375,-1.8876406 2.7777813,-2.1806094 c 1.8164062,-1.6640625 2.484375,-2.2851562 2.484375,-3.46875 0,-1.3828125 -1.0898438,-2.296875 -2.4726563,-2.296875 -1.3945312,0 -2.203125,1.1835938 -2.203125,2.203125 0,0.609375 0.5273438,0.609375 0.5625,0.609375 0.2460938,0 0.5625,-0.1757812 0.5625,-0.5625 0,-0.328125 -0.234375,-0.5507812 -0.5625,-0.5507812 -0.1054687,0 -0.1289062,0 -0.1640625,0.011719 0.2226563,-0.8203125 0.8671875,-1.3710937 1.640625,-1.3710937 1.0195313,0 1.640625,0.8554687 1.640625,1.9570312 0,1.0078125 -0.5859375,1.8984375 -1.265625,2.6601563 L 0.586375,-0.28217188 V -9.21875e-4 H 4.94575 Z m 0,0"
       style="fill:#000000;fill-opacity:1;fill-rule:nonzero;stroke:none"
       aria-label="2"
       transform="matrix(1.3333333,0,0,1.3333333,211.53067,73.774667)" />
    <path
       id="path7"
       d="m 4.9450078,-3.3989531 c 0,-0.9023438 -0.6796875,-1.8632813 -2.296875,-1.8632813 -0.4921875,0 -1.65234374,0 -1.65234374,0.8320313 0,0.3164062 0.22265624,0.4921875 0.48046874,0.4921875 0.082031,0 0.46875,-0.023437 0.4804688,-0.515625 0,-0.070312 0.011719,-0.082031 0.2695312,-0.1054688 0.140625,-0.011719 0.2929688,-0.011719 0.4335938,-0.011719 0.28125,0 0.6914062,0 1.078125,0.3046875 0.4335937,0.328125 0.4335937,0.6679687 0.4335937,1.0195312 -0.703125,0.023437 -1.3945312,0.070312 -2.1445312,0.3046875 -0.5976563,0.1992188 -1.35937504,0.6328125 -1.35937504,1.4414063 0,0.85546872 0.75000004,1.57031247 1.86328124,1.57031247 0.3867188,0 1.125,-0.05859375 1.7460938,-0.4921875 0.2460937,0.3984375 0.84375,0.421875005 1.2890625,0.421875005 0.2929687,0 0.5742187,0 0.5742187,-0.351562505 0,-0.33984375 -0.3046875,-0.33984375 -0.4804687,-0.33984375 -0.3046875,0 -0.5390625,-0.0234375 -0.7148438,-0.09375 z m -0.7734375,1.8164062 c 0,0.28125 0,0.5273438 -0.4921875,0.76171877 -0.421875,0.19921875 -0.9726562,0.19921875 -1.0195312,0.19921875 -0.703125,0 -1.21875,-0.38671872 -1.21875,-0.87890622 0,-0.703125 1.2890625,-1.1015625 2.7304687,-1.1015625 z m 7.1718747,-6.0234375 c 0.164063,0 0.46875,0 0.46875,-0.3398437 0,-0.3515625 -0.304687,-0.3515625 -0.46875,-0.3515625 H 9.2575078 c -0.3867187,0 -0.4804687,0.1054687 -0.4804687,0.4921875 v 8.30859372 c 0,0.36328125 0.082031,0.4921875 0.4804687,0.4921875 h 2.0859372 c 0.164063,0 0.46875,0 0.46875,-0.3515625 0,-0.33984375 -0.304687,-0.33984375 -0.46875,-0.33984375 H 9.5621953 V -7.6059844 Z m 3.199219,0.703125 c -0.140625,-0.3984375 -0.386719,-0.3984375 -0.632812,-0.3984375 h -0.785157 c -0.175781,0 -0.46875,0 -0.46875,0.3398438 0,0.3515625 0.304688,0.3515625 0.46875,0.3515625 h 0.269532 v 5.91796872 h -0.269532 c -0.164062,0 -0.46875,0 -0.46875,0.33984375 0,0.351562505 0.292969,0.351562505 0.46875,0.351562505 h 1.195313 c 0.175781,0 0.492187,0 0.492187,-0.351562505 0,-0.33984375 -0.316406,-0.33984375 -0.492187,-0.33984375 H 14.062195 V -6.4809844 h 0.01172 c 0.03516,0.1289063 0.140625,0.4453125 0.363281,1.0546875 l 1.78125,5.01562502 c 0.140625,0.410156255 0.375,0.410156255 0.644532,0.410156255 0.351562,0 0.492187,-0.035156255 0.492187,-0.492187505 V -6.6098906 h 0.269531 c 0.164063,0 0.480469,0 0.480469,-0.3515625 0,-0.3398438 -0.304687,-0.3398438 -0.480469,-0.3398438 h -1.195312 c -0.164063,0 -0.492188,0 -0.492188,0.3398438 0,0.3515625 0.328125,0.3515625 0.492188,0.3515625 h 0.257812 v 5.78906247 h -0.01172 c -0.03516,-0.140625 -0.140625,-0.44531247 -0.351563,-1.05468747 z m 9.363281,4.3242188 c 0,-1.5 -1.089843,-2.6835938 -2.378906,-2.6835938 -1.289062,0 -2.378906,1.1835938 -2.378906,2.6835938 0,1.5 1.101562,2.64843747 2.378906,2.64843747 1.277344,0 2.378906,-1.14843747 2.378906,-2.64843747 z m -2.378906,1.95703122 c -0.855469,0 -1.605469,-0.91406252 -1.605469,-2.03906252 0,-1.1132812 0.773438,-1.9101562 1.605469,-1.9101562 0.84375,0 1.605469,0.796875 1.605469,1.9101562 0,1.1367188 -0.738281,2.03906252 -1.605469,2.03906252 z m 8.074219,-2.88281252 c 0,-1.171875 -0.550781,-1.7226562 -1.523438,-1.7226562 -0.820312,0 -1.335937,0.4570312 -1.546875,0.6796875 0,-0.4335938 0,-0.609375 -0.480468,-0.609375 H 25.26532 c -0.164062,0 -0.480468,0 -0.480468,0.3515625 0,0.3515625 0.316406,0.3515625 0.480468,0.3515625 h 0.492188 v 3.76171872 H 25.26532 c -0.164062,0 -0.480468,0 -0.480468,0.33984375 0,0.351562505 0.316406,0.351562505 0.480468,0.351562505 h 1.757813 c 0.164062,0 0.480469,0 0.480469,-0.351562505 0,-0.33984375 -0.316407,-0.33984375 -0.480469,-0.33984375 H 26.530945 V -2.8598906 c 0,-1.1601563 0.820313,-1.6757813 1.464844,-1.6757813 0.691406,0 0.832031,0.3984375 0.832031,1.078125 v 2.76562502 h -0.492187 c -0.164063,0 -0.480469,0 -0.480469,0.33984375 0,0.351562505 0.316406,0.351562505 0.480469,0.351562505 h 1.757812 c 0.164063,0 0.480469,0 0.480469,-0.351562505 0,-0.33984375 -0.316406,-0.33984375 -0.480469,-0.33984375 h -0.492187 z m 6.128906,1.2070313 c 0.257813,0 0.480469,0 0.480469,-0.4453125 0,-1.3945313 -0.785156,-2.5195313 -2.285156,-2.5195313 -1.382813,0 -2.496094,1.1953125 -2.496094,2.6601563 0,1.5 1.207031,2.67187497 2.683594,2.67187497 1.535156,0 2.097656,-1.06640625 2.097656,-1.37109377 0,-0.070312 -0.02344,-0.3398437 -0.398438,-0.3398437 -0.222656,0 -0.292968,0.082031 -0.363281,0.2695312 -0.304687,0.69140627 -1.078125,0.75000002 -1.300781,0.75000002 -0.996094,0 -1.78125,-0.75000002 -1.921875,-1.67578122 z m -3.492187,-0.65625 c 0.164062,-1.0195313 0.9375,-1.6171875 1.6875,-1.6171875 1.195312,0 1.453125,1.0195312 1.5,1.6171875 z m 7.980468,2.91796872 c -0.07031,0.375 -0.304687,0.8203125 -0.890625,1.03125 -0.105468,0.0234375 -0.28125,0.0820313 -0.28125,0.30468748 0,0.1523438 0.175782,0.3632813 0.363282,0.3632813 0.328125,0 1.511718,-0.5859375 1.511718,-1.87500003 0,-0.6328125 -0.398437,-1.13671877 -0.925781,-1.13671877 -0.445312,0 -0.679687,0.3398438 -0.679687,0.66796877 0,0.3984375 0.304687,0.679687505 0.667968,0.679687505 0.07031,0 0.152344,-0.011718755 0.234375,-0.035156255 z M 52.959656,-4.4653594 c 0,-0.3984375 -0.316406,-0.6914062 -0.667968,-0.6914062 -0.375,0 -0.679688,0.3046875 -0.679688,0.6914062 0,0.3515625 0.316406,0.6679688 0.667969,0.6679688 0.398437,0 0.679687,-0.328125 0.679687,-0.6679688 z m 0,3.79687502 c 0,-0.39843752 -0.316406,-0.67968752 -0.667968,-0.67968752 -0.375,0 -0.679688,0.2929688 -0.679688,0.67968752 0,0.3515625 0.316406,0.667968755 0.667969,0.667968755 0.398437,0 0.679687,-0.328125005 0.679687,-0.667968755 z m 5.917969,-7.13671872 c 0,-0.375 -0.07031,-0.4921875 -0.480469,-0.4921875 h -2.074218 c -0.175782,0 -0.480469,0 -0.480469,0.3515625 0,0.3398437 0.304687,0.3398437 0.480469,0.3398437 h 1.78125 v 7.91015627 h -1.78125 c -0.175782,0 -0.480469,0 -0.480469,0.33984375 0,0.3515625 0.304687,0.3515625 0.480469,0.3515625 h 2.074218 c 0.398438,0 0.480469,-0.1171875 0.480469,-0.4921875 z M 1.9391484,9.5414766 c 0,-0.1875 0,-0.4570313 -0.328125,-0.4570313 -0.2929687,0 -0.3632812,0.28125 -0.3632812,0.2929688 C 0.76727344,9.0844453 0.22821094,9.0844453 -0.01788281,9.0844453 c -1.94531249,0 -2.21484379,0.9960937 -2.21484379,1.4062497 0,0.480469 0.2929688,0.820313 0.703125,1.042969 0.375,0.222656 0.72656254,0.28125 1.69921879,0.433594 0.46875,0.08203 1.42968751,0.234375 1.42968751,0.902344 0,0.433593 -0.4101563,0.855468 -1.52343751,0.855468 -0.76171875,0 -1.26562499,-0.304687 -1.51171879,-1.160156 -0.058594,-0.164062 -0.09375,-0.292969 -0.3984375,-0.292969 -0.3984375,0 -0.3984375,0.222657 -0.3984375,0.457032 v 1.230468 c 0,0.199219 0,0.457032 0.3398438,0.457032 0.140625,0 0.2460937,0 0.4335937,-0.492188 0.55078129,0.457031 1.17187504,0.492188 1.53515629,0.492188 2.21484371,0 2.21484371,-1.429688 2.21484371,-1.546875 0,-1.253907 -1.47656246,-1.5 -2.05078121,-1.582032 -1.0546875,-0.175781 -1.76953129,-0.304687 -1.76953129,-0.796875 0,-0.328125 0.3632813,-0.7148434 1.48828129,-0.7148434 1.13671871,0 1.18359371,0.5390624 1.20703121,0.8554684 0.023437,0.234375 0.2460938,0.269532 0.3867188,0.269532 0.3867187,0 0.3867187,-0.210938 0.3867187,-0.457032 z m 6.1289063,1.3007814 c 0,-1.1718752 -0.5507813,-1.7226564 -1.5234375,-1.7226564 -0.8203125,0 -1.3359375,0.4570312 -1.546875,0.6796875 V 7.5375703 c 0,-0.375 -0.070312,-0.4921875 -0.4804688,-0.4921875 H 3.7321172 c -0.1640625,0 -0.4804688,0 -0.4804688,0.3398438 0,0.3515625 0.3164063,0.3515625 0.4804688,0.3515625 H 4.2243047 V 13.654758 H 3.7321172 c -0.1640625,0 -0.4804688,0 -0.4804688,0.339844 0,0.351562 0.3164063,0.351562 0.4804688,0.351562 h 1.7578125 c 0.1640625,0 0.4804687,0 0.4804687,-0.351562 0,-0.339844 -0.3164062,-0.339844 -0.4804687,-0.339844 H 4.9977422 v -2.167969 c 0,-1.160156 0.8203125,-1.6757812 1.4648437,-1.6757812 0.6914063,0 0.8320313,0.3984372 0.8320313,1.0781252 v 2.765625 H 6.8024297 c -0.1640625,0 -0.4804688,0 -0.4804688,0.339844 0,0.351562 0.3164063,0.351562 0.4804688,0.351562 h 1.7578125 c 0.1640625,0 0.4804687,0 0.4804687,-0.351562 0,-0.339844 -0.3164062,-0.339844 -0.4804687,-0.339844 H 8.0680547 Z m 6.1054683,0.105469 c 0,-0.902344 -0.679687,-1.8632817 -2.296875,-1.8632817 -0.492187,0 -1.652343,0 -1.652343,0.8320313 0,0.3164064 0.222656,0.4921874 0.480468,0.4921874 0.08203,0 0.46875,-0.02344 0.480469,-0.5156249 0,-0.070312 0.01172,-0.082031 0.269531,-0.1054688 0.140625,-0.011719 0.292969,-0.011719 0.433594,-0.011719 0.28125,0 0.691406,0 1.078125,0.3046877 0.433594,0.328125 0.433594,0.667969 0.433594,1.019531 -0.703125,0.02344 -1.394531,0.07031 -2.144531,0.304688 -0.597657,0.199219 -1.3593753,0.632812 -1.3593753,1.441406 0,0.855469 0.7500003,1.570313 1.8632813,1.570313 0.386719,0 1.125,-0.05859 1.746094,-0.492188 0.246093,0.398438 0.84375,0.421875 1.289062,0.421875 0.292969,0 0.574219,0 0.574219,-0.351562 0,-0.339844 -0.304688,-0.339844 -0.480469,-0.339844 -0.304687,0 -0.539062,-0.02344 -0.714844,-0.09375 z m -0.773437,1.816406 c 0,0.28125 0,0.527344 -0.492188,0.761719 -0.421875,0.199218 -0.972656,0.199218 -1.019531,0.199218 -0.703125,0 -1.21875,-0.386718 -1.21875,-0.878906 0,-0.703125 1.289063,-1.101562 2.730469,-1.101562 z m 4.394531,4.230469 c 0.164063,0 0.480469,0 0.480469,-0.339844 0,-0.351563 -0.316406,-0.351563 -0.480469,-0.351563 H 17.30243 v -2.554687 c 0.292968,0.328125 0.726562,0.667969 1.40625,0.667969 1.265625,0 2.378906,-1.136719 2.378906,-2.648438 0,-1.476562 -1.007813,-2.6484374 -2.25,-2.6484374 -0.878906,0 -1.429688,0.5273437 -1.535156,0.6445312 0,-0.3867187 0,-0.5742187 -0.480469,-0.5742187 h -0.785156 c -0.164063,0 -0.480469,0 -0.480469,0.3515625 0,0.3515625 0.316406,0.3515625 0.480469,0.3515625 h 0.492187 v 6.4101559 h -0.492187 c -0.164063,0 -0.480469,0 -0.480469,0.351563 0,0.339844 0.316406,0.339844 0.480469,0.339844 z M 17.30243,11.170383 c 0,-0.679688 0.667968,-1.3593752 1.453125,-1.3593752 0.855468,0 1.546875,0.8789062 1.546875,1.9570312 0,1.148438 -0.808594,1.957031 -1.664063,1.957031 -0.890625,0 -1.335937,-1.019531 -1.335937,-1.617187 z m 9.199218,0.878906 c 0.257813,0 0.480469,0 0.480469,-0.445312 0,-1.394532 -0.785156,-2.5195317 -2.285156,-2.5195317 -1.382813,0 -2.496094,1.1953127 -2.496094,2.6601567 0,1.5 1.207031,2.671875 2.683594,2.671875 1.535156,0 2.097656,-1.066407 2.097656,-1.371094 0,-0.07031 -0.02344,-0.339844 -0.398437,-0.339844 -0.222657,0 -0.292969,0.08203 -0.363282,0.269531 -0.304687,0.691407 -1.078125,0.75 -1.300781,0.75 -0.996094,0 -1.78125,-0.75 -1.921875,-1.675781 z m -3.492187,-0.65625 c 0.164062,-1.019531 0.9375,-1.6171874 1.6875,-1.6171874 1.195312,0 1.453125,1.0195314 1.5,1.6171874 z m 9.867187,-1.21875 c 0.152344,0 0.515625,0 0.515625,-0.3867187 0,-0.3867187 -0.398437,-0.3867187 -0.574218,-0.3867187 h -4.113282 c -0.1875,0 -0.574218,0 -0.574218,0.3867187 0,0.3867187 0.363281,0.3867187 0.515625,0.3867187 z m -0.05859,1.816406 c 0.175781,0 0.574218,0 0.574218,-0.398437 0,-0.375 -0.375,-0.375 -0.515625,-0.375 H 28.64618 c -0.164063,0 -0.515625,0 -0.515625,0.375 0,0.398437 0.386718,0.398437 0.574218,0.398437 z m 6.140625,3.035157 c 0,-0.152344 -0.09375,-0.199219 -0.257813,-0.316407 -1.652344,-1.136718 -2.050781,-2.847656 -2.050781,-4.007812 0,-1.1367189 0.375,-2.8593752 2.050781,-4.0195314 0.164063,-0.1171875 0.257813,-0.1640625 0.257813,-0.3164063 0,-0.1289062 -0.07031,-0.3164062 -0.351563,-0.3164062 -0.304687,0 -1.183594,0.6914062 -1.734375,1.4765625 -0.667969,0.9257812 -1.007812,2.0390625 -1.007812,3.1757814 0,1.324219 0.480468,2.4375 0.984375,3.140625 0.550781,0.761719 1.417968,1.5 1.757812,1.5 0.28125,0 0.351563,-0.210938 0.351563,-0.316406 z m 4.664062,-7.6406254 c 0,-0.1757813 0,-0.4804688 -0.339844,-0.4804688 -0.210937,0 -0.28125,0.1054688 -0.351562,0.2578125 -0.222656,0.515625 -0.621094,1.1484375 -1.253906,1.1953125 -0.175782,0.011719 -0.433594,0.035156 -0.433594,0.3515625 0,0.1992188 0.117187,0.3398438 0.386719,0.3398438 0.667968,0 1.183593,-0.5039063 1.21875,-0.5273438 V 13.654758 H 41.79462 c -0.164062,0 -0.492187,0 -0.492187,0.339844 0,0.351562 0.328125,0.351562 0.492187,0.351562 h 2.882813 c 0.164062,0 0.492187,0 0.492187,-0.351562 0,-0.339844 -0.328125,-0.339844 -0.492187,-0.339844 h -1.054688 z m 5.824219,6.9257814 c -0.07031,0.375 -0.304688,0.820312 -0.890625,1.03125 -0.105469,0.02344 -0.28125,0.08203 -0.28125,0.304687 0,0.152344 0.175781,0.363282 0.363281,0.363282 0.328125,0 1.511719,-0.585938 1.511719,-1.875 0,-0.632813 -0.398438,-1.136719 -0.925781,-1.136719 -0.445313,0 -0.679688,0.339844 -0.679688,0.667969 0,0.398437 0.304688,0.679687 0.667969,0.679687 0.07031,0 0.152344,-0.01172 0.234375,-0.03516 z m 5.90625,-3.5625 c 1.242187,0 1.792969,0.867187 1.792969,1.523437 0,0.785157 -0.691407,1.523438 -1.746094,1.523438 -1.195313,0 -1.734375,-0.644531 -1.734375,-0.808594 0,-0.02344 0.01172,-0.04687 0.02344,-0.05859 0.04687,-0.09375 0.08203,-0.1875 0.08203,-0.292968 0,-0.246094 -0.1875,-0.480469 -0.46875,-0.480469 -0.257813,0 -0.492188,0.164062 -0.492188,0.527344 0,1.042968 1.136719,1.804687 2.589844,1.804687 1.511719,0 2.519531,-1.078125 2.519531,-2.203125 0,-0.609375 -0.328125,-1.464844 -1.382812,-1.921875 0.726562,-0.4453124 1.054687,-1.1718749 1.054687,-1.7929687 0,-0.890625 -0.902344,-1.6640625 -2.191406,-1.6640625 -1.324219,0 -2.261719,0.5625 -2.261719,1.453125 0,0.3984375 0.304688,0.515625 0.492188,0.515625 0.222656,0 0.480468,-0.1640625 0.480468,-0.4921875 0,-0.1875 -0.09375,-0.2929687 -0.09375,-0.3164062 0.351563,-0.4453125 1.183594,-0.46875 1.382813,-0.46875 0.820312,0 1.417969,0.421875 1.417969,0.984375 0,0.3515625 -0.234375,1.3476562 -1.488282,1.4296879 -0.445312,0.02344 -0.632812,0.04687 -0.679687,0.04687 -0.234375,0.02344 -0.304688,0.175781 -0.304688,0.339843 0,0.351563 0.257813,0.351563 0.457032,0.351563 z m 7.204102,-0.04687 c 0,-0.9375002 -0.222657,-2.1445314 -1.089844,-3.3046877 -0.410156,-0.5507812 -1.289063,-1.3476562 -1.652344,-1.3476562 -0.269531,0 -0.339844,0.1992187 -0.339844,0.3164062 0,0.140625 0.08203,0.1992188 0.292969,0.3398438 1.464844,1.03125 2.015625,2.6367187 2.015625,3.9843749 0,1.078125 -0.351562,2.835938 -2.0625,4.019531 -0.152344,0.105469 -0.246094,0.164063 -0.246094,0.316407 0,0.105468 0.07031,0.316406 0.339844,0.316406 0.304688,0 1.183594,-0.691406 1.734375,-1.476563 0.691406,-0.972656 1.007813,-2.097656 1.007813,-3.164062 z m 0,0"
       style="fill:#000000;fill-opacity:1;fill-rule:nonzero;stroke:none"
       aria-label="a[None,:]&#10;shape=(1,3)"
       transform="matrix(1.3333333,0,0,1.3333333,144.184,21.696)" />
    <path
       id="path8"
       d="m 4.7705078,-2.7668047 h 3.3046875 c 0.1640625,0 0.375,0 0.375,-0.2109375 0,-0.2226562 -0.1992187,-0.2226562 -0.375,-0.2226562 H 4.7705078 v -3.3046875 c 0,-0.1640625 0,-0.3867188 -0.2109375,-0.3867188 -0.234375,0 -0.234375,0.2109375 -0.234375,0.3867188 v 3.3046875 H 1.0322266 c -0.17578129,0 -0.38671879,0 -0.38671879,0.2109375 0,0.2226562 0.19921875,0.2226562 0.38671879,0.2226562 h 3.2929687 v 3.30468751 c 0,0.1640625 0,0.38671875 0.2226563,0.38671875 0.2226562,0 0.2226562,-0.2109375 0.2226562,-0.38671875 z m 0,0"
       style="fill:#000000;fill-opacity:1;fill-rule:nonzero;stroke:none"
       aria-label="+"
       transform="matrix(1.3333333,0,0,1.3333333,264.16667,72.622667)" />
    <path
       id="path9"
       d="M -22.67726,-11.33871 H 1.7e-4 v 22.67743 h -22.67743 z"
       style="fill:none;stroke:#000000;stroke-width:0.3985;stroke-linecap:butt;stroke-linejoin:miter;stroke-miterlimit:10;stroke-dasharray:none;stroke-opacity:1"
       transform="matrix(1.3333333,0,0,-1.3333333,325.03867,68.637333)" />
    <path
       id="path10"
       d="m 3.4452031,-7.6639844 c 0,-0.2695312 0,-0.28125 -0.2460937,-0.28125 -0.28125,0.3164063 -0.8789063,0.7617188 -2.109375,0.7617188 v 0.3515625 c 0.2695312,0 0.8671875,0 1.5234375,-0.3164063 v 6.22265627 c 0,0.43359375 -0.035156,0.57421875 -1.078125,0.57421875 h -0.375 V 7.8125e-5 c 0.3164062,-0.023437505 1.4765625,-0.023437505 1.875,-0.023437505 0.3984375,0 1.546875,0 1.8632812,0.023437505 V -0.35148438 H 4.5350469 c -1.0546875,0 -1.0898438,-0.140625 -1.0898438,-0.57421875 z m 7.7636719,3.84375 c 0,-0.9960937 -0.05859,-1.96875 -0.492187,-2.8710937 -0.492188,-0.9960938 -1.3476567,-1.2539063 -1.9335942,-1.2539063 -0.6914063,0 -1.546875,0.3398438 -1.9804688,1.3359375 -0.3398437,0.75 -0.4570312,1.4882813 -0.4570312,2.7890625 0,1.1601563 0.082031,2.0273438 0.515625,2.87109377 0.4570312,0.9140625 1.2890625,1.1953125 1.9101562,1.1953125 1.0429688,0 1.640625,-0.62109375 1.980469,-1.31249997 0.433594,-0.890625 0.457031,-2.0625 0.457031,-2.7539063 z m -2.4375,3.83203127 c -0.3867187,0 -1.1601562,-0.2109375 -1.3828125,-1.52343747 -0.140625,-0.7148438 -0.140625,-1.6171875 -0.140625,-2.4609375 0,-0.9726563 0,-1.8632813 0.1992188,-2.5664063 0.1992187,-0.796875 0.8085937,-1.171875 1.3242187,-1.171875 0.4570313,0 1.1484375,0.28125 1.371094,1.3007813 0.152344,0.6796875 0.152344,1.6289062 0.152344,2.4375 0,0.8085937 0,1.7109375 -0.128907,2.4375 C 9.94325,-0.21085938 9.19325,0.01179687 8.771375,0.01179687 Z m 0,0"
       style="fill:#000000;fill-opacity:1;fill-rule:nonzero;stroke:none"
       aria-label="10"
       transform="matrix(1.3333333,0,0,1.3333333,302.11733,73.773333)" />
    <path
       id="path11"
       d="M 2.4e-4,-11.33871 H 22.67767 V 11.33872 H 2.4e-4 Z"
       style="fill:none;stroke:#000000;stroke-width:0.3985;stroke-linecap:butt;stroke-linejoin:miter;stroke-miterlimit:10;stroke-dasharray:none;stroke-opacity:1"
       transform="matrix(1.3333333,0,0,-1.3333333,325.03867,68.637333)" />
    <path
       id="path12"
       d="M 5.2603906,-2.0038281 H 4.9908594 c -0.035156,0.1992187 -0.1289063,0.8554687 -0.2460938,1.04296872 -0.082031,0.1171875 -0.7617187,0.1171875 -1.125,0.1171875 H 1.4049219 c 0.328125,-0.28125002 1.0546875,-1.04296872 1.3710937,-1.33593752 1.8164063,-1.6640625 2.484375,-2.2851562 2.484375,-3.46875 0,-1.3828125 -1.0898437,-2.296875 -2.4726562,-2.296875 -1.3945313,0 -2.20312502,1.1835938 -2.20312502,2.203125 0,0.609375 0.52734372,0.609375 0.56250002,0.609375 0.2460937,0 0.5625,-0.1757812 0.5625,-0.5625 0,-0.328125 -0.234375,-0.5507812 -0.5625,-0.5507812 -0.1054688,0 -0.1289063,0 -0.16406252,0.011719 0.22265622,-0.8203125 0.86718752,-1.3710937 1.64062502,-1.3710937 1.0195312,0 1.640625,0.8554687 1.640625,1.9570312 0,1.0078125 -0.5859375,1.8984375 -1.265625,2.6601563 L 0.58460938,-0.28117188 V 7.8125e-5 H 4.9439844 Z m 5.9472654,-1.8164063 c 0,-0.9960937 -0.05859,-1.96875 -0.492187,-2.8710937 -0.492188,-0.9960938 -1.3476565,-1.2539063 -1.933594,-1.2539063 -0.6914062,0 -1.546875,0.3398438 -1.9804687,1.3359375 -0.3398438,0.75 -0.4570313,1.4882813 -0.4570313,2.7890625 0,1.1601563 0.082031,2.0273438 0.515625,2.87109377 0.4570313,0.9140625 1.2890625,1.1953125 1.9101563,1.1953125 1.0429687,0 1.6406247,-0.62109375 1.9804687,-1.31249997 0.433594,-0.890625 0.457031,-2.0625 0.457031,-2.7539063 z M 8.7701563,0.01179687 c -0.3867188,0 -1.1601563,-0.2109375 -1.3828125,-1.52343747 -0.140625,-0.7148438 -0.140625,-1.6171875 -0.140625,-2.4609375 0,-0.9726563 0,-1.8632813 0.1992187,-2.5664063 0.1992188,-0.796875 0.8085938,-1.171875 1.3242188,-1.171875 0.4570312,0 1.1484375,0.28125 1.3710937,1.3007813 0.152344,0.6796875 0.152344,1.6289062 0.152344,2.4375 0,0.8085937 0,1.7109375 -0.128906,2.4375 -0.2226567,1.32421872 -0.9726567,1.54687497 -1.3945317,1.54687497 z m 0,0"
       style="fill:#000000;fill-opacity:1;fill-rule:nonzero;stroke:none"
       aria-label="20"
       transform="matrix(1.3333333,0,0,1.3333333,332.35333,73.773333)" />
    <path
       id="path13"
       d="M 22.67778,-11.33871 H 45.35521 V 11.33872 H 22.67778 Z"
       style="fill:none;stroke:#000000;stroke-width:0.3985;stroke-linecap:butt;stroke-linejoin:miter;stroke-miterlimit:10;stroke-dasharray:none;stroke-opacity:1"
       transform="matrix(1.3333333,0,0,-1.3333333,325.03867,68.637333)" />
    <path
       id="path14"
       d="m 2.2035078,-4.2889844 c -0.2109375,0.011719 -0.2578125,0.023437 -0.2578125,0.1289063 0,0.1171875 0.058594,0.1171875 0.28125,0.1171875 h 0.5507813 c 1.0078125,0 1.4648437,0.84375 1.4648437,1.9921875 0,1.55859372 -0.8085937,1.98046872 -1.3945312,1.98046872 -0.5742188,0 -1.5585938,-0.28125 -1.89843754,-1.06640622 0.37500004,0.058594 0.72656254,-0.1523438 0.72656254,-0.5859375 0,-0.3398438 -0.2578125,-0.5859375 -0.5859375,-0.5859375 -0.29296879,0 -0.59765629,0.1640625 -0.59765629,0.6210937 0,1.06640627 1.06640629,1.93359377 2.39062499,1.93359377 1.4179688,0 2.4726563,-1.078125 2.4726563,-2.28515627 0,-1.1015625 -0.890625,-1.96875 -2.0273438,-2.1679687 1.03125,-0.3046875 1.6992188,-1.171875 1.6992188,-2.109375 0,-0.9375 -0.9726563,-1.6289063 -2.1328125,-1.6289063 -1.1953125,0 -2.08593754,0.7265625 -2.08593754,1.59375 0,0.4804688 0.37500004,0.5742188 0.55078124,0.5742188 0.2578125,0 0.5390625,-0.1757813 0.5390625,-0.5390625 0,-0.375 -0.28125,-0.5390625 -0.5507812,-0.5390625 -0.070312,0 -0.09375,0 -0.1289063,0.011719 0.4570313,-0.8203125 1.5820313,-0.8203125 1.640625,-0.8203125 0.3867188,0 1.171875,0.1757813 1.171875,1.3476563 0,0.234375 -0.035156,0.9023437 -0.3867187,1.4179687 -0.3515625,0.5273438 -0.7617188,0.5625 -1.0898438,0.5742188 z m 9.0058592,0.46875 c 0,-0.9960937 -0.05859,-1.96875 -0.492187,-2.8710937 -0.492188,-0.9960938 -1.3476566,-1.2539063 -1.9335941,-1.2539063 -0.6914062,0 -1.546875,0.3398438 -1.9804687,1.3359375 -0.3398438,0.75 -0.4570313,1.4882813 -0.4570313,2.7890625 0,1.1601563 0.082031,2.0273438 0.515625,2.87109377 0.4570313,0.9140625 1.2890625,1.1953125 1.9101563,1.1953125 1.0429687,0 1.6406248,-0.62109375 1.9804688,-1.31249997 0.433594,-0.890625 0.457031,-2.0625 0.457031,-2.7539063 z M 8.7718672,0.01179687 c -0.3867188,0 -1.1601563,-0.2109375 -1.3828125,-1.52343747 -0.140625,-0.7148438 -0.140625,-1.6171875 -0.140625,-2.4609375 0,-0.9726563 0,-1.8632813 0.1992187,-2.5664063 0.1992188,-0.796875 0.8085938,-1.171875 1.3242188,-1.171875 0.4570312,0 1.1484375,0.28125 1.3710938,1.3007813 0.152344,0.6796875 0.152344,1.6289062 0.152344,2.4375 0,0.8085937 0,1.7109375 -0.128907,2.4375 -0.2226558,1.32421872 -0.9726558,1.54687497 -1.3945308,1.54687497 z m 0,0"
       style="fill:#000000;fill-opacity:1;fill-rule:nonzero;stroke:none"
       aria-label="30"
       transform="matrix(1.3333333,0,0,1.3333333,362.58933,73.773333)" />
    <path
       id="path15"
       d="m 1.9208906,-6.8091094 c 0,-0.375 -0.070312,-0.4921875 -0.4804687,-0.4921875 H 0.65526563 c -0.1640625,0 -0.48046875,0 -0.48046875,0.3398438 0,0.3515625 0.31640625,0.3515625 0.48046875,0.3515625 H 1.1474531 v 6.11718747 c 0,0.22265625 0,0.492187505 0.3984375,0.492187505 0.375,0 0.375,-0.246093755 0.375,-0.597656255 0.2929688,0.328125 0.7265625,0.66796875 1.40625,0.66796875 1.265625,0 2.3789063,-1.13671877 2.3789063,-2.64843747 0,-1.4765625 -1.0078125,-2.6484375 -2.25,-2.6484375 -0.8789063,0 -1.4296875,0.5273437 -1.5351563,0.6445312 z m 0,3.6328125 c 0,-0.6796875 0.6679688,-1.359375 1.453125,-1.359375 0.8554688,0 1.546875,0.8789063 1.546875,1.9570313 0,1.1484375 -0.8085937,1.95703122 -1.6640625,1.95703122 -0.890625,0 -1.3359375,-1.01953122 -1.3359375,-1.61718752 z M -22.667977,9.5414766 c 0,-0.1875 0,-0.4570313 -0.328125,-0.4570313 -0.292968,0 -0.363281,0.28125 -0.363281,0.2929688 -0.480469,-0.2929688 -1.019531,-0.2929688 -1.265625,-0.2929688 -1.945312,0 -2.214844,0.9960937 -2.214844,1.4062497 0,0.480469 0.292969,0.820313 0.703125,1.042969 0.375,0.222656 0.726563,0.28125 1.699219,0.433594 0.46875,0.08203 1.429688,0.234375 1.429688,0.902344 0,0.433593 -0.410157,0.855468 -1.523438,0.855468 -0.761719,0 -1.265625,-0.304687 -1.511719,-1.160156 -0.05859,-0.164062 -0.09375,-0.292969 -0.398437,-0.292969 -0.398438,0 -0.398438,0.222657 -0.398438,0.457032 v 1.230468 c 0,0.199219 0,0.457032 0.339844,0.457032 0.140625,0 0.246094,0 0.433594,-0.492188 0.550781,0.457031 1.171875,0.492188 1.535156,0.492188 2.214844,0 2.214844,-1.429688 2.214844,-1.546875 0,-1.253907 -1.476563,-1.5 -2.050781,-1.582032 -1.054688,-0.175781 -1.769532,-0.304687 -1.769532,-0.796875 0,-0.328125 0.363282,-0.7148434 1.488282,-0.7148434 1.136718,0 1.183593,0.5390624 1.207031,0.8554684 0.02344,0.234375 0.246094,0.269532 0.386719,0.269532 0.386718,0 0.386718,-0.210938 0.386718,-0.457032 z m 6.128907,1.3007814 c 0,-1.1718752 -0.550782,-1.7226564 -1.523438,-1.7226564 -0.820312,0 -1.335937,0.4570312 -1.546875,0.6796875 V 7.5375703 c 0,-0.375 -0.07031,-0.4921875 -0.480469,-0.4921875 h -0.785156 c -0.164062,0 -0.480469,0 -0.480469,0.3398438 0,0.3515625 0.316407,0.3515625 0.480469,0.3515625 h 0.492188 v 5.9179689 h -0.492188 c -0.164062,0 -0.480469,0 -0.480469,0.339844 0,0.351562 0.316407,0.351562 0.480469,0.351562 h 1.757813 c 0.164062,0 0.480468,0 0.480468,-0.351562 0,-0.339844 -0.316406,-0.339844 -0.480468,-0.339844 h -0.492188 v -2.167969 c 0,-1.160156 0.820313,-1.6757812 1.464844,-1.6757812 0.691406,0 0.832031,0.3984372 0.832031,1.0781252 v 2.765625 h -0.492187 c -0.164063,0 -0.480469,0 -0.480469,0.339844 0,0.351562 0.316406,0.351562 0.480469,0.351562 h 1.757812 c 0.164063,0 0.480469,0 0.480469,-0.351562 0,-0.339844 -0.316406,-0.339844 -0.480469,-0.339844 h -0.492187 z m 6.105468,0.105469 c 0,-0.902344 -0.679687,-1.8632817 -2.296875,-1.8632817 -0.492187,0 -1.652343,0 -1.652343,0.8320313 0,0.3164064 0.222656,0.4921874 0.480468,0.4921874 0.08203,0 0.46875,-0.02344 0.480469,-0.5156249 0,-0.070312 0.01172,-0.082031 0.269531,-0.1054688 0.140625,-0.011719 0.292969,-0.011719 0.433594,-0.011719 0.28125,0 0.691406,0 1.078125,0.3046877 0.433594,0.328125 0.433594,0.667969 0.433594,1.019531 -0.703125,0.02344 -1.394531,0.07031 -2.144531,0.304688 -0.597657,0.199219 -1.359375,0.632812 -1.359375,1.441406 0,0.855469 0.75,1.570313 1.863281,1.570313 0.386719,0 1.125,-0.05859 1.746094,-0.492188 0.246093,0.398438 0.84375,0.421875 1.2890622,0.421875 0.2929687,0 0.5742187,0 0.5742187,-0.351562 0,-0.339844 -0.3046875,-0.339844 -0.4804687,-0.339844 -0.3046872,0 -0.5390622,-0.02344 -0.7148442,-0.09375 z m -0.773437,1.816406 c 0,0.28125 0,0.527344 -0.492188,0.761719 -0.421875,0.199218 -0.972656,0.199218 -1.019531,0.199218 -0.703125,0 -1.21875,-0.386718 -1.21875,-0.878906 0,-0.703125 1.289063,-1.101562 2.730469,-1.101562 z m 4.3945312,4.230469 c 0.1640625,0 0.4804687,0 0.4804687,-0.339844 0,-0.351563 -0.3164062,-0.351563 -0.4804687,-0.351563 h -0.4921875 v -2.554687 c 0.2929687,0.328125 0.7265625,0.667969 1.40625,0.667969 1.265625,0 2.3789062,-1.136719 2.3789062,-2.648438 0,-1.476562 -1.0078125,-2.6484374 -2.25,-2.6484374 -0.8789062,0 -1.4296875,0.5273437 -1.5351562,0.6445312 0,-0.3867187 0,-0.5742187 -0.4804688,-0.5742187 h -0.7851562 c -0.1640625,0 -0.4804688,0 -0.4804688,0.3515625 0,0.3515625 0.3164063,0.3515625 0.4804688,0.3515625 h 0.4921875 v 6.4101559 h -0.4921875 c -0.1640625,0 -0.4804688,0 -0.4804688,0.351563 0,0.339844 0.3164063,0.339844 0.4804688,0.339844 z m -0.4921875,-5.824219 c 0,-0.679688 0.6679687,-1.3593752 1.453125,-1.3593752 0.8554687,0 1.546875,0.8789062 1.546875,1.9570312 0,1.148438 -0.8085938,1.957031 -1.6640625,1.957031 -0.890625,0 -1.3359375,-1.019531 -1.3359375,-1.617187 z m 9.1992187,0.878906 c 0.2578125,0 0.4804688,0 0.4804688,-0.445312 0,-1.394532 -0.7851563,-2.5195317 -2.28515626,-2.5195317 -1.38281254,0 -2.49609374,1.1953127 -2.49609374,2.6601567 0,1.5 1.2070312,2.671875 2.68359374,2.671875 1.53515626,0 2.09765626,-1.066407 2.09765626,-1.371094 0,-0.07031 -0.023437,-0.339844 -0.3984375,-0.339844 -0.2226563,0 -0.2929688,0.08203 -0.3632813,0.269531 -0.3046875,0.691407 -1.07812496,0.75 -1.30078121,0.75 -0.99609375,0 -1.78124999,-0.75 -1.92187499,-1.675781 z m -3.4921875,-0.65625 c 0.1640625,-1.019531 0.93750004,-1.6171874 1.68750004,-1.6171874 1.19531246,0 1.45312496,1.0195314 1.49999996,1.6171874 z m 9.8671875,-1.21875 c 0.1523438,0 0.515625,0 0.515625,-0.3867187 0,-0.3867187 -0.3984375,-0.3867187 -0.5742187,-0.3867187 H 4.0976484 c -0.1875,0 -0.5742187,0 -0.5742187,0.3867187 0,0.3867187 0.3632812,0.3867187 0.515625,0.3867187 z m -0.058594,1.816406 c 0.1757812,0 0.5742187,0 0.5742187,-0.398437 0,-0.375 -0.375,-0.375 -0.515625,-0.375 H 4.0390547 c -0.1640625,0 -0.515625,0 -0.515625,0.375 0,0.398437 0.3867187,0.398437 0.5742187,0.398437 z m 6.1406256,3.035157 c 0,-0.152344 -0.09375,-0.199219 -0.257813,-0.316407 -1.652344,-1.136718 -2.050781,-2.847656 -2.050781,-4.007812 0,-1.1367189 0.375,-2.8593752 2.050781,-4.0195314 0.164063,-0.1171875 0.257813,-0.1640625 0.257813,-0.3164063 0,-0.1289062 -0.07031,-0.3164062 -0.351563,-0.3164062 -0.304687,0 -1.183594,0.6914062 -1.734375,1.4765625 -0.667969,0.9257812 -1.007812,2.0390625 -1.007812,3.1757814 0,1.324219 0.480468,2.4375 0.984375,3.140625 0.550781,0.761719 1.417968,1.5 1.757812,1.5 0.28125,0 0.351563,-0.210938 0.351563,-0.316406 z m 4.089843,-4.277344 c 1.242188,0 1.792969,0.867187 1.792969,1.523437 0,0.785157 -0.691406,1.523438 -1.746094,1.523438 -1.195312,0 -1.734375,-0.644531 -1.734375,-0.808594 0,-0.02344 0.01172,-0.04687 0.02344,-0.05859 0.04687,-0.09375 0.08203,-0.1875 0.08203,-0.292968 0,-0.246094 -0.1875,-0.480469 -0.46875,-0.480469 -0.257812,0 -0.492187,0.164062 -0.492187,0.527344 0,1.042968 1.136718,1.804687 2.589843,1.804687 1.511719,0 2.519532,-1.078125 2.519532,-2.203125 0,-0.609375 -0.328125,-1.464844 -1.382813,-1.921875 0.726563,-0.4453124 1.054688,-1.1718749 1.054688,-1.7929687 0,-0.890625 -0.902344,-1.6640625 -2.191407,-1.6640625 -1.324218,0 -2.261718,0.5625 -2.261718,1.453125 0,0.3984375 0.304687,0.515625 0.492187,0.515625 0.222656,0 0.480469,-0.1640625 0.480469,-0.4921875 0,-0.1875 -0.09375,-0.2929687 -0.09375,-0.3164062 0.351562,-0.4453125 1.183594,-0.46875 1.382812,-0.46875 0.820313,0 1.417969,0.421875 1.417969,0.984375 0,0.3515625 -0.234375,1.3476562 -1.488281,1.4296879 -0.445313,0.02344 -0.632813,0.04687 -0.679688,0.04687 -0.234375,0.02344 -0.304687,0.175781 -0.304687,0.339843 0,0.351563 0.257812,0.351563 0.457031,0.351563 z m 6.398438,3.5625 c -0.07031,0.375 -0.304688,0.820312 -0.890625,1.03125 -0.105469,0.02344 -0.28125,0.08203 -0.28125,0.304687 0,0.152344 0.175781,0.363282 0.363281,0.363282 0.328125,0 1.511719,-0.585938 1.511719,-1.875 0,-0.632813 -0.398438,-1.136719 -0.925781,-1.136719 -0.445313,0 -0.679688,0.339844 -0.679688,0.667969 0,0.398437 0.304688,0.679687 0.667969,0.679687 0.07031,0 0.152344,-0.01172 0.234375,-0.03516 z m 6.960937,-3.609375 c 0,-0.9375002 -0.222656,-2.1445314 -1.089843,-3.3046877 -0.410157,-0.5507812 -1.289063,-1.3476562 -1.652344,-1.3476562 -0.269531,0 -0.339844,0.1992187 -0.339844,0.3164062 0,0.140625 0.08203,0.1992188 0.292969,0.3398438 1.464844,1.03125 2.015625,2.6367187 2.015625,3.9843749 0,1.078125 -0.351563,2.835938 -2.0625,4.019531 -0.152344,0.105469 -0.246094,0.164063 -0.246094,0.316407 0,0.105468 0.07031,0.316406 0.339844,0.316406 0.304687,0 1.183594,-0.691406 1.734375,-1.476563 0.691406,-0.972656 1.007812,-2.097656 1.007812,-3.164062 z m 0,0"
       style="fill:#000000;fill-opacity:1;fill-rule:nonzero;stroke:none"
       aria-label="b&#10;shape=(3,)"
       transform="matrix(1.3333333,0,0,1.3333333,336.056,21.696)" />
    <path
       id="path16"
       d="m 8.0729688,-3.8664688 c 0.1640625,0 0.375,0 0.375,-0.2226562 0,-0.2226563 -0.1992188,-0.2226563 -0.375,-0.2226563 H 1.03 c -0.17578125,0 -0.38671875,0 -0.38671875,0.2109375 0,0.234375 0.19921875,0.234375 0.38671875,0.234375 z m 0,2.2148438 c 0.1640625,0 0.375,0 0.375,-0.2109375 0,-0.234375 -0.1992188,-0.234375 -0.375,-0.234375 H 1.03 c -0.17578125,0 -0.38671875,0 -0.38671875,0.2226562 0,0.2226563 0.19921875,0.2226563 0.38671875,0.2226563 z m 0,0"
       style="fill:#000000;fill-opacity:1;fill-rule:nonzero;stroke:none"
       aria-label="="
       transform="matrix(1.3333333,0,0,1.3333333,419.12667,71.514667)" />
    <path
       id="path17"
       d="M 93.54437,-11.33871 H 116.2218 V 11.33872 H 93.54437 Z"
       style="fill:none;stroke:#000000;stroke-width:0.3985;stroke-linecap:butt;stroke-linejoin:miter;stroke-miterlimit:10;stroke-dasharray:none;stroke-opacity:1"
       transform="matrix(1.3333333,0,0,-1.3333333,325.03867,68.637333)" />
    <path
       id="path18"
       d="m 3.4459063,-7.6639844 c 0,-0.2695312 0,-0.28125 -0.2460938,-0.28125 -0.28125,0.3164063 -0.8789062,0.7617188 -2.109375,0.7617188 v 0.3515625 c 0.2695313,0 0.8671875,0 1.5234375,-0.3164063 v 6.22265627 c 0,0.43359375 -0.035156,0.57421875 -1.078125,0.57421875 h -0.375 V 7.8125e-5 c 0.3164063,-0.023437505 1.4765625,-0.023437505 1.875,-0.023437505 0.3984375,0 1.546875,0 1.8632813,0.023437505 V -0.35148438 H 4.53575 c -1.0546875,0 -1.0898437,-0.140625 -1.0898437,-0.57421875 z m 7.7636717,3.84375 c 0,-0.9960937 -0.05859,-1.96875 -0.492187,-2.8710937 -0.492188,-0.9960938 -1.3476566,-1.2539063 -1.9335941,-1.2539063 -0.6914063,0 -1.546875,0.3398438 -1.9804688,1.3359375 -0.3398437,0.75 -0.4570312,1.4882813 -0.4570312,2.7890625 0,1.1601563 0.082031,2.0273438 0.515625,2.87109377 0.4570312,0.9140625 1.2890625,1.1953125 1.9101562,1.1953125 1.0429688,0 1.6406249,-0.62109375 1.9804689,-1.31249997 0.433594,-0.890625 0.457031,-2.0625 0.457031,-2.7539063 z M 8.7720781,0.01179687 c -0.3867187,0 -1.1601562,-0.2109375 -1.3828125,-1.52343747 -0.140625,-0.7148438 -0.140625,-1.6171875 -0.140625,-2.4609375 0,-0.9726563 0,-1.8632813 0.1992188,-2.5664063 0.1992187,-0.796875 0.8085937,-1.171875 1.3242187,-1.171875 0.4570313,0 1.1484375,0.28125 1.3710939,1.3007813 0.152344,0.6796875 0.152344,1.6289062 0.152344,2.4375 0,0.8085937 0,1.7109375 -0.128907,2.4375 -0.2226559,1.32421872 -0.9726559,1.54687497 -1.3945309,1.54687497 z m 0,0"
       style="fill:#000000;fill-opacity:1;fill-rule:nonzero;stroke:none"
       aria-label="10"
       transform="matrix(1.3333333,0,0,1.3333333,457.07733,73.773333)" />
    <path
       id="path19"
       d="m 116.22191,-11.33871 h 22.67743 v 22.67743 h -22.67743 z"
       style="fill:none;stroke:#000000;stroke-width:0.3985;stroke-linecap:butt;stroke-linejoin:miter;stroke-miterlimit:10;stroke-dasharray:none;stroke-opacity:1"
       transform="matrix(1.3333333,0,0,-1.3333333,325.03867,68.637333)" />
    <path
       id="path20"
       d="M 5.2610938,-2.0038281 H 4.9915625 c -0.035156,0.1992187 -0.1289062,0.8554687 -0.2460937,1.04296872 -0.082031,0.1171875 -0.7617188,0.1171875 -1.125,0.1171875 H 1.405625 C 1.73375,-1.1249219 2.4603125,-1.8866406 2.7767188,-2.1796094 c 1.8164062,-1.6640625 2.484375,-2.2851562 2.484375,-3.46875 0,-1.3828125 -1.0898438,-2.296875 -2.4726563,-2.296875 -1.3945312,0 -2.203125,1.1835938 -2.203125,2.203125 0,0.609375 0.5273438,0.609375 0.5625,0.609375 0.2460938,0 0.5625,-0.1757812 0.5625,-0.5625 0,-0.328125 -0.234375,-0.5507812 -0.5625,-0.5507812 -0.1054687,0 -0.1289062,0 -0.1640625,0.011719 0.2226563,-0.8203125 0.8671875,-1.3710937 1.640625,-1.3710937 1.0195313,0 1.640625,0.8554687 1.640625,1.9570312 0,1.0078125 -0.5859375,1.8984375 -1.265625,2.6601563 L 0.5853125,-0.28117188 V 7.8125e-5 h 4.359375 z m 4.0371093,-5.6601563 c 0,-0.2695312 0,-0.28125 -0.2460937,-0.28125 -0.28125,0.3164063 -0.8789063,0.7617188 -2.109375,0.7617188 v 0.3515625 c 0.2695312,0 0.8671875,0 1.5234375,-0.3164063 v 6.22265627 c 0,0.43359375 -0.035156,0.57421875 -1.078125,0.57421875 h -0.375 V 7.8125e-5 c 0.3164062,-0.023437505 1.4765625,-0.023437505 1.875,-0.023437505 0.3984375,0 1.5468751,0 1.8632811,0.023437505 V -0.35148438 h -0.363281 c -1.0546876,0 -1.0898439,-0.140625 -1.0898439,-0.57421875 z m 0,0"
       style="fill:#000000;fill-opacity:1;fill-rule:nonzero;stroke:none"
       aria-label="21"
       transform="matrix(1.3333333,0,0,1.3333333,487.31333,73.773333)" />
    <path
       id="path21"
       d="m 138.89944,-11.33871 h 22.67743 v 22.67743 h -22.67743 z"
       style="fill:none;stroke:#000000;stroke-width:0.3985;stroke-linecap:butt;stroke-linejoin:miter;stroke-miterlimit:10;stroke-dasharray:none;stroke-opacity:1"
       transform="matrix(1.3333333,0,0,-1.3333333,325.03867,68.637333)" />
    <path
       id="path22"
       d="m 2.2032109,-4.2889844 c -0.2109375,0.011719 -0.2578125,0.023437 -0.2578125,0.1289063 0,0.1171875 0.058594,0.1171875 0.28125,0.1171875 h 0.5507813 c 1.0078125,0 1.4648437,0.84375 1.4648437,1.9921875 0,1.55859372 -0.8085937,1.98046872 -1.3945312,1.98046872 -0.5742188,0 -1.5585938,-0.28125 -1.89843751,-1.06640622 0.37500001,0.058594 0.72656251,-0.1523438 0.72656251,-0.5859375 0,-0.3398438 -0.2578125,-0.5859375 -0.5859375,-0.5859375 -0.29296876,0 -0.59765626,0.1640625 -0.59765626,0.6210937 0,1.06640627 1.06640626,1.93359377 2.39062496,1.93359377 1.4179688,0 2.4726563,-1.078125 2.4726563,-2.28515627 0,-1.1015625 -0.890625,-1.96875 -2.0273438,-2.1679687 1.03125,-0.3046875 1.6992188,-1.171875 1.6992188,-2.109375 0,-0.9375 -0.9726563,-1.6289063 -2.1328125,-1.6289063 -1.1953125,0 -2.08593751,0.7265625 -2.08593751,1.59375 0,0.4804688 0.37500001,0.5742188 0.55078121,0.5742188 0.2578125,0 0.5390625,-0.1757813 0.5390625,-0.5390625 0,-0.375 -0.28125,-0.5390625 -0.5507812,-0.5390625 -0.070312,0 -0.09375,0 -0.1289063,0.011719 0.4570313,-0.8203125 1.5820313,-0.8203125 1.640625,-0.8203125 0.3867188,0 1.171875,0.1757813 1.171875,1.3476563 0,0.234375 -0.035156,0.9023437 -0.3867187,1.4179687 -0.3515625,0.5273438 -0.7617188,0.5625 -1.0898438,0.5742188 z m 8.9121091,2.2851563 h -0.269531 c -0.03516,0.1992187 -0.128906,0.8554687 -0.246094,1.04296872 -0.08203,0.1171875 -0.7617184,0.1171875 -1.1249997,0.1171875 H 7.2598516 c 0.328125,-0.28125002 1.0546875,-1.04296872 1.3710937,-1.33593752 1.8164067,-1.6640625 2.4843747,-2.2851562 2.4843747,-3.46875 0,-1.3828125 -1.089843,-2.296875 -2.4726559,-2.296875 -1.3945313,0 -2.203125,1.1835938 -2.203125,2.203125 0,0.609375 0.5273437,0.609375 0.5625,0.609375 0.2460937,0 0.5625,-0.1757812 0.5625,-0.5625 0,-0.328125 -0.234375,-0.5507812 -0.5625,-0.5507812 -0.1054688,0 -0.1289063,0 -0.1640625,0.011719 0.2226562,-0.8203125 0.8671875,-1.3710937 1.640625,-1.3710937 1.0195312,0 1.6406254,0.8554687 1.6406254,1.9570312 0,1.0078125 -0.5859379,1.8984375 -1.2656254,2.6601563 L 6.4395391,-0.28117188 V 7.8125e-5 h 4.3593749 z m 0,0"
       style="fill:#000000;fill-opacity:1;fill-rule:nonzero;stroke:none"
       aria-label="32"
       transform="matrix(1.3333333,0,0,1.3333333,517.55067,73.773333)" />
    <path
       id="path23"
       d="m 5.4489375,-1.3012969 c 0,-0.3164062 -0.2929687,-0.3164062 -0.3984375,-0.3164062 -0.2695312,0 -0.3164062,0.09375 -0.375,0.2695312 -0.2695312,0.65625002 -0.8554687,0.72656252 -1.1367187,0.72656252 -1.0195313,0 -1.875,-0.84375002 -1.875,-1.95703122 0,-0.609375 0.3398437,-1.9921875 1.9101562,-1.9921875 0.328125,0 0.5742188,0.023437 0.6796875,0.035156 0.082031,0.023437 0.09375,0.035156 0.09375,0.1054688 0.035156,0.4804687 0.4101563,0.4921875 0.4804688,0.4921875 0.2695312,0 0.4921875,-0.1757813 0.4921875,-0.4921875 0,-0.8320313 -1.2070313,-0.8320313 -1.734375,-0.8320313 -2.0390625,0 -2.7070313,1.6757813 -2.7070313,2.6835938 0,1.453125 1.1132813,2.64843747 2.5546875,2.64843747 1.59375,0 2.015625,-1.18359377 2.015625,-1.37109357 z M -25.743445,9.5414766 c 0,-0.1875 0,-0.4570313 -0.328125,-0.4570313 -0.292969,0 -0.363282,0.28125 -0.363282,0.2929688 -0.480468,-0.2929688 -1.019531,-0.2929688 -1.265625,-0.2929688 -1.945312,0 -2.214843,0.9960937 -2.214843,1.4062497 0,0.480469 0.292968,0.820313 0.703125,1.042969 0.375,0.222656 0.726562,0.28125 1.699218,0.433594 0.46875,0.08203 1.429688,0.234375 1.429688,0.902344 0,0.433593 -0.410156,0.855468 -1.523438,0.855468 -0.761718,0 -1.265625,-0.304687 -1.511718,-1.160156 -0.05859,-0.164062 -0.09375,-0.292969 -0.398438,-0.292969 -0.398437,0 -0.398437,0.222657 -0.398437,0.457032 v 1.230468 c 0,0.199219 0,0.457032 0.339843,0.457032 0.140625,0 0.246094,0 0.433594,-0.492188 0.550781,0.457031 1.171875,0.492188 1.535156,0.492188 2.214844,0 2.214844,-1.429688 2.214844,-1.546875 0,-1.253907 -1.476562,-1.5 -2.050781,-1.582032 -1.054688,-0.175781 -1.769531,-0.304687 -1.769531,-0.796875 0,-0.328125 0.363281,-0.7148434 1.488281,-0.7148434 1.136719,0 1.183594,0.5390624 1.207031,0.8554684 0.02344,0.234375 0.246094,0.269532 0.386719,0.269532 0.386719,0 0.386719,-0.210938 0.386719,-0.457032 z m 6.128906,1.3007814 c 0,-1.1718752 -0.550781,-1.7226564 -1.523438,-1.7226564 -0.820312,0 -1.335937,0.4570312 -1.546875,0.6796875 V 7.5375703 c 0,-0.375 -0.07031,-0.4921875 -0.480468,-0.4921875 h -0.785157 c -0.164062,0 -0.480468,0 -0.480468,0.3398438 0,0.3515625 0.316406,0.3515625 0.480468,0.3515625 h 0.492188 v 5.9179689 h -0.492188 c -0.164062,0 -0.480468,0 -0.480468,0.339844 0,0.351562 0.316406,0.351562 0.480468,0.351562 h 1.757813 c 0.164062,0 0.480469,0 0.480469,-0.351562 0,-0.339844 -0.316407,-0.339844 -0.480469,-0.339844 h -0.492188 v -2.167969 c 0,-1.160156 0.820313,-1.6757812 1.464844,-1.6757812 0.691406,0 0.832031,0.3984372 0.832031,1.0781252 v 2.765625 h -0.492187 c -0.164063,0 -0.480469,0 -0.480469,0.339844 0,0.351562 0.316406,0.351562 0.480469,0.351562 h 1.757812 c 0.164063,0 0.480469,0 0.480469,-0.351562 0,-0.339844 -0.316406,-0.339844 -0.480469,-0.339844 h -0.492187 z m 6.105469,0.105469 c 0,-0.902344 -0.679688,-1.8632817 -2.296875,-1.8632817 -0.492188,0 -1.652344,0 -1.652344,0.8320313 0,0.3164064 0.222656,0.4921874 0.480469,0.4921874 0.08203,0 0.46875,-0.02344 0.480468,-0.5156249 0,-0.070312 0.01172,-0.082031 0.269532,-0.1054688 0.140625,-0.011719 0.292968,-0.011719 0.433593,-0.011719 0.28125,0 0.691407,0 1.078125,0.3046877 0.433594,0.328125 0.433594,0.667969 0.433594,1.019531 -0.703125,0.02344 -1.394531,0.07031 -2.144531,0.304688 -0.597656,0.199219 -1.359375,0.632812 -1.359375,1.441406 0,0.855469 0.75,1.570313 1.863281,1.570313 0.386719,0 1.125,-0.05859 1.746094,-0.492188 0.246094,0.398438 0.84375,0.421875 1.289062,0.421875 0.292969,0 0.574219,0 0.574219,-0.351562 0,-0.339844 -0.304687,-0.339844 -0.480469,-0.339844 -0.304687,0 -0.539062,-0.02344 -0.714843,-0.09375 z m -0.773438,1.816406 c 0,0.28125 0,0.527344 -0.492187,0.761719 -0.421875,0.199218 -0.972657,0.199218 -1.019532,0.199218 -0.703125,0 -1.21875,-0.386718 -1.21875,-0.878906 0,-0.703125 1.289063,-1.101562 2.730469,-1.101562 z m 4.3945314,4.230469 c 0.1640625,0 0.4804688,0 0.4804688,-0.339844 0,-0.351563 -0.3164063,-0.351563 -0.4804688,-0.351563 h -0.4921874 v -2.554687 c 0.292969,0.328125 0.7265624,0.667969 1.4062499,0.667969 1.265625,0 2.3789063,-1.136719 2.3789063,-2.648438 0,-1.476562 -1.0078125,-2.6484374 -2.25,-2.6484374 -0.8789063,0 -1.4296872,0.5273437 -1.5351562,0.6445312 0,-0.3867187 0,-0.5742187 -0.480469,-0.5742187 h -0.785156 c -0.164063,0 -0.480469,0 -0.480469,0.3515625 0,0.3515625 0.316406,0.3515625 0.480469,0.3515625 h 0.492187 v 6.4101559 h -0.492187 c -0.164063,0 -0.480469,0 -0.480469,0.351563 0,0.339844 0.316406,0.339844 0.480469,0.339844 z m -0.4921874,-5.824219 c 0,-0.679688 0.6679687,-1.3593752 1.4531249,-1.3593752 0.8554688,0 1.546875,0.8789062 1.546875,1.9570312 0,1.148438 -0.8085937,1.957031 -1.6640625,1.957031 -0.890625,0 -1.3359374,-1.019531 -1.3359374,-1.617187 z m 9.1992187,0.878906 c 0.25781249,0 0.48046874,0 0.48046874,-0.445312 0,-1.394532 -0.78515624,-2.5195317 -2.28515624,-2.5195317 -1.3828125,0 -2.4960938,1.1953127 -2.4960938,2.6601567 0,1.5 1.2070313,2.671875 2.6835938,2.671875 1.5351562,0 2.09765624,-1.066407 2.09765624,-1.371094 0,-0.07031 -0.0234375,-0.339844 -0.39843754,-0.339844 -0.2226562,0 -0.2929687,0.08203 -0.3632812,0.269531 -0.3046875,0.691407 -1.078125,0.75 -1.3007813,0.75 -0.9960937,0 -1.78125,-0.75 -1.921875,-1.675781 z m -3.4921875,-0.65625 c 0.1640625,-1.019531 0.9375,-1.6171874 1.6875,-1.6171874 1.1953125,0 1.453125,1.0195314 1.5,1.6171874 z m 9.8671875,-1.21875 c 0.1523437,0 0.515625,0 0.515625,-0.3867187 0,-0.3867187 -0.3984375,-0.3867187 -0.5742188,-0.3867187 H 1.0221797 c -0.18750001,0 -0.57421876,0 -0.57421876,0.3867187 0,0.3867187 0.36328125,0.3867187 0.515625,0.3867187 z m -0.058594,1.816406 c 0.1757813,0 0.5742188,0 0.5742188,-0.398437 0,-0.375 -0.375,-0.375 -0.515625,-0.375 H 0.96358594 c -0.1640625,0 -0.515625,0 -0.515625,0.375 0,0.398437 0.38671875,0.398437 0.57421876,0.398437 z m 6.1406253,3.035157 c 0,-0.152344 -0.09375,-0.199219 -0.257813,-0.316407 -1.6523435,-1.136718 -2.050781,-2.847656 -2.050781,-4.007812 0,-1.1367189 0.375,-2.8593752 2.050781,-4.0195314 0.164063,-0.1171875 0.257813,-0.1640625 0.257813,-0.3164063 0,-0.1289062 -0.07031,-0.3164062 -0.351563,-0.3164062 -0.304687,0 -1.1835935,0.6914062 -1.7343748,1.4765625 -0.6679687,0.9257812 -1.0078125,2.0390625 -1.0078125,3.1757814 0,1.324219 0.4804688,2.4375 0.984375,3.140625 0.5507813,0.761719 1.4179693,1.5 1.7578123,1.5 0.28125,0 0.351563,-0.210938 0.351563,-0.316406 z m 4.664062,-7.6406254 c 0,-0.1757813 0,-0.4804688 -0.339843,-0.4804688 -0.210938,0 -0.28125,0.1054688 -0.351563,0.2578125 -0.222656,0.515625 -0.621094,1.1484375 -1.253906,1.1953125 -0.175781,0.011719 -0.433594,0.035156 -0.433594,0.3515625 0,0.1992188 0.117188,0.3398438 0.386719,0.3398438 0.667969,0 1.183594,-0.5039063 1.21875,-0.5273438 v 5.1328127 h -1.054688 c -0.164062,0 -0.492187,0 -0.492187,0.339844 0,0.351562 0.328125,0.351562 0.492187,0.351562 h 2.882813 c 0.164062,0 0.492187,0 0.492187,-0.351562 0,-0.339844 -0.328125,-0.339844 -0.492187,-0.339844 h -1.054688 z m 5.82129,6.9257814 c -0.07031,0.375 -0.304688,0.820312 -0.890625,1.03125 -0.105469,0.02344 -0.28125,0.08203 -0.28125,0.304687 0,0.152344 0.175781,0.363282 0.363281,0.363282 0.328125,0 1.511719,-0.585938 1.511719,-1.875 0,-0.632813 -0.398438,-1.136719 -0.925782,-1.136719 -0.445312,0 -0.679687,0.339844 -0.679687,0.667969 0,0.398437 0.304687,0.679687 0.667969,0.679687 0.07031,0 0.152343,-0.01172 0.234375,-0.03516 z m 5.90625,-3.5625 c 1.242187,0 1.792968,0.867187 1.792968,1.523437 0,0.785157 -0.691406,1.523438 -1.746093,1.523438 -1.195313,0 -1.734375,-0.644531 -1.734375,-0.808594 0,-0.02344 0.01172,-0.04687 0.02344,-0.05859 0.04687,-0.09375 0.08203,-0.1875 0.08203,-0.292968 0,-0.246094 -0.1875,-0.480469 -0.46875,-0.480469 -0.257812,0 -0.492187,0.164062 -0.492187,0.527344 0,1.042968 1.136719,1.804687 2.589844,1.804687 1.511718,0 2.519531,-1.078125 2.519531,-2.203125 0,-0.609375 -0.328125,-1.464844 -1.382813,-1.921875 0.726563,-0.4453124 1.054688,-1.1718749 1.054688,-1.7929687 0,-0.890625 -0.902344,-1.6640625 -2.191406,-1.6640625 -1.324219,0 -2.261719,0.5625 -2.261719,1.453125 0,0.3984375 0.304687,0.515625 0.492187,0.515625 0.222657,0 0.480469,-0.1640625 0.480469,-0.4921875 0,-0.1875 -0.09375,-0.2929687 -0.09375,-0.3164062 0.351563,-0.4453125 1.183594,-0.46875 1.382813,-0.46875 0.820312,0 1.417968,0.421875 1.417968,0.984375 0,0.3515625 -0.234375,1.3476562 -1.488281,1.4296879 -0.445312,0.02344 -0.632812,0.04687 -0.679687,0.04687 -0.234375,0.02344 -0.304688,0.175781 -0.304688,0.339843 0,0.351563 0.257813,0.351563 0.457031,0.351563 z m 7.207031,-0.04687 c 0,-0.9375002 -0.222656,-2.1445314 -1.089844,-3.3046877 -0.410156,-0.5507812 -1.289062,-1.3476562 -1.652344,-1.3476562 -0.269531,0 -0.339843,0.1992187 -0.339843,0.3164062 0,0.140625 0.08203,0.1992188 0.292968,0.3398438 1.464844,1.03125 2.015625,2.6367187 2.015625,3.9843749 0,1.078125 -0.351562,2.835938 -2.0625,4.019531 -0.152343,0.105469 -0.246093,0.164063 -0.246093,0.316407 0,0.105468 0.07031,0.316406 0.339843,0.316406 0.304688,0 1.183594,-0.691406 1.734375,-1.476563 0.691407,-0.972656 1.007813,-2.097656 1.007813,-3.164062 z m 0,0"
       style="fill:#000000;fill-opacity:1;fill-rule:nonzero;stroke:none"
       aria-label="c&#10;shape=(1,3)"
       transform="matrix(1.3333333,0,0,1.3333333,491.016,21.696)" />
  </g>
</svg>
