<?xml version="1.0" encoding="UTF-8" standalone="no"?>
<!-- Created with Inkscape (http://www.inkscape.org/) -->

<svg
   version="1.1"
   id="svg1"
   width="680.3147"
   height="135.62399"
   viewBox="0 0 680.3147 135.62399"
   sodipodi:docname="17_dot_vector_inner_product.pdf"
   xmlns:inkscape="http://www.inkscape.org/namespaces/inkscape"
   xmlns:sodipodi="http://sodipodi.sourceforge.net/DTD/sodipodi-0.dtd"
   xmlns="http://www.w3.org/2000/svg"
   xmlns:svg="http://www.w3.org/2000/svg">
  <defs
     id="defs1" />
  <sodipodi:namedview
     id="namedview1"
     pagecolor="#ffffff"
     bordercolor="#000000"
     borderopacity="0.25"
     inkscape:showpageshadow="2"
     inkscape:pageopacity="0.0"
     inkscape:pagecheckerboard="0"
     inkscape:deskcolor="#d1d1d1">
    <inkscape:page
       x="0"
       y="0"
       inkscape:label="1"
       id="page1"
       width="680.3147"
       height="135.62399"
       margin="0"
       bleed="0" />
  </sodipodi:namedview>
  <g
     id="g1"
     inkscape:groupmode="layer"
     inkscape:label="1">
    <path
       id="path1"
       d="m -167.24615,-11.33871 h 22.67743 v 22.67743 h -22.67743 z"
       style="fill:none;stroke:#000000;stroke-width:0.3985;stroke-linecap:butt;stroke-linejoin:miter;stroke-miterlimit:10;stroke-dasharray:none;stroke-opacity:1"
       transform="matrix(1.3333333,0,0,-1.3333333,378.024,67.310667)" />
    <path
       id="path2"
       d="m 3.4438828,-7.6650781 c 0,-0.2695313 0,-0.28125 -0.2460937,-0.28125 -0.28125,0.3164062 -0.8789063,0.7617187 -2.109375,0.7617187 v 0.3515625 c 0.2695312,0 0.8671875,0 1.5234375,-0.3164062 v 6.22265623 c 0,0.43359375 -0.035156,0.57421875 -1.078125,0.57421875 h -0.375 v 0.3515625 c 0.3164062,-0.0234375 1.4765625,-0.0234375 1.875,-0.0234375 0.3984375,0 1.546875,0 1.8632812,0.0234375 v -0.3515625 H 4.5337266 c -1.0546875,0 -1.0898438,-0.140625 -1.0898438,-0.57421875 z m 0,0"
       style="fill:#000000;fill-opacity:1;fill-rule:nonzero;stroke:none"
       aria-label="1"
       transform="matrix(1.3333333,0,0,1.3333333,166.248,72.446667)" />
    <path
       id="path3"
       d="m -144.56862,-11.33871 h 22.67743 v 22.67743 h -22.67743 z"
       style="fill:none;stroke:#000000;stroke-width:0.3985;stroke-linecap:butt;stroke-linejoin:miter;stroke-miterlimit:10;stroke-dasharray:none;stroke-opacity:1"
       transform="matrix(1.3333333,0,0,-1.3333333,378.024,67.310667)" />
    <path
       id="path4"
       d="M 5.262,-2.0049219 H 4.9924688 c -0.035156,0.1992188 -0.1289063,0.8554688 -0.2460938,1.04296878 -0.082031,0.1171875 -0.7617187,0.1171875 -1.125,0.1171875 H 1.4065313 C 1.7346563,-1.1260156 2.4612188,-1.8877344 2.777625,-2.1807031 4.5940313,-3.8447656 5.262,-4.4658594 5.262,-5.6494531 c 0,-1.3828125 -1.0898437,-2.296875 -2.4726562,-2.296875 -1.3945313,0 -2.20312505,1.1835937 -2.20312505,2.203125 0,0.609375 0.52734375,0.609375 0.56250005,0.609375 0.2460937,0 0.5625,-0.1757813 0.5625,-0.5625 0,-0.328125 -0.234375,-0.5507813 -0.5625,-0.5507813 -0.1054688,0 -0.1289063,0 -0.16406255,0.011719 0.22265625,-0.8203125 0.86718755,-1.3710938 1.64062505,-1.3710938 1.0195312,0 1.640625,0.8554688 1.640625,1.9570313 0,1.0078125 -0.5859375,1.8984375 -1.265625,2.6601562 l -2.41406255,2.70703128 v 0.28125 H 4.9455938 Z m 0,0"
       style="fill:#000000;fill-opacity:1;fill-rule:nonzero;stroke:none"
       aria-label="2"
       transform="matrix(1.3333333,0,0,1.3333333,196.484,72.446667)" />
    <path
       id="path5"
       d="m -121.89108,-11.33871 h 22.67743 v 22.67743 h -22.67743 z"
       style="fill:none;stroke:#000000;stroke-width:0.3985;stroke-linecap:butt;stroke-linejoin:miter;stroke-miterlimit:10;stroke-dasharray:none;stroke-opacity:1"
       transform="matrix(1.3333333,0,0,-1.3333333,378.024,67.310667)" />
    <path
       id="path6"
       d="m 2.2041172,-4.2900781 c -0.2109375,0.011719 -0.2578125,0.023437 -0.2578125,0.1289062 0,0.1171875 0.058594,0.1171875 0.28125,0.1171875 h 0.5507812 c 1.0078125,0 1.4648438,0.84375 1.4648438,1.9921875 0,1.55859378 -0.8085938,1.98046878 -1.3945313,1.98046878 -0.5742187,0 -1.5585937,-0.28125 -1.89843746,-1.06640628 0.37499996,0.058594 0.72656246,-0.1523437 0.72656246,-0.5859375 0,-0.3398437 -0.2578125,-0.5859375 -0.5859375,-0.5859375 -0.29296871,0 -0.59765621,0.1640625 -0.59765621,0.6210938 0,1.06640623 1.06640621,1.93359373 2.39062501,1.93359373 1.4179687,0 2.4726562,-1.078125 2.4726562,-2.28515623 0,-1.1015625 -0.890625,-1.96875 -2.0273437,-2.1679688 1.03125,-0.3046875 1.6992187,-1.171875 1.6992187,-2.109375 0,-0.9375 -0.9726562,-1.6289062 -2.1328125,-1.6289062 -1.1953125,0 -2.08593746,0.7265625 -2.08593746,1.59375 0,0.4804687 0.37499996,0.5742187 0.55078126,0.5742187 0.2578125,0 0.5390625,-0.1757812 0.5390625,-0.5390625 0,-0.375 -0.28125,-0.5390625 -0.5507813,-0.5390625 -0.070312,0 -0.09375,0 -0.1289062,0.011719 0.4570312,-0.8203125 1.5820312,-0.8203125 1.640625,-0.8203125 0.3867187,0 1.171875,0.1757812 1.171875,1.3476562 0,0.234375 -0.035156,0.9023438 -0.3867188,1.4179688 -0.3515625,0.5273437 -0.7617187,0.5625 -1.0898437,0.5742187 z m 0,0"
       style="fill:#000000;fill-opacity:1;fill-rule:nonzero;stroke:none"
       aria-label="3"
       transform="matrix(1.3333333,0,0,1.3333333,226.72133,72.446667)" />
    <path
       id="path7"
       d="m 4.9451797,-3.3971172 c 0,-0.9023437 -0.6796875,-1.8632812 -2.296875,-1.8632812 -0.4921875,0 -1.65234376,0 -1.65234376,0.8320312 0,0.3164063 0.22265626,0.4921875 0.48046876,0.4921875 0.082031,0 0.46875,-0.023437 0.4804687,-0.515625 0,-0.070312 0.011719,-0.082031 0.2695313,-0.1054687 0.140625,-0.011719 0.2929687,-0.011719 0.4335937,-0.011719 0.28125,0 0.6914063,0 1.078125,0.3046875 0.4335938,0.328125 0.4335938,0.6679688 0.4335938,1.0195313 -0.703125,0.023437 -1.3945313,0.070312 -2.1445313,0.3046875 -0.5976562,0.1992187 -1.35937496,0.6328125 -1.35937496,1.4414062 0,0.85546876 0.74999996,1.57031251 1.86328126,1.57031251 0.3867187,0 1.125,-0.05859375 1.7460937,-0.4921875 0.2460938,0.3984375 0.84375,0.421875 1.2890625,0.421875 0.2929688,0 0.5742188,0 0.5742188,-0.3515625 0,-0.33984375 -0.3046875,-0.33984375 -0.4804688,-0.33984375 -0.3046875,0 -0.5390625,-0.0234375 -0.7148437,-0.09375 z m -0.7734375,1.8164063 c 0,0.28125 0,0.5273437 -0.4921875,0.76171871 -0.421875,0.19921875 -0.9726563,0.19921875 -1.0195313,0.19921875 -0.703125,0 -1.21875,-0.38671876 -1.21875,-0.87890626 0,-0.703125 1.2890625,-1.1015625 2.7304688,-1.1015625 z M -22.667125,9.5403828 c 0,-0.1875 0,-0.4570312 -0.328125,-0.4570312 -0.292969,0 -0.363281,0.28125 -0.363281,0.2929687 -0.480469,-0.2929687 -1.019531,-0.2929687 -1.265625,-0.2929687 -1.945313,0 -2.214844,0.9960934 -2.214844,1.4062504 0,0.480468 0.292969,0.820312 0.703125,1.042968 0.375,0.222657 0.726563,0.28125 1.699219,0.433594 0.46875,0.08203 1.429687,0.234375 1.429687,0.902344 0,0.433594 -0.410156,0.855469 -1.523437,0.855469 -0.761719,0 -1.265625,-0.304688 -1.511719,-1.160157 -0.05859,-0.164062 -0.09375,-0.292968 -0.398437,-0.292968 -0.398438,0 -0.398438,0.222656 -0.398438,0.457031 v 1.230469 c 0,0.199218 0,0.457031 0.339844,0.457031 0.140625,0 0.246094,0 0.433594,-0.492188 0.550781,0.457032 1.171875,0.492188 1.535156,0.492188 2.214844,0 2.214844,-1.429688 2.214844,-1.546875 0,-1.253906 -1.476563,-1.5 -2.050782,-1.582031 -1.054687,-0.175782 -1.769531,-0.304688 -1.769531,-0.796875 0,-0.328125 0.363281,-0.7148442 1.488281,-0.7148442 1.136719,0 1.183594,0.5390622 1.207032,0.8554692 0.02344,0.234375 0.246093,0.269531 0.386718,0.269531 0.386719,0 0.386719,-0.210938 0.386719,-0.457031 z m 6.128906,1.3007812 c 0,-1.1718749 -0.550781,-1.7226562 -1.523437,-1.7226562 -0.820313,0 -1.335938,0.4570313 -1.546875,0.6796875 V 7.5364766 c 0,-0.375 -0.07031,-0.4921875 -0.480469,-0.4921875 h -0.785156 c -0.164063,0 -0.480469,0 -0.480469,0.3398437 0,0.3515625 0.316406,0.3515625 0.480469,0.3515625 h 0.492187 v 5.9179687 h -0.492187 c -0.164063,0 -0.480469,0 -0.480469,0.339844 0,0.351562 0.316406,0.351562 0.480469,0.351562 h 1.757812 c 0.164063,0 0.480469,0 0.480469,-0.351562 0,-0.339844 -0.316406,-0.339844 -0.480469,-0.339844 h -0.492187 v -2.167969 c 0,-1.160156 0.820312,-1.6757809 1.464844,-1.6757809 0.691406,0 0.832031,0.3984379 0.832031,1.0781249 v 2.765625 h -0.492188 c -0.164062,0 -0.480468,0 -0.480468,0.339844 0,0.351562 0.316406,0.351562 0.480468,0.351562 h 1.757813 c 0.164062,0 0.480469,0 0.480469,-0.351562 0,-0.339844 -0.316407,-0.339844 -0.480469,-0.339844 h -0.492188 z m 6.102539,0.105469 c 0,-0.902344 -0.679687,-1.8632814 -2.296875,-1.8632814 -0.492187,0 -1.652343,0 -1.652343,0.8320312 0,0.3164062 0.222656,0.4921872 0.480468,0.4921872 0.08203,0 0.46875,-0.02344 0.480469,-0.5156247 0,-0.070312 0.01172,-0.082031 0.269531,-0.1054687 0.140625,-0.011719 0.292969,-0.011719 0.433594,-0.011719 0.28125,0 0.691406,0 1.078125,0.3046874 0.433594,0.328125 0.433594,0.667969 0.433594,1.019532 -0.703125,0.02344 -1.394531,0.07031 -2.144531,0.304687 -0.597657,0.199219 -1.359375,0.632813 -1.359375,1.441406 0,0.855469 0.75,1.570313 1.863281,1.570313 0.386719,0 1.125,-0.05859 1.746094,-0.492188 0.246093,0.398438 0.84375,0.421875 1.2890621,0.421875 0.2929687,0 0.5742187,0 0.5742187,-0.351562 0,-0.339844 -0.3046875,-0.339844 -0.4804687,-0.339844 -0.3046871,0 -0.5390621,-0.02344 -0.7148441,-0.09375 z m -0.773437,1.816406 c 0,0.28125 0,0.527344 -0.492188,0.761719 -0.421875,0.199219 -0.972656,0.199219 -1.019531,0.199219 -0.703125,0 -1.21875,-0.386719 -1.21875,-0.878907 0,-0.703125 1.289063,-1.101562 2.730469,-1.101562 z m 4.3945311,4.230469 c 0.1640625,0 0.4804687,0 0.4804687,-0.339844 0,-0.351562 -0.3164062,-0.351562 -0.4804687,-0.351562 h -0.4921875 v -2.554688 c 0.2929687,0.328125 0.7265625,0.667969 1.40625,0.667969 1.265625,0 2.3789062,-1.136719 2.3789062,-2.648438 0,-1.476562 -1.0078125,-2.6484372 -2.25,-2.6484372 -0.8789062,0 -1.4296875,0.5273438 -1.5351562,0.6445313 0,-0.3867188 0,-0.5742188 -0.4804688,-0.5742188 h -0.7851562 c -0.1640625,0 -0.4804688,0 -0.4804688,0.3515625 0,0.3515625 0.3164063,0.3515625 0.4804688,0.3515625 h 0.4921875 v 6.4101567 h -0.4921875 c -0.1640625,0 -0.4804688,0 -0.4804688,0.351562 0,0.339844 0.3164063,0.339844 0.4804688,0.339844 z m -0.4921875,-5.824219 c 0,-0.679687 0.6679687,-1.3593749 1.453125,-1.3593749 0.8554687,0 1.546875,0.8789059 1.546875,1.9570309 0,1.148438 -0.8085938,1.957032 -1.6640625,1.957032 -0.890625,0 -1.3359375,-1.019532 -1.3359375,-1.617188 z m 9.1992187,0.878906 c 0.2578125,0 0.4804688,0 0.4804688,-0.445312 0,-1.394531 -0.7851563,-2.5195314 -2.28515629,-2.5195314 -1.38281251,0 -2.49609371,1.1953124 -2.49609371,2.6601564 0,1.5 1.2070312,2.671875 2.68359371,2.671875 1.53515629,0 2.09765629,-1.066406 2.09765629,-1.371094 0,-0.07031 -0.023437,-0.339844 -0.3984375,-0.339844 -0.2226563,0 -0.2929688,0.08203 -0.3632813,0.269532 -0.3046875,0.691406 -1.07812499,0.75 -1.30078124,0.75 -0.99609375,0 -1.78124996,-0.75 -1.92187496,-1.675782 z m -3.4921875,-0.65625 c 0.1640625,-1.019531 0.93750001,-1.6171872 1.68750001,-1.6171872 1.19531249,0 1.45312499,1.0195312 1.49999999,1.6171872 z m 9.8671875,-1.21875 c 0.1523438,0 0.515625,0 0.515625,-0.3867184 0,-0.3867188 -0.3984375,-0.3867188 -0.5742187,-0.3867188 H 4.0955703 c -0.1875,0 -0.5742187,0 -0.5742187,0.3867188 0,0.3867184 0.3632812,0.3867184 0.515625,0.3867184 z m -0.058594,1.816407 c 0.1757812,0 0.5742187,0 0.5742187,-0.398438 0,-0.375 -0.375,-0.375 -0.515625,-0.375 H 4.0369766 c -0.1640625,0 -0.515625,0 -0.515625,0.375 0,0.398438 0.3867187,0.398438 0.5742187,0.398438 z m 6.1406257,3.035156 c 0,-0.152344 -0.09375,-0.199219 -0.257813,-0.316406 -1.652344,-1.136719 -2.050781,-2.847657 -2.050781,-4.007813 0,-1.1367187 0.375,-2.8593749 2.050781,-4.0195312 0.164063,-0.1171875 0.257813,-0.1640625 0.257813,-0.3164062 0,-0.1289063 -0.07031,-0.3164063 -0.351563,-0.3164063 -0.304687,0 -1.183594,0.6914063 -1.734375,1.4765625 -0.667969,0.9257813 -1.007812,2.0390625 -1.007812,3.1757812 0,1.324219 0.480468,2.4375 0.984375,3.140625 0.550781,0.761719 1.417968,1.5 1.757812,1.5 0.28125,0 0.351563,-0.210937 0.351563,-0.316406 z m 4.089843,-4.277344 c 1.242188,0 1.792969,0.867188 1.792969,1.523438 0,0.785156 -0.691406,1.523437 -1.746094,1.523437 -1.195312,0 -1.734375,-0.644531 -1.734375,-0.808594 0,-0.02344 0.01172,-0.04687 0.02344,-0.05859 0.04687,-0.09375 0.08203,-0.1875 0.08203,-0.292969 0,-0.246094 -0.1875,-0.480469 -0.46875,-0.480469 -0.257812,0 -0.492187,0.164063 -0.492187,0.527344 0,1.042969 1.136718,1.804687 2.589843,1.804687 1.511719,0 2.519532,-1.078125 2.519532,-2.203125 0,-0.609375 -0.328125,-1.464843 -1.382813,-1.921875 0.726563,-0.4453122 1.054688,-1.1718747 1.054688,-1.7929684 0,-0.890625 -0.902344,-1.6640625 -2.191407,-1.6640625 -1.324218,0 -2.261718,0.5625 -2.261718,1.453125 0,0.3984375 0.304687,0.515625 0.492187,0.515625 0.222656,0 0.480469,-0.1640625 0.480469,-0.4921875 0,-0.1875 -0.09375,-0.2929688 -0.09375,-0.3164063 0.351562,-0.4453125 1.183594,-0.46875 1.382812,-0.46875 0.820313,0 1.417969,0.421875 1.417969,0.984375 0,0.3515625 -0.234375,1.3476563 -1.488281,1.4296877 -0.445313,0.02344 -0.632813,0.04687 -0.679688,0.04687 -0.234375,0.02344 -0.304687,0.175781 -0.304687,0.339844 0,0.351562 0.257812,0.351562 0.457031,0.351562 z m 6.398438,3.5625 c -0.07031,0.375 -0.304688,0.820313 -0.890625,1.03125 -0.105469,0.02344 -0.28125,0.08203 -0.28125,0.304688 0,0.152343 0.175781,0.363281 0.363281,0.363281 0.328125,0 1.511719,-0.585938 1.511719,-1.875 0,-0.632813 -0.398438,-1.136719 -0.925781,-1.136719 -0.445313,0 -0.679688,0.339844 -0.679688,0.667969 0,0.398437 0.304688,0.679687 0.667969,0.679687 0.07031,0 0.152344,-0.01172 0.234375,-0.03516 z m 6.960937,-3.609375 c 0,-0.9374999 -0.222656,-2.1445312 -1.089843,-3.3046874 -0.410157,-0.5507813 -1.289063,-1.3476563 -1.652344,-1.3476563 -0.269531,0 -0.339844,0.1992188 -0.339844,0.3164063 0,0.140625 0.08203,0.1992187 0.292969,0.3398437 1.464844,1.03125 2.015625,2.6367188 2.015625,3.9843747 0,1.078125 -0.351563,2.835938 -2.0625,4.019532 -0.152344,0.105468 -0.246094,0.164062 -0.246094,0.316406 0,0.105469 0.07031,0.316406 0.339844,0.316406 0.304687,0 1.183594,-0.691406 1.734375,-1.476562 0.691406,-0.972657 1.007812,-2.097657 1.007812,-3.164063 z m 0,0"
       style="fill:#000000;fill-opacity:1;fill-rule:nonzero;stroke:none"
       aria-label="a&#10;shape=(3,)"
       transform="matrix(1.3333333,0,0,1.3333333,196.28533,20.369333)" />
    <path
       id="path8"
       d="m 2.8360859,-2.9995469 c 0,-0.515625 -0.421875,-0.9375 -0.9375,-0.9375 -0.515625,0 -0.92578121,0.421875 -0.92578121,0.9375 0,0.515625 0.41015621,0.9375 0.92578121,0.9375 0.515625,0 0.9375,-0.421875 0.9375,-0.9375 z m 0,0"
       style="fill:#000000;fill-opacity:1;fill-rule:nonzero;stroke:none"
       aria-label="·"
       transform="matrix(1.3333333,0,0,1.3333333,284.76933,71.085333)" />
    <path
       id="path9"
       d="m -51.02406,-11.33871 h 22.67743 v 22.67743 h -22.67743 z"
       style="fill:none;stroke:#000000;stroke-width:0.3985;stroke-linecap:butt;stroke-linejoin:miter;stroke-miterlimit:10;stroke-dasharray:none;stroke-opacity:1"
       transform="matrix(1.3333333,0,0,-1.3333333,378.024,67.310667)" />
    <path
       id="path10"
       d="m 4.3137031,-7.7822656 c 0,-0.2226563 0,-0.2929688 -0.1640625,-0.2929688 -0.09375,0 -0.1289062,0 -0.2226562,0.1523438 l -3.59765627,5.578125 v 0.3515625 H 3.4699531 v 1.07812498 c 0,0.4453125 -0.023437,0.5625 -0.9023437,0.5625 h -0.234375 v 0.3515625 c 0.2695312,-0.0234375 1.21875,-0.0234375 1.5585937,-0.0234375 0.328125,0 1.2890625,0 1.5585938,0.0234375 v -0.3515625 h -0.234375 c -0.8671875,0 -0.9023438,-0.1171875 -0.9023438,-0.5625 V -1.9932031 H 5.5207344 V -2.3447656 H 4.3137031 Z m -0.7851562,0.9375 v 4.5 H 0.62229688 Z m 0,0"
       style="fill:#000000;fill-opacity:1;fill-rule:nonzero;stroke:none"
       aria-label="4"
       transform="matrix(1.3333333,0,0,1.3333333,321.20933,72.446667)" />
    <path
       id="path11"
       d="M -28.34653,-11.33871 H -5.6691 v 22.67743 h -22.67743 z"
       style="fill:none;stroke:#000000;stroke-width:0.3985;stroke-linecap:butt;stroke-linejoin:miter;stroke-miterlimit:10;stroke-dasharray:none;stroke-opacity:1"
       transform="matrix(1.3333333,0,0,-1.3333333,378.024,67.310667)" />
    <path
       id="path12"
       d="m 1.5351406,-6.8447656 c 0.5039063,0.1640625 0.9257813,0.1757812 1.0546875,0.1757812 1.359375,0 2.2148438,-0.9960937 2.2148438,-1.1601562 0,-0.046875 -0.023437,-0.1054688 -0.09375,-0.1054688 -0.023437,0 -0.046875,0 -0.1523438,0.046875 -0.6679687,0.28125 -1.2421875,0.3164063 -1.5585937,0.3164063 -0.7851563,0 -1.3476563,-0.234375 -1.5820313,-0.328125 -0.082031,-0.035156 -0.1054687,-0.035156 -0.1171875,-0.035156 -0.09375,0 -0.09375,0.070312 -0.09375,0.2578125 v 3.5507813 c 0,0.2109375 0,0.2929687 0.140625,0.2929687 0.058594,0 0.070312,-0.011719 0.1992188,-0.1640625 0.328125,-0.4921875 0.890625,-0.7734375 1.4882812,-0.7734375 0.6328125,0 0.9492188,0.5859375 1.0429688,0.7851563 0.1992187,0.46875 0.2109375,1.0546875 0.2109375,1.5117187 0,0.4570313 0,1.1367188 -0.328125,1.67578128 -0.2695313,0.421875 -0.7382813,0.7265625 -1.2539063,0.7265625 -0.796875,0 -1.5703125,-0.5390625 -1.78124997,-1.40624998 0.0585938,0.023437 0.12890627,0.035156 0.18749997,0.035156 0.1992188,0 0.5273438,-0.1289062 0.5273438,-0.5273437 0,-0.3398438 -0.234375,-0.5273438 -0.5273438,-0.5273438 -0.21093747,0 -0.52734372,0.1054688 -0.52734372,0.5742188 0,1.00781248 0.80859372,2.16796873 2.14453122,2.16796873 1.3476563,0 2.53125,-1.125 2.53125,-2.64843753 0,-1.4179687 -0.9609375,-2.6015625 -2.2148437,-2.6015625 -0.6796875,0 -1.2070313,0.2929688 -1.5117188,0.6328125 z m 0,0"
       style="fill:#000000;fill-opacity:1;fill-rule:nonzero;stroke:none"
       aria-label="5"
       transform="matrix(1.3333333,0,0,1.3333333,351.44533,72.446667)" />
    <path
       id="path13"
       d="M -5.669,-11.33871 H 17.00843 V 11.33872 H -5.669 Z"
       style="fill:none;stroke:#000000;stroke-width:0.3985;stroke-linecap:butt;stroke-linejoin:miter;stroke-miterlimit:10;stroke-dasharray:none;stroke-opacity:1"
       transform="matrix(1.3333333,0,0,-1.3333333,378.024,67.310667)" />
    <path
       id="path14"
       d="m 1.4636094,-4.1611719 c 0,-3.0234375 1.4765625,-3.5039062 2.1210937,-3.5039062 0.4335938,0 0.8554688,0.1289062 1.0898438,0.4921875 -0.140625,0 -0.5976563,0 -0.5976563,0.4921875 0,0.2578125 0.1757813,0.4921875 0.4921875,0.4921875 0.2929688,0 0.4921875,-0.1875 0.4921875,-0.5273438 0,-0.6210937 -0.4453125,-1.2304687 -1.4882812,-1.2304687 -1.5117188,0 -3.08203127,1.5351562 -3.08203127,4.171875 0,3.28124998 1.42968747,4.01953123 2.44921877,4.01953123 1.3007812,0 2.4140625,-1.125 2.4140625,-2.68359373 0,-1.59375 -1.1132813,-2.6601563 -2.3085938,-2.6601563 -1.0664062,0 -1.453125,0.9257813 -1.5820312,1.265625 z m 1.4765625,4.08984378 c -0.75,0 -1.1132813,-0.66796875 -1.21875,-0.92578125 C 1.6159531,-1.3017969 1.4987656,-1.8877344 1.4987656,-2.7314844 c 0,-0.9375 0.421875,-2.1210937 1.5,-2.1210937 0.65625,0 1.0078125,0.4453125 1.1835938,0.84375 0.1875,0.4453125 0.1875,1.0429687 0.1875,1.5585937 0,0.609375 0,1.1484375 -0.2226563,1.60546878 -0.3046875,0.57421875 -0.7265625,0.7734375 -1.2070312,0.7734375 z m 0,0"
       style="fill:#000000;fill-opacity:1;fill-rule:nonzero;stroke:none"
       aria-label="6"
       transform="matrix(1.3333333,0,0,1.3333333,381.68133,72.446667)" />
    <path
       id="path15"
       d="m 1.9224453,-6.8072734 c 0,-0.375 -0.070312,-0.4921875 -0.4804687,-0.4921875 H 0.65682031 c -0.1640625,0 -0.48046875,0 -0.48046875,0.3398437 0,0.3515625 0.31640625,0.3515625 0.48046875,0.3515625 H 1.1490078 v 6.11718751 c 0,0.22265625 0,0.4921875 0.3984375,0.4921875 0.375,0 0.375,-0.24609375 0.375,-0.59765625 0.2929688,0.328125 0.7265625,0.66796875 1.40625,0.66796875 1.265625,0 2.3789063,-1.13671871 2.3789063,-2.64843751 0,-1.4765625 -1.0078125,-2.6484375 -2.25,-2.6484375 -0.8789063,0 -1.4296875,0.5273438 -1.5351563,0.6445313 z m 0,3.6328125 c 0,-0.6796875 0.6679688,-1.359375 1.453125,-1.359375 0.8554688,0 1.546875,0.8789062 1.546875,1.9570312 0,1.1484375 -0.8085937,1.95703126 -1.6640625,1.95703126 -0.890625,0 -1.3359375,-1.01953126 -1.3359375,-1.61718746 z M -22.666422,9.5403828 c 0,-0.1875 0,-0.4570312 -0.328125,-0.4570312 -0.292969,0 -0.363281,0.28125 -0.363281,0.2929687 -0.480469,-0.2929687 -1.019531,-0.2929687 -1.265625,-0.2929687 -1.945313,0 -2.214844,0.9960934 -2.214844,1.4062504 0,0.480468 0.292969,0.820312 0.703125,1.042968 0.375,0.222657 0.726563,0.28125 1.699219,0.433594 0.46875,0.08203 1.429687,0.234375 1.429687,0.902344 0,0.433594 -0.410156,0.855469 -1.523437,0.855469 -0.761719,0 -1.265625,-0.304688 -1.511719,-1.160157 -0.05859,-0.164062 -0.09375,-0.292968 -0.398437,-0.292968 -0.398438,0 -0.398438,0.222656 -0.398438,0.457031 v 1.230469 c 0,0.199218 0,0.457031 0.339844,0.457031 0.140625,0 0.246094,0 0.433594,-0.492188 0.550781,0.457032 1.171875,0.492188 1.535156,0.492188 2.214844,0 2.214844,-1.429688 2.214844,-1.546875 0,-1.253906 -1.476563,-1.5 -2.050782,-1.582031 -1.054687,-0.175782 -1.769531,-0.304688 -1.769531,-0.796875 0,-0.328125 0.363281,-0.7148442 1.488281,-0.7148442 1.136719,0 1.183594,0.5390622 1.207032,0.8554692 0.02344,0.234375 0.246093,0.269531 0.386718,0.269531 0.386719,0 0.386719,-0.210938 0.386719,-0.457031 z m 6.128906,1.3007812 c 0,-1.1718749 -0.550781,-1.7226562 -1.523437,-1.7226562 -0.820313,0 -1.335938,0.4570313 -1.546875,0.6796875 V 7.5364766 c 0,-0.375 -0.07031,-0.4921875 -0.480469,-0.4921875 h -0.785156 c -0.164063,0 -0.480469,0 -0.480469,0.3398437 0,0.3515625 0.316406,0.3515625 0.480469,0.3515625 h 0.492187 v 5.9179687 h -0.492187 c -0.164063,0 -0.480469,0 -0.480469,0.339844 0,0.351562 0.316406,0.351562 0.480469,0.351562 h 1.757812 c 0.164063,0 0.480469,0 0.480469,-0.351562 0,-0.339844 -0.316406,-0.339844 -0.480469,-0.339844 h -0.492187 v -2.167969 c 0,-1.160156 0.820312,-1.6757809 1.464844,-1.6757809 0.691406,0 0.832031,0.3984379 0.832031,1.0781249 v 2.765625 h -0.492188 c -0.164062,0 -0.480468,0 -0.480468,0.339844 0,0.351562 0.316406,0.351562 0.480468,0.351562 h 1.757813 c 0.164062,0 0.480469,0 0.480469,-0.351562 0,-0.339844 -0.316407,-0.339844 -0.480469,-0.339844 h -0.492188 z m 6.105469,0.105469 c 0,-0.902344 -0.679687,-1.8632814 -2.296875,-1.8632814 -0.492187,0 -1.652344,0 -1.652344,0.8320312 0,0.3164062 0.222657,0.4921872 0.480469,0.4921872 0.08203,0 0.46875,-0.02344 0.480469,-0.5156247 0,-0.070312 0.01172,-0.082031 0.269531,-0.1054687 0.140625,-0.011719 0.292969,-0.011719 0.433594,-0.011719 0.28125,0 0.691406,0 1.078125,0.3046874 0.433594,0.328125 0.433594,0.667969 0.433594,1.019532 -0.703125,0.02344 -1.394532,0.07031 -2.144532,0.304687 -0.597656,0.199219 -1.359375,0.632813 -1.359375,1.441406 0,0.855469 0.75,1.570313 1.863282,1.570313 0.386718,0 1.125,-0.05859 1.746093,-0.492188 0.246094,0.398438 0.84375,0.421875 1.2890629,0.421875 0.2929687,0 0.5742187,0 0.5742187,-0.351562 0,-0.339844 -0.3046875,-0.339844 -0.4804687,-0.339844 -0.3046879,0 -0.5390629,-0.02344 -0.7148439,-0.09375 z m -0.773437,1.816406 c 0,0.28125 0,0.527344 -0.492188,0.761719 -0.421875,0.199219 -0.972656,0.199219 -1.019531,0.199219 -0.703125,0 -1.21875,-0.386719 -1.21875,-0.878907 0,-0.703125 1.289062,-1.101562 2.730469,-1.101562 z m 4.3916012,4.230469 c 0.1640625,0 0.4804687,0 0.4804687,-0.339844 0,-0.351562 -0.3164062,-0.351562 -0.4804687,-0.351562 h -0.4921875 v -2.554688 c 0.2929687,0.328125 0.7265625,0.667969 1.40625,0.667969 1.265625,0 2.3789062,-1.136719 2.3789062,-2.648438 0,-1.476562 -1.0078125,-2.6484372 -2.25,-2.6484372 -0.8789062,0 -1.4296875,0.5273438 -1.5351562,0.6445313 0,-0.3867188 0,-0.5742188 -0.4804688,-0.5742188 h -0.7851562 c -0.1640625,0 -0.4804688,0 -0.4804688,0.3515625 0,0.3515625 0.3164063,0.3515625 0.4804688,0.3515625 h 0.4921875 v 6.4101567 h -0.4921875 c -0.1640625,0 -0.4804688,0 -0.4804688,0.351562 0,0.339844 0.3164063,0.339844 0.4804688,0.339844 z m -0.4921875,-5.824219 c 0,-0.679687 0.6679687,-1.3593749 1.453125,-1.3593749 0.8554687,0 1.546875,0.8789059 1.546875,1.9570309 0,1.148438 -0.8085938,1.957032 -1.6640625,1.957032 -0.890625,0 -1.3359375,-1.019532 -1.3359375,-1.617188 z m 9.1992187,0.878906 c 0.2578125,0 0.4804688,0 0.4804688,-0.445312 0,-1.394531 -0.7851563,-2.5195314 -2.28515626,-2.5195314 -1.38281254,0 -2.49609374,1.1953124 -2.49609374,2.6601564 0,1.5 1.2070312,2.671875 2.68359374,2.671875 1.53515626,0 2.09765626,-1.066406 2.09765626,-1.371094 0,-0.07031 -0.023437,-0.339844 -0.3984375,-0.339844 -0.2226563,0 -0.2929688,0.08203 -0.3632813,0.269532 -0.3046875,0.691406 -1.07812496,0.75 -1.30078121,0.75 -0.99609375,0 -1.78124999,-0.75 -1.92187499,-1.675782 z m -3.4921875,-0.65625 c 0.1640625,-1.019531 0.93750004,-1.6171872 1.68750004,-1.6171872 1.19531246,0 1.45312496,1.0195312 1.49999996,1.6171872 z m 9.8671875,-1.21875 c 0.1523438,0 0.515625,0 0.515625,-0.3867184 0,-0.3867188 -0.3984375,-0.3867188 -0.5742187,-0.3867188 H 4.0962734 c -0.1875,0 -0.5742187,0 -0.5742187,0.3867188 0,0.3867184 0.3632812,0.3867184 0.515625,0.3867184 z m -0.058594,1.816407 c 0.1757812,0 0.5742187,0 0.5742187,-0.398438 0,-0.375 -0.375,-0.375 -0.515625,-0.375 H 4.0376797 c -0.1640625,0 -0.515625,0 -0.515625,0.375 0,0.398438 0.3867187,0.398438 0.5742187,0.398438 z m 6.1406256,3.035156 c 0,-0.152344 -0.09375,-0.199219 -0.257813,-0.316406 -1.652344,-1.136719 -2.050781,-2.847657 -2.050781,-4.007813 0,-1.1367187 0.375,-2.8593749 2.050781,-4.0195312 0.164063,-0.1171875 0.257813,-0.1640625 0.257813,-0.3164062 0,-0.1289063 -0.07031,-0.3164063 -0.351563,-0.3164063 -0.304687,0 -1.183594,0.6914063 -1.734375,1.4765625 -0.667969,0.9257813 -1.007812,2.0390625 -1.007812,3.1757812 0,1.324219 0.480468,2.4375 0.984375,3.140625 0.550781,0.761719 1.417968,1.5 1.757812,1.5 0.28125,0 0.351563,-0.210937 0.351563,-0.316406 z m 4.089843,-4.277344 c 1.242188,0 1.792969,0.867188 1.792969,1.523438 0,0.785156 -0.691406,1.523437 -1.746094,1.523437 -1.195312,0 -1.734375,-0.644531 -1.734375,-0.808594 0,-0.02344 0.01172,-0.04687 0.02344,-0.05859 0.04687,-0.09375 0.08203,-0.1875 0.08203,-0.292969 0,-0.246094 -0.1875,-0.480469 -0.46875,-0.480469 -0.257812,0 -0.492187,0.164063 -0.492187,0.527344 0,1.042969 1.136718,1.804687 2.589843,1.804687 1.511719,0 2.519532,-1.078125 2.519532,-2.203125 0,-0.609375 -0.328125,-1.464843 -1.382813,-1.921875 0.726563,-0.4453122 1.054688,-1.1718747 1.054688,-1.7929684 0,-0.890625 -0.902344,-1.6640625 -2.191407,-1.6640625 -1.324218,0 -2.261718,0.5625 -2.261718,1.453125 0,0.3984375 0.304687,0.515625 0.492187,0.515625 0.222656,0 0.480469,-0.1640625 0.480469,-0.4921875 0,-0.1875 -0.09375,-0.2929688 -0.09375,-0.3164063 0.351562,-0.4453125 1.183594,-0.46875 1.382812,-0.46875 0.820313,0 1.417969,0.421875 1.417969,0.984375 0,0.3515625 -0.234375,1.3476563 -1.488281,1.4296877 -0.445313,0.02344 -0.632813,0.04687 -0.679688,0.04687 -0.234375,0.02344 -0.304687,0.175781 -0.304687,0.339844 0,0.351562 0.257812,0.351562 0.457031,0.351562 z m 6.398438,3.5625 c -0.07031,0.375 -0.304688,0.820313 -0.890625,1.03125 -0.105469,0.02344 -0.28125,0.08203 -0.28125,0.304688 0,0.152343 0.175781,0.363281 0.363281,0.363281 0.328125,0 1.511719,-0.585938 1.511719,-1.875 0,-0.632813 -0.398438,-1.136719 -0.925781,-1.136719 -0.445313,0 -0.679688,0.339844 -0.679688,0.667969 0,0.398437 0.304688,0.679687 0.667969,0.679687 0.07031,0 0.152344,-0.01172 0.234375,-0.03516 z m 6.960937,-3.609375 c 0,-0.9374999 -0.222656,-2.1445312 -1.089843,-3.3046874 -0.410157,-0.5507813 -1.289063,-1.3476563 -1.652344,-1.3476563 -0.269531,0 -0.339844,0.1992188 -0.339844,0.3164063 0,0.140625 0.08203,0.1992187 0.292969,0.3398437 1.464844,1.03125 2.015625,2.6367188 2.015625,3.9843747 0,1.078125 -0.351563,2.835938 -2.0625,4.019532 -0.152344,0.105468 -0.246094,0.164062 -0.246094,0.316406 0,0.105469 0.07031,0.316406 0.339844,0.316406 0.304687,0 1.183594,-0.691406 1.734375,-1.476562 0.691406,-0.972657 1.007812,-2.097657 1.007812,-3.164063 z m 0,0"
       style="fill:#000000;fill-opacity:1;fill-rule:nonzero;stroke:none"
       aria-label="b&#10;shape=(3,)"
       transform="matrix(1.3333333,0,0,1.3333333,351.24533,20.369333)" />
    <path
       id="path16"
       d="m 8.0735,-3.8665625 c 0.1640625,0 0.375,0 0.375,-0.2226563 0,-0.2226562 -0.1992187,-0.2226562 -0.375,-0.2226562 H 1.0305313 c -0.1757813,0 -0.3867188,0 -0.3867188,0.2109375 0,0.234375 0.19921875,0.234375 0.3867188,0.234375 z m 0,2.2148437 c 0.1640625,0 0.375,0 0.375,-0.2109375 0,-0.234375 -0.1992187,-0.234375 -0.375,-0.234375 H 1.0305313 c -0.1757813,0 -0.3867188,0 -0.3867188,0.2226563 0,0.2226562 0.19921875,0.2226562 0.3867188,0.2226562 z m 0,0"
       style="fill:#000000;fill-opacity:1;fill-rule:nonzero;stroke:none"
       aria-label="="
       transform="matrix(1.3333333,0,0,1.3333333,439.98533,70.186667)" />
    <path
       id="path17"
       d="M 73.7017,-11.33871 H 96.37913 V 11.33872 H 73.7017 Z"
       style="fill:none;stroke:#000000;stroke-width:0.3985;stroke-linecap:butt;stroke-linejoin:miter;stroke-miterlimit:10;stroke-dasharray:none;stroke-opacity:1"
       transform="matrix(1.3333333,0,0,-1.3333333,378.024,67.310667)" />
    <path
       id="path18"
       d="m 2.2032266,-4.2900781 c -0.2109375,0.011719 -0.2578125,0.023437 -0.2578125,0.1289062 0,0.1171875 0.058594,0.1171875 0.28125,0.1171875 h 0.5507812 c 1.0078125,0 1.4648438,0.84375 1.4648438,1.9921875 0,1.55859378 -0.8085938,1.98046878 -1.3945313,1.98046878 -0.5742187,0 -1.5585937,-0.28125 -1.89843749,-1.06640628 0.37499999,0.058594 0.72656249,-0.1523437 0.72656249,-0.5859375 0,-0.3398437 -0.2578125,-0.5859375 -0.5859375,-0.5859375 -0.29296874,0 -0.59765624,0.1640625 -0.59765624,0.6210938 0,1.06640623 1.06640624,1.93359373 2.39062504,1.93359373 1.4179687,0 2.4726562,-1.078125 2.4726562,-2.28515623 0,-1.1015625 -0.890625,-1.96875 -2.0273437,-2.1679688 1.03125,-0.3046875 1.6992187,-1.171875 1.6992187,-2.109375 0,-0.9375 -0.9726562,-1.6289062 -2.1328125,-1.6289062 -1.1953125,0 -2.08593749,0.7265625 -2.08593749,1.59375 0,0.4804687 0.37499999,0.5742187 0.55078129,0.5742187 0.2578125,0 0.5390625,-0.1757812 0.5390625,-0.5390625 0,-0.375 -0.28125,-0.5390625 -0.5507813,-0.5390625 -0.070312,0 -0.09375,0 -0.1289062,0.011719 0.4570312,-0.8203125 1.5820312,-0.8203125 1.640625,-0.8203125 0.3867187,0 1.171875,0.1757812 1.171875,1.3476562 0,0.234375 -0.035156,0.9023438 -0.3867188,1.4179688 -0.3515625,0.5273437 -0.7617187,0.5625 -1.0898437,0.5742187 z m 8.9121094,2.2851562 h -0.269531 c -0.03516,0.1992188 -0.128907,0.8554688 -0.246094,1.04296878 -0.08203,0.1171875 -0.7617188,0.1171875 -1.1250001,0.1171875 H 7.2598672 c 0.328125,-0.28124998 1.0546875,-1.04296878 1.3710937,-1.33593748 1.8164061,-1.6640625 2.4843751,-2.2851563 2.4843751,-3.46875 0,-1.3828125 -1.089844,-2.296875 -2.4726563,-2.296875 -1.3945313,0 -2.203125,1.1835937 -2.203125,2.203125 0,0.609375 0.5273437,0.609375 0.5625,0.609375 0.2460937,0 0.5625,-0.1757813 0.5625,-0.5625 0,-0.328125 -0.234375,-0.5507813 -0.5625,-0.5507813 -0.1054688,0 -0.1289063,0 -0.1640625,0.011719 0.2226562,-0.8203125 0.8671875,-1.3710938 1.640625,-1.3710938 1.0195312,0 1.6406248,0.8554688 1.6406248,1.9570313 0,1.0078125 -0.5859373,1.8984375 -1.2656248,2.6601562 l -2.4140625,2.70703128 v 0.28125 H 10.79893 Z m 0,0"
       style="fill:#000000;fill-opacity:1;fill-rule:nonzero;stroke:none"
       aria-label="32"
       transform="matrix(1.3333333,0,0,1.3333333,483.60533,72.446667)" />
    <path
       id="path19"
       d="m 5.4496641,-1.3016094 c 0,-0.3164062 -0.2929688,-0.3164062 -0.3984375,-0.3164062 -0.2695313,0 -0.3164063,0.09375 -0.375,0.2695312 -0.2695313,0.65625003 -0.8554688,0.72656253 -1.1367188,0.72656253 -1.0195312,0 -1.875,-0.84375003 -1.875,-1.95703123 0,-0.609375 0.3398438,-1.9921875 1.9101563,-1.9921875 0.328125,0 0.5742187,0.023437 0.6796875,0.035156 0.082031,0.023437 0.09375,0.035156 0.09375,0.1054688 0.035156,0.4804687 0.4101562,0.4921875 0.4804687,0.4921875 0.2695313,0 0.4921875,-0.1757813 0.4921875,-0.4921875 0,-0.8320313 -1.2070312,-0.8320313 -1.734375,-0.8320313 -2.0390625,0 -2.70703124,1.6757813 -2.70703124,2.6835938 0,1.453125 1.11328124,2.64843748 2.55468754,2.64843748 1.59375,0 2.015625,-1.18359378 2.015625,-1.37109358 z M -16.514203,9.5411641 c 0,-0.1875 0,-0.4570313 -0.328125,-0.4570313 -0.292969,0 -0.363281,0.28125 -0.363281,0.2929688 -0.480469,-0.2929688 -1.019532,-0.2929688 -1.265625,-0.2929688 -1.945313,0 -2.214844,0.9960942 -2.214844,1.4062502 0,0.480469 0.292969,0.820312 0.703125,1.042969 0.375,0.222656 0.726562,0.28125 1.699219,0.433593 0.46875,0.08203 1.429687,0.234375 1.429687,0.902344 0,0.433594 -0.410156,0.855469 -1.523437,0.855469 -0.761719,0 -1.265625,-0.304688 -1.511719,-1.160156 -0.05859,-0.164063 -0.09375,-0.292969 -0.398438,-0.292969 -0.398437,0 -0.398437,0.222656 -0.398437,0.457031 v 1.230469 c 0,0.199219 0,0.457031 0.339844,0.457031 0.140625,0 0.246093,0 0.433593,-0.492187 0.550782,0.457031 1.171875,0.492187 1.535157,0.492187 2.214843,0 2.214843,-1.429687 2.214843,-1.546875 0,-1.253906 -1.476562,-1.5 -2.050781,-1.582031 -1.054687,-0.175781 -1.769531,-0.304688 -1.769531,-0.796875 0,-0.328125 0.363281,-0.7148439 1.488281,-0.7148439 1.136719,0 1.183594,0.5390629 1.207031,0.8554689 0.02344,0.234375 0.246094,0.269531 0.386719,0.269531 0.386719,0 0.386719,-0.210937 0.386719,-0.457031 z m 6.128906,1.3007809 c 0,-1.1718747 -0.550781,-1.7226559 -1.523437,-1.7226559 -0.820313,0 -1.335938,0.4570312 -1.546875,0.6796875 V 7.5372578 c 0,-0.375 -0.07031,-0.4921875 -0.480469,-0.4921875 h -0.785156 c -0.164063,0 -0.480469,0 -0.480469,0.3398438 0,0.3515625 0.316406,0.3515625 0.480469,0.3515625 h 0.492187 v 5.9179684 h -0.492187 c -0.164063,0 -0.480469,0 -0.480469,0.339844 0,0.351563 0.316406,0.351563 0.480469,0.351563 h 1.757812 c 0.164063,0 0.480469,0 0.480469,-0.351563 0,-0.339844 -0.316406,-0.339844 -0.480469,-0.339844 h -0.492187 v -2.167968 c 0,-1.160157 0.820312,-1.6757817 1.464843,-1.6757817 0.691407,0 0.832032,0.3984377 0.832032,1.0781247 v 2.765625 h -0.492188 c -0.164062,0 -0.480469,0 -0.480469,0.339844 0,0.351563 0.316407,0.351563 0.480469,0.351563 h 1.7578126 c 0.1640625,0 0.4804688,0 0.4804688,-0.351563 0,-0.339844 -0.3164063,-0.339844 -0.4804688,-0.339844 h -0.4921876 z m 6.1025392,0.105469 c 0,-0.902344 -0.6796875,-1.8632812 -2.296875,-1.8632812 -0.4921875,0 -1.6523438,0 -1.6523438,0.8320313 0,0.3164059 0.2226563,0.4921879 0.4804688,0.4921879 0.082031,0 0.46875,-0.02344 0.4804687,-0.5156254 0,-0.070312 0.011719,-0.082031 0.2695313,-0.1054688 0.140625,-0.011719 0.2929687,-0.011719 0.4335937,-0.011719 0.28125,0 0.6914063,0 1.078125,0.3046882 0.4335938,0.328125 0.4335938,0.667968 0.4335938,1.019531 -0.703125,0.02344 -1.3945313,0.07031 -2.1445313,0.304687 -0.5976562,0.199219 -1.359375,0.632813 -1.359375,1.441407 0,0.855468 0.75,1.570312 1.8632813,1.570312 0.3867187,0 1.125,-0.05859 1.7460937,-0.492187 0.2460938,0.398437 0.84375,0.421875 1.2890625,0.421875 0.2929688,0 0.5742188,0 0.5742188,-0.351563 0,-0.339844 -0.3046875,-0.339844 -0.4804688,-0.339844 -0.3046875,0 -0.5390625,-0.02344 -0.7148437,-0.09375 z m -0.7734375,1.816406 c 0,0.28125 0,0.527344 -0.4921875,0.761719 -0.421875,0.199219 -0.9726563,0.199219 -1.0195313,0.199219 -0.703125,0 -1.21875,-0.386719 -1.21875,-0.878906 0,-0.703125 1.2890625,-1.101563 2.7304688,-1.101563 z m 4.39453124,4.230469 c 0.1640625,0 0.48046875,0 0.48046875,-0.339844 0,-0.351562 -0.31640625,-0.351562 -0.48046875,-0.351562 H -1.1538516 v -2.554688 c 0.29296879,0.328125 0.72656254,0.667969 1.40625004,0.667969 1.26562496,0 2.37890626,-1.136719 2.37890626,-2.648437 0,-1.476563 -1.0078125,-2.6484379 -2.25000001,-2.6484379 -0.87890625,0 -1.42968749,0.5273437 -1.53515629,0.6445312 0,-0.3867187 0,-0.5742187 -0.4804687,-0.5742187 h -0.7851563 c -0.1640625,0 -0.4804687,0 -0.4804687,0.3515625 0,0.3515625 0.3164062,0.3515625 0.4804687,0.3515625 h 0.4921875 v 6.4101564 h -0.4921875 c -0.1640625,0 -0.4804687,0 -0.4804687,0.351562 0,0.339844 0.3164062,0.339844 0.4804687,0.339844 z M -1.1538516,11.17007 c 0,-0.679687 0.66796879,-1.3593747 1.45312504,-1.3593747 0.85546876,0 1.54687496,0.8789067 1.54687496,1.9570317 0,1.148437 -0.8085937,1.957031 -1.66406246,1.957031 -0.890625,0 -1.33593754,-1.019531 -1.33593754,-1.617188 z m 9.1992188,0.878907 c 0.2578125,0 0.4804687,0 0.4804687,-0.445313 0,-1.394531 -0.7851562,-2.5195312 -2.2851562,-2.5195312 -1.3828125,0 -2.4960938,1.1953122 -2.4960938,2.6601562 0,1.5 1.2070313,2.671875 2.6835938,2.671875 1.5351562,0 2.0976562,-1.066406 2.0976562,-1.371094 0,-0.07031 -0.023437,-0.339843 -0.3984375,-0.339843 -0.2226562,0 -0.2929687,0.08203 -0.3632812,0.269531 -0.3046875,0.691406 -1.078125,0.75 -1.3007813,0.75 -0.9960937,0 -1.78125,-0.75 -1.921875,-1.675781 z m -3.4921875,-0.65625 c 0.1640625,-1.019532 0.9375,-1.6171879 1.6875,-1.6171879 1.1953125,0 1.453125,1.0195309 1.5,1.6171879 z m 9.8671873,-1.21875 c 0.152344,0 0.515625,0 0.515625,-0.3867192 0,-0.3867187 -0.398437,-0.3867187 -0.574219,-0.3867187 h -4.113281 c -0.1875,0 -0.5742186,0 -0.5742186,0.3867187 0,0.3867192 0.3632816,0.3867192 0.5156246,0.3867192 z m -0.05859,1.816406 c 0.175782,0 0.574219,0 0.574219,-0.398438 0,-0.375 -0.375,-0.375 -0.515625,-0.375 h -4.230469 c -0.164062,0 -0.5156246,0 -0.5156246,0.375 0,0.398438 0.3867186,0.398438 0.5742186,0.398438 z m 6.140625,3.035156 c 0,-0.152344 -0.09375,-0.199219 -0.257812,-0.316406 -1.652344,-1.136719 -2.050781,-2.847656 -2.050781,-4.007813 0,-1.1367184 0.375,-2.8593747 2.050781,-4.0195309 0.164062,-0.1171875 0.257812,-0.1640625 0.257812,-0.3164063 0,-0.1289062 -0.07031,-0.3164062 -0.351562,-0.3164062 -0.304688,0 -1.183594,0.6914062 -1.734375,1.4765625 -0.667969,0.9257812 -1.007813,2.0390625 -1.007813,3.1757809 0,1.324219 0.480469,2.4375 0.984375,3.140625 0.550782,0.761719 1.417969,1.5 1.757813,1.5 0.28125,0 0.351562,-0.210937 0.351562,-0.316406 z M 25.64693,10.70132 c 0,-0.9374997 -0.222657,-2.1445309 -1.089844,-3.3046872 -0.410156,-0.5507812 -1.289063,-1.3476562 -1.652344,-1.3476562 -0.269531,0 -0.339844,0.1992187 -0.339844,0.3164062 0,0.140625 0.08203,0.1992188 0.292969,0.3398438 1.464844,1.03125 2.015625,2.6367187 2.015625,3.9843754 0,1.078125 -0.351562,2.835937 -2.0625,4.019531 -0.152344,0.105469 -0.246094,0.164062 -0.246094,0.316406 0,0.105469 0.07031,0.316406 0.339844,0.316406 0.304688,0 1.183594,-0.691406 1.734375,-1.476562 0.691406,-0.972656 1.007813,-2.097656 1.007813,-3.164063 z m 0,0"
       style="fill:#000000;fill-opacity:1;fill-rule:nonzero;stroke:none"
       aria-label="c&#10;shape=()"
       transform="matrix(1.3333333,0,0,1.3333333,487.308,20.102667)" />
    <path
       id="path20"
       d="M -80.02278,-44.26198 H 46.00629 v 25.6375 H -80.02278 Z"
       style="fill:#ffffff;fill-opacity:1;fill-rule:nonzero;stroke:none"
       transform="matrix(1.3333333,0,0,-1.3333333,378.024,67.310667)" />
    <path
       id="path21"
       d="m 4.9914219,-3.5026328 c 0,-1.171875 -0.5507813,-1.7226563 -1.5234375,-1.7226563 -0.8203125,0 -1.3359375,0.4570313 -1.546875,0.6796875 0,-0.4335937 0,-0.609375 -0.4804688,-0.609375 H 0.65548438 c -0.1640625,0 -0.48046875,0 -0.48046875,0.3515625 0,0.3515625 0.31640625,0.3515625 0.48046875,0.3515625 H 1.1476719 v 3.76171879 H 0.65548438 c -0.1640625,0 -0.48046875,0 -0.48046875,0.33984375 0,0.3515625 0.31640625,0.3515625 0.48046875,0.3515625 H 2.4132969 c 0.1640625,0 0.4804687,0 0.4804687,-0.3515625 0,-0.33984375 -0.3164062,-0.33984375 -0.4804687,-0.33984375 H 1.9211094 V -2.8581016 c 0,-1.1601562 0.8203125,-1.6757812 1.4648437,-1.6757812 0.6914063,0 0.8320313,0.3984375 0.8320313,1.078125 v 2.76562499 H 3.7257969 c -0.1640625,0 -0.4804688,0 -0.4804688,0.33984375 0,0.3515625 0.3164063,0.3515625 0.4804688,0.3515625 h 1.7578125 c 0.1640625,0 0.4804687,0 0.4804687,-0.3515625 0,-0.33984375 -0.3164062,-0.33984375 -0.4804687,-0.33984375 H 4.9914219 Z m 3.5742187,6.1523437 c 0.1640625,0 0.4804688,0 0.4804688,-0.3398437 0,-0.3515625 -0.3164063,-0.3515625 -0.4804688,-0.3515625 H 8.0734531 v -2.55468751 c 0.2929688,0.328125 0.7265625,0.66796875 1.40625,0.66796875 1.2656249,0 2.3789059,-1.13671874 2.3789059,-2.64843754 0,-1.4765625 -1.007812,-2.6484375 -2.2499996,-2.6484375 -0.8789063,0 -1.4296875,0.5273438 -1.5351563,0.6445313 0,-0.3867188 0,-0.5742188 -0.4804687,-0.5742188 H 6.8078281 c -0.1640625,0 -0.4804687,0 -0.4804687,0.3515625 0,0.3515625 0.3164062,0.3515625 0.4804687,0.3515625 H 7.3000156 V 1.9583047 H 6.8078281 c -0.1640625,0 -0.4804687,0 -0.4804687,0.3515625 0,0.3398437 0.3164062,0.3398437 0.4804687,0.3398437 z M 8.0734531,-3.1745078 c 0,-0.6796875 0.6679688,-1.359375 1.453125,-1.359375 0.8554689,0 1.5468749,0.8789062 1.5468749,1.9570312 0,1.1484375 -0.808594,1.95703129 -1.6640624,1.95703129 -0.890625,0 -1.3359375,-1.01953129 -1.3359375,-1.61718749 z m 7.9804689,2.50781249 c 0,-0.39843749 -0.316406,-0.67968749 -0.667969,-0.67968749 -0.375,0 -0.679687,0.2929687 -0.679687,0.67968749 0,0.3515625 0.316406,0.66796875 0.667968,0.66796875 0.398438,0 0.679688,-0.328125 0.679688,-0.66796875 z m 7.394531,-6.14062499 c 0,-0.375 -0.07031,-0.4921875 -0.46875,-0.4921875 h -0.796875 c -0.164062,0 -0.480469,0 -0.480469,0.3398437 0,0.3515625 0.316407,0.3515625 0.480469,0.3515625 h 0.492188 v 1.9804688 c -0.1875,-0.1875 -0.679688,-0.5976563 -1.40625,-0.5976563 -1.265625,0 -2.367188,1.1484375 -2.367188,2.6601563 0,1.4648437 1.019531,2.63671874 2.261719,2.63671874 0.773437,0 1.289062,-0.46875 1.511719,-0.7265625 0,0.50390625 0,0.65625 0.480468,0.65625 h 0.785157 c 0.164062,0 0.480468,0 0.480468,-0.3515625 0,-0.33984375 -0.316406,-0.33984375 -0.480468,-0.33984375 h -0.492188 z m -0.773437,4.5351562 c 0,0.6679688 -0.550782,1.65234379 -1.441407,1.65234379 -0.867187,0 -1.558593,-0.87890629 -1.558593,-1.94531249 0,-1.1484375 0.808593,-1.96875 1.664062,-1.96875 0.773438,0 1.335938,0.7148437 1.335938,1.3359375 z m 7.382812,-0.3046875 c 0,-1.5 -1.089844,-2.6835937 -2.378906,-2.6835937 -1.289063,0 -2.378906,1.1835937 -2.378906,2.6835937 0,1.5 1.101562,2.64843754 2.378906,2.64843754 1.277344,0 2.378906,-1.14843754 2.378906,-2.64843754 z m -2.378906,1.95703129 c -0.855469,0 -1.605469,-0.91406249 -1.605469,-2.03906249 0,-1.1132813 0.773438,-1.9101563 1.605469,-1.9101563 0.84375,0 1.605469,0.796875 1.605469,1.9101563 0,1.1367187 -0.738282,2.03906249 -1.605469,2.03906249 z m 5.660156,-3.83203129 h 1.945313 c 0.164062,0 0.46875,0 0.46875,-0.3515625 0,-0.3515625 -0.304688,-0.3515625 -0.46875,-0.3515625 h -1.945313 v -0.9726562 c 0,-0.2226563 0,-0.4921875 -0.375,-0.4921875 -0.398437,0 -0.398437,0.2695312 -0.398437,0.4921875 v 0.9726562 h -1.019532 c -0.164062,0 -0.480468,0 -0.480468,0.3515625 0,0.3515625 0.304687,0.3515625 0.46875,0.3515625 h 1.03125 v 3.0117188 c 0,1.10156249 0.761718,1.51171874 1.628906,1.51171874 0.644531,0 1.828125,-0.31640625 1.828125,-1.53515624 0,-0.2460938 0,-0.5039063 -0.398438,-0.5039063 -0.375,0 -0.375,0.2578125 -0.375,0.515625 -0.02344,0.71484379 -0.703125,0.83203129 -0.972656,0.83203129 -0.9375,0 -0.9375,-0.59765629 -0.9375,-0.89062499 z m 8.695313,5.13281254 c 0,-0.15234375 -0.09375,-0.19921875 -0.257813,-0.31640625 -1.652344,-1.13671875 -2.050781,-2.84765629 -2.050781,-4.00781249 0,-1.1367188 0.375,-2.859375 2.050781,-4.0195313 0.164063,-0.1171875 0.257813,-0.1640625 0.257813,-0.3164062 0,-0.1289063 -0.07031,-0.3164063 -0.351563,-0.3164063 -0.304687,0 -1.183594,0.6914063 -1.734375,1.4765625 -0.667969,0.9257813 -1.007812,2.0390625 -1.007812,3.1757813 0,1.3242187 0.480468,2.4375 0.984375,3.14062499 0.550781,0.76171875 1.417968,1.5 1.757812,1.5 0.28125,0 0.351563,-0.2109375 0.351563,-0.31640625 z m 5.976562,-4.07812504 c 0,-0.9023437 -0.679687,-1.8632812 -2.296875,-1.8632812 -0.492187,0 -1.652344,0 -1.652344,0.8320312 0,0.3164063 0.222657,0.4921875 0.480469,0.4921875 0.08203,0 0.46875,-0.023437 0.480469,-0.515625 0,-0.070312 0.01172,-0.082031 0.269531,-0.1054687 0.140625,-0.011719 0.292969,-0.011719 0.433594,-0.011719 0.28125,0 0.691406,0 1.078125,0.3046875 0.433594,0.328125 0.433594,0.6679688 0.433594,1.0195313 -0.703125,0.023437 -1.394532,0.070312 -2.144532,0.3046875 -0.597656,0.1992187 -1.359375,0.6328125 -1.359375,1.4414062 0,0.85546879 0.75,1.57031254 1.863282,1.57031254 0.386718,0 1.125,-0.05859375 1.746093,-0.4921875 0.246094,0.3984375 0.84375,0.421875 1.289063,0.421875 0.292969,0 0.574219,0 0.574219,-0.3515625 0,-0.33984375 -0.304688,-0.33984375 -0.480469,-0.33984375 -0.304688,0 -0.539063,-0.0234375 -0.714844,-0.09375 z m -0.773437,1.8164063 c 0,0.28125 0,0.5273437 -0.492188,0.76171874 -0.421875,0.19921875 -0.972656,0.19921875 -1.019531,0.19921875 -0.703125,0 -1.21875,-0.38671879 -1.21875,-0.87890629 0,-0.703125 1.289062,-1.1015625 2.730469,-1.1015625 z m 5.285156,1.54687499 c -0.07031,0.375 -0.304688,0.8203125 -0.890625,1.03125 -0.105469,0.0234375 -0.28125,0.0820312 -0.28125,0.30468751 0,0.1523437 0.175781,0.3632812 0.363281,0.3632812 0.328125,0 1.511719,-0.5859375 1.511719,-1.87499996 0,-0.6328125 -0.398438,-1.13671874 -0.925781,-1.13671874 -0.445313,0 -0.679688,0.3398437 -0.679688,0.66796874 0,0.3984375 0.304688,0.6796875 0.667969,0.6796875 0.07031,0 0.152344,-0.01171875 0.234375,-0.03515625 z m 4.769531,-6.77343749 c 0,-0.375 -0.07031,-0.4921875 -0.480469,-0.4921875 h -0.785156 c -0.164062,0 -0.480469,0 -0.480469,0.3398437 0,0.3515625 0.316407,0.3515625 0.480469,0.3515625 h 0.492188 v 6.11718754 c 0,0.22265625 0,0.4921875 0.398437,0.4921875 0.375,0 0.375,-0.24609375 0.375,-0.59765625 0.292969,0.328125 0.726563,0.66796875 1.40625,0.66796875 1.265625,0 2.378906,-1.13671874 2.378906,-2.64843754 0,-1.4765625 -1.007812,-2.6484375 -2.25,-2.6484375 -0.878906,0 -1.429687,0.5273438 -1.535156,0.6445313 z m 0,3.6328125 c 0,-0.6796875 0.667969,-1.359375 1.453125,-1.359375 0.855469,0 1.546875,0.8789062 1.546875,1.9570312 0,1.1484375 -0.808594,1.95703129 -1.664062,1.95703129 -0.890625,0 -1.335938,-1.01953129 -1.335938,-1.61718749 z m 8.34375,-0.46875 c 0,-0.9375 -0.222656,-2.1445313 -1.089844,-3.3046875 -0.410156,-0.5507813 -1.289062,-1.3476563 -1.652343,-1.3476563 -0.269532,0 -0.339844,0.1992188 -0.339844,0.3164063 0,0.140625 0.08203,0.1992187 0.292969,0.3398437 1.464843,1.03125 2.015625,2.6367188 2.015625,3.984375 0,1.078125 -0.351563,2.83593754 -2.0625,4.01953129 -0.152344,0.10546875 -0.246094,0.1640625 -0.246094,0.31640625 0,0.10546875 0.07031,0.31640625 0.339844,0.31640625 0.304687,0 1.183593,-0.69140625 1.734375,-1.4765625 0.691406,-0.97265629 1.007812,-2.09765629 1.007812,-3.16406249 z m 13.374024,-0.5273438 c 0.152343,0 0.515625,0 0.515625,-0.3867187 0,-0.3867188 -0.398438,-0.3867188 -0.574219,-0.3867188 h -4.113281 c -0.1875,0 -0.574219,0 -0.574219,0.3867188 0,0.3867187 0.363281,0.3867187 0.515625,0.3867187 z m -0.05859,1.8164063 c 0.175781,0 0.574219,0 0.574219,-0.3984375 0,-0.375 -0.375,-0.375 -0.515625,-0.375 h -4.230469 c -0.164063,0 -0.515625,0 -0.515625,0.375 0,0.3984375 0.386719,0.3984375 0.574219,0.3984375 z M 91.0715,-3.3971641 c 0,-0.9023437 -0.679687,-1.8632812 -2.296875,-1.8632812 -0.492187,0 -1.652344,0 -1.652344,0.8320312 0,0.3164063 0.222657,0.4921875 0.480469,0.4921875 0.08203,0 0.46875,-0.023437 0.480469,-0.515625 0,-0.070312 0.01172,-0.082031 0.269531,-0.1054687 0.140625,-0.011719 0.292969,-0.011719 0.433594,-0.011719 0.28125,0 0.691406,0 1.078125,0.3046875 0.433594,0.328125 0.433594,0.6679688 0.433594,1.0195313 -0.703125,0.023437 -1.394532,0.070312 -2.144532,0.3046875 -0.597656,0.1992187 -1.359375,0.6328125 -1.359375,1.4414062 0,0.85546879 0.75,1.57031254 1.863282,1.57031254 0.386718,0 1.125,-0.05859375 1.746093,-0.4921875 0.246094,0.3984375 0.84375,0.421875 1.289063,0.421875 0.292969,0 0.574219,0 0.574219,-0.3515625 0,-0.33984375 -0.304688,-0.33984375 -0.480469,-0.33984375 -0.304688,0 -0.539063,-0.0234375 -0.714844,-0.09375 z m -0.773437,1.8164063 c 0,0.28125 0,0.5273437 -0.492188,0.76171874 -0.421875,0.19921875 -0.972656,0.19921875 -1.019531,0.19921875 -0.703125,0 -1.21875,-0.38671879 -1.21875,-0.87890629 0,-0.703125 1.289062,-1.1015625 2.730469,-1.1015625 z m 12.837887,-4.1953125 c -0.15234,-0.1054688 -0.44531,-0.2460938 -0.76172,-0.2460938 -0.94921,0 -1.71093,1.03125 -1.71093,2.3671875 0,1.40625 0.80859,2.3789063 1.69922,2.3789063 0.58593,0 1.69921,-0.515625 1.69921,-2.5546875 0,-0.8085938 0,-3.5390625 -2.0625,-3.5390625 -1.58203,0 -3.046871,1.546875 -3.046871,3.7148437 0,2.1445313 1.429691,3.72656254 3.070311,3.72656254 1.125,0 2.03906,-0.7265625 2.03906,-1.01953125 0,-0.30468749 -0.29296,-0.30468749 -0.41015,-0.30468749 -0.1875,0 -0.23438,0 -0.35156,0.1054687 -0.41016,0.39843754 -0.85547,0.52734379 -1.27735,0.52734379 -1.27734,0 -2.402342,-1.30078129 -2.402342,-3.02343749 0,-1.7929688 1.171872,-3.0351563 2.390622,-3.0351563 0.35157,0 0.84375,0.1289063 1.125,0.9023438 z m -0.76172,3.8085937 c -0.55078,0 -1.04296,-0.75 -1.04296,-1.6757812 0,-1.0078125 0.53906,-1.6875 1.03125,-1.6875 0.53906,0 1.03125,0.7382812 1.03125,1.6757812 0,1.0078125 -0.53907,1.6875 -1.01954,1.6875 z m 10.28028,-4.8398437 c 0,-0.375 -0.0703,-0.4921875 -0.48047,-0.4921875 h -0.78516 c -0.16406,0 -0.48047,0 -0.48047,0.3398437 0,0.3515625 0.31641,0.3515625 0.48047,0.3515625 h 0.49219 v 6.11718754 c 0,0.22265625 0,0.4921875 0.39844,0.4921875 0.375,0 0.375,-0.24609375 0.375,-0.59765625 0.29297,0.328125 0.72656,0.66796875 1.40625,0.66796875 1.26562,0 2.3789,-1.13671874 2.3789,-2.64843754 0,-1.4765625 -1.00781,-2.6484375 -2.25,-2.6484375 -0.8789,0 -1.42968,0.5273438 -1.53515,0.6445313 z m 0,3.6328125 c 0,-0.6796875 0.66797,-1.359375 1.45312,-1.359375 0.85547,0 1.54688,0.8789062 1.54688,1.9570312 0,1.1484375 -0.8086,1.95703129 -1.66406,1.95703129 -0.89063,0 -1.33594,-1.01953129 -1.33594,-1.61718749 z M 3.6320469,7.3840859 c 0,-0.1757812 0,-0.4804687 -0.3398438,-0.4804687 -0.2109375,0 -0.28125,0.1054687 -0.3515625,0.2578125 -0.2226562,0.515625 -0.6210937,1.1484375 -1.2539062,1.1953125 -0.1757813,0.011719 -0.4335938,0.035156 -0.4335938,0.3515625 0,0.1992187 0.1171875,0.3398437 0.3867188,0.3398437 0.6679687,0 1.1835937,-0.5039062 1.21875,-0.5273437 V 13.653617 H 1.8039219 c -0.1640625,0 -0.4921875,0 -0.4921875,0.339844 0,0.351562 0.328125,0.351562 0.4921875,0.351562 h 2.8828125 c 0.1640625,0 0.4921875,0 0.4921875,-0.351562 0,-0.339844 -0.328125,-0.339844 -0.4921875,-0.339844 H 3.6320469 Z m 7.6171871,2.5664063 c 0.140625,-0.070312 0.246094,-0.1875 0.246094,-0.3632813 0,-0.2226562 -0.199219,-0.375 -0.375,-0.375 -0.08203,0 -0.175781,0.070312 -0.246094,0.1054688 L 9.5500156,10.137992 c 0,-0.3398436 0.035156,-1.3945311 0.035156,-1.6640623 0,-0.1992188 -0.1757813,-0.3515625 -0.3632813,-0.3515625 -0.1875,0 -0.3515625,0.140625 -0.3515625,0.3515625 0,0.3515625 0,0.4453125 0.011719,0.4570312 0.011719,0.234375 0.023437,0.9257813 0.023437,1.2070311 L 7.5695469,9.3176797 C 7.4992344,9.2825234 7.4054844,9.2122109 7.3234531,9.2122109 c -0.1640625,0 -0.375,0.1523438 -0.375,0.375 0,0.1757813 0.1171875,0.2929688 0.2578125,0.3632813 l 1.3828125,0.7382808 -1.3828125,0.75 c -0.140625,0.07031 -0.2578125,0.175782 -0.2578125,0.363282 0,0.222656 0.2109375,0.363281 0.375,0.363281 0.082031,0 0.1757813,-0.05859 0.2460938,-0.09375 l 1.3359375,-0.820313 -0.011719,0.761719 c -0.023437,0.199219 -0.023437,0.667969 -0.023437,0.902344 0,0.210937 0.1757813,0.351562 0.3515625,0.351562 0.1875,0 0.3632813,-0.152343 0.3632813,-0.351562 0,-0.28125 -0.035156,-1.335938 -0.035156,-1.664063 l 1.1835938,0.726563 c 0.28125,0.1875 0.304688,0.1875 0.386719,0.1875 0.175781,0 0.375,-0.140625 0.375,-0.363281 0,-0.152344 -0.08203,-0.257813 -0.1875,-0.328125 -0.304687,-0.175782 -0.960937,-0.527344 -1.4531253,-0.773438 z m 1.511719,1.5234378 c -0.105469,0.152343 -0.105469,0.175781 -0.105469,0.398437 0,0.421875 0.152344,0.46875 0.46875,0.46875 h 2.929688 v 1.3125 h -0.714844 c -0.164062,0 -0.480469,0 -0.480469,0.339844 0,0.351562 0.316407,0.351562 0.480469,0.351562 h 2.109375 c 0.164063,0 0.46875,0 0.46875,-0.351562 0,-0.339844 -0.304687,-0.339844 -0.46875,-0.339844 h -0.726562 v -1.3125 h 0.902343 c 0.164063,0 0.480469,0 0.480469,-0.351562 0,-0.351563 -0.316406,-0.351563 -0.480469,-0.351563 H 16.721891 V 7.3606484 c 0,-0.3867187 -0.08203,-0.4921875 -0.480469,-0.4921875 h -0.28125 c -0.28125,0 -0.339844,0.023437 -0.492188,0.2460938 z m 0.691406,0.164062 2.601563,-4.1835936 v 4.1835936 z m 14.63086,-0.550781 h 1.699219 c 0.152343,0 0.539062,0 0.539062,-0.386719 0,-0.398437 -0.375,-0.398437 -0.539062,-0.398437 H 28.083219 V 8.5911172 c 0,-0.1523438 0,-0.5390625 -0.386719,-0.5390625 -0.386719,0 -0.386719,0.375 -0.386719,0.5390625 v 1.7109378 h -1.710937 c -0.164063,0 -0.539063,0 -0.539063,0.386718 0,0.398438 0.363282,0.398438 0.539063,0.398438 h 1.710937 v 1.699219 c 0,0.164062 0,0.539062 0.375,0.539062 0.398438,0 0.398438,-0.363281 0.398438,-0.539062 z m 12.987304,0.632812 c 0.164063,-0.152343 1.371094,-1.171875 1.371094,-2.5078121 0,-1.359375 -1.125,-2.3085937 -2.613281,-2.3085937 -1.382813,0 -2.308594,1.03125 -2.308594,2.0390625 0,0.5039062 0.421875,0.5390625 0.492188,0.5390625 0.210937,0 0.480468,-0.1640625 0.480468,-0.4921875 0,-0.2226563 -0.08203,-0.2929688 -0.152343,-0.3515625 0.175781,-0.6328125 0.726562,-1.0429688 1.417968,-1.0429688 1.007813,0 1.910157,0.5859375 1.910157,1.6171875 0,0.9375001 -0.703125,1.6523441 -1.347657,2.2148441 l -2.636718,2.285156 c -0.128907,0.105469 -0.164063,0.140625 -0.164063,0.28125 0,0.351562 0.328125,0.351562 0.492188,0.351562 h 4.171875 c 0.257812,-0.07031 0.257812,-0.316406 0.257812,-0.492187 v -0.246094 c 0,-0.222656 0,-0.492187 -0.375,-0.492187 -0.398437,0 -0.398437,0.246093 -0.398437,0.539062 h -2.882813 z m 7.089844,-1.7695308 c 0.140625,-0.070312 0.246094,-0.1875 0.246094,-0.3632813 0,-0.2226562 -0.199219,-0.375 -0.375,-0.375 -0.08203,0 -0.175781,0.070312 -0.246094,0.1054688 l -1.324219,0.8203123 c 0,-0.3398436 0.03516,-1.3945311 0.03516,-1.6640623 0,-0.1992188 -0.175782,-0.3515625 -0.363282,-0.3515625 -0.1875,0 -0.351562,0.140625 -0.351562,0.3515625 0,0.3515625 0,0.4453125 0.01172,0.4570312 0.01172,0.234375 0.02344,0.9257813 0.02344,1.2070311 L 44.48068,9.3176797 c -0.07031,-0.035156 -0.164063,-0.1054688 -0.246094,-0.1054688 -0.164063,0 -0.375,0.1523438 -0.375,0.375 0,0.1757813 0.117187,0.2929688 0.257812,0.3632813 l 1.382813,0.7382808 -1.382813,0.75 c -0.140625,0.07031 -0.257812,0.175782 -0.257812,0.363282 0,0.222656 0.210937,0.363281 0.375,0.363281 0.08203,0 0.175781,-0.05859 0.246094,-0.09375 l 1.335937,-0.820313 -0.01172,0.761719 c -0.02344,0.199219 -0.02344,0.667969 -0.02344,0.902344 0,0.210937 0.175781,0.351562 0.351562,0.351562 0.1875,0 0.363282,-0.152343 0.363282,-0.351562 0,-0.28125 -0.03516,-1.335938 -0.03516,-1.664063 l 1.183594,0.726563 c 0.28125,0.1875 0.304688,0.1875 0.386719,0.1875 0.175781,0 0.375,-0.140625 0.375,-0.363281 0,-0.152344 -0.08203,-0.257813 -0.1875,-0.328125 -0.304688,-0.175782 -0.960938,-0.527344 -1.453125,-0.773438 z M 53.85568,7.7356484 c 0.164062,0 0.480468,0 0.480468,-0.3515625 0,-0.3398437 -0.316406,-0.3398437 -0.480468,-0.3398437 h -3.105469 c -0.386719,0 -0.480469,0.09375 -0.480469,0.46875 v 3.1874998 c 0,0.164063 0,0.46875 0.351563,0.46875 0.199218,0 0.246093,-0.05859 0.339843,-0.1875 0.363282,-0.410156 0.878907,-0.609375 1.5,-0.609375 0.9375,0 1.511719,0.855469 1.511719,1.699219 0,0.972656 -0.832031,1.722656 -1.839844,1.722656 -0.621093,0 -1.253906,-0.292969 -1.476562,-0.855469 0.05859,-0.04687 0.140625,-0.140625 0.140625,-0.351562 0,-0.316406 -0.28125,-0.492188 -0.480469,-0.492188 -0.105469,0 -0.492187,0.05859 -0.492187,0.527344 0,1.007813 0.996093,1.863281 2.308593,1.863281 1.441407,0 2.613282,-1.078125 2.613282,-2.414062 0,-1.207031 -0.890625,-2.3906251 -2.285157,-2.3906251 -0.386718,0 -0.914062,0.070312 -1.417968,0.3515621 V 7.7356484 Z m 11.135742,3.3515626 h 1.699219 c 0.152343,0 0.539062,0 0.539062,-0.386719 0,-0.398437 -0.375,-0.398437 -0.539062,-0.398437 H 64.991422 V 8.5911172 c 0,-0.1523438 0,-0.5390625 -0.386719,-0.5390625 -0.386719,0 -0.386719,0.375 -0.386719,0.5390625 v 1.7109378 h -1.710937 c -0.164063,0 -0.539063,0 -0.539063,0.386718 0,0.398438 0.363282,0.398438 0.539063,0.398438 h 1.710937 v 1.699219 c 0,0.164062 0,0.539062 0.375,0.539062 0.398438,0 0.398438,-0.363281 0.398438,-0.539062 z m 11.888672,-0.339844 c 1.242187,0 1.792969,0.867188 1.792969,1.523438 0,0.785156 -0.691407,1.523437 -1.746094,1.523437 -1.195313,0 -1.734375,-0.644531 -1.734375,-0.808594 0,-0.02344 0.01172,-0.04687 0.02344,-0.05859 0.04687,-0.09375 0.08203,-0.1875 0.08203,-0.292969 0,-0.246094 -0.1875,-0.480469 -0.46875,-0.480469 -0.257813,0 -0.492188,0.164063 -0.492188,0.527344 0,1.042969 1.136719,1.804687 2.589844,1.804687 1.511719,0 2.519531,-1.078125 2.519531,-2.203125 0,-0.609375 -0.328125,-1.464843 -1.382812,-1.921875 0.726562,-0.4453121 1.054687,-1.1718746 1.054687,-1.7929683 0,-0.890625 -0.902344,-1.6640625 -2.191406,-1.6640625 -1.324219,0 -2.261719,0.5625 -2.261719,1.453125 0,0.3984375 0.304688,0.515625 0.492188,0.515625 0.222656,0 0.480468,-0.1640625 0.480468,-0.4921875 0,-0.1875 -0.09375,-0.2929688 -0.09375,-0.3164063 0.351563,-0.4453125 1.183594,-0.46875 1.382813,-0.46875 0.820312,0 1.417969,0.421875 1.417969,0.984375 0,0.3515625 -0.234375,1.3476563 -1.488282,1.4296876 -0.445312,0.02344 -0.632812,0.04687 -0.679687,0.04687 -0.234375,0.02344 -0.304688,0.175781 -0.304688,0.339844 0,0.351562 0.257813,0.351562 0.457032,0.351562 z M 85.0715,9.9504922 c 0.140625,-0.070312 0.246094,-0.1875 0.246094,-0.3632813 0,-0.2226562 -0.199219,-0.375 -0.375,-0.375 -0.08203,0 -0.175781,0.070312 -0.246094,0.1054688 l -1.324219,0.8203123 c 0,-0.3398436 0.03516,-1.3945311 0.03516,-1.6640623 0,-0.1992188 -0.175782,-0.3515625 -0.363282,-0.3515625 -0.1875,0 -0.351562,0.140625 -0.351562,0.3515625 0,0.3515625 0,0.4453125 0.01172,0.4570312 0.01172,0.234375 0.02344,0.9257813 0.02344,1.2070311 L 81.391813,9.3176797 C 81.3215,9.2825234 81.22775,9.2122109 81.145719,9.2122109 c -0.164063,0 -0.375,0.1523438 -0.375,0.375 0,0.1757813 0.117187,0.2929688 0.257812,0.3632813 l 1.382813,0.7382808 -1.382813,0.75 c -0.140625,0.07031 -0.257812,0.175782 -0.257812,0.363282 0,0.222656 0.210937,0.363281 0.375,0.363281 0.08203,0 0.175781,-0.05859 0.246094,-0.09375 l 1.335937,-0.820313 -0.01172,0.761719 c -0.02344,0.199219 -0.02344,0.667969 -0.02344,0.902344 0,0.210937 0.175781,0.351562 0.351562,0.351562 0.1875,0 0.363282,-0.152343 0.363282,-0.351562 0,-0.28125 -0.03516,-1.335938 -0.03516,-1.664063 l 1.183594,0.726563 c 0.28125,0.1875 0.304688,0.1875 0.386719,0.1875 0.175781,0 0.375,-0.140625 0.375,-0.363281 0,-0.152344 -0.08203,-0.257813 -0.1875,-0.328125 -0.304688,-0.175782 -0.960938,-0.527344 -1.453125,-0.773438 z m 2.472656,0.4101558 c 0.128907,-1.5703121 1.160157,-2.7656246 2.332032,-2.7656246 0.246093,0 0.515625,0.035156 0.691406,0.2226563 -0.04687,0.058594 -0.09375,0.1171875 -0.09375,0.3046875 0,0.2226562 0.175781,0.46875 0.480469,0.46875 0.316406,0 0.492187,-0.2226563 0.492187,-0.4921875 0,-0.6445313 -0.492187,-1.1953125 -1.558594,-1.1953125 -1.558593,0 -3.128906,1.453125 -3.128906,3.8671878 0,2.882812 1.324219,3.714843 2.460938,3.714843 1.277343,0 2.414062,-1.007812 2.414062,-2.449218 0,-1.394532 -1.042969,-2.4492191 -2.285156,-2.4492191 -0.609375,0 -1.289063,0.2226563 -1.804688,0.7734371 z m 1.675782,3.433594 c -1.277344,0 -1.535157,-1.628906 -1.535157,-1.640625 0,-0.01172 0.01172,-0.07031 0.01172,-0.105469 0,-0.07031 -0.04687,-0.222656 -0.04687,-0.363281 0,-0.703125 0.644531,-1.394531 1.617188,-1.394531 0.9375,0 1.59375,0.808594 1.59375,1.746094 0,1.042968 -0.773438,1.757812 -1.640625,1.757812 z m 14.405272,-3.621094 c 0.15234,0 0.51563,0 0.51563,-0.3867183 0,-0.3867188 -0.39844,-0.3867188 -0.57422,-0.3867188 h -4.113284 c -0.1875,0 -0.574219,0 -0.574219,0.3867188 0,0.3867183 0.363281,0.3867183 0.515625,0.3867183 z m -0.0586,1.816407 c 0.17578,0 0.57422,0 0.57422,-0.398438 0,-0.375 -0.375,-0.375 -0.51563,-0.375 h -4.230468 c -0.164062,0 -0.515625,0 -0.515625,0.375 0,0.398438 0.386719,0.398438 0.574219,0.398438 z m 10.22461,-1.242188 c 1.24218,0 1.79297,0.867188 1.79297,1.523438 0,0.785156 -0.69141,1.523437 -1.7461,1.523437 -1.19531,0 -1.73437,-0.644531 -1.73437,-0.808594 0,-0.02344 0.0117,-0.04687 0.0234,-0.05859 0.0469,-0.09375 0.082,-0.1875 0.082,-0.292969 0,-0.246094 -0.1875,-0.480469 -0.46875,-0.480469 -0.25782,0 -0.49219,0.164063 -0.49219,0.527344 0,1.042969 1.13672,1.804687 2.58984,1.804687 1.51172,0 2.51953,-1.078125 2.51953,-2.203125 0,-0.609375 -0.32812,-1.464843 -1.38281,-1.921875 0.72656,-0.4453121 1.05469,-1.1718746 1.05469,-1.7929683 0,-0.890625 -0.90235,-1.6640625 -2.19141,-1.6640625 -1.32422,0 -2.26172,0.5625 -2.26172,1.453125 0,0.3984375 0.30469,0.515625 0.49219,0.515625 0.22266,0 0.48047,-0.1640625 0.48047,-0.4921875 0,-0.1875 -0.0937,-0.2929688 -0.0937,-0.3164063 0.35156,-0.4453125 1.18359,-0.46875 1.38281,-0.46875 0.82031,0 1.41797,0.421875 1.41797,0.984375 0,0.3515625 -0.23437,1.3476563 -1.48828,1.4296876 -0.44531,0.02344 -0.63281,0.04687 -0.67969,0.04687 -0.23437,0.02344 -0.30469,0.175781 -0.30469,0.339844 0,0.351562 0.25782,0.351562 0.45704,0.351562 z m 7.2539,0.972656 c 0.16407,-0.152343 1.3711,-1.171875 1.3711,-2.5078121 0,-1.359375 -1.125,-2.3085937 -2.61328,-2.3085937 -1.38282,0 -2.3086,1.03125 -2.3086,2.0390625 0,0.5039062 0.42188,0.5390625 0.49219,0.5390625 0.21094,0 0.48047,-0.1640625 0.48047,-0.4921875 0,-0.2226563 -0.082,-0.2929688 -0.15235,-0.3515625 0.17579,-0.6328125 0.72657,-1.0429688 1.41797,-1.0429688 1.00782,0 1.91016,0.5859375 1.91016,1.6171875 0,0.9375001 -0.70313,1.6523441 -1.34766,2.2148441 l -2.63672,2.285156 c -0.1289,0.105469 -0.16406,0.140625 -0.16406,0.28125 0,0.351562 0.32813,0.351562 0.49219,0.351562 h 4.17187 c 0.25782,-0.07031 0.25782,-0.316406 0.25782,-0.492187 v -0.246094 c 0,-0.222656 0,-0.492187 -0.375,-0.492187 -0.39844,0 -0.39844,0.246093 -0.39844,0.539062 h -2.88281 z m 0,0"
       style="fill:#000000;fill-opacity:1;fill-rule:nonzero;stroke:none"
       aria-label="np.dot(a,b)=a@b&#10;1*4+2*5+3*6=32"
       transform="matrix(1.3333333,0,0,1.3333333,273.32133,105.20533)" />
  </g>
</svg>
